<svg xmlns="http://www.w3.org/2000/svg" xmlns:svg="http://www.w3.org/2000/svg" fill-rule="evenodd" stroke-miterlimit="10" clip-rule="evenodd" viewBox="0 0 64.353996 74.309402" xml:space="preserve"><path fill="#9aa3ad" fill-rule="nonzero" d="M63.354 55.1546997v-36l-31.177-18-31.177 18v36l31.177 18z" opacity=".3"/><path fill="none" stroke="#000" stroke-width="2" d="M63.354 55.1546997v-36l-31.177-18-31.177 18v36l31.177 18z"/><path fill="#fff" fill-rule="nonzero" stroke="#000" stroke-linecap="round" stroke-linejoin="round" stroke-width="2" d="M44.4266 34.6040997h-24.499l-3.498 3.497v17.594c0 1.932 1.566 3.498 3.498 3.498h1.462l3.497-3.497v-9.054c.511.794 1.021 1.589 1.531 2.383.511.795 1.021 1.589 1.531 2.384h8.457c.51-.795 1.02-1.589 1.531-2.384.51-.794 1.02-1.589 1.53-2.383v9.054l3.498 3.497h1.462c1.932 0 3.497-1.566 3.497-3.498v-17.594z"/><path fill="none" stroke="#000" stroke-linecap="round" stroke-linejoin="round" d="M20.0162 34.6041997v18.274l4.96 2.817m19.3618-21.091v18.747l-4.96 2.345"/><path fill="#fff" fill-rule="nonzero" d="M28.8967 43.5336997v9.621h-1.362c-7.484-9.734-8.087-24.623-8.087-24.623l5.285-13.415 5.626 1.068v1.296h3.637v-1.296l5.626-1.068 5.285 13.415s-.604 14.889-8.087 24.623h-1.362v-9.621c0-1.812-1.469-3.28-3.281-3.28-1.811 0-3.28 1.468-3.28 3.28z"/><path fill-rule="nonzero" d="M27.9202 51.4086997c.126-2.317.369-4.633.458-6.95.018-.289.025-.579.031-.869.01-.315.047-.658.136-.974.156-.646.498-1.238.952-1.719.913-.972 2.389-1.38 3.668-.988 1.283.36 2.331 1.407 2.698 2.703.101.318.139.671.158.987l.054.869.131 1.737c.078 1.159.18 2.317.216 3.475.04 1.158.04 2.317.047 3.475l-1.012-1.012 1.363-.008-.809.399c1.235-1.707 2.341-3.517 3.24-5.447.876-1.937 1.677-3.921 2.288-5.977.62-2.051 1.123-4.142 1.515-6.257.386-2.105.682-4.272.811-6.363l.072.423-5.247-13.429 1.118.616-5.626 1.067.813-.982v2.296h-5.636v-2.296l.813.982h-.001l-5.625-1.068 1.117-.616-5.285 13.415.069-.407c.123 2.095.413 4.264.794 6.373.387 2.117.892 4.211 1.51 6.266.613 2.057 1.404 4.05 2.299 5.982.912 1.928 2.031 3.734 3.277 5.434l-.793-.391h1.362l-1 1c-.005-.582-.001-1.164.024-1.746m1.953 0c.025.582.029 1.164.023 1.746l-.009 1h-2.859l-.287-.39c-1.344-1.828-2.534-3.758-3.495-5.79-.945-2.036-1.77-4.123-2.408-6.262-.643-2.136-1.165-4.303-1.565-6.491-.394-2.198-.691-4.375-.824-6.65l-.012-.202.08-.205 5.285-13.415.304-.77.813.154 5.625 1.068h.001l.814.155v2.124l-1-1h3.636l-1 1v-2.124l.814-.155 5.625-1.069.812-.154.306.771 5.323 13.4.084.21-.012.214c-.128 2.279-.419 4.457-.807 6.659-.396 2.191-.919 4.36-1.56 6.5-.64 2.14-1.455 4.236-2.419 6.267-.975 2.029-2.177 3.955-3.533 5.777l-.298.401-.51-.003-1.363-.008-1.017-.006.006-1.006c.006-1.158.007-2.317.046-3.475.037-1.158.138-2.316.217-3.475l.13-1.737.054-.869c.013-.262.007-.491-.044-.734-.166-.969-.972-1.799-1.936-2.03-.96-.255-2.023.046-2.731.736-.35.35-.611.791-.728 1.274-.065.244-.071.483-.07.745.006.29.013.58.031.869.089 2.317.332 4.633.458 6.95"/><path fill="none" stroke="#000" stroke-linecap="round" stroke-linejoin="round" d="M35.4575 37.6742997c5.494-2.83 4.963-8.686 4.963-8.686l-2.387-13.571m-11.7348-.0037-2.387 13.575s-.509 5.855 4.985 8.686"/><path fill="#fff" fill-rule="nonzero" stroke="#000" d="M27.1542 28.8518997c.55-.781 1.309-1.38 2.173-1.81.865-.427 1.845-.665 2.826-.675.98-.017 1.966.203 2.841.612.874.411 1.647 1 2.206 1.774l-1.004 1.136c-.68-.314-1.352-.573-2.018-.749-.668-.173-1.331-.248-2-.248-.669.006-1.33.097-1.997.281-.664.188-1.332.465-2.001.795Z"/><path fill="none" stroke="#000" stroke-linecap="round" stroke-linejoin="round" d="M28.8967 48.5322997h6.561"/><path fill="#fff" fill-rule="nonzero" stroke="#000" d="M35.4576 37.6742997c-.279-.247-1.477-1.255-3.303-1.247-1.797.008-2.975.996-3.258 1.247"/><path fill-rule="nonzero" d="M34.9954 16.4807997h-5.637v5.035c0 1.554 1.265 2.818 2.819 2.818s2.818-1.264 2.818-2.818Zm-1 1v4.035c0 .997-.821 1.818-1.818 1.818-.998 0-1.819-.821-1.819-1.818v-4.035h3.637"/></svg>