<svg viewBox="0 0 301 338" xmlns="http://www.w3.org/2000/svg" fill-rule="evenodd" clip-rule="evenodd" stroke-miterlimit="10"><g transform="translate(.5 .06) scale(4.16667)"><path fill="none" d="M0 0h72v81H0z"/><clipPath id="prefix__a"><path d="M0 0h72v81H0z"/></clipPath><g clip-path="url(#prefix__a)"><clipPath id="prefix__b"><path d="M4.823 22.5v36L36 76.5l31.177-18v-36L36 4.5l-31.177 18z" clip-rule="nonzero"/></clipPath><g clip-path="url(#prefix__b)"><path d="M67.177 58.5v-36L36 4.5l-31.177 18v36L36 76.5l31.177-18z" fill="#3f7faa" fill-rule="nonzero" opacity=".3"/><path d="M49.015 49.365l-5.55 4.34-2.06.4 2.83-6.35.2-5.81a2.823 2.823 0 012.91-2.72c.36.01.65.29.69.64l.98 9.5z" fill="#3f7faa" fill-rule="nonzero" opacity=".3"/><g opacity=".3"><clipPath id="prefix__c"><path clip-rule="nonzero" d="M48.617 37.173H61.3v22.785H48.617z"/></clipPath><g clip-path="url(#prefix__c)"><path d="M60.795 43.355l-.6 9.93-9.99 5.27 6.55-9.39-1.35-7.93.92-1.9c.51-1.05 1.59-1.7 2.75-1.66l1.72 5.68z" fill="#3f7faa" fill-rule="nonzero" stroke="#231f20"/></g></g><path d="M56.755 49.165l-6.55 9.39-2.14 3.07-33.18 18.73-9.56 1.67-3.49-11.38 25.09-8.82-.8-2.34 3.62-6.88-.04-6.13 2.76-5.08c.42-.77 1.21-1.23 2.06-1.23.17 0 .34.02.51.06h.01c.12.03.23.06.35.11.09.03.19.08.28.13.02.01.04.02.06.04.09.05.17.1.25.17.05.03.09.07.13.12.14.12.25.26.35.41.16.25.27.52.34.8.03.08.04.16.05.24.01.04.02.08.02.12l.66 5.63-1.71 5.53-.55 1.77 1.79-.35h.03l4.31-.84 2.06-.4 5.55-4.34 2.42-1.89-1.12-7.46a3.482 3.482 0 012.14-3.76l2.95 4.98 1.35 7.93z" fill="#fff" fill-rule="nonzero"/><path d="M56.755 49.165l-6.55 9.39-2.14 3.07-33.18 18.73-9.56 1.67-3.49-11.38 25.09-8.82-.8-2.34 3.62-6.88-.04-6.13 2.76-5.08c.42-.77 1.21-1.23 2.06-1.23.17 0 .34.02.51.06h.01c.12.03.23.06.35.11.09.03.19.08.28.13.02.01.04.02.06.04.09.05.17.1.25.17.05.03.09.07.13.12.14.12.25.26.35.41.17.24.29.51.34.8.03.08.04.16.05.24l.68 5.75-1.71 5.53c-.25.79.42 1.56 1.24 1.42h.03l4.31-.84 2.06-.4 5.55-4.34 2.42-1.89-1.12-7.46a3.482 3.482 0 012.14-3.76l2.95 4.98 1.35 7.93z" fill="none" stroke="#231f20" stroke-width="2"/><path d="M50.207 58.551l9.991-5.27.596-9.925-1.719-5.68a2.94 2.94 0 00-2.75 1.66l-.919 1.902" fill="none" stroke="#231f20" stroke-width="1.5"/><path d="M48.822 49.4l-.986-9.504a.708.708 0 00-.68-.635 2.82 2.82 0 00-2.918 2.72l-.203 5.803-2.826 6.355" fill="none" stroke="#231f20"/><path d="M30.867 43.566c1.43-.323 2.927.074 3.909.955-1.182-.604-2.548-.548-3.587-.008l-.322-.947zM43.726 47.38a3.743 3.743 0 011.42-.356 2.77 2.77 0 011.335.258 2.504 2.504 0 00-1.225.23 3.077 3.077 0 00-.517.301 2.379 2.379 0 00-.417.37l-.596-.803zM56.28 43.155c.087.168.243.375.387.55.149.18.312.35.492.498.355.296.789.531 1.318.457-.426.321-1.073.354-1.626.226a4.546 4.546 0 01-.826-.257 4.862 4.862 0 01-.796-.405l1.052-1.069zM57.846 49.165c-.041-.2-.064-.17-.087-.216a.207.207 0 00-.06-.048c-.032-.016-.054-.012-.064-.002-.026.02-.016.065.005.109.043.09.142.183.246.27.217.173.485.323.76.459a4.752 4.752 0 01-.917.275c-.17.025-.346.047-.558.019a1.139 1.139 0 01-.357-.108.888.888 0 01-.334-.284c-.041-.077-.077-.08-.125-.314l1.49-.16zM27.762 61.268l2.102 4.962-2.934-4.408.832-.554z" fill="#231f20" fill-rule="nonzero"/><path d="M23.891 32.183l17.042 3.685 6.785-12.362-8.019-10.53-12.449 3.671-3.359 15.536z" fill="#fff" fill-rule="nonzero" stroke="#231f20" stroke-width="2"/><path d="M27.25 16.648l12.449-3.672M27.25 16.648l-3.36 15.536 17.965-7.735-14.605-7.801zM39.7 12.976l2.155 11.472 5.863-.942-8.019-10.53z" fill="none" stroke="#231f20" stroke-linecap="round" stroke-linejoin="round"/><path d="M40.933 35.869L23.89 32.184l17.964-7.735-.922 11.42z" fill="none" stroke="#231f20" stroke-linecap="round" stroke-linejoin="round"/><path d="M40.932 35.869l6.785-12.364" fill="none" stroke="#231f20"/></g><g><path d="M67.177 58.5v-36L36 4.5l-31.177 18v36L36 76.5l31.177-18z" fill="none" stroke="#231f20" stroke-width="2"/></g></g></g></svg>