<svg viewBox="0 0 301 338" xmlns="http://www.w3.org/2000/svg" fill-rule="evenodd" clip-rule="evenodd" stroke-miterlimit="10"><g transform="translate(.5 .375) scale(4.16667)"><path fill="none" d="M0 0h72v81H0z"/><clipPath id="prefix__a"><path d="M0 0h72v81H0z"/></clipPath><g clip-path="url(#prefix__a)"><path d="M67.177 58.5v-36L36 4.5l-31.177 18v36L36 76.5l31.177-18z" fill="#3f7faa" fill-rule="nonzero" opacity=".3"/><clipPath id="prefix__b"><path d="M4.823 22.5v36L36 76.5l31.177-18v-36L36 4.5l-31.177 18z" clip-rule="nonzero"/></clipPath><g clip-path="url(#prefix__b)"><g opacity=".3"><path d="M12.136 51.21H.895L4.882 40.5.895 29.79h11.24l3.988 10.71-3.987 10.71z" fill="#3f7faa" fill-rule="nonzero"/><path d="M25.93 51.21H14.69l3.986-10.71-3.987-10.71H25.93l3.987 10.71-3.987 10.71z" fill="#3f7faa" fill-rule="nonzero"/><path d="M39.725 51.21H28.484L32.47 40.5l-3.987-10.71h11.24l3.988 10.71-3.987 10.71z" fill="#3f7faa" fill-rule="nonzero"/><path d="M53.52 51.21H42.277l3.987-10.71-3.987-10.71H53.52l3.987 10.71-3.987 10.71z" fill="#3f7faa" fill-rule="nonzero"/><path d="M67.314 51.21H56.073L60.06 40.5l-3.987-10.71h11.24l3.988 10.71-3.987 10.71z" fill="#3f7faa" fill-rule="nonzero"/></g><path d="M22.384 62.515a2.447 2.447 0 01-.783-4.764l7.636-2.58 2.27-9.637a2.445 2.445 0 012.94-1.821c1.315.31 3.963 1.53 3.654 2.846l-4.414 11.055a2.444 2.444 0 01-1.597 1.757l-8.923 3.015a2.456 2.456 0 01-.783.129M42.02 40.1a2.44 2.44 0 01-1.689-.676l-5.449-5.195a2.447 2.447 0 013.376-3.54l4.015 3.828 5.962-4.077a2.445 2.445 0 112.761 4.037L43.4 39.673a2.445 2.445 0 01-1.38.427" fill="#fff" fill-rule="nonzero"/><clipPath id="prefix__c"><path clip-rule="nonzero" d="M19.438 43.148h19.188v19.867H19.438z"/></clipPath><g clip-path="url(#prefix__c)"><path d="M22.384 62.515a2.447 2.447 0 01-.783-4.764l7.636-2.58 2.27-9.637a2.445 2.445 0 012.94-1.821c1.315.31 3.963 1.53 3.654 2.846l-4.414 11.055a2.444 2.444 0 01-1.597 1.757l-8.923 3.015a2.456 2.456 0 01-.783.129" fill="#3f7faa" fill-rule="nonzero" opacity=".3"/><path d="M22.384 62.515a2.447 2.447 0 01-.783-4.764l7.636-2.58 2.27-9.637a2.445 2.445 0 012.94-1.821c1.315.31 3.963 1.53 3.654 2.846l-4.414 11.055a2.444 2.444 0 01-1.597 1.757l-8.923 3.015a2.456 2.456 0 01-.783.129z" fill="none" stroke="#231f20"/></g><clipPath id="prefix__d"><path clip-rule="nonzero" d="M33.625 29.512h18.937V40.6H33.625z"/></clipPath><g clip-path="url(#prefix__d)"><path d="M42.02 40.1a2.44 2.44 0 01-1.689-.676l-5.449-5.195a2.447 2.447 0 013.376-3.54l4.015 3.828 5.962-4.077a2.445 2.445 0 112.761 4.037L43.4 39.673a2.445 2.445 0 01-1.38.427" fill="#3f7faa" fill-rule="nonzero" opacity=".3"/><path d="M42.02 40.1a2.44 2.44 0 01-1.689-.676l-5.449-5.195a2.447 2.447 0 013.376-3.54l4.015 3.828 5.962-4.077a2.445 2.445 0 112.761 4.037L43.4 39.673a2.445 2.445 0 01-1.38.427z" fill="none" stroke="#231f20"/></g><clipPath id="prefix__e"><path clip-rule="nonzero" d="M19.438 43.148h19.188v19.867H19.438z"/></clipPath><g clip-path="url(#prefix__e)"><path d="M22.384 62.515a2.447 2.447 0 01-.783-4.764l7.636-2.58 2.27-9.637a2.445 2.445 0 012.94-1.821c1.315.31 3.963 1.53 3.654 2.846l-4.414 11.055a2.444 2.444 0 01-1.597 1.757l-8.923 3.015a2.456 2.456 0 01-.783.129" fill="#3f7faa" fill-rule="nonzero" opacity=".3"/><path d="M22.384 62.515a2.447 2.447 0 01-.783-4.764l7.636-2.58 2.27-9.637a2.445 2.445 0 012.94-1.821c1.315.31 3.963 1.53 3.654 2.846l-4.414 11.055a2.444 2.444 0 01-1.597 1.757l-8.923 3.015a2.456 2.456 0 01-.783.129z" fill="none" stroke="#231f20"/></g><clipPath id="prefix__f"><path clip-rule="nonzero" d="M33.625 29.512h18.937V40.6H33.625z"/></clipPath><g clip-path="url(#prefix__f)"><path d="M42.02 40.1a2.44 2.44 0 01-1.689-.676l-5.449-5.195a2.447 2.447 0 013.376-3.54l4.015 3.828 5.962-4.077a2.445 2.445 0 112.761 4.037L43.4 39.673a2.445 2.445 0 01-1.38.427" fill="#3f7faa" fill-rule="nonzero" opacity=".3"/><path d="M42.02 40.1a2.44 2.44 0 01-1.689-.676l-5.449-5.195a2.447 2.447 0 013.376-3.54l4.015 3.828 5.962-4.077a2.445 2.445 0 112.761 4.037L43.4 39.673a2.445 2.445 0 01-1.38.427z" fill="none" stroke="#231f20"/></g><path d="M46.742 60.271c.47 1.22.069 2.66-1.052 3.334a2.67 2.67 0 01-3.888-1.313L37.025 54l-6.521-7.495a2.667 2.667 0 01-.65-2.77l5.727-16.585c.47-1.365 1.916-2.236 3.304-1.837a2.67 2.67 0 011.789 3.436l-2.455 14.534c-.075.448.023.908.276 1.285l4.32 6.456c.162.243.3.501.412.77l3.515 8.477z" fill="#fff" fill-rule="nonzero"/><path d="M45.813 60.643l-3.272-7.807c-.137-.317-.278-.687-.388-.894a3.538 3.538 0 00-.209-.352l-.297-.44-1.183-1.757-2.36-3.52-.295-.44c-.095-.153-.186-.26-.34-.546a2.82 2.82 0 01-.294-1.63l.374-2.14.76-4.17c.53-2.776 1.181-5.532 1.755-8.3l.017-.08.01-.02c.378-.861.022-2.007-.83-2.51-.836-.555-1.997-.346-2.673.416-.365.375-.505.797-.706 1.415l-.584 1.719-1.167 3.437c-.788 2.289-1.523 4.595-2.286 6.892l-1.136 3.448c-.216.634-.346 1.003-.273 1.46.057.44.271.852.588 1.153l.011.01.028.032 6.656 7.377.051.057.052.088c1.625 2.745 3.267 5.48 4.853 8.248l.037.064.03.077a1.667 1.667 0 002.172.935c.428-.176.72-.466.891-.89.166-.41.163-.925.008-1.332m1.857-.743c.352.912.355 1.9.01 2.808-.33.903-1.12 1.689-2.007 2.034a3.655 3.655 0 01-2.844-.033 3.677 3.677 0 01-1.967-2.053l.066.14c-1.598-2.761-3.14-5.554-4.7-8.337l.103.145-6.387-7.612.04.04a3.404 3.404 0 01-.967-2.048 3.312 3.312 0 01.08-1.14c.107-.405.212-.628.314-.928l1.234-3.415c.815-2.278 1.66-4.547 2.452-6.834l1.202-3.425.601-1.713c.17-.524.435-1.286.946-1.775.488-.512 1.138-.886 1.856-.995a3.078 3.078 0 012.09.397c1.273.715 1.917 2.358 1.465 3.795l.025-.1c-.367 2.805-.657 5.62-1.067 8.418l-.653 4.188-.325 2.038a.738.738 0 00.087.423l.526.787 2.353 3.524 1.174 1.765.293.44c.117.177.23.369.328.562.21.422.308.719.451 1.05L47.67 59.9z" fill="#231f20" fill-rule="nonzero"/><g><path d="M38.307 32.532l-8.336 3.047-4.03 7.016a2.663 2.663 0 11-4.62-2.653l4.514-7.857c.313-.544.807-.96 1.396-1.175l9.248-3.38" fill="#fff" fill-rule="nonzero"/></g><g><path d="M38.307 32.532l-7.993 3.986.523-.441-2.371 4.004-1.186 2.002-.603 1.016a3.531 3.531 0 01-4.018 1.54 3.492 3.492 0 01-2.204-1.966 3.445 3.445 0 01.089-2.925c.427-.762.799-1.361 1.202-2.05l2.372-4.003 1.196-2.017a3.321 3.321 0 011.65-1.344l.559-.197 8.784-3.077.343.939-8.698 3.313-.534.204a2.022 2.022 0 00-.984.847L25.31 34.38l-2.263 4.066-1.101 1.993a1.844 1.844 0 00-.004 1.578 1.813 1.813 0 002.689.734c.213-.15.39-.344.519-.57l.559-1 1.13-2.033 2.265-4.066.202-.363.322-.078 8.679-2.11z" fill="#231f20" fill-rule="nonzero"/></g><g><path d="M45.042 22.818a5.816 5.816 0 01-5.817 5.816 5.817 5.817 0 115.817-5.816" fill="#fff" fill-rule="nonzero"/></g><g transform="matrix(0 -1 -1 0 39.224 17)"><ellipse cx="-5.818" rx="5.817" ry="5.818" fill="none" stroke="#231f20" stroke-width="2"/></g></g><g><path d="M67.177 58.5v-36L36 4.5l-31.177 18v36L36 76.5l31.177-18z" fill="none" stroke="#231f20" stroke-width="2"/></g></g></g></svg>