<svg xmlns="http://www.w3.org/2000/svg" xmlns:svg="http://www.w3.org/2000/svg" fill-rule="evenodd" stroke-linecap="round" stroke-linejoin="round" stroke-miterlimit="10" clip-rule="evenodd" viewBox="0 0 64.353996 74.309402" xml:space="preserve"><g transform="translate(-3.8229 -3.3453003)"><clipPath id="a"><path d="M4.823 22.5v36L36 76.5l31.177-18v-36L36 4.5Z" clip-rule="nonzero"/></clipPath><g clip-path="url(#a)"><path fill="#3f7faa" fill-rule="nonzero" d="M67.1769 58.5v-36l-31.177-18-31.177 18v36l31.177 18z" opacity=".3"/><path fill="#fff" fill-rule="nonzero" d="M42.7892 24.0833c0 3.749-3.039 6.789-6.79 6.789-3.748 0-6.788-3.04-6.788-6.789 0-3.749 3.04-6.79 6.788-6.79 3.751 0 6.79 3.041 6.79 6.79"/><circle cx="-6.789" r="6.789" fill="none" stroke="#231f20" stroke-width="2" transform="matrix(0 -1 -1 0 36.0002 17.2943)"/><path fill="#fff" fill-rule="nonzero" stroke="#231f20" stroke-width="2" d="M43.7744 30.8714h-15.549c-4.49 0-8.067 3.757-7.847 8.241l.605 12.356c.183 3.735 3.264 6.669 7.004 6.669l2.003 18.363h12.019l2.003-18.363c3.74 0 6.821-2.934 7.004-6.669l.606-12.356c.219-4.484-3.358-8.241-7.848-8.241Z"/><g fill="#3f7faa" fill-rule="nonzero" opacity=".4"><path d="M68.9538 30.8118c0 2.17-1.759 3.929-3.929 3.929s-3.929-1.759-3.929-3.929 1.759-3.929 3.929-3.929 3.929 1.759 3.929 3.929"/><path d="M69.5243 34.7406h-8.999c-2.598 0-4.668 2.174-4.541 4.77l.35 7.15c.106 2.161 1.889 3.859 4.053 3.859l1.16 10.628h6.956l1.159-10.628c2.164 0 3.948-1.698 4.053-3.859l.351-7.15c.127-2.596-1.943-4.77-4.542-4.77"/></g><g fill="#3f7faa" fill-rule="nonzero" opacity=".4"><path d="M10.9037 30.8118c0 2.17-1.759 3.929-3.929 3.929s-3.929-1.759-3.929-3.929 1.759-3.929 3.929-3.929 3.929 1.759 3.929 3.929"/><path d="M11.4742 34.7406h-8.999c-2.598 0-4.668 2.174-4.541 4.77l.35 7.15c.106 2.161 1.889 3.859 4.053 3.859l1.16 10.628h6.956l1.159-10.628c2.164 0 3.948-1.698 4.053-3.859l.351-7.15c.127-2.596-1.943-4.77-4.542-4.77"/></g></g></g><path fill="none" stroke="#231f20" stroke-linecap="butt" stroke-linejoin="miter" stroke-width="2" d="M63.354 55.1546997v-36l-31.177-18-31.177 18v36l31.177 18z"/></svg>