<svg viewBox="0 0 300 338" xmlns="http://www.w3.org/2000/svg" fill-rule="evenodd" clip-rule="evenodd" stroke-miterlimit="10"><g transform="translate(0 .06) scale(4.16667)"><path fill="none" d="M0 0h72v81H0z"/><clipPath id="prefix__a"><path d="M0 0h72v81H0z"/></clipPath><g clip-path="url(#prefix__a)"><clipPath id="prefix__b"><path d="M4.823 22.5v36L36 76.5l31.177-18v-36L36 4.5l-31.177 18z" clip-rule="nonzero"/></clipPath><g clip-path="url(#prefix__b)"><path d="M67.177 58.5v-36L36 4.5l-31.177 18v36L36 76.5l31.177-18z" fill="#7f5a90" fill-rule="nonzero" opacity=".3"/></g><path d="M32.068 46.964L25.3 24.55l-4.194 13.896H4.823v4h19.252L25.3 38.39l6.768 22.413 8.196-27.148 6.868 22.677 4.192-13.886h15.853v-4H48.354l-1.227 4.066-6.867-22.677-8.192 27.129z" fill="#fff" fill-rule="nonzero"/><path d="M38.346 22.712l-6.278 20.793-4.853-16.074-1.915-6.34-1.915 6.34-3.023 10.014H4.823v2.001h17.025L25.3 28.01l6.768 22.413L40.26 23.29l6.868 22.678 1.97-6.52h18.08v-2.002H47.611l-.43 1.422-.056.19-4.95-16.348-1.918-6.329-1.912 6.331zm-6.278 34.632L25.3 34.928l-1.968 6.517H4.823v2h19.994l.43-1.422.053-.175 4.852 16.073 1.916 6.34 1.914-6.34 6.284-20.812 4.95 16.347 1.917 6.33 1.911-6.332 3.023-10.01h15.11v-2H50.582l-3.452 11.43L40.263 30.2l-8.195 27.144z" fill="#231f20" fill-rule="nonzero"/><g><path d="M67.177 58.5v-36L36 4.5l-31.177 18v36L36 76.5l31.177-18z" fill="none" stroke="#231f20" stroke-width="2"/></g></g></g></svg>