<svg viewBox="0 0 301 338" xmlns="http://www.w3.org/2000/svg" fill-rule="evenodd" clip-rule="evenodd" stroke-miterlimit="10"><g transform="translate(.5 .44) scale(4.16667)"><path fill="none" d="M0 0h72v81H0z"/><clipPath id="prefix__a"><path d="M0 0h72v81H0z"/></clipPath><g clip-path="url(#prefix__a)"><path d="M36 76.5l31.177-18v-36L36 4.5l-31.177 18v36L36 76.5z" fill="#3f7faa" fill-rule="nonzero" opacity=".3"/><path d="M36 76.5l31.177-18v-36L36 4.5l-31.177 18v36L36 76.5z" fill="none" stroke="#231f20" stroke-width="2"/><path d="M31.29 45.97v5.972l-4.028 4.029v4.794" fill="none" stroke="#231f20"/><path d="M28.79 60.765a1.5 1.5 0 11-3-.001 1.5 1.5 0 013 0" fill="#fff" fill-rule="nonzero"/><circle cx="-1.5" r="1.5" fill="none" stroke="#231f20" transform="matrix(0 -1 -1 0 27.29 59.265)"/><path d="M19.217 40.53h8.237" fill="none" stroke="#231f20"/><path d="M20.717 40.53a1.5 1.5 0 11-3.001-.002 1.5 1.5 0 013 .001" fill="#fff" fill-rule="nonzero"/><circle cx="-1.5" r="1.5" fill="none" stroke="#231f20" transform="matrix(0 -1 -1 0 19.217 39.03)"/><path d="M54.447 36.617H49.98l-2.233 3.868H43.28M49.983 44.354l-2.233-3.868h-4.467" fill="none" stroke="#231f20"/><path d="M53.445 37.115a1.5 1.5 0 113.001.001 1.5 1.5 0 01-3.001-.001" fill="#fff" fill-rule="nonzero"/><circle cx="1.5" r="1.5" fill="none" stroke="#231f20" transform="matrix(0 1 1 0 54.945 35.615)"/><path d="M48.98 44.852a1.5 1.5 0 113.002 0 1.5 1.5 0 01-3.001 0" fill="#fff" fill-rule="nonzero"/><circle cx="1.5" r="1.5" fill="none" stroke="#231f20" transform="matrix(0 1 1 0 50.48 43.352)"/><path fill="#fff" stroke="#231f20" stroke-width="2" d="M44.232 32.03H27.291v16.941h16.941z"/><path fill="#3f7faa" d="M40.232 36.03h-8.941v8.941h8.941z" opacity=".4"/><path fill="none" stroke="#231f20" d="M40.232 36.03h-8.941v8.941h8.941z"/><path d="M41.843 34.382h0" fill="none" stroke="#231f20" stroke-linecap="round" stroke-linejoin="round"/><path d="M15.217 29.561l6.253 6.253h5.82M15.217 53.5v-4.53c1.172-1.17 1.828-1.828 3-3h9.074M36 64.499V59.22l4.278-4.278V48.97M56.783 52.5h-5.339l-7.23-7.232M56.783 28.5h-12.57l-3.56 3.562M35.761 16.485v7.765l-4.393 4.393v3.386" fill="none" stroke="#231f20" stroke-width="2"/><path d="M17.717 29.561a2.5 2.5 0 11-5 0 2.5 2.5 0 015 0" fill="#fff" fill-rule="nonzero"/><circle cx="-2.5" r="2.5" fill="none" stroke="#231f20" stroke-width="2" stroke-linecap="round" stroke-linejoin="round" transform="matrix(0 -1 -1 0 15.217 27.061)"/><path d="M38.261 16.485a2.5 2.5 0 11-5 .001 2.5 2.5 0 015 0" fill="#fff" fill-rule="nonzero"/><circle cx="-2.5" r="2.5" fill="none" stroke="#231f20" stroke-width="2" stroke-linecap="round" stroke-linejoin="round" transform="matrix(0 -1 -1 0 35.761 13.985)"/><path d="M59.283 28.5a2.5 2.5 0 11-4.999.001 2.5 2.5 0 015 0" fill="#fff" fill-rule="nonzero"/><circle cx="-2.5" r="2.5" fill="none" stroke="#231f20" stroke-width="2" stroke-linecap="round" stroke-linejoin="round" transform="matrix(0 -1 -1 0 56.783 26)"/><path d="M59.283 52.5a2.5 2.5 0 11-4.999 0 2.5 2.5 0 015 0" fill="#fff" fill-rule="nonzero"/><circle cx="-2.5" r="2.5" fill="none" stroke="#231f20" stroke-width="2" stroke-linecap="round" stroke-linejoin="round" transform="matrix(0 -1 -1 0 56.783 50)"/><path d="M38.5 64.515a2.5 2.5 0 11-5 0 2.5 2.5 0 015 0" fill="#fff" fill-rule="nonzero"/><circle cx="-2.5" r="2.5" fill="none" stroke="#231f20" stroke-width="2" stroke-linecap="round" stroke-linejoin="round" transform="matrix(0 -1 -1 0 36 62.015)"/><path d="M35.746 48.884v4.888" fill="none" stroke="#231f20"/><path d="M17.717 53.5a2.5 2.5 0 11-5 0 2.5 2.5 0 015 0" fill="#fff" fill-rule="nonzero"/><circle cx="-2.5" r="2.5" fill="none" stroke="#231f20" stroke-width="2" stroke-linecap="round" stroke-linejoin="round" transform="matrix(0 -1 -1 0 15.217 51)"/><path d="M37.246 53.772a1.5 1.5 0 11-3.001-.001 1.5 1.5 0 013.001.001" fill="#fff" fill-rule="nonzero"/><circle cx="-1.5" r="1.5" fill="none" stroke="#231f20" transform="matrix(0 -1 -1 0 35.746 52.272)"/><path d="M42.124 24.432l-8.256 8.256" fill="none" stroke="#231f20"/><path d="M41.064 25.493a1.498 1.498 0 112.12-2.121 1.498 1.498 0 11-2.12 2.12" fill="#fff" fill-rule="nonzero"/><circle cx="1.061" cy="1.061" fill="none" stroke="#231f20" r="1.5" transform="scale(1 -1) rotate(-45 -9.18 -61.253)"/></g></g></svg>