<svg viewBox="0 0 300 339" xmlns="http://www.w3.org/2000/svg" fill-rule="evenodd" clip-rule="evenodd" stroke-miterlimit="10"><g transform="translate(0 .688) scale(4.16667)"><path fill="none" d="M0 0h72v81H0z"/><clipPath id="prefix__a"><path d="M0 0h72v81H0z"/></clipPath><g clip-path="url(#prefix__a)"><path d="M36 75l31.177-18V21L36 3 4.823 21v36L36 75z" fill="#3d8b8a" fill-rule="nonzero" opacity=".3"/><clipPath id="prefix__b"><path d="M4.823 21v36L36 75l31.177-18V21L36 3 4.823 21z" clip-rule="nonzero"/></clipPath><g clip-path="url(#prefix__b)"><path d="M45.433 20.727v-6.5l-5.63-3.25V4.474" fill="none" stroke="#231f20"/><path d="M45.433 17.82a2.908 2.908 0 110 5.816 2.908 2.908 0 010-5.816" fill="#fff" fill-rule="nonzero"/><circle cy="-2.908" r="2.908" fill="none" stroke="#231f20" transform="matrix(-1 0 0 1 45.433 23.636)"/><path d="M26.553 20.727v-6.5l5.63-3.25V4.474" fill="none" stroke="#231f20"/><path d="M26.553 17.82a2.908 2.908 0 100 5.816 2.908 2.908 0 000-5.816" fill="#fff" fill-rule="nonzero"/><circle cy="-2.908" r="2.908" fill="none" stroke="#231f20" transform="matrix(-1 0 0 1 26.553 23.636)"/><path d="M35.993-5.441V17.43" fill="none" stroke="#231f20"/><path d="M35.993 20.338a2.908 2.908 0 110-5.816 2.908 2.908 0 010 5.816" fill="#fff" fill-rule="nonzero"/><path d="M35.993 20.338a2.908 2.908 0 110-5.816 2.908 2.908 0 010 5.816zM26.553 57.273v6.5l5.63 3.25v6.502" fill="none" stroke="#231f20"/><path d="M26.553 60.18a2.908 2.908 0 110-5.816 2.908 2.908 0 010 5.817" fill="#fff" fill-rule="nonzero"/><path d="M26.553 60.18a2.908 2.908 0 110-5.816 2.908 2.908 0 010 5.817zM45.433 57.273v6.5l-5.63 3.25v6.502" fill="none" stroke="#231f20"/><path d="M45.433 60.18a2.908 2.908 0 100-5.816 2.908 2.908 0 000 5.817" fill="#fff" fill-rule="nonzero"/><path d="M45.433 60.18a2.908 2.908 0 100-5.816 2.908 2.908 0 000 5.817zM35.993 83.441V60.57" fill="none" stroke="#231f20"/><path d="M35.993 57.662a2.908 2.908 0 110 5.816 2.908 2.908 0 010-5.816" fill="#fff" fill-rule="nonzero"/><circle cy="-2.908" r="2.908" fill="none" stroke="#231f20" transform="matrix(-1 0 0 1 35.993 63.478)"/><path d="M17.873 34.28h-6.5l-3.25 5.63H1.62" fill="none" stroke="#231f20"/><path d="M12.966 34.28a2.908 2.908 0 115.816 0 2.908 2.908 0 01-5.816 0" fill="#fff" fill-rule="nonzero"/><circle cx="2.908" r="2.908" fill="none" stroke="#231f20" transform="matrix(0 1 1 0 15.873 31.372)"/><path d="M-10.295 43.72h22.872" fill="none" stroke="#231f20"/><path d="M15.484 43.72a2.908 2.908 0 10-5.816 0 2.908 2.908 0 005.816 0" fill="#fff" fill-rule="nonzero"/><circle cx="-2.908" r="2.908" fill="none" stroke="#231f20" transform="matrix(0 -1 -1 0 12.576 40.812)"/><path d="M54.257 34.28h6.501l3.25 5.63h6.501" fill="none" stroke="#231f20"/><path d="M59.165 34.28a2.908 2.908 0 10-5.816 0 2.908 2.908 0 005.816 0" fill="#fff" fill-rule="nonzero"/><circle cx="-2.908" r="2.908" fill="none" stroke="#231f20" transform="matrix(0 -1 -1 0 56.257 31.372)"/><path d="M82.426 43.72H59.554" fill="none" stroke="#231f20"/><path d="M56.646 43.72a2.908 2.908 0 115.816 0 2.908 2.908 0 01-5.816 0" fill="#fff" fill-rule="nonzero"/><circle cx="2.908" r="2.908" fill="none" stroke="#231f20" transform="matrix(0 1 1 0 59.554 40.812)"/><path d="M36 26.197c-7.07 0-12.803 5.733-12.803 12.803 0 7.07 5.733 12.803 12.803 12.803 7.07 0 12.803-5.733 12.803-12.803 0-7.07-5.733-12.803-12.803-12.803" fill="#fff" fill-rule="nonzero"/><circle cy="-12.803" r="12.803" fill="none" stroke="#231f20" stroke-width="2" stroke-linecap="round" stroke-linejoin="round" transform="matrix(-1 0 0 1 36 51.803)"/><path d="M48.785 39h-6.384M29.599 39h-6.402M36 51.803v-6.402M36 32.599v-6.402" fill="none" stroke="#231f20" stroke-linecap="round" stroke-linejoin="round"/></g><g><path d="M36 75l31.177-18V21L36 3 4.823 21v36L36 75z" fill="none" stroke="#231f20" stroke-width="2"/></g></g></g></svg>