<svg viewBox="0 0 300 338" xmlns="http://www.w3.org/2000/svg" fill-rule="evenodd" clip-rule="evenodd" stroke-miterlimit="10"><g transform="translate(0 .06) scale(4.16667)"><path fill="none" d="M0 0h72v81H0z"/><clipPath id="prefix__a"><path d="M0 0h72v81H0z"/></clipPath><g clip-path="url(#prefix__a)"><clipPath id="prefix__b"><path d="M4.823 22.5v36L36 76.5l31.177-18v-36L36 4.5l-31.177 18z" clip-rule="nonzero"/></clipPath><g clip-path="url(#prefix__b)"><path d="M67.177 58.5v-36L36 4.5l-31.177 18v36L36 76.5l31.177-18z" fill="#40834f" fill-rule="nonzero" opacity=".3"/><path d="M67.177 65.056c0 17.22-13.958 31.178-31.177 31.178S4.823 82.274 4.823 65.055C4.823 47.838 18.781 33.88 36 33.88s31.177 13.957 31.177 31.176" fill="#fff" fill-rule="nonzero"/><circle cx="-31.177" r="31.177" fill="none" stroke="#231f20" stroke-width="2" transform="matrix(0 -1 -1 0 36 33.88)"/><path d="M46.336 42.58c5.257 5.552 8.738 15.216 8.738 26.21 0 17.218-8.54 31.176-19.074 31.176-10.534 0-19.074-13.958-19.073-31.177-.001-10.993 3.48-20.657 8.738-26.208" fill="none" stroke="#231f20"/><path d="M60.606 46.734c0 6.515-11.017 11.797-24.606 11.797-13.59 0-24.607-5.282-24.607-11.797M50.773 37.596c0 3.855-6.614 6.98-14.773 6.98-8.158 0-14.772-3.125-14.772-6.98M36 44.577v51.656" fill="none" stroke="#231f20"/></g><path d="M67.177 58.5v-36L36 4.5l-31.177 18v36L36 76.5l31.177-18z" fill="none" stroke="#231f20" stroke-width="2"/><path d="M26.588 21.836l10 6.649h-1.176l10-6.65a.5.5 0 01.588.81l-9.412 7.458a.947.947 0 01-1.176 0L26 22.645a.5.5 0 01.588-.81" fill="#231f20" fill-rule="nonzero"/><g><path d="M26.588 15.654l10 6.65h-1.176l10-6.65a.5.5 0 01.588.81l-9.412 7.457a.947.947 0 01-1.176 0L26 16.463a.5.5 0 01.588-.809" fill="#231f20" fill-rule="nonzero"/></g></g></g></svg>