<svg viewBox="0 0 300 338" xmlns="http://www.w3.org/2000/svg" fill-rule="evenodd" clip-rule="evenodd" stroke-miterlimit="10"><g transform="translate(0 .375) scale(4.16667)"><path fill="none" d="M0 0h72v81H0z"/><clipPath id="prefix__a"><path d="M0 0h72v81H0z"/></clipPath><g clip-path="url(#prefix__a)"><path d="M67.177 58.5v-36L36 4.5l-31.177 18v36L36 76.5l31.177-18z" fill="#7f5a90" fill-rule="nonzero" opacity=".3"/><path d="M67.177 58.5v-36L36 4.5l-31.177 18v36L36 76.5l31.177-18z" fill="none" stroke="#231f20" stroke-width="2"/><path d="M47.451 37.19V23.967l-11.45-6.61-11.452 6.61V37.19L36 43.801l11.451-6.61z" fill="#fff" fill-rule="nonzero" stroke="#231f20" stroke-width="2"/><path d="M36 30.579l11.451-6.611L36 30.578z" fill="#fff" fill-rule="nonzero" stroke="#231f20"/><path d="M24.549 23.967l11.45 6.611v13.223" fill="none" stroke="#231f20"/><path d="M36 57.032V43.81l-11.451-6.612-11.451 6.612v13.222l11.451 6.612L36 57.031z" fill="#fff" fill-rule="nonzero" stroke="#231f20" stroke-width="2"/><path d="M24.549 50.421l11.45-6.61-11.45 6.61z" fill="#fff" fill-rule="nonzero" stroke="#231f20"/><path d="M13.098 43.81l11.45 6.61v13.224" fill="none" stroke="#231f20"/><path d="M58.903 57.032V43.81l-11.451-6.612L36 43.81v13.222l11.45 6.612 11.452-6.612z" fill="#fff" fill-rule="nonzero" stroke="#231f20" stroke-width="2"/><path d="M47.451 50.421l11.451-6.61-11.45 6.61z" fill="#fff" fill-rule="nonzero" stroke="#231f20"/><path d="M36 43.81l11.451 6.61v13.224" fill="none" stroke="#231f20"/></g></g></svg>