<svg viewBox="0 0 301 339" xmlns="http://www.w3.org/2000/svg" fill-rule="evenodd" clip-rule="evenodd" stroke-miterlimit="10"><g transform="translate(.5 .75) scale(4.16667)"><path fill="none" d="M0 0h72v81H0z"/><clipPath id="prefix__a"><path d="M0 0h72v81H0z"/></clipPath><g clip-path="url(#prefix__a)"><path d="M67.177 58.5v-36L36 4.5l-31.177 18v36L36 76.5l31.177-18z" fill="#7f5a90" fill-rule="nonzero" opacity=".3"/><path d="M67.177 58.5v-36L36 4.5l-31.177 18v36L36 76.5l31.177-18z" fill="none" stroke="#231f20" stroke-width="2"/><path d="M51.804 56.148L42.55 40.122a3.478 3.478 0 01-.465-1.738v-12.96a2.211 2.211 0 00-.468-4.373H30.042c-1.247.059-2.208 1.073-2.212 2.212-.003.986.712 1.898 1.745 2.16v13.549c0 .61-.16 1.21-.466 1.738l-8.913 15.438c-1.337 2.317.335 5.214 3.01 5.214h25.588c2.676 0 4.348-2.897 3.01-5.214z" fill="#fff" fill-rule="nonzero" stroke="#231f20" stroke-width="2"/><path fill="#231f20" d="M29.572 24.507h12.472v1H29.572z"/><g opacity=".4"><path d="M48.425 56.816l-5.34-9.25c-1.17-.01-2.21-.11-3.11-.24-.79-.12-1.47-.26-2.09-.42-2.11-.54-3.54-1.21-6.08-1.41-.57-.04-1.12-.06-1.67-.04l-1.21 2.09-5.35 9.27c-.39.66.09 1.5.86 1.5h23.13c.77 0 1.25-.84.86-1.5M38.769 44.264a1.148 1.148 0 10-.001-2.296 1.148 1.148 0 000 2.296" fill="#7f5a90" fill-rule="nonzero"/></g><path d="M30.707 50.057a1.787 1.787 0 113.573 0 1.787 1.787 0 01-3.573 0M31.346 16.088a1.148 1.148 0 112.296.002 1.148 1.148 0 01-2.296-.002" fill="#fff" fill-rule="nonzero"/></g></g></svg>