<svg xmlns="http://www.w3.org/2000/svg" xmlns:svg="http://www.w3.org/2000/svg" fill-rule="evenodd" stroke-linecap="round" stroke-linejoin="round" stroke-miterlimit="10" clip-rule="evenodd" viewBox="0 0 64.353996 74.309402" xml:space="preserve"><g transform="translate(-3.8229 -3.3453003)"><clipPath id="a"><path d="M4.823 22.5v36L36 76.5l31.177-18v-36L36 4.5Z" clip-rule="nonzero"/></clipPath><g clip-path="url(#a)"><path fill="#3f7faa" fill-rule="nonzero" d="M67.1769 58.5v-36l-31.177-18-31.177 18v36l31.177 18z" opacity=".3"/></g></g><path fill="#231f20" fill-rule="nonzero" d="m42.6201 67.1253997 1.149-.663-4.126-9.235Zm-22.0347-59.2782 4.125 9.235-2.976-9.898Z"/><path fill="#231f20" fill-rule="nonzero" d="m42.6201 67.1253997 1.149-.663-4.126-9.235Zm-22.0347-59.2782 4.125 9.235-2.976-9.898Zm26.8993 56.4696 1.074-.62-5.466-8.043Zm-31.6891-53.7042 5.465 8.043-4.392-8.663Zm36.4668 50.9458 1.14-.658-7.192-7.382Zm-41.311-48.149 7.193 7.382-6.053-8.04Z"/><path fill="#231f20" fill-rule="nonzero" d="m52.2624 61.5583997 1.14-.658-7.192-7.382Zm-41.311-48.149 7.193 7.382-6.053-8.04Zm46.3008 45.2682 1.371-.792-9.722-7Zm-51.5211-42.2543 9.722 7.001-8.351-7.793Zm-4.7304 2.7309v1.375l12.27 5.945-11.722-7.635Z"/><path fill="#231f20" fill-rule="nonzero" d="M1.0007 19.1541997v1.375l12.27 5.945-11.722-7.635Zm62.3533 29.8782v-1.515l-10.662-3.057Zm-62.3538-22.2403 10.662 3.056-10.662-4.571Zm62.3538 16.3755v-1.254l-9.677-1.049Zm-62.3538-10.7718 9.677 1.049-9.677-2.303Z"/><path fill="#231f20" fill-rule="nonzero" d="M63.354 43.1675997v-1.254l-9.677-1.049Zm-62.3538-10.7718 9.677 1.049-9.677-2.303Zm53.0082 4.7589 9.346.588v-1.176Zm-53.0082.5877 9.346-.588-9.346-.587Zm52.677-4.2966 9.677-1.049v-1.254Zm-52.677 8.4672v1.254l9.677-2.303Z"/><path fill="#231f20" fill-rule="nonzero" d="m53.6772 33.4457997 9.677-1.049v-1.254Zm-52.677 8.4672v1.254l9.677-2.303Zm51.6915-12.0645 10.662-3.056v-1.516Zm-51.6915 17.6688v1.515l10.662-4.571Zm50.08275158-21.04314853L63.35411071 20.530082l.0002888-1.37573425-.5488247-.31639155z"/><path fill="#231f20" fill-rule="nonzero" d="M51.08295158 26.47415117 63.35411071 20.530082l.0002888-1.37573425-.5488247-.31639155zM48.9009 23.4242997l9.722-7.001-1.371-.791Zm-43.1698 34.4618 1.371.792 8.351-7.793Zm40.4788-37.0952 7.193-7.382-1.141-.658Zm-35.2585 40.1091 1.14.658 6.053-8.04z"/><path fill="#231f20" fill-rule="nonzero" d="m46.2099 20.7908997 7.193-7.382-1.141-.658Zm-35.2585 40.1091 1.14.658 6.053-8.04zm32.1418-42.2448 5.465-8.043-1.073-.619Zm-27.2976 45.0416 1.073.62 4.392-8.663Zm23.8479-46.6148 4.125-9.235-1.148-.663Zm-19.0581 49.3802 1.149.663 2.976-9.898Z"/><path fill="#231f20" fill-rule="nonzero" d="m39.6435 17.0819997 4.125-9.235-1.148-.663Zm-19.0581 49.3802 1.149.663 2.976-9.898Zm15.3825-50.3441 2.764-11.179-1.39-.803Zm-10.3461 53.2519 1.391.803 1.373-11.982Zm5.64809419-67.6919174.90699248 14.11489165.90678523-14.11419977-.90646446-.5239509zm.00019252 70.95260915.90744539.52425781.90657993-.52372722-.90768898-14.1151415Z"/><path fill="#231f20" fill-rule="nonzero" d="m31.26989419 1.6780823.90699248 14.11489165.90678523-14.11419977-.90646446-.5239509zm.00019252 70.95260915.90744539.52425781.90657993-.52372722-.90768898-14.1151415ZM25.6218 4.9393997l2.764 11.179-1.373-11.982Zm11.72 65.2335 1.391-.803-2.765-11.179Z"/><g transform="translate(-3.8229 -3.3453003)"><clipPath id="b"><path d="M4.823 22.5v36L36 76.5l31.177-18v-36L36 4.5Z" clip-rule="nonzero"/></clipPath><g clip-path="url(#b)"><path fill="#fff" fill-rule="nonzero" d="M47.5352 40.7569c0 6.371-5.164 11.535-11.535 11.535s-11.535-5.164-11.535-11.535 5.164-11.535 11.535-11.535 11.535 5.164 11.535 11.535"/><circle cx="-11.535" r="11.535" fill="none" stroke="#231f20" stroke-width="2" transform="matrix(0 -1 -1 0 36.0002 29.2219)"/><path fill="#fff" fill-rule="nonzero" stroke="#231f20" stroke-width="2" d="M49.2102 52.292h-26.42c-7.63 0-13.708 6.383-13.335 14.004l1.028 20.993c.311 6.347 5.547 11.333 11.901 11.333l3.404 31.202h20.423l3.404-31.202c6.354 0 11.59-4.986 11.901-11.333l1.029-20.993c.373-7.621-5.705-14.004-13.335-14.004Z"/></g></g><path fill="none" stroke="#231f20" stroke-linecap="butt" stroke-linejoin="miter" stroke-width="2" d="M63.354 55.1546997v-36l-31.177-18-31.177 18v36l31.177 18z"/></svg>