<svg xmlns="http://www.w3.org/2000/svg" xmlns:svg="http://www.w3.org/2000/svg" fill-rule="evenodd" stroke-linecap="round" stroke-linejoin="round" stroke-miterlimit="10" clip-rule="evenodd" viewBox="0 0 64.353996 74.309402" xml:space="preserve"><g transform="translate(-3.8229 -3.3453003)"><clipPath id="a"><path d="M4.823 22.5v36L36 76.5l31.177-18v-36L36 4.5Z" clip-rule="nonzero"/></clipPath><g fill-rule="nonzero" clip-path="url(#a)"><path fill="#7f5a90" d="M67.1769 58.5v-36l-31.177-18-31.177 18v36l31.177 18z" opacity=".3"/><path fill="#fff" stroke="#000" stroke-width="2" d="M26.0299 52.047v11.547l10 5.774 10-5.774V52.047l-10-5.773Z"/><path d="m53.0153 48.3027-17.485-9.518h1l-17.486 9.518c-.242.132-.546.042-.678-.2-.128-.235-.047-.528.178-.666l16.986-10.384c.317-.194.703-.181 1 0l16.985 10.384c.236.144.31.452.166.688-.14.228-.434.304-.666.178"/><path d="m60.2507 44.1253-24.721-13.695h1l-24.721 13.695c-.241.134-.545.047-.679-.195-.131-.236-.05-.533.179-.671l24.221-14.561c.318-.191.703-.178 1 0l24.221 14.561c.237.142.313.45.171.686-.139.232-.437.309-.671.18"/><path d="m67.4861 39.948-31.956-17.872h1L4.5741 39.948c-.241.135-.546.049-.681-.192-.132-.237-.051-.536.181-.674l31.456-18.739c.318-.189.702-.176 1 0l31.456 18.739c.237.141.315.448.174.685-.139.234-.439.312-.674.181"/><path d="m74.7214 35.7706-39.191-22.05h.999l-39.191 22.05c-.241.135-.546.05-.681-.191-.134-.237-.052-.537.181-.675l38.691-22.916c.319-.189.702-.176 1.001 0l38.691 22.916c.238.141.316.447.175.685-.138.234-.439.314-.675.181"/></g></g><path fill="none" stroke="#000" stroke-linecap="butt" stroke-linejoin="miter" stroke-width="2" d="M63.354 55.1546997v-36l-31.177-18-31.177 18v36l31.177 18z"/></svg>