<svg xmlns="http://www.w3.org/2000/svg" xmlns:svg="http://www.w3.org/2000/svg" fill-rule="evenodd" stroke-miterlimit="10" clip-rule="evenodd" viewBox="0 0 64.353996 74.309402" xml:space="preserve"><path fill="#40834f" fill-rule="nonzero" d="M63.354 55.1546997v-36l-31.177-18-31.177 18v36l31.177 18z" opacity=".3"/><path fill="none" stroke="#231f20" stroke-width="2" d="M63.354 55.1546997v-36l-31.177-18-31.177 18v36l31.177 18z"/><path fill="#fff" fill-rule="nonzero" d="M19.3789945 54.83743952 7.57195037 37.97638527l8.69811507-18.65418147 14.19757488-1.24004748Z"/><g transform="translate(-3.8229 -3.3453003)"><clipPath id="a"><path d="m20.093 22.667-8.698 18.654 11.807 16.861 11.089-36.755Z" clip-rule="nonzero"/></clipPath><g fill="#40834f" fill-rule="nonzero" clip-path="url(#a)" opacity=".4"><path d="m36.6881 40.3674 7.594-9.512-11.536 3.882-9.512-7.593 3.874 11.541-7.593 9.512 11.535-3.882 9.52 7.588z"/><path d="m32.92766435 33.67111887 2.51174032-.84791175-.91858448-8.18621626-3.66350787 7.37834414Zm-7.73116141 2.30778943-8.17908922.91400733 7.37096817 3.66808645 1.65638343-2.06975843Zm5.67222524 9.40246596-2.51174032.84791174.91858449 8.18621626 3.66350786-7.37834414z"/></g></g><path fill="#fff" fill-rule="nonzero" d="M55.65108211 42.05250634 43.8448174 58.91288554l-20.50133092-1.79140168 26.28591777-27.98128289Z"/><g transform="translate(-3.8229 -3.3453003)"><clipPath id="b"><path d="m27.167 60.467 20.501 1.791 11.806-16.86-6.021-12.912Z" clip-rule="nonzero"/></clipPath><g fill="#40834f" fill-rule="nonzero" clip-path="url(#b)" opacity=".4"><path d="m43.5415 45.2643 9.13-8.049-12.035 1.82-8.049-9.13 1.812 12.039-9.13 8.049 12.034-1.82 8.058 9.126z"/><path d="m41.0005748 38.01741189 2.6208051-.3989702.51757-8.2215315-4.88883705 6.63027543zm-8.01390892.93007217-8.21455446-.5200354 6.62313987 4.89222404 1.98959008-1.75079506Zm3.95336863 10.24364513-2.6208051.3989702-.51757 8.2215315 4.88883705-6.63027543zm8.01420969-.93003351 8.21824836.50901518-6.63043245-4.8892343-1.98657238 1.75955723Z"/></g></g><path fill="#fff" fill-rule="nonzero" d="M47.8609058 21.04488603 24.11422954 51.21049911 38.3637617 15.56164584l6.33177664-.001899z"/><g transform="translate(-3.8229 -3.3453003)"><clipPath id="c"><path d="m42.187 18.906-14.25 35.649L51.684 24.39l-3.165-5.485Z" clip-rule="nonzero"/></clipPath><g fill="#40834f" fill-rule="nonzero" clip-path="url(#c)" opacity=".4"><path d="m42.9239 37.9906 8.394-8.814-11.83 2.862-8.815-8.394 2.854 11.835-8.393 8.814 11.83-2.862 8.822 8.389z"/><path d="m39.76109098 30.99211822 2.57602707-.62600714-.2023622-8.23511067-4.29199482 7.0313652Zm-7.90270307 1.62539609-8.22762153.19799076 7.02339204 4.2962822 1.83037464-1.91858973zm4.83137568 9.86068529-2.57602707.62600714.20236218 8.23511067 4.29199483-7.0313652zm7.90279223-1.62514688 8.23134865-.20900857-7.03123645-4.29290614-1.82570078 1.92596382Z"/></g></g><path fill="none" stroke="#231f20" stroke-linecap="round" stroke-linejoin="round" stroke-width="2" d="m38.3641 15.5613997 6.332-.002 3.165 5.485"/><path fill="#231f20" fill-rule="nonzero" d="m48.6468 21.6629997-23.747 30.166c-.342.434-.971.508-1.405.167-.356-.281-.47-.756-.31-1.157l14.251-35.649c.102-.256.393-.381.65-.278.256.102.381.393.278.649l-14.25 35.649 23.747-30.166c.171-.217.485-.254.702-.083.217.171.255.485.084.702"/><path fill="none" stroke="#231f20" stroke-linecap="round" stroke-linejoin="round" stroke-width="2" d="m49.63 29.1398997 6.021 12.912-11.806 16.861-20.501-1.792"/><path fill="#231f20" fill-rule="nonzero" d="m22.615 56.4364997 26.286-27.981c.189-.202.506-.211.707-.022.201.189.211.505.022.706l-26.286 27.982c-.189.201-.506.211-.707.022-.201-.189-.211-.506-.022-.707"/><path fill="none" stroke="#231f20" stroke-linecap="round" stroke-linejoin="round" stroke-width="2" d="m19.3789 54.8368997-11.807-16.861 8.698-18.654 14.198-1.24"/><path fill="#231f20" fill-rule="nonzero" d="m31.4257 18.3705997-11.089 36.755c-.08.265-.359.414-.623.334-.265-.079-.414-.358-.335-.623l11.09-36.755c.079-.264.358-.414.623-.334.264.08.414.359.334.623"/></svg>