<svg xmlns="http://www.w3.org/2000/svg" xmlns:svg="http://www.w3.org/2000/svg" fill-rule="evenodd" stroke-miterlimit="10" clip-rule="evenodd" viewBox="0 0 64.353996 74.309402" xml:space="preserve"><g transform="translate(-3.8229 -3.3453003)"><clipPath id="a"><path d="M4.823 22.5v36L36 76.5l31.177-18v-36L36 4.5Z" clip-rule="nonzero"/></clipPath><g clip-path="url(#a)"><path fill="#7f5a90" fill-rule="nonzero" d="M67.1769 58.5v-36l-31.177-18-31.177 18v36l31.177 18z" opacity=".3"/></g></g><path fill="#fff" fill-rule="nonzero" d="m28.245 43.6184997-6.768-22.414-4.194 13.896H1v4h19.252l1.225-4.056 6.768 22.413 8.196-27.148 6.868 22.677 4.192-13.886h15.853v-4H44.531l-1.227 4.066-6.867-22.677Z"/><path fill-rule="nonzero" d="m34.5234 19.3661997-6.278 20.793-4.853-16.073-1.915-6.341-1.915 6.341-3.023 10.014H1.0004v2.001h17.025l3.452-11.437 6.768 22.414 8.192-27.134 6.868 22.677 1.969-6.52h18.08v-2.001h-19.565l-.43 1.422-.056.189-4.951-16.347-1.917-6.329zm-6.278 34.632-6.768-22.414-1.968 6.516H1.0004v2h19.994l.429-1.422.054-.175 4.852 16.073 1.916 6.341 1.914-6.341 6.284-20.812 4.95 16.347 1.917 6.33 1.911-6.332 3.023-10.009h15.11v-2h-16.595l-3.452 11.43-6.867-22.676Z"/><path fill="none" stroke="#000" stroke-width="2" d="M63.354 55.1546997v-36l-31.177-18-31.177 18v36l31.177 18z"/></svg>