<svg xmlns="http://www.w3.org/2000/svg" xmlns:svg="http://www.w3.org/2000/svg" fill-rule="evenodd" stroke-miterlimit="10" clip-rule="evenodd" viewBox="0 0 64.353996 74.309402" xml:space="preserve"><path fill="#7f5a90" fill-rule="nonzero" d="M63.354 55.1546997v-36l-31.177-18-31.177 18v36l31.177 18z" opacity=".3"/><path fill="none" stroke="#231f20" stroke-width="2" d="M63.354 55.1546997v-36l-31.177-18-31.177 18v36l31.177 18z"/><path fill="#fff" fill-rule="nonzero" stroke="#231f20" stroke-width="2" d="m38.9459 48.7925997-6.191 11.12h-1.106l-6.191-11.12v-23.798c0-4.512 3.019-8.17 6.744-8.17 3.725 0 6.744 3.658 6.744 8.17z"/><path fill="#fff" fill-rule="nonzero" stroke="#231f20" stroke-width="2" d="M41.6121 58.6386997h-8.148l4.467-8.023 3.681 1.726Zm-18.8701 0h8.148l-4.467-8.023-3.681 1.726Z"/><path fill="none" stroke="#231f20" d="M25.4578 24.9949997h13.488m-13.488 23.7976h13.488"/><path fill="#fff" fill-rule="nonzero" stroke="#231f20" d="m16.3593 45.2972997-4.115 7.391h-.735l-4.115-7.391v-15.818c0-2.999 2.007-5.43 4.482-5.43 2.476 0 4.483 2.431 4.483 5.43z"/><path fill="#fff" fill-rule="nonzero" stroke="#231f20" d="M18.1315 51.8418997h-5.416l2.969-5.333 2.447 1.147Zm-12.5427 0h5.416l-2.969-5.333-2.447 1.147Z"/><path fill="none" stroke="#231f20" d="M7.394 29.4793997h8.965m-8.965 15.8179h8.965"/><path fill="#fff" fill-rule="nonzero" stroke="#231f20" d="m56.9931 45.2972997-4.115 7.391h-.735l-4.115-7.391v-15.818c0-2.999 2.007-5.43 4.482-5.43 2.476 0 4.483 2.431 4.483 5.43z"/><path fill="#fff" fill-rule="nonzero" stroke="#231f20" d="M58.7653 51.8418997h-5.416l2.969-5.333 2.447 1.147Zm-12.5427 0h5.416l-2.969-5.333-2.447 1.147Z"/><path fill="none" stroke="#231f20" d="M48.0278 29.4793997h8.965m-8.965 15.8179h8.965"/></svg>