<svg xmlns="http://www.w3.org/2000/svg" xmlns:svg="http://www.w3.org/2000/svg" fill-rule="evenodd" stroke-miterlimit="10" clip-rule="evenodd" viewBox="0 0 64.353996 74.309402" xml:space="preserve"><path fill="#3d8b8a" fill-rule="nonzero" d="M63.354 55.1546997v-36l-31.177-18-31.177 18v36l31.177 18z" opacity=".3"/><path fill="none" stroke="#231f20" stroke-width="2" d="M63.354 55.1546997v-36l-31.177-18-31.177 18v36l31.177 18z"/><path fill="#3d8b8a" fill-rule="nonzero" d="m25.1371 32.1891997 7.04 4.783 7.04-4.783-3.366 12.562-3.674 1.202-3.674-1.202Z" opacity=".4"/><path fill="none" stroke="#231f20" d="m25.1371 32.1891997 7.04 4.783 7.04-4.783-3.366 12.562-3.674 1.202-3.674-1.202Z"/><path fill="#fff" fill-rule="nonzero" d="m26.825 38.7516997 3.009 8.699-4.768 11.209-3.519-7.785-.694-9.849-5.093-2.297-7.083-14.069 16.319 6.542z"/><path fill="#231f20" fill-rule="nonzero" d="M26.3452 38.8924997c-.316-1.259-.643-2.515-1.032-3.756-.382-1.243-.801-2.477-1.323-3.691l.621.717-16.319-6.542 1.31-1.427 7.083 14.069-.499-.478 5.092 2.298.564.254.044.617.694 9.848-.089-.353 3.518 7.784-1.896.021 4.768-11.208-.026.744c-.137-.768-.34-1.513-.507-2.269-.193-.748-.39-1.493-.608-2.231-.421-1.48-.903-2.94-1.395-4.397m.96-.281c.51 1.442 1.032 2.882 1.613 4.302.285.711.589 1.416.898 2.118.334.694.633 1.399.997 2.081l.161.303-.187.441-4.769 11.208-.924 2.172-.972-2.151-3.518-7.784-.077-.169-.013-.185-.694-9.848.607.87-5.093-2.297-.334-.151-.165-.328-7.083-14.069-1.231-2.445 2.541 1.019 16.319 6.542.589.236.032.481c.087 1.303.278 2.585.506 3.859.221 1.276.503 2.537.797 3.795"/><path fill="none" stroke="#231f20" d="M26.82490038 38.75170423 20.853177 41.02559851"/><path fill="#fff" fill-rule="nonzero" d="m37.5292 38.7516997-3.009 8.699 4.768 11.209 3.519-7.785.694-9.849 5.093-2.297 7.083-14.069-16.319 6.542z"/><path fill="#231f20" fill-rule="nonzero" d="M37.0494 38.6109997c.293-1.258.576-2.518.797-3.794.227-1.274.418-2.556.505-3.859l.032-.482.589-.236 16.319-6.542 2.542-1.019-1.232 2.446-7.083 14.069-.165.327-.334.151-5.092 2.298.607-.871-.695 9.848-.013.185-.076.169-3.518 7.785-.973 2.151-.924-2.172-4.768-11.209-.188-.44.162-.304c.364-.681.663-1.386.997-2.08.309-.702.613-1.407.897-2.119.582-1.419 1.103-2.859 1.614-4.302m.96.281c-.493 1.457-.974 2.917-1.396 4.397-.217.739-.415 1.484-.607 2.231-.168.756-.37 1.501-.508 2.269l-.026-.743 4.769 11.208-1.896-.021 3.518-7.785-.089.354.694-9.849.044-.616.563-.255 5.092-2.297-.498.478 7.083-14.069 1.31 1.426-16.319 6.542.621-.717c-.523 1.214-.942 2.449-1.324 3.691-.388 1.241-.715 2.497-1.031 3.756"/><path fill="none" stroke="#231f20" d="m37.529377 38.75180089 5.97172338 2.27389428"/><path fill="none" stroke="#231f20" stroke-width=".5" d="M32.1766 37.1683997v8.982"/><path fill="#fff" fill-rule="nonzero" stroke="#231f20" d="m32.17763161 33.08041651 3.20543641 2.91548938-3.20643755 1.6512203-3.20568374-1.65046056Z"/></svg>