<svg xmlns="http://www.w3.org/2000/svg" fill-rule="evenodd" stroke-miterlimit="10" clip-rule="evenodd" viewBox="0 0 301 339"><defs/><g transform="translate(.5 .688) scale(4.16667)"><path fill="none" d="M0 0h72v81H0z"/><clipPath id="a"><path d="M0 0h72v81H0z"/></clipPath><g clip-path="url(#a)"><path fill="#3f7faa" fill-rule="nonzero" d="M67.1769 57V21L35.9999 3 4.8229 21v36l31.177 18 31.177-18z" opacity=".3"/><path fill="none" stroke="#231f20" stroke-width="2" d="M67.1769 57V21L35.9999 3 4.8229 21v36l31.177 18 31.177-18z"/><path fill="#fff" fill-rule="nonzero" stroke="#231f20" stroke-width="2" d="M61.5134 51.8283h-51l5.54-23.789h39.92l5.54 23.789z"/><path fill="#fff" fill-rule="nonzero" stroke="#231f20" d="M58.0202 48.8826l-22.251 2.946-21.763-2.946 4.781-23.45 17.226 2.306 17.226-2.306 4.781 23.45z"/><path fill="#fff" fill-rule="nonzero" stroke="#231f20" stroke-linejoin="round" d="M36.0134 27.7381v24.09c-1.843-1.297-4.949-3.133-9.127-4.046-4.23-.924-7.767-.511-9.921-.074 1.379-8.03 2.758-16.06 4.136-24.09 1.628-.309 4.523-.62 7.958.355 3.311.939 5.658 2.656 6.954 3.765zM36.0134 27.7381v24.09c1.843-1.297 4.949-3.133 9.127-4.046 4.23-.924 7.767-.511 9.921-.074-1.379-8.03-2.757-16.06-4.136-24.09-1.628-.309-4.523-.62-7.958.355-3.311.939-5.658 2.656-6.954 3.765z"/><clipPath id="b"><path d="M43.317 26.02c-1.99.564-3.914 1.549-5.612 2.865v19.909c2.182-1.169 4.488-2.021 6.886-2.545 1.815-.397 3.675-.597 5.528-.597.845 0 1.692.042 2.535.125l-3.478-20.258c-.544-.058-1.092-.087-1.637-.087-1.425 0-2.846.197-4.222.588z" clip-rule="nonzero"/></clipPath><g clip-path="url(#b)" opacity=".5"><path fill="none" stroke="#3f7faa" stroke-linecap="round" stroke-linejoin="round" stroke-width=".5" d="M35.8583 30.4182c1.35-1.128 3.774-2.857 7.171-3.793 3.515-.97 6.474-.649 8.154-.327M35.8583 32.8272c1.405-1.147 3.904-2.888 7.389-3.821 3.594-.965 6.617-.634 8.35-.299M35.8583 35.2363c1.46-1.166 4.035-2.918 7.606-3.849 3.673-.96 6.761-.619 8.547-.271M35.8583 37.6453c1.515-1.184 4.166-2.949 7.823-3.878 3.753-.954 6.905-.602 8.743-.242M35.8583 40.0543c1.569-1.203 4.296-2.98 8.041-3.906 3.832-.949 7.048-.587 8.939-.214M35.8583 42.4633c1.624-1.222 4.427-3.01 8.258-3.934 3.912-.944 7.192-.572 9.136-.186M35.8583 44.8723c1.679-1.241 4.557-3.041 8.475-3.962 3.991-.939 7.336-.557 9.332-.158"/></g><g opacity=".5"><path fill="none" stroke="#3f7faa" stroke-linecap="round" stroke-linejoin="round" stroke-width=".5" d="M30.966 28.5986c-1.204-.563-2.427-.983-3.644-1.26-.912.928-1.821 1.935-2.715 3.024.299 1.15.6 2.309.902 3.478 1.204.134 2.427.411 3.644.831.912-.82 1.82-1.559 2.714-2.218-.299-1.294-.599-2.579-.901-3.855z"/></g></g></g></svg>