<svg viewBox="0 0 301 339" xmlns="http://www.w3.org/2000/svg" fill-rule="evenodd" clip-rule="evenodd" stroke-miterlimit="10"><g transform="translate(.5 .688) scale(4.16667)"><path fill="none" d="M0 0h72v81H0z"/><clipPath id="prefix__a"><path d="M0 0h72v81H0z"/></clipPath><g clip-path="url(#prefix__a)"><path d="M67.177 58.5v-36L36 4.5l-31.177 18v36L36 76.5l31.177-18z" fill="#3d8b8a" fill-rule="nonzero" opacity=".3"/><clipPath id="prefix__b"><path d="M4.823 22.5v36L36 76.5l31.177-18v-36L36 4.5l-31.177 18z" clip-rule="nonzero"/></clipPath><g clip-path="url(#prefix__b)"><ellipse cx="-24.94" rx="24.941" ry="24.94" fill="none" stroke="#231f20" transform="matrix(0 -1 -1 0 36 15.56)"/><circle cx="-18.706" fill="none" stroke="#231f20" r="18.705" transform="matrix(0 -1 -1 0 36 21.794)"/><ellipse cx="-12.471" rx="12.47" ry="12.471" fill="none" stroke="#231f20" transform="matrix(0 -1 -1 0 36 28.03)"/><path d="M41.724 36.66c-1.558 0-2.821-1.295-2.821-2.893 0-1.598 1.263-2.894 2.82-2.894 1.559 0 2.822 1.296 2.822 2.894s-1.263 2.893-2.821 2.893m18.63-.203c-.582-3.336-1.645-9.427-6.876-12.478-3.796-2.214-8.953-2.341-12.518-.181-2.873 1.741-2.91 3.874-6.347 6.149-2.81 1.859-5.728 2.381-7.757 2.532l-10.086 5.5-.243 8.232 4.687-3.424h13.752l-9.873 8.138 2.29 1.808 8.932-1.981c1.396-3.222 4.523-4.878 7.094-4.203 3.048.8 4.352 4.625 4.098 7.275-.41 4.272-4.831 5.094-7.075 9.305-1.604 3.009-2.266 8.065 2.018 17.031a1137.271 1137.271 0 0024.918-2.084c-11.456-7.154-13.832-12.547-13.556-16.33.277-3.816 3.178-4.929 5.359-12.126.804-2.651 2.188-7.403 1.183-13.163" fill="#fff" fill-rule="nonzero"/><path d="M41.724 36.66c-1.558 0-2.821-1.295-2.821-2.893 0-1.598 1.263-2.894 2.82-2.894 1.559 0 2.822 1.296 2.822 2.894s-1.263 2.893-2.821 2.893zm18.63-.203c-.582-3.336-1.645-9.427-6.876-12.478-3.796-2.214-8.953-2.341-12.518-.181-2.873 1.741-2.91 3.874-6.347 6.149-2.81 1.859-5.728 2.381-7.757 2.532l-10.086 5.5-.243 8.232 4.687-3.424h13.752l-9.873 8.138 2.29 1.808 8.932-1.981c1.396-3.222 4.523-4.878 7.094-4.203 3.048.8 4.352 4.625 4.098 7.275-.41 4.272-4.831 5.094-7.075 9.305-1.604 3.009-2.266 8.065 2.018 17.031a1137.271 1137.271 0 0024.918-2.084c-11.456-7.154-13.832-12.547-13.556-16.33.277-3.816 3.178-4.929 5.359-12.126.804-2.651 2.188-7.403 1.183-13.163z" fill="none" stroke="#231f20" stroke-width="2"/></g><g><path d="M67.177 58.5v-36L36 4.5l-31.177 18v36L36 76.5l31.177-18z" fill="none" stroke="#231f20" stroke-width="2"/></g></g></g></svg>