<svg viewBox="0 0 300 338" xmlns="http://www.w3.org/2000/svg" fill-rule="evenodd" clip-rule="evenodd" stroke-miterlimit="10"><g transform="translate(0 .44) scale(4.16667)"><path fill="none" d="M0 0h72v81H0z"/><clipPath id="prefix__a"><path d="M0 0h72v81H0z"/></clipPath><g clip-path="url(#prefix__a)"><path d="M67.177 58.5v-36L36 4.5l-31.177 18v36L36 76.5l31.177-18z" fill="#7f5a90" fill-rule="nonzero" opacity=".3"/><path d="M67.177 58.5v-36L36 4.5l-31.177 18v36L36 76.5l31.177-18z" fill="none" stroke="#231f20" stroke-width="2"/><path d="M42.906 29.42c-2.064-.478-4.336-.727-6.906-.727-10.944 0-16.484 4.53-23.548 11.807 5.645 5.815 10.316 9.876 17.55 11.273" fill="#fff" fill-rule="nonzero" stroke="#231f20" stroke-width="2"/><path d="M30.002 51.773h0" fill="none" stroke="#231f20" stroke-linecap="round" stroke-linejoin="round" stroke-miterlimit="4"/><path d="M31.936 52.075c1.271.153 2.621.232 4.064.232 10.588 0 16.118-4.24 22.864-11.106" fill="none" stroke="#231f20" stroke-linecap="round" stroke-linejoin="round" stroke-miterlimit="4" stroke-dasharray="0 1.96"/><path d="M59.548 40.5h0" fill="none" stroke="#231f20" stroke-linecap="round" stroke-linejoin="round" stroke-miterlimit="4"/><path d="M58.121 39.05c-4.54-4.544-8.622-7.84-14.23-9.382" fill="none" stroke="#231f20" stroke-linecap="round" stroke-linejoin="round" stroke-miterlimit="4" stroke-dasharray="0 2.03"/><path d="M42.906 29.42h0" fill="none" stroke="#231f20" stroke-linecap="round" stroke-linejoin="round" stroke-miterlimit="4"/><path d="M32.181 47.997a8.412 8.412 0 118.401-14.552" fill="#7f5a90" fill-rule="nonzero" opacity=".3"/><path d="M32.181 47.997a8.412 8.412 0 118.401-14.552" fill="none" stroke="#231f20"/><path d="M40.583 33.445a8.412 8.412 0 01-8.401 14.552" fill="#7f5a90" fill-rule="nonzero" opacity=".3"/><path d="M40.583 33.445h0" fill="none" stroke="#231f20" stroke-linecap="round" stroke-linejoin="round" stroke-miterlimit="4"/><path d="M42.09 34.697A8.412 8.412 0 0136 48.911a8.41 8.41 0 01-2.92-.52" fill="none" stroke="#231f20" stroke-linecap="round" stroke-linejoin="round" stroke-miterlimit="4" stroke-dasharray="0 1.96"/><path d="M32.181 47.997h0" fill="none" stroke="#231f20" stroke-linecap="round" stroke-linejoin="round" stroke-miterlimit="4"/><path d="M49.057 18.767L22.942 63.998" fill="none" stroke="#231f20" stroke-width="2" stroke-linecap="round" stroke-linejoin="round"/></g></g></svg>