<svg xmlns="http://www.w3.org/2000/svg" xmlns:svg="http://www.w3.org/2000/svg" fill-rule="evenodd" stroke-miterlimit="10" clip-rule="evenodd" viewBox="0 0 64.353996 74.309402" xml:space="preserve"><g transform="translate(-3.8229 -3.3453003)"><clipPath id="a"><path d="M4.823 22.5v36L36 76.5l31.177-18v-36L36 4.5Z" clip-rule="nonzero"/></clipPath><g fill-rule="nonzero" clip-path="url(#a)"><path fill="#495790" d="M67.2005 58.5v-36l-31.177-18-31.177 18v36l31.177 18z" opacity=".3"/><path fill="#fff" stroke="#231f20" stroke-width="2" d="M53.0129 32.8515c.012-.264.04-.524.04-.79 0-9.463-7.671-17.134-17.133-17.134-9.463 0-17.133 7.671-17.133 17.134 0 .266.027.526.04.79-8.516 5.579-14.144 15.2-14.144 26.141 0 17.251 13.985 31.236 31.237 31.236 17.251 0 31.237-13.985 31.237-31.236 0-10.941-5.629-20.562-14.144-26.141z"/><path fill="#495790" d="m10.9431 40.8354 7.92 12.618-.372 5.891-13.118-6.524 1.908-6.312zm49.6728.2838-7.611 12.618.357 5.891 12.606-6.524-1.832-6.312Z" opacity=".4"/><path fill="#fff" stroke="#231f20" stroke-width="2" d="m18.8264 32.8515 17.125 12.163 17.061-12.163"/></g></g><g transform="translate(-3.8229 -3.3453003)"><clipPath id="b"><path d="M18.801 31.765c0 .378.033.746.066 1.113l17.106 11.64 17.039-11.64c.022-.367.056-.735.056-1.113 0-9.253-7.687-16.787-17.128-16.787-9.452 0-17.139 7.534-17.139 16.787z" clip-rule="nonzero"/></clipPath><g clip-path="url(#b)"><path fill="#495790" fill-rule="nonzero" d="M40.6227 24.9731c0 2.536-2.098 4.592-4.685 4.592-2.589 0-4.687-2.056-4.687-4.592 0-2.536 2.098-4.592 4.687-4.592 2.587 0 4.685 2.056 4.685 4.592m.6799 5.5464h-10.732c-3.099 0-5.568 2.541-5.416 5.575l.418 8.357c.126 2.527 2.253 4.512 4.834 4.512l1.382 12.421h8.296l1.383-12.421c2.581 0 4.707-1.985 4.834-4.512l.417-8.357c.152-3.034-2.317-5.575-5.416-5.575" opacity=".4"/></g></g><g transform="translate(-3.8229 -3.3453003)"><clipPath id="c"><path d="M4.823 22.5v36L36 76.5l31.177-18v-36L36 4.5Z" clip-rule="nonzero"/></clipPath><g clip-path="url(#c)"><path fill="none" stroke="#231f20" stroke-width="2" d="M53.0673 31.7644c0 .378-.033.746-.055 1.113l-17.04 11.642-17.105-11.642c-.033-.367-.067-.735-.067-1.113 0-9.253 7.688-16.787 17.139-16.787 9.441 0 17.128 7.534 17.128 16.787Z"/><path fill="#fff" fill-rule="nonzero" stroke="#231f20" d="M39.919 38.1434h-7.934l-3.968 6.871 3.968 6.872h7.934l3.967-6.872zm13.0571 15.3095 2.153 34.113h-38.419l2.153-34.113"/><path fill="#495790" fill-rule="nonzero" d="M31.542 58.0032h8.904l1.679 2.912H29.863Z" opacity=".4"/><path fill="none" stroke="#231f20" d="M61.0571 40.8354c-1.873 3.419-4.096 7.116-6.741 10.97-.242.35-.484.701-.737 1.039-2.393 3.419-4.797 6.476-7.092 9.17h-3.721l-.641-1.1-1.679-2.911h-8.904l-1.679 2.911-.629 1.1h-3.733c-2.537-3.021-5.207-6.452-7.865-10.318-2.597-3.805-4.808-7.454-6.693-10.861m42.5027 14.9689c.834-.797 1.679-1.631 2.525-2.489 2.972-3.02 5.582-5.992 7.865-8.795M53.3129 57.8461c1.317-.87 2.658-1.788 4.023-2.755 3.057-2.186 5.823-4.361 8.324-6.475M53.2041 59.4046c1.679-.713 3.407-1.486 5.171-2.32 2.924-1.401 5.642-2.839 8.155-4.264m-47.93 3.1373c-.834-.797-1.822-1.785-2.667-2.642-2.972-3.021-5.582-5.993-7.865-8.796m10.667 13.4278c-1.317-.87-2.802-1.89-4.168-2.856-3.056-2.187-5.823-4.362-8.324-6.476m-.8695 4.2045c2.513 1.426 5.231 2.863 8.155 4.265 1.764.833 3.632 1.696 5.311 2.409m10.9869 1.4206h12.359"/></g></g><path fill="none" stroke="#231f20" stroke-width="2" d="M63.354 55.1546997v-36l-31.177-18-31.177 18v36l31.177 18z"/></svg>