<svg xmlns="http://www.w3.org/2000/svg" xmlns:svg="http://www.w3.org/2000/svg" fill-rule="evenodd" stroke-miterlimit="10" clip-rule="evenodd" viewBox="0 0 64.353996 74.309402" xml:space="preserve"><path fill="#3d8b8a" fill-rule="nonzero" d="m32.177 73.1546997 31.177-18v-36l-31.177-18-31.177 18v36z" opacity=".3"/><g transform="translate(-3.823 -1.8453003)"><clipPath id="a"><path d="M4.823 21v36L36 75l31.177-18V21L36 3Z" clip-rule="nonzero"/></clipPath><g clip-path="url(#a)"><path fill="none" stroke="#231f20" d="M45.4332 20.7272v-6.501l-5.63-3.25v-6.501"/><path fill="#fff" fill-rule="nonzero" d="M45.4332 17.8195c1.606 0 2.908 1.302 2.908 2.908 0 1.606-1.302 2.908-2.908 2.908-1.606 0-2.908-1.302-2.908-2.908 0-1.606 1.302-2.908 2.908-2.908"/><circle cy="-2.908" r="2.908" fill="none" stroke="#231f20" transform="matrix(-1 0 0 1 45.4332 23.6355)"/><path fill="none" stroke="#231f20" d="M26.5535 20.7272v-6.501l5.63-3.25v-6.501"/><path fill="#fff" fill-rule="nonzero" d="M26.5535 17.8195c-1.606 0-2.908 1.302-2.908 2.908 0 1.606 1.302 2.908 2.908 2.908 1.606 0 2.908-1.302 2.908-2.908 0-1.606-1.302-2.908-2.908-2.908"/><circle cy="-2.908" r="2.908" fill="none" stroke="#231f20" transform="matrix(-1 0 0 1 26.5535 23.6355)"/><path fill="none" stroke="#231f20" d="M35.9934-5.4413v22.872"/><path fill="#fff" fill-rule="nonzero" d="M35.9934 20.3383c-1.606 0-2.908-1.302-2.908-2.908 0-1.606 1.302-2.908 2.908-2.908 1.606 0 2.908 1.302 2.908 2.908 0 1.606-1.302 2.908-2.908 2.908"/><path fill="none" stroke="#231f20" d="M35.9934 20.3383c-1.606 0-2.908-1.302-2.908-2.908 0-1.606 1.302-2.908 2.908-2.908 1.606 0 2.908 1.302 2.908 2.908 0 1.606-1.302 2.908-2.908 2.908Zm-9.4399 36.9345v6.501l5.63 3.25v6.501"/><path fill="#fff" fill-rule="nonzero" d="M26.5535 60.1805c-1.606 0-2.908-1.302-2.908-2.908 0-1.606 1.302-2.908 2.908-2.908 1.606 0 2.908 1.302 2.908 2.908 0 1.606-1.302 2.908-2.908 2.908"/><path fill="none" stroke="#231f20" d="M26.5535 60.1805c-1.606 0-2.908-1.302-2.908-2.908 0-1.606 1.302-2.908 2.908-2.908 1.606 0 2.908 1.302 2.908 2.908 0 1.606-1.302 2.908-2.908 2.908Zm18.8797-2.9077v6.501l-5.63 3.25v6.501"/><path fill="#fff" fill-rule="nonzero" d="M45.4332 60.1805c1.606 0 2.908-1.302 2.908-2.908 0-1.606-1.302-2.908-2.908-2.908-1.606 0-2.908 1.302-2.908 2.908 0 1.606 1.302 2.908 2.908 2.908"/><path fill="none" stroke="#231f20" d="M45.4332 60.1805c1.606 0 2.908-1.302 2.908-2.908 0-1.606-1.302-2.908-2.908-2.908-1.606 0-2.908 1.302-2.908 2.908 0 1.606 1.302 2.908 2.908 2.908zm-9.4398 23.2608v-22.872"/><path fill="#fff" fill-rule="nonzero" d="M35.9934 57.6618c1.606 0 2.908 1.302 2.908 2.908 0 1.606-1.302 2.908-2.908 2.908-1.606 0-2.908-1.302-2.908-2.908 0-1.606 1.302-2.908 2.908-2.908"/><circle cy="-2.908" r="2.908" fill="none" stroke="#231f20" transform="matrix(-1 0 0 1 35.9934 63.4778)"/><path fill="none" stroke="#231f20" d="M17.8733 34.2801h-6.501l-3.25 5.63h-6.501"/><path fill="#fff" fill-rule="nonzero" d="M12.9655 34.2801c0-1.606 1.302-2.908 2.908-2.908 1.606 0 2.908 1.302 2.908 2.908 0 1.606-1.302 2.908-2.908 2.908-1.606 0-2.908-1.302-2.908-2.908"/><circle cx="2.908" r="2.908" fill="none" stroke="#231f20" transform="matrix(0 1 1 0 15.8735 31.3721)"/><path fill="none" stroke="#231f20" d="M-10.2952 43.7199h22.872"/><path fill="#fff" fill-rule="nonzero" d="M15.4843 43.7199c0-1.606-1.302-2.908-2.908-2.908-1.606 0-2.908 1.302-2.908 2.908 0 1.606 1.302 2.908 2.908 2.908 1.606 0 2.908-1.302 2.908-2.908"/><circle cx="-2.908" r="2.908" fill="none" stroke="#231f20" transform="matrix(0 -1 -1 0 12.5763 40.8119)"/><path fill="none" stroke="#231f20" d="M54.2572 34.2801h6.501l3.25 5.63h6.501"/><path fill="#fff" fill-rule="nonzero" d="M59.165 34.2801c0-1.606-1.302-2.908-2.908-2.908-1.606 0-2.908 1.302-2.908 2.908 0 1.606 1.302 2.908 2.908 2.908 1.606 0 2.908-1.302 2.908-2.908"/><circle cx="-2.908" r="2.908" fill="none" stroke="#231f20" transform="matrix(0 -1 -1 0 56.257 31.3721)"/><path fill="none" stroke="#231f20" d="M82.4257 43.7199h-22.872"/><path fill="#fff" fill-rule="nonzero" d="M56.6462 43.7199c0-1.606 1.302-2.908 2.908-2.908 1.606 0 2.908 1.302 2.908 2.908 0 1.606-1.302 2.908-2.908 2.908-1.606 0-2.908-1.302-2.908-2.908"/><circle cx="2.908" r="2.908" fill="none" stroke="#231f20" transform="matrix(0 1 1 0 59.5542 40.8119)"/><path fill="#fff" fill-rule="nonzero" d="M36 26.1969c-7.07 0-12.803 5.733-12.803 12.803 0 7.07 5.733 12.803 12.803 12.803 7.07 0 12.803-5.733 12.803-12.803 0-7.07-5.733-12.803-12.803-12.803"/><circle cy="-12.803" r="12.803" fill="none" stroke="#231f20" stroke-linecap="round" stroke-linejoin="round" stroke-width="2" transform="matrix(-1 0 0 1 36 51.8029)"/><path fill="none" stroke="#231f20" stroke-linecap="round" stroke-linejoin="round" d="M48.7853 39h-6.384m-12.8028 0h-6.402M36 51.8031v-6.402m0-12.8026v-6.402"/></g></g><path fill="none" stroke="#231f20" stroke-width="2" d="m32.177 73.1546997 31.177-18v-36l-31.177-18-31.177 18v36z"/></svg>