<svg viewBox="0 0 301 338" xmlns="http://www.w3.org/2000/svg" fill-rule="evenodd" clip-rule="evenodd" stroke-miterlimit="10"><g transform="translate(.5 .375) scale(4.16667)"><path fill="none" d="M0 0h72v81H0z"/><clipPath id="prefix__a"><path d="M0 0h72v81H0z"/></clipPath><g clip-path="url(#prefix__a)"><clipPath id="prefix__b"><path d="M4.823 22.5v36L36 76.5l31.177-18v-36L36 4.5l-31.177 18z" clip-rule="nonzero"/></clipPath><g clip-path="url(#prefix__b)"><path d="M67.2 58.5v-36l-31.176-18-31.177 18v36l31.177 18 31.177-18z" fill="#495790" fill-rule="nonzero" opacity=".3"/><path d="M53.013 32.852c.012-.264.04-.524.04-.79 0-9.463-7.671-17.134-17.133-17.134-9.463 0-17.133 7.67-17.133 17.134 0 .266.027.526.04.79-8.516 5.579-14.144 15.2-14.144 26.14 0 17.252 13.985 31.237 31.237 31.237 17.25 0 31.237-13.986 31.237-31.236 0-10.942-5.63-20.563-14.144-26.142z" fill="#fff" fill-rule="nonzero" stroke="#231f20" stroke-width="2"/><path d="M10.943 40.835l7.92 12.618-.372 5.891L5.373 52.82l1.908-6.312 3.662-5.673zM60.616 41.12l-7.611 12.617.357 5.891 12.606-6.524-1.832-6.312-3.52-5.673z" fill="#495790" fill-rule="nonzero" opacity=".4"/><path d="M18.826 32.852l17.125 12.163L53.012 32.85" fill="#fff" fill-rule="nonzero" stroke="#231f20" stroke-width="2"/></g><clipPath id="prefix__c"><path d="M18.801 31.765c0 .378.033.746.066 1.113l17.106 11.64 17.039-11.64c.022-.367.056-.735.056-1.113 0-9.253-7.687-16.787-17.128-16.787-9.452 0-17.139 7.534-17.139 16.787z" clip-rule="nonzero"/></clipPath><g clip-path="url(#prefix__c)"><path d="M40.623 24.973c0 2.536-2.098 4.592-4.685 4.592-2.59 0-4.687-2.056-4.687-4.592 0-2.536 2.098-4.592 4.687-4.592 2.587 0 4.685 2.056 4.685 4.592M41.303 30.52H30.57c-3.1 0-5.568 2.54-5.416 5.575l.418 8.357c.126 2.527 2.253 4.512 4.834 4.512l1.382 12.42h8.296l1.383-12.42c2.58 0 4.707-1.985 4.834-4.512l.417-8.357c.152-3.034-2.317-5.575-5.416-5.575" fill="#495790" fill-rule="nonzero" opacity=".4"/></g><g><clipPath id="prefix__d"><path d="M4.823 22.5v36L36 76.5l31.177-18v-36L36 4.5l-31.177 18z" clip-rule="nonzero"/></clipPath><g clip-path="url(#prefix__d)"><path d="M53.067 31.764c0 .378-.033.746-.055 1.113L35.972 44.52 18.867 32.877c-.033-.367-.067-.735-.067-1.113 0-9.253 7.688-16.787 17.14-16.787 9.44 0 17.127 7.534 17.127 16.787z" fill="none" stroke="#231f20" stroke-width="2"/><path d="M39.919 38.143h-7.934l-3.968 6.871 3.968 6.872h7.934l3.967-6.872-3.967-6.87zM52.976 53.453l2.153 34.113H16.71l2.153-34.113" fill="#fff" fill-rule="nonzero" stroke="#231f20"/><path d="M31.542 58.003h8.904l1.679 2.912H29.863l1.679-2.912z" fill="#495790" fill-rule="nonzero" opacity=".4"/><path d="M61.057 40.835a128.333 128.333 0 01-6.74 10.97c-.243.35-.485.701-.738 1.04a122.249 122.249 0 01-7.092 9.17h-3.72l-.642-1.1-1.679-2.912h-8.904l-1.679 2.911-.629 1.1h-3.733a134.69 134.69 0 01-7.865-10.318 136.372 136.372 0 01-6.693-10.86M53.446 55.804c.834-.797 1.679-1.63 2.525-2.489a125.648 125.648 0 007.865-8.795M53.313 57.846c1.317-.87 2.658-1.788 4.023-2.755a130.183 130.183 0 008.324-6.475M53.204 59.405a141.597 141.597 0 005.171-2.32 133.268 133.268 0 008.155-4.264M18.6 55.958a134.658 134.658 0 01-2.667-2.642 125.878 125.878 0 01-7.865-8.796M18.735 57.948a165.23 165.23 0 01-4.168-2.856 130.826 130.826 0 01-8.324-6.476M5.374 52.82a133.26 133.26 0 008.155 4.265c1.764.833 3.632 1.696 5.31 2.41M29.826 60.915h12.36" fill="none" stroke="#231f20"/></g></g><g><path d="M67.177 58.5v-36L36 4.5l-31.177 18v36L36 76.5l31.177-18z" fill="none" stroke="#231f20" stroke-width="2"/></g></g></g></svg>