<svg viewBox="0 0 301 338" xmlns="http://www.w3.org/2000/svg" fill-rule="evenodd" clip-rule="evenodd" stroke-linecap="round" stroke-linejoin="round" stroke-miterlimit="10"><g transform="translate(.5 .06) scale(4.16667)"><path fill="none" d="M0 0h72v81H0z"/><clipPath id="prefix__a"><path d="M0 0h72v81H0z"/></clipPath><g clip-path="url(#prefix__a)"><path d="M67.175 58.538V22.614L35.999 4.654 4.823 22.613v35.924L35.999 76.5l31.176-17.962z" fill="#495790" fill-rule="nonzero" opacity=".3"/><path d="M18.61 37.971v5.908h2.43l1.82 3.173h14.27l2.58-2.575h4.61l1.43 1.428v-7.934H18.61z" fill="#231f20" fill-rule="nonzero"/><path d="M45.75 37.971v7.933l-1.43-1.427h-4.61l-2.58 2.575H22.86l-1.82-3.174h-2.43v-5.907h27.14z" fill="none" stroke="#231f20"/><path d="M50.98 36.245l-2.29 1.726h-2.94v7.934l1.28-.35h8.36l5.199-2.345v-4.62l-5.2-2.345h-4.41z" fill="#fff" fill-rule="nonzero"/><path d="M60.59 38.59v4.62l-5.2 2.345h-8.36l-1.28.349V37.97h2.94l2.29-1.726h4.41l5.2 2.345zM55.386 36.244v9.314" fill="none" stroke="#231f20"/><path d="M54.114 36.244v9.314" fill="none" stroke="#231f20" stroke-width=".5"/><clipPath id="prefix__b"><path d="M4.824 22.462v35.924L36 76.347l31.176-17.961V22.462L36 4.5 4.824 22.462z" clip-rule="nonzero"/></clipPath><g clip-path="url(#prefix__b)"><path d="M36.193 43.685a3.111 3.111 0 01-3.108-3.108 3.111 3.111 0 013.108-3.108h8.533v6.216h-8.533z" fill="#fff" fill-rule="nonzero"/><path d="M45.227 36.968h-9.033a3.612 3.612 0 00-3.608 3.608 3.611 3.611 0 003.608 3.608h9.033v-7.216zm-1 1v5.216h-8.033a2.607 2.607 0 110-5.216h8.033" fill="#231f20" fill-rule="nonzero"/><path d="M44.942 34.163L47.347 32a.941.941 0 01.629-.241h3.293a.938.938 0 01.93 1.074c-.261 1.777-1.184 5.135-4.418 5.135H35.314a.94.94 0 01-.94-.938v-.546c0-.291.135-.565.366-.743l1.582-1.217a.932.932 0 01.584-.195l7.397.075a.935.935 0 00.639-.241z" fill="#fff" fill-rule="nonzero" stroke="#231f20" stroke-width="2"/><path d="M35.197 35.622c-2.404-2.156-2.282-5.375-2.269-6.127-.307-2.675-.88-3.387-1.382-3.49-.614-.13-1.13.651-2.295 1.558a11.504 11.504 0 01-3.803 1.932H15.366a3.951 3.951 0 00-3.955 3.947v8.666a3.951 3.951 0 003.955 3.947h2.079c.078-.248.169-.487.272-.718 2.934-6.563 15.869-6.709 20.965-6.569v-1.49c-.734-.126-2.183-.485-3.486-1.656" fill="#fff" fill-rule="nonzero"/><path d="M35.197 35.622c-2.404-2.156-2.282-5.375-2.269-6.127-.307-2.675-.88-3.387-1.382-3.49-.614-.13-1.13.651-2.295 1.558a11.504 11.504 0 01-3.803 1.932H15.366a3.951 3.951 0 00-3.955 3.947v8.666a3.951 3.951 0 003.955 3.947h2.079c.078-.248.169-.487.272-.718 2.934-6.563 15.869-6.709 20.965-6.569v-1.49c-.734-.126-2.183-.485-3.486-1.656z" fill="none" stroke="#231f20" stroke-width="2"/><path d="M30.066 32.048h2.157l4.273-3.353" fill="none" stroke="#231f20"/><path d="M36.497 28.695l2.184 1.448" fill="none" stroke="#231f20" stroke-width="2"/><path d="M60.586 41.247l-5.2 1.415V39.14l5.2 1.414M42.858 37.968v5.216M47.034 45.558v-7.59M32.778 32.048H17.107a2.352 2.352 0 00-2.343 2.36v7.11a2.351 2.351 0 002.343 2.36h3.892" fill="none" stroke="#231f20" stroke-width=".5"/><path d="M19.02 33.998l-1.22 2.11M21.02 33.998l-1.22 2.11M23.02 33.998l-1.22 2.11" fill="none" stroke="#231f20"/><path d="M11.41 53.864h49.176" fill="none" stroke="#231f20" stroke-width="2" stroke-dasharray="32 4 8 4 2"/></g><g><path d="M67.176 58.385V22.461L36 4.501 4.824 22.46v35.924L36 76.347l31.176-17.962z" fill="none" stroke="#231f20" stroke-width="2" stroke-linecap="butt" stroke-linejoin="miter"/></g></g></g></svg>