<svg xmlns="http://www.w3.org/2000/svg" xmlns:svg="http://www.w3.org/2000/svg" fill-rule="evenodd" stroke-miterlimit="10" clip-rule="evenodd" viewBox="0 0 64.353996 74.309402" xml:space="preserve"><path fill="#7f5a90" fill-rule="nonzero" d="M63.354 55.1546997v-36l-31.177-18-31.177 18v36l31.177 18z" opacity=".3"/><path fill="none" stroke="#000" stroke-width="2" d="M63.354 55.1546997v-36l-31.177-18-31.177 18v36l31.177 18z"/><path fill="#fff" fill-rule="nonzero" stroke="#000" stroke-width="2" d="M39.0831 26.0739997c-2.064-.477-4.336-.726-6.906-.726-10.944 0-16.484 4.529-23.548 11.807 5.645 5.815 10.316 9.876 17.55 11.273"/><path fill="none" stroke="#000" stroke-linecap="round" stroke-linejoin="round" stroke-miterlimit="4" d="M26.179 48.4276997h0"/><path fill="none" stroke="#000" stroke-dasharray="0 1.96" stroke-linecap="round" stroke-linejoin="round" stroke-miterlimit="4" d="M28.1131 48.7294997c1.271.153 2.621.232 4.064.232 10.588 0 16.118-4.239 22.864-11.106"/><path fill="none" stroke="#000" stroke-linecap="round" stroke-linejoin="round" stroke-miterlimit="4" d="M55.7254 37.1546997h0"/><path fill="none" stroke="#000" stroke-dasharray="0 2.03" stroke-linecap="round" stroke-linejoin="round" stroke-miterlimit="4" d="M54.29834325 35.70444865c-4.5397348-4.54362164-8.62202228-7.84069355-14.23062694-9.38195975"/><path fill="none" stroke="#000" stroke-linecap="round" stroke-linejoin="round" stroke-miterlimit="4" d="M39.0831 26.0739997h0"/><path fill="#7f5a90" fill-rule="nonzero" d="M28.3584 44.6516997c-2.726-1.391-4.593-4.226-4.593-7.497 0-4.646 3.766-8.412 8.412-8.412 1.69 0 3.264.499 4.582 1.357" opacity=".3"/><path fill="none" stroke="#000" d="M28.3584 44.6516997c-2.726-1.391-4.593-4.226-4.593-7.497 0-4.646 3.766-8.412 8.412-8.412 1.69 0 3.264.499 4.582 1.357"/><path fill="#7f5a90" fill-rule="nonzero" d="M36.7599 30.0997997c2.305 1.5 3.829 4.1 3.829 7.055 0 4.646-3.766 8.412-8.412 8.412-1.375 0-2.672-.33-3.818-.915" opacity=".3"/><path fill="none" stroke="#000" stroke-linecap="round" stroke-linejoin="round" stroke-miterlimit="4" d="M36.7599 30.0997997h0"/><path fill="none" stroke="#000" stroke-dasharray="0 1.96" stroke-linecap="round" stroke-linejoin="round" stroke-miterlimit="4" d="M38.2672 31.3521997c1.439 1.509 2.322 3.553 2.322 5.802 0 4.646-3.766 8.412-8.412 8.412-1.027 0-2.01-.184-2.92-.52"/><path fill="none" stroke="#000" stroke-linecap="round" stroke-linejoin="round" stroke-miterlimit="4" d="M28.3584 44.6516997h0"/><path fill="none" stroke="#000" stroke-linecap="round" stroke-linejoin="round" stroke-width="2" d="M45.23428052 15.42145628 19.1195716 60.65297155"/></svg>