<svg viewBox="0 0 301 338" xmlns="http://www.w3.org/2000/svg" fill-rule="evenodd" clip-rule="evenodd" stroke-miterlimit="10"><g transform="translate(.5 .375) scale(4.16667)"><path fill="none" d="M0 0h72v81H0z"/><clipPath id="prefix__a"><path d="M0 0h72v81H0z"/></clipPath><g clip-path="url(#prefix__a)"><clipPath id="prefix__b"><path d="M4.823 21v36L36 75l31.177-18V21L36 3 4.823 21z" clip-rule="nonzero"/></clipPath><g clip-path="url(#prefix__b)"><path d="M67.177 57V21L36 3 4.823 21v36L36 75l31.177-18z" fill="#3f7faa" fill-rule="nonzero" opacity=".3"/><path d="M25.47 35.32l-4.58 9.16-4.42-2.4 1.43-4.24 1.22 5.12 3.72-12.08c.09-.28.15-.56.17-.85l.86.44a3.62 3.62 0 011.6 4.85" fill="#adbfd6" fill-rule="nonzero" opacity=".3"/><path d="M25.47 35.32l-4.58 9.16-4.42-2.4 1.43-4.24 1.22 5.12 3.72-12.08c.09-.28.15-.56.17-.85l.86.44a3.62 3.62 0 011.6 4.85z" fill="none" stroke="#231f20"/><path d="M23.01 30.03c-.02.29-.08.57-.17.85l-3.72 12.08-1.22-5.12-1.43-5.99 3.41-6.45 1.17.72c1.36.84 2.1 2.37 1.96 3.91" fill="#adbfd6" fill-rule="nonzero" opacity=".4"/><path d="M23.01 30.03c-.02.29-.08.57-.17.85l-3.72 12.08-1.22-5.12-1.43-5.99 3.41-6.45 1.17.72c1.36.84 2.1 2.37 1.96 3.91z" fill="none" stroke="#231f20"/><path d="M55.62 42.08l-4.42 2.4-4.58-9.16a3.62 3.62 0 011.6-4.85l.86-.44c.02.29.08.57.17.85l3.72 12.08 1.22-5.12 1.43 4.24z" fill="#adbfd6" fill-rule="nonzero" stroke="#231f20"/><path d="M55.62 31.85l-1.43 5.99-1.22 5.12-3.72-12.08a3.56 3.56 0 01-.17-.85c-.14-1.54.6-3.07 1.96-3.91l1.17-.72 3.41 6.45z" fill="#adbfd6" fill-rule="nonzero" stroke="#231f20"/><path d="M26.193 56.919v-6.252l-1.483-4.203a2.58 2.58 0 014.258-2.684 17.168 17.168 0 013.84 5.858l3.237 8.228v17.052h-10.42l-.19-5.305-7.01-19.861-5.115-9.127V24.142l2.309.747a3.606 3.606 0 012.417 2.684l2.347 11.095 4.748 5.012" fill="#fff" fill-rule="nonzero"/><path d="M26.193 56.919l-.5-6.252.029.166-1.195-3.197-.3-.8c-.097-.242-.223-.636-.245-.968a3.2 3.2 0 01.477-2.015c.744-1.22 2.364-1.813 3.743-1.341.687.193 1.303.768 1.659 1.157a17.886 17.886 0 013.108 4.327c.554 1.08.942 2.15 1.388 3.19l2.615 6.306.003.008.07.174v18.244H24.66l-.035-.965-.19-5.304.057.297-7.01-19.862.07.156-5.115-9.126-.127-.227v-18.12l1.308.424 2.087.675c.155.05.377.12.598.214.215.09.424.197.622.32a4.49 4.49 0 011.063.905c.305.353.558.752.745 1.18.19.419.295.93.358 1.245l.454 2.146 1.816 8.585-.252-.481 4.748 5.012-1.452 1.376-4.748-5.013-.194-.204-.06-.277-1.814-8.584-.454-2.146c-.084-.402-.127-.611-.237-.862a2.671 2.671 0 00-.421-.668 2.52 2.52 0 00-.602-.511 2.33 2.33 0 00-.351-.181c-.115-.05-.243-.091-.435-.153l-2.087-.675 1.308-.952v16.483l-.128-.49 5.115 9.128.042.075.029.08 7.01 19.862.05.144.007.153.189 5.305-1-.964h10.42l-1 1V57.866l.07.366-.003-.008-2.382-6.397c-.411-1.067-.766-2.153-1.218-3.115a16.343 16.343 0 00-2.697-4.058c-.402-.451-.64-.686-1.057-.841-.787-.306-1.766-.002-2.251.723a1.982 1.982 0 00-.341 1.233c.015.237.053.394.153.683l.27.81 1.076 3.238.034.102-.005.065-.5 6.252z" fill="#231f20" fill-rule="nonzero"/><path d="M45.897 56.919v-6.252l1.483-4.203a2.58 2.58 0 00-4.258-2.684 17.168 17.168 0 00-3.84 5.858l-3.237 8.228v17.052h10.42l.19-5.305 7.01-19.861 5.115-9.127V24.142l-2.31.747a3.606 3.606 0 00-2.416 2.684l-2.347 11.095-4.748 5.012" fill="#fff" fill-rule="nonzero"/><path d="M45.897 56.919l-.5-6.252-.005-.065.034-.102 1.076-3.238.27-.81c.1-.29.138-.446.153-.683a1.982 1.982 0 00-.341-1.233c-.485-.725-1.464-1.03-2.251-.723-.417.155-.655.39-1.057.84a16.343 16.343 0 00-2.697 4.058c-.452.963-.807 2.049-1.218 3.116l-2.382 6.397-.003.008.069-.366v17.052l-1-1h10.42l-1 .964.19-5.305.006-.153.05-.144 7.01-19.861.03-.081.042-.075 5.115-9.127-.128.489V24.142l1.308.952-2.087.675c-.192.062-.32.103-.435.153a2.33 2.33 0 00-.351.18 2.52 2.52 0 00-.602.512c-.172.2-.315.426-.421.668-.11.25-.153.46-.237.862L54.5 30.29l-1.815 8.584-.06.277-.193.204-4.748 5.013-1.452-1.376 4.748-5.012-.252.48 1.816-8.584.454-2.146c.063-.314.168-.826.358-1.245.187-.428.44-.827.745-1.18a4.49 4.49 0 011.063-.904c.198-.124.407-.23.622-.321.22-.094.443-.164.598-.214l2.087-.675 1.308-.423v18.119l-.127.227-5.116 9.126.07-.156-7.01 19.862.057-.297-.19 5.304-.034.965H35.045V57.674l.07-.174.003-.008 2.615-6.306c.446-1.04.834-2.11 1.388-3.19a17.886 17.886 0 013.108-4.327c.356-.39.972-.964 1.659-1.157 1.379-.472 2.999.12 3.743 1.34a3.2 3.2 0 01.477 2.016c-.022.332-.148.726-.246.969l-.3.799-1.194 3.197.029-.166-.5 6.252z" fill="#231f20" fill-rule="nonzero"/></g><g><path d="M67.177 57V21L36 3 4.823 21v36L36 75l31.177-18z" fill="none" stroke="#231f20" stroke-width="2"/></g></g></g></svg>