<svg xmlns="http://www.w3.org/2000/svg" xmlns:svg="http://www.w3.org/2000/svg" fill-rule="evenodd" stroke-miterlimit="10" clip-rule="evenodd" viewBox="0 0 64.353996 74.309402" xml:space="preserve"><g transform="translate(-3.8229 -1.8453003)"><clipPath id="a"><path d="M4.823 21v36L36 75l31.177-18V21L36 3Z" clip-rule="nonzero"/></clipPath><g clip-path="url(#a)"><path fill="#3f7faa" fill-rule="nonzero" d="M67.1769 57V21L35.9999 3 4.8229 21v36l31.177 18z" opacity=".3"/><path fill="#fff" fill-rule="nonzero" stroke="#231f20" stroke-width="2" d="m16.623 36.87 15.875-20.267 6.305 4.543 7.253 5.226 9.232 10.536c.973 1.11.794 2.814-.388 3.698l-2.091 1.566L52.106 46c-.839 4.575-2.643 8.92-5.29 12.745l-.114 15.318-.615.229c-6.597 2.446-13.865 2.365-20.405-.229l2.014-16.991-11.204-17.26c-.589-.908-.537-2.09.131-2.942Z"/><path fill="#231f20" fill-rule="nonzero" d="m27.4349 33.4469 2.233 3.481-.555-.271 9.77-2.095-.396.489v-4.257l.298.457-13.052-5.24c-.513-.206-.762-.789-.556-1.302.206-.512.789-.761 1.301-.555.022.008.045.019.066.028l12.646 6.155.016.008c.178.086.281.264.281.449v4.257c0 .24-.169.441-.395.489l-9.769 2.094-.055.012c-.217.047-.431-.078-.501-.283Z"/><path fill="#231f20" fill-rule="nonzero" d="m53.3506 43.0041-7.361 4.298-.026.015c-.211.123-.476.074-.63-.105l-3.166-3.675.171.129-13.328-6.065.29.037-4.876.317 4.71-1.303c.086-.024.174-.014.25.02l.04.018 13.329 6.065c.067.031.126.077.171.129l3.167 3.675-.656-.09 6.807-5.13c.442-.333 1.07-.245 1.403.197.333.442.245 1.07-.197 1.403-.03.023-.066.046-.098.065"/><path fill="none" stroke="#231f20" d="m38.80343416 21.14539246-4.77738042 7.44859265m12.0297168-2.22250954-10.2632361 13.64630585m16.07902026-7.01952725L42.54653554 43.2102654"/></g></g><path fill="none" stroke="#231f20" stroke-width="2" d="M63.354 55.1546997v-36l-31.177-18-31.177 18v36l31.177 18z"/></svg>