<svg viewBox="0 0 300 338" xmlns="http://www.w3.org/2000/svg" fill-rule="evenodd" clip-rule="evenodd" stroke-miterlimit="10"><g transform="translate(0 .12) scale(4.16667)"><path fill="none" d="M0 0h72v81H0z"/><clipPath id="prefix__a"><path d="M0 0h72v81H0z"/></clipPath><g clip-path="url(#prefix__a)"><path d="M67.177 58.5v-36L36 4.5l-31.177 18v36L36 76.5l31.177-18z" fill="#3f7faa" fill-rule="nonzero" opacity=".3"/><path d="M67.177 58.5v-36L36 4.5l-31.177 18v36L36 76.5l31.177-18zM20.199 40.5a15.823 15.823 0 015.006-11.548" fill="none" stroke="#231f20" stroke-width="2"/><path d="M26.193 31.425l1.902-4.609-4.942.657 3.04 3.952z" fill="#231f20" fill-rule="nonzero"/><path d="M51.801 40.494a15.828 15.828 0 01-5.016 11.554" fill="none" stroke="#231f20" stroke-width="2"/><path d="M45.798 49.575l-1.902 4.61 4.942-.658-3.04-3.952z" fill="#231f20" fill-rule="nonzero"/><path d="M38.616 59.323V47.834l-9.95-5.744-9.949 5.744v11.49l9.949 5.743 9.95-5.744z" fill="#fff" fill-rule="nonzero" stroke="#231f20" stroke-width="2"/><path d="M28.666 53.58l9.95-5.745-9.95 5.744z" fill="#fff" fill-rule="nonzero" stroke="#231f20"/><path d="M18.717 47.835l9.95 5.744v11.489" fill="none" stroke="#231f20"/><path d="M53.283 33.165V21.676l-9.95-5.744-9.949 5.744v11.49l9.95 5.743 9.95-5.744z" fill="#fff" fill-rule="nonzero" stroke="#231f20" stroke-width="2"/><path d="M43.334 27.42l9.95-5.743-9.95 5.744z" fill="#fff" fill-rule="nonzero" stroke="#231f20"/><path d="M33.384 21.677l9.95 5.744V38.91" fill="none" stroke="#231f20"/></g></g></svg>