<svg viewBox="0 0 301 339" xmlns="http://www.w3.org/2000/svg" fill-rule="evenodd" clip-rule="evenodd" stroke-miterlimit="10"><g transform="translate(.5 .75) scale(4.16667)"><path fill="none" d="M0 0h72v81H0z"/><clipPath id="prefix__a"><path d="M0 0h72v81H0z"/></clipPath><g clip-path="url(#prefix__a)"><path d="M67.177 58.5v-36L36 4.5l-31.177 18v36L36 76.5l31.177-18z" fill="#3d8b8a" fill-rule="nonzero" opacity=".3"/><clipPath id="prefix__b"><path d="M4.823 22.5v36L36 76.5l31.177-18v-36L36 4.5l-31.177 18z" clip-rule="nonzero"/></clipPath><g clip-path="url(#prefix__b)"><path d="M66.52 1.762s-3.943 38.96-34.43 28.562c0 0-.471 8.98 10.636 10.635 0 0-13.927 9.216-32.132-11.58 0 0-1.898 16.306 19.37 27.886L35.4 76.88l25.995-2.85 31.64-19.28.472-37.861L66.52 1.762z" fill="#fff" fill-rule="nonzero" stroke="#231f20" stroke-width="2"/><path d="M57.141 37.65l-2.63 4.931-3.042 5.703c.498.012 6.466.066 8.644-3.837.313-.56 1.155-2.069.62-3.76-.726-2.295-3.368-2.982-3.592-3.037" fill="#3d8b8a" fill-rule="nonzero" opacity=".4"/><path d="M56.937 37.194a.735.735 0 01.405-.007l.078.023.153.049.297.107c.195.077.388.16.575.254a6.06 6.06 0 011.073.665c.67.515 1.249 1.214 1.542 2.04.317.814.332 1.727.126 2.545a6.522 6.522 0 01-1.06 2.232c-.953 1.378-2.446 2.24-3.954 2.74-1.526.504-3.111.698-4.706.693h-.002l-.403.003.188-.371 2.725-5.376 1.442-2.794 1.521-2.803zm.408.913L56.03 40.62l-1.394 2.523-2.946 5.258-.215-.367h.002c1.523.005 3.07-.26 4.495-.77 1.417-.511 2.747-1.35 3.545-2.582.829-1.215 1.285-2.756.731-4.047-.248-.644-.719-1.186-1.292-1.603a5.152 5.152 0 00-.928-.541 6.822 6.822 0 00-.501-.204l-.255-.084-.127-.037-.063-.017c.065.023.193.01.263-.043" fill="#231f20" fill-rule="nonzero"/><path d="M37.734 42.714a19.592 19.592 0 01-6.979 13.889l-.791.662" fill="#fff" fill-rule="nonzero" stroke="#231f20"/><path d="M50.645 30.601a13.238 13.238 0 01-2.186 6.667 13.167 13.167 0 01-5.304 4.593l-.43-.903a12.166 12.166 0 004.9-4.244 12.23 12.23 0 002.02-6.16l1 .047zM19.542 44.89a46.599 46.599 0 0014.075 8.72l-.394.917a47.09 47.09 0 01-13.68-9.638" fill="#231f20" fill-rule="nonzero"/></g><g><path d="M67.177 58.5v-36L36 4.5l-31.177 18v36L36 76.5l31.177-18z" fill="none" stroke="#231f20" stroke-width="2"/></g></g></g></svg>