<svg viewBox="0 0 301 339" xmlns="http://www.w3.org/2000/svg" fill-rule="evenodd" clip-rule="evenodd" stroke-miterlimit="10"><g transform="translate(.5 .688) scale(4.16667)"><path fill="none" d="M0 0h72v81H0z"/><clipPath id="prefix__a"><path d="M0 0h72v81H0z"/></clipPath><g clip-path="url(#prefix__a)"><path d="M36 76.5l31.177-18v-36L36 4.5l-31.177 18v36L36 76.5z" fill="#40834f" fill-rule="nonzero" opacity=".3"/><clipPath id="prefix__b"><path d="M4.823 22.5v36L36 76.5l31.177-18v-36L36 4.5l-31.177 18z" clip-rule="nonzero"/></clipPath><g clip-path="url(#prefix__b)"><path d="M32.99 55.685c-.79.12-1.59.18-2.4.18-4.24 0-8.19-1.69-11.12-4.76-.08-.08-.16-.16-.23-.25-.31-.33-.6-.68-.87-1.04-.26-.33-.49-.66-.71-1.01-.42-.64-.79-1.31-1.1-2-.15-.33-.28-.66-.4-1-.13-.33-.24-.66-.33-1-.47-1.61-.67-3.3-.59-5.03.05-.99.19-1.95.42-2.88.08-.34.18-.67.28-1 .11-.34.23-.67.37-1 .28-.7.61-1.37.98-2.02.21-.35.43-.7.66-1.03.25-.36.52-.71.8-1.05 2.85-3.44 7.17-5.66 11.92-5.66.77 0 1.54.06 2.3.19-.57.32-1.13.67-1.67 1.06-.37.27-.75.52-1.14.76-3.09.1-5.95 1.3-8.2 3.21-.44.38-.87.79-1.26 1.23-.33.35-.63.73-.91 1.12-.49.66-.92 1.37-1.28 2.12-.15.33-.3.67-.43 1.02-.13.33-.24.67-.34 1.02a13.187 13.187 0 00.2 7.94 11.766 11.766 0 00.87 2.02c.4.74.87 1.44 1.41 2.1.22.27.45.54.7.8l.33.33c.47.46.96.89 1.49 1.27 2.05 1.49 4.47 2.36 7.04 2.51.82.42 1.62.88 2.42 1.38.26.16.52.32.79.47M72.78 32.185v15.92H55.65c-.31 0-.63 0-.94.02-.84.02-1.67.07-2.49.17-.48.04-.95.11-1.42.18-.57.09-1.13.19-1.68.31-2.84.62-5.49 1.66-7.87 3.08-1.01-.01-2.01-.16-2.97-.44l.09-.06c3.64-2.62 7.97-4.3 12.71-4.95.41-.06.83-.11 1.25-.14.38-.05.77-.08 1.16-.1.71-.05 1.43-.07 2.16-.07h15.13v-11.92h-16.6c-.33 0-.66-.01-.99-.02-.39-.01-.79-.04-1.19-.07-.42-.03-.85-.07-1.28-.13-4.22-.53-8.44-2.02-12.4-4.4.99-.29 2.03-.43 3.09-.43.1 0 .21 0 .31.01 2.18 1.08 4.42 1.88 6.67 2.38.63.15 1.26.27 1.9.36.49.08.99.14 1.49.18.8.08 1.6.12 2.4.12h18.6z" fill="#fff" fill-rule="nonzero"/><path d="M53.26 50.205c-2.85 3.44-7.15 5.66-11.85 5.66v1l-.08-1c-.78 0-1.54-.06-2.3-.19-.53-.08-1.04-.18-1.55-.33-.5-.12-.99-.28-1.47-.46-.92-.35-1.81-.78-2.66-1.31-.03-.01-.06-.03-.09-.05-.42-.26-.84-.51-1.26-.75-.57-.33-1.14-.63-1.72-.92-2.18-1.08-4.43-1.89-6.69-2.39-.43-.34-.84-.71-1.22-1.12-.4-.42-.76-.86-1.08-1.32 4.22.54 8.44 2.03 12.4 4.41.21.12.43.26.64.39.16.1.32.2.49.29.38.22.78.42 1.18.6.85.38 1.73.67 2.65.86.48.1.98.18 1.48.21.42.06.85.08 1.28.08.14 0 .28 0 .42-.01 3.09-.1 5.96-1.3 8.21-3.21 1.05-.21 2.12-.36 3.22-.44" fill="#fff" fill-rule="nonzero"/><path d="M30.59 55.865c-4.24 0-8.19-1.69-11.12-4.76-.08-.08-.16-.16-.23-.25-.31-.33-.6-.68-.87-1.04-.26-.33-.49-.66-.71-1.01-.42-.64-.79-1.31-1.1-2-.15-.33-.28-.66-.4-1-.13-.33-.24-.66-.33-1-.47-1.61-.67-3.3-.59-5.03.05-.99.19-1.95.42-2.88.08-.34.18-.67.28-1 .11-.34.23-.67.37-1 .28-.7.61-1.37.98-2.02.21-.35.43-.7.66-1.03.25-.36.52-.71.8-1.05 2.85-3.44 7.17-5.66 11.92-5.66.77 0 1.54.06 2.3.19-.57.32-1.13.67-1.67 1.06-.37.27-.75.52-1.14.76-3.09.1-5.95 1.3-8.2 3.21-.44.38-.87.79-1.26 1.23-.33.35-.63.73-.91 1.12-.49.66-.92 1.37-1.28 2.12-.15.33-.3.67-.43 1.02-.13.33-.24.67-.34 1.02a13.187 13.187 0 00.2 7.94 11.766 11.766 0 00.87 2.02c.4.74.87 1.44 1.41 2.1.22.27.45.54.7.8l.33.33c.47.46.96.89 1.49 1.27 2.05 1.49 4.47 2.36 7.04 2.51.82.42 1.62.88 2.42 1.38.26.16.52.32.79.47-.79.12-1.59.18-2.4.18m25.06-5.76c-.36 0-.71.01-1.06.02h-.01c-.44.01-.89.04-1.32.08-2.85 3.44-7.15 5.66-11.85 5.66v1l-.08-1c-.78 0-1.54-.06-2.3-.19-.53-.08-1.04-.18-1.55-.33-.5-.12-.99-.28-1.47-.46-.92-.35-1.81-.78-2.66-1.31-.03-.01-.06-.03-.09-.05-.42-.26-.84-.51-1.26-.75-.57-.33-1.14-.63-1.72-.92-2.18-1.08-4.43-1.89-6.69-2.39-.43-.34-.84-.71-1.22-1.12-.4-.42-.76-.86-1.08-1.32-.25-.35-.48-.71-.68-1.08-.19-.34-.36-.69-.5-1.05-.66-1.54-.96-3.21-.88-4.94.05-1.13.28-2.22.65-3.24.13-.36.27-.71.44-1.05.18-.37.37-.73.59-1.08.55-.87 1.21-1.67 1.96-2.37 2.84-.62 5.48-1.65 7.86-3.08h.01c.48-.28.94-.58 1.39-.9.11-.07.22-.14.33-.22.29-.21.58-.41.88-.59.85-.53 1.74-.97 2.66-1.31.47-.18.95-.34 1.45-.46.51-.14 1.03-.25 1.56-.33.79-.13 1.59-.19 2.4-.19 4.24 0 8.19 1.69 11.12 4.75.08.08.16.16.23.25.45.03.91.05 1.36.05h1.27c-.43-.59-.9-1.15-1.41-1.68a17.255 17.255 0 00-12.57-5.37c-1.86 0-3.69.29-5.42.87a17.35 17.35 0 00-5.4-.87c-5.91 0-11.25 3.1-14.4 7.76-.23.33-.44.66-.64 1-.19.33-.37.66-.53 1-.33.64-.61 1.31-.85 2-.12.33-.22.66-.32 1-.09.33-.17.66-.24 1-.2.91-.33 1.83-.37 2.78-.08 1.76.1 3.48.52 5.13.08.34.18.67.29 1 .1.34.22.67.34 1 .27.69.58 1.35.95 2 .17.34.37.67.58 1 .22.34.45.68.7 1 .42.59.9 1.15 1.41 1.69 3.3 3.46 7.77 5.37 12.56 5.37 1.87 0 3.69-.29 5.42-.87 1.7.57 3.49.86 5.31.87h.09c5.91 0 11.25-3.1 14.4-7.76h-.16z" fill="#231f20" fill-rule="nonzero"/><path d="M56.17 36.185h-2.1c.54 1.57.78 3.24.7 4.95-.05 1.03-.22 2.03-.5 2.99.46-.01.92-.02 1.38-.02h.69c.23-.93.37-1.89.42-2.88.08-1.73-.12-3.43-.59-5.04m-40.83 12.62c-.37-.65-.68-1.31-.95-2-.12-.33-.24-.66-.34-1H2.22v-9.91h11.63c.1-.34.2-.67.32-1 .24-.69.52-1.36.85-2 .16-.34.34-.67.53-1H-1.78v17.91h17.7c-.21-.33-.41-.66-.58-1M52.76 30.135c-1.17-.07-2.35-.22-3.52-.47a13.07 13.07 0 00-7.02-2.5c-.27-.02-.54-.03-.81-.03-.41 0-.81.02-1.22.06-.52.04-1.03.11-1.54.23-.91.18-1.8.47-2.65.85-.4.17-.8.37-1.18.6-.38.21-.74.44-1.1.7l-.09.06c-3.64 2.62-7.98 4.3-12.72 4.95.55-.87 1.21-1.67 1.96-2.37 2.84-.62 5.48-1.65 7.86-3.08h.01c.48-.28.94-.58 1.39-.9.11-.07.22-.14.33-.22.29-.21.58-.41.88-.59.85-.53 1.74-.97 2.66-1.31.47-.18.95-.34 1.45-.46.51-.14 1.03-.25 1.56-.33.79-.13 1.59-.19 2.4-.19 4.24 0 8.19 1.69 11.12 4.75.08.08.16.16.23.25" fill="#fff" fill-rule="nonzero"/><path d="M14.05 45.805c-.11-.33-.21-.66-.29-1H3.22v-7.91h10.39c.07-.34.15-.67.24-1 .1-.34.2-.67.32-1H1.22v11.91h13.17c-.12-.33-.24-.66-.34-1m1.87 4c-.21-.33-.41-.66-.58-1H-.78v-15.91h15.8c.16-.34.34-.67.53-1 .2-.34.41-.67.64-1H-2.78v19.91h19.4c-.25-.32-.48-.66-.7-1m-1.87-4c-.11-.33-.21-.66-.29-1H3.22v-7.91h10.39c.07-.34.15-.67.24-1 .1-.34.2-.67.32-1H1.22v11.91h13.17c-.12-.33-.24-.66-.34-1m0 0c-.11-.33-.21-.66-.29-1H3.22v-7.91h10.39c.07-.34.15-.67.24-1 .1-.34.2-.67.32-1H1.22v11.91h13.17c-.12-.33-.24-.66-.34-1M58.76 41.315c-.04.95-.17 1.89-.37 2.79h-2.05c.23-.93.37-1.89.42-2.88.08-1.73-.12-3.43-.59-5.04h2.07c.42 1.65.6 3.37.52 5.13M54.77 41.135c-.05 1.03-.22 2.03-.5 2.99l-1.06.06c-.37.03-.73.06-1.09.1.37-1.02.6-2.11.65-3.24.08-1.73-.22-3.41-.88-4.95.37.03.74.05 1.11.07.36.01.71.02 1.07.02.54 1.57.78 3.24.7 4.95" fill="#231f20" fill-rule="nonzero"/><path d="M72.78 48.105H55.65c-.31 0-.63 0-.94.02-.84.02-1.67.07-2.49.17-.48.04-.95.11-1.42.18-.57.09-1.13.19-1.68.31-2.84.62-5.49 1.66-7.87 3.08-1.01-.01-2.01-.16-2.97-.44l.09-.06c3.64-2.62 7.97-4.3 12.71-4.95.41-.06.83-.11 1.25-.14.38-.05.77-.08 1.16-.1.71-.05 1.43-.07 2.16-.07h15.13v-11.92h-16.6c-.33 0-.66-.01-.99-.02-.39-.01-.79-.04-1.19-.07-.42-.03-.85-.07-1.28-.13-4.22-.53-8.44-2.02-12.4-4.4.99-.29 2.03-.43 3.09-.43.1 0 .21 0 .31.01 2.18 1.08 4.42 1.88 6.67 2.38.63.15 1.26.27 1.9.36.49.08.99.14 1.49.18.8.08 1.6.12 2.4.12h18.6v15.92zm-18.66-17.92c-.45 0-.91-.02-1.36-.05-1.17-.07-2.35-.22-3.52-.47a13.07 13.07 0 00-7.02-2.5c-.27-.02-.54-.03-.81-.03-.41 0-.81.02-1.22.06-.52.04-1.03.11-1.54.23-.91.18-1.8.47-2.65.85-.4.17-.8.37-1.18.6-.38.21-.74.44-1.1.7l-.09.06c-3.64 2.62-7.98 4.3-12.72 4.95-.22.35-.41.71-.59 1.08-.17.34-.31.69-.44 1.05 5.57-.54 10.67-2.41 14.92-5.46.39-.28.79-.53 1.2-.75.21.12.41.23.61.36 4.83 3.04 10.07 4.82 15.28 5.23.37.03.74.05 1.11.07.36.01.71.02 1.07.02h14.71v7.92H55.65c-.46 0-.92.01-1.38.02l-1.06.06c-.37.03-.73.06-1.09.1-5.57.54-10.67 2.4-14.92 5.45-.39.28-.79.54-1.21.75-.2-.11-.4-.23-.6-.35-4.83-3.04-10.07-4.83-15.28-5.24.14.36.31.71.5 1.05.2.37.43.73.68 1.08 4.22.54 8.44 2.03 12.4 4.41.21.12.43.26.64.39.16.1.32.2.49.29.38.22.78.42 1.18.6.85.38 1.73.67 2.65.86.48.1.98.18 1.48.21.42.06.85.08 1.28.08.14 0 .28 0 .42-.01 3.09-.1 5.96-1.3 8.21-3.21 1.05-.21 2.12-.36 3.22-.44.43-.04.88-.07 1.32-.08h.01c.35-.01.7-.02 1.06-.02h19.13v-19.92H54.12z" fill="#231f20" fill-rule="nonzero"/></g><g><path d="M67.177 58.5v-36L36 4.5l-31.177 18v36L36 76.5l31.177-18z" fill="none" stroke="#231f20" stroke-width="2"/></g></g></g></svg>