<svg viewBox="0 0 300 338" xmlns="http://www.w3.org/2000/svg" fill-rule="evenodd" clip-rule="evenodd" stroke-linecap="round" stroke-linejoin="round" stroke-miterlimit="10"><g transform="translate(0 .375) scale(4.16667)"><path fill="none" d="M0 0h72v81H0z"/><clipPath id="prefix__a"><path d="M0 0h72v81H0z"/></clipPath><g clip-path="url(#prefix__a)"><path d="M67.177 58.5v-36L36 4.5l-31.177 18v36L36 76.5l31.177-18z" fill="#3f7faa" fill-rule="nonzero" opacity=".3"/><clipPath id="prefix__b"><path d="M4.823 22.5v36L36 76.5l31.177-18v-36L36 4.5l-31.177 18z" clip-rule="nonzero"/></clipPath><g clip-path="url(#prefix__b)"><path d="M46.551 25.798c0 5.827-4.724 10.55-10.551 10.55s-10.551-4.723-10.551-10.55c0-5.827 4.724-10.551 10.551-10.551s10.551 4.724 10.551 10.55" fill="#fff" fill-rule="nonzero"/><circle cx="-10.551" fill="none" stroke="#231f20" stroke-width="2" r="10.551" transform="matrix(0 -1 -1 0 36 15.247)"/><path d="M48.083 36.348H23.918c-6.98 0-12.538 5.838-12.196 12.808l.94 19.202a10.898 10.898 0 0010.885 10.365l3.114 28.538H45.34l3.113-28.538h0c5.812 0 10.6-4.56 10.886-10.365l.94-19.202c.342-6.97-5.218-12.808-12.196-12.808z" fill="#fff" fill-rule="nonzero" stroke="#231f20" stroke-width="2"/><path d="M45.95 63.528V52.04L36 46.295l-9.95 5.744v11.49L36 69.271l9.95-5.744z" fill="#3f7faa" fill-rule="nonzero" opacity=".3"/><path d="M45.95 63.528V52.04L36 46.295l-9.95 5.744v11.49L36 69.271l9.95-5.744z" fill="none" stroke="#231f20" stroke-width="2" stroke-linecap="butt" stroke-linejoin="miter"/><path d="M36 57.784l9.95-5.744L36 57.784z" fill="#fff" fill-rule="nonzero" stroke="#231f20" stroke-linecap="butt" stroke-linejoin="miter"/><path d="M26.05 52.04L36 57.784v11.489" fill="none" stroke="#231f20" stroke-linecap="butt" stroke-linejoin="miter"/></g><g><path d="M67.177 58.5v-36L36 4.5l-31.177 18v36L36 76.5l31.177-18z" fill="none" stroke="#231f20" stroke-width="2" stroke-linecap="butt" stroke-linejoin="miter"/></g></g></g></svg>