<svg viewBox="0 0 300 339" xmlns="http://www.w3.org/2000/svg" fill-rule="evenodd" clip-rule="evenodd" stroke-miterlimit="10"><g transform="translate(0 .75) scale(4.16667)"><path fill="none" d="M0 0h72v81H0z"/><clipPath id="prefix__a"><path d="M0 0h72v81H0z"/></clipPath><g clip-path="url(#prefix__a)"><path d="M67.177 58.5v-36L36 4.5l-31.177 18v36L36 76.5l31.177-18z" fill="#3f7faa" fill-rule="nonzero" opacity=".3"/><path d="M67.177 58.5v-36L36 4.5l-31.177 18v36L36 76.5l31.177-18z" fill="none" stroke="#231f20" stroke-width="2"/><path d="M22.987 59.495c-2.464 0-11.739-16.43-11.739-23.771 0-6.473 5.266-11.74 11.74-11.74 6.472 0 11.738 5.267 11.738 11.74 0 7.232-8.74 23.77-11.739 23.77" fill="#fff" fill-rule="nonzero"/><path d="M22.988 22.984c-7.036 0-12.74 5.704-12.74 12.74 0 7.035 9.086 24.77 12.74 24.77 4.052 0 12.739-17.735 12.739-24.77 0-7.036-5.703-12.74-12.74-12.74m0 2c5.923 0 10.74 4.818 10.74 10.74 0 2.818-1.76 8.286-4.378 13.606-3.024 6.142-5.456 8.705-6.322 9.123-1-.555-3.55-3.703-6.328-9.268-2.704-5.414-4.45-10.698-4.45-13.462 0-5.92 4.817-10.739 10.739-10.739" fill="#231f20" fill-rule="nonzero"/><path d="M22.987 41.943a6.013 6.013 0 01-6.006-6.007 6.013 6.013 0 016.006-6.007 6.014 6.014 0 016.007 6.007 6.014 6.014 0 01-6.007 6.007" fill="#3f7faa" fill-rule="nonzero" opacity=".3"/><path d="M22.988 28.93a7.007 7.007 0 100 14.013 7.007 7.007 0 000-14.014m0 2a5.013 5.013 0 015.007 5.007 5.012 5.012 0 01-5.007 5.006 5.012 5.012 0 01-5.007-5.006 5.013 5.013 0 015.007-5.007" fill="#231f20" fill-rule="nonzero"/><path d="M52.519 46.997c-1.912 0-7.825-11.037-7.825-15.688 0-4.314 3.51-7.825 7.825-7.825 4.314 0 7.825 3.511 7.825 7.825 0 4.773-5.826 15.688-7.825 15.688" fill="#fff" fill-rule="nonzero"/><path d="M52.518 22.984a8.325 8.325 0 00-8.325 8.325c0 4.598 5.937 16.188 8.325 16.188 2.648 0 8.325-11.59 8.325-16.188a8.325 8.325 0 00-8.325-8.325m0 1c4.04 0 7.325 3.286 7.325 7.325 0 4.757-5.647 15.04-7.294 15.19-1.688-.359-7.356-10.734-7.356-15.19 0-4.039 3.286-7.325 7.325-7.325" fill="#231f20" fill-rule="nonzero"/><path d="M52.519 35.527a4.084 4.084 0 01-4.08-4.079 4.084 4.084 0 014.08-4.079 4.083 4.083 0 014.078 4.08 4.083 4.083 0 01-4.078 4.078" fill="#3f7faa" fill-rule="nonzero" opacity=".3"/><path d="M52.518 26.87a4.579 4.579 0 100 9.157 4.579 4.579 0 000-9.157m0 1a3.583 3.583 0 013.58 3.579 3.584 3.584 0 01-3.58 3.579 3.584 3.584 0 01-3.579-3.58 3.583 3.583 0 013.58-3.578M27.883 60.419l-.23 1.333c-.473-.08-.942-.18-1.407-.29l.32-1.346c.438.112.877.216 1.317.303M30.43 60.726l-.014 1.29c-.447 0-.895-.03-1.34-.072l.125-1.315c.412.05.821.086 1.228.097M32.826 60.562l.258 1.202c-.438.092-.881.162-1.327.2l-.115-1.255a9.773 9.773 0 001.184-.147M35.012 59.832l.557 1.028c-.386.206-.785.384-1.194.537l-.41-1.126c.359-.124.709-.27 1.047-.44M36.828 58.51l.811.759c-.3.318-.625.61-.97.88l-.693-.905c.3-.223.585-.467.852-.733M38.253 56.63l.9.54c-.219.368-.448.727-.692 1.078l-.883-.624c.232-.312.454-.644.675-.993M39.607 54.466l.838.532c-.222.352-.436.709-.645 1.069l-.882-.515c.22-.36.449-.724.69-1.086M41.18 52.428l.71.614c-.267.293-.5.61-.742.924l-.777-.572c.263-.327.52-.66.809-.966M42.93 50.765l.574.676c-.28.232-.545.481-.806.734l-.639-.65c.283-.261.57-.52.871-.76M44.758 49.476l.45.708c-.289.187-.573.378-.849.58l-.508-.695c.295-.208.6-.403.907-.593M46.609 48.507l.342.717c-.291.137-.576.285-.858.44l-.393-.716c.3-.156.602-.304.909-.44M48.418 47.796l.255.707c-.282.103-.563.21-.842.326l-.294-.712c.292-.115.585-.22.88-.32" fill="#231f20" fill-rule="nonzero"/><path fill="#231f20" d="M49.335 47.514l.192.7.81-.223-.194-.7z"/></g></g></svg>