<svg xmlns="http://www.w3.org/2000/svg" xmlns:svg="http://www.w3.org/2000/svg" fill-rule="evenodd" stroke-miterlimit="10" clip-rule="evenodd" viewBox="0 0 64.353996 74.309402" xml:space="preserve"><path fill="#495790" fill-rule="nonzero" d="M63.354 55.1546997v-36l-31.177-18-31.177 18v36l31.177 18z" opacity=".3"/><path fill="none" stroke="#231f20" stroke-width="2" d="M63.354 55.1546997v-36l-31.177-18-31.177 18v36l31.177 18z"/><path fill="#231f20" d="M6.8591 35.4727007h44.737999v8.1140003H6.8591z"/><path fill="#fff" fill-rule="nonzero" d="M36.4322 40.7843997c0 2.759 2.236 4.995 4.995 4.995s4.995-2.236 4.995-4.995-2.236-4.995-4.995-4.995-4.995 2.236-4.995 4.995"/><circle cx="4.9949999" r="4.9949999" fill="none" stroke="#231f20" stroke-width="2" transform="matrix(0 1 1 0 41.4272 35.7893997)"/><path fill="#fff" fill-rule="nonzero" d="M10.9186 40.4834997c0 2.53 2.051 4.579 4.581 4.579 2.529 0 4.581-2.049 4.581-4.579s-2.052-4.581-4.581-4.581c-2.53 0-4.581 2.051-4.581 4.581"/><ellipse cx="4.5809999" fill="none" stroke="#231f20" stroke-width="2" rx="4.5799999" ry="4.5809999" transform="matrix(0 1 1 0 15.4996 35.9024997)"/><path fill="#fff" fill-rule="nonzero" d="M13.0456 40.4829997c0 1.355 1.099 2.454 2.454 2.454 1.355 0 2.454-1.099 2.454-2.454 0-1.355-1.099-2.454-2.454-2.454-1.355 0-2.454 1.099-2.454 2.454"/><circle cx="2.454" r="2.454" fill="none" stroke="#231f20" stroke-width=".5" transform="matrix(0 1 1 0 15.4996 38.0289997)"/><path fill="#fff" fill-rule="nonzero" d="M38.7513 40.7843997c0 1.478 1.198 2.676 2.676 2.676 1.478 0 2.676-1.198 2.676-2.676 0-1.478-1.198-2.676-2.676-2.676-1.478 0-2.676 1.198-2.676 2.676"/><circle cx="2.6760001" r="2.6760001" fill="none" stroke="#231f20" stroke-width=".5" transform="matrix(0 1 1 0 41.4273 38.1083997)"/><path fill="#fff" fill-rule="nonzero" d="m57.4953 39.1983997-2.075 4.387h-7.471v-4.217l-3.735-3.853h-6.048l-2.935 2.934v5.255h-12.883v-4.399l-4.15-4.15h-6.344l-1.69 1.69v6.533h-3.305v-8.901l4.939-5.948 38.804 3.554z"/><path fill="#231f20" fill-rule="nonzero" d="M56.5087 39.3614997c-2.27-2.184-4.461-4.344-6.624-6.582l.627.3-38.804-3.554.86-.357-4.939 5.948.23-.639v8.901l-1-1h3.306l-1 1 .5-6.533.017-.225 1.965-1.965h6.759l.146.146 4.15 4.151.12.12.027.233.5 4.399-1-1h12.883l-1 1 .5-5.255.022-.229 3.206-3.206h6.466l.148.152 3.735 3.854.113.118.028.23.5 4.217-1-1h7.47l-.904.573c.608-1.293 1.267-2.521 1.993-3.797m1.973-.326c-.657 1.649-1.381 3.345-2.158 4.978l-.272.572h-9.221l.119-1 .5-4.217.141.348-3.736-3.854.359.152h-6.047l.353-.146-2.934 2.935.146-.354.5 5.255.095 1h-15.092l.114-1 .5-4.399.146.354-4.15-4.15.354.146h-6.344l.353-.146-1.69 1.689.147-.353.5 6.533.076 1h-5.382v-10.262l.231-.278 4.94-5.948.336-.405.524.048 38.804 3.554.369.034.258.266c2.433 2.506 4.836 5.088 7.161 7.648"/><path fill="none" stroke="#231f20" stroke-width=".5" d="m56.0773 37.7346997-2.762 3.861h-5.366m7.47087857 1.99027659-2.10518617-1.99017527M35.2316 41.5959997h-12.883M9.17669316 31.84199764l41.42529576.24199578"/><path fill="#231f20" fill-rule="nonzero" d="M39.0465 35.5149997h-5.158l-3.565-3.389.345-.362 3.564 3.389-.344-.138h5.158Z"/></svg>