<svg viewBox="0 0 300 338" xmlns="http://www.w3.org/2000/svg" fill-rule="evenodd" clip-rule="evenodd" stroke-miterlimit="10"><g transform="translate(0 .375) scale(4.16667)"><path fill="none" d="M0 0h72v81H0z"/><clipPath id="prefix__a"><path d="M0 0h72v81H0z"/></clipPath><g clip-path="url(#prefix__a)"><path d="M36 76.5l31.177-18v-36L36 4.5l-31.177 18v36L36 76.5z" fill="#7f5a90" fill-rule="nonzero" opacity=".3"/><clipPath id="prefix__b"><path d="M4.823 22.5v36L36 76.5l31.177-18v-36L36 4.5l-31.177 18z" clip-rule="nonzero"/></clipPath><g clip-path="url(#prefix__b)"><path d="M34.855 19.236l6.711 8.045-11.78 9.828c-2.508 2.66-2.46 6.863.14 9.464a6.803 6.803 0 009.465.14l9.828-11.78 8.045 6.712-10 11.988c-.1.12-.208.237-.319.348-6.734 6.735-17.693 6.735-24.427 0-6.734-6.734-6.734-17.692.001-24.426.111-.111.227-.217.348-.318l11.988-10.001z" fill="#fff" fill-rule="nonzero" stroke="#231f20" stroke-width="2"/><path fill="#fff" d="M53.736 45.094l2.824-3.385-7.277-6.071-2.824 3.385z"/><path d="M49.22 34.934l-3.466 4.153 8.05 6.706 3.46-4.148-8.045-6.712zm.126 1.408l6.51 5.43-2.18 2.614-6.513-5.428 2.183-2.616z" fill="#231f20" fill-rule="nonzero"/><path fill="#fff" d="M37.483 30.038l3.38-2.82-6.072-7.278-3.38 2.82z"/><path d="M34.855 19.236l-4.149 3.46 6.707 8.05 4.153-3.465-6.71-8.045zm-.127 1.408l5.43 6.51-2.617 2.183-5.427-6.512 2.614-2.181z" fill="#231f20" fill-rule="nonzero"/><path fill="#7f5a90" d="M53.736 45.094l2.824-3.385-7.277-6.071-2.824 3.385z" opacity=".3"/><path d="M49.22 34.934l-3.466 4.153 8.05 6.706 3.46-4.148-8.045-6.712zm.126 1.408l6.51 5.43-2.18 2.614-6.513-5.428 2.183-2.616z" fill="#231f20" fill-rule="nonzero"/><path fill="#7f5a90" d="M37.483 30.038l3.38-2.82-6.072-7.278-3.38 2.82z" opacity=".3"/><path d="M34.855 19.236l-4.149 3.46 6.707 8.05 4.153-3.465-6.71-8.045zm-.127 1.408l5.43 6.51-2.617 2.183-5.427-6.512 2.614-2.181z" fill="#231f20" fill-rule="nonzero"/></g><g><path d="M67.177 58.5v-36L36 4.5l-31.177 18v36L36 76.5l31.177-18z" fill="none" stroke="#231f20" stroke-width="2"/></g></g></g></svg>