<svg xmlns="http://www.w3.org/2000/svg" xmlns:svg="http://www.w3.org/2000/svg" fill-rule="evenodd" stroke-miterlimit="10" clip-rule="evenodd" viewBox="0 0 64.353996 74.309402" xml:space="preserve"><g transform="translate(-3.8229 -3.3453003)"><clipPath id="a"><path d="M4.823 22.5v36L36 76.5l31.177-18v-36L36 4.5Z" clip-rule="nonzero"/></clipPath><g clip-path="url(#a)"><path fill="#3f7faa" fill-rule="nonzero" d="M67.1769 58.5v-36l-31.177-18-31.177 18v36l31.177 18z" opacity=".3"/><path fill="#9aa3ad" fill-rule="nonzero" d="M41.7988 53.1145c-1.267.39-2.533.78-3.8 1.17l-.05-.14-.45-1.22-1.83.21h-.02l2.8-1.52c.28-.15.59-.24.91-.26h.14c.212.002.46.032.723.122 1.05.362 1.484 1.401 1.577 1.638" opacity=".3"/><path fill="#231f20" fill-rule="nonzero" d="M41.3486 52.897c-.069.09-.084.259-.039.356l-.023-.042-.045-.086-.097-.169c-.063-.113-.141-.215-.211-.321-.145-.208-.315-.39-.508-.539-.368-.294-.94-.441-1.429-.342-.25.039-.503.164-.798.292l-.846.369-1.703.719h-.001v.001h.02v-.001l1.829-.209h.001l.5 1.359c1.225-.556 2.289-1.044 3.35-1.387m.9.435c-1.472.437-2.941.729-4.25.953v-.001l-.5-1.359h-.001l-1.829.209v.001h-.02v-.001h.001l1.531-1.036.771-.509c.245-.159.518-.368.866-.481.694-.24 1.439-.166 2.108.188.33.173.608.424.837.701.116.138.209.291.296.445.044.077.081.158.115.24l.05.124.022.064c.059.132.058.336.003.462"/><path fill="#9aa3ad" fill-rule="nonzero" d="m37.2787 56.1145 1.14-.68-.42-1.15 3.52-1.1c.09-.03.19-.05.28-.07 1.46-.31 2.95.44 3.53 1.84Z" opacity=".3"/><path fill="#231f20" fill-rule="nonzero" d="M37.2787 56.1145c1.42-.218 2.83-.49 4.154-.794 1.327-.303 2.575-.599 3.825-.861l-.391.686-.002-.003c-.54-1.028-1.649-1.668-2.819-1.554-.267.018-.599.102-.945.185-.341.07-.679.149-1.023.208-.686.124-1.373.244-2.079.303l.42 1.15zm0 0 1.14-.68-.42-1.15c.614-.353 1.245-.646 1.878-.934.316-.147.637-.274.956-.41.314-.118.635-.273 1.053-.356.786-.162 1.646-.051 2.359.354.719.389 1.294 1.053 1.544 1.82l.002.005.242.63-.633.056c-1.433.125-2.869.216-4.225.299-1.359.083-2.633.197-3.896.366"/><path fill="#9aa3ad" fill-rule="nonzero" d="M48.0287 56.7145c0 .27-.18.5-.44.57l-.86.26c-.37-.14-.77-.22-1.18-.22-.08 0-.15.01-.22.01l-2.64.16-4.2.95c-1.42-.17-2.83-.34-4.25-.51.02-.01.03-.02.05-.03l2.99-1.79 8.05-1.16.37-.05c.24-.02.73-.02 1.25.25.23.11.64.32.89.81.14.27.18.54.19.75" opacity=".3"/><path fill="#231f20" fill-rule="nonzero" d="M47.5477 56.7259c-.022-.365-.186-.692-.464-.9-.122-.1-.338-.203-.518-.279-.178-.065-.362-.121-.555-.138-.315-.034-.905.063-1.367.096l-1.47.141c-1.96.19-3.925.342-5.895.469l-.003.002-2.987 1.788-.05.03 4.25.51.004-.002 4.139-1.199.006-.001.036-.005 2.033-.245c.345-.034.66-.098 1.057-.101.386.002.772.067 1.142.185l-.322-.011.003-.001.809-.234c.134-.038.084-.026.123-.05.016-.013.027-.049.029-.055m.962-.023c.003.273-.089.514-.255.712-.14.192-.453.332-.588.359l-.79.248-.003.001-.193.048-.129-.059c-.265-.121-.549-.206-.84-.243-.282-.034-.644-.014-.977-.019l-2.03.001.041-.006-4.253.699-.004.001-4.25-.51.05-.03 2.987-1.788.003-.002c1.925-.435 3.855-.844 5.79-1.216l1.451-.279.725-.14.378-.069c.167-.021.305-.021.458-.015.297.017.599.073.876.193.268.123.502.232.763.445.502.403.786 1.051.79 1.669"/><path fill="#fff" fill-rule="nonzero" d="m26.9142 58.9201 4.451-.141c1.036-.032 2.045-.329 2.934-.861l4.13-2.473-.473-1.288-.447-1.219-7.458.866-1.637-.87c-2.039-1.083-4.364-1.496-6.651-1.178l-.135.018c-4.729.656-9.372 1.737-13.888 3.231-1.668.552-2.987.989-2.987.989l.768 9.657 3.792-2.08c2.792-1.532 5.807-2.617 8.935-3.217l9.46 4.266.778-.022c4.68-.135 9.316-.948 13.763-2.413 2.107-.695 4.215-1.389 6.322-2.083.158-.052.245-.22.196-.378-.456-1.49-1.873-2.473-3.428-2.378l-2.639.16-4.202.949c-1.418-.168-2.836-.336-4.255-.504"/><path fill="#231f20" fill-rule="nonzero" d="M26.9142 58.9201c1.022-.247 2.046-.449 3.07-.646l1.514-.275c.445-.097.865-.26 1.256-.452.404-.181.786-.284 1.201-.552l1.325-.793 2.65-1.587.002-.001-.412 1.165-.949-2.494-.001-.002 1.054.649-7.458.863c-.209.024-.41-.018-.583-.11l-1.45-.771c-.473-.253-.899-.455-1.373-.632-.932-.35-1.917-.559-2.911-.618-1.001-.072-1.957.068-3.061.238-1.069.161-2.134.346-3.196.552-2.122.413-4.228.914-6.309 1.502-2.076.577-4.129 1.294-6.219 1.977l.676-1.018.765 9.657-1.459-.787c1.793-.96 3.484-1.962 5.383-2.892 1.881-.896 3.851-1.605 5.872-2.114.505-.124 1.012-.244 1.524-.342l.191-.039.024-.005.018-.003c.265.03-.584-.071.595.069l.043.019.087.039.345.156.69.311 2.759 1.246 5.519 2.491.015.006-.431-.086c2.404-.045 4.753-.242 7.102-.63 2.342-.383 4.656-.943 6.915-1.672l3.447-1.132 2.589-.852.431-.142.094-.031c-.077.027-.152.07-.216.124-.127.109-.209.262-.228.429-.01.083-.004.169.017.248.012.042-.013-.032-.017-.043-.02-.05-.033-.103-.056-.152-.043-.099-.089-.196-.144-.288-.11-.185-.242-.357-.396-.509-.312-.296-.7-.52-1.121-.614-.209-.049-.425-.076-.641-.064l-.884.05-1.814.11.155-.022-4.177.943-.024.005-.084.019c-.082.018-.167.016-.244-.001l-4.197-.985c-.262-.061-.425-.323-.364-.585.053-.226.255-.378.477-.376l4.312.022-.327.018.024-.006 4.177-.944c.05-.011.106-.018.155-.022l1.814-.11.93-.054c.388-.019.781.026 1.16.114.762.175 1.464.572 2.027 1.11.278.274.519.584.718.92.1.168.184.344.261.523.04.09.068.183.102.274l.056.173c.041.151.053.314.034.473-.037.317-.194.612-.437.82-.121.104-.264.185-.412.236l-.122.04-.431.143-.863.284-1.725.569-3.457 1.138c-2.351.761-4.759 1.346-7.197 1.747-2.432.405-4.923.614-7.363.661h-.009c-.149.003-.295-.03-.422-.087l-.014-.006-5.521-2.488-3.45-1.555-.345-.155-.087-.039-.043-.02c1.176.138.323.039.584.07l-.017.003-.023.005-.179.036c-.48.093-.955.206-1.429.322-1.894.479-3.741 1.144-5.504 1.986-1.727.844-3.517 1.897-5.281 2.844l-.008.004c-.48.258-1.079.078-1.337-.403-.065-.122-.103-.258-.114-.388l-.771-9.657c-.038-.463.253-.879.676-1.018 2.072-.679 4.157-1.409 6.301-2.007 2.134-.604 4.293-1.119 6.47-1.544 1.088-.212 2.181-.403 3.277-.568 1.057-.165 2.284-.347 3.475-.259 1.193.07 2.375.32 3.493.739.553.203 1.118.473 1.61.737l1.451.771-.583-.11 7.457-.868.012-.001c.465-.055.892.226 1.042.649l.001.002.89 2.516.004.01c.157.443-.027.923-.415 1.155h-.002l-2.65 1.588-1.325.793c-.459.278-1.011.626-1.587.761-.588.127-1.188.159-1.77.124-.563-.051-1.047-.101-1.574-.171-1.035-.132-2.069-.269-3.105-.451"/><path fill="#9aa3ad" fill-rule="nonzero" d="M30.1986 27.7369c1.267-.39 2.533-.78 3.8-1.17l.05.14.45 1.22 1.83-.21h.02l-2.8 1.52c-.28.15-.59.24-.91.26h-.14c-.212-.002-.46-.032-.723-.122-1.05-.362-1.484-1.401-1.577-1.638" opacity=".3"/><path fill="#231f20" fill-rule="nonzero" d="M30.6489 27.9545c.069-.09.084-.259.039-.356l.023.042.045.086.097.169c.063.113.141.215.211.321.145.208.315.39.508.539.368.294.94.441 1.429.342.25-.039.503-.164.798-.292l.846-.369 1.703-.719h.001-.02l-1.83.209-.5-1.359c-1.225.556-2.289 1.044-3.35 1.387m-.9-.435c1.472-.437 2.941-.729 4.25-.953v.001l.5 1.359 1.83-.209h.02-.001l-1.531 1.036-.771.509c-.245.159-.518.368-.866.481-.695.24-1.439.166-2.108-.188-.33-.173-.608-.424-.837-.701-.116-.138-.209-.291-.296-.445-.044-.077-.081-.158-.115-.24l-.05-.124-.022-.064c-.059-.132-.058-.336-.003-.462"/><path fill="#9aa3ad" fill-rule="nonzero" d="m34.7187 24.7369-1.14.68.42 1.15-3.52 1.1c-.09.03-.19.05-.28.07-1.46.31-2.95-.44-3.53-1.84Z" opacity=".3"/><path fill="#231f20" fill-rule="nonzero" d="M34.7187 24.7369c-1.42.218-2.83.49-4.154.794-1.327.303-2.575.599-3.825.861l.391-.686.002.003c.54 1.028 1.649 1.668 2.819 1.554.267-.018.599-.102.945-.185.341-.07.679-.149 1.023-.208.686-.124 1.373-.244 2.079-.303l-.42-1.15zm0 0-1.14.68.42 1.15c-.614.353-1.245.646-1.878.934-.316.147-.637.274-.956.41-.314.118-.635.273-1.053.356-.786.162-1.646.051-2.359-.354-.719-.389-1.294-1.053-1.544-1.82l-.002-.005-.242-.63.633-.056c1.433-.125 2.869-.216 4.225-.299 1.359-.083 2.633-.197 3.896-.366"/><path fill="#9aa3ad" fill-rule="nonzero" d="M23.9687 24.1369c0-.27.18-.5.44-.57l.86-.26c.37.14.77.22 1.18.22.08 0 .15-.01.22-.01l2.64-.16 4.2-.95c1.42.17 2.83.34 4.25.51-.02.01-.03.02-.05.03l-2.99 1.79-8.05 1.16-.37.05c-.24.02-.73.02-1.25-.25-.23-.11-.64-.32-.89-.81-.14-.27-.18-.54-.19-.75" opacity=".3"/><path fill="#231f20" fill-rule="nonzero" d="M24.4497 24.1256c.022.365.186.692.464.9.122.1.338.203.518.279.178.065.362.121.555.138.315.033.905-.063 1.367-.096l1.47-.141c1.96-.19 3.925-.342 5.895-.469l.003-.002 2.987-1.788.05-.03-4.25-.51-.004.002-4.139 1.199-.006.001-.036.005-2.033.245c-.345.034-.66.098-1.057.101-.386-.002-.772-.067-1.142-.185l.322.011-.003.001-.809.234c-.134.038-.084.026-.123.05-.016.013-.027.049-.029.055m-.962.023c-.003-.273.089-.514.255-.712.14-.192.453-.332.589-.359l.789-.248.003-.001.193-.048.129.059c.265.121.549.206.84.243.282.034.644.014.977.019l2.03-.001-.041.006 4.253-.699.004-.001 4.25.51-.05.03-2.987 1.788-.003.002c-1.925.435-3.855.844-5.79 1.216l-1.451.279-.725.14-.378.069c-.167.021-.305.021-.458.015-.297-.017-.599-.073-.876-.193-.268-.123-.502-.232-.763-.445-.502-.403-.786-1.051-.79-1.669"/><path fill="#fff" fill-rule="nonzero" d="m45.0831 21.9313-4.451.141c-1.036.032-2.045.329-2.934.861l-4.13 2.473.473 1.288.447 1.219 7.458-.866 1.637.87c2.039 1.083 4.364 1.496 6.651 1.179l.135-.019c4.729-.656 9.372-1.737 13.888-3.231 1.668-.552 2.987-.989 2.987-.989l-.768-9.657-3.792 2.08c-2.792 1.532-5.807 2.617-8.935 3.217l-9.46-4.266-.778.022c-4.68.135-9.316.948-13.763 2.413-2.107.695-4.215 1.389-6.322 2.083-.158.052-.245.22-.196.378.456 1.49 1.873 2.473 3.428 2.378l2.639-.16 4.202-.949c1.418.168 2.836.336 4.255.504"/><path fill="#231f20" fill-rule="nonzero" d="M45.0831 21.9313c-1.022.247-2.046.449-3.07.646l-1.514.275c-.445.097-.865.26-1.256.452-.404.181-.786.284-1.201.552l-1.325.793-2.65 1.587-.002.001.412-1.165.949 2.494.001.002-1.054-.649 7.458-.863c.209-.024.41.018.583.11l1.45.771c.473.253.899.455 1.373.632.932.35 1.917.559 2.911.618 1.001.072 1.957-.068 3.061-.238 1.069-.161 2.134-.346 3.196-.552 2.122-.413 4.228-.914 6.309-1.502 2.076-.577 4.129-1.294 6.219-1.977l-.676 1.018-.765-9.657 1.459.787c-1.793.96-3.484 1.962-5.383 2.892-1.881.896-3.851 1.605-5.871 2.114-.506.124-1.013.244-1.525.342l-.191.039-.024.005-.018.003c-.265-.03.584.071-.595-.069l-.043-.019-.087-.039-.345-.156-.69-.311-2.759-1.246-5.519-2.491-.014-.006.43.086c-2.404.045-4.753.242-7.102.63-2.342.383-4.656.943-6.915 1.672l-3.447 1.132-2.589.852-.431.142-.094.031c.077-.027.152-.07.216-.124.127-.109.209-.262.228-.429.01-.083.004-.169-.017-.248-.012-.042.013.032.017.043.02.05.033.103.056.152.043.099.089.196.144.288.11.185.242.357.396.509.312.296.7.52 1.121.614.209.049.425.077.641.064l.884-.05 1.814-.109-.155.021 4.177-.943.024-.005.084-.019c.082-.018.167-.016.244.001l4.197.985c.262.061.425.323.364.585-.053.226-.255.378-.477.377l-4.312-.023.327-.017-.024.005-4.177.944c-.05.011-.106.018-.155.022l-1.814.11-.93.054c-.388.019-.781-.026-1.16-.114-.762-.175-1.464-.572-2.027-1.11-.278-.274-.519-.584-.718-.92-.1-.168-.184-.344-.261-.523-.04-.09-.068-.183-.102-.274l-.056-.173c-.041-.151-.053-.314-.034-.473.037-.317.194-.612.437-.82.121-.104.264-.185.412-.236l.122-.04.431-.143.863-.284 1.725-.569 3.457-1.138c2.351-.761 4.759-1.346 7.197-1.747 2.432-.405 4.923-.614 7.363-.661h.009c.149-.003.295.03.422.087l.014.006 5.521 2.488 3.45 1.555.345.155.087.039.043.02c-1.176-.138-.323-.039-.584-.07l.017-.003.023-.005.179-.036c.48-.093.955-.206 1.429-.322 1.894-.479 3.741-1.144 5.504-1.986 1.727-.844 3.517-1.897 5.281-2.844l.008-.004c.48-.258 1.079-.078 1.337.403.065.122.103.258.114.388l.771 9.657c.038.463-.253.879-.676 1.018-2.072.679-4.157 1.409-6.301 2.007-2.134.604-4.293 1.119-6.47 1.544-1.088.212-2.181.403-3.277.568-1.057.165-2.284.347-3.475.259-1.193-.07-2.375-.32-3.493-.739-.553-.203-1.118-.473-1.61-.737l-1.451-.771.583.11-7.457.868-.012.001c-.465.055-.892-.226-1.042-.649l-.001-.002-.89-2.516-.004-.01c-.157-.443.027-.923.415-1.154l.002-.001 2.65-1.587 1.325-.794c.459-.278 1.011-.626 1.587-.761.588-.127 1.188-.159 1.77-.124.563.051 1.047.101 1.574.171 1.035.132 2.069.269 3.105.451"/><path fill="#fff" fill-rule="nonzero" d="M36.0491 47.0254c-.016.011-.032.021-.049.032-.016-.011-.033-.021-.049-.032-4.965-3.213-7.887-7.153-7.119-9.926.501-1.807 1.898-2.623 1.898-2.623 1.057-.617 2.541-.761 3.796-.1.807.426 1.259 1.061 1.474 1.424.215-.363.667-.999 1.473-1.424 1.758-.926 3.596-.004 3.797.1 0 0 1.397.816 1.898 2.623.768 2.773-2.154 6.713-7.119 9.926"/><path fill="none" stroke="#231f20" d="M36.0491 47.0254c-.016.011-.032.021-.049.032-.016-.011-.033-.021-.049-.032-4.965-3.213-7.887-7.153-7.119-9.926.501-1.807 1.898-2.623 1.898-2.623 1.057-.617 2.541-.761 3.796-.1.807.426 1.259 1.061 1.474 1.424.215-.363.667-.999 1.473-1.424 1.758-.926 3.596-.004 3.797.1 0 0 1.397.816 1.898 2.623.768 2.773-2.154 6.713-7.119 9.926Z"/></g></g><path fill="none" stroke="#231f20" stroke-width="2" d="M63.354 55.1546997v-36l-31.177-18-31.177 18v36l31.177 18z"/></svg>