<svg xmlns="http://www.w3.org/2000/svg" xmlns:svg="http://www.w3.org/2000/svg" fill-rule="evenodd" stroke-linecap="round" stroke-linejoin="round" stroke-miterlimit="10" clip-rule="evenodd" viewBox="0 0 64.353996 74.309402" xml:space="preserve"><g transform="translate(-3.8229 -3.3453003)"><clipPath id="a"><path d="M4.823 22.5v36L36 76.5l31.177-18v-36L36 4.5Z" clip-rule="nonzero"/></clipPath><g clip-path="url(#a)"><path fill="#3f7faa" fill-rule="nonzero" d="M67.1769 58.3236v-36l-31.177-18-31.177 18v36l31.177 18z" opacity=".3"/><path fill="#fff" fill-rule="nonzero" stroke="#231f20" stroke-width="2" d="M39.3504 35.441v-6.845c-.216-1.834-1.55-12.861-3.35-12.861-1.801.001-3.129 11.027-3.343 12.861v6.845l-1.98 5.297v21.324h.854v1.414c0 .988.801 1.789 1.788 1.789h5.361c.988 0 1.788-.801 1.788-1.789v-1.414h.854V40.738Z"/><path fill="none" stroke="#231f20" d="M30.6773 40.7382h10.645m-8.6654-5.2972h6.693"/><path fill="#231f20" fill-rule="nonzero" d="M31.5312 61.062h8.938c.276 0 .5.224.5.5s-.224.5-.5.5h-8.938c-.276 0-.5-.224-.5-.5s.224-.5.5-.5"/><path fill="#fff" fill-rule="nonzero" stroke="#231f20" stroke-width="2" d="M52.714 36.3955v-5.553c-.175-1.488-1.257-10.435-2.718-10.435-1.461.001-2.538 8.946-2.713 10.435v5.553l-1.606 4.298v17.3h.693v1.148c0 .801.65 1.451 1.451 1.451h4.349c.802 0 1.451-.65 1.451-1.451v-1.148h.693v-17.3z"/><path fill="none" stroke="#231f20" d="M45.6773 40.6933h8.637m-7.0309-4.2978h5.431"/><path fill="#231f20" fill-rule="nonzero" d="M46.3701 56.9939h7.251c.276 0 .5.224.5.5s-.224.5-.5.5h-7.251c-.276 0-.5-.224-.5-.5s.224-.5.5-.5"/><path fill="#fff" fill-rule="nonzero" stroke="#231f20" stroke-width="2" d="M24.714 36.3955v-5.553c-.175-1.488-1.257-10.435-2.718-10.435-1.461.001-2.538 8.946-2.713 10.435v5.553l-1.606 4.298v17.3h.693v1.148c0 .801.65 1.451 1.451 1.451h4.349c.802 0 1.451-.65 1.451-1.451v-1.148h.693v-17.3z"/><path fill="none" stroke="#231f20" d="M17.6773 40.6933h8.637m-7.0309-4.2978h5.431"/><path fill="#231f20" fill-rule="nonzero" d="M18.3701 56.9939h7.251c.276 0 .5.224.5.5s-.224.5-.5.5h-7.251c-.276 0-.5-.224-.5-.5s.224-.5.5-.5"/></g></g><path fill="none" stroke="#231f20" stroke-linecap="butt" stroke-linejoin="miter" stroke-width="2" d="M63.354 55.1546997v-36l-31.177-18-31.177 18v36l31.177 18z"/></svg>