<svg viewBox="0 0 300 338" xmlns="http://www.w3.org/2000/svg" fill-rule="evenodd" clip-rule="evenodd" stroke-miterlimit="10"><g transform="translate(0 .44) scale(4.16667)"><path fill="none" d="M0 0h72v81H0z"/><clipPath id="prefix__a"><path d="M0 0h72v81H0z"/></clipPath><g clip-path="url(#prefix__a)"><clipPath id="prefix__b"><path d="M5.495 22.5v36L36 76.5l30.506-18v-36L36 4.5l-30.505 18z" clip-rule="nonzero"/></clipPath><g clip-path="url(#prefix__b)"><path d="M66.506 58.5v-36L36 4.5l-30.505 18v36L36 76.5l30.506-18z" fill="#3d8b8a" fill-rule="nonzero" opacity=".3"/><path d="M55.778 38.015l-.577 12.14a6.916 6.916 0 01-2.084 4.65 6.641 6.641 0 01-4.648 1.9l-1.928 18.03h-9.06l1.458-13.72c1.8 0 3.444-.72 4.647-1.9a6.932 6.932 0 002.084-4.65l.588-12.14c.205-4.4-3.229-8.09-7.545-8.09h-7.475c2.798 0 5.176-1.79 6.096-4.31.117-.28.196-.56.254-.85.118-.49.176-.99.176-1.51 0-2.5-1.35-4.68-3.346-5.82.665-2.95 3.258-5.16 6.35-5.16 3.601 0 6.527 2.99 6.527 6.67 0 3.68-2.926 6.67-6.527 6.67h7.466c4.315 0 7.759 3.69 7.544 8.09" fill="#fff" fill-rule="nonzero"/><path d="M34.413 21.745c.665-2.95 3.258-5.16 6.35-5.16 3.601 0 6.527 2.99 6.527 6.67 0 3.68-2.926 6.67-6.527 6.67-1.154 0-2.24-.31-3.18-.85" fill="none" stroke="#231f20" stroke-width="2"/><path d="M37.329 29.925h10.9c4.315 0 7.759 3.69 7.544 8.09l-.577 12.14a6.916 6.916 0 01-2.084 4.65 6.641 6.641 0 01-4.648 1.9l-1.928 18.03h-9.06" fill="none" stroke="#231f20" stroke-width="2"/><path d="M37.76 27.565c0 .52-.06 1.02-.176 1.51-.06.29-.137.57-.255.85-.92 2.52-3.297 4.31-6.095 4.31-1.468 0-2.81-.5-3.895-1.34h-.01a6.69 6.69 0 01-2.612-5.33c0-3.68 2.916-6.67 6.517-6.67 1.164 0 2.24.31 3.18.85a6.687 6.687 0 013.346 5.82" fill="#aec5c6" fill-rule="nonzero" opacity=".4"/><path d="M37.76 27.565c0 .52-.06 1.02-.176 1.51-.06.29-.137.57-.255.85-.92 2.52-3.297 4.31-6.095 4.31-1.468 0-2.81-.5-3.895-1.34h-.01a6.69 6.69 0 01-2.612-5.33c0-3.68 2.916-6.67 6.517-6.67 1.164 0 2.24.31 3.18.85a6.687 6.687 0 013.346 5.82z" fill="none" stroke="#231f20" stroke-linecap="round" stroke-linejoin="round"/><path d="M46.253 42.325l-.587 12.14a6.937 6.937 0 01-2.084 4.65 6.623 6.623 0 01-4.648 1.9l-1.458 13.72-.46 4.31H25.46l-1.927-18.03c-3.591 0-6.546-2.88-6.722-6.55l-.587-12.14c-.206-4.4 3.229-8.09 7.544-8.09h14.94c4.316 0 7.75 3.69 7.545 8.09" fill="#aec5c6" fill-rule="nonzero" opacity=".4"/><path d="M46.253 42.325l-.587 12.14a6.937 6.937 0 01-2.084 4.65 6.623 6.623 0 01-4.648 1.9l-1.458 13.72-.46 4.31H25.46l-1.927-18.03c-3.591 0-6.546-2.88-6.722-6.55l-.587-12.14c-.206-4.4 3.229-8.09 7.544-8.09h14.94c4.316 0 7.75 3.69 7.545 8.09z" fill="none" stroke="#231f20" stroke-linecap="round" stroke-linejoin="round"/></g><g><path d="M66.506 58.5v-36L36 4.5l-30.505 18v36L36 76.5l30.506-18z" fill="none" stroke="#231f20" stroke-width="2"/></g></g></g></svg>