<svg xmlns="http://www.w3.org/2000/svg" xmlns:svg="http://www.w3.org/2000/svg" fill-rule="evenodd" stroke-miterlimit="10" clip-rule="evenodd" viewBox="0 0 64.353996 74.309402" xml:space="preserve"><path fill="#3d8b8a" fill-rule="nonzero" d="M63.354 55.1546997v-36l-31.177-18-31.177 18v36l31.177 18z" opacity=".3"/><g transform="translate(-3.8229 -3.3453003)"><clipPath id="a"><path d="M4.823 22.5v36L36 76.5l31.177-18v-36L36 4.5Z" clip-rule="nonzero"/></clipPath><g clip-path="url(#a)"><ellipse cx="-24.940001" fill="none" stroke="#000" rx="24.941" ry="24.940001" transform="matrix(0 -1 -1 0 36.0001 15.5595)"/><circle cx="-18.705999" r="18.705" fill="none" stroke="#000" transform="matrix(0 -1 -1 0 35.9999 21.7945)"/><ellipse cx="-12.471" fill="none" stroke="#000" rx="12.47" ry="12.471" transform="matrix(0 -1 -1 0 35.9998 28.0295)"/><path fill="#fff" fill-rule="nonzero" d="M41.7238 36.66c-1.558 0-2.821-1.295-2.821-2.893 0-1.598 1.263-2.894 2.821-2.894 1.558 0 2.821 1.296 2.821 2.894s-1.263 2.893-2.821 2.893m18.63-.203c-.582-3.336-1.645-9.427-6.876-12.478-3.796-2.214-8.953-2.341-12.518-.181-2.873 1.741-2.91 3.874-6.347 6.149-2.81 1.859-5.728 2.381-7.757 2.532-3.362 1.833-6.724 3.667-10.086 5.5l-.243 8.232c1.563-1.141 3.125-2.283 4.687-3.424h13.752c-3.291 2.712-6.582 5.425-9.873 8.138.764.602 1.527 1.205 2.291 1.808 2.977-.66 5.954-1.321 8.931-1.981 1.396-3.222 4.523-4.878 7.094-4.203 3.048.8 4.352 4.625 4.098 7.275-.41 4.272-4.831 5.094-7.075 9.305-1.604 3.009-2.266 8.065 2.018 17.031 1.368-.099 2.739-.201 4.111-.305 7.002-.534 13.937-1.128 20.807-1.779-11.456-7.154-13.832-12.547-13.556-16.33.277-3.816 3.178-4.929 5.359-12.126.804-2.651 2.188-7.403 1.183-13.163"/><path fill="none" stroke="#000" stroke-width="2" d="M41.7238 36.66c-1.558 0-2.821-1.295-2.821-2.893 0-1.598 1.263-2.894 2.821-2.894 1.558 0 2.821 1.296 2.821 2.894s-1.263 2.893-2.821 2.893zm18.63-.203c-.582-3.336-1.645-9.427-6.876-12.478-3.796-2.214-8.953-2.341-12.518-.181-2.873 1.741-2.91 3.874-6.347 6.149-2.81 1.859-5.728 2.381-7.757 2.532-3.362 1.833-6.724 3.667-10.086 5.5l-.243 8.232c1.563-1.141 3.125-2.283 4.687-3.424h13.752c-3.291 2.712-6.582 5.425-9.873 8.138.764.602 1.527 1.205 2.291 1.808 2.977-.66 5.954-1.321 8.931-1.981 1.396-3.222 4.523-4.878 7.094-4.203 3.048.8 4.352 4.625 4.098 7.275-.41 4.272-4.831 5.094-7.075 9.305-1.604 3.009-2.266 8.065 2.018 17.031 1.368-.099 2.739-.201 4.111-.305 7.002-.534 13.937-1.128 20.807-1.779-11.456-7.154-13.832-12.547-13.556-16.33.277-3.816 3.178-4.929 5.359-12.126.804-2.651 2.188-7.403 1.183-13.163z"/></g></g><path fill="none" stroke="#000" stroke-width="2" d="M63.354 55.1546997v-36l-31.177-18-31.177 18v36l31.177 18z"/></svg>