<svg xmlns="http://www.w3.org/2000/svg" xmlns:svg="http://www.w3.org/2000/svg" fill-rule="evenodd" stroke-miterlimit="10" clip-rule="evenodd" viewBox="0 0 64.353996 74.309402" xml:space="preserve"><path fill="#3f7faa" fill-rule="nonzero" d="M63.354 55.1546997v-36l-31.177-18-31.177 18v36l31.177 18z" opacity=".3"/><path fill="none" stroke="#231f20" stroke-width="2" d="M63.354 55.1546997v-36l-31.177-18-31.177 18v36l31.177 18z"/><path fill="#fff" fill-rule="nonzero" d="m32.1771 36.9926997.06 21.242 18.484-10.672-.061-21.24Zm7.945-.364 2.879-1.662.009 2.9-2.88 1.662zm.015 5.114 2.88-1.662.008 2.903-2.879 1.663zm.015 5.117 2.879-1.663.008 2.901-2.879 1.662z"/><path fill="#231f20" fill-rule="nonzero" d="m40.15226953 46.85937996.00799997 2.9009884 2.87842454-1.66294372-.00799722-2.8999884zm-.01602013-5.11648858.00899997 2.90298548 2.8798609-1.6619359-.00799998-2.90298858Zm-.01367634-5.11380947.00799997 2.8999884 2.87942572-1.66194921-.00899996-2.89998565z"/><path fill="#fff" fill-rule="nonzero" d="m13.6335 47.5631997 18.483 10.671.061-21.241-18.484-10.671Zm7.835-7.222.008-2.905 2.88 1.663-.009 2.904Zm-.014 5.113.008-2.9 2.879 1.662-.008 2.901z"/><path fill="#231f20" fill-rule="nonzero" d="m21.45425063 45.45468402 2.8787502 1.66185707.00818166-2.90041975-2.87825024-1.66272312Zm.01456605-5.11350004 2.8787502 1.66185707.00844939-2.90488387-2.8787502-1.66185707Z"/><path fill="#fff" fill-rule="nonzero" d="m13.7532 26.3510997 18.482 10.67 18.366-10.673-18.483-10.67Zm15.719.052 2.511-1.459 2.881 1.664-2.511 1.459Z"/><path fill="#231f20" fill-rule="nonzero" d="m29.4716415 26.4032174 2.88209792 1.66405658 2.5109345-1.45896722-2.88209793-1.66405658Z"/><path fill="none" stroke="#231f20" d="m13.6339 26.4487997 18.573 10.706-.03 21.412"/><path fill="none" stroke="#231f20" stroke-width="2" d="M50.7203 47.8605997v-21.412l-18.543-10.706-18.543 10.706v21.412l18.543 10.706z"/><path fill="none" stroke="#231f20" d="m32.2073097 37.15454454 18.51237434-10.70563039"/></svg>