<svg xmlns="http://www.w3.org/2000/svg" xmlns:svg="http://www.w3.org/2000/svg" fill-rule="evenodd" stroke-miterlimit="10" clip-rule="evenodd" viewBox="0 0 64.353996 74.309402" xml:space="preserve"><g transform="translate(-3.8229 -3.3453003)"><clipPath id="a"><path d="M4.823 22.5v36L36 76.5l31.177-18v-36L36 4.5Z" clip-rule="nonzero"/></clipPath><g clip-path="url(#a)"><path fill="#40834f" fill-rule="nonzero" d="M67.1769 58.5v-36l-31.177-18-31.177 18v36l31.177 18z" opacity=".3"/></g></g><path fill="#fff" fill-rule="nonzero" d="m49.4013 42.3800997-5.297.108 4.221 3.2-1.534 5.072 4.349-3.027 4.35 3.027-1.535-5.072 4.222-3.2-5.297-.108-1.74-5.005z"/><path fill="none" stroke="#000" d="m51.1405 47.7335997-4.349 3.026 1.534-5.071-4.222-3.201 5.297-.108 1.74-5.004 1.74 5.004 5.297.108-4.222 3.201 1.534 5.071Z"/><path fill="#fff" fill-rule="nonzero" d="m11.4744 42.3800997-5.297.108 4.221 3.2-1.534 5.072 4.35-3.027 4.349 3.027-1.535-5.072 4.222-3.2-5.297-.108-1.739-5.005Z"/><path fill="none" stroke="#000" d="m13.2137 47.7335997-4.349 3.026 1.534-5.071-4.222-3.201 5.297-.108 1.74-5.004 1.74 5.004 5.297.108-4.222 3.201 1.534 5.071Z"/><g transform="translate(-3.8229 -3.3453003)"><clipPath id="b"><path d="M4.823 22.5v36L36 76.5l31.177-18v-36L36 4.5Z" clip-rule="nonzero"/></clipPath><g fill-rule="nonzero" clip-path="url(#b)"><path fill="#fff" d="M44.625 50.4404c-.2 0-.399-.06-.571-.179L36 44.6564l-8.054 5.605c-.172.119-.371.179-.571.179-.207 0-.413-.064-.588-.191-.344-.25-.493-.691-.369-1.099l2.841-9.391-7.819-5.928c-.339-.258-.478-.702-.347-1.106.132-.405.506-.682.931-.691l9.809-.2 3.223-9.268c.139-.402.518-.671.944-.671.426 0 .805.269.944.671l3.223 9.268 9.809.2c.425.009.799.286.931.691.131.404-.008.848-.347 1.106l-7.819 5.928 2.841 9.391c.124.408-.025.849-.369 1.099-.175.127-.381.191-.588.191"/><path d="M36 20.8949c-.851 0-1.61.539-1.889 1.343l-2.993 8.611-9.115.186c-.851.017-1.598.572-1.861 1.381-.263.81.015 1.698.694 2.212l7.264 5.508-2.639 8.725c-.247.815.049 1.697.738 2.197.35.255.763.382 1.176.382.399 0 .799-.119 1.142-.358L36 45.8749l7.483 5.207c.343.239.743.358 1.142.358.413 0 .825-.127 1.176-.382.689-.5.985-1.382.738-2.197l-2.639-8.725 7.264-5.508c.679-.514.957-1.402.694-2.212-.263-.809-1.01-1.364-1.861-1.381l-9.115-.186-2.993-8.611c-.279-.804-1.038-1.343-1.889-1.343m0 2 3.45 9.925 10.506.214-8.374 6.349 3.043 10.057L36 43.4389l-8.625 6.001 3.043-10.057-8.374-6.349 10.506-.214 3.45-9.925"/></g></g><path fill="none" stroke="#000" stroke-width="2" d="M63.354 55.1546997v-36l-31.177-18-31.177 18v36l31.177 18z"/></svg>