<svg viewBox="0 0 301 339" xmlns="http://www.w3.org/2000/svg" fill-rule="evenodd" clip-rule="evenodd" stroke-miterlimit="10"><g transform="translate(.5 .688) scale(4.16667)"><path fill="none" d="M0 0h72v81H0z"/><clipPath id="prefix__a"><path d="M0 0h72v81H0z"/></clipPath><g clip-path="url(#prefix__a)"><clipPath id="prefix__b"><path d="M4.823 21v36L36 75l31.177-18V21L36 3 4.823 21z" clip-rule="nonzero"/></clipPath><g clip-path="url(#prefix__b)"><path d="M67.177 57V21L36 3 4.823 21v36L36 75l31.177-18z" fill="#3f7faa" fill-rule="nonzero" opacity=".3"/><path d="M16.623 36.87l15.875-20.267 6.305 4.543 7.253 5.226 9.232 10.536a2.533 2.533 0 01-.388 3.698l-2.091 1.566L52.106 46a32.794 32.794 0 01-5.29 12.745l-.114 15.318-.615.229a28.484 28.484 0 01-20.405-.229l2.014-16.991-11.204-17.26a2.533 2.533 0 01.131-2.942z" fill="#fff" fill-rule="nonzero" stroke="#231f20" stroke-width="2"/><path d="M27.435 33.447l2.233 3.48-.555-.27 9.77-2.095-.396.489v-4.257l.298.457-13.052-5.24a1.001 1.001 0 01.745-1.857c.022.008.045.019.066.028l12.646 6.155.016.008a.498.498 0 01.28.449v4.257a.5.5 0 01-.394.489l-9.77 2.094-.054.012a.433.433 0 01-.501-.283l-1.332-3.916z" fill="#231f20" fill-rule="nonzero"/><path d="M53.35 43.004l-7.36 4.298-.026.015a.5.5 0 01-.63-.105l-3.166-3.675.17.13L29.012 37.6l.29.037-4.876.317 4.71-1.303a.369.369 0 01.25.02l.04.018 13.329 6.065a.515.515 0 01.17.13l3.168 3.674-.656-.09 6.807-5.13a1.002 1.002 0 111.108 1.665" fill="#231f20" fill-rule="nonzero"/><path d="M38.803 21.145l-4.777 7.449M46.056 26.371L35.793 40.018M51.872 32.998L42.547 43.21" fill="none" stroke="#231f20"/></g><g><path d="M67.177 57V21L36 3 4.823 21v36L36 75l31.177-18z" fill="none" stroke="#231f20" stroke-width="2"/></g></g></g></svg>