<svg viewBox="0 0 300 338" xmlns="http://www.w3.org/2000/svg" fill-rule="evenodd" clip-rule="evenodd" stroke-miterlimit="10"><g transform="translate(0 .06) scale(4.16667)"><path fill="none" d="M0 0h72v81H0z"/><clipPath id="prefix__a"><path d="M0 0h72v81H0z"/></clipPath><g clip-path="url(#prefix__a)"><path d="M67.177 58.5v-36L36 4.5l-31.177 18v36L36 76.5l31.177-18z" fill="#3f7faa" fill-rule="nonzero" opacity=".3"/><path d="M67.177 58.5v-36L36 4.5l-31.177 18v36L36 76.5l31.177-18z" fill="none" stroke="#231f20" stroke-width="2"/><path d="M53.47 41.07a53.933 53.933 0 01-8.643 11.623c-.143.142-.279.284-.419.424a53.752 53.752 0 01-8.56 6.959 53.095 53.095 0 01-7.539-6.143 53.757 53.757 0 01-9.837-13.111c-2.798-5.237-.823-11.753 4.413-14.551 4.506-2.408 9.958-1.285 13.177 2.41 3.267-3.642 8.726-4.691 13.192-2.222 5.198 2.87 7.087 9.413 4.215 14.61" fill="#fff" fill-rule="nonzero"/><path d="M53.47 41.07a53.933 53.933 0 01-8.643 11.623c-.143.142-.279.284-.419.424a53.752 53.752 0 01-8.56 6.959 53.095 53.095 0 01-7.539-6.143 53.757 53.757 0 01-9.837-13.111c-2.798-5.237-.823-11.753 4.413-14.551 4.506-2.408 9.958-1.285 13.177 2.41 3.267-3.642 8.726-4.691 13.192-2.222 5.198 2.87 7.087 9.413 4.215 14.61zM10.267 53.003h9.024M14.78 57.515v-9.024" fill="none" stroke="#231f20" stroke-width="2"/><path d="M38.26 16.288h4.508M40.514 18.541v-4.508M54.836 52.811h4.508M57.09 55.065v-4.508" fill="none" stroke="#231f20"/></g></g></svg>