<svg xmlns="http://www.w3.org/2000/svg" xmlns:svg="http://www.w3.org/2000/svg" fill-rule="evenodd" stroke-miterlimit="10" clip-rule="evenodd" viewBox="0 0 64.353996 74.309402" xml:space="preserve"><path fill="#495790" fill-rule="nonzero" d="M63.354 55.1546997v-36l-31.177-18-31.177 18v36l31.177 18z" opacity=".3"/><path fill="none" stroke="#000" stroke-width="2" d="M63.354 55.1546997v-36l-31.177-18-31.177 18v36l31.177 18z"/><path fill="#fff" fill-rule="nonzero" stroke="#000" stroke-width="2" d="m40.9677 39.1494997-5.699-27.346-.732-.069c-1.573-.146-3.146-.146-4.72 0l-.731.069-5.704 27.346-8.109 3.43v12.779l.467.425c2.424 2.091 5.186 3.687 8.205 4.73l.16.054h.004c.604.206 1.226.394 1.839.549l.151.037c1.976.494 4.02.741 6.078.741 2.095 0 4.176-.256 6.225-.778.663-.169 1.345-.37 2.013-.603 3.009-1.043 5.762-2.635 8.177-4.72.051-.046.11-.096.165-.142l.325-.297v-12.775Z"/><path fill="none" stroke="#000" d="m24.03199413 35.59179865 1.9059959 25.5249455m14.3942-25.5248889-1.9059959 25.5249455M35.525 38.7081997l-.947 12.623c-.546.18-1.36.38-2.361.386-1.036.005-1.876-.199-2.432-.381l-.947-12.628c.82-.249 2.022-.516 3.487-.497 1.327.016 2.423.26 3.2.497z"/></svg>