<svg xmlns="http://www.w3.org/2000/svg" xmlns:svg="http://www.w3.org/2000/svg" fill-rule="evenodd" stroke-miterlimit="10" clip-rule="evenodd" viewBox="0 0 64.353996 74.309402" xml:space="preserve"><g transform="translate(-3.8229 -3.3453003)"><clipPath id="a"><path d="M4.823 22.5v36L36 76.5l31.177-18v-36L36 4.5Z" clip-rule="nonzero"/></clipPath><g fill-rule="nonzero" clip-path="url(#a)"><path fill="#40834f" d="M67.1769 58.4997v-36l-31.177-18-31.177 18v36l31.177 18z" opacity=".3"/><path fill="#fff" stroke="#231f20" d="M34.1977 87.5747v-70.327c0-.994.806-1.8 1.8-1.8s1.8.806 1.8 1.8v70.327c0 .994-.806 1.8-1.8 1.8s-1.8-.806-1.8-1.8z"/><path fill="#fff" stroke="#231f20" d="M56.8593 26.1945h-41.723c-.994 0-1.8-.806-1.8-1.8s.806-1.8 1.8-1.8h41.723c.994 0 1.8.806 1.8 1.8s-.806 1.8-1.8 1.8Z"/><path fill="#fff" stroke="#231f20" stroke-linecap="round" stroke-linejoin="round" stroke-width="2" d="m52.9648 58.9998-16.967 9.761-16.967-9.761v-37.781h33.934Z"/><path fill="#fff" stroke="#231f20" stroke-linecap="round" stroke-linejoin="round" d="m48.1891 55.7268-12.191 7.481-12.192-7.481v-34.508h24.383Z"/></g></g><path fill="none" stroke="#231f20" stroke-width="2" d="M63.354 55.1546997v-36l-31.177-18-31.177 18v36l31.177 18z"/></svg>