<svg viewBox="0 0 300 339" xmlns="http://www.w3.org/2000/svg" fill-rule="evenodd" clip-rule="evenodd" stroke-miterlimit="10"><g transform="translate(0 .75) scale(4.16667)"><path fill="none" d="M0 0h72v81H0z"/><clipPath id="prefix__a"><path d="M0 0h72v81H0z"/></clipPath><g clip-path="url(#prefix__a)"><path d="M67.177 58.5v-36L36 4.5l-31.177 18v36L36 76.5l31.177-18z" fill="#3f7faa" fill-rule="nonzero" opacity=".3"/><path d="M67.177 58.5v-36L36 4.5l-31.177 18v36L36 76.5l31.177-18z" fill="none" stroke="#231f20" stroke-width="2"/><path d="M36 40.338l.06 21.242 18.484-10.672-.061-21.24L36 40.338zm7.945-.364l2.879-1.662.009 2.9-2.88 1.662-.008-2.9zm.015 5.114l2.88-1.662.008 2.903-2.879 1.663-.009-2.904zm.015 5.117l2.879-1.663.008 2.901-2.879 1.662-.008-2.9z" fill="#fff" fill-rule="nonzero"/><path d="M43.975 50.205l.008 2.9 2.879-1.662-.008-2.9-2.879 1.662zM43.96 45.088l.008 2.903 2.88-1.662-.008-2.903-2.88 1.662zM43.945 39.974l.008 2.9 2.88-1.662-.01-2.9-2.878 1.662z" fill="#231f20" fill-rule="nonzero"/><path d="M17.456 50.909l18.483 10.67L36 40.34 17.516 29.668l-.06 21.24zm7.835-7.222l.008-2.905 2.88 1.663-.009 2.903-2.879-1.661zm-.014 5.113l.008-2.9 2.88 1.662-.009 2.9-2.879-1.662z" fill="#fff" fill-rule="nonzero"/><path d="M25.277 48.8l2.879 1.662.008-2.9-2.878-1.663-.009 2.901zM25.292 43.686l2.878 1.662.009-2.905-2.879-1.661-.008 2.904z" fill="#231f20" fill-rule="nonzero"/><path d="M17.576 29.696l18.482 10.67 18.366-10.673-18.483-10.67-18.365 10.673zm15.72.052l2.51-1.459 2.881 1.664-2.51 1.46-2.882-1.665z" fill="#fff" fill-rule="nonzero"/><path d="M33.295 29.749l2.882 1.664 2.51-1.46-2.882-1.663-2.51 1.459z" fill="#231f20" fill-rule="nonzero"/><path d="M17.457 29.794L36.03 40.5 36 61.912" fill="none" stroke="#231f20"/><path d="M54.543 51.206V29.794L36 19.088 17.457 29.794v21.412L36 61.912l18.543-10.706z" fill="none" stroke="#231f20" stroke-width="2"/><path d="M36.03 40.5l18.513-10.706" fill="none" stroke="#231f20"/></g></g></svg>