<svg viewBox="0 0 300 338" xmlns="http://www.w3.org/2000/svg" fill-rule="evenodd" clip-rule="evenodd" stroke-miterlimit="10"><g transform="translate(0 .375) scale(4.16667)"><path fill="none" d="M0 0h72v81H0z"/><clipPath id="prefix__a"><path d="M0 0h72v81H0z"/></clipPath><g clip-path="url(#prefix__a)"><clipPath id="prefix__b"><path d="M4.823 22.5v36L36 76.5l31.177-18v-36L36 4.5l-31.177 18z" clip-rule="nonzero"/></clipPath><g clip-path="url(#prefix__b)"><path d="M4.823 22.5v36L36 76.5l31.177-18v-36L36 4.5l-31.177 18z" fill="#3f7faa" fill-rule="nonzero" opacity=".3"/><path d="M55.5 44.74l-2.92 4.86-1.14-.69-2.92 4.86-1.15-.69-2.92 4.85-1.14-.69-1.15-.68-2.92 4.85-3.21-1.92.89-1.74-3.95-3.28 1.12-2.25-4.97-4.01.56-1.12-5.67-1.64-.48.88-4.16-1.04-2.41 2.77c-1.74-3.83-3.47-7.65-5.21-11.47C3.63 27.27-4.49 17.96-12.61 8.65-6.99 6.18-1.37 3.72 4.25 1.26L26.63 29.4l-2.48 5.79c-.25.59.18 1.23.81 1.23H25a10.44 10.44 0 007.58-3.86l.93-1.102 5.6 3.432 11.64 6.99.8.49 3.95 2.37z" fill="#fff" fill-rule="nonzero"/><path d="M54.53 44.982c-.861-.397-1.663-.78-2.44-1.224-.4-.229-.75-.442-1.19-.723l-1.356-.859-5.441-3.413a872.938 872.938 0 01-10.854-6.878l.643-.104c-.481.59-.924 1.186-1.464 1.798a11.09 11.09 0 01-6.259 3.473c-.418.067-.768.128-1.286.145-.727-.006-1.407-.56-1.574-1.276a1.748 1.748 0 01.084-1.067l.21-.532.422-1.063 1.685-4.25v-.003l.138 1.016-22.38-28.14 1.183.294-16.858 7.39.35-1.573 24.36 27.94.117.144.04.098 4.755 11.677v.001l-.832-.12 2.41-2.77.2-.233.299.075 4.159 1.04-.56.245.48-.879.193-.353.385.112 5.67 1.64.577.166-.27.537-.558 1.12h-.001l-.133-.612 4.97 4.01.313.252-.18.36-1.12 2.25-.127-.608 4.269 2.895.616.512-.365.713-.89 1.74-.376-1.313 3.209 1.92-1.37.342 2.92-4.85.515-.854.85.51 2.3 1.374-1.374.34 2.919-4.85.516-.855.856.513 1.15.69-1.372.343 2.92-4.86.517-.86.858.52 1.14.69-1.375.34c.843-1.423 1.766-2.71 2.807-4.103m1.94-.484c-.906 1.846-1.93 3.8-3.033 5.617l-.52.857-.855-.517-1.14-.69 1.375-.34-2.92 4.86-.514.856-.857-.514-1.15-.69 1.37-.34-2.92 4.848-.513.855-.861-.515-2.281-1.364 1.366-.345-2.92 4.85-.514.854-4.066-2.432-.803-.48.426-.834.89-1.739.25 1.224-3.63-3.664-.311-.315.184-.293 1.12-2.25.133.612-4.97-4.01-.313-.253.74-1.48.308.704-5.67-1.64.578-.24-.48.88-.185.34-.375-.095h-.001l-4.16-1.04.499-.157-2.41 2.77-.51.587-.322-.708-5.665-11.263.156.243-24.36-27.94-.894-1.026 1.246-.547L3.848.344l.706-.309.479.602 22.38 28.14.372.468-.236.55-1.914 4.151-.743 1.607c.002.032.016.075.062.084.243.002.65-.028.987-.067a9.707 9.707 0 003.989-1.428 9.85 9.85 0 001.684-1.339c.498-.503 1.002-1.103 1.514-1.667l.265-.327.379.223A867.34 867.34 0 0044.88 37.48l5.57 3.2 1.39.805a56.06 56.06 0 011.56.933 52.394 52.394 0 013.069 2.08" fill="#231f20" fill-rule="nonzero"/><path d="M81.85 20.41l-30.3 21.96-.8-.49-16.984-10.407L36.2 28.07l-2.72 3.37-.9 1.12A10.44 10.44 0 0125 36.42h-.04a.881.881 0 01-.81-1.23l2.48-5.79.09-.21.64-1.49 1.65-3.83 23.22-2.13L72.79.81l9.06 19.6z" fill="#adbfd6" fill-rule="nonzero"/><path d="M81.198 20.807l-.316-.65c-3.079-6.33-6.075-12.584-9-18.927l1.621.28-20.56 20.93-.256.262-.366.034-23.216 2.176.866-.628-2.864 6.557-1.466 3.264-.655 1.44c-.004-.013-.016-.016-.019-.012l-.01.004s-.01.002.016.006l.19-.01c2.146-.124 4.36-.907 6.047-2.403.845-.708 1.56-1.696 2.388-2.56.816-.874 1.665-1.722 2.601-2.5h.001l-2.434 3.402c1.683.58 3.245 1.358 4.773 2.19l4.56 2.54c1.527.834 3.016 1.73 4.524 2.595a173.85 173.85 0 014.47 2.685h.001l-1.155.045 14.935-10.701c2.541-1.76 4.802-3.648 7.57-5.3a299.366 299.366 0 017.754-4.72m1.255-.954l-.603.558c-2.099 1.943-4.395 3.899-6.745 5.863-2.28 2.01-5.07 3.782-7.58 5.68l-15.364 11.26-.556.408-.599-.363a175.57 175.57 0 01-4.423-2.763c-1.455-.951-2.93-1.872-4.367-2.854l-4.333-2.908c-1.435-.984-2.837-2.023-4.118-3.26l.001-.001L36.2 28.07c-.563 1.08-1.212 2.089-1.895 3.07l-1.053 1.45c-.34.476-.756.994-1.195 1.435-1.77 1.8-4.18 3.048-6.797 3.25l-.256.022a1.765 1.765 0 01-1.225-.437 1.779 1.779 0 01-.58-1.63c.02-.143.076-.308.118-.414l.084-.207.168-.415.336-.83 1.352-3.314c.927-2.201 1.836-4.407 2.792-6.594l.25-.573.615-.055 23.224-2.084-.622.295L72.076.109 73.09-.921 73.697.39c2.99 6.452 5.908 12.99 8.756 19.46" fill="#231f20" fill-rule="nonzero"/><path d="M37.191 57.662l-2.32 4.098-11.35-2.38S17.53 53 15.6 50.94c-.37-.39-.59-.63-.59-.63l1.95-2.25 2.41-2.77 4.16 1.04.48-.88 5.67 1.64-.56 1.12 4.97 4.01-1.12 2.25 4.22 3.192z" fill="#adbfd6" fill-rule="nonzero"/><path d="M36.212 57.864a5.322 5.322 0 01-.962-.649 25.138 25.138 0 01-.855-.716 27.608 27.608 0 01-1.726-1.63l-.302-.309.156-.313c.372-.75.756-1.495 1.119-2.25l.134.612-4.97-4.01-.313-.253.74-1.48.308.704-5.664-1.659.555-.23-.487.875-.18.322-.35-.09-4.154-1.062.449-.14c-.736.828-1.44 1.684-2.157 2.53a46.983 46.983 0 00-2.073 2.601l-.011-.828c1.535 1.378 3.12 2.75 4.534 4.261l4.325 4.471-.58-.326 5.68 1.165c1.89.398 3.779.813 5.662 1.25l-1.154.521c.703-1.133 1.47-2.216 2.276-3.367m1.959-.405c-.743 1.581-1.522 3.23-2.367 4.83l-.355.671-.8-.15c-1.9-.357-3.795-.735-5.687-1.13l-5.67-1.215-.352-.076-.228-.25-4.185-4.6c-1.424-1.51-2.676-3.16-3.976-4.809l-.372-.473.36-.355a48.264 48.264 0 002.284-2.42c.738-.828 1.488-1.644 2.207-2.488l.177-.208.272.067 4.166 1.018-.53.232.473-.883.182-.338.374.106 5.675 1.621.578.165-.27.54-.56 1.12-.133-.613 4.97 4.01.317.255-.183.356c-.384.745-.746 1.501-1.12 2.25l-.146-.62c.822.465 1.659.99 2.495 1.56l1.255.88c.419.3.835.616 1.149.947" fill="#231f20" fill-rule="nonzero"/><path d="M19.041 54.602l1.738-3.2 3.231-5.952" fill="#fff" fill-rule="nonzero"/><path d="M18.162 54.125l5.408-8.913.879.477-4.529 9.39-1.758-.954z" fill="#231f20" fill-rule="nonzero"/><path d="M29.68 47.093l-3.54 7.054-2.616 5.235" fill="#fff" fill-rule="nonzero"/><path d="M30.128 47.317l-5.71 12.512-1.788-.894 3.28-6.044 3.324-6.023.894.45z" fill="#231f20" fill-rule="nonzero"/><path d="M29.858 60.71l1.852-3.714 2.383-4.776" fill="#fff" fill-rule="nonzero"/><path d="M28.963 60.264l2.316-4.146 2.366-4.122.895.447-1.869 4.37-1.918 4.344-1.79-.892zM56.356 45.259l-2.918 4.857-.039.065a.927.927 0 01-1.272.317l-.062-.04-10.305-7.359-.032-.023a.5.5 0 01.547-.834l10.82 6.502-1.372.342 2.919-4.857a1 1 0 111.714 1.03M39.357 47.1l8.527 5.122c.473.285.626.9.342 1.373l-2.919 4.856-.049.083a.91.91 0 01-1.247.311l-.076-.052L36 52.86l-.04-.03a.5.5 0 01.555-.827l8.45 5.077-1.372.342 2.918-4.856.342 1.372-8.01-5.98-.04-.03a.5.5 0 01.554-.828" fill="#231f20" fill-rule="nonzero"/></g><g><path d="M4.823 22.5v36L36 76.5l31.177-18v-36L36 4.5l-31.177 18z" fill="none" stroke="#231f20" stroke-width="2"/></g></g></g></svg>