<svg viewBox="0 0 301 338" xmlns="http://www.w3.org/2000/svg" fill-rule="evenodd" clip-rule="evenodd" stroke-miterlimit="10"><g transform="translate(.5 .44) scale(4.16667)"><path fill="none" d="M0 0h72v81H0z"/><clipPath id="prefix__a"><path d="M0 0h72v81H0z"/></clipPath><g clip-path="url(#prefix__a)"><clipPath id="prefix__b"><path d="M4.823 22.5v36L36 76.5l31.177-18v-36L36 4.5l-31.177 18z" clip-rule="nonzero"/></clipPath><g clip-path="url(#prefix__b)"><path d="M36 76.5l31.177-18v-36L36 4.5l-31.177 18v36L36 76.5z" fill="#3d8b8a" fill-rule="nonzero" opacity=".3"/><path d="M45.433 22.227v-6.5l-5.63-3.25V5.974" fill="none" stroke="#231f20"/><path d="M45.433 19.32a2.908 2.908 0 110 5.816 2.908 2.908 0 010-5.816" fill="#fff" fill-rule="nonzero"/><circle cy="-2.908" r="2.908" fill="none" stroke="#231f20" transform="matrix(-1 0 0 1 45.433 25.136)"/><path d="M26.553 22.227v-6.5l5.63-3.25V5.974" fill="none" stroke="#231f20"/><path d="M26.553 19.32a2.908 2.908 0 100 5.816 2.908 2.908 0 000-5.816" fill="#fff" fill-rule="nonzero"/><circle cy="-2.908" r="2.908" fill="none" stroke="#231f20" transform="matrix(-1 0 0 1 26.553 25.136)"/><path d="M35.993-3.941V18.93" fill="none" stroke="#231f20"/><path d="M35.993 21.838a2.908 2.908 0 110-5.816 2.908 2.908 0 010 5.816" fill="#fff" fill-rule="nonzero"/><path d="M35.993 21.838a2.908 2.908 0 110-5.816 2.908 2.908 0 010 5.816zM26.553 58.773v6.5l5.63 3.25v6.502" fill="none" stroke="#231f20"/><path d="M26.553 61.68a2.908 2.908 0 110-5.816 2.908 2.908 0 010 5.817" fill="#fff" fill-rule="nonzero"/><path d="M26.553 61.68a2.908 2.908 0 110-5.816 2.908 2.908 0 010 5.817zM45.433 58.773v6.5l-5.63 3.25v6.502" fill="none" stroke="#231f20"/><path d="M45.433 61.68a2.908 2.908 0 100-5.816 2.908 2.908 0 000 5.817" fill="#fff" fill-rule="nonzero"/><path d="M45.433 61.68a2.908 2.908 0 100-5.816 2.908 2.908 0 000 5.817zM35.993 84.941V62.07" fill="none" stroke="#231f20"/><path d="M35.993 59.162a2.908 2.908 0 110 5.816 2.908 2.908 0 010-5.816" fill="#fff" fill-rule="nonzero"/><circle cy="-2.908" r="2.908" fill="none" stroke="#231f20" transform="matrix(-1 0 0 1 35.993 64.978)"/><path d="M17.873 35.78h-6.5l-3.25 5.63H1.62" fill="none" stroke="#231f20"/><path d="M12.966 35.78a2.908 2.908 0 115.816 0 2.908 2.908 0 01-5.816 0" fill="#fff" fill-rule="nonzero"/><circle cx="2.908" r="2.908" fill="none" stroke="#231f20" transform="matrix(0 1 1 0 15.873 32.872)"/><path d="M-10.295 45.22h22.872" fill="none" stroke="#231f20"/><path d="M15.484 45.22a2.908 2.908 0 10-5.816 0 2.908 2.908 0 005.816 0" fill="#fff" fill-rule="nonzero"/><circle cx="-2.908" r="2.908" fill="none" stroke="#231f20" transform="matrix(0 -1 -1 0 12.576 42.312)"/><path d="M54.257 35.78h6.501l3.25 5.63h6.501" fill="none" stroke="#231f20"/><path d="M59.165 35.78a2.908 2.908 0 10-5.816 0 2.908 2.908 0 005.816 0" fill="#fff" fill-rule="nonzero"/><circle cx="-2.908" r="2.908" fill="none" stroke="#231f20" transform="matrix(0 -1 -1 0 56.257 32.872)"/><path d="M82.426 45.22H59.554" fill="none" stroke="#231f20"/><path d="M56.646 45.22a2.908 2.908 0 115.816 0 2.908 2.908 0 01-5.816 0" fill="#fff" fill-rule="nonzero"/><circle cx="2.908" r="2.908" fill="none" stroke="#231f20" transform="matrix(0 1 1 0 59.554 42.312)"/></g><path d="M36 76.5l31.177-18v-36L36 4.5l-31.177 18v36L36 76.5z" fill="none" stroke="#231f20" stroke-width="2"/><path d="M28.957 52.546h14.087l7.043-12.2-7.043-12.199H28.957l-7.043 12.2 7.043 12.2z" fill="#fff" fill-rule="nonzero" stroke="#231f20" stroke-width="2" stroke-linecap="round" stroke-linejoin="round"/><path d="M33.837 45.82l5.379-.25-.433.25 2.906-4.533a.25.25 0 01.433.25l-2.473 4.783a.463.463 0 01-.433.25l-5.38-.25a.25.25 0 010-.5" fill="#231f20" fill-rule="nonzero"/><path d="M32.708 47.775l7.637-.25-.433.25 4.035-6.489a.25.25 0 01.433.25l-3.602 6.74a.474.474 0 01-.433.25l-7.637-.25a.25.25 0 01-.242-.259.253.253 0 01.242-.242" fill="#231f20" fill-rule="nonzero"/><path d="M31.578 49.731l9.895-.25-.432.25 5.164-8.445a.25.25 0 01.434.25l-4.732 8.695a.48.48 0 01-.433.25l-9.895-.25a.25.25 0 01-.244-.256.252.252 0 01.244-.244" fill="#231f20" fill-rule="nonzero"/><g><path d="M38.163 35.02l-5.379.25.433-.25-2.906 4.532a.25.25 0 01-.433-.25l2.473-4.783a.463.463 0 01.433-.25l5.38.25a.25.25 0 010 .5" fill="#231f20" fill-rule="nonzero"/><path d="M39.292 33.064l-7.637.25.433-.25-4.035 6.489a.25.25 0 01-.433-.25l3.602-6.74a.474.474 0 01.433-.25l7.637.25a.25.25 0 01.242.259.253.253 0 01-.242.242" fill="#231f20" fill-rule="nonzero"/><path d="M40.422 31.108l-9.895.25.433-.25-5.164 8.445a.25.25 0 01-.434-.25l4.732-8.695a.48.48 0 01.433-.25l9.895.25a.25.25 0 010 .5" fill="#231f20" fill-rule="nonzero"/></g></g></g></svg>