<svg viewBox="0 0 300 339" xmlns="http://www.w3.org/2000/svg" fill-rule="evenodd" clip-rule="evenodd" stroke-miterlimit="10"><g transform="translate(0 .75) scale(4.16667)"><path fill="none" d="M0 0h72v81H0z"/><clipPath id="prefix__a"><path d="M0 0h72v81H0z"/></clipPath><g clip-path="url(#prefix__a)"><path d="M67.177 58.5v-36L36 4.5l-31.177 18v36L36 76.5l31.177-18z" fill="#7f5a90" fill-rule="nonzero" opacity=".3"/><path d="M67.177 58.5v-36L36 4.5l-31.177 18v36L36 76.5l31.177-18z" fill="none" stroke="#231f20" stroke-width="2"/><g transform="translate(17.807 30.495)"><clipPath id="prefix__b"><path d="M-12.984-7.995v36l31.177 18 31.177-18v-36l-31.177-18-31.177 18zm45.371 9.862v-14.25l9.12 19.56-9.12-5.31zM3.997-10.644V1.747l-9.49 5.43 9.49-17.821zm14.31 37.081l11.44 6.6H7.037l11.27-6.6z" clip-rule="nonzero"/></clipPath><g clip-path="url(#prefix__b)"><path d="M0 21.009V0l18.193-10.504L36.387 0v21.009L18.193 31.513 0 21.009z" fill="none" stroke="#231f20" stroke-width="2"/></g></g><path d="M22.307 49.406V33.594L36 25.688l13.694 7.906v15.812L36 57.312l-13.693-7.906z" fill="#fff" fill-rule="nonzero"/><path d="M36 25.11l-14.193 8.196v16.389L36 57.889l14.193-8.194v-16.39L36 25.112zm0 1.156l13.193 7.617v15.234L36 56.734l-13.193-7.617V33.883L36 26.266z" fill="#231f20" fill-rule="nonzero"/></g></g></svg>