<svg viewBox="0 0 301 339" xmlns="http://www.w3.org/2000/svg" fill-rule="evenodd" clip-rule="evenodd" stroke-miterlimit="10"><g transform="translate(.5 .75) scale(4.16667)"><path fill="none" d="M0 0h72v81H0z"/><clipPath id="prefix__a"><path d="M0 0h72v81H0z"/></clipPath><g clip-path="url(#prefix__a)"><path d="M67.177 58.5v-36L36 4.5l-31.177 18v36L36 76.5l31.177-18z" fill="#495790" fill-rule="nonzero" opacity=".3"/><path d="M67.177 58.5v-36L36 4.5l-31.177 18v36L36 76.5l31.177-18z" fill="none" stroke="#231f20" stroke-width="2"/><path d="M14.663 22.402v4.114l3.562 2.057 3.563-2.056v-4.114" fill="none" stroke="#231f20"/><path d="M18.225 28.573v8.433l7.145 7.144" fill="none" stroke="#231f20" stroke-width="2"/><path d="M57.337 22.404v4.113l-3.562 2.057-3.562-2.058v-4.112" fill="none" stroke="#231f20"/><path d="M53.775 28.573v8.433L46.63 44.15" fill="none" stroke="#231f20" stroke-width="2"/><path d="M25.174 32.284H46.82l5 15.824H20.174l5-15.824z" fill="#fff" fill-rule="nonzero" opacity=".3"/><path d="M35.995 66.42c8.74 0 15.83-7.09 15.83-15.83v-2.48l-.71-2.23-3.5-11.11-.79-2.49h-21.65l-.79 2.49-3.5 11.11-.71 2.23v2.48c0 8.74 7.08 15.83 15.82 15.83" fill="#fff" fill-rule="nonzero"/><path d="M35.995 66.42c8.74 0 15.83-7.09 15.83-15.83v-2.48l-.71-2.23-3.5-11.11-.79-2.49h-21.65l-.79 2.49-3.5 11.11-.71 2.23v2.48c0 8.74 7.08 15.83 15.82 15.83z" fill="none" stroke="#231f20" stroke-width="2"/><path d="M42.694 32.765v2.94l-6.69 2.93-6.7-2.93v-2.94h13.39z" fill="#b9bdc2" fill-rule="nonzero" stroke="#231f20"/><path d="M26.298 58.443c1.687.835 3.262 1.199 4.872 1.484.812.099 1.601.247 2.412.272.802.07 1.607.114 2.415.09.808.03 1.613-.023 2.416-.086.811-.027 1.601-.171 2.412-.271 1.611-.284 3.187-.651 4.871-1.49l.153.13c-1.188 1.384-2.836 2.275-4.534 2.853-1.71.575-3.515.838-5.318.863-1.802-.024-3.607-.288-5.318-.863-1.698-.578-3.346-1.47-4.533-2.853l.152-.13z" fill="#231f20" fill-rule="nonzero"/></g></g></svg>