<svg viewBox="0 0 300 338" xmlns="http://www.w3.org/2000/svg" fill-rule="evenodd" clip-rule="evenodd" stroke-linecap="round" stroke-linejoin="round" stroke-miterlimit="10"><g transform="translate(0 .12) scale(4.16667)"><path fill="none" d="M0 0h72v81H0z"/><clipPath id="prefix__a"><path d="M0 0h72v81H0z"/></clipPath><g clip-path="url(#prefix__a)"><clipPath id="prefix__b"><path d="M4.823 22.5v36L36 76.5l31.177-18v-36L36 4.5l-31.177 18z" clip-rule="nonzero"/></clipPath><g clip-path="url(#prefix__b)"><path d="M67.177 58.5v-36L36 4.5l-31.177 18v36L36 76.5l31.177-18z" fill="#3f7faa" fill-rule="nonzero" opacity=".3"/><path d="M75.781 30.92a10.954 10.954 0 01-.338 5.078c-.503 1.64-1.32 3.174-2.313 4.571-2.009 2.791-4.645 5.076-7.479 6.997-5.703 3.84-12.219 6.336-18.887 7.921-6.674 1.541-13.665 2.156-20.49.974-3.394-.605-6.765-1.662-9.734-3.552-1.439-1.008-2.777-2.206-3.758-3.723-.903-1.543-1.463-3.367-1.239-5.206.217-1.828 1.091-3.478 2.17-4.875 1.075-1.419 2.413-2.587 3.822-3.619 2.827-2.072 6.02-3.549 9.316-4.63l1.24-.402 1.257-.335c.835-.24 1.685-.415 2.535-.59a34.524 34.524 0 015.175-.689c3.476-.18 7.042.07 10.406 1.317 1.665.632 3.307 1.524 4.593 2.933.602.732 1.16 1.56 1.405 2.522.328.924.3 2.034.016 2.966-.109.493-.348.913-.545 1.357-.26.394-.485.827-.794 1.172-.564.753-1.25 1.362-1.946 1.944-1.413 1.14-2.988 2.007-4.618 2.702a27.691 27.691 0 01-5.057 1.571 23.084 23.084 0 01-5.302.54c-1.79-.029-3.603-.297-5.355-.96-.87-.352-1.73-.802-2.495-1.47-.76-.655-1.418-1.613-1.612-2.725l-.006-.037a1 1 0 111.976-.31c.167 1.195 1.44 2.172 2.853 2.742 1.444.568 3.061.843 4.687.885 3.25.088 6.58-.635 9.634-1.85 1.521-.625 2.98-1.413 4.244-2.408.62-.506 1.23-1.034 1.698-1.65.27-.29.435-.628.657-.94.146-.338.347-.664.42-1.014.21-.692.252-1.38.012-2.077-.16-.71-.584-1.339-1.047-1.93-1.016-1.143-2.443-1.972-3.954-2.562-3.056-1.182-6.467-1.482-9.799-1.345-3.345.142-6.678.846-9.894 1.833-3.209 1.008-6.318 2.405-9.04 4.352-1.358.967-2.638 2.062-3.647 3.363-1.016 1.281-1.807 2.762-2.012 4.341-.215 1.57.25 3.187 1.045 4.595.872 1.381 2.098 2.515 3.446 3.485 2.796 1.83 6.064 2.91 9.38 3.541 6.68 1.241 13.602.727 20.246-.724 6.638-1.492 13.145-3.894 18.86-7.64 2.84-1.876 5.486-4.114 7.516-6.863 1.003-1.377 1.834-2.89 2.355-4.517a10.94 10.94 0 00.397-5.06" fill="#231f20" fill-rule="nonzero"/><path d="M-3.781 50.46a10.954 10.954 0 01.338-5.079c.503-1.64 1.32-3.174 2.313-4.57 2.009-2.792 4.645-5.077 7.479-6.998 5.703-3.84 12.219-6.336 18.887-7.92 6.674-1.542 13.665-2.157 20.49-.975 3.394.605 6.765 1.662 9.734 3.552 1.439 1.007 2.777 2.206 3.758 3.723.903 1.543 1.463 3.367 1.239 5.206-.217 1.828-1.091 3.478-2.17 4.875-1.075 1.42-2.413 2.587-3.821 3.62-2.828 2.071-6.021 3.548-9.317 4.63l-1.24.401-1.257.335c-.835.241-1.685.415-2.535.59a34.524 34.524 0 01-5.175.69c-3.476.18-7.042-.07-10.406-1.318-1.665-.632-3.307-1.524-4.593-2.933-.602-.732-1.16-1.559-1.405-2.522-.328-.924-.3-2.034-.016-2.966.109-.493.348-.913.545-1.357.26-.394.485-.827.794-1.172.564-.753 1.25-1.363 1.946-1.944 1.413-1.139 2.988-2.007 4.618-2.702a27.691 27.691 0 015.057-1.57 23.084 23.084 0 015.302-.54c1.79.028 3.603.296 5.355.96.87.351 1.73.801 2.495 1.47.76.654 1.418 1.612 1.612 2.724l.006.037a1 1 0 11-1.976.311c-.167-1.196-1.44-2.173-2.853-2.743-1.444-.568-3.061-.843-4.687-.885-3.25-.088-6.58.635-9.634 1.85-1.521.625-2.98 1.413-4.244 2.408-.62.506-1.23 1.034-1.698 1.651-.27.288-.435.627-.657.94-.146.337-.347.663-.42 1.012-.21.693-.252 1.381-.012 2.078.16.71.584 1.34 1.047 1.93 1.016 1.143 2.443 1.972 3.954 2.562 3.056 1.182 6.467 1.482 9.799 1.345 3.345-.143 6.678-.846 9.894-1.833 3.209-1.008 6.318-2.405 9.04-4.352 1.358-.967 2.638-2.062 3.647-3.363 1.016-1.28 1.807-2.762 2.013-4.34.214-1.57-.251-3.188-1.046-4.596-.872-1.38-2.098-2.515-3.446-3.485-2.796-1.829-6.064-2.91-9.38-3.54-6.68-1.242-13.602-.728-20.246.723-6.638 1.492-13.145 3.894-18.86 7.64-2.84 1.876-5.486 4.114-7.516 6.863-1.003 1.377-1.834 2.89-2.355 4.517a10.94 10.94 0 00-.397 5.06" fill="#231f20" fill-rule="nonzero"/><path d="M45.38 39.248c.475 2.692-3.313 5.61-8.46 6.519-5.148.906-9.706-.54-10.18-3.232-.475-2.691 3.314-5.61 8.46-6.518 5.148-.907 9.705.539 10.18 3.231" fill="#fff" fill-rule="nonzero"/><ellipse cx="-9.32" cy="-1.643" rx="4.95" ry="9.464" fill="none" stroke="#231f20" stroke-width="2" transform="scale(-1 1) rotate(-80 2.656 35.558)"/></g><path d="M67.177 58.5v-36L36 4.5l-31.177 18v36L36 76.5l31.177-18z" fill="none" stroke="#231f20" stroke-width="2" stroke-linecap="butt" stroke-linejoin="miter"/><path d="M21.259 21.278h4.059M23.288 23.308v-4.06" fill="none" stroke="#231f20" stroke-linecap="butt" stroke-linejoin="miter"/><path d="M33.524 63.69h3.294M35.17 65.337v-3.294" fill="none" stroke="#231f20" stroke-width=".5" stroke-linecap="butt" stroke-linejoin="miter"/><path d="M38.877 65.925h4.94M41.347 68.396v-4.942" fill="none" stroke="#231f20" stroke-linecap="butt" stroke-linejoin="miter"/><path d="M51.685 22.057h3.676M53.524 23.896V20.22" fill="none" stroke="#231f20" stroke-width=".5" stroke-linecap="butt" stroke-linejoin="miter"/><path d="M27.066 16.278h6.68M30.406 19.618v-6.68" fill="none" stroke="#231f20" stroke-width="2" stroke-linecap="butt" stroke-linejoin="miter"/><path d="M10.112 54.925h3.765M11.994 56.808v-3.766" fill="none" stroke="#231f20" stroke-linecap="butt" stroke-linejoin="miter"/><path d="M45.641 60.327h7.53M49.406 64.092v-7.53" fill="none" stroke="#231f20" stroke-width="2" stroke-linecap="butt" stroke-linejoin="miter"/><g transform="matrix(0 -1 -1 0 47.524 16.807)"><ellipse cx="-1.882" rx="1.882" ry="1.883" fill="none" stroke="#231f20" stroke-linecap="butt" stroke-linejoin="miter"/></g></g></g></svg>