<svg viewBox="0 0 300 338" xmlns="http://www.w3.org/2000/svg" fill-rule="evenodd" clip-rule="evenodd" stroke-miterlimit="10"><g transform="translate(0 .375) scale(4.16667)"><path fill="none" d="M0 0h72v81H0z"/><clipPath id="prefix__a"><path d="M0 0h72v81H0z"/></clipPath><g clip-path="url(#prefix__a)"><clipPath id="prefix__b"><path d="M4.823 22.5v36L36 76.5l31.177-18v-36L36 4.5l-31.177 18z" clip-rule="nonzero"/></clipPath><g clip-path="url(#prefix__b)"><path d="M67.224 22.5v36l-31.177 18-31.177-18v-36l31.177-18 31.177 18z" fill="#7f5a90" fill-rule="nonzero" opacity=".3"/></g><path fill="#fff" d="M14.748 53.007l2.868 1.655 2.55-4.417-2.868-1.655z"/><path fill="none" stroke="#231f20" stroke-width="2" d="M14.748 53.008l2.866 1.654 2.551-4.418-2.865-1.655z"/><clipPath id="prefix__c"><path d="M4.823 22.5v36L36 76.5l31.177-18v-36L36 4.5l-31.177 18z" clip-rule="nonzero"/></clipPath><g clip-path="url(#prefix__c)"><path d="M9.086 61.727c1.525-2.044 1.779-3.662 1.702-4.792-.116-1.723-1.008-2.494-.644-4.128.065-.292.444-1.993 2.012-2.707 1.765-.806 3.51.334 3.63.413" fill="none" stroke="#231f20" stroke-width="2"/><path d="M40.316 46.18l-2.15 7.87c-1.097-.634-2.193-1.268-3.29-1.9l-4.29-2.48-4.3-2.48-3.29-1.9 6.08-6.13 2.19 1.79.29-.36 2.98 2.24.22-.39 3.058 2.235.152-.386 2.35 1.89z" fill="#fff" fill-rule="nonzero" stroke="#231f20" stroke-width="2" stroke-linecap="round" stroke-linejoin="round"/><path d="M22.996 45.293l3.603 2.08 3.984 2.3" fill="none" stroke="#231f20" stroke-linecap="round" stroke-linejoin="round"/><path d="M37.962 44.288l-3.081 7.867 3.29 1.898 2.145-7.872-2.354-1.893z" fill="#fff" fill-rule="nonzero" stroke="#231f20" stroke-linecap="round" stroke-linejoin="round"/><path d="M30.583 49.673l4.299 2.482 2.928-7.48-3.05-2.236-4.177 7.234zM31.264 40.956l-4.98 6.235-3.288-1.899 6.084-6.132 2.184 1.796z" fill="#fff" fill-rule="nonzero" stroke="#231f20" stroke-linecap="round" stroke-linejoin="round"/><path d="M30.583 49.673l-4.3-2.482 5.274-6.601 2.976 2.24-3.95 6.843z" fill="#fff" fill-rule="nonzero" stroke="#231f20" stroke-linecap="round" stroke-linejoin="round"/><path d="M12.51 63.456l5.088 8.71 10.086.05L38.17 54.053l-15.174-8.76L12.51 63.456z" fill="#fff" fill-rule="nonzero" stroke="#231f20" stroke-width="2" stroke-linecap="round" stroke-linejoin="round"/><path d="M36.788 56.057l-15.175-8.76M35.865 57.655l-15.175-8.76" fill="none" stroke="#231f20"/><path d="M25.23 53.98a2.48 2.48 0 01.908 3.39L15.096 76.496l-4.298-2.482L21.84 54.888a2.482 2.482 0 013.39-.908" fill="#7f5a90" fill-rule="nonzero" opacity=".4"/><path d="M25.23 53.98a2.48 2.48 0 01.908 3.39L15.096 76.496l-4.298-2.482L21.84 54.888a2.482 2.482 0 013.39-.908z" fill="none" stroke="#231f20"/><path d="M23.896 56.292h0" fill="none" stroke="#fff" stroke-width="1.5" stroke-linecap="round" stroke-linejoin="round" stroke-miterlimit="4"/><path d="M21.835 59.862l-3.092 5.355" fill="none" stroke="#fff" stroke-width="1.5" stroke-linecap="round" stroke-linejoin="round" stroke-miterlimit="4" stroke-dasharray="0 4.12"/><path d="M17.712 67.002h0" fill="none" stroke="#fff" stroke-width="1.5" stroke-linecap="round" stroke-linejoin="round" stroke-miterlimit="4"/><path d="M48.583.084l15.912 9.187-19.044 27.99a6.707 6.707 0 01-11.586-6.689L48.583.084z" fill="#fff" fill-rule="nonzero"/><path d="M37.94 32.923L48.495 17.69a.501.501 0 01.865.5l-7.957 16.736a2.007 2.007 0 11-3.462-2.004" fill="#7f5a90" fill-rule="nonzero" opacity=".3"/><path d="M35.876 20.238a1.28 1.28 0 10-2.217-1.28 1.28 1.28 0 002.217 1.28M49.697 40.434a1.28 1.28 0 10-2.216-1.28 1.28 1.28 0 002.216 1.28" fill="#fff" fill-rule="nonzero"/></g><g><path d="M67.177 22.5v36L36 76.5l-31.177-18v-36L36 4.5l31.177 18z" fill="none" stroke="#231f20" stroke-width="2"/></g></g></g></svg>