<svg viewBox="0 0 301 338" xmlns="http://www.w3.org/2000/svg" fill-rule="evenodd" clip-rule="evenodd" stroke-linecap="round" stroke-linejoin="round" stroke-miterlimit="10"><g transform="translate(.5 .12) scale(4.16667)"><path fill="none" d="M0 0h72v81H0z"/><clipPath id="prefix__a"><path d="M0 0h72v81H0z"/></clipPath><g clip-path="url(#prefix__a)"><clipPath id="prefix__b"><path d="M4.823 22.5v36L36 76.5l31.177-18v-36L36 4.5l-31.177 18z" clip-rule="nonzero"/></clipPath><g clip-path="url(#prefix__b)"><path d="M67.177 58.5v-36L36 4.5l-31.177 18v36L36 76.5l31.177-18z" fill="#3f7faa" fill-rule="nonzero" opacity=".3"/></g><path d="M31.976 44.704l-12.253.25 9.766 7.404-3.548 11.73 10.06-7 10.058 7-3.548-11.73 9.765-7.404-12.252-.25L36 33.128l-4.024 11.576z" fill="#fff" fill-rule="nonzero"/><g transform="translate(36 40.128)"><clipPath id="prefix__c"><path d="M-31.177-17.628v36L0 36.372l31.177-18v-36L0-35.628l-31.177 18z" clip-rule="nonzero"/></clipPath><g clip-path="url(#prefix__c)"><path d="M0 16.96l-10.06 7 3.549-11.73-9.766-7.404 12.253-.25L0-7 4.024 4.576l12.253.25-9.766 7.404 3.549 11.73-10.06-7z" fill="none" stroke="#231f20" stroke-width="2"/></g></g><path d="M19.724 13.897v12.385L36 33.128l16.276-6.846V13.897L36 4.5l-16.277 9.397z" fill="#fff" fill-rule="nonzero"/><clipPath id="prefix__d"><path d="M4.823 22.5v36L36 76.5l31.177-18v-36L36 4.5l-31.177 18z" clip-rule="nonzero"/></clipPath><g clip-path="url(#prefix__d)"><path d="M52.277-5.853H19.723v32.135L36 33.128l16.277-6.846V-5.853z" fill="none" stroke="#231f20" stroke-width="2"/><path d="M36-5.852v38.98M44.138-5.854v35.175M27.861-5.854v35.175" fill="none" stroke="#231f20"/></g><g><path d="M67.177 58.5v-36L36 4.5l-31.177 18v36L36 76.5l31.177-18z" fill="none" stroke="#231f20" stroke-width="2" stroke-linecap="butt" stroke-linejoin="miter"/></g></g></g></svg>