<svg xmlns="http://www.w3.org/2000/svg" xmlns:svg="http://www.w3.org/2000/svg" fill-rule="evenodd" stroke-miterlimit="10" clip-rule="evenodd" viewBox="0 0 64.353996 74.309402" xml:space="preserve"><path fill="#3f7faa" fill-rule="nonzero" d="M63.354 55.1546997v-36l-31.177-18-31.177 18v36l31.177 18z" opacity=".3"/><g transform="translate(-3.8229 -3.3453003)"><clipPath id="a"><path d="M4.823 22.5v36L36 76.5l31.177-18v-36L36 4.5Z" clip-rule="nonzero"/></clipPath><g clip-path="url(#a)"><g fill="#3f7faa" fill-rule="nonzero" opacity=".3"><path d="M12.1359 51.2099H.8949l3.987-10.71-3.987-10.71h11.241l3.987 10.71z"/><path d="M25.9303 51.2099h-11.241l3.987-10.71-3.987-10.71h11.241l3.987 10.71z"/><path d="M39.7247 51.2099h-11.241l3.987-10.71-3.987-10.71h11.241l3.987 10.71z"/><path d="M53.5192 51.2099h-11.241l3.987-10.71-3.987-10.71h11.241l3.987 10.71z"/><path d="M67.3136 51.2099h-11.241l3.987-10.71-3.987-10.71h11.241l3.987 10.71z"/></g><path fill="#fff" fill-rule="nonzero" d="M22.3842 62.5148c-1.02 0-1.972-.644-2.317-1.664-.432-1.279.255-2.667 1.534-3.1l7.636-2.579 2.269-9.638c.309-1.316 1.626-2.13 2.941-1.821 1.315.31 3.963 1.531 3.654 2.846l-4.414 11.055c-.193.822-.797 1.487-1.597 1.757l-8.923 3.015c-.259.087-.523.129-.783.129m19.635-22.4147c-.612 0-1.22-.229-1.688-.676l-5.449-5.195c-.977-.932-1.014-2.481-.082-3.458.934-.979 2.481-1.014 3.458-.082l4.015 3.828 5.962-4.077c1.114-.764 2.637-.476 3.399.638.763 1.115.477 2.637-.638 3.399l-7.597 5.196c-.419.286-.901.427-1.38.427"/><clipPath id="b"><path d="M19.438 43.147999h19.188V63.015H19.438z" clip-rule="nonzero"/></clipPath><g clip-path="url(#b)"><path fill="#3f7faa" fill-rule="nonzero" d="M22.3842 62.5148c-1.02 0-1.972-.644-2.317-1.664-.432-1.279.255-2.667 1.534-3.1l7.636-2.579 2.269-9.638c.309-1.316 1.626-2.13 2.941-1.821 1.315.31 3.963 1.531 3.654 2.846l-4.414 11.055c-.193.822-.797 1.487-1.597 1.757l-8.923 3.015c-.259.087-.523.129-.783.129" opacity=".3"/><path fill="none" stroke="#231f20" d="M22.3842 62.5148c-1.02 0-1.972-.644-2.317-1.664-.432-1.279.255-2.667 1.534-3.1l7.636-2.579 2.269-9.638c.309-1.316 1.626-2.13 2.941-1.821 1.315.31 3.963 1.531 3.654 2.846l-4.414 11.055c-.193.822-.797 1.487-1.597 1.757l-8.923 3.015c-.259.087-.523.129-.783.129Z"/></g><clipPath id="c"><path d="M33.625 29.511999h18.937v11.088H33.625z" clip-rule="nonzero"/></clipPath><g clip-path="url(#c)"><path fill="#3f7faa" fill-rule="nonzero" d="M42.0192 40.1001c-.612 0-1.22-.229-1.688-.676l-5.449-5.195c-.977-.932-1.014-2.481-.082-3.458.934-.979 2.481-1.014 3.458-.082l4.015 3.828 5.962-4.077c1.114-.764 2.637-.476 3.399.638.763 1.115.477 2.637-.638 3.399l-7.597 5.196c-.419.286-.901.427-1.38.427" opacity=".3"/><path fill="none" stroke="#231f20" d="M42.0192 40.1001c-.612 0-1.22-.229-1.688-.676l-5.449-5.195c-.977-.932-1.014-2.481-.082-3.458.934-.979 2.481-1.014 3.458-.082l4.015 3.828 5.962-4.077c1.114-.764 2.637-.476 3.399.638.763 1.115.477 2.637-.638 3.399l-7.597 5.196c-.419.286-.901.427-1.38.427Z"/></g><clipPath id="d"><path d="M19.438 43.147999h19.188V63.015H19.438z" clip-rule="nonzero"/></clipPath><g clip-path="url(#d)"><path fill="#3f7faa" fill-rule="nonzero" d="M22.3842 62.5148c-1.02 0-1.972-.644-2.317-1.664-.432-1.279.255-2.667 1.534-3.1l7.636-2.579 2.269-9.638c.309-1.316 1.626-2.13 2.941-1.821 1.315.31 3.963 1.531 3.654 2.846l-4.414 11.055c-.193.822-.797 1.487-1.597 1.757l-8.923 3.015c-.259.087-.523.129-.783.129" opacity=".3"/><path fill="none" stroke="#231f20" d="M22.3842 62.5148c-1.02 0-1.972-.644-2.317-1.664-.432-1.279.255-2.667 1.534-3.1l7.636-2.579 2.269-9.638c.309-1.316 1.626-2.13 2.941-1.821 1.315.31 3.963 1.531 3.654 2.846l-4.414 11.055c-.193.822-.797 1.487-1.597 1.757l-8.923 3.015c-.259.087-.523.129-.783.129Z"/></g><clipPath id="e"><path d="M33.625 29.511999h18.937v11.088H33.625z" clip-rule="nonzero"/></clipPath><g clip-path="url(#e)"><path fill="#3f7faa" fill-rule="nonzero" d="M42.0192 40.1001c-.612 0-1.22-.229-1.688-.676l-5.449-5.195c-.977-.932-1.014-2.481-.082-3.458.934-.979 2.481-1.014 3.458-.082l4.015 3.828 5.962-4.077c1.114-.764 2.637-.476 3.399.638.763 1.115.477 2.637-.638 3.399l-7.597 5.196c-.419.286-.901.427-1.38.427" opacity=".3"/><path fill="none" stroke="#231f20" d="M42.0192 40.1001c-.612 0-1.22-.229-1.688-.676l-5.449-5.195c-.977-.932-1.014-2.481-.082-3.458.934-.979 2.481-1.014 3.458-.082l4.015 3.828 5.962-4.077c1.114-.764 2.637-.476 3.399.638.763 1.115.477 2.637-.638 3.399l-7.597 5.196c-.419.286-.901.427-1.38.427Z"/></g><path fill="#fff" fill-rule="nonzero" d="M46.7416 60.2712c.471 1.22.069 2.66-1.052 3.334-.446.269-.928.395-1.398.395-1.071 0-2.081-.649-2.49-1.708l-4.777-8.292-6.521-7.495c-.732-.721-.984-1.799-.649-2.77l5.726-16.585c.471-1.365 1.916-2.236 3.304-1.837 1.481.426 2.285 1.999 1.789 3.436l-2.455 14.534c-.075.448.023.908.276 1.285l4.32 6.456c.162.243.301.501.412.77z"/><path fill="#231f20" fill-rule="nonzero" d="m45.8132 60.6429-3.272-7.807c-.137-.317-.278-.687-.388-.894-.063-.122-.13-.234-.209-.352l-.297-.439-1.183-1.758-2.361-3.52-.294-.44c-.095-.153-.186-.26-.34-.546-.258-.498-.362-1.073-.294-1.629l.374-2.141.759-4.17c.531-2.776 1.182-5.532 1.756-8.3l.017-.079.009-.02c.379-.862.023-2.008-.829-2.511-.836-.555-1.997-.346-2.673.416-.365.375-.505.797-.706 1.415l-.584 1.719-1.167 3.437c-.788 2.289-1.523 4.595-2.286 6.892l-1.136 3.448c-.216.634-.346 1.003-.273 1.46.057.441.271.852.588 1.153l.011.011.028.031 6.656 7.377.051.057.052.088c1.625 2.745 3.267 5.481 4.853 8.248l.037.064.03.077c.163.411.484.747.893.918.405.173.866.184 1.279.017.428-.176.72-.466.891-.889.166-.411.163-.926.008-1.333m1.857-.743c.352.912.355 1.9.01 2.808-.33.903-1.12 1.689-2.007 2.034-.894.371-1.956.364-2.844-.033-.896-.38-1.622-1.146-1.967-2.053l.066.14c-1.598-2.761-3.141-5.554-4.7-8.337l.103.145-6.387-7.612.039.041c-.544-.55-.893-1.285-.966-2.049-.041-.382-.011-.769.08-1.14.107-.405.212-.628.314-.928l1.234-3.415c.815-2.278 1.66-4.547 2.452-6.834l1.202-3.425.601-1.713c.17-.524.435-1.286.946-1.775.488-.512 1.138-.886 1.856-.995.715-.122 1.475.024 2.089.397 1.274.715 1.918 2.358 1.466 3.795l.025-.099c-.367 2.804-.657 5.62-1.067 8.417l-.653 4.188-.325 2.038c-.014.146.017.296.087.423l.526.787 2.353 3.524 1.174 1.765.293.441c.117.176.23.368.328.561.21.422.308.719.451 1.051z"/><path fill="#fff" fill-rule="nonzero" d="m38.3068 32.5318-8.336 3.047-4.03 7.016c-.492.857-1.389 1.338-2.312 1.338-.45 0-.905-.115-1.324-.355-1.275-.733-1.715-2.361-.983-3.636l4.513-7.857c.313-.544.807-.96 1.396-1.175l9.248-3.38"/><path fill="#231f20" fill-rule="nonzero" d="m38.3068 32.5318-7.993 3.986.523-.441-2.371 4.004-1.186 2.002-.603 1.016c-.268.439-.638.821-1.069 1.104-.86.57-1.967.736-2.949.436-.979-.289-1.812-1.03-2.204-1.966-.405-.927-.375-2.032.089-2.925.427-.762.799-1.361 1.202-2.049l2.372-4.004 1.196-2.017c.257-.41.604-.761 1.008-1.022.202-.131.419-.238.643-.322l.558-.197 8.784-3.077.343.939-8.698 3.313-.534.204c-.137.056-.268.125-.389.209-.243.166-.448.386-.595.638l-1.124 2.017-2.263 4.066-1.101 1.993c-.241.495-.236 1.088-.004 1.578.222.491.672.864 1.187 1.001.508.14 1.077.034 1.502-.267.213-.15.39-.344.519-.57l.559-1 1.131-2.033 2.264-4.066.202-.363.322-.078z"/><path fill="#fff" fill-rule="nonzero" d="M45.0418 22.8179c0 3.213-2.605 5.816-5.817 5.816-3.213 0-5.819-2.603-5.819-5.816 0-3.214 2.606-5.817 5.819-5.817 3.212 0 5.817 2.603 5.817 5.817"/><ellipse cx="-5.8179998" fill="none" stroke="#231f20" stroke-width="2" rx="5.8169999" ry="5.8179998" transform="matrix(0 -1 -1 0 39.2238 16.9999)"/></g></g><path fill="none" stroke="#231f20" stroke-width="2" d="M63.354 55.1546997v-36l-31.177-18-31.177 18v36l31.177 18z"/></svg>