<svg viewBox="0 0 301 338" xmlns="http://www.w3.org/2000/svg" fill-rule="evenodd" clip-rule="evenodd" stroke-miterlimit="10"><g transform="translate(.5 .06) scale(4.16667)"><path fill="none" d="M0 0h72v81H0z"/><clipPath id="prefix__a"><path d="M0 0h72v81H0z"/></clipPath><g clip-path="url(#prefix__a)"><clipPath id="prefix__b"><path d="M4.823 22.5v36L36 76.5l31.177-18v-36L36 4.5l-31.177 18z" clip-rule="nonzero"/></clipPath><g clip-path="url(#prefix__b)"><path d="M67.177 58.5v-36L36 4.5l-31.177 18v36L36 76.5l31.177-18z" fill="#3f7faa" fill-rule="nonzero" opacity=".3"/><path d="M103.317 33.048l-4.404-5.683-35.605 12.967a24.127 24.127 0 01-18.939-1.036c.259-10.316 11.058-7.603 11.058-7.603s-.191-4.3-4.299-4.3c-4.108 0-4.658-3.726-4.658-3.726H31.735l-4.853 15.615a24.193 24.193 0 01-18.985 1.04L-27.857 27.31l-4.407 5.683s14.646 25.234 45.479 31.683c7.456 1.56 12.362 8.564 11.826 16.162l-.012.17c-1.287 18.958 6.203 33.763 10.474 40.816 4.273-7.002 11.833-21.793 10.561-40.761l-.012-.17c-.53-7.601 4.379-14.603 11.836-16.166 30.798-6.455 45.429-31.679 45.429-31.679z" fill="#fff" fill-rule="nonzero" stroke="#231f20" stroke-width="2"/><path d="M4.593 43.008l21.082 8.69L3.913 44.89l.68-1.88zM4.557 47.684l17.12 8.435-17.73-7.064.61-1.371zM4.269 51.59l13.173 8.183-13.673-7.317.5-.866zM67.517 44.89L45.753 51.7l21.084-8.692.68 1.881zM67.482 49.054L49.754 56.12l17.118-8.436.61 1.371zM67.427 52.957l-13.673 7.317 13.173-8.183.5.866z" fill="#231f20" fill-rule="nonzero"/><path d="M45.17 27.4a1.878 1.878 0 01-3.756 0h3.757z" fill="#3f7faa" fill-rule="nonzero" opacity=".3"/><path d="M45.17 27.4a1.878 1.878 0 01-3.756 0h3.757z" fill="none" stroke="#231f20"/></g><g><path d="M67.177 58.5v-36L36 4.5l-31.177 18v36L36 76.5l31.177-18z" fill="none" stroke="#231f20" stroke-width="2"/></g></g></g></svg>