<svg viewBox="0 0 301 339" xmlns="http://www.w3.org/2000/svg" fill-rule="evenodd" clip-rule="evenodd" stroke-linecap="round" stroke-linejoin="round" stroke-miterlimit="10"><g transform="translate(.5 .688) scale(4.16667)"><path fill="none" d="M0 0h72v81H0z"/><clipPath id="prefix__a"><path d="M0 0h72v81H0z"/></clipPath><g clip-path="url(#prefix__a)"><clipPath id="prefix__b"><path d="M4.823 21v36L36 75l31.177-18V21L36 3 4.823 21z" clip-rule="nonzero"/></clipPath><g clip-path="url(#prefix__b)"><path d="M67.177 57V21L36 3 4.823 21v36L36 75l31.177-18z" fill="#3f7faa" fill-rule="nonzero" opacity=".3"/><path d="M46.551 23.298c0 5.827-4.724 10.55-10.551 10.55s-10.551-4.723-10.551-10.55c0-5.827 4.724-10.551 10.551-10.551s10.551 4.724 10.551 10.55" fill="#fff" fill-rule="nonzero"/><circle cx="-10.551" fill="none" stroke="#231f20" r="10.551" transform="matrix(0 -1 -1 0 36 12.747)"/><path d="M48.083 33.848H23.918c-6.98 0-12.538 5.838-12.196 12.808l.94 19.202a10.898 10.898 0 0010.885 10.365l3.114 28.538H45.34l3.113-28.538h0c5.812 0 10.6-4.56 10.886-10.365l.94-19.202c.342-6.97-5.218-12.808-12.196-12.808z" fill="#fff" fill-rule="nonzero" stroke="#231f20"/><path d="M26.013 57.824V46.292L36 40.526l9.987 5.766v11.532L36 63.59l-9.987-5.766z" fill="#fff" fill-rule="nonzero"/><path d="M36 39.372l-10.987 6.343v12.687L36 64.745l10.987-6.343V45.715L36 39.372zm0 2.309l8.987 5.189v10.377L36 62.435l-8.987-5.188V46.87L36 41.68z" fill="#231f20" fill-rule="nonzero"/><path d="M36 46.05v12.427M29.787 52.264h12.426" fill="none" stroke="#231f20" stroke-width="2" stroke-linecap="butt" stroke-linejoin="miter"/></g><g><path d="M67.177 57V21L36 3 4.823 21v36L36 75l31.177-18z" fill="none" stroke="#231f20" stroke-width="2" stroke-linecap="butt" stroke-linejoin="miter"/></g></g></g></svg>