<svg viewBox="0 0 300 339" xmlns="http://www.w3.org/2000/svg" fill-rule="evenodd" clip-rule="evenodd" stroke-linecap="round" stroke-linejoin="round" stroke-miterlimit="10"><g transform="translate(0 .688) scale(4.16667)"><path fill="none" d="M0 0h72v81H0z"/><clipPath id="prefix__a"><path d="M0 0h72v81H0z"/></clipPath><g clip-path="url(#prefix__a)"><path d="M67.177 57V21L36 3 4.823 21v36L36 75l31.177-18z" fill="#3f7faa" fill-rule="nonzero" opacity=".3"/><path d="M34.126 73.918l1.208.697h1.331l1.208-.697L36 63.564l-1.874 10.354zM35.334 3.384l-1.208.697L36 14.436l1.873-10.355-1.208-.697h-1.33zM59.503 39l7.674 1.587v-3.173L59.503 39zM4.823 40.587L12.497 39l-7.674-1.587v3.174z" fill="#231f20" fill-rule="nonzero"/><clipPath id="prefix__b"><path d="M15.441 39c0 11.353 9.206 20.558 20.559 20.558 11.353 0 20.559-9.205 20.559-20.558S47.353 18.441 36 18.441c-11.353 0-20.559 9.206-20.559 20.559z" clip-rule="nonzero"/></clipPath><g clip-path="url(#prefix__b)"><path d="M36 18.441c-11.353 0-20.559 9.206-20.559 20.56 0 11.352 9.206 20.557 20.559 20.557 11.353 0 20.559-9.205 20.559-20.558S47.353 18.441 36 18.441" fill="#3f7faa" fill-rule="nonzero" opacity=".3"/><path d="M44.41 34.772a8.41 8.41 0 11-16.82 0 8.41 8.41 0 0116.82 0" fill="#fff" fill-rule="nonzero"/><circle cx="-8.409" fill="none" stroke="#231f20" stroke-width="2" r="8.409" transform="matrix(0 -1 -1 0 36 26.363)"/><path d="M45.63 43.18H26.37c-5.561 0-9.991 4.653-9.72 10.208l.75 15.303a8.687 8.687 0 008.676 8.26l2.48 22.745h14.888l2.48-22.744a8.687 8.687 0 008.677-8.261l.749-15.303c.272-5.555-4.158-10.208-9.72-10.208z" fill="#fff" fill-rule="nonzero" stroke="#231f20" stroke-width="2"/></g><g transform="matrix(-1 0 0 1 36 59.558)"><clipPath id="prefix__c"><path d="M31.177-38.558v36L0 15.442l-31.177-18v-36L0-56.558l31.177 18z" clip-rule="nonzero"/></clipPath><g clip-path="url(#prefix__c)"><circle cy="-20.559" fill="none" stroke="#231f20" stroke-width="2" stroke-linecap="butt" stroke-linejoin="miter" r="20.559"/></g></g><g><path d="M67.177 57V21L36 3 4.823 21v36L36 75l31.177-18z" fill="none" stroke="#231f20" stroke-width="2" stroke-linecap="butt" stroke-linejoin="miter"/></g></g></g></svg>