<svg xmlns="http://www.w3.org/2000/svg" xmlns:svg="http://www.w3.org/2000/svg" fill-rule="evenodd" stroke-miterlimit="10" clip-rule="evenodd" viewBox="0 0 64.353996 74.309402" xml:space="preserve"><g transform="translate(-3.823 -3.3453003)"><clipPath id="a"><path d="M4.823 22.5v36L36 76.5l31.177-18v-36L36 4.5Z" clip-rule="nonzero"/></clipPath><g clip-path="url(#a)"><path fill="#3d8b8a" fill-rule="nonzero" d="m36 76.5 31.177-18v-36L36 4.5l-31.177 18v36z" opacity=".3"/><path fill="none" stroke="#231f20" d="M45.4332 22.2272v-6.501l-5.63-3.25v-6.501"/><path fill="#fff" fill-rule="nonzero" d="M45.4332 19.3195c1.606 0 2.908 1.302 2.908 2.908 0 1.606-1.302 2.908-2.908 2.908-1.606 0-2.908-1.302-2.908-2.908 0-1.606 1.302-2.908 2.908-2.908"/><circle cy="-2.908" r="2.908" fill="none" stroke="#231f20" transform="matrix(-1 0 0 1 45.4332 25.1355)"/><path fill="none" stroke="#231f20" d="M26.5535 22.2272v-6.501l5.63-3.25v-6.501"/><path fill="#fff" fill-rule="nonzero" d="M26.5535 19.3195c-1.606 0-2.908 1.302-2.908 2.908 0 1.606 1.302 2.908 2.908 2.908 1.606 0 2.908-1.302 2.908-2.908 0-1.606-1.302-2.908-2.908-2.908"/><circle cy="-2.908" r="2.908" fill="none" stroke="#231f20" transform="matrix(-1 0 0 1 26.5535 25.1355)"/><path fill="none" stroke="#231f20" d="M35.9934-3.9413v22.872"/><path fill="#fff" fill-rule="nonzero" d="M35.9934 21.8383c-1.606 0-2.908-1.302-2.908-2.908 0-1.606 1.302-2.908 2.908-2.908 1.606 0 2.908 1.302 2.908 2.908 0 1.606-1.302 2.908-2.908 2.908"/><path fill="none" stroke="#231f20" d="M35.9934 21.8383c-1.606 0-2.908-1.302-2.908-2.908 0-1.606 1.302-2.908 2.908-2.908 1.606 0 2.908 1.302 2.908 2.908 0 1.606-1.302 2.908-2.908 2.908Zm-9.4399 36.9345v6.501l5.63 3.25v6.501"/><path fill="#fff" fill-rule="nonzero" d="M26.5535 61.6805c-1.606 0-2.908-1.302-2.908-2.908 0-1.606 1.302-2.908 2.908-2.908 1.606 0 2.908 1.302 2.908 2.908 0 1.606-1.302 2.908-2.908 2.908"/><path fill="none" stroke="#231f20" d="M26.5535 61.6805c-1.606 0-2.908-1.302-2.908-2.908 0-1.606 1.302-2.908 2.908-2.908 1.606 0 2.908 1.302 2.908 2.908 0 1.606-1.302 2.908-2.908 2.908Zm18.8797-2.9077v6.501l-5.63 3.25v6.501"/><path fill="#fff" fill-rule="nonzero" d="M45.4332 61.6805c1.606 0 2.908-1.302 2.908-2.908 0-1.606-1.302-2.908-2.908-2.908-1.606 0-2.908 1.302-2.908 2.908 0 1.606 1.302 2.908 2.908 2.908"/><path fill="none" stroke="#231f20" d="M45.4332 61.6805c1.606 0 2.908-1.302 2.908-2.908 0-1.606-1.302-2.908-2.908-2.908-1.606 0-2.908 1.302-2.908 2.908 0 1.606 1.302 2.908 2.908 2.908zm-9.4398 23.2608v-22.872"/><path fill="#fff" fill-rule="nonzero" d="M35.9934 59.1618c1.606 0 2.908 1.302 2.908 2.908 0 1.606-1.302 2.908-2.908 2.908-1.606 0-2.908-1.302-2.908-2.908 0-1.606 1.302-2.908 2.908-2.908"/><circle cy="-2.908" r="2.908" fill="none" stroke="#231f20" transform="matrix(-1 0 0 1 35.9934 64.9778)"/><path fill="none" stroke="#231f20" d="M17.8733 35.7801h-6.501l-3.25 5.63h-6.501"/><path fill="#fff" fill-rule="nonzero" d="M12.9655 35.7801c0-1.606 1.302-2.908 2.908-2.908 1.606 0 2.908 1.302 2.908 2.908 0 1.606-1.302 2.908-2.908 2.908-1.606 0-2.908-1.302-2.908-2.908"/><circle cx="2.908" r="2.908" fill="none" stroke="#231f20" transform="matrix(0 1 1 0 15.8735 32.8721)"/><path fill="none" stroke="#231f20" d="M-10.2952 45.2199h22.872"/><path fill="#fff" fill-rule="nonzero" d="M15.4843 45.2199c0-1.606-1.302-2.908-2.908-2.908-1.606 0-2.908 1.302-2.908 2.908 0 1.606 1.302 2.908 2.908 2.908 1.606 0 2.908-1.302 2.908-2.908"/><circle cx="-2.908" r="2.908" fill="none" stroke="#231f20" transform="matrix(0 -1 -1 0 12.5763 42.3119)"/><path fill="none" stroke="#231f20" d="M54.2572 35.7801h6.501l3.25 5.63h6.501"/><path fill="#fff" fill-rule="nonzero" d="M59.165 35.7801c0-1.606-1.302-2.908-2.908-2.908-1.606 0-2.908 1.302-2.908 2.908 0 1.606 1.302 2.908 2.908 2.908 1.606 0 2.908-1.302 2.908-2.908"/><circle cx="-2.908" r="2.908" fill="none" stroke="#231f20" transform="matrix(0 -1 -1 0 56.257 32.8721)"/><path fill="none" stroke="#231f20" d="M82.4257 45.2199h-22.872"/><path fill="#fff" fill-rule="nonzero" d="M56.6462 45.2199c0-1.606 1.302-2.908 2.908-2.908 1.606 0 2.908 1.302 2.908 2.908 0 1.606-1.302 2.908-2.908 2.908-1.606 0-2.908-1.302-2.908-2.908"/><circle cx="2.908" r="2.908" fill="none" stroke="#231f20" transform="matrix(0 1 1 0 59.5542 42.3119)"/></g></g><path fill="none" stroke="#231f20" stroke-width="2" d="m32.177 73.1546997 31.177-18v-36l-31.177-18-31.177 18v36z"/><path fill="#fff" fill-rule="nonzero" stroke="#231f20" stroke-linecap="round" stroke-linejoin="round" stroke-width="2" d="M25.1336 49.2007997h14.087l7.043-12.2-7.043-12.199h-14.087l-7.043 12.199z"/><path fill="#231f20" fill-rule="nonzero" d="m30.0136 42.4744997 5.379-.25-.433.25 2.906-4.533c.075-.117.23-.151.346-.076.109.07.145.212.087.326l-2.473 4.783c-.086.166-.258.258-.433.25l-5.379-.25c-.138-.006-.245-.124-.238-.262.006-.13.111-.232.238-.238"/><path fill="#231f20" fill-rule="nonzero" d="m28.8846 44.4300997 7.637-.25-.433.25 4.035-6.489c.073-.117.227-.153.345-.08.112.07.15.215.088.33l-3.602 6.739c-.087.164-.259.255-.433.25l-7.637-.25c-.138-.005-.246-.12-.242-.258.005-.132.112-.237.242-.242"/><path fill="#231f20" fill-rule="nonzero" d="m27.7555 46.3856997 9.895-.25-.433.25 5.164-8.445c.073-.117.226-.155.344-.082.114.069.152.216.09.332l-4.732 8.695c-.088.163-.259.254-.433.25l-9.895-.25c-.138-.004-.247-.118-.244-.256.004-.134.112-.24.244-.244"/><g fill="#231f20" fill-rule="nonzero"><path d="m34.3404 31.6740997-5.379.25.433-.25-2.906 4.533c-.075.117-.23.151-.346.076-.109-.07-.145-.212-.087-.326l2.473-4.783c.086-.166.258-.258.433-.25l5.379.25c.138.006.245.124.238.262-.006.129-.111.232-.238.238"/><path d="m35.4694 29.7184997-7.637.25.433-.25-4.035 6.489c-.073.117-.227.153-.345.08-.112-.07-.15-.215-.088-.33l3.602-6.739c.087-.164.259-.255.433-.25l7.637.25c.138.005.246.12.242.258-.005.132-.112.237-.242.242"/><path d="m36.5985 27.7628997-9.895.25.433-.25-5.164 8.445c-.073.117-.226.155-.344.082-.114-.069-.152-.216-.09-.332l4.732-8.695c.088-.163.259-.254.433-.25l9.895.25c.138.003.247.118.244.256-.004.134-.112.24-.244.244"/></g></svg>