<svg viewBox="0 0 301 339" xmlns="http://www.w3.org/2000/svg" fill-rule="evenodd" clip-rule="evenodd" stroke-miterlimit="10"><g transform="translate(.5 .688) scale(4.16667)"><path fill="none" d="M0 0h72v81H0z"/><clipPath id="prefix__a"><path d="M0 0h72v81H0z"/></clipPath><g clip-path="url(#prefix__a)"><path d="M67.177 57V21L36 3 4.823 21v36L36 75l31.177-18z" fill="#3f7faa" fill-rule="nonzero" opacity=".3"/><path d="M67.177 57V21L36 3 4.823 21v36L36 75l31.177-18z" fill="none" stroke="#231f20" stroke-width="2"/><path d="M61.513 51.828h-51l5.54-23.789h39.92l5.54 23.79z" fill="#fff" fill-rule="nonzero" stroke="#231f20" stroke-width="2"/><path d="M58.02 48.883l-22.25 2.946-21.764-2.946 4.781-23.45 17.226 2.306 17.226-2.306 4.781 23.45z" fill="#fff" fill-rule="nonzero" stroke="#231f20"/><path d="M36.013 27.738v24.09c-1.843-1.297-4.949-3.133-9.127-4.046a24.044 24.044 0 00-9.92-.074l4.135-24.09a17.293 17.293 0 017.958.355c3.311.94 5.658 2.656 6.954 3.765zM36.013 27.738v24.09c1.843-1.297 4.95-3.133 9.127-4.046a24.044 24.044 0 019.921-.074l-4.136-24.09a17.293 17.293 0 00-7.958.355c-3.31.94-5.658 2.656-6.954 3.765z" fill="#fff" fill-rule="nonzero" stroke="#231f20" stroke-linejoin="round"/><clipPath id="prefix__b"><path d="M43.317 26.02c-1.99.564-3.914 1.549-5.612 2.865v19.909a26.55 26.55 0 016.886-2.545 25.916 25.916 0 018.063-.472l-3.478-20.258a15.463 15.463 0 00-5.859.501z" clip-rule="nonzero"/></clipPath><g opacity=".5" clip-path="url(#prefix__b)"><path d="M35.858 30.418c1.35-1.128 3.774-2.857 7.171-3.793a17.928 17.928 0 018.154-.327M35.858 32.827c1.405-1.147 3.904-2.888 7.39-3.82a18.572 18.572 0 018.35-.3M35.858 35.236c1.46-1.166 4.035-2.918 7.606-3.849a19.227 19.227 0 018.547-.27M35.858 37.645c1.515-1.184 4.166-2.949 7.823-3.878a19.913 19.913 0 018.743-.242M35.858 40.054c1.57-1.203 4.296-2.98 8.041-3.906a20.58 20.58 0 018.94-.214M35.858 42.463c1.624-1.222 4.427-3.01 8.258-3.934a21.259 21.259 0 019.136-.186M35.858 44.872c1.68-1.24 4.557-3.04 8.475-3.962a21.94 21.94 0 019.332-.158" fill="none" stroke="#3f7faa" stroke-width=".5" stroke-linecap="round" stroke-linejoin="round"/></g><g opacity=".5"><path d="M30.966 28.599a18.097 18.097 0 00-3.644-1.26 45.52 45.52 0 00-2.715 3.024c.299 1.15.6 2.309.902 3.478 1.204.134 2.427.41 3.644.83.912-.82 1.82-1.558 2.714-2.217a744.418 744.418 0 00-.901-3.855z" fill="none" stroke="#3f7faa" stroke-width=".5" stroke-linecap="round" stroke-linejoin="round"/></g></g></g></svg>