<svg viewBox="0 0 300 339" xmlns="http://www.w3.org/2000/svg" fill-rule="evenodd" clip-rule="evenodd" stroke-miterlimit="10"><g transform="translate(0 .688) scale(4.16667)"><path fill="none" d="M0 0h72v81H0z"/><clipPath id="prefix__a"><path d="M0 0h72v81H0z"/></clipPath><g clip-path="url(#prefix__a)"><clipPath id="prefix__b"><path d="M4.823 21v36L36 75l31.177-18V21L36 3 4.823 21z" clip-rule="nonzero"/></clipPath><g clip-path="url(#prefix__b)"><path d="M67.177 57V21L36 3 4.823 21v36L36 75l31.177-18z" fill="#3f7faa" fill-rule="nonzero" opacity=".3"/><path d="M29.627 105.28V45.079h12.747l.05 34.402c-.114 4.269-1.023 14.037-8.215 21.808a28.596 28.596 0 01-4.583 3.993z" fill="#fff" fill-rule="nonzero" stroke="#231f20" stroke-width="2"/><path d="M44.524 45.077H27.477a2.687 2.687 0 110-5.375h17.047a2.688 2.688 0 110 5.375z" fill="#fff" fill-rule="nonzero" stroke="#231f20" stroke-width="2"/><path d="M36 14.583a3.302 3.302 0 00-3.302 3.302v21.817h6.604V17.885A3.302 3.302 0 0036 14.583" fill="#fff" fill-rule="nonzero"/><path d="M36 14.583a3.302 3.302 0 00-3.302 3.302v21.817h6.604V17.885A3.302 3.302 0 0036 14.583z" fill="none" stroke="#231f20" stroke-width="2"/><path d="M34.991 45.077v54.192M32.698 29.655h6.604M32.698 34.678h6.604M32.698 24.63h6.604M32.698 19.607h6.604" fill="none" stroke="#231f20"/></g><g><path d="M67.177 57V21L36 3 4.823 21v36L36 75l31.177-18z" fill="none" stroke="#231f20" stroke-width="2"/></g></g></g></svg>