<svg viewBox="0 0 301 338" xmlns="http://www.w3.org/2000/svg" fill-rule="evenodd" clip-rule="evenodd" stroke-linecap="round" stroke-linejoin="round" stroke-miterlimit="10"><g transform="translate(.5 .375) scale(4.16667)"><path fill="none" d="M0 0h72v81H0z"/><clipPath id="prefix__a"><path d="M0 0h72v81H0z"/></clipPath><g clip-path="url(#prefix__a)"><clipPath id="prefix__b"><path d="M4.823 22.5v36L36 76.5l31.177-18v-36L36 4.5l-31.177 18z" clip-rule="nonzero"/></clipPath><g clip-path="url(#prefix__b)"><path d="M67.177 58.324v-36L36 4.324l-31.177 18v36l31.177 18 31.177-18z" fill="#3f7faa" fill-rule="nonzero" opacity=".3"/><path d="M39.35 35.441v-6.845c-.216-1.834-1.55-12.861-3.35-12.861-1.8.001-3.129 11.027-3.343 12.861v6.845l-1.98 5.297v21.324h.854v1.414c0 .988.801 1.789 1.788 1.789h5.361c.988 0 1.788-.801 1.788-1.789v-1.414h.854V40.738l-1.972-5.297z" fill="#fff" fill-rule="nonzero" stroke="#231f20" stroke-width="2"/><path d="M30.677 40.738h10.645M32.657 35.441h6.693" fill="none" stroke="#231f20"/><path d="M31.531 61.062h8.938a.5.5 0 010 1h-8.938a.5.5 0 010-1" fill="#231f20" fill-rule="nonzero"/><path d="M52.714 36.395v-5.553c-.175-1.488-1.257-10.434-2.718-10.434s-2.538 8.945-2.713 10.434v5.553l-1.606 4.298v17.3h.693v1.148c0 .802.65 1.452 1.451 1.452h4.349a1.45 1.45 0 001.451-1.452v-1.147h.693v-17.3l-1.6-4.299z" fill="#fff" fill-rule="nonzero" stroke="#231f20" stroke-width="2"/><path d="M45.677 40.693h8.637M47.283 36.395h5.431" fill="none" stroke="#231f20"/><path d="M46.37 56.994h7.251a.5.5 0 010 1h-7.25a.5.5 0 010-1" fill="#231f20" fill-rule="nonzero"/><path d="M24.714 36.395v-5.553c-.175-1.488-1.257-10.434-2.718-10.434s-2.538 8.945-2.713 10.434v5.553l-1.606 4.298v17.3h.693v1.148c0 .802.65 1.452 1.451 1.452h4.349a1.45 1.45 0 001.451-1.452v-1.147h.693v-17.3l-1.6-4.299z" fill="#fff" fill-rule="nonzero" stroke="#231f20" stroke-width="2"/><path d="M17.677 40.693h8.637M19.283 36.395h5.431" fill="none" stroke="#231f20"/><path d="M18.37 56.994h7.251a.5.5 0 010 1h-7.25a.5.5 0 010-1" fill="#231f20" fill-rule="nonzero"/></g><g><path d="M67.177 58.5v-36L36 4.5l-31.177 18v36L36 76.5l31.177-18z" fill="none" stroke="#231f20" stroke-width="2" stroke-linecap="butt" stroke-linejoin="miter"/></g></g></g></svg>