<svg xmlns="http://www.w3.org/2000/svg" xmlns:svg="http://www.w3.org/2000/svg" fill-rule="evenodd" stroke-miterlimit="10" clip-rule="evenodd" viewBox="0 0 64.353997 74.309402" xml:space="preserve"><path fill="#fff" fill-rule="nonzero" d="M30.7065 1.2749997v-.01l-.239-.111Zm2.1807-.0099v.01l.239-.121Z"/><path fill="#231f20" fill-rule="nonzero" d="M30.7065 1.2749997v-.01l-.239-.111Zm2.1807-.0099v.01l.239-.121Z"/><path fill="#3f7faa" fill-rule="nonzero" d="M63.354 55.1546997v-36l-31.177-18-31.177 18v36l31.177 18z" opacity=".3"/><g transform="translate(-3.8229 -1.8453003)"><clipPath id="a"><path d="M4.823 21v36L36 75l31.177-18V21L36 3Z" clip-rule="nonzero"/></clipPath><g clip-path="url(#a)"><path fill="#fff" fill-rule="nonzero" stroke="#231f20" stroke-width="2" d="M7.5701 48.6098c-3.673 3.5-7.347 7-11.02 10.5l8.03 10.52 7.11-7.36 3.02 9.33c7.097 4.037 14.193 8.073 21.29 12.11l21.29-12.11 3.02-9.33 7.11 7.36 8.03-10.52c-3.677-3.503-7.353-7.007-11.03-10.51l-18.03-2.89-.74-3.56-.124-17.942h-19.058l-.068 17.972-.73 3.53z"/><path fill="none" stroke="#231f20" d="m7.4795 49.4044 28.482 7.345 29.122-7.518M36.0006 83.7093v-26.96m24.3623365 5.77864562L56.2646856 51.5072898M11.74273487 62.52773459l3.99311016-10.99431442"/><path fill="#fff" fill-rule="nonzero" d="m34.4001 31.6367-6.51-3v-3.23l8.11 3.73 8.11-3.73v3.23l-6.51 3 .094 14.584 12.406-6.783-1.737-15.105c-.408-3.556-3.285-7.67-7.941-9.535-4.334-1.735-8.344-.2-8.844 0-4.656 1.865-7.533 5.979-7.941 9.535l-1.737 15.117 12.5 6.794Z"/><path fill="#231f20" fill-rule="nonzero" d="M34.8212 31.3671c.05 4.944.08 9.917.079 14.876v.811l-.739-.372-.016-.008-12.722-6.346-.592-.295.076-.698.002-.018.933-8.123.466-4.062.234-2.03.124-1.031c.051-.378.119-.752.216-1.116.759-2.927 2.609-5.382 4.923-7.16 1.176-.887 2.45-1.577 3.861-2.094 1.408-.475 2.859-.702 4.332-.717 1.47-.012 2.956.219 4.353.727 1.388.502 2.679 1.204 3.849 2.087 2.313 1.78 4.162 4.236 4.919 7.163.097.364.164.738.216 1.117l.124 1.029.233 2.031.467 4.061.934 8.123v.001l.056.706-.57.286-12.644 6.344h-.001l-.734.402-.006-.838-.094-14.583v-.324l.291-.134 6.509-2.999h.001l-.291.454v-3.23l.709.454-.004.002-8.106 3.728-.209.096-.209-.096-8.11-3.73.709-.454v3.23l-.291-.454c2.253 1.036 4.505 2.108 6.722 3.184m-.842.539c-2.123-.923-4.211-1.852-6.298-2.815l-.291-.134v-4.331l.709.326 8.11 3.73h-.418l8.106-3.728.004-.002.709-.326v4.331l-.291.134-6.51 3 .291-.458v.001l.094 14.583-.739-.435v-.001l12.165-7.221-.514.991-.934-8.123-.467-4.062-.233-2.03-.12-1c-.042-.297-.093-.594-.173-.889-1.251-4.772-6.194-8.558-11.167-8.463-1.25.01-2.527.212-3.701.611-1.147.421-2.299 1.034-3.297 1.793-1.997 1.525-3.585 3.679-4.193 6.055-.079.295-.131.591-.172.888l-.12.999-.234 2.031-.466 4.061-.933 8.123-.002.019-.516-.993 12.245 7.224.016.009-.739.439c-.002-4.779.029-9.543.079-14.337"/></g></g><path fill="none" stroke="#231f20" stroke-width="2" d="M63.354 55.1546997v-36l-31.177-18-31.177 18v36l31.177 18z"/></svg>