<svg viewBox="0 0 300 338" xmlns="http://www.w3.org/2000/svg" fill-rule="evenodd" clip-rule="evenodd" stroke-miterlimit="10"><g transform="translate(0 .44) scale(4.16667)"><path fill="none" d="M0 0h72v81H0z"/><clipPath id="prefix__a"><path d="M0 0h72v81H0z"/></clipPath><g clip-path="url(#prefix__a)"><clipPath id="prefix__b"><path d="M4.823 22.5v36L36 76.5l31.177-18v-36L36 4.5l-31.177 18z" clip-rule="nonzero"/></clipPath><g clip-path="url(#prefix__b)"><path d="M67.177 58.5v-36L36 4.5l-31.177 18v36L36 76.5l31.177-18z" fill="#3f7faa" fill-rule="nonzero" opacity=".3"/><path d="M28.297-.837a1.588 1.588 0 011.06-1.98 1.592 1.592 0 011.978 1.077l4.855 16.265-.525 2.723-.321.07c-.31.069-.62.182-.92.337l-.535.276L28.297-.837z" fill="#fff" fill-rule="nonzero"/><path d="M29.816-3.38a2.03 2.03 0 00-.598.082A2.087 2.087 0 0027.816-.7l5.422 18.195.344 1.155 1.072-.552c.26-.134.53-.233.799-.293l.64-.142.125-.644.44-2.281.046-.24-.07-.235-4.82-16.15a2.092 2.092 0 00-1.998-1.494m0 1c.46 0 .9.3 1.04.78l4.82 16.15-.44 2.28c-.36.08-.71.21-1.04.38L28.776-.98c-.17-.58.15-1.18.73-1.36.1-.03.2-.04.31-.04" fill="#231f20" fill-rule="nonzero"/><path d="M36.366 30.77a4.375 4.375 0 01-4.37-4.37v-4.84c0-1.166.453-2.261 1.277-3.083.297-.298.61-.538.958-.733a4.38 4.38 0 01.622-.283l.827-.307-.703 3.729-.026.176c-.041.175-.048.287-.056.396v3.925c0 .816.66 1.48 1.47 1.48.83 0 1.48-.65 1.48-1.48v-3.315l.079-.122c.08-.13.14-.288.17-.459l.697-3.687.669.669a4.353 4.353 0 011.286 3.094v4.84a4.38 4.38 0 01-4.38 4.37" fill="#fff" fill-rule="nonzero"/><path d="M36.334 16.382l-1.654.61a4.898 4.898 0 00-.69.313 4.934 4.934 0 00-1.071.817 4.833 4.833 0 00-1.423 3.437v4.84a4.875 4.875 0 009.75 0v-4.84a4.846 4.846 0 00-1.433-3.447l-1.339-1.338-.35 1.86-.52 2.75a.804.804 0 01-.104.292l-.155.244v3.46c0 .55-.43.98-.98.98a.965.965 0 01-.97-.98v-3.933c.003-.05.005-.1.017-.147l.045-.143v-.095l.015-.108.296-1.558.24-1.282.325-1.732zm-1.309 1.547l-.24 1.28-.3 1.58-.03.2v.02c-.04.13-.05.27-.06.41v3.96c0 1.1.88 1.98 1.97 1.98 1.1 0 1.98-.88 1.98-1.98v-3.17c.12-.19.2-.41.24-.64l.52-2.75c.7.7 1.14 1.67 1.14 2.74v4.84a3.875 3.875 0 01-7.75 0v-4.84c0-1.07.43-2.03 1.13-2.73.25-.25.53-.47.85-.65.18-.1.36-.18.55-.25" fill="#231f20" fill-rule="nonzero"/><path d="M36.512 22.764a1.546 1.546 0 01-.54-.096 1.723 1.723 0 01-.458-.284c-.432-.329-.654-.928-.539-1.502l.84-4.433.005-.006 3.534-18.596a1.59 1.59 0 011.853-1.269c.758.16 1.3.82 1.3 1.572 0 .09-.01.167-.024.255L38.83 17.65h-.01l-.272 1.46-.45 2.361a1.593 1.593 0 01-.386.776 1.62 1.62 0 01-1.2.517" fill="#fff" fill-rule="nonzero"/><path d="M40.916-3.949a2.089 2.089 0 00-2.053 1.705l-3.15 16.547-.017.092v.011l-.34 1.8-.005.004-.057.303-.19 1-.361 1.911-.15.79-.11.58a2.046 2.046 0 00.726 1.986c.152.131.324.24.523.33l.034.015.035.013a2.055 2.055 0 00.712.126c.602 0 1.174-.248 1.569-.679.255-.279.43-.629.505-1.012l.082-.44.15-.787.219-1.125.018-.095v-.015l.144-.78.034-.18.165-.815 3.57-18.8.004-.02.006-.045a2.15 2.15 0 00.027-.32c0-.988-.708-1.854-1.683-2.06a2.168 2.168 0 00-.407-.04m0 1c.066 0 .133.006.2.02.52.11.89.57.89 1.08 0 .07-.01.13-.02.2l-3.57 18.8h-.01l-.19 1-.16.87v.01l-.22 1.13-.15.79-.08.43c-.025.128-.09.34-.262.53a1.13 1.13 0 01-1.198.29c-.11-.05-.21-.11-.3-.19-.3-.23-.46-.63-.38-1.03l.11-.58.15-.79.36-1.91.19-1c.01-.01.02-.01.03-.01l-.01-.06v-.01l.4-2.12v-.01l3.15-16.55a1.09 1.09 0 011.07-.89" fill="#231f20" fill-rule="nonzero"/><path d="M26.87 31.071c.095-.139.222-.303.376-.49 4.115-4.994 11.29-6.194 16.904-2.976l2.04 1.17c1.192 5.098.66 9.08.138 11.392-3.254 14.448-18.694 19.947-19.534 20.231a28.908 28.908 0 01-4.998 1.208c1.932-1.345 4.654-3.592 6.973-7.058.724-1.08 7.675-11.663 3.305-17.518-1.25-1.674-3.038-2.532-4.52-2.996l-.684-2.963" fill="#fff" fill-rule="nonzero"/><path d="M27.853 31.257c.254.856.479 1.695.676 2.552l-.676-.729.008.003c1.46.481 2.899 1.23 4.053 2.361 1.17 1.112 1.91 2.666 2.232 4.198.34 1.557.203 3.112-.066 4.582-.264 1.481-.737 2.89-1.293 4.247a34.003 34.003 0 01-4.33 7.593 27.435 27.435 0 01-6.375 5.952l-.36-.905h.002c1.85-.302 3.695-.774 5.424-1.444 1.738-.693 3.419-1.573 5.035-2.532a39.46 39.46 0 004.577-3.278c1.4-1.239 2.767-2.53 3.905-4.004 2.337-2.893 4.046-6.275 4.812-9.887.768-3.606.623-7.378-.26-10.962v-.002l.476.64c-.774-.436-1.577-.92-2.328-1.317-.372-.19-.736-.394-1.13-.537a8.626 8.626 0 00-1.175-.422c-1.594-.483-3.287-.665-4.944-.47a12.569 12.569 0 00-4.73 1.5c-.715.422-1.405.891-2.024 1.447-.303.284-.623.551-.89.872l-.418.462c-.08.108-.081.062-.201.08m-1.965-.372a4.72 4.72 0 01.628-.986l.487-.54c.313-.372.683-.688 1.038-1.018.723-.647 1.527-1.198 2.363-1.687a14.571 14.571 0 015.5-1.748c1.923-.222 3.887-.015 5.737.546.466.13.92.296 1.364.49.455.168.879.401 1.309.623.84.445 1.579.895 2.374 1.342l.385.217.092.423v.002c.863 3.861.933 7.932.019 11.801-.908 3.873-2.828 7.46-5.361 10.456-1.238 1.53-2.696 2.851-4.186 4.11a40.555 40.555 0 01-4.82 3.296c-1.694.956-3.433 1.82-5.266 2.506-1.854.671-3.75 1.11-5.68 1.382h-.001l-2.02.288 1.66-1.193a26.305 26.305 0 005.949-5.88 32.727 32.727 0 003.932-7.39c.489-1.302.89-2.636 1.088-3.978.206-1.334.274-2.698-.044-3.937-.31-1.23-.878-2.365-1.815-3.209-.92-.852-2.097-1.435-3.357-1.81l-.007-.002-.547-.17-.13-.56a70.573 70.573 0 01-.691-3.374" fill="#231f20" fill-rule="nonzero"/><path d="M27.155 30.113l8.291 2.986.225.08.074.165c1.435 2.704 2.242 5.762 2.221 8.835 0 3.072-.776 6.12-2.144 8.85a20.582 20.582 0 01-5.724 7.077 21.53 21.53 0 01-8.185 3.986l-.233-.972a20.534 20.534 0 007.8-3.8 19.575 19.575 0 005.447-6.736c1.306-2.606 2.038-5.501 2.04-8.405.02-2.906-.742-5.798-2.105-8.365v-.001l.3.245-8.577-2.028.57-1.917z" fill="#231f20" fill-rule="nonzero"/><path d="M46.19 28.775l-10.886 4.804" fill="none"/><path d="M46.594 29.69l-11.089 4.345-.403-.915 10.685-5.26.807 1.83z" fill="#231f20" fill-rule="nonzero"/></g><g><path d="M67.177 58.5v-36L36 4.5l-31.177 18v36L36 76.5l31.177-18z" fill="none" stroke="#231f20" stroke-width="2"/></g></g></g></svg>