<svg viewBox="0 0 300 338" xmlns="http://www.w3.org/2000/svg" fill-rule="evenodd" clip-rule="evenodd" stroke-miterlimit="10"><g transform="translate(0 .06) scale(4.16667)"><path fill="none" d="M0 0h72v81H0z"/><clipPath id="prefix__a"><path d="M0 0h72v81H0z"/></clipPath><g clip-path="url(#prefix__a)"><clipPath id="prefix__b"><path d="M4.823 22.5v36L36 76.5l31.177-18v-36L36 4.5l-31.177 18z" clip-rule="nonzero"/></clipPath><g clip-path="url(#prefix__b)"><path d="M67.177 58.5v-36L36 4.5l-31.177 18v36L36 76.5l31.177-18z" fill="#3f7faa" fill-rule="nonzero" opacity=".3"/><path d="M39.172 43.036c.213.015 4.129.239 5.638-2.27.622-1.036.627-2.194.63-2.987.005-1.197.05-2.833-1.09-4.174-1.396-1.643-3.547-1.67-3.947-1.667" fill="none" stroke="#231f20"/><path d="M38.48 40.474a3.917 3.917 0 01.838-1.584c.202-.23.416-.415.627-.577.224-.172.483-.334.765-.45a2.809 2.809 0 011.779-.139c.573.147 1.048.44 1.44.83a.5.5 0 01-.634.77l-.025-.018a2.001 2.001 0 00-.998-.352 1.43 1.43 0 00-.888.248 1.967 1.967 0 00-.36.326 2.474 2.474 0 00-.312.42c-.16.278-.25.594-.266.9a1.008 1.008 0 11-1.984-.304l.019-.07zM37.868 36.673a4.136 4.136 0 01.745-1.61c.362-.49.95-.908 1.585-1.037.313-.067.62-.07.904-.038.279.035.52.087.799.177.528.176.99.474 1.366.843a.501.501 0 01-.63.775l-.013-.01a2.421 2.421 0 00-1.576-.411c-.17.014-.32.05-.443.109-.243.118-.408.296-.54.568a2.319 2.319 0 00-.216.913 1.01 1.01 0 01-2.018-.011c0-.076.01-.15.026-.221l.01-.046z" fill="#231f20" fill-rule="nonzero"/><path d="M33.676 27.204l2.89-2.028 2.102.405s5.286-4.297 11.83-4.391l2.096-.899 2.768 8.713-1.912.399a4.934 4.934 0 00-3.098-.991 5.003 5.003 0 00-2.984 1.125c-.124-.041-1.55-.49-2.804.457-1.17.882-1.22 2.247-1.224 2.41l-3.153-.638-1.335 3.992.63 2.039.112 18.992a2.375 2.375 0 01-2.332 2.392l-1.976.029.017 2.979-3.273.047c-.005-.551-.006-.454-.011-1.005l-4.255.037-.13-21.873.485-1.621.647-5.41.658-3.547 2.233 1.52 3.145-.728-1.126-2.405z" fill="#fff" fill-rule="nonzero"/><path d="M34.159 27.333c.406.699.769 1.358 1.095 2.064l.26.56-.6.139-3.145.728-.213.049-.181-.123-2.232-1.52.773-.322-.411 2.216c-.142.738-.283 1.476-.354 2.227l-.536 4.482-.005.043-.012.04-.485 1.622.02-.146.13 21.873-.504-.496 4.255-.038.499-.004.006.499.01 1.005-.506-.495 3.273-.047-.493.503-.018-2.98-.002-.495.495-.007 1.542-.022c.563.003.887-.017 1.27-.222.358-.19.657-.498.825-.868.188-.383.188-.733.176-1.293l-.036-6.168-.073-12.337.022.145-.63-2.04-.047-.153.05-.153 1.336-3.991.14-.42.433.088 3.153.638-.6.479a3.84 3.84 0 01.418-1.593 3.457 3.457 0 011.08-1.257 3.441 3.441 0 011.543-.612 3.87 3.87 0 011.647.132l-.476.088a5.485 5.485 0 013.324-1.24 5.422 5.422 0 013.378 1.094l-.405-.091 1.912-.4-.374.64-2.77-8.711.675.308-2.094.899-.083.035-.108.005c-1.031.048-2.068.124-3.082.362a18.6 18.6 0 00-2.99.893c-.974.377-1.924.819-2.84 1.326a21.031 21.031 0 00-2.61 1.698l-.19.145-.22-.042-2.102-.404.38-.082a46.137 46.137 0 01-2.693 1.747m-.966-.258a66.043 66.043 0 013.086-2.308l.174-.121.208.04 2.102.404-.41.103c.89-.69 1.8-1.262 2.757-1.797.953-.528 1.945-.99 2.964-1.384a19.745 19.745 0 013.144-.94c1.07-.248 2.174-.333 3.274-.382l-.19.04 2.094-.898.507-.218.167.526 2.769 8.712.167.528-.541.113-1.912.4-.223.046-.182-.137a4.418 4.418 0 00-2.75-.89 4.48 4.48 0 00-2.712 1.012l-.21.17-.266-.082a2.918 2.918 0 00-1.193-.091c-.4.056-.774.203-1.098.436a2.44 2.44 0 00-.771.897c-.182.353-.293.78-.308 1.16l-.022.596-.577-.116-3.153-.638.573-.331-1.335 3.99.004-.305.629 2.04.022.07v.074l.074 12.337.036 6.168c.016.459.019 1.175-.27 1.723a2.881 2.881 0 01-1.263 1.328c-.523.314-1.267.35-1.723.338l-1.542.022.492-.503.018 2.979.003.496-.496.007-3.272.047-.502.007-.006-.503-.011-1.004.504.495-4.255.038-.501.004-.003-.502-.13-21.873v-.075l.02-.072.486-1.62-.018.083.54-4.51c.07-.753.214-1.497.356-2.242l.415-2.236.139-.754.634.432 2.232 1.519-.394-.073 3.145-.728-.34.699a38.718 38.718 0 01-1.156-2.746" fill="#231f20" fill-rule="nonzero"/><path d="M34.801 29.609l.75 1.54 1.695-.204.204-.024.174.334 2.158 4.138-.93.365-2.158-4.138.376.31-1.694.204-.431.053-.292-.6-.75-1.54.899-.438z" fill="#231f20" fill-rule="nonzero"/><path d="M33.63 36.36l.038 6.43M31.568 36.013l.038 6.43M35.687 35.954l.038 6.43" fill="none" stroke="#231f20" stroke-linecap="round" stroke-linejoin="round"/><path fill="#fff" stroke="#231f20" d="M67.547 40.289l-64.16 5.613.83 9.47 64.159-5.612z"/><path d="M63.453 44.173l.232 2.656M58.856 44.575l.232 2.656M54.26 44.977l.231 2.656M49.663 45.38l.232 2.655M45.066 45.781l.232 2.656M40.469 46.184l.232 2.655M35.872 46.586l.232 2.656M31.275 46.988l.232 2.656M26.679 47.39l.232 2.656M22.082 47.792l.232 2.656M17.485 48.194l.232 2.656M12.888 48.597l.232 2.655M8.291 48.999l.232 2.656" fill="none" stroke="#231f20" stroke-width="2" stroke-linecap="round" stroke-linejoin="round"/><path d="M24.92 36.651l6.57-1.776 15.076 4.18v6.254l-4.36 4.884v8.104a7.548 7.548 0 01-7.548 7.548h-5.964a3.774 3.774 0 01-3.774-3.774v-25.42z" fill="#fff" fill-rule="nonzero" stroke="#231f20" stroke-width="2"/><path d="M32.798 23.937l-5.867 3.24 9.853 14.728a2.574 2.574 0 004.396-2.668l-8.382-15.3z" fill="#fff" fill-rule="nonzero" stroke="#231f20" stroke-width="2"/><path fill="#fff" d="M38.852 40.345z"/><path d="M38.852 40.346h0" fill="none" stroke="#231f20" stroke-width="2" stroke-linecap="round" stroke-linejoin="round"/></g><g><path d="M67.177 58.5v-36L36 4.5l-31.177 18v36L36 76.5l31.177-18z" fill="none" stroke="#231f20" stroke-width="2"/></g></g></g></svg>