<svg xmlns="http://www.w3.org/2000/svg" xmlns:svg="http://www.w3.org/2000/svg" fill-rule="evenodd" stroke-miterlimit="10" clip-rule="evenodd" viewBox="0 0 64.353996 74.309402" xml:space="preserve"><g transform="translate(-3.8229 -1.8453003)"><clipPath id="a"><path d="M4.823 21v36L36 75l31.177-18V21L36 3Z" clip-rule="nonzero"/></clipPath><g clip-path="url(#a)"><path fill="#3f7faa" fill-rule="nonzero" d="M67.1769 57V21L35.9999 3 4.8229 21v36l31.177 18z" opacity=".3"/><path fill="#fff" fill-rule="nonzero" stroke="#231f20" stroke-width="2" d="M29.6265 105.2807v-60.203h12.747c.017 11.467.034 22.934.051 34.402-.115 4.269-1.024 14.037-8.216 21.808-1.499 1.619-3.065 2.93-4.582 3.993Zm14.8972-60.2033h-17.047c-1.485 0-2.688-1.203-2.688-2.688 0-1.484 1.203-2.687 2.688-2.687h17.047c1.484 0 2.688 1.203 2.688 2.687 0 1.485-1.204 2.688-2.688 2.688Z"/><path fill="#fff" fill-rule="nonzero" d="M36 14.5832c-1.824 0-3.302 1.478-3.302 3.302v21.817h6.604v-21.817c0-1.824-1.478-3.302-3.302-3.302"/><path fill="none" stroke="#231f20" stroke-width="2" d="M36 14.5832c-1.824 0-3.302 1.478-3.302 3.302v21.817h6.604v-21.817c0-1.824-1.478-3.302-3.302-3.302z"/><path fill="none" stroke="#231f20" d="M34.9913 45.077v54.192M32.698 29.6546h6.604m-6.604 5.0238h6.604m-6.604-10.0476h6.604m-6.604-5.0238h6.604"/></g></g><path fill="none" stroke="#231f20" stroke-width="2" d="M63.354 55.1546997v-36l-31.177-18-31.177 18v36l31.177 18z"/></svg>