<svg viewBox="0 0 300 338" xmlns="http://www.w3.org/2000/svg" fill-rule="evenodd" clip-rule="evenodd" stroke-miterlimit="10"><g transform="translate(0 .06) scale(4.16667)"><path fill="none" d="M0 0h72v81H0z"/><clipPath id="prefix__a"><path d="M0 0h72v81H0z"/></clipPath><g clip-path="url(#prefix__a)"><path d="M67.177 58.5v-36L36 4.5l-31.177 18v36L36 76.5l31.177-18z" fill="#7f5a90" fill-rule="nonzero" opacity=".3"/><path d="M67.177 58.5v-36L36 4.5l-31.177 18v36L36 76.5l31.177-18z" fill="none" stroke="#231f20" stroke-width="2"/><path d="M42.769 52.138l-6.191 11.12h-1.106l-6.191-11.12V28.34c0-4.512 3.019-8.17 6.744-8.17 3.725 0 6.744 3.658 6.744 8.17v23.798z" fill="#fff" fill-rule="nonzero" stroke="#231f20" stroke-width="2"/><path d="M45.435 61.984h-8.148l4.467-8.023 3.681 1.726v6.297zM26.565 61.984h8.148l-4.467-8.023-3.681 1.726v6.297z" fill="#fff" fill-rule="nonzero" stroke="#231f20" stroke-width="2"/><path d="M29.28 28.34H42.77M29.28 52.138H42.77" fill="none" stroke="#231f20"/><path d="M20.182 48.643l-4.115 7.39h-.735l-4.115-7.39V32.825c0-3 2.007-5.43 4.482-5.43 2.476 0 4.483 2.43 4.483 5.43v15.818z" fill="#fff" fill-rule="nonzero" stroke="#231f20"/><path d="M21.954 55.187h-5.416l2.97-5.333 2.446 1.147v4.186zM9.412 55.187h5.416l-2.97-5.333-2.446 1.147v4.186z" fill="#fff" fill-rule="nonzero" stroke="#231f20"/><path d="M11.217 32.825h8.965M11.217 48.643h8.965" fill="none" stroke="#231f20"/><path d="M60.816 48.643l-4.115 7.39h-.735l-4.115-7.39V32.825c0-3 2.007-5.43 4.482-5.43 2.476 0 4.483 2.43 4.483 5.43v15.818z" fill="#fff" fill-rule="nonzero" stroke="#231f20"/><path d="M62.588 55.187h-5.416l2.97-5.333 2.446 1.147v4.186zM50.045 55.187h5.416l-2.968-5.333-2.448 1.147v4.186z" fill="#fff" fill-rule="nonzero" stroke="#231f20"/><path d="M51.85 32.825h8.966M51.85 48.643h8.966" fill="none" stroke="#231f20"/></g></g></svg>