<svg xmlns="http://www.w3.org/2000/svg" xmlns:svg="http://www.w3.org/2000/svg" fill-rule="evenodd" stroke-linecap="round" stroke-linejoin="round" stroke-miterlimit="10" clip-rule="evenodd" viewBox="0 0 64.353996 74.309402" xml:space="preserve"><path fill="#3f7faa" fill-rule="nonzero" d="M63.354 55.1546997v-36l-31.177-18-31.177 18v36l31.177 18z" opacity=".3"/><path fill="#231f20" fill-rule="nonzero" d="m30.3035 72.0726997 1.208.697h1.331l1.208-.697-1.873-10.354Zm1.208-70.534-1.208.697 1.874 10.355 1.873-10.355-1.208-.697Zm24.1682 35.6157 7.674 1.587v-3.173Zm-54.6795 1.5871 7.674-1.587-7.674-1.587Z"/><g transform="translate(-3.8229 -1.8453003)"><clipPath id="a"><path d="M15.441 39c0 11.353 9.206 20.558 20.559 20.558 11.353 0 20.559-9.205 20.559-20.558S47.353 18.441 36 18.441c-11.353 0-20.559 9.206-20.559 20.559Z" clip-rule="nonzero"/></clipPath><g clip-path="url(#a)"><path fill="#3f7faa" fill-rule="nonzero" d="M36 18.4412c-11.353 0-20.559 9.206-20.559 20.559 0 11.353 9.206 20.558 20.559 20.558 11.353 0 20.559-9.205 20.559-20.558S47.353 18.4412 36 18.4412" opacity=".3"/><path fill="#fff" fill-rule="nonzero" d="M44.4091 34.7717c0 4.644-3.765 8.409-8.409 8.409-4.643 0-8.409-3.765-8.409-8.409s3.766-8.409 8.409-8.409c4.644 0 8.409 3.765 8.409 8.409"/><circle cx="-8.4090004" r="8.4090004" fill="none" stroke="#231f20" stroke-width="2" transform="matrix(0 -1 -1 0 36.0001 26.3627)"/><path fill="#fff" fill-rule="nonzero" stroke="#231f20" stroke-width="2" d="M45.6296 43.1797h-19.259c-5.562 0-9.992 4.653-9.72 10.208l.749 15.303c.227 4.626 4.044 8.261 8.676 8.261l2.481 22.744h14.887l2.481-22.744c4.632 0 8.449-3.635 8.676-8.261l.749-15.303c.272-5.555-4.158-10.208-9.72-10.208Z"/></g></g><g transform="matrix(-1 0 0 1 32.1771 57.7128997)"><clipPath id="b"><path d="M31.177-38.558v36L0 15.442l-31.177-18v-36L0-56.558Z" clip-rule="nonzero"/></clipPath><g clip-path="url(#b)"><circle cy="-20.559" r="20.559" fill="none" stroke="#231f20" stroke-linecap="butt" stroke-linejoin="miter" stroke-width="2"/></g></g><path fill="none" stroke="#231f20" stroke-linecap="butt" stroke-linejoin="miter" stroke-width="2" d="M63.354 55.1546997v-36l-31.177-18-31.177 18v36l31.177 18z"/></svg>