<svg xmlns="http://www.w3.org/2000/svg" xmlns:svg="http://www.w3.org/2000/svg" fill-rule="evenodd" stroke-miterlimit="10" clip-rule="evenodd" viewBox="0 0 64.353996 74.309402" xml:space="preserve"><path fill="#3f7faa" fill-rule="nonzero" d="M63.354 55.1546997v-36l-31.177-18-31.177 18v36l31.177 18z" opacity=".3"/><path fill-rule="nonzero" d="m42.6201 67.1253997 1.149-.663-4.126-9.235Zm-22.0347-59.2782 4.125 9.235-2.976-9.898Z"/><path fill-rule="nonzero" d="m42.6201 67.1253997 1.149-.663-4.126-9.235Zm-22.0347-59.2782 4.125 9.235-2.976-9.898Zm26.8995 56.4695 1.073-.62-5.466-8.043Zm-31.6893-53.7041 5.465 8.043-4.392-8.663Zm36.4668 50.9458 1.14-.658-7.192-7.382Zm-41.311-48.149 7.193 7.382-6.053-8.04Z"/><path fill-rule="nonzero" d="m52.2624 61.5583997 1.14-.658-7.192-7.382Zm-41.311-48.149 7.193 7.382-6.053-8.04Zm46.3008 45.2682 1.371-.792-9.722-7Zm-51.5211-42.2543 9.722 7.001-8.351-7.793Zm57.07481489 39.04742264.5474959-.31570928.00055654-1.3763024-12.26960118-5.94355349zM1.0007 19.1541997v1.375l12.27 5.945-11.722-7.635Z"/><path fill-rule="nonzero" d="m62.80591489 55.47072234.5474959-.31570928.00055654-1.3763024-12.26960118-5.94355349zM1.0007 19.1541997v1.375l12.27 5.945-11.722-7.635Zm62.3533 29.8782v-1.515l-10.662-3.057Zm-62.3538-22.2403 10.662 3.056-10.662-4.571Zm62.3538 16.3755v-1.254l-9.677-1.049Zm-62.3538-10.7718 9.677 1.049-9.677-2.303Z"/><path fill-rule="nonzero" d="M63.354 43.1675997v-1.254l-9.677-1.049Zm-62.3538-10.7718 9.677 1.049-9.677-2.303Zm53.0082 4.7589 9.346.588v-1.176Zm-53.0082.5877 9.346-.588-9.346-.587Zm52.677-4.2966 9.677-1.049v-1.254Zm-52.677 8.4672v1.254l9.677-2.303Z"/><path fill-rule="nonzero" d="m53.6772 33.4457997 9.677-1.049v-1.254Zm-52.677 8.4672v1.254l9.677-2.303Zm51.6915-12.0645 10.662-3.056v-1.516Zm-51.6915 17.6688v1.515l10.662-4.571Zm50.08275158-21.04314853L63.35411071 20.530082l.0002888-1.37573425-.5488247-.31639155zM1.0007 53.7798997v1.375l.548.317 11.723-7.636Z"/><path fill-rule="nonzero" d="M51.08295158 26.47415117 63.35411071 20.530082l.0002888-1.37573425-.5488247-.31639155zM1.0007 53.7798997v1.375l.548.317 11.723-7.636Zm47.9002-30.3556 9.722-7.001-1.371-.791Zm-43.1698 34.4618 1.371.792 8.351-7.793Zm40.4788-37.0952 7.193-7.382-1.141-.658Zm-35.2585 40.1091 1.14.658 6.053-8.04z"/><path fill-rule="nonzero" d="m46.2099 20.7908997 7.193-7.382-1.141-.658Zm-35.2585 40.1091 1.14.658 6.053-8.04zm32.1418-42.2448 5.465-8.043-1.073-.619Zm-27.2976 45.0416 1.073.62 4.392-8.663Zm23.8479-46.6148 4.125-9.235-1.148-.663Zm-19.0581 49.3802 1.149.663 2.976-9.898Z"/><path fill-rule="nonzero" d="m39.6435 17.0819997 4.125-9.235-1.148-.663Zm-19.0581 49.3802 1.149.663 2.976-9.898Zm15.3825-50.3441 2.764-11.179-1.39-.803Zm-10.3461 53.2519 1.391.803 1.373-11.982Zm5.64809419-67.6919174.90699248 14.11489165.90678523-14.11419977-.90646446-.5239509zm.00019252 70.95260915.90744539.52425781.90657993-.52372722-.90768898-14.1151415Z"/><path fill-rule="nonzero" d="m31.26989419 1.6780823.90699248 14.11489165.90678523-14.11419977-.90646446-.5239509zm.00019252 70.95260915.90744539.52425781.90657993-.52372722-.90768898-14.1151415ZM25.6218 4.9393997l2.764 11.179-1.373-11.982Zm11.72 65.2335 1.391-.803-2.765-11.179Z"/><path fill="none" stroke="#000" stroke-width="2" d="M63.354 55.1546997v-36l-31.177-18-31.177 18v36l31.177 18z"/><path fill="#fff" fill-rule="nonzero" d="M41.8361 37.7036997c0-8.925-3.694-13.443-9.629-19.204-5.935 5.761-9.629 10.279-9.629 19.204s3.694 13.443 9.629 19.204c5.935-5.761 9.629-10.279 9.629-19.204"/><g transform="translate(-3.8229 -3.3453003)"><clipPath id="a"><path d="M26.401 41.049c0 8.925 3.693 13.443 9.629 19.204 5.935-5.761 9.629-10.279 9.629-19.204s-3.694-13.443-9.629-19.204c-5.936 5.761-9.629 10.279-9.629 19.204z" clip-rule="nonzero"/></clipPath><g clip-path="url(#a)"><path fill="#3f7faa" fill-rule="nonzero" d="M24.45542645 43.93535064c-1.5938612-6.39229029 2.2960623-12.86776499 8.68859451-14.46065589 6.39229029-1.59386119 12.8667947 2.29630423 14.46065588 8.68859451 1.5938612 6.39229029-2.29630422 12.8667947-8.6895648 14.46089782-6.39156192 1.59264897-12.86606633-2.29751645-14.45968559-8.68883644" opacity=".3"/><circle cx="11.574" cy="2.8859999" r="11.929" fill="none" stroke="#000" transform="matrix(.24193 .9703 .9703 -.24193 30.4294 30.5164)"/><path fill-rule="nonzero" d="M29.9637409 42.62660977c-.8387921-3.36400237 1.20788825-6.77036305 4.57189062-7.60915516 3.363274-.83757988 6.76963468 1.20910048 7.60818486 4.57213255.83879211 3.36400236-1.20788825 6.77036304-4.57092032 7.60891322-3.3642443.83782182-6.77060498-1.20885854-7.60915516-4.57189061"/></g></g><path fill="none" stroke="#000" stroke-width="2" d="M41.8361 37.7036997c0-8.925-3.694-13.443-9.629-19.204-5.935 5.761-9.629 10.279-9.629 19.204s3.694 13.443 9.629 19.204c5.935-5.761 9.629-10.279 9.629-19.204z"/></svg>