<svg xmlns="http://www.w3.org/2000/svg" xmlns:svg="http://www.w3.org/2000/svg" fill-rule="evenodd" stroke-linecap="round" stroke-linejoin="round" stroke-miterlimit="10" clip-rule="evenodd" viewBox="0 0 64.353996 74.309402" xml:space="preserve"><g transform="translate(-3.8229 -1.8453003)"><clipPath id="a"><path d="M4.823 21v36L36 75l31.177-18V21L36 3Z" clip-rule="nonzero"/></clipPath><g clip-path="url(#a)"><path fill="#3f7faa" fill-rule="nonzero" d="M67.1769 57.0777v-36l-31.177-18-31.177 18v36l31.177 18z" opacity=".3"/></g></g><path fill="#fff" fill-rule="nonzero" d="m6.7332 24.1277997 5.264 13.841-5.264 13.841h48.928v-27.682z"/><path fill="none" stroke="#231f20" stroke-width="2" d="M55.6606 51.8100997H6.7336l5.264-13.841-5.264-13.842h48.927Z"/><g transform="translate(-3.8229 -1.8453003)"><clipPath id="b"><path d="M4.823 21v36L36 75l31.177-18V21L36 3Z" clip-rule="nonzero"/></clipPath><g clip-path="url(#b)"><path fill="#3f7faa" fill-rule="nonzero" d="M59.488 25.9734v27.68l-26.16-13.09v-14.59z" opacity=".4"/></g></g><path fill="none" stroke="#231f20" stroke-width="2" d="M55.6651 24.1280997v27.68l-26.16-13.09v-14.59z"/><path fill="#fff" fill-rule="nonzero" d="M29.5059 10.2857997v28.427h33.848v-19.558l-15.361-8.869z"/><g transform="matrix(-1 0 0 1 119.3271 -30.1563003)"><clipPath id="c"><path d="M118.327 49.311v36l-31.177 18-31.177-18v-36l31.177-18z" clip-rule="nonzero"/></clipPath><g clip-path="url(#c)"><path fill="none" stroke="#231f20" stroke-width="2" d="M33.328999 40.442001H89.821v28.427H33.328999z"/></g></g><path fill="none" stroke="#231f20" stroke-linecap="butt" stroke-linejoin="miter" stroke-width="2" d="M63.354 55.1546997v-36l-31.177-18-31.177 18v36l31.177 18z"/></svg>