<svg viewBox="0 0 301 338" xmlns="http://www.w3.org/2000/svg" fill-rule="evenodd" clip-rule="evenodd" stroke-miterlimit="10"><g transform="translate(.5 .375) scale(4.16667)"><path fill="none" d="M0 0h72v81H0z"/><clipPath id="prefix__a"><path d="M0 0h72v81H0z"/></clipPath><g clip-path="url(#prefix__a)"><path d="M67.177 58.5v-36L36 4.5l-31.177 18v36L36 76.5l31.177-18z" fill="#3f7faa" fill-rule="nonzero" opacity=".3"/><path d="M36 35.24l-11.159-5.885 5.885 11.16-5.885 11.16L36 45.787l11.16 5.886-5.886-11.16 5.886-11.159L36 35.24z" fill="#231f20" fill-rule="nonzero"/><path d="M28.84 33.355l-15.517 7.16 15.517 7.16L36 63.19l7.16-15.516 15.517-7.16-15.517-7.16L36 17.838l-7.16 15.517z" fill="#fff" fill-rule="nonzero"/><clipPath id="prefix__b"><path d="M4.823 22.5v36L36 76.5l31.177-18v-36L36 4.5l-31.177 18z" clip-rule="nonzero"/></clipPath><g clip-path="url(#prefix__b)"><path d="M43.16 47.675l15.516-7.16-15.516-7.16L36 17.838l-7.16 15.517-15.516 7.16 15.516 7.16L36 63.19l7.16-15.516z" fill="none" stroke="#231f20" stroke-width="2"/><path d="M41.274 40.515a5.274 5.274 0 11-10.547 0 5.274 5.274 0 0110.547 0" fill="#3f7faa" fill-rule="nonzero" opacity=".4"/><circle cx="-5.274" r="5.274" fill="none" stroke="#231f20" transform="matrix(0 -1 -1 0 36 35.24)"/></g><g><path d="M67.177 58.5v-36L36 4.5l-31.177 18v36L36 76.5l31.177-18z" fill="none" stroke="#231f20" stroke-width="2"/></g></g></g></svg>