<svg viewBox="0 0 300 338" xmlns="http://www.w3.org/2000/svg" fill-rule="evenodd" clip-rule="evenodd" stroke-miterlimit="10"><g transform="translate(0 .12) scale(4.16667)"><path fill="none" d="M0 0h72v81H0z"/><clipPath id="prefix__a"><path d="M0 0h72v81H0z"/></clipPath><g clip-path="url(#prefix__a)"><clipPath id="prefix__b"><path d="M4.823 22.5v36L36 76.5l31.177-18v-36L36 4.5l-31.177 18z" clip-rule="nonzero"/></clipPath><g clip-path="url(#prefix__b)"><path d="M67.177 58.5v-36L36 4.5l-31.177 18v36L36 76.5l31.177-18z" fill="#40834f" fill-rule="nonzero" opacity=".3"/><path d="M34.198 87.575V17.248a1.8 1.8 0 013.6 0v70.327a1.8 1.8 0 01-3.6 0z" fill="#fff" fill-rule="nonzero" stroke="#231f20"/><path d="M56.86 26.195H15.135a1.8 1.8 0 010-3.6H56.86a1.8 1.8 0 010 3.6z" fill="#fff" fill-rule="nonzero" stroke="#231f20"/><path d="M52.965 59l-16.967 9.76L19.03 59V21.219h33.934v37.78z" fill="#fff" fill-rule="nonzero" stroke="#231f20" stroke-width="2" stroke-linecap="round" stroke-linejoin="round"/><path d="M48.19 55.727l-12.192 7.48-12.192-7.48V21.219H48.19v34.508z" fill="#fff" fill-rule="nonzero" stroke="#231f20" stroke-linecap="round" stroke-linejoin="round"/></g><g><path d="M67.177 58.5v-36L36 4.5l-31.177 18v36L36 76.5l31.177-18z" fill="none" stroke="#231f20" stroke-width="2"/></g></g></g></svg>