<svg viewBox="0 0 300 338" xmlns="http://www.w3.org/2000/svg" fill-rule="evenodd" clip-rule="evenodd" stroke-miterlimit="10"><g transform="translate(0 .12) scale(4.16667)"><path fill="none" d="M0 0h72v81H0z"/><clipPath id="prefix__a"><path d="M0 0h72v81H0z"/></clipPath><g clip-path="url(#prefix__a)"><path d="M67.177 58.5v-36L36 4.5l-31.177 18v36L36 76.5l31.177-18z" fill="#3f7faa" fill-rule="nonzero" opacity=".3"/><path d="M67.177 58.5v-36L36 4.5l-31.177 18v36L36 76.5l31.177-18z" fill="none" stroke="#231f20" stroke-width="2"/><path d="M42.415 36.016c-.193.09-3.728 1.793-3.83 4.718-.043 1.209.515 2.223.897 2.92.576 1.048 1.33 2.501 2.978 3.122 2.016.76 3.91-.26 4.258-.457" fill="none" stroke="#231f20" stroke-width="2"/><path d="M44.447 38.186a3.93 3.93 0 01.037 1.79c-.066.3-.163.566-.27.81a3.44 3.44 0 01-.451.766 2.808 2.808 0 01-1.488.983 3.123 3.123 0 01-1.663-.028.501.501 0 01.182-.98l.03.002a1.99 1.99 0 001.044-.176c.298-.148.524-.374.657-.647.069-.138.118-.288.156-.46.043-.188.07-.365.07-.518a2.029 2.029 0 00-.204-.916 1.009 1.009 0 111.882-.696l.018.07zM46.825 41.213c.171.61.214 1.148.13 1.77-.08.603-.393 1.255-.885 1.675-.24.21-.509.363-.772.472a4.206 4.206 0 01-.784.233 3.573 3.573 0 01-1.604-.075.5.5 0 01.175-.983h.017a2.424 2.424 0 001.578-.403c.142-.095.254-.2.335-.31.155-.221.213-.457.195-.758a2.325 2.325 0 00-.252-.904 1.009 1.009 0 111.854-.762l.013.045z" fill="#231f20" fill-rule="nonzero"/><path d="M55.083 47.463l-1.545 3.175-2.035.665s-2.54 6.32-8.22 9.576L41.89 62.68l-6.646-6.278 1.479-1.277c.4.058 1.776.207 3.19-.635a5.003 5.003 0 002.064-2.431c.13-.024 1.594-.322 2.23-1.758.596-1.34-.021-2.557-.096-2.701l3.067-.971-.768-4.14-1.54-1.477-9.305-16.557a2.376 2.376 0 01.88-3.223l1.715-.982-1.46-2.598 2.84-1.627c.27.479.225.394.497.873l3.703-2.096 10.718 19.069.362 1.652 2.057 5.045 1.144 3.422-2.69-.247-2.397 2.162 2.15 1.557z" fill="#fff" fill-rule="nonzero"/><path d="M54.113 47.706c-.671-.31-1.228-.592-1.767-.99l-.992-.734.909-.82 2.398-2.161.325-.293.436.04 2.689.247-1.04 1.313-.711-2.128c-.233-.711-.466-1.421-.768-2.11l-1.7-4.168-.031-.08-.02-.084-.361-1.652.105.276-10.717-19.07 1.364.382-3.704 2.095-.868.492-.494-.87-.498-.872 1.368.374-2.84 1.628.375-1.358 1.459 2.597.486.865-.86.493-1.338.767-.335.192c-.096.062-.14.079-.201.134a1.376 1.376 0 00-.518 1.174c.026.33.106.478.41 1.006l3.023 5.378 6.044 10.754-.18-.231 1.54 1.478.233.223.058.316.768 4.138.16.869-.842.267-3.067.97.583-1.42c.302.605.437 1.174.465 1.814a3.937 3.937 0 01-.384 1.854 3.95 3.95 0 01-1.204 1.469 4.354 4.354 0 01-1.712.774l.747-.615a5.984 5.984 0 01-2.52 2.942 5.915 5.915 0 01-3.808.745l.797-.233-1.478 1.277.033-1.484 6.645 6.277-1.477.115 1.396-1.802.11-.142.183-.113c.85-.525 1.692-1.074 2.443-1.755a18.187 18.187 0 002.125-2.173 22.47 22.47 0 001.8-2.481 20.666 20.666 0 001.42-2.672l.189-.437.429-.14 2.034-.666-.588.513c.415-.868.9-1.642 1.474-2.494m1.94-.486a38.27 38.27 0 01-1.616 3.855l-.188.382-.4.13-2.035.667.617-.578a22.17 22.17 0 01-1.58 2.986 24.277 24.277 0 01-1.961 2.703 20.126 20.126 0 01-2.351 2.403c-.837.756-1.788 1.386-2.757 1.978l.293-.255-1.396 1.802-.675.872-.802-.758-6.645-6.277-.805-.76.838-.724 1.478-1.277.344-.297.453.064a3.913 3.913 0 002.51-.491 3.992 3.992 0 001.672-1.953l.2-.502.547-.113c.258-.053.63-.217.878-.408a1.93 1.93 0 00.597-.727c.14-.29.204-.6.192-.928a2.396 2.396 0 00-.236-.947l-.543-1.063 1.126-.357 3.067-.971-.682 1.136-.767-4.138.29.538-1.54-1.478-.106-.102-.072-.13-6.045-10.754-3.022-5.377c-.214-.35-.654-1.133-.662-1.85a3.367 3.367 0 011.282-2.886c.132-.113.318-.22.438-.294l.334-.191 1.338-.767-.374 1.357-1.46-2.597-.486-.864.86-.493 2.84-1.628.87-.5.498.875.497.873-1.363-.377 3.704-2.096.873-.494.49.874L55.33 33.382l.073.13.032.146.362 1.652-.051-.163 1.719 4.218c.304.695.542 1.419.779 2.143l.725 2.166.486 1.453-1.526-.14-2.69-.247.762-.253-2.398 2.16-.083-1.551c.895.64 1.77 1.395 2.534 2.124" fill="#231f20" fill-rule="nonzero"/><path d="M52.932 45.905l-1.403-.984-1.384 1.001-.165.12-.315-.208-3.894-2.573.637-.77 3.894 2.573-.48-.088 1.383-1 .353-.256.545.382 1.403.984-.574.82z" fill="#231f20" fill-rule="nonzero"/><path d="M50.684 39.432l-3.151-5.606M52.655 38.737l-3.15-5.606M49.082 40.785l-3.151-5.606" fill="none" stroke="#231f20" stroke-linecap="round" stroke-linejoin="round"/><path d="M31.016 14.803c-1.893 3.129-3.985 6.258-5.878 9.387a13.712 13.712 0 00-1.63 4.136h0a13.748 13.748 0 00-.301 3.367l.43 12.634 7.467.158-.031-3.821a2.856 2.856 0 01-1.342-.578c-1.036-.826-1.084-2.108-1.088-2.313l-.031-2.786 2.404-.309c-.066-6.625.066-13.25 0-19.875z" fill="#fff" fill-rule="nonzero" stroke="#231f20" stroke-width="2"/><path d="M23.682 48.87l-.476 8.477a1.224 1.224 0 01-1.007 1.137l-.236.042c-.6.107-1.03.64-1.008 1.248l.06 1.725a1.224 1.224 0 001.291 1.18l4.665-.26c.367-.02.705-.205.922-.502l3.07-4.213c.154-.213.236-.47.234-.734l-.1-9.355a1.224 1.224 0 01.86-1.182l.064-.02c.434-.135.758-.499.84-.946l.155-.84a1.224 1.224 0 00-1.333-1.439l-8.956.948a1.224 1.224 0 00-1.066.952l-.224 1.006a1.224 1.224 0 001.11 1.486 1.225 1.225 0 011.135 1.29z" fill="#fff" fill-rule="nonzero" stroke="#231f20" stroke-width="2"/><path d="M26.392 58.8a.924.924 0 11-1.307-.057.925.925 0 011.307.057" fill="#9aa3ad" fill-rule="nonzero"/><circle cx="-.682" cy="-.626" fill="none" stroke="#231f20" r=".926" transform="scale(-1 1) rotate(-47.431 55.155 57.888)"/></g></g></svg>