<svg viewBox="0 0 301 338" xmlns="http://www.w3.org/2000/svg" fill-rule="evenodd" clip-rule="evenodd" stroke-linecap="round" stroke-linejoin="round" stroke-miterlimit="10"><g transform="translate(.5 .44) scale(4.16667)"><path fill="none" d="M0 0h72v81H0z"/><clipPath id="prefix__a"><path d="M0 0h72v81H0z"/></clipPath><g clip-path="url(#prefix__a)"><path d="M67.176 58.462V22.538L36 4.577 4.824 22.537v35.925L36 76.424l31.176-17.962z" fill="#495790" fill-rule="nonzero" opacity=".3"/><path d="M11.41 53.941h49.176" fill="none" stroke="#231f20" stroke-dasharray="32 4 8 4 2"/><path d="M67.176 58.462V22.538L36 4.577 4.824 22.537v35.925L36 76.424l31.176-17.962z" fill="none" stroke="#231f20" stroke-width="2" stroke-linecap="butt" stroke-linejoin="miter"/><path d="M23.89 47.501l1.262 1.261h19.127l-1.875-2.91-19.42.46.907 1.19z" fill="#231f20" fill-rule="nonzero"/><path fill="#fff" stroke="#231f20" stroke-width=".5" stroke-linecap="butt" stroke-linejoin="miter" d="M56.032 37.49h-9.38v3.405h9.38zM50.734 34.085h-2.72v3.405h2.72zM56.122 30.68H49.87v3.405h6.252z"/><path fill="#fff" stroke="#231f20" stroke-width=".5" stroke-linecap="butt" stroke-linejoin="miter" d="M56.489 34.085h-5.755v3.405h5.755z"/><path d="M55.041 43.263L40.77 47.018l4.378 2.284h9.893l4.598-.831v-3.974l-4.598-1.234z" fill="#fff" fill-rule="nonzero" stroke="#231f20" stroke-linecap="butt" stroke-linejoin="miter"/><path d="M11.41 41.117v3.901a2 2 0 002 2h27.36l5.514-2.146h6.826l1.93-2.467-7.724-.215-5.726 1.878H16.413l-2.36-2.951H11.41z" fill="#fff" fill-rule="nonzero" stroke="#231f20" stroke-linecap="butt" stroke-linejoin="miter"/><path d="M20.276 36.932l-8.865 2.575 2.749 4.56h22.21a5.204 5.204 0 00-5.203-5.204h-9.174l-1.717-1.93zM53.122 41.633l3.432-11.526h4.814v12.447h-8.246v-.921z" fill="#fff" fill-rule="nonzero" stroke="#231f20" stroke-width="2" stroke-linecap="butt" stroke-linejoin="miter"/><path d="M26.248 32.471l-1.368 3.783 1.368 2.36" fill="none" stroke="#231f20" stroke-width="2" stroke-linecap="butt" stroke-linejoin="miter"/><path d="M18.88 44.067l2.853 2.853" fill="none" stroke="#231f20" stroke-linecap="butt" stroke-linejoin="miter"/><path d="M17.153 44.067l2.852 2.853M55.04 45.27l4.6.462" fill="none" stroke="#231f20" stroke-width=".5" stroke-linecap="butt" stroke-linejoin="miter"/><path d="M61.867 46.282v-3.02h-6.81l3.02 3.02h3.79z" fill="#fff" fill-rule="nonzero" stroke="#231f20" stroke-linecap="butt" stroke-linejoin="miter"/><path d="M55.04 49.303v-6.04" fill="none" stroke="#231f20" stroke-linecap="butt" stroke-linejoin="miter"/><path d="M59.64 47.018l-4.6.288M53.904 49.303v-5.774" fill="none" stroke="#231f20" stroke-width=".5" stroke-linecap="butt" stroke-linejoin="miter"/><path d="M40.77 47.019l3.51 1.744 6.646-3.89h-4.642l-5.514 2.146z" fill="#231f20" fill-rule="nonzero"/><path d="M13.48 39.413l1.845 2.963h20.954" fill="none" stroke="#231f20" stroke-width=".5" stroke-linecap="butt" stroke-linejoin="miter"/></g></g></svg>