<svg xmlns="http://www.w3.org/2000/svg" xmlns:svg="http://www.w3.org/2000/svg" fill-rule="evenodd" stroke-miterlimit="10" clip-rule="evenodd" viewBox="0 0 64.353996 74.309402" xml:space="preserve"><g transform="translate(-3.8229 -3.3453003)"><clipPath id="a"><path d="M4.823 22.5v36L36 76.5l31.177-18v-36L36 4.5Z" clip-rule="nonzero"/></clipPath><g clip-path="url(#a)"><path fill="#7f5a90" fill-rule="nonzero" d="M67.1769 58.5v-36l-31.177-18-31.177 18v36l31.177 18z" opacity=".3"/></g></g><path fill="#fff" fill-rule="nonzero" d="M8.6664 23.5457997v13.574h47.021v-13.574l-23.51-13.574z"/><g transform="translate(-3.8229 -3.3453003)"><clipPath id="b"><path d="M4.823 22.5v36L36 76.5l31.177-18v-36L36 4.5Z" clip-rule="nonzero"/></clipPath><g clip-path="url(#b)"><path fill="none" stroke="#231f20" d="M59.5107 40.4648v-13.574l-23.511-13.574-23.51 13.574v13.574z"/><path fill="#7f5a90" fill-rule="nonzero" d="M19.9233 39.9648v-8.782l16.077-9.282 16.076 9.282v8.782z" opacity=".4"/></g></g><path fill="#231f20" fill-rule="nonzero" d="M15.6 27.5489997v9.571h33.154v-9.571l-16.577-9.571Zm1.001.577 15.576-8.993 15.576 8.993v7.994H16.601Z"/><path fill="#fff" fill-rule="nonzero" d="M11.91 45.3383997h11.344l-5.694 19.377 14.617 8.439 14.618-8.439-5.694-19.377h11.343l-20.267-13.42z"/><g transform="translate(52.4444 85.6413997)"><clipPath id="c"><path d="M-51.444-66.487v36l31.177 18 31.177-18v-36l-31.177-18z" clip-rule="nonzero"/></clipPath><g clip-path="url(#c)"><path fill="none" stroke="#231f20" stroke-width="2" d="m0-40.303-20.267-13.42-20.267 13.42h11.343L-44.978 13.42H4.443l-15.787-53.723z"/></g></g><path fill="none" stroke="#231f20" stroke-width="2" d="M63.354 55.1546997v-36l-31.177-18-31.177 18v36l31.177 18z"/></svg>