<svg xmlns="http://www.w3.org/2000/svg" xmlns:svg="http://www.w3.org/2000/svg" fill-rule="evenodd" stroke-miterlimit="10" clip-rule="evenodd" viewBox="0 0 64.353996 74.309402" xml:space="preserve"><path fill="#7f5a90" fill-rule="nonzero" d="M63.354 55.1546997v-36l-31.177-18-31.177 18v36l31.177 18z" opacity=".3"/><path fill="none" stroke="#231f20" stroke-width="2" d="M63.354 55.1546997v-36l-31.177-18-31.177 18v36l31.177 18z"/><path fill="#fff" fill-rule="nonzero" stroke="#231f20" stroke-width="2" d="M43.6283 33.8448997v-13.223l-11.451-6.611-11.451 6.611v13.223l11.451 6.611z"/><path fill="#fff" fill-rule="nonzero" stroke="#231f20" d="m32.1771 27.2335997 11.451-6.611Z"/><path fill="none" stroke="#231f20" d="m20.7259 20.6221997 11.451 6.611v13.223"/><path fill="#fff" fill-rule="nonzero" stroke="#231f20" stroke-width="2" d="M32.1771 53.6871997v-13.223l-11.451-6.611-11.451 6.611v13.223l11.451 6.611z"/><path fill="#fff" fill-rule="nonzero" stroke="#231f20" d="m20.7259 47.0757997 11.451-6.611Z"/><path fill="none" stroke="#231f20" d="m9.2746 40.4644997 11.451 6.611v13.223"/><path fill="#fff" fill-rule="nonzero" stroke="#231f20" stroke-width="2" d="M55.0796 53.6871997v-13.223l-11.451-6.611-11.451 6.611v13.223l11.451 6.611z"/><path fill="#fff" fill-rule="nonzero" stroke="#231f20" d="m43.6283 47.0757997 11.451-6.611Z"/><path fill="none" stroke="#231f20" d="m32.1771 40.4644997 11.451 6.611v13.223"/></svg>