<svg xmlns="http://www.w3.org/2000/svg" xmlns:svg="http://www.w3.org/2000/svg" fill-rule="evenodd" stroke-linecap="round" stroke-linejoin="round" stroke-miterlimit="10" clip-rule="evenodd" viewBox="0 0 64.353996 74.309402" xml:space="preserve"><g transform="translate(-3.8231 -3.3453003)"><clipPath id="a"><path d="M4.823 22.5v36L36 76.5l31.177-18v-36L36 4.5Z" clip-rule="nonzero"/></clipPath><g clip-path="url(#a)"><path fill="#3f7faa" fill-rule="nonzero" d="M4.8231 58.5001v-36l31.177-18 31.177 18v36l-31.177 18Z" opacity=".3"/><path fill="url(#b)" fill-rule="nonzero" d="M.631.264.423.254C.36.251.31.199.31.135L0 .102v-.203l.31-.034c0-.063.05-.116.113-.119l.208-.01c.076-.004.14.057.14.133v.262c0 .076-.064.137-.14.133zM1 0C1-.063.949-.115.885-.115.822-.115.771-.063.771 0s.051.115.114.115C.949.115 1 .063 1 0Z" transform="matrix(0 -52.4234 -52.4234 0 26.8411 70.9617)"/><path fill="#fff" fill-rule="nonzero" d="M29.2108 24.0833c0 3.749 3.039 6.789 6.79 6.789 3.748 0 6.788-3.04 6.788-6.789 0-3.749-3.04-6.79-6.788-6.79-3.751 0-6.79 3.041-6.79 6.79"/><circle cx="6.789" r="6.789" fill="none" stroke="#000" stroke-width="2" transform="matrix(0 1 1 0 35.9998 17.2943)"/><path fill="#fff" fill-rule="nonzero" stroke="#000" stroke-width="2" d="M28.2256 30.8714h15.549c4.49 0 8.067 3.757 7.847 8.241l-.605 12.356c-.183 3.735-3.264 6.669-7.004 6.669l-2.003 18.363h-12.019l-2.003-18.363c-3.74 0-6.821-2.934-7.004-6.669l-.606-12.356c-.219-4.484 3.358-8.241 7.848-8.241Z"/></g></g><path fill="none" stroke="#000" stroke-linecap="butt" stroke-linejoin="miter" stroke-width="2" d="M1 55.1546997v-36l31.177-18 31.177 18v36l-31.177 18Z"/><defs><linearGradient id="b" x1="0" x2="1" y1="0" y2="0" gradientTransform="matrix(1 0 0 -1 0 .00000445)" gradientUnits="userSpaceOnUse"><stop offset="0" stop-color="#adbfd6" stop-opacity="0"/><stop offset=".44" stop-color="#adbfd6"/><stop offset="1" stop-color="#adbfd6"/></linearGradient></defs></svg>