<svg viewBox="0 0 301 339" xmlns="http://www.w3.org/2000/svg" fill-rule="evenodd" clip-rule="evenodd" stroke-miterlimit="10"><g transform="translate(.5 .75) scale(4.16667)"><path fill="none" d="M0 0h72v81H0z"/><clipPath id="prefix__a"><path d="M0 0h72v81H0z"/></clipPath><g clip-path="url(#prefix__a)"><path d="M67.177 58.5v-36L36 4.5l-31.177 18v36L36 76.5l31.177-18z" fill="#40834f" fill-rule="nonzero" opacity=".3"/><path d="M67.177 58.5v-36L36 4.5l-31.177 18v36L36 76.5l31.177-18z" fill="none" stroke="#231f20" stroke-width="2"/><path d="M23.202 58.183L11.395 41.322l8.698-18.654 14.198-1.24L23.2 58.182z" fill="#fff" fill-rule="nonzero"/><clipPath id="prefix__b"><path d="M20.093 22.667l-8.698 18.654 11.807 16.861 11.089-36.755-14.198 1.24z" clip-rule="nonzero"/></clipPath><g opacity=".4" clip-path="url(#prefix__b)"><path d="M36.688 40.367l7.594-9.512-11.536 3.882-9.512-7.593 3.874 11.541-7.593 9.512 11.535-3.882 9.52 7.588-3.882-11.536z" fill="#40834f" fill-rule="nonzero"/><path d="M32.928 33.671l2.511-.848-.918-8.186-3.664 7.378 2.07 1.656zM25.197 35.979l-8.18.914 7.371 3.668 1.657-2.07-.848-2.512zM30.869 45.381l-2.512.848.919 8.187 3.663-7.379-2.07-1.656z" fill="#40834f" fill-rule="nonzero"/></g><path d="M59.474 45.398l-11.806 16.86-20.502-1.791 26.286-27.981 6.022 12.912z" fill="#fff" fill-rule="nonzero"/><clipPath id="prefix__c"><path d="M27.167 60.467l20.501 1.791 11.806-16.86-6.021-12.912-26.286 27.981z" clip-rule="nonzero"/></clipPath><g opacity=".4" clip-path="url(#prefix__c)"><path d="M43.541 45.264l9.13-8.049-12.034 1.82-8.05-9.13 1.812 12.04-9.13 8.048 12.035-1.82L45.36 57.3l-1.82-12.035z" fill="#40834f" fill-rule="nonzero"/><path d="M41 38.017l2.621-.399.518-8.221-4.889 6.63 1.75 1.99zM32.987 38.947l-8.215-.52 6.623 4.893 1.99-1.751-.398-2.622zM36.94 49.191l-2.62.4-.518 8.22 4.888-6.63-1.75-1.99zM44.954 48.261l8.218.51-6.63-4.89-1.987 1.76.4 2.62z" fill="#40834f" fill-rule="nonzero"/></g><path d="M51.684 24.39L27.937 54.556l14.25-35.65 6.331-.001 3.166 5.485z" fill="#fff" fill-rule="nonzero"/><clipPath id="prefix__d"><path d="M42.187 18.906l-14.25 35.649L51.684 24.39l-3.165-5.485-6.332.001z" clip-rule="nonzero"/></clipPath><g opacity=".4" clip-path="url(#prefix__d)"><path d="M42.924 37.99l8.394-8.813-11.83 2.862-8.815-8.394 2.854 11.835-8.393 8.814 11.83-2.862 8.822 8.389-2.862-11.83z" fill="#40834f" fill-rule="nonzero"/><path d="M39.761 30.992l2.576-.626-.202-8.235-4.292 7.031 1.918 1.83zM31.858 32.618l-8.227.198 7.023 4.296 1.83-1.919-.626-2.575zM36.69 42.478l-2.576.626.202 8.235 4.292-7.031-1.918-1.83zM44.593 40.853l8.23-.209-7.03-4.293-1.826 1.926.626 2.576z" fill="#40834f" fill-rule="nonzero"/></g><path d="M42.187 18.907l6.332-.002 3.165 5.485" fill="none" stroke="#231f20" stroke-width="2" stroke-linecap="round" stroke-linejoin="round"/><path d="M52.47 25.008L28.723 55.174a1.001 1.001 0 01-1.715-.99l14.25-35.649a.5.5 0 11.929.371l-14.25 35.65 23.747-30.167a.5.5 0 01.786.62" fill="#231f20" fill-rule="nonzero"/><path d="M53.453 32.485l6.02 12.912-11.805 16.861-20.501-1.792" fill="none" stroke="#231f20" stroke-width="2" stroke-linecap="round" stroke-linejoin="round"/><g><path d="M26.438 59.782L52.724 31.8a.5.5 0 11.729.684L27.167 60.467a.5.5 0 01-.73-.685" fill="#231f20" fill-rule="nonzero"/></g><g><path d="M23.202 58.182l-11.807-16.86 8.698-18.655 14.198-1.24" fill="none" stroke="#231f20" stroke-width="2" stroke-linecap="round" stroke-linejoin="round"/></g><g><path d="M35.249 21.716L24.159 58.47a.5.5 0 11-.957-.29l11.09-36.754a.5.5 0 11.957.289" fill="#231f20" fill-rule="nonzero"/></g></g></g></svg>