<svg viewBox="0 0 301 338" xmlns="http://www.w3.org/2000/svg" fill-rule="evenodd" clip-rule="evenodd" stroke-linecap="round" stroke-linejoin="round" stroke-miterlimit="10"><g transform="translate(.5 .375) scale(4.16667)"><path fill="none" d="M0 0h72v81H0z"/><clipPath id="prefix__a"><path d="M0 0h72v81H0z"/></clipPath><g clip-path="url(#prefix__a)"><clipPath id="prefix__b"><path d="M4.823 22.5v36L36 76.5l31.177-18v-36L36 4.5l-31.177 18z" clip-rule="nonzero"/></clipPath><g clip-path="url(#prefix__b)"><path d="M67.177 58.5v-36L36 4.5l-31.177 18v36L36 76.5l31.177-18z" fill="#3f7faa" fill-rule="nonzero" opacity=".3"/></g><path d="M46.443 70.47l1.149-.662-4.126-9.235 2.977 9.898zM24.408 11.193l4.125 9.235-2.976-9.898-1.149.663z" fill="#231f20" fill-rule="nonzero"/><path d="M46.443 70.47l1.149-.662-4.126-9.235 2.977 9.898zM24.408 11.193l4.125 9.235-2.976-9.898-1.149.663zM51.308 67.662l1.074-.62L46.916 59l4.392 8.663zM19.619 13.958L25.084 22l-4.392-8.663-1.073.62zM56.085 64.904l1.14-.658-7.192-7.382 6.052 8.04zM14.774 16.755l7.193 7.382-6.053-8.04-1.14.658z" fill="#231f20" fill-rule="nonzero"/><path d="M56.085 64.904l1.14-.658-7.192-7.382 6.052 8.04zM14.774 16.755l7.193 7.382-6.053-8.04-1.14.658zM61.075 62.023l1.371-.792-9.722-7 8.351 7.792zM9.554 19.769l9.722 7-8.351-7.792-1.371.792zM4.824 22.5v1.374l12.27 5.945-11.722-7.635-.548.315z" fill="#231f20" fill-rule="nonzero"/><path d="M4.824 22.5v1.374l12.27 5.945-11.722-7.635-.548.315zM67.177 52.378v-1.515l-10.662-3.057 10.662 4.572zM4.823 30.137l10.662 3.056-10.662-4.57v1.514zM67.177 46.513v-1.254l-9.677-1.05 9.677 2.304zM4.823 35.741l9.677 1.05-9.677-2.304v1.254z" fill="#231f20" fill-rule="nonzero"/><path d="M67.177 46.513v-1.254l-9.677-1.05 9.677 2.304zM4.823 35.741l9.677 1.05-9.677-2.304v1.254zM57.831 40.5l9.346.588v-1.176l-9.346.588zM4.823 41.088l9.346-.588-9.346-.587v1.175zM57.5 36.791l9.677-1.049v-1.254L57.5 36.791zM4.823 45.258v1.254L14.5 44.21l-9.677 1.05z" fill="#231f20" fill-rule="nonzero"/><path d="M57.5 36.791l9.677-1.049v-1.254L57.5 36.791zM4.823 45.258v1.254L14.5 44.21l-9.677 1.05zM56.515 33.194l10.662-3.056v-1.516l-10.662 4.572zM4.823 50.863v1.515l10.662-4.571-10.662 3.056zM54.906 29.82l12.271-5.945V22.5l-.549-.317-11.722 7.636z" fill="#231f20" fill-rule="nonzero"/><path d="M54.906 29.82l12.271-5.945V22.5l-.549-.317-11.722 7.636zM52.724 26.77l9.722-7.001-1.371-.791-8.351 7.792zM9.554 61.231l1.371.792 8.351-7.793-9.722 7.001zM50.033 24.136l7.193-7.382-1.141-.658-6.052 8.04zM14.774 64.245l1.14.658 6.053-8.04-7.193 7.382z" fill="#231f20" fill-rule="nonzero"/><path d="M50.033 24.136l7.193-7.382-1.141-.658-6.052 8.04zM14.774 64.245l1.14.658 6.053-8.04-7.193 7.382zM46.916 22l5.465-8.042-1.073-.62-4.392 8.663zM19.619 67.042l1.073.62L25.084 59l-5.465 8.043zM43.466 20.427l4.125-9.235-1.148-.663-2.977 9.898zM24.408 69.808l1.15.662 2.975-9.897-4.125 9.235z" fill="#231f20" fill-rule="nonzero"/><path d="M43.466 20.427l4.125-9.235-1.148-.663-2.977 9.898zM24.408 69.808l1.15.662 2.975-9.897-4.125 9.235zM39.79 19.463l2.765-11.179-1.39-.803-1.374 11.982zM29.445 72.715l1.39.803 1.374-11.982-2.764 11.18zM35.093 5.023L36 19.138l.907-14.114L36 4.5l-.907.523zM35.093 75.976L36 76.5l.907-.523-.908-14.116-.906 14.115z" fill="#231f20" fill-rule="nonzero"/><path d="M35.093 5.023L36 19.138l.907-14.114L36 4.5l-.907.523zM35.093 75.976L36 76.5l.907-.523-.908-14.116-.906 14.115zM29.445 8.285l2.764 11.179-1.373-11.982-1.391.803zM41.165 73.518l1.39-.803-2.764-11.179 1.374 11.982z" fill="#231f20" fill-rule="nonzero"/><clipPath id="prefix__c"><path d="M4.823 22.5v36L36 76.5l31.177-18v-36L36 4.5l-31.177 18z" clip-rule="nonzero"/></clipPath><g clip-path="url(#prefix__c)"><path d="M47.535 40.757c0 6.37-5.164 11.535-11.535 11.535-6.37 0-11.535-5.164-11.535-11.535S29.63 29.222 36 29.222s11.535 5.164 11.535 11.535" fill="#fff" fill-rule="nonzero"/><circle cx="-11.535" r="11.535" fill="none" stroke="#231f20" stroke-width="2" transform="matrix(0 -1 -1 0 36 29.222)"/><path d="M49.21 52.292H22.79c-7.63 0-13.708 6.383-13.335 14.004l1.028 20.993c.311 6.347 5.547 11.333 11.901 11.333l3.404 31.202h20.423l3.404-31.202c6.354 0 11.59-4.986 11.901-11.333l1.03-20.993c.372-7.621-5.706-14.004-13.336-14.004z" fill="#fff" fill-rule="nonzero" stroke="#231f20" stroke-width="2"/></g><g><path d="M67.177 58.5v-36L36 4.5l-31.177 18v36L36 76.5l31.177-18z" fill="none" stroke="#231f20" stroke-width="2" stroke-linecap="butt" stroke-linejoin="miter"/></g></g></g></svg>