<svg viewBox="0 0 301 338" xmlns="http://www.w3.org/2000/svg" fill-rule="evenodd" clip-rule="evenodd" stroke-miterlimit="10"><g transform="translate(.5 .12) scale(4.16667)"><path fill="none" d="M0 0h72v81H0z"/><clipPath id="prefix__a"><path d="M0 0h72v81H0z"/></clipPath><g clip-path="url(#prefix__a)"><path d="M36 76.5l31.177-18v-36L36 4.5l-31.177 18v36L36 76.5z" fill="#3d8b8a" fill-rule="nonzero" opacity=".3"/><clipPath id="prefix__b"><path d="M4.823 22.5v36L36 76.5l31.177-18v-36L36 4.5l-31.177 18z" clip-rule="nonzero"/></clipPath><g clip-path="url(#prefix__b)"><path d="M45.433 22.227v-6.5l-5.63-3.25V5.974" fill="none" stroke="#231f20"/><path d="M45.433 19.32a2.908 2.908 0 110 5.816 2.908 2.908 0 010-5.816" fill="#fff" fill-rule="nonzero"/><circle cy="-2.908" r="2.908" fill="none" stroke="#231f20" transform="matrix(-1 0 0 1 45.433 25.136)"/><path d="M26.553 22.227v-6.5l5.63-3.25V5.974" fill="none" stroke="#231f20"/><path d="M26.553 19.32a2.908 2.908 0 100 5.816 2.908 2.908 0 000-5.816" fill="#fff" fill-rule="nonzero"/><circle cy="-2.908" r="2.908" fill="none" stroke="#231f20" transform="matrix(-1 0 0 1 26.553 25.136)"/><path d="M35.993-3.941V18.93" fill="none" stroke="#231f20"/><path d="M35.993 21.838a2.908 2.908 0 110-5.816 2.908 2.908 0 010 5.816" fill="#fff" fill-rule="nonzero"/><path d="M35.993 21.838a2.908 2.908 0 110-5.816 2.908 2.908 0 010 5.816zM26.553 58.773v6.5l5.63 3.25v6.502" fill="none" stroke="#231f20"/><path d="M26.553 61.68a2.908 2.908 0 110-5.816 2.908 2.908 0 010 5.817" fill="#fff" fill-rule="nonzero"/><path d="M26.553 61.68a2.908 2.908 0 110-5.816 2.908 2.908 0 010 5.817zM45.433 58.773v6.5l-5.63 3.25v6.502" fill="none" stroke="#231f20"/><path d="M45.433 61.68a2.908 2.908 0 100-5.816 2.908 2.908 0 000 5.817" fill="#fff" fill-rule="nonzero"/><path d="M45.433 61.68a2.908 2.908 0 100-5.816 2.908 2.908 0 000 5.817zM35.993 84.941V62.07" fill="none" stroke="#231f20"/><path d="M35.993 59.162a2.908 2.908 0 110 5.816 2.908 2.908 0 010-5.816" fill="#fff" fill-rule="nonzero"/><circle cy="-2.908" r="2.908" fill="none" stroke="#231f20" transform="matrix(-1 0 0 1 35.993 64.978)"/><path d="M17.873 35.78h-6.5l-3.25 5.63H1.62" fill="none" stroke="#231f20"/><path d="M12.966 35.78a2.908 2.908 0 115.816 0 2.908 2.908 0 01-5.816 0" fill="#fff" fill-rule="nonzero"/><circle cx="2.908" r="2.908" fill="none" stroke="#231f20" transform="matrix(0 1 1 0 15.873 32.872)"/><path d="M-10.295 45.22h22.872" fill="none" stroke="#231f20"/><path d="M15.484 45.22a2.908 2.908 0 10-5.816 0 2.908 2.908 0 005.816 0" fill="#fff" fill-rule="nonzero"/><circle cx="-2.908" r="2.908" fill="none" stroke="#231f20" transform="matrix(0 -1 -1 0 12.576 42.312)"/><path d="M54.257 35.78h6.501l3.25 5.63h6.501" fill="none" stroke="#231f20"/><path d="M59.165 35.78a2.908 2.908 0 10-5.816 0 2.908 2.908 0 005.816 0" fill="#fff" fill-rule="nonzero"/><circle cx="-2.908" r="2.908" fill="none" stroke="#231f20" transform="matrix(0 -1 -1 0 56.257 32.872)"/><path d="M82.426 45.22H59.554" fill="none" stroke="#231f20"/><path d="M56.646 45.22a2.908 2.908 0 115.816 0 2.908 2.908 0 01-5.816 0" fill="#fff" fill-rule="nonzero"/><circle cx="2.908" r="2.908" fill="none" stroke="#231f20" transform="matrix(0 1 1 0 59.554 42.312)"/><path d="M37.145 45.581a5.237 5.237 0 11-2.534-10.162 5.237 5.237 0 012.534 10.162m6.253 1.853c.75-1.296 1.498-2.592 2.246-3.888l2.9-.35a13.355 13.355 0 000-5.394l-2.903-.352-2.243-3.888 1.146-2.683-4.672-2.694-1.754 2.333h-4.485l-1.753-2.333-4.669 2.694 1.143 2.683-2.243 3.888-2.899.351v5.394l2.895.351c.75 1.296 1.498 2.592 2.246 3.888l-1.142 2.683 4.666 2.698 1.756-2.337h4.485l1.757 2.337 4.67-2.698-1.147-2.683z" fill="#fff" fill-rule="nonzero"/><path d="M37.145 45.581a5.237 5.237 0 11-2.534-10.162 5.237 5.237 0 012.534 10.162zm6.253 1.853c.75-1.296 1.498-2.592 2.246-3.888l2.9-.35a13.355 13.355 0 000-5.394l-2.903-.352-2.243-3.888 1.146-2.683-4.672-2.694-1.754 2.333h-4.485l-1.753-2.333-4.669 2.694 1.143 2.683-2.243 3.888-2.899.351v5.394l2.895.351c.75 1.296 1.498 2.592 2.246 3.888l-1.142 2.683 4.666 2.698 1.756-2.337h4.485l1.757 2.337 4.67-2.698-1.147-2.683z" fill="none" stroke="#231f20" stroke-width="2"/></g><g><path d="M36 76.5l31.177-18v-36L36 4.5l-31.177 18v36L36 76.5z" fill="none" stroke="#231f20" stroke-width="2"/></g></g></g></svg>