<svg xmlns="http://www.w3.org/2000/svg" xmlns:svg="http://www.w3.org/2000/svg" fill-rule="evenodd" stroke-linecap="round" stroke-linejoin="round" stroke-miterlimit="10" clip-rule="evenodd" viewBox="0 0 64.353996 74.309402" xml:space="preserve"><g transform="translate(-3.8229 -3.3453003)"><clipPath id="a"><path d="M4.823 22.5v36L36 76.5l31.177-18v-36L36 4.5Z" clip-rule="nonzero"/></clipPath><g clip-path="url(#a)"><path fill="#3f7faa" fill-rule="nonzero" d="M67.1769 58.5v-36l-31.177-18-31.177 18v36l31.177 18z" opacity=".3"/><path fill="#231f20" fill-rule="nonzero" d="M75.7813 30.9191c.285 1.685.175 3.442-.338 5.079-.503 1.64-1.32 3.174-2.313 4.571-2.009 2.791-4.645 5.076-7.479 6.997-5.703 3.84-12.219 6.336-18.887 7.921-6.674 1.541-13.665 2.156-20.491.974-3.393-.605-6.764-1.662-9.733-3.552-1.439-1.008-2.777-2.206-3.758-3.723-.903-1.543-1.463-3.367-1.239-5.206.217-1.828 1.091-3.478 2.169-4.875 1.076-1.419 2.414-2.587 3.823-3.619 2.827-2.072 6.02-3.549 9.316-4.63l1.239-.402 1.258-.335c.835-.241 1.685-.415 2.535-.59 1.697-.364 3.434-.585 5.175-.689 3.476-.18 7.042.069 10.406 1.317 1.665.632 3.307 1.524 4.593 2.933.602.732 1.16 1.559 1.405 2.522.328.924.3 2.034.016 2.966-.109.493-.348.913-.545 1.357-.26.394-.485.827-.794 1.172-.564.753-1.25 1.362-1.946 1.944-1.413 1.139-2.988 2.007-4.618 2.702-1.634.692-3.332 1.205-5.057 1.571-1.725.375-3.512.571-5.302.539-1.791-.028-3.603-.296-5.355-.959-.87-.352-1.73-.802-2.495-1.47-.76-.655-1.418-1.613-1.612-2.725l-.006-.037c-.095-.545.269-1.063.813-1.158.545-.094 1.063.27 1.158.814.001.01.003.024.005.033.167 1.196 1.44 2.173 2.853 2.743 1.444.568 3.061.843 4.687.885 3.25.088 6.579-.635 9.634-1.85 1.521-.625 2.98-1.413 4.244-2.408.619-.506 1.23-1.034 1.698-1.651.27-.289.435-.627.657-.939.146-.338.347-.664.42-1.014.209-.692.252-1.38.012-2.077-.161-.71-.584-1.339-1.047-1.93-1.016-1.143-2.443-1.972-3.954-2.562-3.056-1.182-6.467-1.482-9.799-1.345-3.345.142-6.678.846-9.894 1.833-3.209 1.008-6.318 2.405-9.041 4.352-1.357.967-2.637 2.062-3.646 3.363-1.016 1.281-1.807 2.762-2.012 4.341-.215 1.569.25 3.187 1.045 4.595.872 1.381 2.098 2.515 3.446 3.485 2.796 1.829 6.064 2.91 9.38 3.541 6.68 1.241 13.602.727 20.246-.724 6.638-1.492 13.145-3.894 18.859-7.64 2.84-1.876 5.487-4.114 7.517-6.863 1.003-1.377 1.834-2.89 2.355-4.517.529-1.622.661-3.371.397-5.06"/><path fill="#231f20" fill-rule="nonzero" d="M-3.7814 50.4602c-.285-1.685-.175-3.442.338-5.079.503-1.64 1.32-3.174 2.313-4.571 2.009-2.791 4.645-5.076 7.479-6.997 5.703-3.84 12.219-6.336 18.887-7.921 6.674-1.541 13.665-2.156 20.491-.974 3.393.605 6.764 1.662 9.733 3.552 1.439 1.007 2.777 2.206 3.758 3.723.903 1.543 1.463 3.367 1.239 5.206-.217 1.828-1.091 3.478-2.169 4.875-1.076 1.419-2.414 2.587-3.822 3.619-2.828 2.072-6.021 3.549-9.317 4.63l-1.239.402-1.258.335c-.835.241-1.685.415-2.535.59-1.697.364-3.434.585-5.175.689-3.476.18-7.042-.069-10.406-1.317-1.665-.632-3.307-1.524-4.593-2.933-.602-.732-1.16-1.559-1.405-2.522-.328-.924-.3-2.034-.016-2.966.109-.493.348-.913.545-1.357.26-.394.485-.827.794-1.172.564-.753 1.25-1.363 1.946-1.944 1.413-1.139 2.988-2.007 4.618-2.702 1.634-.692 3.332-1.205 5.057-1.571 1.725-.375 3.512-.571 5.302-.539 1.791.028 3.603.296 5.355.959.87.352 1.73.802 2.495 1.47.76.655 1.418 1.613 1.612 2.725l.006.037c.095.545-.269 1.063-.813 1.158-.545.094-1.063-.27-1.158-.814-.001-.01-.003-.024-.005-.033-.167-1.196-1.44-2.173-2.853-2.743-1.444-.568-3.061-.843-4.687-.885-3.25-.088-6.579.635-9.634 1.85-1.521.625-2.98 1.413-4.244 2.408-.619.506-1.23 1.034-1.698 1.651-.27.288-.435.627-.657.939-.146.338-.347.664-.42 1.013-.209.693-.252 1.381-.012 2.078.161.71.584 1.339 1.047 1.93 1.016 1.143 2.443 1.972 3.954 2.562 3.056 1.182 6.467 1.482 9.799 1.345 3.345-.143 6.678-.846 9.894-1.833 3.209-1.008 6.318-2.405 9.041-4.352 1.357-.967 2.637-2.062 3.646-3.363 1.016-1.281 1.807-2.762 2.013-4.341.214-1.569-.251-3.187-1.046-4.595-.872-1.381-2.098-2.515-3.446-3.485-2.796-1.829-6.064-2.91-9.38-3.541-6.68-1.241-13.602-.727-20.246.724-6.638 1.492-13.145 3.894-18.859 7.64-2.84 1.876-5.487 4.114-7.517 6.863-1.003 1.377-1.834 2.89-2.355 4.517-.529 1.622-.661 3.371-.397 5.06"/><path fill="#fff" fill-rule="nonzero" d="M45.3798973 39.24843737c.47557846 2.69130388-3.31321855 5.6095776-8.46063109 6.51824664-5.14677503.90652577-9.70520215-.53986513-10.1797958-3.23134266-.47459365-2.69147753 3.31420337-5.60975125 8.4606311-6.51824664 5.14775984-.90669942 9.7050285.53888032 10.1797958 3.23134266"/><ellipse cx="-9.3199997" cy="-1.643" fill="none" stroke="#231f20" stroke-width="2" rx="4.9499998" ry="9.4639997" transform="scale(-1 1) rotate(-80 2.65583666 35.55807677)"/></g></g><path fill="none" stroke="#231f20" stroke-linecap="butt" stroke-linejoin="miter" stroke-width="2" d="M63.354 55.1546997v-36l-31.177-18-31.177 18v36l31.177 18z"/><path fill="none" stroke="#231f20" stroke-linecap="butt" stroke-linejoin="miter" d="M17.4361 17.9325997h4.059m-2.0301 2.0299v-4.06"/><path fill="none" stroke="#231f20" stroke-linecap="butt" stroke-linejoin="miter" stroke-width=".5" d="M29.7008 60.3443997h3.294m-1.6469 1.647v-3.294"/><path fill="none" stroke="#231f20" stroke-linecap="butt" stroke-linejoin="miter" d="M35.0537 62.5796997h4.941m-2.4709 2.471v-4.942"/><path fill="none" stroke="#231f20" stroke-linecap="butt" stroke-linejoin="miter" stroke-width=".5" d="M47.8626 18.7119997h3.676m-1.8378 1.8382v-3.676"/><path fill="none" stroke="#231f20" stroke-linecap="butt" stroke-linejoin="miter" stroke-width="2" d="M23.2434 12.9325997h6.68m-3.3402 3.3397v-6.68"/><path fill="none" stroke="#231f20" stroke-linecap="butt" stroke-linejoin="miter" d="M6.289 51.5796997h3.765m-1.8831 1.8828v-3.766"/><path fill="none" stroke="#231f20" stroke-linecap="butt" stroke-linejoin="miter" stroke-width="2" d="M41.8184 56.9812997h7.529m-3.7647 3.7652v-7.53"/><ellipse cx="-1.882" fill="none" stroke="#231f20" stroke-linecap="butt" stroke-linejoin="miter" rx="1.882" ry="1.883" transform="matrix(0 -1 -1 0 43.7007 13.4618997)"/></svg>