<svg viewBox="0 0 300 339" xmlns="http://www.w3.org/2000/svg" fill-rule="evenodd" clip-rule="evenodd" stroke-miterlimit="10"><g transform="translate(0 .688) scale(4.16667)"><path fill="none" d="M0 0h72v81H0z"/><clipPath id="prefix__a"><path d="M0 0h72v81H0z"/></clipPath><g clip-path="url(#prefix__a)"><clipPath id="prefix__b"><path d="M4.823 22.5v36l31.154 18 31.154-18v-36l-31.154-18-31.154 18z" clip-rule="nonzero"/></clipPath><g clip-path="url(#prefix__b)"><path d="M50.936 40.5c0 8.284-6.71 15-14.989 15-8.278 0-14.989-6.716-14.989-15 0-8.284 6.711-15 14.99-15 8.277 0 14.988 6.716 14.988 15" fill="#3f7faa" fill-rule="nonzero" opacity=".4"/><path d="M35.947 24.5c-8.816 0-15.988 7.178-15.988 16s7.172 16 15.988 16c8.816 0 15.988-7.178 15.988-16s-7.172-16-15.988-16m0 34c-9.918 0-17.987-8.075-17.987-18s8.069-18 17.987-18c9.918 0 17.987 8.075 17.987 18s-8.07 18-17.987 18" fill="#3f7faa" fill-rule="nonzero" opacity=".3"/><path d="M35.947 21C25.203 21 16.46 29.748 16.46 40.5S25.203 60 35.947 60s19.486-8.748 19.486-19.5S46.69 21 35.947 21m0 40c-11.295 0-20.485-9.196-20.485-20.5S24.652 20 35.947 20s20.485 9.196 20.485 20.5S47.242 61 35.947 61" fill="#3f7faa" fill-rule="nonzero" opacity=".2"/><path d="M35.947 17.75c-12.535 0-22.733 10.206-22.733 22.75s10.198 22.75 22.733 22.75S58.68 53.044 58.68 40.5 48.482 17.75 35.947 17.75m0 46c-12.811 0-23.233-10.43-23.233-23.25s10.422-23.25 23.233-23.25c12.81 0 23.233 10.43 23.233 23.25S48.758 63.75 35.947 63.75" fill="#3f7faa" fill-rule="nonzero" opacity=".1"/><path d="M67.131 58.5v-36l-31.154-18-31.154 18v36l31.154 18 31.154-18z" fill="#3f7faa" fill-rule="nonzero" opacity=".3"/><path d="M31.355 42.147a18.705 18.705 0 012.195 4.33 18.682 18.682 0 014.852-.093 62.889 62.889 0 002.47-8.42 62.65 62.65 0 00.905-5.19 62.574 62.574 0 00-10.423 9.372M14.627 72.81L29.3 48.374a14.122 14.122 0 00-3.383-5.57l-.626-.636.561-.694a67.344 67.344 0 018.774-8.998 67.31 67.31 0 0110.826-7.504l1.52-.846-.034 1.74a67.381 67.381 0 01-1.539 13.087 67.534 67.534 0 01-3.819 11.978l-.35.822-.857-.256a14.115 14.115 0 00-6.499-.375L19.2 75.56l-4.573-2.75z" fill="#fff" fill-rule="nonzero"/><path d="M32.612 42.243a61.903 61.903 0 017.813-7.218 61.898 61.898 0 01-2.7 10.294 19.559 19.559 0 00-2.609-.012c-.303.02-.606.045-.909.077a19.796 19.796 0 00-1.595-3.141m15.391-19.836l-3.038 1.691a68.368 68.368 0 00-10.988 7.616 68.44 68.44 0 00-8.905 9.132l-1.12 1.39 1.252 1.27a13.143 13.143 0 013 4.751l-13.92 23.181-1.029 1.714 1.713 1.03 2.86 1.72 1.714 1.03 1.03-1.716 13.918-23.18c.345-.049.69-.084 1.034-.106a13.174 13.174 0 014.563.525l1.712.511.7-1.644a68.388 68.388 0 003.876-12.155 68.448 68.448 0 001.562-13.284l.066-3.476zm-4.983 8.297a63.614 63.614 0 00-6.043 4.544 63.674 63.674 0 00-6.897 6.835 17.794 17.794 0 012.79 5.527 17.782 17.782 0 016.186-.13 63.499 63.499 0 003.964-16.776m2.917-4.858a66.249 66.249 0 01-5.279 24.693 15.157 15.157 0 00-5.257-.605c-.783.05-1.504.155-2.156.291L18.858 74.187 16 72.468l14.387-23.962a15.161 15.161 0 00-3.757-6.403 66.166 66.166 0 0119.308-16.257" fill="#231f20" fill-rule="nonzero"/><path d="M45.938 25.846l-4.582 7.629" fill="none" stroke="#231f20"/><path d="M33.708 46.221l-4.614 7.8" fill="none"/><path d="M34.14 46.476l-4.616 7.8-.254.43-.86-.508.254-.43 4.614-7.801.255-.43.861.509-.255.43z" fill="#231f20" fill-rule="nonzero"/><path d="M27.227 52.45a7.51 7.51 0 004.069 2.446l-.435 1.952a9.516 9.516 0 01-5.154-3.098l1.52-1.3z" fill="#231f20" fill-rule="nonzero"/></g><path d="M67.131 58.5v-36l-31.154-18-31.154 18v36l31.154 18 31.154-18z" fill="none" stroke="#231f20" stroke-width="2"/></g></g></svg>