<svg viewBox="0 0 300 338" xmlns="http://www.w3.org/2000/svg" fill-rule="evenodd" clip-rule="evenodd" stroke-miterlimit="10"><g transform="translate(0 .44) scale(4.16667)"><path fill="none" d="M0 0h72v81H0z"/><clipPath id="prefix__a"><path d="M0 0h72v81H0z"/></clipPath><g clip-path="url(#prefix__a)"><path d="M67.177 58.5v-36L36 4.5l-31.177 18v36L36 76.5l31.177-18z" fill="#3d8b8a" fill-rule="nonzero" opacity=".3"/><path d="M67.177 58.5v-36L36 4.5l-31.177 18v36L36 76.5l31.177-18z" fill="none" stroke="#231f20" stroke-width="2"/><path d="M28.96 35.534L36 40.317l7.04-4.783-3.366 12.562L36 49.298l-3.674-1.202-3.366-12.562z" fill="#3d8b8a" fill-rule="nonzero" opacity=".4"/><path d="M28.96 35.534L36 40.317l7.04-4.783-3.366 12.562L36 49.298l-3.674-1.202-3.366-12.562z" fill="none" stroke="#231f20"/><path d="M30.648 42.097l3.009 8.699-4.768 11.209-3.52-7.785-.693-9.849-5.093-2.297L12.5 28.005l16.319 6.542 1.829 7.55z" fill="#fff" fill-rule="nonzero"/><path d="M30.168 42.238a67.304 67.304 0 00-1.032-3.756c-.382-1.243-.8-2.477-1.323-3.691l.621.717-16.319-6.542 1.31-1.427 7.083 14.069-.499-.478 5.092 2.298.564.254.044.617.694 9.848-.089-.353 3.518 7.784-1.896.02 4.768-11.207-.026.744c-.137-.768-.34-1.513-.507-2.27a66.635 66.635 0 00-.608-2.23c-.42-1.48-.903-2.94-1.395-4.397m.96-.281a94.838 94.838 0 001.613 4.302c.285.71.59 1.416.898 2.118.334.694.633 1.399.997 2.08l.161.304-.187.44-4.769 11.209-.924 2.172-.972-2.151-3.518-7.784-.077-.17-.013-.184-.694-9.848.607.87-5.093-2.297-.334-.151-.165-.328-7.083-14.07-1.23-2.444 2.54 1.019 16.32 6.542.588.236.032.48c.087 1.304.278 2.586.506 3.86a66.72 66.72 0 00.797 3.795" fill="#231f20" fill-rule="nonzero"/><path d="M30.648 42.097l-5.972 2.274" fill="none" stroke="#231f20"/><path d="M41.352 42.097l-3.009 8.699 4.768 11.209 3.52-7.785.693-9.849 5.093-2.297L59.5 28.005l-16.319 6.542-1.829 7.55z" fill="#fff" fill-rule="nonzero"/><path d="M40.872 41.956c.293-1.258.576-2.518.797-3.794.227-1.274.418-2.556.505-3.859l.032-.482.59-.236 16.318-6.542 2.542-1.019-1.232 2.446-7.083 14.07-.165.326-.334.151-5.092 2.298.607-.87-.695 9.847-.013.185-.076.17-3.518 7.784-.973 2.151-.924-2.172-4.768-11.209-.188-.44.162-.304c.364-.68.663-1.386.997-2.08.31-.702.613-1.407.897-2.119.582-1.419 1.103-2.859 1.614-4.302m.96.281a95.07 95.07 0 00-1.396 4.397 67.957 67.957 0 00-.607 2.231c-.168.756-.37 1.501-.508 2.27l-.026-.744 4.77 11.208-1.897-.02 3.518-7.786-.089.354.694-9.849.044-.616.563-.255 5.092-2.297-.498.478 7.083-14.069 1.31 1.426-16.319 6.542.621-.717c-.523 1.214-.942 2.45-1.324 3.691a68.169 68.169 0 00-1.03 3.756" fill="#231f20" fill-rule="nonzero"/><path d="M41.352 42.097l5.972 2.274" fill="none" stroke="#231f20"/><path d="M36 40.514v8.982" fill="none" stroke="#231f20" stroke-width=".5"/><path d="M36 36.426l3.206 2.915L36 40.992l-3.206-1.65L36 36.426z" fill="#fff" fill-rule="nonzero" stroke="#231f20"/></g></g></svg>