<svg viewBox="0 0 301 338" xmlns="http://www.w3.org/2000/svg" fill-rule="evenodd" clip-rule="evenodd" stroke-miterlimit="10"><g transform="translate(.5 .06) scale(4.16667)"><path fill="none" d="M0 0h72v81H0z"/><clipPath id="prefix__a"><path d="M0 0h72v81H0z"/></clipPath><g clip-path="url(#prefix__a)"><clipPath id="prefix__b"><path d="M4.823 22.5v36L36 76.5l31.177-18v-36L36 4.5l-31.177 18z" clip-rule="nonzero"/></clipPath><g clip-path="url(#prefix__b)"><path d="M67.177 58.5v-36L36 4.5l-31.177 18v36L36 76.5l31.177-18z" fill="#3f7faa" fill-rule="nonzero" opacity=".3"/><path d="M47.722 40.499c0 7.07-5.006 11.084-10.798 14.936a49.7 49.7 0 00-.92.623h-.01c-.317.194-.613.398-.93.603l-.919-.613c-5.69-3.831-10.89-8.142-10.89-15.55 0-7.406 5.2-11.717 10.88-15.548.306-.204.623-.408.93-.613.316.205.612.409.93.603h.01c.306.215.612.419.92.623 5.791 3.862 10.797 7.877 10.797 14.936M48.705 75.424H24.326c.46-6.442 5.248-10.239 10.75-13.904.307-.215.623-.419.93-.623.306-.194.612-.398.918-.602.317.204.623.408.93.612 5.42 3.655 10.402 7.738 10.851 14.517" fill="#fff" fill-rule="nonzero"/></g><g transform="translate(22.241 4.523)"><clipPath id="prefix__c"><path d="M2.043 35.967l-.001.022c0 7.887 6.234 11.962 12.833 16.275 4.779 3.124 9.999 6.536 12.745 11.71l17.316-9.997v-18.01H2.043z" clip-rule="nonzero"/></clipPath><g clip-path="url(#prefix__c)"><path d="M0 71.935C0 53.952 27.517 53.952 27.517 35.97 27.517 17.985 0 17.985 0 0" fill="none" stroke="#231f20" stroke-width="2"/></g></g><g transform="translate(22.241 4.5)"><clipPath id="prefix__d"><path d="M-17.418 35.968V54l31.065 17.935h.224l10.213-5.896c-2.201-4.315-6.728-7.275-11.442-10.356-6.883-4.499-14.683-9.597-14.683-19.694l.001-.021h-15.378z" clip-rule="nonzero"/></clipPath><g clip-path="url(#prefix__d)"><path d="M0 71.935C0 53.952 27.517 53.952 27.517 35.97 27.517 17.985 0 17.985 0 0" fill="none" stroke="#231f20" stroke-width="2"/></g></g><clipPath id="prefix__e"><path d="M35.98 4.512L25.694 10.45c2.21 4.292 6.723 7.243 11.421 10.314 6.882 4.498 14.684 9.597 14.684 19.694l-.002.021h15.38V22.5L36.02 4.512h-.04z" clip-rule="nonzero"/></clipPath><g clip-path="url(#prefix__e)"><path d="M48.73 5.516H24.35c.46 6.442 5.248 10.239 10.75 13.904.307.215.623.419.93.623.306.194.612.398.918.602.317-.204.623-.408.93-.612 5.42-3.655 10.402-7.738 10.851-14.517" fill="#fff" fill-rule="nonzero"/><path d="M49.757 4.511c0 17.983-27.517 17.983-27.517 35.965 0 17.985 27.517 17.985 27.517 35.97" fill="none" stroke="#231f20" stroke-width="2"/><path d="M4.141 4.524h45.616" fill="none" stroke="#231f20" stroke-dasharray="6 2 4 2 2"/><path d="M4.141 10.018h44.911" fill="none" stroke="#231f20" stroke-width="2" stroke-linecap="round" stroke-linejoin="round" stroke-dasharray="22 7 0 4 10"/><path d="M4.141 15.513H46.89" fill="none" stroke="#231f20" stroke-width="2" stroke-linecap="round" stroke-linejoin="round" stroke-dasharray="24 6 2 4 5"/></g><clipPath id="prefix__f"><path d="M51.797 40.477l.002.021c0 10.092-7.802 15.188-14.684 19.684-4.715 3.08-9.243 6.04-11.445 10.354l10.201 5.889h.258L67.177 58.5V40.477h-15.38z" clip-rule="nonzero"/></clipPath><g clip-path="url(#prefix__f)"><path d="M49.757 76.426c0-17.973-27.517-17.973-27.517-35.947 0-17.975 27.517-17.975 27.517-35.951" fill="none" stroke="#231f20" stroke-width="2"/><path d="M4.141 76.414h45.616" fill="none" stroke="#231f20" stroke-dasharray="6 2 4 2 2"/><path d="M49.1 70.922H4.14" fill="none" stroke="#231f20" stroke-width="2" stroke-linecap="round" stroke-linejoin="round" stroke-dasharray="12 4 0 0 0"/><path d="M45.128 65.43H4.141" fill="none" stroke="#231f20" stroke-width="2" stroke-linecap="round" stroke-linejoin="round" stroke-dasharray="6 4 0 8 0 6"/></g><clipPath id="prefix__g"><path d="M4.823 22.5v17.977h42.89v-.01c0-7.882-6.227-11.955-12.833-16.273-4.774-3.124-9.985-6.533-12.732-11.696L4.823 22.5z" clip-rule="nonzero"/></clipPath><g clip-path="url(#prefix__g)"><path d="M49.758 4.523c0 17.997-27.517 17.969-27.517 35.966 0 17.985 27.517 17.985 27.517 35.97" fill="none" stroke="#231f20" stroke-width="2"/><path d="M22.255 40.473h45.541" fill="none" stroke="#231f20" stroke-width="2" stroke-linecap="round" stroke-linejoin="round" stroke-dasharray="8 4 6 4 0"/><path d="M23.317 34.979h44.48" fill="none" stroke="#231f20" stroke-width="2" stroke-linecap="round" stroke-linejoin="round" stroke-dasharray="6 4 4 4 2 20"/><path d="M26.845 29.484h40.952" fill="none" stroke="#231f20" stroke-width="2" stroke-linecap="round" stroke-linejoin="round" stroke-dasharray="10 4 0 0 0 20"/></g><g><clipPath id="prefix__h"><path d="M4.823 40.5v18l17.31 9.994c2.742-5.177 7.965-8.591 12.747-11.719 6.606-4.316 12.833-8.387 12.833-16.264V40.5H4.823z" clip-rule="nonzero"/></clipPath><g clip-path="url(#prefix__h)"><path d="M49.758 76.435c0-17.973-27.517-17.973-27.517-35.946 0-17.975 27.517-17.975 27.517-35.951" fill="none" stroke="#231f20" stroke-width="2"/><path d="M22.241 40.504h45.556" fill="none" stroke="#231f20" stroke-width="2" stroke-linecap="round" stroke-linejoin="round" stroke-dasharray="8 4 6 4 0 20"/><path d="M23.235 45.996h44.561" fill="none" stroke="#231f20" stroke-width="2" stroke-linecap="round" stroke-linejoin="round" stroke-dasharray="4 4 6 4 2 20"/><path d="M26.849 51.488h40.948" fill="none" stroke="#231f20" stroke-width="2" stroke-linecap="round" stroke-linejoin="round" stroke-dasharray="4 4 4 4 0 20"/></g></g><g><clipPath id="prefix__i"><path d="M4.823 22.5v36L36 76.5l31.177-18v-36L36 4.5l-31.177 18z" clip-rule="nonzero"/></clipPath><g clip-path="url(#prefix__i)"><path d="M22.24 40.488c0 17.986 27.518 17.985 27.518 35.97M49.758 40.47c0-17.985-27.517-17.985-27.517-35.97" fill="none" stroke="#231f20" stroke-width="2"/></g></g><g><path d="M67.177 58.5v-36L36 4.5l-31.177 18v36L36 76.5l31.177-18z" fill="none" stroke="#231f20" stroke-width="2"/></g></g></g></svg>