<svg viewBox="0 0 300 339" xmlns="http://www.w3.org/2000/svg" fill-rule="evenodd" clip-rule="evenodd" stroke-miterlimit="10"><g transform="translate(0 .688) scale(4.16667)"><path fill="none" d="M0 0h72v81H0z"/><clipPath id="prefix__a"><path d="M0 0h72v81H0z"/></clipPath><g clip-path="url(#prefix__a)"><path d="M34.53 3.12v-.01L34.29 3l.24.12zM36.71 3.11v.01l.24-.12-.24.11z" fill="#fff" fill-rule="nonzero"/><path d="M34.53 3.12v-.01L34.29 3l.24.12zM36.71 3.11v.01l.24-.12-.24.11z" fill="#231f20" fill-rule="nonzero"/><path d="M67.177 57V21L36 3 4.823 21v36L36 75l31.177-18z" fill="#3f7faa" fill-rule="nonzero" opacity=".3"/><clipPath id="prefix__b"><path d="M4.823 21v36L36 75l31.177-18V21L36 3 4.823 21z" clip-rule="nonzero"/></clipPath><g clip-path="url(#prefix__b)"><path d="M7.57 48.61l-11.02 10.5 8.03 10.52 7.11-7.36 3.02 9.33L36 83.71 57.29 71.6l3.02-9.33 7.11 7.36 8.03-10.52L64.42 48.6l-18.03-2.89-.74-3.56-.124-17.942H26.468L26.4 42.18l-.73 3.53-18.1 2.9z" fill="#fff" fill-rule="nonzero" stroke="#231f20" stroke-width="2"/><path d="M7.48 49.404L35.96 56.75l29.123-7.518M36 83.71V56.75M60.363 62.528l-4.098-11.02M11.743 62.528l3.993-10.995" fill="none" stroke="#231f20"/><path d="M34.4 31.637l-6.51-3v-3.23l8.11 3.73 8.11-3.73v3.23l-6.51 3 .094 14.584L50.1 39.438l-1.737-15.105c-.408-3.556-3.285-7.67-7.94-9.535-4.335-1.735-8.345-.2-8.845 0-4.656 1.865-7.533 5.979-7.94 9.535L21.9 39.45l12.5 6.794V31.637z" fill="#fff" fill-rule="nonzero"/><path d="M34.821 31.367c.05 4.944.08 9.917.08 14.876v.811l-.74-.372-.016-.008-12.722-6.346-.592-.295.076-.698.002-.018.933-8.123.466-4.062.234-2.03.124-1.03c.051-.379.12-.753.216-1.117.76-2.927 2.61-5.382 4.923-7.16a14.788 14.788 0 013.861-2.094 13.925 13.925 0 014.332-.717c1.47-.012 2.956.22 4.353.727a14.643 14.643 0 013.85 2.087c2.312 1.78 4.161 4.236 4.918 7.163.097.364.164.738.216 1.117l.124 1.03.233 2.03.467 4.061.934 8.123v.001l.056.706-.57.286-12.644 6.344-.735.402-.006-.838L37.1 31.64v-.324l.291-.134 6.51-2.999-.29.454v-3.23l.708.454-.004.002-8.106 3.728-.209.096-.209-.096-8.11-3.73.71-.454v3.23l-.292-.454a357.668 357.668 0 016.722 3.184m-.842.54a309.782 309.782 0 01-6.298-2.816l-.29-.134v-4.33l.708.325 8.11 3.73h-.418l8.106-3.728.004-.002.71-.326v4.331l-.292.134-6.51 3 .291-.458v.001l.094 14.583-.739-.435L49.62 38.56l-.514.991-.934-8.123-.467-4.062-.233-2.03-.12-1a7.263 7.263 0 00-.173-.889c-1.25-4.772-6.194-8.558-11.167-8.463-1.25.01-2.527.212-3.7.611a12.823 12.823 0 00-3.298 1.793c-1.997 1.525-3.585 3.68-4.193 6.055a7.243 7.243 0 00-.172.888l-.12 1-.234 2.03-.466 4.061-.933 8.123-.002.02-.516-.994 12.245 7.224.016.01-.739.438c-.002-4.779.03-9.543.08-14.337" fill="#231f20" fill-rule="nonzero"/></g><g><path d="M67.177 57V21L36 3 4.823 21v36L36 75l31.177-18z" fill="none" stroke="#231f20" stroke-width="2"/></g></g></g></svg>