<svg viewBox="0 0 301 338" xmlns="http://www.w3.org/2000/svg" fill-rule="evenodd" clip-rule="evenodd" stroke-miterlimit="10"><g transform="translate(.5 .06) scale(4.16667)"><path fill="none" d="M0 0h72v81H0z"/><clipPath id="prefix__a"><path d="M0 0h72v81H0z"/></clipPath><g clip-path="url(#prefix__a)"><clipPath id="prefix__b"><path d="M4.823 22.5v36L36 76.5l31.177-18v-36L36 4.5l-31.177 18z" clip-rule="nonzero"/></clipPath><g clip-path="url(#prefix__b)"><path d="M67.177 58.5v-36L36 4.5l-31.177 18v36L36 76.5l31.177-18z" fill="#40834f" fill-rule="nonzero" opacity=".3"/></g><path d="M53.224 45.725l-5.297.108 4.221 3.2-1.534 5.072 4.35-3.027 4.35 3.027-1.536-5.072 4.222-3.2-5.297-.108-1.74-5.005-1.739 5.005z" fill="#fff" fill-rule="nonzero"/><path d="M54.963 51.079l-4.349 3.026 1.534-5.071-4.222-3.201 5.297-.108 1.74-5.004 1.74 5.004 5.297.108-4.222 3.2 1.534 5.072-4.349-3.026z" fill="none" stroke="#231f20"/><path d="M15.297 45.725L10 45.833l4.221 3.2-1.534 5.072 4.35-3.027 4.35 3.027-1.536-5.072 4.222-3.2-5.297-.108-1.739-5.005-1.74 5.005z" fill="#fff" fill-rule="nonzero"/><path d="M17.037 51.079l-4.35 3.026 1.535-5.071L10 45.833l5.297-.108 1.74-5.004 1.74 5.004 5.297.108-4.222 3.2 1.534 5.072-4.35-3.026z" fill="none" stroke="#231f20"/><clipPath id="prefix__c"><path d="M4.823 22.5v36L36 76.5l31.177-18v-36L36 4.5l-31.177 18z" clip-rule="nonzero"/></clipPath><g clip-path="url(#prefix__c)"><path d="M44.625 50.44c-.2 0-.399-.06-.571-.179L36 44.656l-8.054 5.605a1.002 1.002 0 01-1.159-.012 1 1 0 01-.369-1.099l2.841-9.39-7.819-5.929a1.002 1.002 0 01.584-1.797l9.809-.2 3.223-9.268a.998.998 0 011.888 0l3.223 9.268 9.809.2a1.002 1.002 0 01.584 1.797l-7.819 5.928 2.841 9.391a1 1 0 01-.957 1.29" fill="#fff" fill-rule="nonzero"/><path d="M36 20.895a2 2 0 00-1.889 1.343l-2.993 8.61-9.115.187a2 2 0 00-1.167 3.593l7.264 5.508-2.639 8.725a1.998 1.998 0 003.056 2.22L36 45.876l7.483 5.207a1.996 1.996 0 002.318-.024c.689-.5.985-1.382.738-2.197L43.9 40.136l7.264-5.508a2 2 0 00-1.167-3.593l-9.115-.186-2.993-8.611A2 2 0 0036 20.895m0 2l3.45 9.925 10.506.214-8.374 6.349 3.043 10.057L36 43.439l-8.625 6 3.043-10.056-8.374-6.35 10.506-.213L36 22.895" fill="#231f20" fill-rule="nonzero"/></g><g><path d="M67.177 58.5v-36L36 4.5l-31.177 18v36L36 76.5l31.177-18z" fill="none" stroke="#231f20" stroke-width="2"/></g></g></g></svg>