<svg xmlns="http://www.w3.org/2000/svg" xmlns:svg="http://www.w3.org/2000/svg" fill-rule="evenodd" stroke-miterlimit="10" clip-rule="evenodd" viewBox="0 0 64.353996 74.309402" xml:space="preserve"><path fill="#7f5a90" fill-rule="nonzero" d="m32.1771 73.1546997 31.177-18v-36l-31.177-18-31.177 18v36z" opacity=".3"/><g transform="translate(-3.8229 -3.3453003)"><clipPath id="a"><path d="M4.823 22.5v36L36 76.5l31.177-18v-36L36 4.5Z" clip-rule="nonzero"/></clipPath><g clip-path="url(#a)"><path fill="#fff" fill-rule="nonzero" stroke="#000" stroke-width="2" d="m34.8551 19.2359 6.711 8.045-11.78 9.828c-2.508 2.66-2.461 6.863.14 9.464 2.602 2.602 6.805 2.649 9.465.141l9.828-11.78 8.045 6.711-10.001 11.988c-.1.121-.207.237-.318.348-6.734 6.735-17.693 6.735-24.427 0-6.734-6.734-6.734-17.692.001-24.426.111-.111.227-.217.348-.318z"/><path fill="#fff" d="m53.736335 45.09355272 2.82380006-3.38476214-7.2770852-6.07104214-2.82380006 3.38476214z"/><path fill-rule="nonzero" d="m49.2191 34.9335-3.465 4.153 8.049 6.707 3.461-4.149Zm.127 1.408 6.51 5.431-2.181 2.613-6.512-5.427z"/><path fill="#fff" d="m37.48310862 30.03804989 3.37998766-2.82015451-6.07210894-7.27749251-3.37998766 2.8201545z"/><path fill-rule="nonzero" d="m34.8551 19.2359-4.149 3.461 6.707 8.049 4.153-3.465Zm-.127 1.408 5.43 6.51-2.617 2.183-5.427-6.512z"/><path fill="#7f5a90" d="m53.736335 45.09355272 2.82380006-3.38476214-7.2770852-6.07104214-2.82380006 3.38476214z" opacity=".3"/><path fill-rule="nonzero" d="m49.2191 34.9335-3.465 4.153 8.049 6.707 3.461-4.149Zm.127 1.408 6.51 5.431-2.181 2.613-6.512-5.427z"/><path fill="#7f5a90" d="m37.48310862 30.03804989 3.37998766-2.82015451-6.07210894-7.27749251-3.37998766 2.8201545z" opacity=".3"/><path fill-rule="nonzero" d="m34.8551 19.2359-4.149 3.461 6.707 8.049 4.153-3.465Zm-.127 1.408 5.43 6.51-2.617 2.183-5.427-6.512z"/></g></g><path fill="none" stroke="#000" stroke-width="2" d="M63.354 55.1546997v-36l-31.177-18-31.177 18v36l31.177 18z"/></svg>