<svg xmlns="http://www.w3.org/2000/svg" xmlns:svg="http://www.w3.org/2000/svg" fill-rule="evenodd" stroke-miterlimit="10" clip-rule="evenodd" viewBox="0 0 64.353996 74.309402" xml:space="preserve"><path fill="#3d8b8a" fill-rule="nonzero" d="M63.354 55.1546997v-36l-31.177-18-31.177 18v36l31.177 18z" opacity=".3"/><g transform="translate(-3.8229 -3.3453003)"><clipPath id="a"><path d="M4.823 22.5v36L36 76.5l31.177-18v-36L36 4.5Z" clip-rule="nonzero"/></clipPath><g fill-rule="nonzero" clip-path="url(#a)"><path fill="#fff" stroke="#000" stroke-width="2" d="M66.5207 1.7617s-3.944 38.961-34.43 28.562c0 0-.472 8.981 10.635 10.635 0 0-13.927 9.216-32.132-11.58 0 0-1.898 16.306 19.371 27.886l5.435 19.615 25.995-2.85 31.641-19.279.471-37.862Z"/><path fill="#3d8b8a" d="M57.1412 37.6502c-.877 1.643-1.753 3.287-2.63 4.931l-3.042 5.703c.498.012 6.466.066 8.644-3.837.313-.56 1.155-2.069.62-3.761-.726-2.294-3.368-2.981-3.592-3.036" opacity=".4"/><path d="M56.937 37.1938c.118-.041.293-.042.405-.007l.078.023.153.049.297.107c.195.077.388.161.575.254.376.184.738.403 1.073.665.67.515 1.249 1.214 1.542 2.04.317.814.332 1.727.126 2.545-.213.828-.572 1.559-1.06 2.232-.953 1.378-2.446 2.241-3.954 2.74-1.526.504-3.111.698-4.706.693h-.002l-.403.003.188-.371 2.725-5.376 1.442-2.794zm.408.913-1.315 2.514-1.394 2.523-2.946 5.258-.215-.367h.002c1.523.005 3.07-.26 4.495-.769 1.417-.512 2.747-1.351 3.545-2.583.829-1.215 1.285-2.756.731-4.047-.248-.644-.719-1.186-1.292-1.603-.285-.212-.599-.39-.928-.541-.164-.075-.331-.142-.501-.204l-.255-.084-.127-.037-.063-.017c.065.023.193.01.263-.043"/><path fill="#fff" stroke="#000" d="M37.734 42.7138c-.312 5.394-2.837 10.42-6.979 13.889l-.791.662"/><path d="M50.6447 30.6014c-.117 2.366-.869 4.692-2.186 6.667-1.309 1.978-3.166 3.576-5.304 4.593l-.429-.903c1.975-.94 3.693-2.418 4.9-4.244 1.215-1.82 1.913-3.976 2.02-6.16zM19.5422 44.8892c4.146 3.733 8.939 6.699 14.075 8.72l-.394.918c-5.115-2.374-9.766-5.665-13.681-9.638"/></g></g><path fill="none" stroke="#000" stroke-width="2" d="M63.354 55.1546997v-36l-31.177-18-31.177 18v36l31.177 18z"/></svg>