<svg xmlns="http://www.w3.org/2000/svg" xmlns:svg="http://www.w3.org/2000/svg" fill-rule="evenodd" stroke-miterlimit="10" clip-rule="evenodd" viewBox="0 0 64.353996 74.309402" xml:space="preserve"><path fill="#3f7faa" fill-rule="nonzero" d="M63.354 55.1546997v-36l-31.177-18-31.177 18v36l31.177 18z" opacity=".3"/><path fill="none" stroke="#231f20" stroke-width="2" d="M63.354 55.1546997v-36l-31.177-18-31.177 18v36l31.177 18z"/><path fill="#fff" fill-rule="nonzero" d="M19.1644 56.1492997c-2.464 0-11.739-16.43-11.739-23.771 0-6.473 5.266-11.739 11.739-11.739 6.473 0 11.739 5.266 11.739 11.739 0 7.232-8.74 23.771-11.739 23.771"/><path fill="#231f20" fill-rule="nonzero" d="M19.1646 19.6390997c-7.036 0-12.739 5.704-12.739 12.739 0 7.036 9.085 24.771 12.739 24.771 4.052 0 12.739-17.735 12.739-24.771 0-7.035-5.703-12.739-12.739-12.739m0 2c5.922 0 10.739 4.818 10.739 10.739 0 2.819-1.759 8.287-4.378 13.607-3.024 6.142-5.456 8.705-6.322 9.123-.999-.555-3.549-3.703-6.328-9.268-2.704-5.414-4.45-10.698-4.45-13.462 0-5.921 4.817-10.739 10.739-10.739"/><path fill="#3f7faa" fill-rule="nonzero" d="M19.1644 38.5975997c-3.312 0-6.006-2.695-6.006-6.007s2.694-6.007 6.006-6.007c3.313 0 6.007 2.695 6.007 6.007s-2.694 6.007-6.007 6.007" opacity=".3"/><path fill="#231f20" fill-rule="nonzero" d="M19.1646 25.5840997c-3.87 0-7.007 3.137-7.007 7.007 0 3.869 3.137 7.006 7.007 7.006 3.87 0 7.007-3.137 7.007-7.006 0-3.87-3.137-7.007-7.007-7.007m0 2c2.761 0 5.007 2.246 5.007 5.007 0 2.76-2.246 5.006-5.007 5.006-2.761 0-5.007-2.246-5.007-5.006 0-2.761 2.246-5.007 5.007-5.007"/><path fill="#fff" fill-rule="nonzero" d="M48.6957 43.6517997c-1.912 0-7.825-11.037-7.825-15.688 0-4.314 3.511-7.825 7.825-7.825s7.825 3.511 7.825 7.825c0 4.773-5.826 15.688-7.825 15.688"/><path fill="#231f20" fill-rule="nonzero" d="M48.6953 19.6390997c-4.598 0-8.325 3.727-8.325 8.325 0 4.598 5.937 16.188 8.325 16.188 2.648 0 8.325-11.59 8.325-16.188 0-4.598-3.727-8.325-8.325-8.325m0 1c4.039 0 7.325 3.286 7.325 7.325 0 4.757-5.647 15.04-7.294 15.19-1.688-.359-7.356-10.734-7.356-15.19 0-4.039 3.286-7.325 7.325-7.325"/><path fill="#3f7faa" fill-rule="nonzero" d="M48.6957 32.1819997c-2.249 0-4.079-1.83-4.079-4.079 0-2.249 1.83-4.079 4.079-4.079 2.249 0 4.078 1.83 4.078 4.079 0 2.249-1.829 4.079-4.078 4.079" opacity=".3"/><path fill="#231f20" fill-rule="nonzero" d="M48.6953 23.5241997c-2.529 0-4.579 2.05-4.579 4.579s2.05 4.579 4.579 4.579 4.579-2.05 4.579-4.579-2.05-4.579-4.579-4.579m0 1c1.973 0 3.579 1.605 3.579 3.579 0 1.973-1.606 3.579-3.579 3.579s-3.579-1.606-3.579-3.579c0-1.974 1.606-3.579 3.579-3.579M24.05962497 57.07351789l-.23005194 1.33329897c-.47219531-.08045941-.94099-.1806276-1.40628354-.28932468l.32071603-1.347084c.43732644.11198975.87601312.216096 1.31561945.3031097m2.54656982.3068928-.01299933 1.2899342c-.44701752-.00050461-.89475282-.02901789-1.34034715-.0715103l.12525562-1.31480425c.41152553.04914943.82118215.08527937 1.22809086.09638035m2.39648941-.1641102.25813027 1.20260913c-.43746548.09185285-.88073552.16142775-1.32681022.19887582l-.11469012-1.25385292c.40096079-.02367362.79562572-.07667917 1.18337008-.14763203m2.1860317-.72991308.55737981 1.02870144c-.38565356.20554604-.78519608.3833595-1.19448711.53688375l-.41025727-1.12661432c.35972476-.12325576.70929816-.2694451 1.04736457-.43897087m1.81656243-1.32075855.81093936.75794352c-.30054157.31862663-.62533538.61047957-.9692674.88033866l-.69352558-.90553429c.30023077-.22310222.58492846-.46619755.85185362-.73274789m1.42474626-1.88035559.90063225.5397798c-.21916679.36762894-.4484561.7268594-.69232708 1.07735056l-.88300896-.62365127c.23154173-.31241243.45381295-.64437116.67470379-.99347909m1.3542926-2.1643702.83748806.5316753c-.22211637.35174063-.43579032.7088409-.64439881 1.06915694l-.88233768-.51513703c.21942245-.36055783.4490423-.72411785.68924842-1.08569521m1.57235248-2.03823389.7102521.61421775c-.26659505.29299004-.50021567.61052978-.74195205.92369524l-.77736215-.57177669c.2633841-.32749642.52006295-.6594694.8090621-.9661363m1.75048016-1.66308372.57411607.67613615c-.28070365.23178982-.54511088.48122693-.80628184.73447541l-.63866572-.65018726c.283119-.26138993.56894206-.5211403.8708315-.7604243m1.82836633-1.28853378.4500505.70807908c-.28924803.18621398-.57305327.37726283-.84934872.58012707l-.50857671-.69576303c.29554909-.20799235.5996808-.4024814.90787493-.59244312m1.85053267-.96929124.34222194.71646352c-.29141775.13698052-.57633003.28526055-.85822524.439857l-.39278111-.71558634c.29891882-.15607853.60171673-.30403594.9087844-.44073418m1.80861452-.71100835.25514232.70739437c-.28186592.10272619-.5629761.21049507-.84137199.32578944l-.29417339-.71245171c.29138053-.11466236.58521322-.2195786.88040306-.3207321"/><path fill="#231f20" d="m45.51169392 44.1690845.19283576.69992208.80886311-.22285014-.19283576-.6999221z"/></svg>