<svg viewBox="0 0 300 339" xmlns="http://www.w3.org/2000/svg" fill-rule="evenodd" clip-rule="evenodd" stroke-linecap="round" stroke-linejoin="round" stroke-miterlimit="10"><g transform="translate(0 .75) scale(4.16667)"><path fill="none" d="M0 0h72v81H0z"/><clipPath id="prefix__a"><path d="M0 0h72v81H0z"/></clipPath><g clip-path="url(#prefix__a)"><clipPath id="prefix__b"><path d="M4.823 22.5v36L36 76.5l31.177-18v-36L36 4.5l-31.177 18z" clip-rule="nonzero"/></clipPath><g clip-path="url(#prefix__b)"><path d="M67.177 58.5v-36L36 4.5l-31.177 18v36L36 76.5l31.177-18z" fill="#40834f" fill-rule="nonzero" opacity=".3"/><path d="M56.102 46.449c.348-1.525.55-3.217.55-5.141C56.653 27.689 47.42 14 36.03 14S15.407 27.689 15.407 41.308c0 1.924.203 3.616.55 5.141C9.32 48.493 4.593 54.829 4.95 62.147l1.204 24.581c.364 7.431 6.495 13.269 13.935 13.269l3.985 36.532h23.912l3.986-36.532c7.44 0 13.57-5.838 13.934-13.269l1.204-24.581c.359-7.318-4.368-13.654-11.008-15.698" fill="#abbfa8" fill-rule="nonzero" opacity=".3"/><path d="M56.102 46.449c.348-1.525.55-3.217.55-5.141C56.653 27.689 47.42 14 36.03 14S15.407 27.689 15.407 41.308c0 1.924.203 3.616.55 5.141C9.32 48.493 4.593 54.829 4.95 62.147l1.204 24.581c.364 7.431 6.495 13.269 13.935 13.269l3.985 36.532h23.912l3.986-36.532c7.44 0 13.57-5.838 13.934-13.269l1.204-24.581c.359-7.318-4.368-13.654-11.008-15.698z" fill="none" stroke="#231f20" stroke-width="2"/><path d="M36.03 52.097c1.793-.016 3.584-.117 5.33-.41 1.739-.291 3.455-.787 4.894-1.7 1.45-.892 2.534-2.254 3-3.868.494-1.6.51-3.365.277-5.068-.473-3.424-2.163-6.648-4.556-9.08-2.365-2.454-5.606-4.071-8.945-4.044-3.34-.027-6.581 1.59-8.945 4.045-2.393 2.43-4.083 5.656-4.556 9.079-.233 1.703-.217 3.468.277 5.068.466 1.614 1.55 2.977 3 3.869 1.439.912 3.155 1.408 4.894 1.699 1.746.293 3.537.394 5.33.41m0 1c-1.828.008-3.67-.07-5.502-.351-1.825-.283-3.676-.776-5.324-1.784-.84-.47-1.57-1.14-2.221-1.87-.61-.766-1.117-1.627-1.423-2.553-.638-1.851-.71-3.795-.52-5.675.404-3.78 2.099-7.384 4.707-10.177 2.598-2.774 6.308-4.738 10.283-4.76 3.975.022 7.685 1.986 10.283 4.76 2.608 2.793 4.302 6.397 4.706 10.177.19 1.88.119 3.824-.52 5.675-.305.926-.813 1.787-1.422 2.554-.651.729-1.381 1.399-2.221 1.869-1.648 1.008-3.5 1.5-5.324 1.784-1.833.282-3.674.359-5.502.35" fill="#231f20" fill-rule="nonzero"/><path d="M36.03 52.597c-7.942 0-14.38-1.805-14.38-9.746 0-7.942 6.438-15.924 14.38-15.924 7.942 0 14.379 7.982 14.379 15.924 0 7.94-6.437 9.746-14.38 9.746" fill="#231f20" fill-rule="nonzero"/></g><clipPath id="prefix__c"><path d="M21.65 42.851c0 7.941 6.438 9.746 14.38 9.746 7.941 0 14.379-1.805 14.379-9.746 0-7.942-6.438-15.925-14.379-15.925-7.942 0-14.38 7.983-14.38 15.925z" clip-rule="nonzero"/></clipPath><g clip-path="url(#prefix__c)"><path d="M47.719 29.667c-.605-2.152-1.79-3.522-2.252-4.046-2.227-2.515-5.74-3.996-9.068-3.888a9.114 9.114 0 00-.37.02 9.114 9.114 0 00-.368-.02c-3.327-.108-6.841 1.373-9.068 3.888-.463.524-1.647 1.894-2.252 4.046-.571 2.035-.321 3.71-.13 4.928.133.84.374 2.371 1.123 3.946-.73.671-.948 1.353-1.026 1.664-.408 1.661.718 3.281 1.633 3.982.017.011.028.022.034.025.973.73 1.863.876 2.526.854.164-.022.81-.094 1.323.328.335.274.455.63.49.74.198.605-.088.935.03 1.95.026.207.04.313.082.424.147.38.488.668 1.239.962.527.208 1.412.48 2.635.516h3.46c1.224-.036 2.108-.308 2.635-.516.752-.294 1.093-.582 1.24-.962.04-.11.055-.217.08-.424.119-1.015-.166-1.345.03-1.95.037-.11.156-.466.49-.74.515-.422 1.16-.35 1.324-.328.663.022 1.553-.124 2.527-.854.005-.003.016-.014.033-.025.915-.7 2.04-2.32 1.633-3.982-.075-.31-.296-.993-1.026-1.664.749-1.575.99-3.106 1.123-3.946.192-1.218.44-2.893-.13-4.928" fill="#fff" fill-rule="nonzero"/><path d="M47.719 29.667c-.605-2.152-1.79-3.522-2.252-4.046-2.227-2.515-5.74-3.996-9.068-3.888a9.114 9.114 0 00-.37.02 9.114 9.114 0 00-.368-.02c-3.327-.108-6.841 1.373-9.068 3.888-.463.524-1.647 1.894-2.252 4.046-.571 2.035-.321 3.71-.13 4.928.133.84.374 2.371 1.123 3.946-.73.671-.948 1.353-1.026 1.664-.408 1.661.718 3.281 1.633 3.982.017.011.028.022.034.025.973.73 1.863.876 2.526.854.164-.022.81-.094 1.323.328.335.274.455.63.49.74.198.605-.088.935.03 1.95.026.207.04.313.082.424.147.38.488.668 1.239.962.527.208 1.412.48 2.635.516h3.46c1.224-.036 2.108-.308 2.635-.516.752-.294 1.093-.582 1.24-.962.04-.11.055-.217.08-.424.119-1.015-.166-1.345.03-1.95.037-.11.156-.466.49-.74.515-.422 1.16-.35 1.324-.328.663.022 1.553-.124 2.527-.854.005-.003.016-.014.033-.025.915-.7 2.04-2.32 1.633-3.982-.075-.31-.296-.993-1.026-1.664.749-1.575.99-3.106 1.123-3.946.192-1.218.44-2.893-.13-4.928z" fill="none" stroke="#231f20" stroke-linecap="butt" stroke-linejoin="miter"/><path d="M27.06 34.612c-.295.491-.577 1.077-.399 1.353.06.121.243.17.36.59.114.42.05.995-.186 1.35a3.856 3.856 0 01-.283.41 2.579 2.579 0 01-.35.351l-.353.312-.089.077c-.013.007-.027.014-.054.034l-.137.103c-.18.143-.336.313-.5.49-.135.193-.274.395-.439.61l-.645-.17c.22-.256.377-.505.54-.742.197-.217.365-.442.571-.634.413-.372.865-.715 1.158-1.195a.954.954 0 00.107-.802c-.08-.263-.23-.515-.217-.8.037-.575.496-.996.915-1.337M45.01 34.612c.419.341.878.762.915 1.337.014.285-.136.537-.217.8a.954.954 0 00.107.802c.293.48.745.823 1.158 1.195.206.192.374.417.57.634.164.237.32.486.54.742l-.644.17c-.165-.215-.304-.417-.44-.61-.163-.177-.32-.347-.5-.49l-.136-.103c-.027-.02-.041-.027-.054-.034l-.09-.077-.352-.312a2.579 2.579 0 01-.35-.35 3.856 3.856 0 01-.283-.412c-.235-.354-.3-.93-.185-1.35.116-.419.3-.468.359-.589.178-.276-.104-.862-.398-1.353M33.258 41.222c-1.157.924-2.567.801-2.995.764-.68-.058-1.4-.148-1.916-.709-.781-.854-.714-2.424.015-3.29 1.135-1.35 3.649-.717 4.876.312.288.241.984.822.937 1.588-.04.636-.57 1.057-.917 1.335M37.847 44.791a.853.853 0 01-.391.184c-.31.06-.458-.257-.914-.439a1.794 1.794 0 00-.512-.12c-.118.01-.302.037-.511.12-.456.182-.605.5-.915.44a.854.854 0 01-.39-.185c-.315-.26-.386-.718-.194-1.078.06-.147.574-1.348 1.053-1.983.23-.333.472-.408.567-.429.105-.023.222-.024.379-.024.158 0 .289 0 .402.024.095.021.337.096.567.43.479.634.993 1.835 1.053 1.982.192.36.12.818-.194 1.078M43.713 41.277c-.516.561-1.237.651-1.913.71-.43.036-1.84.16-2.998-.765-.348-.278-.876-.699-.917-1.335-.047-.766.65-1.347.937-1.588 1.227-1.029 3.742-1.662 4.876-.313.73.867.796 2.437.015 3.291" fill="#231f20" fill-rule="nonzero"/></g><g transform="translate(40.819 13.177)"><clipPath id="prefix__d"><path d="M-35.996 9.323v36l31.177 18 31.177-18v-36l-31.177-18-31.177 18z" clip-rule="nonzero"/></clipPath><g clip-path="url(#prefix__d)"><path d="M0 44.628c1.292-.275 2.576-.537 3.819-.927 1.236-.405 2.451-.844 3.581-1.433 2.254-1.169 4.196-2.843 5.371-4.998.626-1.05 1.064-2.21 1.361-3.411l.433-1.813.519-1.848a8.538 8.538 0 00.27-1.919c-.009-.646-.055-1.292-.08-1.938-.008-.647-.107-1.288-.189-1.929-.088-.641-.142-1.287-.297-1.917-.441-2.551-1.289-5.02-2.334-7.377-.506-1.191-1.158-2.306-1.792-3.429-.714-1.073-1.414-2.156-2.256-3.131-1.651-1.963-3.585-3.692-5.784-4.951C.433 2.34-2.046 1.593-4.538 1.605c-2.491-.009-4.949.695-7.126 1.919-2.185 1.22-4.102 2.919-5.733 4.852-1.648 1.931-2.923 4.163-4.011 6.457-.564 1.144-.973 2.353-1.41 3.55-.342 1.227-.729 2.444-.937 3.702-.992 4.937-1.037 10.371 1.204 14.731 1.118 2.169 2.943 3.924 5.149 5.149 2.207 1.247 4.726 1.993 7.295 2.607-2.64.002-5.328-.389-7.865-1.438-2.519-1.055-4.817-2.937-6.226-5.397-1.401-2.457-2.031-5.243-2.174-7.959-.102-1.364-.002-2.717.047-4.073.149-1.346.259-2.703.568-4.023.235-1.336.651-2.627 1.028-3.926.471-1.269.919-2.548 1.526-3.761 1.162-2.442 2.594-4.775 4.397-6.819 1.794-2.042 3.904-3.845 6.335-5.139C-10.051.739-7.284 0-4.51.081c2.777.054 5.486.951 7.806 2.367 2.336 1.41 4.328 3.288 6.007 5.377.868 1.028 1.587 2.16 2.317 3.282.648 1.171 1.31 2.333 1.823 3.569 1.057 2.448 1.904 5.001 2.336 7.637.152.65.203 1.318.287 1.979.079.662.173 1.323.176 1.992.066 1.336.054 2.657.181 4.019.06.681.099 1.374.043 2.063-.045.691-.245 1.362-.45 2.026-.4 1.329-.96 2.63-1.741 3.803-.778 1.166-1.717 2.24-2.829 3.082a15.234 15.234 0 01-3.59 2.008C5.308 44.252 2.632 44.59 0 44.628" fill="#231f20" fill-rule="nonzero"/></g></g><g><path d="M67.177 58.5v-36L36 4.5l-31.177 18v36L36 76.5l31.177-18z" fill="none" stroke="#231f20" stroke-width="2" stroke-linecap="butt" stroke-linejoin="miter"/></g></g></g></svg>