<svg viewBox="0 0 300 338" xmlns="http://www.w3.org/2000/svg" fill-rule="evenodd" clip-rule="evenodd" stroke-miterlimit="10"><g transform="translate(0 .12) scale(4.16667)"><path fill="none" d="M0 0h72v81H0z"/><clipPath id="prefix__a"><path d="M0 0h72v81H0z"/></clipPath><g clip-path="url(#prefix__a)"><clipPath id="prefix__b"><path d="M4.823 22.5v36L36 76.5l31.177-18v-36L36 4.5l-31.177 18z" clip-rule="nonzero"/></clipPath><g clip-path="url(#prefix__b)"><path d="M67.177 58.5v-36L36 4.5l-31.177 18v36L36 76.5l31.177-18z" fill="#3f7faa" fill-rule="nonzero" opacity=".3"/><path d="M18.972 24.075a2.163 2.163 0 10-4.327 0 2.163 2.163 0 004.327 0" fill="#fff" fill-rule="nonzero"/><path d="M19.286 26.239h-4.955a2.504 2.504 0 00-2.5 2.626l.192 3.938a2.234 2.234 0 002.232 2.125l.638 5.852h3.831l.638-5.852a2.234 2.234 0 002.232-2.125l.193-3.938a2.504 2.504 0 00-2.5-2.626M57.354 24.075a2.163 2.163 0 10-4.326 0 2.163 2.163 0 004.326 0" fill="#fff" fill-rule="nonzero"/><path d="M57.669 26.239h-4.955a2.504 2.504 0 00-2.501 2.626l.193 3.938a2.234 2.234 0 002.232 2.125l.638 5.852h3.83l.639-5.852a2.234 2.234 0 002.232-2.125l.193-3.938a2.504 2.504 0 00-2.501-2.626" fill="#fff" fill-rule="nonzero"/><g opacity=".3"><path d="M18.972 24.075a2.163 2.163 0 10-4.327 0 2.163 2.163 0 004.327 0" fill="#3f7faa" fill-rule="nonzero"/><path d="M19.286 26.239h-4.955a2.504 2.504 0 00-2.5 2.626l.192 3.938a2.234 2.234 0 002.232 2.125l.638 5.852h3.831l.638-5.852a2.234 2.234 0 002.232-2.125l.193-3.938a2.504 2.504 0 00-2.5-2.626M57.354 24.075a2.163 2.163 0 10-4.326 0 2.163 2.163 0 004.326 0" fill="#3f7faa" fill-rule="nonzero"/><path d="M57.669 26.239h-4.955a2.504 2.504 0 00-2.501 2.626l.193 3.938a2.234 2.234 0 002.232 2.125l.638 5.852h3.83l.639-5.852a2.234 2.234 0 002.232-2.125l.193-3.938a2.504 2.504 0 00-2.501-2.626" fill="#3f7faa" fill-rule="nonzero"/></g><g opacity=".3"><path d="M18.972 24.075a2.163 2.163 0 10-4.327 0 2.163 2.163 0 004.327 0" fill="#adbfd6" fill-rule="nonzero"/><path d="M19.286 26.239h-4.955a2.504 2.504 0 00-2.5 2.626l.192 3.938a2.234 2.234 0 002.232 2.125l.638 5.852h3.831l.638-5.852a2.234 2.234 0 002.232-2.125l.193-3.938a2.504 2.504 0 00-2.5-2.626M57.354 24.075a2.163 2.163 0 10-4.326 0 2.163 2.163 0 004.326 0" fill="#adbfd6" fill-rule="nonzero"/><path d="M57.669 26.239h-4.955a2.504 2.504 0 00-2.501 2.626l.193 3.938a2.234 2.234 0 002.232 2.125l.638 5.852h3.83l.639-5.852a2.234 2.234 0 002.232-2.125l.193-3.938a2.504 2.504 0 00-2.501-2.626" fill="#adbfd6" fill-rule="nonzero"/></g><path d="M24.675 27.155a2.885 2.885 0 10-5.77 0 2.885 2.885 0 005.77 0" fill="#fff" fill-rule="nonzero"/><path d="M25.094 30.039h-6.607a3.338 3.338 0 00-3.334 3.502l.257 5.25a2.98 2.98 0 002.976 2.834l.85 7.802h5.108l.85-7.802a2.98 2.98 0 002.977-2.834l.258-5.25a3.339 3.339 0 00-3.335-3.502M53.095 27.155a2.885 2.885 0 10-5.77 0 2.885 2.885 0 005.77 0" fill="#fff" fill-rule="nonzero"/><path d="M53.513 30.039h-6.607a3.338 3.338 0 00-3.334 3.502l.257 5.25a2.98 2.98 0 002.976 2.834l.851 7.802h5.107l.851-7.802a2.98 2.98 0 002.976-2.834l.257-5.25a3.338 3.338 0 00-3.334-3.502" fill="#fff" fill-rule="nonzero"/><g opacity=".3"><path d="M24.675 27.155a2.885 2.885 0 10-5.77 0 2.885 2.885 0 005.77 0" fill="#3f7faa" fill-rule="nonzero"/><path d="M25.094 30.039h-6.607a3.338 3.338 0 00-3.334 3.502l.257 5.25a2.98 2.98 0 002.976 2.834l.85 7.802h5.108l.85-7.802a2.98 2.98 0 002.977-2.834l.258-5.25a3.339 3.339 0 00-3.335-3.502M53.095 27.155a2.885 2.885 0 10-5.77 0 2.885 2.885 0 005.77 0" fill="#3f7faa" fill-rule="nonzero"/><path d="M53.513 30.039h-6.607a3.338 3.338 0 00-3.334 3.502l.257 5.25a2.98 2.98 0 002.976 2.834l.851 7.802h5.107l.851-7.802a2.98 2.98 0 002.976-2.834l.257-5.25a3.338 3.338 0 00-3.334-3.502" fill="#3f7faa" fill-rule="nonzero"/></g><g opacity=".6"><path d="M24.675 27.155a2.885 2.885 0 10-5.77 0 2.885 2.885 0 005.77 0" fill="#adbfd6" fill-rule="nonzero"/><path d="M25.094 30.039h-6.607a3.338 3.338 0 00-3.334 3.502l.257 5.25a2.98 2.98 0 002.976 2.834l.85 7.802h5.108l.85-7.802a2.98 2.98 0 002.977-2.834l.258-5.25a3.339 3.339 0 00-3.335-3.502M53.095 27.155a2.885 2.885 0 10-5.77 0 2.885 2.885 0 005.77 0" fill="#adbfd6" fill-rule="nonzero"/><path d="M53.513 30.039h-6.607a3.338 3.338 0 00-3.334 3.502l.257 5.25a2.98 2.98 0 002.976 2.834l.851 7.802h5.107l.851-7.802a2.98 2.98 0 002.976-2.834l.257-5.25a3.338 3.338 0 00-3.334-3.502" fill="#adbfd6" fill-rule="nonzero"/></g><path d="M31.903 30.263a3.606 3.606 0 10-7.212 0 3.606 3.606 0 007.212 0M47.23 30.263a3.606 3.606 0 10-7.212 0 3.606 3.606 0 007.212 0" fill="#fff" fill-rule="nonzero"/><path d="M47.754 33.868h-8.26a4.167 4.167 0 00-3.533 1.956 4.167 4.167 0 00-3.535-1.956h-8.258A4.173 4.173 0 0020 38.245l.32 6.563a3.725 3.725 0 003.72 3.542l1.065 9.753h6.384l1.064-9.753a3.72 3.72 0 003.408-2.239 3.72 3.72 0 003.408 2.24l1.064 9.752h6.384l1.064-9.753a3.725 3.725 0 003.72-3.542l.32-6.563a4.173 4.173 0 00-4.167-4.377" fill="#fff" fill-rule="nonzero"/><g opacity=".3"><path d="M31.903 30.263a3.606 3.606 0 10-7.212 0 3.606 3.606 0 007.212 0M47.23 30.263a3.606 3.606 0 10-7.212 0 3.606 3.606 0 007.212 0" fill="#3f7faa" fill-rule="nonzero"/><path d="M47.754 33.868h-8.26a4.167 4.167 0 00-3.533 1.956 4.167 4.167 0 00-3.535-1.956h-8.258A4.173 4.173 0 0020 38.245l.32 6.563a3.725 3.725 0 003.72 3.542l1.065 9.753h6.384l1.064-9.753a3.72 3.72 0 003.408-2.239 3.72 3.72 0 003.408 2.24l1.064 9.752h6.384l1.064-9.753a3.725 3.725 0 003.72-3.542l.32-6.563a4.173 4.173 0 00-4.167-4.377" fill="#3f7faa" fill-rule="nonzero"/></g><path d="M31.903 30.263a3.606 3.606 0 10-7.212 0 3.606 3.606 0 007.212 0M47.23 30.263a3.606 3.606 0 10-7.212 0 3.606 3.606 0 007.212 0" fill="#adbfd6" fill-rule="nonzero"/><path d="M47.754 33.868h-8.26a4.167 4.167 0 00-3.533 1.956 4.167 4.167 0 00-3.535-1.956h-8.258A4.173 4.173 0 0020 38.245l.32 6.563a3.725 3.725 0 003.72 3.542l1.065 9.753h6.384l1.064-9.753a3.72 3.72 0 003.408-2.239 3.72 3.72 0 003.408 2.24l1.064 9.752h6.384l1.064-9.753a3.725 3.725 0 003.72-3.542l.32-6.563a4.173 4.173 0 00-4.167-4.377" fill="#adbfd6" fill-rule="nonzero"/><path d="M40.287 33.385a4.327 4.327 0 11-8.653.001 4.327 4.327 0 018.653 0" fill="#fff" fill-rule="nonzero"/><g transform="matrix(0 -1 -1 0 35.96 29.058)"><circle cx="-4.327" r="4.327" fill="none" stroke="#231f20" stroke-width="2"/></g><g><path d="M40.916 37.712h-9.91a5.008 5.008 0 00-5.002 5.253l.386 7.874a4.468 4.468 0 004.464 4.251l1.277 11.704h7.66l1.277-11.704a4.47 4.47 0 004.464-4.25l.386-7.875a5.008 5.008 0 00-5.002-5.253z" fill="#fff" fill-rule="nonzero" stroke="#231f20" stroke-width="2"/></g></g><g><path d="M67.177 58.5v-36L36 4.5l-31.177 18v36L36 76.5l31.177-18z" fill="none" stroke="#231f20" stroke-width="2"/></g></g></g></svg>