<svg xmlns="http://www.w3.org/2000/svg" xmlns:svg="http://www.w3.org/2000/svg" fill-rule="evenodd" stroke-linecap="round" stroke-linejoin="round" stroke-miterlimit="10" clip-rule="evenodd" viewBox="0 0 64.353996 74.309402" xml:space="preserve"><g transform="translate(-3.8229 -3.3453003)"><clipPath id="a"><path d="M4.823 22.5v36L36 76.5l31.177-18v-36L36 4.5Z" clip-rule="nonzero"/></clipPath><g clip-path="url(#a)"><path fill="#3f7faa" fill-rule="nonzero" d="M67.1769 58.5v-36l-31.177-18-31.177 18v36l31.177 18z" opacity=".3"/></g></g><path fill="#fff" fill-rule="nonzero" d="m28.1532 41.3585997-12.253.25 9.766 7.404-3.548 11.73 10.059-7 10.059 7-3.548-11.73 9.765-7.404-12.252-.25-4.024-11.576Z"/><g transform="translate(32.1771 36.7827997)"><clipPath id="b"><path d="M-31.177-17.628v36L0 36.372l31.177-18v-36L0-35.628Z" clip-rule="nonzero"/></clipPath><g clip-path="url(#b)"><path fill="none" stroke="#000" stroke-width="2" d="m0 16.96-10.06 7 3.549-11.73-9.766-7.404 12.253-.25L0-7 4.024 4.576l12.253.25-9.766 7.404 3.549 11.73Z"/></g></g><path fill="#fff" fill-rule="nonzero" d="M15.9006 10.5518997v12.385l16.277 6.846 16.276-6.846v-12.385l-16.276-9.397z"/><g transform="translate(-3.8229 -3.3453003)"><clipPath id="c"><path d="M4.823 22.5v36L36 76.5l31.177-18v-36L36 4.5Z" clip-rule="nonzero"/></clipPath><g fill="none" stroke="#000" clip-path="url(#c)"><path stroke-width="2" d="M52.2768-5.853h-32.554v32.135l16.277 6.846 16.277-6.846Z"/><path d="M36.0005-5.8525v38.98m8.1374-38.981v35.174M27.8611-5.8535v35.174"/></g></g><path fill="none" stroke="#000" stroke-linecap="butt" stroke-linejoin="miter" stroke-width="2" d="M63.354 55.1546997v-36l-31.177-18-31.177 18v36l31.177 18z"/></svg>