<svg xmlns="http://www.w3.org/2000/svg" xmlns:svg="http://www.w3.org/2000/svg" fill-rule="evenodd" stroke-linecap="round" stroke-linejoin="round" stroke-miterlimit="10" clip-rule="evenodd" viewBox="0 0 64.353996 74.309402" xml:space="preserve"><g transform="translate(-3.8229 -1.8453003)"><clipPath id="a"><path d="M4.823 21v36L36 75l31.177-18V21L36 3Z" clip-rule="nonzero"/></clipPath><g clip-path="url(#a)"><path fill="#3f7faa" fill-rule="nonzero" d="M67.1769 57V21L35.9999 3 4.8229 21v36l31.177 18z" opacity=".3"/><g fill="#adbfd6" fill-rule="nonzero" opacity=".8"><path d="M59.3534 32.1842c0 3.318-2.689 6.007-6.006 6.007s-6.004-2.689-6.004-6.007c0-3.316 2.687-6.006 6.004-6.006 3.317 0 6.006 2.69 6.006 6.006"/><path d="M60.2259 38.1904h-13.756c-3.972 0-7.136 3.323-6.942 7.291l.535 10.93c.162 3.304 2.888 5.9 6.197 5.9l1.772 16.245h10.633l1.772-16.245c3.308 0 6.034-2.596 6.196-5.9l.535-10.93c.195-3.968-2.97-7.291-6.942-7.291"/></g><g fill="#adbfd6" fill-rule="nonzero" opacity=".8"><path d="M24.657 32.1842c0 3.318-2.689 6.007-6.006 6.007s-6.004-2.689-6.004-6.007c0-3.316 2.687-6.006 6.004-6.006 3.317 0 6.006 2.69 6.006 6.006"/><path d="M25.5296 38.1904h-13.756c-3.972 0-7.136 3.323-6.942 7.291l.535 10.93c.162 3.304 2.888 5.9 6.197 5.9l1.772 16.245h10.633l1.772-16.245c3.308 0 6.034-2.596 6.196-5.9l.535-10.93c.195-3.968-2.97-7.291-6.942-7.291"/></g><path fill="#fff" fill-rule="nonzero" d="M42.7892 22.5833c0 3.749-3.039 6.789-6.79 6.789-3.748 0-6.788-3.04-6.788-6.789 0-3.749 3.04-6.79 6.788-6.79 3.751 0 6.79 3.041 6.79 6.79"/><circle cx="-6.789" r="6.789" fill="none" stroke="#231f20" stroke-width="2" transform="matrix(0 -1 -1 0 36.0002 15.7943)"/><path fill="#fff" fill-rule="nonzero" stroke="#231f20" stroke-width="2" d="M43.7744 29.3714h-15.549c-4.49 0-8.067 3.757-7.847 8.241l.605 12.356c.183 3.735 3.264 6.669 7.004 6.669l2.003 18.363h12.019l2.003-18.363c3.74 0 6.821-2.934 7.004-6.669l.606-12.356c.219-4.484-3.358-8.241-7.848-8.241Z"/><path fill="#3f7faa" fill-rule="nonzero" d="m36 44.9278-4.659 3.242 1.643-5.433-4.523-3.429 5.675-.116L36 33.8298l1.864 5.362 5.675.116-4.523 3.429 1.643 5.433Z" opacity=".4"/></g></g><path fill="none" stroke="#231f20" stroke-linecap="butt" stroke-linejoin="miter" stroke-width="2" d="M63.354 55.1546997v-36l-31.177-18-31.177 18v36l31.177 18z"/></svg>