<svg viewBox="0 0 300 338" xmlns="http://www.w3.org/2000/svg" fill-rule="evenodd" clip-rule="evenodd" stroke-miterlimit="10"><g transform="translate(0 .06) scale(4.16667)"><path fill="none" d="M0 0h72v81H0z"/><clipPath id="prefix__a"><path d="M0 0h72v81H0z"/></clipPath><g clip-path="url(#prefix__a)"><clipPath id="prefix__b"><path d="M4.823 22.5v36L36 76.5l31.177-18v-36L36 4.5l-31.177 18z" clip-rule="nonzero"/></clipPath><g clip-path="url(#prefix__b)"><path d="M67.214 58.5v-36l-31.177-18-31.177 18v36l31.177 18 31.177-18z" fill="#7f5a90" fill-rule="nonzero" opacity=".3"/><path d="M13.272 8.107l6.667-3.849 9.62 16.66a8.887 8.887 0 018.368 4.42 8.881 8.881 0 01-.358 9.456l-2.894-5.012H30.23l-1.71 2.966-.512.883 2.894 5.012a8.876 8.876 0 01-8.369-4.419 8.884 8.884 0 01.358-9.456l-9.619-16.66z" fill="#fff" fill-rule="nonzero" stroke="#231f20" stroke-width="2"/><path d="M32.653 49.279a3.824 3.824 0 001.4-5.224v-.001l9.708-5.605c4.378-2.528 9.987-2.124 13.7 1.309a11.767 11.767 0 011.968 2.352c.27.428-.24.927-.665.65a7.622 7.622 0 00-9.033.544c-2.89 2.38-3.464 6.602-1.59 9.846l16.797 29.096-6.627 3.826-16.85-29.185c-.914-1.584-2.814-2.422-4.55-1.842-.892.299-1.462.848-1.634 1.047-.99 1.137-1.172 2.872-.505 4.514l-6.627 3.826-7.347-12.725 6.627-3.826a3.824 3.824 0 005.227 1.398" fill="#fff" fill-rule="nonzero"/><path d="M32.653 49.279a3.824 3.824 0 001.4-5.224v-.001l9.708-5.605c4.378-2.528 9.987-2.124 13.7 1.309a11.767 11.767 0 011.968 2.352c.27.428-.24.927-.665.65a7.622 7.622 0 00-9.033.544c-2.89 2.38-3.464 6.602-1.59 9.846l16.797 29.096-6.627 3.826-16.85-29.185c-.914-1.584-2.814-2.422-4.55-1.842-.892.299-1.462.848-1.634 1.047-.99 1.137-1.172 2.872-.505 4.514l-6.627 3.826-7.347-12.725 6.627-3.826h0a3.824 3.824 0 005.227 1.398z" fill="none" stroke="#231f20" stroke-width="2"/><path fill="#231f20" d="M26.203 48.463l7.571 13.114.866-.5-7.57-13.114z"/></g><g><path d="M67.177 58.5v-36L36 4.5l-31.177 18v36L36 76.5l31.177-18z" fill="none" stroke="#231f20" stroke-width="2"/></g></g></g></svg>