<svg viewBox="0 0 300 339" xmlns="http://www.w3.org/2000/svg" fill-rule="evenodd" clip-rule="evenodd" stroke-miterlimit="10"><g transform="translate(0 .688) scale(4.16667)"><path fill="none" d="M0 0h72v81H0z"/><clipPath id="prefix__a"><path d="M0 0h72v81H0z"/></clipPath><g clip-path="url(#prefix__a)"><path d="M67.177 58.5v-36L36 4.5l-31.177 18v36L36 76.5l31.177-18z" fill="#3f7faa" fill-rule="nonzero" opacity=".3"/><path d="M67.177 58.5v-36L36 4.5l-31.177 18v36L36 76.5l31.177-18z" fill="none" stroke="#231f20" stroke-width="2"/><path d="M61.308 36.852a2.327 2.327 0 01-1.664.692h-2.153a6.583 6.583 0 00-6.313 4.716l-1.395 4.71a6.592 6.592 0 01-6.32 4.718h-7.74c-1.564-1.461-1.402-3.108-.485-4.025a2.362 2.362 0 011.67-.692h7.95l1.395-4.711 1.4-4.716 1.394-4.717H59.52c1.27 0 2.405.949 2.477 2.217.04.709-.23 1.349-.688 1.808" fill="#fff" fill-rule="nonzero"/><path d="M61.308 36.852a2.327 2.327 0 01-1.664.692h-2.153a6.583 6.583 0 00-6.313 4.716l-1.395 4.71a6.592 6.592 0 01-6.32 4.718h-7.74c-1.564-1.461-1.402-3.108-.485-4.025a2.362 2.362 0 011.67-.692h7.95l1.395-4.711 1.4-4.716 1.394-4.717H59.52c1.27 0 2.405.949 2.477 2.217.04.709-.23 1.349-.688 1.808z" fill="none" stroke="#231f20" stroke-width="2"/><path d="M59.804 39.899a2.35 2.35 0 01-.692 1.669 2.327 2.327 0 01-1.664.692h-6.27l1.395-4.716h4.875a2.355 2.355 0 012.356 2.355" fill="#fff" fill-rule="nonzero"/><path d="M59.804 39.899a2.35 2.35 0 01-.692 1.669 2.327 2.327 0 01-1.664.692h-6.27l1.395-4.716h4.875a2.355 2.355 0 012.356 2.355z" fill="none" stroke="#231f20" stroke-width="2"/><path d="M55.532 44.615c0 .648-.264 1.241-.692 1.664a2.357 2.357 0 01-1.669.691h-3.388l1.395-4.71h1.993a2.36 2.36 0 012.361 2.355" fill="#fff" fill-rule="nonzero"/><path d="M55.532 44.615c0 .648-.264 1.241-.692 1.664a2.357 2.357 0 01-1.669.691h-3.388l1.395-4.71h1.993a2.36 2.36 0 012.361 2.355z" fill="none" stroke="#231f20" stroke-width="2"/><path d="M10.692 36.852c.423.428 1.01.692 1.664.692h2.153a6.583 6.583 0 016.313 4.716l1.395 4.71a6.592 6.592 0 006.32 4.718h7.74c1.564-1.461 1.402-3.108.485-4.025a2.362 2.362 0 00-1.67-.692h-7.95l-1.395-4.711-1.4-4.716-1.394-4.717H12.48c-1.27 0-2.405.949-2.477 2.217-.04.709.23 1.349.688 1.808" fill="#fff" fill-rule="nonzero"/><path d="M10.692 36.852c.423.428 1.01.692 1.664.692h2.153a6.583 6.583 0 016.313 4.716l1.395 4.71a6.592 6.592 0 006.32 4.718h7.74c1.564-1.461 1.402-3.108.485-4.025a2.362 2.362 0 00-1.67-.692h-7.95l-1.395-4.711-1.4-4.716-1.394-4.717H12.48c-1.27 0-2.405.949-2.477 2.217-.04.709.23 1.349.688 1.808z" fill="none" stroke="#231f20" stroke-width="2"/><path d="M12.196 39.899c0 .653.264 1.24.692 1.669.423.428 1.01.692 1.664.692h6.27l-1.395-4.716h-4.875a2.355 2.355 0 00-2.356 2.355" fill="#fff" fill-rule="nonzero"/><path d="M12.196 39.899c0 .653.264 1.24.692 1.669.423.428 1.01.692 1.664.692h6.27l-1.395-4.716h-4.875a2.355 2.355 0 00-2.356 2.355z" fill="none" stroke="#231f20" stroke-width="2"/><path d="M16.468 44.615c0 .648.264 1.241.692 1.664a2.357 2.357 0 001.669.691h3.388l-1.395-4.71h-1.993a2.36 2.36 0 00-2.361 2.355" fill="#fff" fill-rule="nonzero"/><path d="M16.468 44.615c0 .648.264 1.241.692 1.664a2.357 2.357 0 001.669.691h3.388l-1.395-4.71h-1.993a2.36 2.36 0 00-2.361 2.355z" fill="none" stroke="#231f20" stroke-width="2"/><path d="M47.704 30.54c1.028.091 1.708 1.111 1.417 2.101l-4.553 15.505a8.925 8.925 0 01-8.565 6.42 8.936 8.936 0 01-8.57-6.42l-4.57-15.57a1.643 1.643 0 011.393-2.1c4.688-.495 8.493-1.836 10.294-3.58.62-.6 1.621-.62 2.238-.018 1.87 1.83 5.933 3.217 10.916 3.661" fill="#fff" fill-rule="nonzero"/><path d="M47.704 30.54c1.028.091 1.708 1.111 1.417 2.101l-4.553 15.505a8.925 8.925 0 01-8.565 6.42 8.936 8.936 0 01-8.57-6.42l-4.57-15.57a1.643 1.643 0 011.393-2.1c4.688-.495 8.493-1.836 10.294-3.58.62-.6 1.621-.62 2.238-.018 1.87 1.83 5.933 3.217 10.916 3.661z" fill="none" stroke="#231f20" stroke-width="2" stroke-linecap="round" stroke-linejoin="round"/><path d="M35.678 43.085l-4.659 3.242 1.643-5.433-4.523-3.429 5.675-.116 1.864-5.362 1.864 5.362 5.675.116-4.523 3.43 1.643 5.432-4.659-3.242z" fill="#3f7faa" fill-rule="nonzero" opacity=".4"/></g></g></svg>