<svg viewBox="0 0 300 338" xmlns="http://www.w3.org/2000/svg" fill-rule="evenodd" clip-rule="evenodd" stroke-linecap="round" stroke-linejoin="round" stroke-miterlimit="10"><g transform="translate(0 .44) scale(4.16667)"><path fill="none" d="M0 0h72v81H0z"/><clipPath id="prefix__a"><path d="M0 0h72v81H0z"/></clipPath><g clip-path="url(#prefix__a)"><clipPath id="prefix__b"><path d="M4.823 22.5v36L36 76.5l31.177-18v-36L36 4.5l-31.177 18z" clip-rule="nonzero"/></clipPath><g clip-path="url(#prefix__b)"><path d="M4.823 58.5v-36L36 4.5l31.177 18v36L36 76.5l-31.177-18z" fill="#3f7faa" fill-rule="nonzero" opacity=".3"/><path d="M29.21 24.083a6.79 6.79 0 1013.58 0 6.79 6.79 0 00-13.58 0" fill="#231f20" fill-rule="nonzero"/><circle cx="6.789" fill="none" stroke="#231f20" stroke-width="2" r="6.789" transform="matrix(0 1 1 0 36 17.294)"/><path d="M51.127 49.226l-.11 2.24a7.003 7.003 0 01-7 6.67l-2.01 18.36h-12.02l-2-18.36c-1.87 0-3.57-.73-4.83-1.93a6.996 6.996 0 01-2.17-4.74l-.61-12.35c-.12-2.44.88-4.66 2.54-6.18l28.21 16.29z" fill="#fff" fill-rule="nonzero" stroke="#231f20" stroke-width="2"/><path d="M51.627 39.116l-.5 10.11-28.21-16.29a7.817 7.817 0 015.31-2.06h15.55c4.49 0 8.06 3.75 7.85 8.24z" fill="#231f20" fill-rule="nonzero" stroke="#231f20" stroke-width="2"/></g><g><path d="M4.823 58.5v-36L36 4.5l31.177 18v36L36 76.5l-31.177-18z" fill="none" stroke="#231f20" stroke-width="2" stroke-linecap="butt" stroke-linejoin="miter"/></g></g></g></svg>