<svg viewBox="0 0 301 338" xmlns="http://www.w3.org/2000/svg" fill-rule="evenodd" clip-rule="evenodd" stroke-miterlimit="10"><g transform="translate(.5 .12) scale(4.16667)"><path fill="none" d="M0 0h72v81H0z"/><clipPath id="prefix__a"><path d="M0 0h72v81H0z"/></clipPath><g clip-path="url(#prefix__a)"><path d="M4.86 58.512V22.555L36 4.576l31.14 17.979v35.957L36 76.491 4.86 58.512z" fill="#3d8b8a" fill-rule="nonzero" opacity=".3"/><clipPath id="prefix__b"><path d="M4.86 22.488v35.957L36 76.424l31.14-17.979V22.488L36 4.509 4.86 22.488z" clip-rule="nonzero"/></clipPath><g clip-path="url(#prefix__b)"><path d="M18.221-6.199A284.782 284.782 0 0031.578 12.37c8.944 11.438 16.584 19.41 21.548 24.561a358.88 358.88 0 0022.681 21.564c5.808-6.989 27.762-29.41 33.57-36.399L43.67-32.509c-3.1 3.626-22.348 22.684-25.449 26.31z" fill="#fff" fill-rule="nonzero" stroke="#231f20" stroke-width="2"/><path d="M51.237 22.653a36.718 36.718 0 00-2.575 3.727c-.702 1.157-2.373 4.039-4.818 10.658-1.116 3.02-3.14 8.835-4.566 16.996-.53 3.027-.896 5.918-.178 7.146.587 1.003 1.655.48 2.193.204 5.844-3.004 8.634-6.47 8.635-6.47 4.538-5.636 6.81-8.54 6.952-12.702.097-2.83-.42-6.16-.832-8.81a76.794 76.794 0 00-1.912-8.847" fill="#fff" fill-rule="nonzero"/><path d="M51.237 22.653c-.65 2.357-1.763 4.218-2.782 6.178-.992 1.98-1.851 4.054-2.655 6.149-1.622 4.2-2.93 8.48-3.981 12.839a99.784 99.784 0 00-1.343 6.587c-.185 1.102-.356 2.2-.45 3.27-.047.534-.07 1.06-.063 1.555.006.487.073.962.173 1.226.05.115.095.148.033.1-.065-.05-.15-.027-.051-.037.08-.007.253-.064.449-.158.203-.096.473-.248.706-.368a31.113 31.113 0 002.82-1.677 30.047 30.047 0 002.622-1.951c.42-.345.819-.71 1.212-1.078l.569-.565.624-.677-.116.125c1.713-2.105 3.479-4.18 4.883-6.366.698-1.093 1.272-2.221 1.602-3.402.352-1.175.402-2.408.375-3.74-.071-2.624-.435-5.316-.714-8.012-.292-2.685-.668-5.367-1.014-8.096 1.115 2.516 1.92 5.158 2.526 7.843.575 2.678 1.09 5.376 1.227 8.197.062 1.382.04 2.91-.361 4.36-.374 1.456-1.03 2.79-1.77 4.005-1.493 2.43-3.232 4.546-4.906 6.699l-.118.125a.492.492 0 00.069-.066l-.04.047-.078.094-.154.175-.311.336-.633.64c-.43.412-.866.816-1.32 1.196-.9.766-1.841 1.476-2.814 2.136a33.107 33.107 0 01-3.011 1.828c-.27.143-.491.274-.8.425-.314.149-.674.309-1.156.384-.46.085-1.141.027-1.686-.336-.541-.362-.802-.836-.98-1.235-.305-.8-.347-1.472-.374-2.115-.02-.641.025-1.248.079-1.844.114-1.191.303-2.334.5-3.467.4-2.262.879-4.508 1.429-6.738 1.079-4.464 2.584-8.834 4.314-13.067.87-2.122 1.796-4.226 2.883-6.28 1.06-2.073 2.438-4.031 4.586-5.244" fill="#231f20" fill-rule="nonzero"/><path d="M45.77 16.628a66.926 66.926 0 00-5.995 3.157c-1.682.997-5.723 3.494-12.422 9.462-3.057 2.724-8.708 7.989-14.018 15.617-1.97 2.829-3.595 5.555-2.662 6.86.762 1.067 2.914.745 4.004.57 11.829-1.907 18.139-4.776 18.139-4.776 10.263-4.668 15.428-7.083 17.05-11.073 1.103-2.71 1.229-6.01 1.329-8.636a39.526 39.526 0 00-.664-8.857" fill="#fff" fill-rule="nonzero"/><path d="M45.77 16.627c-2.366 2.204-5.012 3.668-7.541 5.332-2.511 1.702-4.909 3.606-7.235 5.594-4.669 3.98-9.022 8.272-12.868 13.002-1.896 2.357-3.765 4.842-5.299 7.37-.368.626-.71 1.266-.935 1.87a4.036 4.036 0 00-.217.822c-.022.23.012.352.023.364.004.013.015.06.205.13.179.065.458.108.761.116.621.019 1.312-.074 2.068-.202a106.828 106.828 0 008.975-1.824 85.335 85.335 0 004.395-1.236 64.848 64.848 0 002.159-.71l1.062-.384 1.125-.448-.11.043c2.918-1.306 5.848-2.59 8.671-4 2.776-1.418 5.66-2.94 7.312-5.24.782-1.111 1.211-2.603 1.522-4.093.319-1.502.45-3.07.605-4.653.313-3.152.322-6.311.083-9.527.957 3.074 1.374 6.346 1.356 9.586.022 1.612-.037 3.249-.266 4.902-.254 1.643-.655 3.323-1.647 4.895-1.006 1.506-2.368 2.613-3.733 3.56-1.38.944-2.813 1.733-4.25 2.486-2.879 1.498-5.795 2.83-8.697 4.187l-.11.044.02-.003-.061.027-.143.062-.279.118-.555.226-1.111.423c-.741.274-1.484.529-2.232.77-1.496.48-3.004.908-4.518 1.305a109.268 109.268 0 01-9.173 1.934c-.764.13-1.61.268-2.537.25-.466-.015-.964-.06-1.518-.247-.537-.172-1.209-.595-1.572-1.266-.371-.665-.392-1.35-.334-1.884.068-.535.211-.988.367-1.415.322-.841.725-1.563 1.139-2.265 1.694-2.747 3.571-5.197 5.557-7.642 3.961-4.861 8.542-9.19 13.345-13.14 2.405-1.982 4.888-3.886 7.524-5.607 2.63-1.738 5.435-3.223 8.667-3.631" fill="#231f20" fill-rule="nonzero"/><path d="M16.41 51.306a92.559 92.559 0 017.992-10.164c.586-.63 1.208-1.229 1.809-1.844l3.634-3.662a91.115 91.115 0 0116.479-12.239c-5.736 3.722-11.05 8.067-15.779 12.954l-3.411 3.79c-.563.635-1.145 1.252-1.691 1.9a90.748 90.748 0 00-7.352 10.348l-1.681-1.083z" fill="#231f20" fill-rule="nonzero"/><path d="M32.323 47.598c-.133-.624-.588-1.387-1.09-1.983a9.816 9.816 0 00-1.795-1.66c-.657-.5-1.381-.917-2.114-1.317a28.32 28.32 0 00-2.293-1.036l.17-.47c.81.282 1.612.589 2.399.945.777.375 1.549.772 2.27 1.266a10.641 10.641 0 012.022 1.697c.3.33.582.684.826 1.072.248.4.455.77.592 1.325l-.987.16zM38.952 44.441c-.014-.36-.186-.9-.387-1.337a7.972 7.972 0 00-.787-1.312 13.145 13.145 0 00-2.15-2.284c-.393-.354-.83-.66-1.245-.992-.44-.299-.873-.612-1.323-.899a40.773 40.773 0 00-2.79-1.595l.22-.45c.98.472 1.952.961 2.896 1.512.472.275.927.58 1.392.87.441.325.904.623 1.328.976.871.675 1.67 1.457 2.372 2.336.681.911 1.313 1.831 1.474 3.177l-1-.002zM46.433 40.272c-.364-1.086-.9-2.191-1.51-3.21a17.367 17.367 0 00-2.154-2.861 14.275 14.275 0 00-2.723-2.326c-.981-.695-2.09-1.176-3.207-1.618l.158-.475c1.17.416 2.34.879 3.387 1.567a14.96 14.96 0 012.926 2.333 18.2 18.2 0 012.355 2.916c.68 1.06 1.264 2.149 1.72 3.37l-.952.304z" fill="#231f20" fill-rule="nonzero"/></g><g><path d="M4.86 58.445V22.488L36 4.51l31.14 17.98v35.956L36 76.425 4.86 58.444z" fill="none" stroke="#231f20" stroke-width="2"/></g></g></g></svg>