<svg viewBox="0 0 301 338" xmlns="http://www.w3.org/2000/svg" fill-rule="evenodd" clip-rule="evenodd" stroke-miterlimit="10"><g transform="translate(.5 .375) scale(4.16667)"><path fill="none" d="M0 0h72v81H0z"/><clipPath id="prefix__a"><path d="M0 0h72v81H0z"/></clipPath><g clip-path="url(#prefix__a)"><path d="M67.177 58.5v-36L36 4.5l-31.177 18v36L36 76.5l31.177-18z" fill="#3d8b8a" fill-rule="nonzero" opacity=".3"/><path d="M67.177 58.5v-36L36 4.5l-31.177 18v36L36 76.5l31.177-18z" fill="none" stroke="#231f20" stroke-width="2"/><clipPath id="prefix__b"><path d="M34.521 29.665c-4.709 1.58-9.83 3.363-14.543 8.12-4.264 4.305-6.186 9.02-7.082 11.879 2.363 1.561 9.154 5.601 18.488 5.17 2.24-.103 13.21-.611 20.718-9.624 6.191-7.435 6.058-15.891 5.944-18.191a61.625 61.625 0 00-5.486-.247c-5.39 0-11.57.722-18.039 2.893z" clip-rule="nonzero"/></clipPath><g clip-path="url(#prefix__b)"><path d="M58.045 27.019c-6.466-.58-14.729-.305-23.524 2.646-4.71 1.58-9.83 3.363-14.543 8.12-4.264 4.305-6.187 9.02-7.082 11.879 2.362 1.562 9.153 5.6 18.487 5.17 2.24-.103 13.211-.61 20.718-9.624 6.193-7.435 6.059-15.891 5.945-18.191" fill="#3d8b8a" fill-rule="nonzero" opacity=".3"/><path d="M50.674 27.27c4.714 8.744 1.29 19.57-7.646 24.183-8.936 4.613-20.003 1.263-24.715-7.48-4.715-8.745-1.292-19.573 7.644-24.184 8.936-4.612 20.003-1.264 24.717 7.48" fill="#fff" fill-rule="nonzero"/></g><clipPath id="prefix__c"><path d="M34.521 29.665c-4.709 1.58-9.83 3.363-14.543 8.12a28.174 28.174 0 00-2.875 3.402 17.79 17.79 0 001.209 2.785c4.714 8.745 15.78 12.094 24.716 7.481 8.936-4.613 12.359-15.439 7.646-24.184a20.08 20.08 0 00-.256-.458c-4.861.174-10.269.965-15.897 2.854z" clip-rule="nonzero"/></clipPath><g clip-path="url(#prefix__c)"><path d="M38.697 46.924l5.532 12.004-1.874.697-3.658-12.701z" fill="#231f20" fill-rule="nonzero"/><path d="M38.697 46.924l5.532 12.004-1.874.697-3.658-12.701zM40.64 46.038l7.578 10.876-1.723 1.017-5.856-11.893zM42.395 44.835l9.395 9.42-1.518 1.301-7.877-10.72z" fill="#231f20" fill-rule="nonzero"/><path d="M42.395 44.835l9.395 9.42-1.518 1.301-7.877-10.72zM43.91 43.353l10.926 7.677-1.269 1.546-9.657-9.223zM25.076 27.889L14.15 20.212l1.269-1.546 9.657 9.223zM45.14 41.635l12.126 5.702-.984 1.741-11.143-7.443zM23.846 29.606L11.72 23.904l.984-1.74 11.143 7.442z" fill="#231f20" fill-rule="nonzero"/><path d="M45.14 41.635l12.126 5.702-.984 1.741-11.143-7.443zM23.846 29.606L11.72 23.904l.984-1.74 11.143 7.442zM46.045 39.735l12.96 3.554-.671 1.884-12.29-5.438zM22.94 31.507L9.98 27.953l.672-1.884 12.289 5.438zM46.6 37.71L60 39.007l-.34 1.97L46.6 37.71zM22.386 33.532l-13.4-1.297.34-1.971 13.06 3.268z" fill="#231f20" fill-rule="nonzero"/><path d="M46.6 37.71L60 39.007l-.34 1.97L46.6 37.71zM22.386 33.532l-13.4-1.297.34-1.971 13.06 3.268zM46.786 35.62l13.435-1v2l-13.435-1zM22.2 35.62l-13.435 1v-2l13.434 1zM46.6 33.532l13.06-3.268.34 1.971-13.4 1.297zM22.386 37.71l-13.06 3.267-.34-1.97 13.4-1.297z" fill="#231f20" fill-rule="nonzero"/><path d="M46.6 33.532l13.06-3.268.34 1.971-13.4 1.297zM22.386 37.71l-13.06 3.267-.34-1.97 13.4-1.297zM46.045 31.507l12.289-5.438.67 1.884-12.96 3.554zM22.94 39.735l-12.288 5.438-.671-1.884 12.96-3.554zM45.14 29.606l11.142-7.443.984 1.741-12.127 5.702zM23.846 41.635l-11.143 7.443-.984-1.74 12.127-5.703z" fill="#231f20" fill-rule="nonzero"/><path d="M45.14 29.606l11.142-7.443.984 1.741-12.127 5.702zM23.846 41.635l-11.143 7.443-.984-1.74 12.127-5.703zM43.91 27.889l9.657-9.223 1.269 1.546-10.926 7.677zM25.076 43.353l-9.657 9.223-1.27-1.546 10.927-7.677zM26.59 44.835l-7.876 10.721-1.518-1.302 9.395-9.419z" fill="#231f20" fill-rule="nonzero"/><path d="M26.59 44.835l-7.876 10.721-1.518-1.302 9.395-9.419zM28.346 46.038L22.49 57.93l-1.723-1.017 7.58-10.876zM30.288 46.924L26.63 59.625l-1.874-.697 5.532-12.004z" fill="#231f20" fill-rule="nonzero"/><path d="M30.288 46.924L26.63 59.625l-1.874-.697 5.532-12.004zM32.358 47.467L31.009 60.59l-1.968-.354 3.317-12.77zM34.493 47.65l1 13.145h-2l1-13.146z" fill="#231f20" fill-rule="nonzero"/><path d="M34.493 47.65l1 13.145h-2l1-13.146zM36.627 47.467l3.317 12.768-1.968.355-1.349-13.123zM36.961 34.741a26.367 26.367 0 011.557 11.691 26.743 26.743 0 01-6.494-9.933 26.272 26.272 0 01-1.55-11.692 26.85 26.85 0 016.487 9.934" fill="#231f20" fill-rule="nonzero"/></g><g transform="scale(-1 1) rotate(-62.7 10.753 28.665)"><clipPath id="prefix__d"><path d="M-10.901-11.108c.756 4.909 1.52 10.277-.545 16.647-1.87 5.764-5.178 9.634-7.308 11.742-2.471-1.384-9.175-5.566-13.074-14.058-.935-2.037-5.515-12.018-.95-22.824 3.767-8.912 11.342-12.672 13.439-13.625a61.865 61.865 0 012.735 4.761c2.472 4.79 4.665 10.613 5.703 17.357z" clip-rule="nonzero"/></clipPath><g clip-path="url(#prefix__d)"><path d="M-16.181-26.56c-9.932-.179-17.983 7.829-17.983 17.886 0 10.056 8.052 18.354 17.983 18.531 9.933.179 17.985-7.829 17.984-17.885 0-10.056-8.051-18.354-17.984-18.532z" fill="none" stroke="#231f20" stroke-width="2"/></g></g><g><path d="M58.045 27.019c-6.466-.58-14.729-.305-23.524 2.646-4.71 1.58-9.83 3.363-14.543 8.12-4.264 4.305-6.187 9.02-7.082 11.879 2.362 1.562 9.153 5.6 18.487 5.17 2.24-.103 13.211-.61 20.718-9.624 6.193-7.435 6.059-15.891 5.945-18.191z" fill="none" stroke="#231f20" stroke-width="2"/></g><g><path d="M37.365 34.414v-1.861l-1.612-.931-1.612.931v1.861l1.612.931 1.612-.931z" fill="#fff" fill-rule="nonzero"/></g></g></g></svg>