<svg viewBox="0 0 300 338" xmlns="http://www.w3.org/2000/svg" fill-rule="evenodd" clip-rule="evenodd" stroke-miterlimit="10"><g transform="translate(0 .44) scale(4.16667)"><path fill="none" d="M0 0h72v81H0z"/><clipPath id="prefix__a"><path d="M0 0h72v81H0z"/></clipPath><g clip-path="url(#prefix__a)"><path d="M67.177 58.5v-36L36 4.5l-31.177 18v36L36 76.5l31.177-18z" fill="#3d8b8a" fill-rule="nonzero" opacity=".3"/><path d="M67.177 58.5v-36L36 4.5l-31.177 18v36L36 76.5l31.177-18z" fill="none" stroke="#231f20" stroke-width="2"/><path d="M62.572 30.271V50.73L44.857 60.952l-6.752-3.893-1.055-.612-1.045-.6-1.055-.613-1.065-.612-1.045-.612-1.066-.6-4.63-2.68V30.27l4.63-2.68 1.055.612 1.066.612-4.642 2.68v18.01l4.642 2.68 1.055.612 1.055.601 2.11 1.224 1.045.601 1.065.612 4.632 2.68 15.605-9.01v-18.01l-15.605-9.01-4.632 2.68-1.065-.613-1.055-.61 6.752-3.895 17.715 10.224z" fill="#231f20" fill-rule="nonzero"/><path d="M44.857 30.271V50.73l-4.632 2.68-1.055-.612-1.065-.612 4.642-2.68v-18.01l-4.642-2.68-1.056-.612-1.044-.6-1.066-.613-2.11-1.224-1.055-.602-4.632-2.679-15.604 9.01v18.01l15.604 9.01 4.632-2.68 1.066.612 1.055.612-6.753 3.893L9.428 50.73V30.271l17.714-10.224 6.753 3.894 1.055.611 1.055.612 1.044.602 1.066.612 1.045.612 1.065.601 4.632 2.68z" fill="#231f20" fill-rule="nonzero"/><path d="M40.637 32.708v15.583l-4.632 2.68-4.642-2.68V32.708l4.642-2.68 4.632 2.68z" fill="#3d8b8a" fill-rule="nonzero" opacity=".3"/></g></g></svg>