<svg xmlns="http://www.w3.org/2000/svg" xmlns:svg="http://www.w3.org/2000/svg" fill-rule="evenodd" stroke-miterlimit="10" clip-rule="evenodd" viewBox="0 0 64.353996 74.309402" xml:space="preserve"><g transform="translate(-3.8229 -3.3453003)"><clipPath id="a"><path d="M4.823 22.5v36L36 76.5l31.177-18v-36L36 4.5Z" clip-rule="nonzero"/></clipPath><g clip-path="url(#a)"><path fill="#3f7faa" fill-rule="nonzero" d="M67.1769 58.5v-36l-31.177-18-31.177 18v36l31.177 18z" opacity=".3"/><path fill="#fff" fill-rule="nonzero" d="M28.2969-.8374c-.249-.85.217-1.718 1.061-1.98.145-.043.289-.063.458-.063.699 0 1.324.469 1.52 1.14l4.854 16.265-.525 2.723-.321.071c-.31.068-.619.181-.919.336l-.536.276Z"/><path fill="#231f20" fill-rule="nonzero" d="M29.8159-3.3801c-.221 0-.411.026-.598.082-1.116.347-1.728 1.487-1.402 2.599l5.422 18.195.344 1.155 1.072-.552c.261-.134.53-.233.799-.293l.641-.142.124-.644.44-2.281.046-.24-.07-.235-4.82-16.15c-.256-.877-1.078-1.494-1.998-1.494m0 1c.46 0 .9.3 1.04.78l4.82 16.15-.44 2.28c-.36.08-.71.21-1.04.38l-5.42-18.19c-.17-.58.15-1.18.73-1.36.1-.03.2-.04.31-.04"/><path fill="#fff" fill-rule="nonzero" d="M36.3657 30.77c-2.409 0-4.37-1.96-4.37-4.37v-4.84c0-1.166.453-2.261 1.277-3.083.297-.298.611-.538.958-.733.205-.114.408-.204.622-.283l.827-.307-.703 3.729-.026.176c-.041.175-.048.287-.056.396l.001 3.925c0 .816.659 1.48 1.47 1.48.83 0 1.48-.65 1.48-1.48v-3.315l.078-.122c.081-.13.14-.288.17-.459l.697-3.687.669.669c.829.83 1.286 1.929 1.286 3.094v4.84c0 2.41-1.964 4.37-4.38 4.37"/><path fill="#231f20" fill-rule="nonzero" d="m36.3335 16.3824-1.653.609c-.249.092-.474.194-.69.314-.388.218-.747.492-1.072.817-.917.918-1.423 2.139-1.423 3.437v4.84c0 2.686 2.185 4.87 4.87 4.87 2.691 0 4.88-2.184 4.88-4.87v-4.84c0-1.298-.508-2.523-1.432-3.447l-1.339-1.338-.351 1.86-.52 2.75c-.021.121-.056.217-.103.292l-.155.244v3.459c0 .55-.43.98-.98.98-.543 0-.97-.43-.97-.98v-3.932c.003-.05.005-.1.017-.147l.044-.143v-.095l.016-.108.296-1.558.24-1.282zm-1.308 1.547-.24 1.28-.3 1.58c-.01.06-.02.13-.03.2v.02c-.04.13-.05.27-.06.41v3.96c0 1.1.88 1.98 1.97 1.98 1.1 0 1.98-.88 1.98-1.98v-3.17c.12-.19.2-.41.24-.64l.52-2.75c.7.7 1.14 1.67 1.14 2.74v4.84c0 2.14-1.74 3.87-3.88 3.87-2.13 0-3.87-1.73-3.87-3.87v-4.84c0-1.07.43-2.03 1.13-2.73.25-.25.53-.47.85-.65.18-.1.36-.18.55-.25"/><path fill="#fff" fill-rule="nonzero" d="M36.5122 22.7642c-.088 0-.174-.007-.257-.021-.123-.021-.221-.052-.284-.075-.196-.088-.335-.176-.457-.284-.432-.329-.654-.928-.539-1.502l.839-4.433.006-.006 3.534-18.596c.14-.75.797-1.296 1.562-1.296.096 0 .193.009.291.027.758.16 1.299.82 1.299 1.572 0 .089-.01.167-.023.255l-3.653 19.245h-.01l-.272 1.46-.451 2.361c-.058.298-.191.564-.385.776-.3.329-.737.517-1.2.517"/><path fill="#231f20" fill-rule="nonzero" d="M40.9158-3.9486c-1.005 0-1.869.717-2.053 1.705l-3.149 16.547-.018.092v.011l-.339 1.799-.006.005-.057.303-.19 1-.361 1.911-.149.789-.11.58c-.148.738.135 1.518.725 1.987.152.131.324.239.523.33l.034.015.035.013c.121.045.247.078.374.098.108.018.221.028.338.028.602 0 1.174-.248 1.569-.679.255-.279.43-.629.505-1.012l.082-.441.15-.786.219-1.125.018-.095v-.015l.144-.781.034-.18.165-.814 3.57-18.8.004-.021.006-.044c.016-.11.027-.209.027-.321 0-.987-.708-1.853-1.683-2.059-.15-.028-.279-.04-.407-.04m0 1c.066 0 .133.006.2.019.52.11.89.57.89 1.08 0 .07-.01.13-.02.2l-3.57 18.8h-.01l-.19 1-.16.87v.01l-.22 1.13-.15.79-.08.43c-.025.129-.089.34-.262.53-.226.247-.545.354-.831.354-.061 0-.12-.005-.177-.014-.082-.014-.148-.035-.19-.05-.11-.05-.21-.11-.3-.19-.3-.23-.46-.63-.38-1.03l.11-.58.15-.79.36-1.91.19-1c.01-.01.02-.01.03-.01l-.01-.06v-.01l.4-2.12v-.01l3.15-16.55c.098-.523.556-.889 1.07-.889"/><path fill="#fff" fill-rule="nonzero" d="M26.8702 31.0712c.095-.139.222-.303.376-.49 4.115-4.994 11.289-6.194 16.904-2.976l2.04 1.17c1.192 5.098.659 9.08.138 11.392-3.254 14.448-18.694 19.947-19.534 20.231-2.007.68-3.755 1.022-4.998 1.208 1.932-1.345 4.654-3.592 6.973-7.058.724-1.081 7.675-11.663 3.305-17.518-1.25-1.674-3.038-2.532-4.52-2.996-.228-.988-.456-1.975-.684-2.963"/><path fill="#231f20" fill-rule="nonzero" d="M27.8528 31.2571c.254.856.479 1.695.676 2.552l-.676-.729.008.003c1.46.481 2.899 1.229 4.053 2.361 1.171 1.112 1.91 2.666 2.232 4.198.34 1.557.203 3.112-.066 4.582-.264 1.481-.737 2.889-1.293 4.247-1.123 2.715-2.553 5.251-4.329 7.593-1.79 2.32-3.964 4.324-6.376 5.952l-.359-.905h.001c1.85-.302 3.695-.774 5.424-1.444 1.738-.693 3.419-1.573 5.035-2.532 1.606-.983 3.134-2.082 4.577-3.278 1.401-1.239 2.767-2.53 3.905-4.004 2.337-2.893 4.046-6.275 4.812-9.887.768-3.606.623-7.378-.259-10.962l-.001-.002.476.64c-.774-.436-1.577-.921-2.328-1.317-.372-.19-.736-.394-1.129-.537-.382-.168-.774-.311-1.176-.422-1.594-.483-3.287-.665-4.944-.471-1.657.182-3.276.692-4.729 1.501-.716.422-1.406.891-2.025 1.447-.303.284-.623.551-.889.872l-.419.462c-.08.108-.081.062-.201.08m-1.965-.372c.157-.337.42-.749.628-.986l.487-.54c.313-.372.683-.688 1.038-1.018.723-.647 1.527-1.198 2.363-1.687 1.695-.945 3.577-1.538 5.5-1.748 1.923-.222 3.887-.015 5.737.546.466.13.92.296 1.364.49.455.168.879.401 1.309.623.841.445 1.579.895 2.374 1.342l.385.217.092.423v.002c.863 3.861.933 7.932.019 11.801-.908 3.873-2.828 7.46-5.361 10.456-1.238 1.53-2.696 2.851-4.186 4.11-1.53 1.214-3.138 2.318-4.82 3.296-1.694.956-3.433 1.82-5.266 2.506-1.854.671-3.749 1.109-5.679 1.382h-.002l-2.02.288 1.661-1.193c2.282-1.638 4.307-3.622 5.948-5.881 1.616-2.261 2.949-4.793 3.932-7.39.489-1.301.891-2.635 1.088-3.977.206-1.334.274-2.698-.044-3.937-.31-1.231-.878-2.365-1.815-3.209-.919-.852-2.097-1.435-3.357-1.81l-.007-.002-.547-.17-.129-.56c-.259-1.118-.49-2.255-.692-3.374"/><path fill="#231f20" fill-rule="nonzero" d="m27.1552 30.1127 8.291 2.986.225.081.074.164v.001c1.435 2.703 2.242 5.761 2.221 8.834 0 3.072-.776 6.121-2.144 8.85-1.345 2.743-3.32 5.185-5.724 7.077-2.406 1.893-5.209 3.259-8.185 3.986l-.233-.972c2.825-.689 5.513-1.999 7.799-3.8 2.288-1.802 4.162-4.115 5.448-6.736 1.306-2.606 2.038-5.501 2.039-8.405.02-2.906-.741-5.798-2.104-8.365v-.001l.299.245-8.576-2.028z"/><path fill="none" d="m46.19024476 28.77493455-10.8862761 4.8036739"/><path fill="#231f20" fill-rule="nonzero" d="M46.59424927 29.68928774 35.5054676 34.0351991l-.40363512-.91479132 10.68514656-5.26070268Z"/></g></g><path fill="none" stroke="#231f20" stroke-width="2" d="M63.354 55.1546997v-36l-31.177-18-31.177 18v36l31.177 18z"/></svg>