<svg viewBox="0 0 301 338" xmlns="http://www.w3.org/2000/svg" fill-rule="evenodd" clip-rule="evenodd" stroke-miterlimit="10"><g transform="translate(.5 .44) scale(4.16667)"><path fill="none" d="M0 0h72v81H0z"/><clipPath id="prefix__a"><path d="M0 0h72v81H0z"/></clipPath><g clip-path="url(#prefix__a)"><path d="M67.177 58.5v-36L36 4.5l-31.177 18v36L36 76.5l31.177-18z" fill="#495790" fill-rule="nonzero" opacity=".3"/><path d="M67.177 58.5v-36L36 4.5l-31.177 18v36L36 76.5l31.177-18z" fill="none" stroke="#231f20" stroke-width="2"/><path d="M53.84 40.744h-3.26v3.78h-3.498v-14.8l-4.077-11.263H28.947L24.87 29.724v14.8h-3.497v-3.78h-3.26l-3.779 3.78v13.114h8.548l1.988-1.988h22.212l1.988 1.988h8.55V44.523l-3.78-3.779z" fill="#fff" fill-rule="nonzero" stroke="#231f20" stroke-width="2"/><path d="M40.531 24.477h-9.257l-1.014.635 1.16-3.223h8.974l1.27 3.252-1.133-.664z" fill="#fff" fill-rule="nonzero"/><path d="M40.706 21.432h-9.608L29.385 26.2l2.02-1.266h9.002l2.16 1.266-1.861-4.767zm-.624.913l.679 1.736-.106-.062h-9.513l-.005.004.603-1.678h8.342z" fill="#231f20" fill-rule="nonzero"/><path d="M18.112 40.744v16.894M53.84 40.744v16.894M25.134 44.522l2.512 11.128M46.81 44.523L44.299 55.65" fill="none" stroke="#231f20"/></g></g></svg>