<svg xmlns="http://www.w3.org/2000/svg" xmlns:svg="http://www.w3.org/2000/svg" fill-rule="evenodd" stroke-miterlimit="10" clip-rule="evenodd" viewBox="0 0 64.353996 74.309402" xml:space="preserve"><path fill="#3f7faa" fill-rule="nonzero" d="M63.354 55.1546997v-36l-31.177-18-31.177 18v36l31.177 18z" opacity=".3"/><g transform="translate(-3.8229 -3.3453003)"><clipPath id="a"><path d="M4.823 22.5v36L36 76.5l31.177-18v-36L36 4.5Z" clip-rule="nonzero"/></clipPath><g clip-path="url(#a)"><path fill="#fff" fill-rule="nonzero" stroke="#000" d="m35.9581 60.7492 3.541-3.885c-1.838-1.743-3.676-3.486-5.514-5.23l-3.697 3.741c-2.277-.873-4.554-1.747-6.831-2.62l-.248-5.254c-2.532.067-5.064.134-7.596.202l.034 5.256c-2.229.994-4.459 1.987-6.689 2.981l-3.879-3.539c-1.743 1.838-3.486 3.676-5.23 5.514l3.735 3.694c-.873 2.277-1.747 4.555-2.62 6.832l-5.248.249c.067 2.533.135 5.065.202 7.597l5.25-.037c.994 2.23 1.987 4.46 2.981 6.689l-3.533 3.882 5.514 5.229 3.688-3.737c2.277.874 4.555 1.747 6.832 2.621l.25 5.247 7.596-.201-.037-5.251c2.23-.993 4.46-1.987 6.69-2.98 1.295 1.18 2.59 2.36 3.885 3.541l5.229-5.514c-1.247-1.232-2.494-2.464-3.74-3.697.873-2.277 1.746-4.554 2.62-6.831l5.253-.248-.201-7.596-5.256.034c-.994-2.229-1.987-4.459-2.981-6.689Z"/><path fill="#fff" fill-rule="nonzero" d="m58.3789 50.7227.42-3.869-1.994-4.473-3.156-2.275 2.229-5.801 3.86.418 4.48-1.997 2.271-3.149 5.806 2.227-.422 3.863 1.993 4.474 3.159 2.275-2.222 5.804-3.869-.421-4.474 1.993-2.274 3.159z"/><path fill-rule="nonzero" d="m66.3083 28.9718-2.418 3.353c-1.823.812-2.409 1.073-4.233 1.886l-4.109-.445c-.835 2.174-1.67 4.347-2.505 6.521l3.36 2.42c.812 1.822 1.072 2.406 1.884 4.227l-.448 4.118c2.176.835 4.351 1.669 6.526 2.503l2.421-3.361c1.822-.811 2.406-1.072 4.227-1.883l4.118.448c.833-2.175 1.665-4.349 2.497-6.524l-3.361-2.421c-.811-1.821-1.072-2.406-1.883-4.227l.45-4.112c-2.175-.834-4.351-1.669-6.526-2.503m.361 1.209 2.591.994 2.496.958-.366 3.345-.03.269.11.247 1.385 3.107.499 1.12.11.247.219.158 2.736 1.97-.93 2.43-1.016 2.655-3.352-.364-.268-.029-.247.11-2.388 1.064-1.839.819-.246.11-.158.219-1.971 2.736-2.592-.995-2.495-.957.364-3.352.029-.268-.11-.247-.885-1.987-.998-2.24-.11-.246-.219-.158-2.735-1.97.976-2.541.977-2.542 3.344.362.268.029.246-.11 1.241-.553 2.992-1.333.247-.11.157-.219 1.968-2.728"/><path fill="#fff" fill-rule="nonzero" d="M42.6612 31.2451c-.453 3.694-3.814 6.322-7.508 5.869-3.694-.452-6.322-3.814-5.869-7.508.452-3.694 3.814-6.321 7.508-5.869 3.694.453 6.321 3.814 5.869 7.508m5.108-6.659c-1.212-1.497-2.424-2.994-3.636-4.49l.914-3.644c-.245-.159-.499-.315-.764-.467-1.981-1.135-3.964-1.724-5.717-2.019l-1.759 3.325c-1.901.301-3.803.602-5.704.903l-2.696-2.613c-1.797 1.457-3.593 2.915-5.39 4.372l1.995 3.181c-.689 1.796-1.378 3.593-2.067 5.389l-3.61 1.031c.361 2.284.723 4.567 1.085 6.851l3.75-.136c1.213 1.496 2.425 2.991 3.638 4.486l-.915 3.644c2.161.829 4.321 1.657 6.481 2.486l1.756-3.317c1.902-.302 3.804-.604 5.706-.907l2.698 2.609c1.797-1.454 3.593-2.908 5.39-4.362l-1.997-3.187c.689-1.796 1.378-3.593 2.067-5.389l3.616-1.034-1.089-6.852Z"/><path fill="none" stroke="#000" stroke-width="2" d="M42.6612 31.2451c-.453 3.694-3.814 6.322-7.508 5.869-3.694-.452-6.322-3.814-5.869-7.508.452-3.694 3.814-6.321 7.508-5.869 3.694.453 6.321 3.814 5.869 7.508zm5.108-6.659c-1.212-1.497-2.424-2.994-3.636-4.49l.914-3.644c-.245-.159-.499-.315-.764-.467-1.981-1.135-3.964-1.724-5.717-2.019l-1.759 3.325c-1.901.301-3.803.602-5.704.903l-2.696-2.613c-1.797 1.457-3.593 2.915-5.39 4.372l1.995 3.181c-.689 1.796-1.378 3.593-2.067 5.389l-3.61 1.031c.361 2.284.723 4.567 1.085 6.851l3.75-.136c1.213 1.496 2.425 2.991 3.638 4.486l-.915 3.644c2.161.829 4.321 1.657 6.481 2.486l1.756-3.317c1.902-.302 3.804-.604 5.706-.907l2.698 2.609c1.797-1.454 3.593-2.908 5.39-4.362l-1.997-3.187c.689-1.796 1.378-3.593 2.067-5.389l3.616-1.034-1.089-6.852Z"/></g></g><path fill="none" stroke="#000" stroke-width="2" d="M63.354 55.1546997v-36l-31.177-18-31.177 18v36l31.177 18z"/></svg>