<svg xmlns="http://www.w3.org/2000/svg" xmlns:svg="http://www.w3.org/2000/svg" fill-rule="evenodd" stroke-miterlimit="10" clip-rule="evenodd" viewBox="0 0 64.353996 74.309402" xml:space="preserve"><g transform="translate(-3.8229 -3.3453003)"><clipPath id="a"><path d="M4.823 22.5v36L36 76.5l31.177-18v-36L36 4.5Z" clip-rule="nonzero"/></clipPath><g fill-rule="nonzero" clip-path="url(#a)"><path fill="#7f5a90" d="M67.1769 58.5v-36l-31.177-18-31.177 18v36l31.177 18z" opacity=".3"/><path fill="#fff" stroke="#000" d="M54.9741 34.334c-1.47-2.548-2.94-5.095-4.41-7.643l2.252-5.277c-.332-.298-.679-.594-1.042-.886-2.716-2.186-5.567-3.55-8.14-4.415l-3.448 4.595c-2.94-.002-5.88-.003-8.82-.004l-3.441-4.586c-3.059 1.768-6.117 3.536-9.176 5.305l2.248 5.276-4.407 7.632-5.693.692-.003 10.593 5.689.693c1.471 2.545 2.942 5.091 4.413 7.636l-2.251 5.278c3.06 1.767 6.121 3.534 9.181 5.301l3.441-4.583c2.942-.001 5.883-.001 8.824-.002l3.445 4.58c3.058-1.763 6.116-3.526 9.174-5.29l-2.25-5.285c1.469-2.544 2.938-5.088 4.407-7.633l5.702-.694-.003-10.596Z"/><path fill="#fff" stroke="#000" stroke-width="2" d="m60.1622 91.6079 2.613-4.533 5.224.001 1.567.001 4.421 7.657c2.849-4.172 3.244-9.773.546-14.447-2.695-4.668-7.747-7.132-12.784-6.75l-14.649-25.372c2.849-4.172 3.242-9.779.547-14.447-2.699-4.673-7.751-7.137-12.785-6.75l4.42 7.656-.78 1.35-2.613 4.532-5.224-.001-1.567-.001-4.421-7.656c-2.849 4.172-3.244 9.773-.546 14.447 0 0 1.025 1.775 2.53 3.175 3.693 3.434 9.382 3.565 10.254 3.575 4.883 8.457 9.766 16.915 14.649 25.372-.432.767-3.16 5.75-2.031 10.668.46 2.003 1.485 3.779 1.485 3.779 2.698 4.673 7.75 7.137 12.784 6.75l-4.42-7.657z"/></g></g><path fill="none" stroke="#000" stroke-width="2" d="M63.354 55.1546997v-36l-31.177-18-31.177 18v36l31.177 18z"/></svg>