<svg xmlns="http://www.w3.org/2000/svg" xmlns:svg="http://www.w3.org/2000/svg" fill-rule="evenodd" stroke-miterlimit="10" clip-rule="evenodd" viewBox="0 0 64.353996 74.309402" xml:space="preserve"><path fill="#7f5a90" fill-rule="nonzero" d="M63.354 55.1545997v-36l-31.177-18-31.177 18v36l31.177 18z" opacity=".3"/><path fill="none" stroke="#231f20" stroke-width="2" d="M63.354 55.1546997v-36l-31.177-18-31.177 18v36l31.177 18z"/><g transform="translate(13.9837 27.1500997)"><clipPath id="a"><path d="M-12.984-7.995v36l31.177 18 31.177-18v-36l-31.177-18zm45.371 9.862v-14.25l9.12 19.56zM3.997-10.644V1.747l-9.49 5.43zm14.31 37.081 11.44 6.6H7.037Z" clip-rule="nonzero"/></clipPath><g clip-path="url(#a)"><path fill="none" stroke="#231f20" stroke-width="2" d="M0 21.009V0l18.193-10.504L36.387 0v21.009L18.193 31.513Z"/></g></g><path fill="#fff" fill-rule="nonzero" d="M18.4837 46.0604997v-15.812l13.693-7.906 13.694 7.906v15.812l-13.694 7.906z"/><path fill="#231f20" fill-rule="nonzero" d="m32.177 21.7655997-14.193 8.195v16.389l14.193 8.194 14.193-8.194v-16.389zm0 1.155 13.193 7.617v15.234l-13.193 7.617-13.193-7.617v-15.234z"/></svg>