<svg viewBox="0 0 300 338" xmlns="http://www.w3.org/2000/svg" fill-rule="evenodd" clip-rule="evenodd" stroke-miterlimit="10"><g transform="translate(0 .375) scale(4.16667)"><path fill="none" d="M0 0h72v81H0z"/><clipPath id="prefix__a"><path d="M0 0h72v81H0z"/></clipPath><g clip-path="url(#prefix__a)"><path d="M67.177 58.5v-36L36 4.5l-31.177 18v36L36 76.5l31.177-18z" fill="#3f7faa" fill-rule="nonzero" opacity=".3"/><clipPath id="prefix__b"><path d="M4.823 22.5v36L36 76.5l31.177-18v-36L36 4.5l-31.177 18z" clip-rule="nonzero"/></clipPath><g clip-path="url(#prefix__b)"><path d="M35.958 60.75l3.541-3.886-5.514-5.23-3.697 3.741-6.83-2.62-.249-5.254-7.596.202.034 5.256-6.689 2.981-3.879-3.539-5.23 5.514 3.735 3.694-2.62 6.832-5.248.25.202 7.596 5.25-.037 2.981 6.69L.616 86.82l5.514 5.23 3.688-3.738 6.832 2.621.25 5.247 7.596-.2-.037-5.252 6.69-2.98 3.885 3.541 5.23-5.514a6518.552 6518.552 0 01-3.74-3.697c.872-2.277 1.745-4.554 2.62-6.83L44.395 75l-.2-7.596-5.257.034-2.98-6.689z" fill="#fff" fill-rule="nonzero" stroke="#231f20"/><path d="M58.379 50.723l.42-3.87-1.994-4.472-3.156-2.275 2.229-5.801 3.86.418 4.48-1.997 2.27-3.15 5.807 2.228-.422 3.863 1.993 4.474 3.159 2.275-2.222 5.804-3.87-.421-4.473 1.993-2.274 3.159-5.807-2.228z" fill="#fff" fill-rule="nonzero"/><path d="M66.308 28.972l-2.418 3.353-4.233 1.886-4.109-.445-2.505 6.52 3.36 2.42 1.884 4.228-.448 4.118 6.526 2.503 2.421-3.361 4.227-1.883 4.118.448 2.497-6.524-3.36-2.421-1.884-4.227.45-4.112c-2.175-.834-4.35-1.67-6.526-2.503m.361 1.209l2.591.994 2.496.958-.366 3.345-.03.269.11.247 1.385 3.107.5 1.12.11.247.218.158 2.736 1.97-.93 2.43-1.016 2.655-3.352-.364-.268-.03-.247.11-2.388 1.065-1.839.819-.246.11-.158.219-1.97 2.736-2.593-.995-2.495-.957.364-3.352.03-.268-.11-.247-.886-1.987-.998-2.24-.11-.246-.219-.158-2.735-1.97.976-2.541.977-2.542 3.344.362.268.029.246-.11 1.241-.553 2.992-1.333.247-.11.157-.22 1.968-2.727" fill="#231f20" fill-rule="nonzero"/><path d="M42.661 31.245a6.738 6.738 0 11-13.377-1.639 6.738 6.738 0 0113.377 1.64m5.108-6.66a17680.56 17680.56 0 00-3.636-4.49l.914-3.644a16.294 16.294 0 00-.764-.467 17.182 17.182 0 00-5.717-2.019l-1.759 3.325-5.704.903-2.696-2.613-5.39 4.372 1.995 3.181-2.067 5.39-3.61 1.03 1.085 6.851 3.75-.136 3.638 4.486-.915 3.644c2.161.83 4.321 1.657 6.481 2.486l1.756-3.317 5.706-.907 2.698 2.61 5.39-4.363-1.997-3.187c.69-1.796 1.378-3.593 2.067-5.389l3.616-1.034-1.089-6.852-3.752.14z" fill="#fff" fill-rule="nonzero"/><path d="M42.661 31.245a6.738 6.738 0 11-13.377-1.639 6.738 6.738 0 0113.377 1.64zm5.108-6.659a17680.56 17680.56 0 00-3.636-4.49l.914-3.644a16.294 16.294 0 00-.764-.467 17.182 17.182 0 00-5.717-2.019l-1.759 3.325-5.704.903-2.696-2.613-5.39 4.372 1.995 3.181-2.067 5.39-3.61 1.03 1.085 6.851 3.75-.136 3.638 4.486-.915 3.644c2.161.83 4.321 1.657 6.481 2.486l1.756-3.317 5.706-.907 2.698 2.61 5.39-4.363-1.997-3.187c.69-1.796 1.378-3.593 2.067-5.389l3.616-1.034-1.089-6.852-3.752.14z" fill="none" stroke="#231f20" stroke-width="2"/></g><g><path d="M67.177 58.5v-36L36 4.5l-31.177 18v36L36 76.5l31.177-18z" fill="none" stroke="#231f20" stroke-width="2"/></g></g></g></svg>