<svg viewBox="0 0 301 338" xmlns="http://www.w3.org/2000/svg" fill-rule="evenodd" clip-rule="evenodd" stroke-miterlimit="10"><g transform="translate(.5 .44) scale(4.16667)"><path fill="none" d="M0 0h72v81H0z"/><clipPath id="prefix__a"><path d="M0 0h72v81H0z"/></clipPath><g clip-path="url(#prefix__a)"><path d="M67.177 58.5v-36L36 4.5l-31.177 18v36L36 76.5l31.177-18z" fill="#9aa3ad" fill-rule="nonzero" opacity=".3"/><path d="M67.177 58.5v-36L36 4.5l-31.177 18v36L36 76.5l31.177-18z" fill="none" stroke="#231f20" stroke-width="2"/><path d="M48.25 37.95h-24.5l-3.498 3.496V59.04a3.498 3.498 0 003.498 3.498h1.462l3.497-3.497v-9.054l1.531 2.383 1.531 2.384h8.457l1.531-2.384 1.53-2.383v9.054l3.498 3.497h1.462a3.497 3.497 0 003.497-3.498V41.446L48.25 37.95z" fill="#fff" fill-rule="nonzero" stroke="#231f20" stroke-width="2" stroke-linecap="round" stroke-linejoin="round"/><path d="M23.84 37.95v18.273l4.96 2.818M48.16 37.95v18.746l-4.96 2.346" fill="none" stroke="#231f20" stroke-linecap="round" stroke-linejoin="round"/><path d="M32.72 46.879V56.5h-1.362c-7.484-9.734-8.087-24.623-8.087-24.623l5.285-13.415 5.626 1.068v1.296h3.637V19.53l5.626-1.068 5.285 13.415s-.604 14.889-8.087 24.623H39.28v-9.621a3.28 3.28 0 00-6.561 0z" fill="#fff" fill-rule="nonzero"/><path d="M31.743 54.754c.126-2.317.37-4.633.458-6.95.018-.289.025-.579.031-.869.01-.315.047-.658.136-.974a3.842 3.842 0 01.952-1.719c.913-.972 2.39-1.38 3.668-.988a3.958 3.958 0 012.698 2.703c.101.318.14.671.158.987l.054.869.131 1.737c.078 1.159.18 2.317.216 3.475.04 1.158.04 2.317.047 3.475l-1.012-1.012 1.363-.008-.809.399c1.235-1.707 2.341-3.517 3.24-5.447.876-1.937 1.677-3.921 2.288-5.977a58.42 58.42 0 001.515-6.257c.386-2.105.682-4.272.811-6.363l.072.423-5.247-13.429 1.118.616-5.626 1.067.813-.982v2.296h-5.636V19.53l.813.982-5.626-1.068 1.117-.616-5.285 13.415.07-.407c.122 2.095.412 4.264.793 6.373a57.961 57.961 0 001.51 6.266c.613 2.057 1.404 4.05 2.3 5.982.911 1.928 2.03 3.734 3.276 5.434l-.793-.391h1.362l-1 1a33.888 33.888 0 01.024-1.746m1.953 0c.025.582.03 1.164.023 1.746l-.009 1h-2.859l-.287-.39c-1.344-1.828-2.534-3.758-3.495-5.79-.945-2.036-1.77-4.123-2.408-6.262a59.868 59.868 0 01-1.565-6.491c-.394-2.198-.69-4.375-.824-6.65l-.012-.202.08-.205 5.285-13.415.304-.77.813.154 5.625 1.068h.001l.814.155v2.124l-1-1h3.636l-1 1v-2.124l.814-.155 5.625-1.069.812-.154.306.771 5.323 13.4.084.21-.012.214c-.128 2.279-.419 4.457-.807 6.659a59.592 59.592 0 01-1.56 6.5 44.11 44.11 0 01-2.419 6.267c-.975 2.029-2.177 3.955-3.533 5.777l-.298.401-.51-.003-1.363-.008-1.017-.006.006-1.006c.006-1.158.007-2.317.046-3.475.037-1.158.138-2.316.217-3.475l.13-1.737.054-.869a2.783 2.783 0 00-.044-.734c-.166-.969-.972-1.799-1.936-2.03-.96-.255-2.023.046-2.73.736-.35.35-.612.791-.729 1.274-.065.244-.07.483-.07.745.006.29.013.58.031.869.09 2.317.332 4.633.458 6.95" fill="#231f20" fill-rule="nonzero"/><path d="M39.28 41.02c5.494-2.83 4.963-8.686 4.963-8.686l-2.387-13.571M30.122 18.759l-2.387 13.575s-.51 5.855 4.985 8.686" fill="none" stroke="#231f20" stroke-linecap="round" stroke-linejoin="round"/><path d="M30.977 32.197c.55-.78 1.31-1.38 2.173-1.81a6.587 6.587 0 012.826-.675 6.502 6.502 0 012.841.612c.874.411 1.647 1 2.206 1.774l-1.004 1.136a12.422 12.422 0 00-2.018-.749 7.912 7.912 0 00-2-.248 7.711 7.711 0 00-1.997.281c-.664.188-1.332.465-2 .795l-1.027-1.116z" fill="#fff" fill-rule="nonzero" stroke="#231f20"/><path d="M32.72 51.878h6.56" fill="none" stroke="#231f20" stroke-linecap="round" stroke-linejoin="round"/><path d="M39.28 41.02c-.278-.247-1.476-1.255-3.302-1.247-1.797.008-2.975.996-3.258 1.247" fill="#fff" fill-rule="nonzero" stroke="#231f20"/><path d="M38.818 19.826h-5.637v5.035a2.822 2.822 0 002.82 2.818 2.821 2.821 0 002.817-2.818v-5.035zm-1 1v4.035c0 .997-.82 1.818-1.818 1.818a1.827 1.827 0 01-1.819-1.818v-4.035h3.637" fill="#231f20" fill-rule="nonzero"/></g></g></svg>