<svg xmlns="http://www.w3.org/2000/svg" xmlns:svg="http://www.w3.org/2000/svg" fill-rule="evenodd" stroke-miterlimit="10" clip-rule="evenodd" viewBox="0 0 64.353996 74.309402" xml:space="preserve"><path fill="#495790" fill-rule="nonzero" d="M63.354 55.1546997v-36l-31.177-18-31.177 18v36l31.177 18z" opacity=".3"/><path fill="none" stroke="#231f20" stroke-width="2" d="M63.354 55.1546997v-36l-31.177-18-31.177 18v36l31.177 18z"/><path fill="none" stroke="#231f20" d="M10.8401 19.0571997v4.114l3.562 2.056 3.563-2.056v-4.114"/><path fill="none" stroke="#231f20" stroke-width="2" d="M14.402 25.2279997v8.433l7.145 7.144"/><path fill="none" stroke="#231f20" d="M53.5141 19.0581997v4.113l-3.562 2.057-3.562-2.057v-4.113"/><path fill="none" stroke="#231f20" stroke-width="2" d="M49.9522 25.2279997v8.433l-7.145 7.144"/><path fill="#fff" fill-rule="nonzero" d="M21.3509 28.9381997h21.647l5 15.824h-31.647Z" opacity=".3"/><path fill="#fff" fill-rule="nonzero" d="M32.1721 63.0752997c8.74 0 15.83-7.09 15.83-15.83v-2.48l-.71-2.23-3.5-11.11-.79-2.49h-21.65l-.79 2.49-3.5 11.11-.71 2.23v2.48c0 8.74 7.08 15.83 15.82 15.83"/><path fill="none" stroke="#231f20" stroke-width="2" d="M32.1721 63.0752997c8.74 0 15.83-7.09 15.83-15.83v-2.48l-.71-2.23-3.5-11.11-.79-2.49h-21.65l-.79 2.49-3.5 11.11-.71 2.23v2.48c0 8.74 7.08 15.83 15.82 15.83z"/><path fill="#b9bdc2" fill-rule="nonzero" stroke="#231f20" d="M38.8709 29.4193997v2.94l-6.69 2.93-6.7-2.93v-2.94z"/><path fill="#231f20" fill-rule="nonzero" d="M22.4755 55.0973997c1.687.835 3.262 1.199 4.872 1.484.812.099 1.601.247 2.412.272.802.07 1.607.114 2.415.091.808.029 1.613-.024 2.416-.087.811-.027 1.601-.171 2.412-.271 1.611-.284 3.187-.651 4.871-1.489l.153.129c-1.188 1.384-2.836 2.275-4.534 2.853-1.711.575-3.515.838-5.318.863-1.802-.024-3.607-.288-5.318-.863-1.698-.578-3.346-1.469-4.533-2.853Z"/></svg>