<svg viewBox="0 0 301 339" xmlns="http://www.w3.org/2000/svg" fill-rule="evenodd" clip-rule="evenodd" stroke-miterlimit="10"><path fill="none" d="M.5.75h300v337.5H.5z"/><g transform="translate(.5 .75) scale(4.16667)"><clipPath id="prefix__a"><path d="M4.823 22.5v36L36 76.5l31.177-18v-36L36 4.5l-31.177 18z" clip-rule="nonzero"/></clipPath><g clip-path="url(#prefix__a)"><path d="M67.177 58.5v-36L36 4.5l-31.177 18v36L36 76.5l31.177-18z" fill="#3f7faa" fill-rule="nonzero" opacity=".3"/><path d="M-.246 57.863v-24.12l24.112-13.097-.084 9.67-.471.29c-6.49 3.985-10.255 9.444-9.156 13.274.083.289.879 2.855 3.225 3.776a4.993 4.993 0 001.832.334c1.414 0 2.79-.532 3.683-1.423.873-.873.896-1.733.933-3.16.03-1.196.07-2.687.699-4.525 2.235-6.532 9.186-9.45 10.557-9.97a18.678 18.678 0 016.637-1.2c.908 0 1.83.065 2.739.192l.51.07.239.458c.28.54 1.364 2.347 3.5 2.933.448.123.914.186 1.386.186.419 0 .843-.05 1.259-.146l.425-.097 9.335 6.326-2.305 10.268-2.877-5.315-3.562-1.911-5.943.725a9.343 9.343 0 01-3.002 1.869 9.12 9.12 0 01-3.255.589c-2.145 0-4.05-.698-5.37-1.357a16.632 16.632 0 01-1.49 6.958c-.437.958-1.6 3.503-4.283 5.658-1.23.988-4.573 3.284-9.068 3.284-.863 0-1.731-.088-2.58-.26a13.565 13.565 0 01-5.284-2.352 37.394 37.394 0 00.12 9.119 37.51 37.51 0 002.063 8.135l2.26 5.995L-.245 57.863z" fill="#fff" fill-rule="nonzero"/><path d="M24.881 18.957l-2.984 1.62-11.049 6.003-11.049 6-1.045.569v25.063l.432.544 6.294 7.942 6.294 7.942 7.96 10.042-4.52-11.99a36.334 36.334 0 01-2.266-15.163 14.323 14.323 0 004.231 1.593c.915.186 1.85.28 2.778.28 4.814 0 8.384-2.45 9.696-3.504 2.87-2.305 4.103-5.006 4.567-6.023a17.476 17.476 0 001.521-5.872c1.252.476 2.772.856 4.428.856 1.255 0 2.47-.22 3.612-.654a10.27 10.27 0 003.077-1.85l5.318-.647 3.02 1.618.588 1.089.875 1.615 2.541 4.695 1.17-5.21.523-2.332 1.047-4.665.298-1.33-1.128-.764-4.5-3.05-3.909-2.65-.722-.488-.849.196a4.64 4.64 0 01-1.036.119c-.382 0-.759-.05-1.12-.15-1.745-.48-2.645-1.982-2.879-2.432l-.477-.913-1.02-.142a20.932 20.932 0 00-2.878-.201c-2.422 0-4.774.426-6.99 1.265-1.445.547-8.77 3.628-11.15 10.58-.678 1.983-.719 3.559-.752 4.825-.037 1.433-.076 1.913-.64 2.477-.698.697-1.839 1.13-2.976 1.13a3.992 3.992 0 01-1.466-.265c-1.933-.76-2.603-3.024-2.63-3.121-.96-3.346 2.706-8.454 8.717-12.146l.944-.58.01-1.106.032-3.71.032-3.71.03-3.395zm-2.03 3.378l-.064 7.419c-6.989 4.292-10.822 10.12-9.594 14.402.095.33 1.007 3.326 3.822 4.43a6.027 6.027 0 002.197.404c1.655 0 3.304-.631 4.39-1.715 2.058-2.057.55-4.206 1.871-8.07 2.151-6.286 9.022-9 9.965-9.356a17.688 17.688 0 016.282-1.136c1.014 0 1.897.084 2.601.18.237.455 1.471 2.709 4.123 3.437a6.203 6.203 0 001.65.22c.613 0 1.126-.087 1.485-.17l8.41 5.7-1.572 6.998a5114.4 5114.4 0 00-1.748-3.231l-4.106-2.201-6.585.802a8.415 8.415 0 01-2.908 1.887 8.112 8.112 0 01-2.9.524c-3.31 0-6.048-1.867-6.475-2.167.173 1.512.337 4.78-1.294 8.353-.466 1.019-1.55 3.326-4 5.294-.65.52-3.94 3.063-8.444 3.063-.76 0-1.557-.073-2.38-.24-3.09-.627-5.19-2.306-6.235-3.294a38.5 38.5 0 00-.118 11.177 38.371 38.371 0 002.118 8.352L.754 57.516V34.339l22.097-12.004" fill="#231f20" fill-rule="nonzero"/><path d="M50.321 34.456a.616.616 0 111.233 0 .616.616 0 01-1.233 0" fill="#231f20" fill-rule="nonzero"/><path d="M42.276 34.776a1.844 1.844 0 01-1.245-3.2 1.84 1.84 0 012.603.113c.686.75.634 1.917-.114 2.603a1.84 1.84 0 01-1.244.484" fill="#3f7faa" fill-rule="nonzero" opacity=".3"/><path d="M42.275 30.592c-.587 0-1.149.218-1.582.615-.461.423-.73 1-.758 1.625a2.33 2.33 0 00.613 1.684 2.35 2.35 0 001.728.76c.587 0 1.148-.218 1.581-.615a2.32 2.32 0 00.758-1.624 2.323 2.323 0 00-.613-1.685 2.347 2.347 0 00-1.727-.76m0 1a1.342 1.342 0 110 2.685 1.342 1.342 0 010-2.685M44.83 36.68l3.856.119.06.002.06.038 7.863 5.008-1.02 1.72-7.147-6.214.12.04-3.793-.713z" fill="#231f20" fill-rule="nonzero"/></g></g><g transform="translate(280.404 94.5) scale(4.16667)" opacity=".9"><clipPath id="prefix__b"><path clip-rule="nonzero" d="M-63.354-19.155H1v74.309h-64.354z"/></clipPath><g clip-path="url(#prefix__b)"><path d="M0 36V0l-31.177-18-31.177 18v36l31.177 18L0 36z" fill="none" stroke="#231f20" stroke-width="2"/></g></g></svg>