<svg xmlns="http://www.w3.org/2000/svg" xmlns:svg="http://www.w3.org/2000/svg" fill-rule="evenodd" stroke-miterlimit="10" clip-rule="evenodd" viewBox="0 0 64.353996 74.309402" xml:space="preserve"><path fill="#3f7faa" fill-rule="nonzero" d="M63.354 55.1546997v-36l-31.177-18-31.177 18v36l31.177 18z" opacity=".3"/><path fill="none" stroke="#231f20" stroke-width="2" d="M63.354 55.1546997v-36l-31.177-18-31.177 18v36l31.177 18z"/><path fill="#fff" fill-rule="nonzero" d="M49.6464 37.7245997c-.636 1.153-1.315 2.284-2.035 3.384-1.929 2.957-4.142 5.717-6.608 8.239-.142.142-.278.284-.418.424-2.61 2.61-5.477 4.939-8.561 6.959-2.695-1.812-5.219-3.87-7.538-6.143-2.986-2.92-5.614-6.167-7.844-9.69-.705-1.115-1.369-2.255-1.993-3.421-2.798-5.237-.823-11.753 4.413-14.551 4.506-2.408 9.958-1.285 13.177 2.41 3.267-3.642 8.726-4.691 13.192-2.222 5.198 2.871 7.087 9.413 4.215 14.611"/><path fill="none" stroke="#231f20" stroke-width="2" d="M49.6464 37.7245997c-.636 1.153-1.315 2.284-2.035 3.384-1.929 2.957-4.142 5.717-6.608 8.239-.142.142-.278.284-.418.424-2.61 2.61-5.477 4.939-8.561 6.959-2.695-1.812-5.219-3.87-7.538-6.143-2.986-2.92-5.614-6.167-7.844-9.69-.705-1.115-1.369-2.255-1.993-3.421-2.798-5.237-.823-11.753 4.413-14.551 4.506-2.408 9.958-1.285 13.177 2.41 3.267-3.642 8.726-4.691 13.192-2.222 5.198 2.871 7.087 9.413 4.215 14.611zm-43.202 11.9334h9.024m-4.512 4.5119v-9.024"/><path fill="none" stroke="#231f20" d="M34.4374 12.9422997h4.508m-2.2542 2.2538v-4.508m14.322 38.7778h4.508m-2.2542 2.2539v-4.508"/></svg>