<svg xmlns="http://www.w3.org/2000/svg" xmlns:svg="http://www.w3.org/2000/svg" fill-rule="evenodd" stroke-miterlimit="10" clip-rule="evenodd" viewBox="0 0 64.353996 74.309402" xml:space="preserve"><g transform="translate(-3.8229 -3.3453003)"><clipPath id="a"><path d="M4.823 22.5v36L36 76.5l31.177-18v-36L36 4.5Z" clip-rule="nonzero"/></clipPath><g clip-path="url(#a)"><path fill="#7f5a90" fill-rule="nonzero" d="M67.2138 58.5v-36l-31.177-18-31.177 18v36l31.177 18z" opacity=".3"/><path fill="#fff" fill-rule="nonzero" stroke="#000" stroke-width="2" d="m13.2721 8.1071 6.667-3.849 9.619 16.66c3.297-.249 6.604 1.363 8.369 4.419 1.766 3.059 1.507 6.726-.358 9.457l-2.894-5.012-1.026-.001h-3.419l-1.711 2.967-.511.883 2.894 5.012c-3.295.253-6.603-1.359-8.369-4.419-1.764-3.056-1.507-6.726.358-9.456Z"/><path fill="#fff" fill-rule="nonzero" d="M32.6525 49.2787c1.828-1.055 2.457-3.393 1.4-5.224v-.001l9.708-5.605c4.379-2.528 9.988-2.124 13.701 1.309.793.733 1.443 1.524 1.967 2.352.271.428-.239.927-.664.651-2.662-1.725-6.296-1.71-9.033.543-2.891 2.38-3.464 6.602-1.591 9.846l16.798 29.096-6.627 3.826-16.85-29.185c-.915-1.584-2.815-2.422-4.55-1.842-.893.299-1.463.848-1.635 1.047-.989 1.137-1.172 2.872-.505 4.514-2.209 1.275-4.418 2.551-6.627 3.826l-7.347-12.725 6.627-3.826h.001c1.057 1.831 3.396 2.455 5.227 1.398"/><path fill="none" stroke="#000" stroke-width="2" d="M32.6525 49.2787c1.828-1.055 2.457-3.393 1.4-5.224v-.001l9.708-5.605c4.379-2.528 9.988-2.124 13.701 1.309.793.733 1.443 1.524 1.967 2.352.271.428-.239.927-.664.651-2.662-1.725-6.296-1.71-9.033.543-2.891 2.38-3.464 6.602-1.591 9.846l16.798 29.096-6.627 3.826-16.85-29.185c-.915-1.584-2.815-2.422-4.55-1.842-.893.299-1.463.848-1.635 1.047-.989 1.137-1.172 2.872-.505 4.514-2.209 1.275-4.418 2.551-6.627 3.826l-7.347-12.725 6.627-3.826h.001c1.057 1.831 3.396 2.455 5.227 1.398z"/><path d="M26.20311558 48.46340089 33.774267 61.57667573l.86602-.50001-7.57115142-13.11327484z"/></g></g><path fill="none" stroke="#000" stroke-width="2" d="M63.354 55.1546997v-36l-31.177-18-31.177 18v36l31.177 18z"/></svg>