<svg xmlns="http://www.w3.org/2000/svg" xmlns:svg="http://www.w3.org/2000/svg" fill-rule="evenodd" stroke-linecap="round" stroke-linejoin="round" stroke-miterlimit="10" clip-rule="evenodd" viewBox="0 0 64.353996 74.309402" xml:space="preserve"><g transform="translate(-3.8229 -1.8453003)"><clipPath id="a"><path d="M4.823 21v36L36 75l31.177-18V21L36 3Z" clip-rule="nonzero"/></clipPath><g clip-path="url(#a)"><path fill="#3f7faa" fill-rule="nonzero" d="M67.1769 57V21L35.9999 3 4.8229 21v36l31.177 18z" opacity=".3"/><path fill="#fff" fill-rule="nonzero" d="M46.551 23.2976c0 5.827-4.724 10.551-10.551 10.551s-10.551-4.724-10.551-10.551S30.173 12.7466 36 12.7466s10.551 4.724 10.551 10.551"/><circle cx="-10.551" r="10.551" fill="none" stroke="#231f20" transform="matrix(0 -1 -1 0 36 12.7466)"/><path fill="#fff" fill-rule="nonzero" stroke="#231f20" d="M48.0826 33.848h-24.165c-6.979 0-12.538 5.838-12.196 12.808l.94 19.202c.284 5.805 5.074 10.365 10.885 10.365l3.114 28.538h18.679l3.113-28.538h.001c5.811 0 10.6-4.56 10.885-10.365l.94-19.202c.342-6.97-5.218-12.808-12.196-12.808Z"/><path fill="#fff" fill-rule="nonzero" d="M26.0132 57.8242v-11.532l9.987-5.766 9.987 5.766v11.532l-9.987 5.766z"/><path fill="#231f20" fill-rule="nonzero" d="m36 39.3717-10.987 6.343v12.687L36 64.7447l10.987-6.343v-12.687Zm0 2.309 8.987 5.189v10.377L36 62.4347l-8.987-5.188v-10.377z"/><path fill="none" stroke="#231f20" stroke-linecap="butt" stroke-linejoin="miter" stroke-width="2" d="M36 46.0508v12.426m-6.2132-6.2128h12.426"/></g></g><path fill="none" stroke="#231f20" stroke-linecap="butt" stroke-linejoin="miter" stroke-width="2" d="M63.354 55.1546997v-36l-31.177-18-31.177 18v36l31.177 18z"/></svg>