<svg xmlns="http://www.w3.org/2000/svg" xmlns:svg="http://www.w3.org/2000/svg" fill-rule="evenodd" stroke-miterlimit="10" clip-rule="evenodd" viewBox="0 0 64.353996 74.309402" xml:space="preserve"><g transform="translate(-3.8229 -1.8453003)"><clipPath id="a"><path d="M4.823 21v36L36 75l31.177-18V21L36 3Z" clip-rule="nonzero"/></clipPath><g clip-path="url(#a)"><path fill="#3f7faa" fill-rule="nonzero" d="M67.1769 57.0002v-36l-31.177-18-31.177 18v36l31.177 18z" opacity=".3"/><path fill="#adbfd6" fill-rule="nonzero" d="m25.47 35.32-4.58 9.16-4.42-2.4 1.43-4.24 1.22 5.12 3.72-12.08c.09-.28.15-.56.17-.85l.86.44c1.78.9 2.49 3.07 1.6 4.85" opacity=".3"/><path fill="none" stroke="#231f20" d="m25.47 35.32-4.58 9.16-4.42-2.4 1.43-4.24 1.22 5.12 3.72-12.08c.09-.28.15-.56.17-.85l.86.44c1.78.9 2.49 3.07 1.6 4.85z"/><path fill="#adbfd6" fill-rule="nonzero" d="M23.01 30.03c-.02.29-.08.57-.17.85l-3.72 12.08-1.22-5.12-1.43-5.99 3.41-6.45 1.17.72c1.36.84 2.1 2.37 1.96 3.91" opacity=".4"/><path fill="none" stroke="#231f20" d="M23.01 30.03c-.02.29-.08.57-.17.85l-3.72 12.08-1.22-5.12-1.43-5.99 3.41-6.45 1.17.72c1.36.84 2.1 2.37 1.96 3.91z"/><path fill="#adbfd6" fill-rule="nonzero" stroke="#231f20" d="m55.62 42.08-4.42 2.4-4.58-9.16c-.89-1.78-.18-3.95 1.6-4.85l.86-.44c.02.29.08.57.17.85l3.72 12.08 1.22-5.12z"/><path fill="#adbfd6" fill-rule="nonzero" stroke="#231f20" d="m55.62 31.85-1.43 5.99-1.22 5.12-3.72-12.08c-.09-.28-.15-.56-.17-.85-.14-1.54.6-3.07 1.96-3.91l1.17-.72z"/><path fill="#fff" fill-rule="nonzero" d="M26.1928 56.9186v-6.252l-1.483-4.203c-.447-1.266.15-2.662 1.374-3.213.978-.44 2.126-.23 2.884.529 1.669 1.668 2.976 3.662 3.84 5.858l3.237 8.228v17.052h-10.42l-.19-5.305-7.01-19.861-5.115-9.127v-16.483l2.309.747c1.228.398 2.15 1.421 2.417 2.684l2.347 11.095 4.748 5.012"/><path fill="#231f20" fill-rule="nonzero" d="m26.1928 56.9186-.5-6.252.029.166-1.195-3.197-.299-.799c-.098-.243-.224-.637-.246-.969-.069-.697.098-1.418.477-2.015.744-1.22 2.364-1.813 3.743-1.341.687.193 1.303.768 1.659 1.157.413.425.806.87 1.176 1.334.741.928 1.388 1.933 1.932 2.993.554 1.08.942 2.151 1.388 3.19l2.615 6.306.003.008.07.174v18.244h-12.385l-.035-.965-.189-5.304.056.297-7.01-19.862.071.156-5.116-9.126-.127-.227v-18.119l1.308.423 2.087.675c.155.05.377.12.598.214.215.091.424.197.622.321.398.244.759.549 1.063.904.305.353.558.752.745 1.18.19.419.295.931.358 1.245l.454 2.146 1.816 8.585-.252-.481 4.748 5.012-1.452 1.376-4.748-5.013-.194-.204-.059-.277-1.815-8.584-.454-2.146c-.084-.402-.127-.611-.237-.862-.106-.242-.249-.468-.421-.668-.172-.201-.376-.373-.602-.511-.111-.071-.23-.13-.351-.181-.115-.05-.243-.091-.435-.153l-2.087-.675 1.308-.952v16.483l-.128-.489 5.115 9.127.042.075.029.081 7.01 19.861.051.144.006.153.189 5.305-.999-.964h10.42l-1 1v-17.052l.069.366-.003-.008-2.382-6.397c-.411-1.067-.766-2.153-1.218-3.115-.459-.982-1.016-1.92-1.663-2.795-.323-.437-.669-.859-1.034-1.263-.402-.451-.64-.686-1.057-.841-.787-.306-1.766-.002-2.251.723-.246.355-.366.797-.341 1.233.015.237.053.394.153.683l.27.81 1.076 3.238.034.102-.005.065Z"/><path fill="#fff" fill-rule="nonzero" d="M45.8967 56.9186v-6.252l1.483-4.203c.447-1.266-.15-2.662-1.374-3.213-.978-.44-2.126-.23-2.884.529-1.669 1.668-2.976 3.662-3.84 5.858l-3.237 8.228v17.052h10.42l.19-5.305 7.01-19.861 5.115-9.127v-16.483l-2.309.747c-1.228.398-2.15 1.421-2.417 2.684l-2.347 11.095-4.748 5.012"/><path fill="#231f20" fill-rule="nonzero" d="m45.8967 56.9186-.5-6.252-.005-.065.034-.102 1.076-3.238.27-.81c.1-.289.138-.446.153-.683.025-.436-.095-.878-.341-1.233-.485-.725-1.464-1.029-2.251-.723-.417.155-.655.39-1.057.841-.365.404-.711.826-1.034 1.263-.647.875-1.204 1.813-1.663 2.795-.452.962-.807 2.048-1.218 3.115l-2.382 6.397-.003.008.069-.366v17.052l-1-1h10.42l-.999.964.189-5.305.006-.153.051-.144 7.01-19.861.029-.081.042-.075 5.115-9.127-.128.489v-16.483l1.308.952-2.087.675c-.192.062-.32.103-.435.153-.121.051-.24.11-.351.181-.226.138-.43.31-.602.511-.172.2-.315.426-.421.668-.11.251-.153.46-.237.862l-.454 2.146-1.815 8.584-.059.277-.194.204-4.748 5.013-1.452-1.376 4.748-5.012-.252.481 1.816-8.585.454-2.146c.063-.314.168-.826.358-1.245.187-.428.44-.827.745-1.18.304-.355.665-.66 1.063-.904.198-.124.407-.23.622-.321.221-.094.443-.164.598-.214l2.087-.675 1.308-.423v18.119l-.127.227-5.116 9.126.071-.156-7.01 19.862.056-.297-.189 5.304-.035.965h-12.385v-18.244l.07-.174.003-.008 2.615-6.306c.446-1.039.834-2.11 1.388-3.19.544-1.06 1.191-2.065 1.932-2.993.37-.464.763-.909 1.176-1.334.356-.389.972-.964 1.659-1.157 1.379-.472 2.999.121 3.743 1.341.379.597.546 1.318.477 2.015-.022.332-.148.726-.246.969l-.299.799-1.195 3.197.029-.166Z"/></g></g><path fill="none" stroke="#231f20" stroke-width="2" d="M63.354 55.1546997v-36l-31.177-18-31.177 18v36l31.177 18z"/></svg>