<svg viewBox="0 0 300 339" xmlns="http://www.w3.org/2000/svg" fill-rule="evenodd" clip-rule="evenodd" stroke-linecap="round" stroke-linejoin="round" stroke-miterlimit="10"><g transform="translate(0 .75) scale(4.16667)"><path fill="none" d="M0 0h72v81H0z"/><clipPath id="prefix__a"><path d="M0 0h72v81H0z"/></clipPath><g clip-path="url(#prefix__a)"><clipPath id="prefix__b"><path d="M4.823 22.5v36L36 76.5l31.177-18v-36L36 4.5l-31.177 18z" clip-rule="nonzero"/></clipPath><g clip-path="url(#prefix__b)"><path d="M67.177 58.5v-36L36 4.5l-31.177 18v36L36 76.5l31.177-18z" fill="#7f5a90" fill-rule="nonzero" opacity=".3"/><path d="M26.03 52.047v11.547l10 5.774 10-5.774V52.047l-10-5.773-10 5.773z" fill="#fff" fill-rule="nonzero" stroke="#231f20" stroke-width="2"/><path d="M53.015 48.303L35.53 38.785h1l-17.486 9.518a.5.5 0 01-.5-.866L35.53 37.053a.959.959 0 011 0l16.985 10.384a.5.5 0 01-.5.866" fill="#231f20" fill-rule="nonzero"/><path d="M60.25 44.125L35.53 30.43h1L11.809 44.125a.499.499 0 01-.5-.866l24.22-14.56a.972.972 0 011 0l24.222 14.56a.5.5 0 01-.5.866" fill="#231f20" fill-rule="nonzero"/><path d="M67.486 39.948L35.53 22.076h1L4.574 39.948a.5.5 0 01-.5-.866L35.53 20.343a.982.982 0 011 0l31.456 18.739a.5.5 0 01-.5.866" fill="#231f20" fill-rule="nonzero"/><path d="M74.721 35.77l-39.19-22.05h.998L-2.66 35.77a.5.5 0 01-.5-.865l38.69-22.916a.983.983 0 011.001 0l38.691 22.916a.5.5 0 01-.5.866" fill="#231f20" fill-rule="nonzero"/></g><g><path d="M67.177 58.5v-36L36 4.5l-31.177 18v36L36 76.5l31.177-18z" fill="none" stroke="#231f20" stroke-width="2" stroke-linecap="butt" stroke-linejoin="miter"/></g></g></g></svg>