<svg xmlns="http://www.w3.org/2000/svg" xmlns:svg="http://www.w3.org/2000/svg" fill-rule="evenodd" stroke-miterlimit="10" clip-rule="evenodd" viewBox="0 0 64.353996 74.309402" xml:space="preserve"><path fill="#3d8b8a" fill-rule="nonzero" d="M63.354 55.1546997v-36l-31.177-18-31.177 18v36l31.177 18z" opacity=".3"/><path fill="none" stroke="#231f20" stroke-width="2" d="M63.354 55.1546997v-36l-31.177-18-31.177 18v36l31.177 18z"/><path fill="#231f20" fill-rule="nonzero" d="M58.7492 26.9257997v20.458l-17.715 10.223-6.752-3.893-1.055-.612-1.045-.601-1.055-.612-1.065-.612-1.045-.612-1.066-.601-4.631-2.68v-20.458l4.631-2.68 1.055.612 1.066.612-4.642 2.68v18.01l4.642 2.68 1.055.612 1.055.601 2.11 1.224 1.045.601 1.065.612 4.632 2.68 15.605-9.01v-18.01l-15.605-9.01-4.632 2.679-1.065-.612-1.055-.611 6.752-3.894z"/><path fill="#231f20" fill-rule="nonzero" d="M41.0344 26.9257997v20.458l-4.632 2.68-1.055-.612-1.065-.612 4.642-2.68v-18.01l-4.642-2.68-1.056-.612-1.044-.601-1.066-.612-2.11-1.224-1.055-.602-4.632-2.679-15.604 9.01v18.01l15.604 9.01 4.632-2.68 1.066.612 1.055.612-6.753 3.893-17.714-10.223v-20.458l17.714-10.224 6.753 3.894 1.055.611 1.055.612 1.044.602 1.066.612 1.045.612 1.065.601z"/><path fill="#3d8b8a" fill-rule="nonzero" d="M36.8141 29.3629997v15.583l-4.632 2.68-4.642-2.68v-15.583l4.642-2.68z" opacity=".3"/></svg>