<svg xmlns="http://www.w3.org/2000/svg" xmlns:svg="http://www.w3.org/2000/svg" fill-rule="evenodd" stroke-miterlimit="10" clip-rule="evenodd" viewBox="0 0 64.353996 74.309402" xml:space="preserve"><g transform="translate(-3.8229 -3.3453003)"><clipPath id="a"><path d="M4.823 22.5v36L36 76.5l31.177-18v-36L36 4.5Z" clip-rule="nonzero"/></clipPath><g clip-path="url(#a)"><path fill="#3f7faa" fill-rule="nonzero" d="M67.1769 58.5v-36l-31.177-18-31.177 18v36l31.177 18z" opacity=".3"/><path fill="#fff" fill-rule="nonzero" d="M18.9717 24.0747c0-1.195-.969-2.163-2.163-2.163-1.195 0-2.163.968-2.163 2.163 0 1.195.968 2.163 2.163 2.163 1.194 0 2.163-.968 2.163-2.163m.3146 2.1639h-4.955c-1.431 0-2.571 1.197-2.501 2.626l.193 3.938c.058 1.19 1.04 2.125 2.232 2.125l.638 5.852h3.831l.638-5.852c1.192 0 2.174-.935 2.232-2.125l.193-3.938c.07-1.429-1.07-2.626-2.501-2.626m38.0679-2.1639c0-1.195-.969-2.163-2.163-2.163-1.195 0-2.163.968-2.163 2.163 0 1.195.968 2.163 2.163 2.163 1.194 0 2.163-.968 2.163-2.163m.3146 2.1639h-4.955c-1.431 0-2.571 1.197-2.501 2.626l.193 3.938c.058 1.19 1.04 2.125 2.232 2.125l.638 5.852h3.831l.638-5.852c1.192 0 2.174-.935 2.232-2.125l.193-3.938c.07-1.429-1.07-2.626-2.501-2.626"/><path fill="#3f7faa" fill-rule="nonzero" d="M18.9717 24.0747c0-1.195-.969-2.163-2.163-2.163-1.195 0-2.163.968-2.163 2.163 0 1.195.968 2.163 2.163 2.163 1.194 0 2.163-.968 2.163-2.163m.3146 2.1639h-4.955c-1.431 0-2.571 1.197-2.501 2.626l.193 3.938c.058 1.19 1.04 2.125 2.232 2.125l.638 5.852h3.831l.638-5.852c1.192 0 2.174-.935 2.232-2.125l.193-3.938c.07-1.429-1.07-2.626-2.501-2.626m38.0679-2.1639c0-1.195-.969-2.163-2.163-2.163-1.195 0-2.163.968-2.163 2.163 0 1.195.968 2.163 2.163 2.163 1.194 0 2.163-.968 2.163-2.163m.3146 2.1639h-4.955c-1.431 0-2.571 1.197-2.501 2.626l.193 3.938c.058 1.19 1.04 2.125 2.232 2.125l.638 5.852h3.831l.638-5.852c1.192 0 2.174-.935 2.232-2.125l.193-3.938c.07-1.429-1.07-2.626-2.501-2.626" opacity=".3"/><path fill="#adbfd6" fill-rule="nonzero" d="M18.9717 24.0747c0-1.195-.969-2.163-2.163-2.163-1.195 0-2.163.968-2.163 2.163 0 1.195.968 2.163 2.163 2.163 1.194 0 2.163-.968 2.163-2.163m.3146 2.1639h-4.955c-1.431 0-2.571 1.197-2.501 2.626l.193 3.938c.058 1.19 1.04 2.125 2.232 2.125l.638 5.852h3.831l.638-5.852c1.192 0 2.174-.935 2.232-2.125l.193-3.938c.07-1.429-1.07-2.626-2.501-2.626m38.0679-2.1639c0-1.195-.969-2.163-2.163-2.163-1.195 0-2.163.968-2.163 2.163 0 1.195.968 2.163 2.163 2.163 1.194 0 2.163-.968 2.163-2.163m.3146 2.1639h-4.955c-1.431 0-2.571 1.197-2.501 2.626l.193 3.938c.058 1.19 1.04 2.125 2.232 2.125l.638 5.852h3.831l.638-5.852c1.192 0 2.174-.935 2.232-2.125l.193-3.938c.07-1.429-1.07-2.626-2.501-2.626" opacity=".3"/><path fill="#fff" fill-rule="nonzero" d="M24.6754 27.1549c0-1.593-1.291-2.885-2.885-2.885-1.594 0-2.885 1.292-2.885 2.885 0 1.593 1.291 2.885 2.885 2.885 1.594 0 2.885-1.292 2.885-2.885"/><path fill="#fff" fill-rule="nonzero" d="M25.0937 30.0389h-6.607c-1.908 0-3.428 1.596-3.334 3.502l.257 5.25c.077 1.587 1.387 2.834 2.976 2.834l.851 7.802h5.107l.851-7.802c1.589 0 2.899-1.247 2.976-2.834l.258-5.25c.093-1.906-1.427-3.502-3.335-3.502m28.0011-2.884c0-1.593-1.291-2.885-2.885-2.885-1.594 0-2.885 1.292-2.885 2.885 0 1.593 1.291 2.885 2.885 2.885 1.594 0 2.885-1.292 2.885-2.885"/><path fill="#fff" fill-rule="nonzero" d="M53.5132 30.0389h-6.607c-1.908 0-3.428 1.596-3.334 3.502l.257 5.25c.078 1.587 1.387 2.834 2.976 2.834l.851 7.802h5.107l.851-7.802c1.589 0 2.899-1.247 2.976-2.834l.257-5.25c.094-1.906-1.426-3.502-3.334-3.502"/><g fill="#3f7faa" fill-rule="nonzero" opacity=".3"><path d="M24.6754 27.1549c0-1.593-1.291-2.885-2.885-2.885-1.594 0-2.885 1.292-2.885 2.885 0 1.593 1.291 2.885 2.885 2.885 1.594 0 2.885-1.292 2.885-2.885"/><path d="M25.0937 30.0389h-6.607c-1.908 0-3.428 1.596-3.334 3.502l.257 5.25c.077 1.587 1.387 2.834 2.976 2.834l.851 7.802h5.107l.851-7.802c1.589 0 2.899-1.247 2.976-2.834l.258-5.25c.093-1.906-1.427-3.502-3.335-3.502m28.0011-2.884c0-1.593-1.291-2.885-2.885-2.885-1.594 0-2.885 1.292-2.885 2.885 0 1.593 1.291 2.885 2.885 2.885 1.594 0 2.885-1.292 2.885-2.885"/><path d="M53.5132 30.0389h-6.607c-1.908 0-3.428 1.596-3.334 3.502l.257 5.25c.078 1.587 1.387 2.834 2.976 2.834l.851 7.802h5.107l.851-7.802c1.589 0 2.899-1.247 2.976-2.834l.257-5.25c.094-1.906-1.426-3.502-3.334-3.502"/></g><g fill="#adbfd6" fill-rule="nonzero" opacity=".6"><path d="M24.6754 27.1549c0-1.593-1.291-2.885-2.885-2.885-1.594 0-2.885 1.292-2.885 2.885 0 1.593 1.291 2.885 2.885 2.885 1.594 0 2.885-1.292 2.885-2.885"/><path d="M25.0937 30.0389h-6.607c-1.908 0-3.428 1.596-3.334 3.502l.257 5.25c.077 1.587 1.387 2.834 2.976 2.834l.851 7.802h5.107l.851-7.802c1.589 0 2.899-1.247 2.976-2.834l.258-5.25c.093-1.906-1.427-3.502-3.335-3.502m28.0011-2.884c0-1.593-1.291-2.885-2.885-2.885-1.594 0-2.885 1.292-2.885 2.885 0 1.593 1.291 2.885 2.885 2.885 1.594 0 2.885-1.292 2.885-2.885"/><path d="M53.5132 30.0389h-6.607c-1.908 0-3.428 1.596-3.334 3.502l.257 5.25c.078 1.587 1.387 2.834 2.976 2.834l.851 7.802h5.107l.851-7.802c1.589 0 2.899-1.247 2.976-2.834l.257-5.25c.094-1.906-1.426-3.502-3.334-3.502"/></g><path fill="#fff" fill-rule="nonzero" d="M31.9027 30.2631c0-1.991-1.614-3.606-3.606-3.606-1.991 0-3.606 1.615-3.606 3.606 0 1.991 1.615 3.606 3.606 3.606 1.992 0 3.606-1.615 3.606-3.606m15.3278 0c0-1.991-1.614-3.606-3.606-3.606-1.991 0-3.606 1.615-3.606 3.606 0 1.991 1.615 3.606 3.606 3.606 1.992 0 3.606-1.615 3.606-3.606"/><path fill="#fff" fill-rule="nonzero" d="M47.7536 33.8682h-8.259c-1.494 0-2.797.784-3.534 1.956-.737-1.172-2.04-1.956-3.535-1.956h-8.258c-2.385 0-4.285 1.995-4.168 4.377l.321 6.563c.097 1.983 1.734 3.542 3.72 3.542l1.064 9.753h6.384l1.064-9.753c1.522 0 2.832-.919 3.408-2.239.576 1.32 1.886 2.239 3.408 2.239l1.064 9.753h6.384l1.064-9.753c1.986 0 3.623-1.559 3.72-3.542l.321-6.563c.117-2.382-1.783-4.377-4.168-4.377"/><g fill="#3f7faa" fill-rule="nonzero" opacity=".3"><path d="M31.9027 30.2631c0-1.991-1.614-3.606-3.606-3.606-1.991 0-3.606 1.615-3.606 3.606 0 1.991 1.615 3.606 3.606 3.606 1.992 0 3.606-1.615 3.606-3.606m15.3278 0c0-1.991-1.614-3.606-3.606-3.606-1.991 0-3.606 1.615-3.606 3.606 0 1.991 1.615 3.606 3.606 3.606 1.992 0 3.606-1.615 3.606-3.606"/><path d="M47.7536 33.8682h-8.259c-1.494 0-2.797.784-3.534 1.956-.737-1.172-2.04-1.956-3.535-1.956h-8.258c-2.385 0-4.285 1.995-4.168 4.377l.321 6.563c.097 1.983 1.734 3.542 3.72 3.542l1.064 9.753h6.384l1.064-9.753c1.522 0 2.832-.919 3.408-2.239.576 1.32 1.886 2.239 3.408 2.239l1.064 9.753h6.384l1.064-9.753c1.986 0 3.623-1.559 3.72-3.542l.321-6.563c.117-2.382-1.783-4.377-4.168-4.377"/></g><path fill="#adbfd6" fill-rule="nonzero" d="M31.9027 30.2631c0-1.991-1.614-3.606-3.606-3.606-1.991 0-3.606 1.615-3.606 3.606 0 1.991 1.615 3.606 3.606 3.606 1.992 0 3.606-1.615 3.606-3.606m15.3278 0c0-1.991-1.614-3.606-3.606-3.606-1.991 0-3.606 1.615-3.606 3.606 0 1.991 1.615 3.606 3.606 3.606 1.992 0 3.606-1.615 3.606-3.606"/><path fill="#adbfd6" fill-rule="nonzero" d="M47.7536 33.8682h-8.259c-1.494 0-2.797.784-3.534 1.956-.737-1.172-2.04-1.956-3.535-1.956h-8.258c-2.385 0-4.285 1.995-4.168 4.377l.321 6.563c.097 1.983 1.734 3.542 3.72 3.542l1.064 9.753h6.384l1.064-9.753c1.522 0 2.832-.919 3.408-2.239.576 1.32 1.886 2.239 3.408 2.239l1.064 9.753h6.384l1.064-9.753c1.986 0 3.623-1.559 3.72-3.542l.321-6.563c.117-2.382-1.783-4.377-4.168-4.377"/><path fill="#fff" fill-rule="nonzero" d="M40.2873 33.3853c0 2.39-1.937 4.327-4.327 4.327-2.389 0-4.327-1.937-4.327-4.327 0-2.39 1.938-4.327 4.327-4.327 2.39 0 4.327 1.937 4.327 4.327"/><circle cx="-4.3270001" r="4.3270001" fill="none" stroke="#231f20" stroke-width="2" transform="matrix(0 -1 -1 0 35.9603 29.0583)"/><path fill="#fff" fill-rule="nonzero" stroke="#231f20" stroke-width="2" d="M40.9156 37.7121h-9.91c-2.862 0-5.142 2.394-5.002 5.253l.386 7.874c.116 2.381 2.08 4.251 4.464 4.251l1.277 11.704h7.66l1.277-11.704c2.383 0 4.347-1.87 4.464-4.251l.386-7.874c.14-2.859-2.14-5.253-5.002-5.253Z"/></g></g><path fill="none" stroke="#231f20" stroke-width="2" d="M63.354 55.1546997v-36l-31.177-18-31.177 18v36l31.177 18z"/></svg>