<svg xmlns="http://www.w3.org/2000/svg" xmlns:svg="http://www.w3.org/2000/svg" fill-rule="evenodd" stroke-miterlimit="10" clip-rule="evenodd" viewBox="0 0 64.353996 74.309402" xml:space="preserve"><path fill="#3f7faa" fill-rule="nonzero" d="M63.354 55.1546997v-36l-31.177-18-31.177 18v36l31.177 18z" opacity=".3"/><path fill="none" stroke="#000" stroke-width="2" d="M63.354 55.1546997v-36l-31.177-18-31.177 18v36l31.177 18z"/><path fill="#fff" fill-rule="nonzero" d="M57.4853 33.5062997c-.423.428-1.01.692-1.664.692h-2.153c-2.917 0-5.486 1.919-6.313 4.716l-1.395 4.711c-.83 2.798-3.401 4.717-6.32 4.717h-7.74c-1.564-1.461-1.402-3.108-.485-4.025.429-.428 1.022-.692 1.669-.692h7.951l1.395-4.711 1.4-4.716 1.394-4.717h10.472c1.27 0 2.405.949 2.477 2.217.04.709-.23 1.349-.688 1.808"/><path fill="none" stroke="#000" stroke-width="2" d="M57.4853 33.5062997c-.423.428-1.01.692-1.664.692h-2.153c-2.917 0-5.486 1.919-6.313 4.716l-1.395 4.711c-.83 2.798-3.401 4.717-6.32 4.717h-7.74c-1.564-1.461-1.402-3.108-.485-4.025.429-.428 1.022-.692 1.669-.692h7.951l1.395-4.711 1.4-4.716 1.394-4.717h10.472c1.27 0 2.405.949 2.477 2.217.04.709-.23 1.349-.688 1.808z"/><path fill="#fff" fill-rule="nonzero" d="M55.9808 36.5535997c0 .653-.264 1.241-.692 1.669-.423.428-1.01.692-1.664.692h-6.27l1.395-4.716h4.875c1.302 0 2.356 1.054 2.356 2.355"/><path fill="none" stroke="#000" stroke-width="2" d="M55.9808 36.5535997c0 .653-.264 1.241-.692 1.669-.423.428-1.01.692-1.664.692h-6.27l1.395-4.716h4.875c1.302 0 2.356 1.054 2.356 2.355z"/><path fill="#fff" fill-rule="nonzero" d="M51.7091 41.2700997c0 .648-.264 1.241-.692 1.664-.428.428-1.021.691-1.669.691h-3.388l1.395-4.711h1.993c1.301 0 2.361 1.055 2.361 2.356"/><path fill="none" stroke="#000" stroke-width="2" d="M51.7091 41.2700997c0 .648-.264 1.241-.692 1.664-.428.428-1.021.691-1.669.691h-3.388l1.395-4.711h1.993c1.301 0 2.361 1.055 2.361 2.356Z"/><path fill="#fff" fill-rule="nonzero" d="M6.8689 33.5062997c.423.428 1.01.692 1.664.692h2.153c2.917 0 5.486 1.919 6.313 4.716l1.395 4.711c.83 2.798 3.401 4.717 6.32 4.717h7.74c1.564-1.461 1.402-3.108.485-4.025-.429-.428-1.022-.692-1.669-.692h-7.951l-1.395-4.711-1.4-4.716-1.394-4.717H8.6579c-1.27 0-2.405.949-2.477 2.217-.04.709.23 1.349.688 1.808"/><path fill="none" stroke="#000" stroke-width="2" d="M6.8689 33.5062997c.423.428 1.01.692 1.664.692h2.153c2.917 0 5.486 1.919 6.313 4.716l1.395 4.711c.83 2.798 3.401 4.717 6.32 4.717h7.74c1.564-1.461 1.402-3.108.485-4.025-.429-.428-1.022-.692-1.669-.692h-7.951l-1.395-4.711-1.4-4.716-1.394-4.717H8.6579c-1.27 0-2.405.949-2.477 2.217-.04.709.23 1.349.688 1.808z"/><path fill="#fff" fill-rule="nonzero" d="M8.3734 36.5535997c0 .653.264 1.241.692 1.669.423.428 1.01.692 1.664.692h6.27l-1.395-4.716h-4.875c-1.302 0-2.356 1.054-2.356 2.355"/><path fill="none" stroke="#000" stroke-width="2" d="M8.3734 36.5535997c0 .653.264 1.241.692 1.669.423.428 1.01.692 1.664.692h6.27l-1.395-4.716h-4.875c-1.302 0-2.356 1.054-2.356 2.355Z"/><path fill="#fff" fill-rule="nonzero" d="M12.6451 41.2700997c0 .648.264 1.241.692 1.664.428.428 1.021.691 1.669.691h3.388l-1.395-4.711h-1.993c-1.301 0-2.361 1.055-2.361 2.356"/><path fill="none" stroke="#000" stroke-width="2" d="M12.6451 41.2700997c0 .648.264 1.241.692 1.664.428.428 1.021.691 1.669.691h3.388l-1.395-4.711h-1.993c-1.301 0-2.361 1.055-2.361 2.356Z"/><path fill="#fff" fill-rule="nonzero" d="M43.8812 27.1938997c1.028.092 1.708 1.112 1.417 2.102l-4.553 15.505c-1.115 3.805-4.601 6.419-8.565 6.419-3.965 0-7.451-2.614-8.571-6.419l-4.569-15.571c-.288-.98.377-1.991 1.393-2.099 4.688-.495 8.493-1.836 10.294-3.581.62-.6 1.621-.62 2.238-.017 1.869 1.829 5.933 3.217 10.916 3.661"/><path fill="none" stroke="#000" stroke-linecap="round" stroke-linejoin="round" stroke-width="2" d="M43.8812 27.1938997c1.028.092 1.708 1.112 1.417 2.102l-4.553 15.505c-1.115 3.805-4.601 6.419-8.565 6.419-3.965 0-7.451-2.614-8.571-6.419l-4.569-15.571c-.288-.98.377-1.991 1.393-2.099 4.688-.495 8.493-1.836 10.294-3.581.62-.6 1.621-.62 2.238-.017 1.869 1.829 5.933 3.217 10.916 3.661z"/><path fill="#3f7faa" fill-rule="nonzero" d="m31.8552 39.7398997-4.659 3.242 1.643-5.433-4.523-3.429 5.675-.116 1.864-5.362 1.864 5.362 5.675.116-4.523 3.429 1.643 5.433Z" opacity=".4"/></svg>