<svg viewBox="0 0 301 339" xmlns="http://www.w3.org/2000/svg" fill-rule="evenodd" clip-rule="evenodd" stroke-linecap="round" stroke-linejoin="round" stroke-miterlimit="10"><g transform="translate(.5 .688) scale(4.16667)"><path fill="none" d="M0 0h72v81H0z"/><clipPath id="prefix__a"><path d="M0 0h72v81H0z"/></clipPath><g clip-path="url(#prefix__a)"><clipPath id="prefix__b"><path d="M4.823 21v36L36 75l31.177-18V21L36 3 4.823 21z" clip-rule="nonzero"/></clipPath><g clip-path="url(#prefix__b)"><path d="M67.177 57V21L36 3 4.823 21v36L36 75l31.177-18z" fill="#3f7faa" fill-rule="nonzero" opacity=".3"/><g opacity=".8"><path d="M59.353 32.184a6.006 6.006 0 11-12.012.002 6.006 6.006 0 0112.012-.002" fill="#adbfd6" fill-rule="nonzero"/><path d="M60.226 38.19H46.47a6.95 6.95 0 00-6.942 7.291l.535 10.93a6.204 6.204 0 006.197 5.9l1.772 16.245h10.633l1.772-16.245a6.204 6.204 0 006.196-5.9l.535-10.93a6.95 6.95 0 00-6.942-7.29" fill="#adbfd6" fill-rule="nonzero"/></g><g opacity=".8"><path d="M24.657 32.184a6.006 6.006 0 11-12.012.002 6.006 6.006 0 0112.012-.002" fill="#adbfd6" fill-rule="nonzero"/><path d="M25.53 38.19H11.774a6.95 6.95 0 00-6.942 7.291l.535 10.93a6.204 6.204 0 006.197 5.9l1.772 16.245h10.633l1.772-16.245a6.204 6.204 0 006.196-5.9l.535-10.93a6.95 6.95 0 00-6.942-7.29" fill="#adbfd6" fill-rule="nonzero"/></g><path d="M42.79 22.583a6.79 6.79 0 11-13.58 0 6.79 6.79 0 0113.58 0" fill="#fff" fill-rule="nonzero"/><circle cx="-6.789" fill="none" stroke="#231f20" stroke-width="2" r="6.789" transform="matrix(0 -1 -1 0 36 15.794)"/><path d="M43.774 29.371H28.225c-4.49 0-8.067 3.757-7.847 8.241l.605 12.356a7.012 7.012 0 007.004 6.67L29.99 75h12.02l2.002-18.363a7.012 7.012 0 007.004-6.669l.606-12.356c.22-4.484-3.358-8.24-7.848-8.24z" fill="#fff" fill-rule="nonzero" stroke="#231f20" stroke-width="2"/><path d="M36 44.928l-4.659 3.242 1.643-5.433-4.523-3.43 5.675-.115L36 33.83l1.864 5.362 5.675.116-4.523 3.429 1.643 5.433L36 44.928z" fill="#3f7faa" fill-rule="nonzero" opacity=".4"/></g><g><path d="M67.177 57V21L36 3 4.823 21v36L36 75l31.177-18z" fill="none" stroke="#231f20" stroke-width="2" stroke-linecap="butt" stroke-linejoin="miter"/></g></g></g></svg>