<svg xmlns="http://www.w3.org/2000/svg" xmlns:svg="http://www.w3.org/2000/svg" fill-rule="evenodd" stroke-miterlimit="10" clip-rule="evenodd" viewBox="0 0 64.353996 74.309402" xml:space="preserve"><g transform="translate(-3.8229 -3.3453003)"><clipPath id="a"><path d="M4.823 22.5v36L36 76.5l31.177-18v-36L36 4.5Z" clip-rule="nonzero"/></clipPath><g clip-path="url(#a)"><path fill="#40834f" fill-rule="nonzero" d="M67.1769 58.4999v-36l-31.177-18-31.177 18v36l31.177 18z" opacity=".3"/><path fill="#fff" fill-rule="nonzero" d="M67.177 65.0565c0 17.219-13.958 31.177-31.177 31.177S4.823 82.2755 4.823 65.0565 18.781 33.8795 36 33.8795s31.177 13.958 31.177 31.177"/><circle cx="-31.177" r="31.177" fill="none" stroke="#231f20" stroke-width="2" transform="matrix(0 -1 -1 0 36 33.8795)"/><path fill="none" stroke="#231f20" d="M46.33554811 42.58039475c5.2572063 5.5517335 8.73839165 15.21578337 8.73888508 26.20893168.00003002 17.21863793-8.54026777 31.1768957-19.07403871 31.17680361-10.5347551-.00026934-19.07401055-13.9578341-19.07386333-31.1774562-.00049342-10.9931483 3.48055068-20.65715573 8.73869135-26.20805093"/><path fill="none" stroke="#231f20" d="M60.6064 46.7345c0 6.515-11.017 11.797-24.606 11.797-13.59 0-24.607-5.282-24.607-11.797m39.3792-9.1388c0 3.855-6.614 6.981-14.773 6.981-8.158 0-14.772-3.126-14.772-6.981m14.773 6.9813v51.656"/></g></g><path fill="none" stroke="#231f20" stroke-width="2" d="M63.354 55.1546997v-36l-31.177-18-31.177 18v36l31.177 18z"/><path fill="#231f20" fill-rule="nonzero" d="m22.7652 18.4903997 10 6.649h-1.176l10-6.649c.23-.153.541-.091.694.14.145.218.095.509-.106.669l-9.412 7.458c-.351.279-.839.267-1.176 0l-9.412-7.458c-.217-.172-.253-.486-.081-.703.162-.205.455-.248.669-.106"/><path fill="#231f20" fill-rule="nonzero" d="m22.7652 12.3090997 10 6.649h-1.176l10-6.649c.23-.153.541-.091.694.14.145.218.095.509-.106.669l-9.412 7.458c-.351.279-.839.267-1.176 0l-9.412-7.458c-.217-.172-.253-.486-.081-.703.162-.205.455-.248.669-.106"/></svg>