<svg xmlns="http://www.w3.org/2000/svg" xmlns:svg="http://www.w3.org/2000/svg" fill-rule="evenodd" stroke-miterlimit="10" clip-rule="evenodd" viewBox="0 0 64.279999 74.224411" xml:space="preserve"><path fill="#3d8b8a" fill-rule="nonzero" d="M1 55.1573056v-35.957l31.14-17.979 31.14 17.979v35.957l-31.14 17.979Z" opacity=".3"/><g transform="translate(-3.8599 -3.3546944)"><clipPath id="a"><path d="M4.86 22.488v35.957L36 76.424l31.14-17.979V22.488L36 4.509Z" clip-rule="nonzero"/></clipPath><g fill-rule="nonzero" clip-path="url(#a)"><path fill="#fff" stroke="#231f20" stroke-width="2" d="M18.2211-6.1986c3.267 4.951 7.718 11.357 13.357 18.568 8.944 11.438 16.584 19.41 21.548 24.561 5.952 6.176 13.513 13.577 22.681 21.564 5.808-6.989 27.762-29.41 33.57-36.399-21.902-18.202-43.804-36.403-65.707-54.604-3.101 3.626-22.348 22.684-25.449 26.31Z"/><path fill="#fff" d="M51.2368 22.6529c-.67.849-1.578 2.083-2.575 3.727-.702 1.157-2.373 4.039-4.818 10.658-1.116 3.021-3.139 8.835-4.566 16.996-.529 3.027-.896 5.918-.178 7.146.587 1.003 1.655.481 2.193.204 5.844-3.004 8.634-6.469 8.635-6.469 4.538-5.637 6.81-8.54 6.952-12.703.097-2.829-.42-6.159-.832-8.809-.572-3.686-1.318-6.719-1.912-8.848"/><path fill="#231f20" d="M51.2368 22.6529c-.649 2.357-1.763 4.218-2.782 6.178-.992 1.98-1.851 4.054-2.655 6.149-1.622 4.2-2.93 8.481-3.981 12.839-.52 2.18-.971 4.377-1.343 6.587-.185 1.102-.356 2.201-.449 3.271-.048.533-.071 1.06-.064 1.554.006.487.073.962.173 1.226.05.115.095.148.033.101-.065-.051-.149-.028-.051-.038.081-.007.253-.064.449-.158.203-.096.473-.248.706-.368.969-.51 1.912-1.069 2.82-1.677.909-.605 1.788-1.254 2.622-1.951.42-.345.819-.71 1.212-1.078l.569-.565.624-.677-.116.125c1.713-2.105 3.479-4.18 4.883-6.366.698-1.093 1.272-2.221 1.602-3.402.352-1.175.402-2.408.375-3.739-.071-2.625-.435-5.317-.714-8.013-.292-2.685-.668-5.367-1.014-8.096 1.115 2.516 1.92 5.158 2.526 7.843.575 2.678 1.09 5.376 1.227 8.197.062 1.382.04 2.91-.361 4.361-.374 1.455-1.03 2.79-1.77 4.004-1.493 2.431-3.232 4.546-4.906 6.699l-.118.125c.025-.019.055-.049.069-.066l-.039.047-.079.094-.154.175-.311.336-.633.641c-.43.411-.866.815-1.319 1.195-.9.766-1.842 1.476-2.815 2.136-.971.663-1.977 1.273-3.011 1.828-.269.143-.491.274-.799.425-.315.149-.675.309-1.157.384-.46.085-1.141.027-1.686-.336-.541-.362-.802-.836-.979-1.235-.306-.8-.348-1.472-.375-2.115-.02-.641.025-1.248.079-1.844.114-1.191.303-2.334.501-3.467.399-2.262.878-4.508 1.428-6.738 1.079-4.464 2.584-8.834 4.314-13.067.87-2.122 1.796-4.226 2.883-6.28 1.061-2.073 2.438-4.031 4.586-5.244"/><path fill="#fff" d="M45.7699 16.6275c-1.521.705-3.608 1.742-5.995 3.158-1.682.997-5.723 3.493-12.422 9.461-3.057 2.724-8.708 7.989-14.018 15.617-1.97 2.829-3.595 5.555-2.662 6.861.762 1.066 2.914.744 4.004.569 11.829-1.907 18.139-4.776 18.139-4.776 10.263-4.667 15.428-7.082 17.05-11.072 1.103-2.711 1.229-6.011 1.329-8.636.139-3.651-.256-6.703-.664-8.857"/><path fill="#231f20" d="M45.77 16.6275c-2.366 2.204-5.012 3.667-7.541 5.332-2.511 1.702-4.909 3.606-7.235 5.594-4.669 3.98-9.022 8.272-12.868 13.002-1.896 2.357-3.765 4.842-5.299 7.369-.368.627-.71 1.267-.935 1.871-.108.299-.188.589-.217.822-.022.229.012.351.023.363.004.014.015.061.205.131.179.064.458.107.761.115.621.019 1.312-.074 2.068-.202 3.019-.482 6.016-1.087 8.975-1.824 1.477-.377 2.945-.782 4.395-1.236.724-.228 1.447-.457 2.159-.709l1.062-.385 1.125-.448-.11.043c2.918-1.306 5.848-2.589 8.671-4 2.776-1.418 5.66-2.94 7.312-5.239.782-1.112 1.211-2.604 1.522-4.094.319-1.502.45-3.069.605-4.653.313-3.152.322-6.311.083-9.527.957 3.074 1.374 6.346 1.356 9.586.022 1.612-.037 3.249-.266 4.902-.254 1.643-.655 3.323-1.647 4.895-1.006 1.506-2.368 2.613-3.733 3.561-1.38.943-2.813 1.732-4.25 2.485-2.879 1.498-5.795 2.831-8.697 4.187l-.11.044.02-.003-.061.027-.143.062-.279.118-.555.226-1.111.423c-.741.274-1.484.529-2.232.77-1.496.48-3.004.908-4.518 1.305-3.032.779-6.093 1.419-9.173 1.934-.764.131-1.61.269-2.537.25-.466-.014-.964-.06-1.518-.246-.537-.172-1.209-.595-1.572-1.266-.371-.665-.392-1.351-.334-1.884.068-.535.211-.988.367-1.415.322-.842.725-1.564 1.139-2.266 1.694-2.746 3.571-5.196 5.557-7.641 3.961-4.862 8.542-9.19 13.345-13.14 2.405-1.983 4.888-3.887 7.524-5.608 2.63-1.738 5.435-3.222 8.667-3.631"/><path fill="#231f20" d="M16.41 51.306c1.943-2.859 4.039-5.608 6.283-8.225.562-.653 1.128-1.302 1.709-1.939.586-.63 1.208-1.229 1.809-1.844l3.634-3.662c5.017-4.701 10.569-8.801 16.479-12.239-5.736 3.722-11.05 8.067-15.779 12.954l-3.411 3.79c-.563.635-1.145 1.252-1.691 1.9-.541.654-1.066 1.32-1.588 1.988-2.079 2.679-4.002 5.473-5.764 8.36z"/><path fill="#231f20" d="M32.3227 47.5978c-.133-.624-.588-1.387-1.09-1.983-.514-.62-1.127-1.174-1.795-1.659-.657-.501-1.381-.918-2.114-1.318-.745-.382-1.513-.72-2.293-1.036l.17-.47c.81.282 1.612.589 2.399.945.777.375 1.549.772 2.271 1.266.729.478 1.417 1.038 2.021 1.697.301.33.582.684.826 1.072.248.4.455.771.592 1.325zm6.6297-3.1565c-.014-.361-.186-.9-.387-1.337-.222-.452-.474-.899-.787-1.312-.613-.832-1.338-1.605-2.151-2.284-.392-.354-.829-.66-1.244-.992-.441-.299-.873-.612-1.323-.899-.903-.574-1.841-1.092-2.79-1.595l.22-.45c.979.472 1.952.961 2.896 1.512.472.275.927.58 1.392.869.441.326.904.624 1.328.977.871.675 1.67 1.457 2.372 2.336.681.911 1.313 1.831 1.474 3.177Zm7.4805-4.1696c-.364-1.086-.9-2.191-1.509-3.209-.617-1.025-1.341-1.986-2.155-2.862-.805-.885-1.722-1.669-2.723-2.326-.981-.695-2.089-1.176-3.207-1.618l.158-.475c1.17.416 2.34.879 3.387 1.567 1.067.65 2.053 1.437 2.926 2.333.882.887 1.673 1.866 2.355 2.916.68 1.061 1.264 2.149 1.721 3.37z"/></g></g><path fill="none" stroke="#231f20" stroke-width="2" d="M1 55.0907056v-35.957l31.14-17.979 31.14 17.979v35.957l-31.14 17.979Z"/></svg>