<svg viewBox="0 0 300 339" xmlns="http://www.w3.org/2000/svg" fill-rule="evenodd" clip-rule="evenodd" stroke-miterlimit="10"><g transform="translate(0 .75) scale(4.16667)"><path fill="none" d="M0 0h72v81H0z"/><clipPath id="prefix__a"><path d="M0 0h72v81H0z"/></clipPath><g clip-path="url(#prefix__a)"><path d="M67.177 58.5v-36L36 4.5l-31.177 18v36L36 76.5l31.177-18z" fill="#495790" fill-rule="nonzero" opacity=".3"/><path d="M67.177 58.5v-36L36 4.5l-31.177 18v36L36 76.5l31.177-18z" fill="none" stroke="#231f20" stroke-width="2"/><path fill="#231f20" d="M10.682 38.818H55.42v8.114H10.682z"/><path d="M40.255 44.13a4.995 4.995 0 109.99 0 4.995 4.995 0 00-9.99 0" fill="#fff" fill-rule="nonzero"/><circle cx="4.995" r="4.995" fill="none" stroke="#231f20" stroke-width="2" transform="matrix(0 1 1 0 45.25 39.135)"/><path d="M14.742 43.829a4.58 4.58 0 004.58 4.579 4.58 4.58 0 100-9.16 4.581 4.581 0 00-4.58 4.58" fill="#fff" fill-rule="nonzero"/><ellipse cx="4.581" rx="4.58" ry="4.581" fill="none" stroke="#231f20" stroke-width="2" transform="matrix(0 1 1 0 19.323 39.248)"/><path d="M16.869 43.828a2.454 2.454 0 104.908 0 2.454 2.454 0 00-4.909 0" fill="#fff" fill-rule="nonzero"/><circle cx="2.454" r="2.454" fill="none" stroke="#231f20" stroke-width=".5" transform="matrix(0 1 1 0 19.323 41.374)"/><path d="M42.574 44.13a2.676 2.676 0 105.352 0 2.676 2.676 0 00-5.352 0" fill="#fff" fill-rule="nonzero"/><circle cx="2.676" r="2.676" fill="none" stroke="#231f20" stroke-width=".5" transform="matrix(0 1 1 0 45.25 41.454)"/><path d="M61.318 42.544l-2.075 4.387h-7.47v-4.217l-3.736-3.853H41.99l-2.935 2.934v5.255H26.171v-4.4l-4.15-4.15h-6.344l-1.69 1.69v6.534h-3.305v-8.901l4.94-5.948 38.803 3.554 6.893 7.115z" fill="#fff" fill-rule="nonzero"/><path d="M60.332 42.707a255.608 255.608 0 01-6.624-6.582l.627.3L15.53 32.87l.86-.357-4.94 5.948.23-.64v8.902l-1-1h3.307l-1 1 .5-6.533.017-.225L15.47 38h6.759l.146.146 4.15 4.15.12.12.027.234.5 4.399-1-1h12.883l-1 1 .5-5.255.022-.23 3.206-3.205h6.466l.148.152 3.735 3.854.113.118.028.23.5 4.217-1-1h7.47l-.904.573a54.562 54.562 0 011.993-3.797m1.973-.326a84.274 84.274 0 01-2.158 4.978l-.272.572h-9.221l.119-1 .5-4.217.14.348-3.735-3.854.359.152H41.99l.353-.146-2.934 2.935.146-.354.5 5.255.095 1H25.058l.114-1 .5-4.4.146.355-4.15-4.15.354.146h-6.344l.353-.146-1.69 1.689.147-.353.5 6.533.076 1H9.682V37.462l.23-.278 4.94-5.948.337-.405.524.048 38.804 3.554.369.034.258.266a316.153 316.153 0 017.16 7.648" fill="#231f20" fill-rule="nonzero"/><path d="M59.9 41.08l-2.762 3.861h-5.366M59.243 46.931l-2.105-1.99M39.055 44.941H26.172M13 35.187l41.425.242" fill="none" stroke="#231f20" stroke-width=".5"/><path d="M42.87 38.86H37.71l-3.565-3.389.345-.362 3.564 3.39-.344-.139h5.158v.5z" fill="#231f20" fill-rule="nonzero"/></g></g></svg>