<svg viewBox="0 0 301 338" xmlns="http://www.w3.org/2000/svg" fill-rule="evenodd" clip-rule="evenodd" stroke-linecap="round" stroke-linejoin="round" stroke-miterlimit="10"><g transform="translate(.5 .06) scale(4.16667)"><path fill="none" d="M0 0h72v81H0z"/><clipPath id="prefix__a"><path d="M0 0h72v81H0z"/></clipPath><g clip-path="url(#prefix__a)"><clipPath id="prefix__b"><path d="M4.823 22.5v36L36 76.5l31.177-18v-36L36 4.5l-31.177 18z" clip-rule="nonzero"/></clipPath><g clip-path="url(#prefix__b)"><path d="M4.823 58.5v-36L36 4.5l31.177 18v36L36 76.5l-31.177-18z" fill="#3f7faa" fill-rule="nonzero" opacity=".3"/><path d="M.631.264L.423.254A.119.119 0 01.31.135L0 .102v-.203l.31-.034a.12.12 0 01.113-.119l.208-.01a.133.133 0 01.14.133v.262a.133.133 0 01-.14.133zM1 0a.115.115 0 00-.115-.115.115.115 0 000 .23A.115.115 0 001 0z" fill="url(#prefix___Linear3)" fill-rule="nonzero" transform="scale(52.4234) rotate(-90 .933 .42)"/><path d="M29.21 24.083a6.79 6.79 0 1013.58 0 6.79 6.79 0 00-13.58 0" fill="#fff" fill-rule="nonzero"/><circle cx="6.789" fill="none" stroke="#231f20" stroke-width="2" r="6.789" transform="matrix(0 1 1 0 36 17.294)"/><path d="M28.226 30.871h15.549c4.49 0 8.067 3.757 7.847 8.241l-.605 12.356a7.012 7.012 0 01-7.004 6.67L42.01 76.5H29.99l-2.002-18.363a7.012 7.012 0 01-7.004-6.669l-.606-12.356c-.22-4.484 3.358-8.24 7.848-8.24z" fill="#fff" fill-rule="nonzero" stroke="#231f20" stroke-width="2"/></g><g><path d="M4.823 58.5v-36L36 4.5l31.177 18v36L36 76.5l-31.177-18z" fill="none" stroke="#231f20" stroke-width="2" stroke-linecap="butt" stroke-linejoin="miter"/></g></g></g><defs><linearGradient id="prefix___Linear3" x1="0" y1="0" x2="1" y2="0" gradientUnits="userSpaceOnUse" gradientTransform="matrix(1 0 0 -1 0 0)"><stop offset="0" stop-color="#adbfd6" stop-opacity="0"/><stop offset=".44" stop-color="#adbfd6"/><stop offset="1" stop-color="#adbfd6"/></linearGradient></defs></svg>