<svg viewBox="0 0 300 338" xmlns="http://www.w3.org/2000/svg" fill-rule="evenodd" clip-rule="evenodd" stroke-miterlimit="10"><g transform="translate(0 .375) scale(4.16667)"><path fill="none" d="M0 0h72v81H0z"/><clipPath id="prefix__a"><path d="M0 0h72v81H0z"/></clipPath><g clip-path="url(#prefix__a)"><clipPath id="prefix__b"><path d="M4.823 22.5v36L36 76.5l31.177-18v-36L36 4.5l-31.177 18z" clip-rule="nonzero"/></clipPath><g clip-path="url(#prefix__b)"><path d="M67.177 58.5v-36L36 4.5l-31.177 18v36L36 76.5l31.177-18z" fill="#3f7faa" fill-rule="nonzero" opacity=".3"/><path d="M45.698 49.305c-1.661.51-3.322 1.023-4.983 1.534l-.065-.183-.59-1.6-2.4.275h-.026l3.67-1.993a2.905 2.905 0 011.195-.341h.183c.279.003.604.042.948.16 1.377.475 1.947 1.837 2.068 2.148" fill="#9aa3ad" fill-rule="nonzero" opacity=".3"/><path d="M45.247 49.087a.364.364 0 00-.046.34l-.03-.059-.06-.119-.13-.232c-.086-.155-.19-.297-.289-.44a3.305 3.305 0 00-.717-.734 2.528 2.528 0 00-1.983-.434c-.347.06-.68.242-1.058.415l-1.095.512-2.205.994v.001h.025l2.4-.276.655 1.783.001.001c1.62-.678 3.077-1.287 4.532-1.752m.9.435c-1.866.558-3.73.972-5.432 1.317l-.656-1.784-2.4.276h-.026.001l2.036-1.309 1.025-.639c.331-.202.686-.459 1.124-.598.874-.295 1.823-.19 2.654.262.413.221.761.538 1.048.891a4.04 4.04 0 01.523.868l.064.157.03.08a.688.688 0 01.01.48" fill="#231f20" fill-rule="nonzero"/><path d="M39.77 53.239l1.496-.892-.551-1.509 4.616-1.442c.118-.039.249-.066.367-.092 1.914-.406 3.868.577 4.629 2.413L39.77 53.238z" fill="#9aa3ad" fill-rule="nonzero" opacity=".3"/><path d="M39.77 53.238a99.95 99.95 0 005.408-.974l5.077-1.042-.39.686-.002-.004c-.701-1.434-2.27-2.324-3.866-2.134-.374.033-.807.154-1.257.268-.443.104-.883.215-1.33.306-.891.187-1.784.371-2.695.494l.55 1.508-1.494.893zm0 0l1.496-.892-.551-1.508c.819-.417 1.656-.774 2.494-1.126.418-.179.843-.338 1.264-.506.416-.15.839-.342 1.364-.44a4.397 4.397 0 012.983.462c.907.493 1.633 1.326 1.966 2.292l.003.005.249.624-.64.063c-1.851.185-3.704.336-5.478.48a94.41 94.41 0 00-5.15.546" fill="#231f20" fill-rule="nonzero"/><path d="M53.867 54.025a.77.77 0 01-.577.747l-1.128.341a4.388 4.388 0 00-1.547-.288c-.105 0-.197.013-.288.013l-3.462.21-5.507 1.245c-1.862-.222-3.711-.445-5.573-.668.026-.013.039-.026.065-.04l3.92-2.347 10.557-1.52.485-.066a3.029 3.029 0 011.639.327c.3.145.839.42 1.167 1.063.183.354.236.708.249.983" fill="#9aa3ad" fill-rule="nonzero" opacity=".3"/><path d="M53.145 54.042c-.025-.454-.226-.86-.576-1.11a2.397 2.397 0 00-.293-.179c-.106-.052-.275-.135-.365-.169a2.828 2.828 0 00-.697-.175 2.328 2.328 0 00-.348-.01l-.462.037-.965.086-1.929.172c-1.285.123-2.575.211-3.864.307-1.288.107-2.584.157-3.876.237l-.004.003-3.916 2.344-.066.04 5.573.668h.006l5.416-1.62.005-.003.057-.007 2.667-.344c.454-.049.862-.136 1.393-.144a5.14 5.14 0 011.526.237l-.482-.016.004-.002 1.063-.302.104-.03.014-.009c.007.001.012-.029.015-.01m1.443-.035a1.49 1.49 0 01-.765 1.33c-.143.086-.356.144-.408.16l-1.032.332-.004.001-.295.072-.188-.089a3.732 3.732 0 00-1.073-.324c-.359-.048-.838-.026-1.273-.037l-2.662-.02.061-.009-5.586.868-.006.001-5.573-.668.066-.04 3.916-2.344.004-.003c1.262-.288 2.52-.606 3.786-.867 1.264-.272 2.528-.552 3.796-.797l1.901-.379.951-.19.496-.094c.23-.029.412-.03.618-.022.4.022.806.095 1.18.258.208.09.327.156.507.25.175.097.352.212.515.351.672.552 1.06 1.424 1.068 2.26" fill="#231f20" fill-rule="nonzero"/><path d="M37.683 49.482l3.648-1.993a2.864 2.864 0 013.819 1.026l.557.916" fill="#fff" fill-rule="nonzero" stroke="#231f20" stroke-width="2"/><path d="M28.875 50.343c-.334-.3-4.48-4.148-4.063-9.75.28-3.779 2.493-6.422 3.31-7.302 2.858-3.073 5.33-2.5 7.029-5.113.848-1.305 1.622-3.583.569-7.698.503.13 7.682 2.1 9.492 8.451.667 2.341.365 4.436.037 5.745a5.472 5.472 0 002.592-.227 5.339 5.339 0 001.295-.654c.53 1.17 2.147 5.125.855 9.924-.335 1.244-1.418 5.051-4.997 7.553-4.622 3.233-11.667 3.072-16.12-.929" fill="#fff" fill-rule="nonzero"/><path d="M29.326 49.84c2.145 1.947 5.057 2.986 7.972 3.038 2.912.059 5.884-.842 8.11-2.707 2.241-1.861 3.64-4.622 4.226-7.51.598-2.874.231-5.95-.954-8.66l.74.206-.013.008c-1.219.85-2.777 1.184-4.232.955l-.544-.085.133-.53c.37-1.48.455-3.03.187-4.52a9.796 9.796 0 00-1.794-4.121c-.906-1.218-2.077-2.237-3.37-3.067a16.421 16.421 0 00-4.192-1.883l.61-.608v.007c.38 1.477.644 3.016.533 4.597-.106 1.568-.646 3.199-1.793 4.416-.566.619-1.29 1.054-1.973 1.405-.69.353-1.358.646-1.974.999-1.232.695-2.28 1.65-3.146 2.786-1.74 2.252-2.694 5.113-2.36 7.91.32 2.782 1.813 5.447 3.834 7.365m-.903 1.005c-2.275-2.195-3.85-5.06-4.216-8.228-.357-3.17.753-6.365 2.67-8.806.945-1.23 2.154-2.32 3.53-3.08 1.37-.77 2.794-1.2 3.692-2.165.935-.954 1.436-2.303 1.557-3.694.128-1.402-.084-2.851-.42-4.262v-.007l-.188-.834.796.226a17.33 17.33 0 014.478 2.007c1.378.883 2.646 1.98 3.64 3.315 1 1.329 1.675 2.905 1.974 4.542.295 1.642.2 3.336-.202 4.937l-.41-.615c1.225.189 2.503-.087 3.517-.792l.01-.007.492-.333.248.539c1.321 2.875 1.782 6.156 1.192 9.3-.602 3.096-2.095 6.127-4.58 8.225-2.478 2.098-5.735 3.099-8.927 3.056-3.194-.037-6.426-1.154-8.853-3.324" fill="#231f20" fill-rule="nonzero"/><path d="M36.524 49.972c2.384.013 5.46-1.243 6.368-3.662.914-2.44-.806-4.916-2.293-5.972-.514-.365-.747-.38-2.41-1.417-2.001-1.247-2.342-1.648-2.56-2.032-.235-.415-.63-1.344-.245-2.901-.763.396-3.488 1.913-4.863 5.029-.356.808-1.727 4.227.186 7.38.328.542 2.155 3.555 5.817 3.575" fill="#3f7faa" fill-rule="nonzero" opacity=".4"/><path d="M25.581 24.325c1.078 1.174 3.092 2.022 4.688 1.198 1.61-.83 2.04-2.97 1.88-4.25-.056-.445-.154-.566-.403-1.924-.3-1.634-.259-2.01-.17-2.319.096-.333.371-1.012 1.308-1.64-.54-.166-2.523-.705-4.673.255-.557.25-2.854 1.37-3.527 3.958-.116.445-.759 2.92.897 4.722" fill="#fff" fill-rule="nonzero"/><path d="M25.581 24.325c1.078 1.174 3.092 2.022 4.688 1.198 1.61-.83 2.04-2.97 1.88-4.25-.056-.445-.154-.566-.403-1.924-.3-1.634-.259-2.01-.17-2.319.096-.333.371-1.012 1.308-1.64-.54-.166-2.523-.705-4.673.255-.557.25-2.854 1.37-3.527 3.958-.116.445-.759 2.92.897 4.722z" fill="none" stroke="#231f20"/><path d="M26.18 56.917l5.837-.184a7.976 7.976 0 003.847-1.13l5.416-3.243-.621-1.689-.587-1.598-9.778 1.135-2.148-1.14a14.377 14.377 0 00-8.72-1.546l-.177.025c-6.201.86-12.29 2.278-18.211 4.237l-3.917 1.296 1.007 12.663 4.973-2.728a40.057 40.057 0 0111.716-4.218l12.404 5.595 1.021-.03a63.53 63.53 0 0018.046-3.164l8.291-2.73a.399.399 0 00.256-.497 4.42 4.42 0 00-4.495-3.118l-3.461.21-5.509 1.244-5.579-.66" fill="#fff" fill-rule="nonzero"/><path d="M26.18 56.917c1.343-.249 2.687-.474 4.031-.676l1.995-.29a7.763 7.763 0 001.727-.54c.555-.237 1.084-.405 1.634-.759l1.738-1.04 3.475-2.082h.002l-.411 1.164-1.236-3.273-.001-.003 1.053.65-9.778 1.131a.986.986 0 01-.583-.11l-1.902-1.01a14.86 14.86 0 00-1.837-.846 13.409 13.409 0 00-3.907-.828c-1.344-.097-2.639.093-4.079.315a99.428 99.428 0 00-4.203.726A103.028 103.028 0 005.6 51.422c-2.734.76-5.43 1.702-8.168 2.598l.676-1.019 1.004 12.663-1.458-.787 3.481-1.908c1.15-.629 2.332-1.295 3.562-1.877a41.104 41.104 0 019.627-3.198l.25-.05.031-.007.015-.003h.008c-.125-.018 1.121.13.597.07l.056.025.113.051.453.204.905.408 3.619 1.634 7.238 3.266.015.007-.431-.087c3.158-.059 6.26-.319 9.353-.83a62.63 62.63 0 009.111-2.205l4.522-1.485 2.263-.745 1.132-.372.565-.186.127-.042a.57.57 0 00-.366.687c.009.03-.02-.055-.029-.076-.027-.073-.047-.148-.08-.219a3.566 3.566 0 00-.207-.415 3.655 3.655 0 00-.569-.73 3.476 3.476 0 00-2.533-.974l-1.166.066-2.378.143.154-.022-5.481 1.24-.027.005-.068.015a.65.65 0 01-.26.002l-5.522-1.14a.487.487 0 01.114-.963l5.636.18-.327.017.027-.007 5.482-1.238a1.18 1.18 0 01.155-.022l2.378-.145 1.212-.069a5.408 5.408 0 013.957 1.52 5.392 5.392 0 011.216 1.792c.05.11.085.226.127.34.023.072.031.08.068.205a1.376 1.376 0 01-.876 1.643l-.156.052-.565.186-1.132.373-2.262.746-4.531 1.491a64.658 64.658 0 01-9.394 2.28c-3.176.528-6.42.8-9.614.861h-.009a1.005 1.005 0 01-.422-.086l-.014-.007-7.24-3.263-4.525-2.04-.453-.204-.113-.05-.056-.026c-.529-.063.712.082.582.068l-.008.001-.015.003-.029.006-.238.048a39.24 39.24 0 00-9.164 3.049c-2.292 1.121-4.624 2.494-6.942 3.738l-.008.004a.987.987 0 01-1.451-.79l-1.01-12.664a.99.99 0 01.676-1.018c2.72-.89 5.448-1.846 8.25-2.627a104.693 104.693 0 0112.743-2.76c1.393-.218 2.96-.449 4.493-.337a15.41 15.41 0 014.489.95c.713.263 1.432.606 2.074.951l1.903 1.01-.583-.11 9.778-1.137h.009a.99.99 0 011.045.648l.001.003 1.177 3.295.003.008a.97.97 0 01-.415 1.157l-.002.001-3.475 2.081-1.738 1.041c-.595.361-1.291.783-2.021.962a8.264 8.264 0 01-2.241.217 62.81 62.81 0 01-2.054-.156 116.91 116.91 0 01-4.066-.42" fill="#231f20" fill-rule="nonzero"/></g><g><path d="M67.177 58.5v-36L36 4.5l-31.177 18v36L36 76.5l31.177-18z" fill="none" stroke="#231f20" stroke-width="2"/></g></g></g></svg>