<svg viewBox="0 0 300 338" xmlns="http://www.w3.org/2000/svg" fill-rule="evenodd" clip-rule="evenodd" stroke-miterlimit="10"><g transform="translate(0 .06) scale(4.16667)"><path fill="none" d="M0 0h72v81H0z"/><clipPath id="prefix__a"><path d="M0 0h72v81H0z"/></clipPath><g clip-path="url(#prefix__a)"><clipPath id="prefix__b"><path d="M4.823 22.5v36L36 76.5l31.177-18v-36L36 4.5l-31.177 18z" clip-rule="nonzero"/></clipPath><g clip-path="url(#prefix__b)"><path d="M67.177 58.5v-36L36 4.5l-31.177 18v36L36 76.5l31.177-18z" fill="#3f7faa" fill-rule="nonzero" opacity=".3"/><path d="M41.799 53.115l-3.8 1.17-.05-.14-.45-1.22-1.83.21h-.02l2.8-1.52c.28-.15.59-.24.91-.26h.14c.212.002.46.032.723.122 1.05.362 1.484 1.4 1.577 1.638" fill="#9aa3ad" fill-rule="nonzero" opacity=".3"/><path d="M41.349 52.897a.396.396 0 00-.04.356l-.022-.042-.045-.086-.097-.169c-.063-.113-.141-.215-.211-.321a2.44 2.44 0 00-.508-.539 1.83 1.83 0 00-1.43-.342c-.25.039-.502.164-.797.292l-.846.369-1.703.719h-.001v.001h.02v-.001l1.829-.209.5 1.359c1.226-.556 2.29-1.044 3.35-1.387m.9.435c-1.471.437-2.94.729-4.25.953v-.001l-.5-1.359-1.83.209v.001h-.02v-.001h.002l1.53-1.036.772-.509c.245-.159.518-.368.866-.481.694-.24 1.439-.166 2.108.188.33.173.608.424.837.701a2.89 2.89 0 01.41.685l.05.124.023.064a.646.646 0 01.003.462" fill="#231f20" fill-rule="nonzero"/><path d="M37.279 56.114l1.14-.68-.42-1.15 3.52-1.1c.09-.03.19-.05.28-.07 1.46-.31 2.95.44 3.53 1.84l-8.05 1.16z" fill="#9aa3ad" fill-rule="nonzero" opacity=".3"/><path d="M37.279 56.114c1.42-.217 2.83-.49 4.154-.793 1.327-.303 2.575-.6 3.825-.861l-.391.686-.002-.003c-.54-1.028-1.65-1.668-2.82-1.554-.266.018-.598.102-.944.185-.341.07-.68.149-1.023.208-.686.124-1.373.244-2.08.303l.42 1.15-1.14.68zm0 0l1.14-.68-.42-1.15c.614-.352 1.245-.645 1.878-.933.316-.147.637-.274.956-.41.314-.118.635-.273 1.053-.356a3.426 3.426 0 012.359.354c.719.389 1.294 1.053 1.544 1.82l.002.005.242.63-.633.056c-1.433.125-2.87.216-4.225.299a53.958 53.958 0 00-3.896.366" fill="#231f20" fill-rule="nonzero"/><path d="M48.029 56.715c0 .27-.18.5-.44.57l-.86.26a3.34 3.34 0 00-1.18-.22c-.08 0-.15.01-.22.01l-2.64.16-4.2.95-4.25-.51c.02-.01.03-.02.05-.03l2.99-1.79 8.05-1.16.37-.05c.24-.02.73-.02 1.25.25.23.11.64.32.89.81.14.27.18.54.19.75" fill="#9aa3ad" fill-rule="nonzero" opacity=".3"/><path d="M47.548 56.726a1.197 1.197 0 00-.464-.9c-.122-.1-.338-.203-.518-.28a2.181 2.181 0 00-.555-.137c-.315-.034-.905.063-1.367.096l-1.47.14c-1.96.19-3.925.343-5.895.47l-.003.002-2.987 1.788-.05.03 4.25.51.004-.002 4.139-1.2h.006l.036-.005 2.033-.245c.345-.034.66-.098 1.057-.101.386.002.772.067 1.142.185l-.322-.011.003-.001.809-.234c.134-.038.084-.026.123-.05.016-.013.027-.05.029-.055m.962-.023c.003.273-.09.514-.255.712-.14.192-.453.332-.588.359l-.79.248h-.003l-.193.049-.13-.06a2.916 2.916 0 00-.84-.242c-.281-.034-.643-.014-.976-.02l-2.03.002.04-.006-4.252.699h-.004l-4.25-.51.05-.03 2.987-1.787.003-.002c1.925-.435 3.855-.844 5.79-1.216l1.45-.28.726-.14.378-.068c.167-.021.305-.021.458-.015.297.017.599.073.876.193.268.123.502.232.763.445.502.403.786 1.05.79 1.669" fill="#231f20" fill-rule="nonzero"/><path d="M26.914 58.92l4.451-.14a6.078 6.078 0 002.934-.862l4.13-2.473-.473-1.288-.447-1.219-7.458.866-1.637-.87a10.956 10.956 0 00-6.65-1.178l-.136.018A78.56 78.56 0 007.74 55.005l-2.987.99.768 9.656 3.792-2.08a30.529 30.529 0 018.935-3.217l9.46 4.266.778-.022a48.452 48.452 0 0013.763-2.413l6.322-2.083a.303.303 0 00.196-.378 3.37 3.37 0 00-3.428-2.378l-2.639.16-4.202.95-4.255-.505" fill="#fff" fill-rule="nonzero"/><path d="M26.914 58.92a66.501 66.501 0 013.07-.646L31.498 58c.445-.097.865-.26 1.256-.452.404-.18.786-.284 1.201-.552l1.325-.793 2.65-1.587h.002l-.412 1.164-.949-2.494v-.002l1.053.65-7.458.862a.995.995 0 01-.583-.11l-1.45-.77a10.975 10.975 0 00-1.373-.633 9.977 9.977 0 00-2.91-.618c-1.002-.072-1.958.068-3.062.238a78.035 78.035 0 00-9.505 2.054c-2.076.577-4.129 1.294-6.219 1.977l.676-1.018.765 9.657-1.459-.787c1.793-.96 3.484-1.962 5.383-2.892a31.625 31.625 0 017.396-2.456l.191-.039.024-.005.018-.003c.265.03-.584-.07.595.07l.043.018.087.04.345.155.69.311 2.76 1.246 5.518 2.491.015.006-.43-.086a48.966 48.966 0 007.101-.63 47.482 47.482 0 006.915-1.672l3.447-1.132 2.59-.852.43-.142.094-.03a.665.665 0 00-.427.801c.012.041-.013-.033-.017-.044-.02-.05-.033-.103-.056-.152a2.495 2.495 0 00-.54-.797 2.415 2.415 0 00-1.762-.678l-.884.05-1.814.11.155-.022-4.177.943-.024.005-.084.02a.573.573 0 01-.244-.002l-4.197-.985a.487.487 0 01.113-.96l4.312.021-.327.018.024-.006 4.177-.944c.05-.01.106-.018.155-.022l1.814-.11.93-.054c.388-.019.781.026 1.16.114a4.378 4.378 0 012.027 1.11c.278.274.52.584.718.92.1.168.184.344.261.523.04.09.068.183.102.274l.056.173a1.279 1.279 0 01-.815 1.529l-.122.04-.43.143-.864.284-1.725.57-3.457 1.137A49.434 49.434 0 0135.1 64.94a51.054 51.054 0 01-7.363.661h-.009a.99.99 0 01-.422-.087l-.014-.006-5.52-2.488-3.45-1.555-.346-.155-.087-.039-.043-.02c1.176.138.323.04.584.07l-.017.003-.023.005-.179.036a29.646 29.646 0 00-6.933 2.308c-1.727.844-3.517 1.897-5.28 2.844l-.009.004a.987.987 0 01-1.45-.79l-.772-9.658a.99.99 0 01.676-1.018c2.072-.679 4.157-1.409 6.301-2.007a80.148 80.148 0 019.747-2.112c1.057-.165 2.284-.347 3.475-.259 1.193.07 2.375.32 3.493.74.553.202 1.118.472 1.61.736l1.451.771-.583-.11 7.457-.868h.012a.985.985 0 011.042.648l.001.002.89 2.516.004.01a.969.969 0 01-.415 1.155h-.002l-2.65 1.588-1.325.793c-.459.278-1.01.626-1.587.761a6.54 6.54 0 01-1.77.124 36.68 36.68 0 01-1.574-.17 66.52 66.52 0 01-3.105-.452" fill="#231f20" fill-rule="nonzero"/><path d="M30.199 27.737l3.8-1.17.05.14.45 1.22 1.83-.21h.02l-2.8 1.52c-.28.15-.59.24-.91.26h-.14a2.294 2.294 0 01-.723-.122c-1.05-.362-1.484-1.401-1.577-1.638" fill="#9aa3ad" fill-rule="nonzero" opacity=".3"/><path d="M30.649 27.955a.396.396 0 00.039-.356l.023.042.045.086.097.169c.063.113.14.215.21.32.146.209.316.39.509.54.368.294.94.44 1.429.342.25-.04.503-.164.798-.292l.846-.37 1.703-.718h-.02l-1.83.209-.5-1.36c-1.224.557-2.288 1.045-3.35 1.388m-.9-.435c1.473-.437 2.942-.73 4.25-.953l.5 1.36 1.83-.21h.02l-1.531 1.037-.771.509c-.245.159-.518.368-.866.48-.695.24-1.44.167-2.108-.187a2.775 2.775 0 01-.837-.701 2.89 2.89 0 01-.411-.685l-.05-.124-.022-.064a.646.646 0 01-.003-.462" fill="#231f20" fill-rule="nonzero"/><path d="M34.719 24.737l-1.14.68.42 1.15-3.52 1.1c-.09.03-.19.05-.28.07-1.46.31-2.95-.44-3.53-1.84l8.05-1.16z" fill="#9aa3ad" fill-rule="nonzero" opacity=".3"/><path d="M34.719 24.737c-1.42.218-2.83.49-4.154.794-1.327.303-2.575.599-3.825.86l.39-.685.003.003c.54 1.028 1.649 1.668 2.819 1.554.267-.018.599-.102.945-.185.34-.07.679-.15 1.023-.208.686-.124 1.373-.244 2.079-.303l-.42-1.15 1.14-.68zm0 0l-1.14.68.42 1.15c-.614.353-1.245.646-1.878.934-.316.147-.637.274-.956.41-.314.118-.635.273-1.053.356a3.426 3.426 0 01-2.36-.354c-.718-.39-1.293-1.053-1.543-1.82l-.002-.005-.242-.63.633-.056c1.433-.125 2.869-.216 4.225-.3a53.958 53.958 0 003.896-.365" fill="#231f20" fill-rule="nonzero"/><path d="M23.969 24.137c0-.27.18-.5.44-.57l.86-.26c.37.14.77.22 1.18.22.08 0 .15-.01.22-.01l2.64-.16 4.2-.95 4.25.51c-.02.01-.03.02-.05.03l-2.99 1.79-8.05 1.16-.37.05c-.24.02-.73.02-1.25-.25-.23-.11-.64-.32-.89-.81a1.8 1.8 0 01-.19-.75" fill="#9aa3ad" fill-rule="nonzero" opacity=".3"/><path d="M24.45 24.126c.022.365.186.692.464.9.122.1.338.203.518.279.178.065.362.12.555.138.315.033.905-.063 1.367-.096l1.47-.141c1.96-.19 3.925-.342 5.895-.47l.003-.001 2.987-1.788.05-.03-4.25-.51-.004.002-4.14 1.199h-.005l-.036.006-2.033.245c-.345.034-.66.098-1.057.1a3.833 3.833 0 01-1.142-.184l.322.01-.003.002-.81.234c-.133.038-.083.026-.122.05-.016.013-.027.049-.03.055m-.961.023a1.068 1.068 0 01.255-.712c.14-.192.453-.332.589-.36l.789-.247.003-.001.193-.048.129.059c.265.12.549.206.84.243.282.034.644.014.977.019l2.03-.001-.041.006 4.253-.7h.004l4.25.51-.05.03-2.987 1.788-.003.002c-1.925.435-3.855.844-5.79 1.216l-1.451.279-.725.14-.378.069a2.642 2.642 0 01-.458.015 2.577 2.577 0 01-.876-.193c-.268-.123-.502-.232-.763-.445-.502-.403-.786-1.051-.79-1.67" fill="#231f20" fill-rule="nonzero"/><path d="M45.083 21.931l-4.45.141a6.078 6.078 0 00-2.935.861l-4.13 2.473.473 1.288.447 1.22 7.458-.867 1.637.87a10.963 10.963 0 006.651 1.18l.135-.02a78.56 78.56 0 0013.888-3.23l2.987-.99-.768-9.657-3.792 2.08a30.529 30.529 0 01-8.935 3.217l-9.46-4.266-.778.022c-4.68.135-9.316.948-13.763 2.413-2.107.695-4.215 1.39-6.322 2.083a.303.303 0 00-.196.378 3.37 3.37 0 003.428 2.378l2.64-.16 4.201-.949 4.255.504" fill="#fff" fill-rule="nonzero"/><path d="M45.083 21.931a66.501 66.501 0 01-3.07.646l-1.514.275c-.445.097-.865.26-1.256.452-.404.181-.786.284-1.2.552l-1.326.793-2.65 1.587-.002.001.412-1.165.95 2.494v.002l-1.054-.649 7.458-.863a.995.995 0 01.583.11l1.45.771c.473.253.9.455 1.373.632.932.35 1.917.56 2.911.618 1.001.072 1.957-.068 3.061-.238a78.035 78.035 0 009.505-2.054c2.076-.577 4.13-1.294 6.22-1.977l-.677 1.018-.765-9.657 1.46.787c-1.794.96-3.485 1.962-5.384 2.892a31.64 31.64 0 01-7.396 2.456l-.19.04-.025.004-.018.003c-.265-.03.584.071-.595-.069l-.043-.019-.087-.039-.345-.156-.69-.31-2.759-1.247-5.519-2.49-.014-.007.43.086a48.966 48.966 0 00-7.102.63 47.482 47.482 0 00-6.915 1.672l-3.447 1.132-2.589.852-.43.142-.095.031a.665.665 0 00.427-.801c-.012-.042.013.032.017.043.02.05.033.103.056.152a2.495 2.495 0 00.54.797 2.415 2.415 0 001.762.678l.884-.05 1.814-.109-.155.021 4.177-.943.024-.005.084-.019a.573.573 0 01.244.001l4.197.985a.487.487 0 01-.113.962l-4.312-.023.327-.017-.024.005-4.177.944c-.05.011-.106.018-.155.022l-1.814.11-.93.054a4.238 4.238 0 01-1.16-.114 4.378 4.378 0 01-2.027-1.11 4.54 4.54 0 01-.718-.92 4.472 4.472 0 01-.26-.523c-.04-.09-.069-.183-.103-.274l-.056-.173a1.279 1.279 0 01.815-1.529l.122-.04.431-.143.863-.284 1.725-.569 3.457-1.138a49.434 49.434 0 017.197-1.747 51.054 51.054 0 017.363-.66h.01a.99.99 0 01.421.086l.014.006 5.521 2.488 3.45 1.555.345.155.087.04.043.02c-1.176-.139-.323-.04-.584-.07l.017-.004.023-.005.18-.036a29.646 29.646 0 006.933-2.308c1.726-.844 3.516-1.897 5.28-2.844l.008-.004a.987.987 0 011.451.791l.771 9.657a.99.99 0 01-.676 1.018c-2.072.68-4.157 1.41-6.3 2.007a80.148 80.148 0 01-9.748 2.112c-1.057.165-2.284.347-3.475.26a11.97 11.97 0 01-3.493-.74 12.939 12.939 0 01-1.61-.737l-1.45-.77.582.11-7.457.867-.012.001a.985.985 0 01-1.042-.649v-.002l-.89-2.516-.005-.01a.967.967 0 01.415-1.154h.002l2.65-1.588 1.325-.794c.46-.278 1.011-.626 1.587-.76a6.54 6.54 0 011.77-.125 36.68 36.68 0 011.574.171 66.52 66.52 0 013.105.451" fill="#231f20" fill-rule="nonzero"/><path d="M36.05 47.025l-.05.032c-.016-.01-.033-.02-.049-.032-4.965-3.213-7.887-7.153-7.119-9.926.501-1.807 1.898-2.623 1.898-2.623 1.057-.617 2.541-.76 3.796-.1A3.785 3.785 0 0136 35.8a3.781 3.781 0 011.473-1.424c1.758-.926 3.596-.004 3.797.1 0 0 1.397.816 1.898 2.623.768 2.773-2.154 6.713-7.119 9.926" fill="#fff" fill-rule="nonzero"/><path d="M36.05 47.025l-.05.032c-.016-.01-.033-.02-.049-.032-4.965-3.213-7.887-7.153-7.119-9.926.501-1.807 1.898-2.623 1.898-2.623 1.057-.617 2.541-.76 3.796-.1A3.785 3.785 0 0136 35.8a3.781 3.781 0 011.473-1.424c1.758-.926 3.596-.004 3.797.1 0 0 1.397.816 1.898 2.623.768 2.773-2.154 6.713-7.119 9.926z" fill="none" stroke="#231f20"/></g><g><path d="M67.177 58.5v-36L36 4.5l-31.177 18v36L36 76.5l31.177-18z" fill="none" stroke="#231f20" stroke-width="2"/></g></g></g></svg>