<svg viewBox="0 0 301 338" xmlns="http://www.w3.org/2000/svg" fill-rule="evenodd" clip-rule="evenodd" stroke-miterlimit="10"><g transform="translate(.5 .44) scale(4.16667)"><path fill="none" d="M0 0h72v81H0z"/><clipPath id="prefix__a"><path d="M0 0h72v81H0z"/></clipPath><g clip-path="url(#prefix__a)"><path d="M67.177 58.5v-36L36 4.5l-31.177 18v36L36 76.5l31.177-18z" fill="#495790" fill-rule="nonzero" opacity=".3"/><path d="M67.177 58.5v-36L36 4.5l-31.177 18v36L36 76.5l31.177-18z" fill="none" stroke="#231f20" stroke-width="2"/><path d="M44.79 42.495l-5.698-27.346-.732-.07a25.487 25.487 0 00-4.72 0l-.731.07-5.704 27.346-8.11 3.43v12.779l.468.425a25.036 25.036 0 008.205 4.73l.16.054h.004c.604.206 1.226.394 1.839.549l.15.037c1.977.494 4.02.74 6.079.74a25.15 25.15 0 008.238-1.38 24.999 24.999 0 008.342-4.862l.325-.297V45.925l-8.114-3.43z" fill="#fff" fill-rule="nonzero" stroke="#231f20" stroke-width="2"/><path d="M27.855 38.937l1.906 25.525M44.155 38.937L42.25 64.462M39.348 42.053L38.4 54.678a7.695 7.695 0 01-4.793.005l-.947-12.629a11.485 11.485 0 016.687 0z" fill="none" stroke="#231f20"/></g></g></svg>