<svg viewBox="0 0 301 339" xmlns="http://www.w3.org/2000/svg" fill-rule="evenodd" clip-rule="evenodd" stroke-miterlimit="10"><g transform="translate(.5 .75) scale(4.16667)"><path fill="none" d="M0 0h72v81H0z"/><clipPath id="prefix__a"><path d="M0 0h72v81H0z"/></clipPath><g clip-path="url(#prefix__a)"><clipPath id="prefix__b"><path d="M4.823 22.5v36L36 76.5l31.177-18v-36L36 4.5l-31.177 18z" clip-rule="nonzero"/></clipPath><g clip-path="url(#prefix__b)"><path d="M67.177 58.5v-36L36 4.5l-31.177 18v36L36 76.5l31.177-18z" fill="#7f5a90" fill-rule="nonzero" opacity=".3"/><path d="M36 28.693c-10.944 0-16.484 4.529-23.548 11.807C19.516 47.778 25.056 52.307 36 52.307c10.944 0 16.484-4.529 23.548-11.807C52.484 33.222 46.944 28.693 36 28.693" fill="#fff" fill-rule="nonzero"/></g><clipPath id="prefix__c"><path d="M12.452 40.5C19.516 47.778 25.056 52.307 36 52.307c10.944 0 16.484-4.529 23.549-11.807C52.484 33.222 46.944 28.693 36 28.693c-10.944 0-16.484 4.529-23.548 11.807z" clip-rule="nonzero"/></clipPath><g clip-path="url(#prefix__c)"><path d="M37.18 42.396a4.576 4.576 0 11-2.214-8.881 4.576 4.576 0 012.214 8.88m5.464 1.62l1.963-3.397 2.533-.307c.04-.194.078-.393.11-.598a11.673 11.673 0 00-.11-4.116l-2.536-.306-1.96-3.397 1.002-2.345-4.083-2.354-1.532 2.038h-3.92l-1.531-2.038-4.08 2.354.998 2.345-1.96 3.397-2.533.306v4.714l2.53.307 1.963 3.397-.998 2.345c1.359.786 2.718 1.57 4.076 2.357l1.535-2.041h3.92l1.535 2.04 4.079-2.356-1.001-2.345z" fill="#7f5a90" fill-rule="nonzero" opacity=".3"/><path d="M37.18 42.396a4.576 4.576 0 11-2.214-8.881 4.576 4.576 0 012.214 8.88zm5.464 1.619l1.963-3.397 2.533-.307c.04-.194.078-.393.11-.598a11.673 11.673 0 00-.11-4.116l-2.536-.306-1.96-3.397 1.002-2.345-4.083-2.354-1.532 2.038h-3.92l-1.531-2.038-4.08 2.354.998 2.345-1.96 3.397-2.533.306v4.714l2.53.307 1.963 3.397-.998 2.345c1.359.786 2.718 1.57 4.076 2.357l1.535-2.041h3.92l1.535 2.04 4.079-2.356-1.001-2.345z" fill="none" stroke="#231f20"/></g><g transform="matrix(-1 0 0 1 36 52.307)"><clipPath id="prefix__d"><path d="M31.177-29.807v36L0 24.193l-31.177-18v-36L0-47.807l31.177 18z" clip-rule="nonzero"/></clipPath><g clip-path="url(#prefix__d)"><path d="M0-23.614c10.944 0 16.484 4.529 23.548 11.807C16.484-4.529 10.944 0 0 0c-10.944 0-16.484-4.529-23.548-11.807C-16.484-19.085-10.944-23.614 0-23.614z" fill="none" stroke="#231f20" stroke-width="2"/></g></g><g><path d="M67.177 58.5v-36L36 4.5l-31.177 18v36L36 76.5l31.177-18z" fill="none" stroke="#231f20" stroke-width="2"/></g></g></g></svg>