<svg viewBox="0 0 300 339" xmlns="http://www.w3.org/2000/svg" fill-rule="evenodd" clip-rule="evenodd" stroke-linecap="round" stroke-linejoin="round" stroke-miterlimit="10"><g transform="translate(0 .688) scale(4.16667)"><path fill="none" d="M0 0h72v81H0z"/><clipPath id="prefix__a"><path d="M0 0h72v81H0z"/></clipPath><g clip-path="url(#prefix__a)"><clipPath id="prefix__b"><path d="M4.823 21v36L36 75l31.177-18V21L36 3 4.823 21z" clip-rule="nonzero"/></clipPath><g clip-path="url(#prefix__b)"><path d="M67.177 57.078v-36L36 3.078l-31.177 18v36l31.177 18 31.177-18z" fill="#3f7faa" fill-rule="nonzero" opacity=".3"/></g><path d="M10.556 25.973l5.264 13.841-5.264 13.841h48.928V25.973H10.556z" fill="#fff" fill-rule="nonzero"/><path d="M59.483 53.655H10.557l5.264-13.84-5.264-13.843h48.926v27.683z" fill="none" stroke="#231f20" stroke-width="2"/><clipPath id="prefix__c"><path d="M4.823 21v36L36 75l31.177-18V21L36 3 4.823 21z" clip-rule="nonzero"/></clipPath><g clip-path="url(#prefix__c)"><path d="M59.488 25.973v27.68l-26.16-13.09v-14.59h26.16z" fill="#3f7faa" fill-rule="nonzero" opacity=".4"/></g><path d="M59.488 25.973v27.68l-26.16-13.09v-14.59h26.16z" fill="none" stroke="#231f20" stroke-width="2"/><path d="M33.329 12.131v28.427h33.848V21l-15.361-8.869H33.329z" fill="#fff" fill-rule="nonzero"/><g transform="matrix(-1 0 0 1 123.15 -28.311)"><clipPath id="prefix__d"><path d="M118.327 49.311v36l-31.177 18-31.177-18v-36l31.177-18 31.177 18z" clip-rule="nonzero"/></clipPath><g clip-path="url(#prefix__d)"><path fill="none" stroke="#231f20" stroke-width="2" d="M33.329 40.442h56.492v28.427H33.329z"/></g></g><g><path d="M67.177 57V21L36 3 4.823 21v36L36 75l31.177-18z" fill="none" stroke="#231f20" stroke-width="2" stroke-linecap="butt" stroke-linejoin="miter"/></g></g></g></svg>