<svg viewBox="0 0 300 339" xmlns="http://www.w3.org/2000/svg" fill-rule="evenodd" clip-rule="evenodd" stroke-linecap="round" stroke-linejoin="round" stroke-miterlimit="10"><g transform="translate(0 .75) scale(4.16667)"><path fill="none" d="M0 0h72v81H0z"/><clipPath id="prefix__a"><path d="M0 0h72v81H0z"/></clipPath><g clip-path="url(#prefix__a)"><clipPath id="prefix__b"><path d="M4.823 22.5v36L36 76.5l31.177-18v-36L36 4.5l-31.177 18z" clip-rule="nonzero"/></clipPath><g clip-path="url(#prefix__b)"><path d="M67.177 58.5v-36L36 4.5l-31.177 18v36L36 76.5l31.177-18z" fill="#3f7faa" fill-rule="nonzero" opacity=".3"/><path d="M42.79 24.083a6.79 6.79 0 11-13.58 0 6.79 6.79 0 0113.58 0" fill="#fff" fill-rule="nonzero"/><circle cx="-6.789" fill="none" stroke="#231f20" stroke-width="2" r="6.789" transform="matrix(0 -1 -1 0 36 17.294)"/><path d="M43.774 30.871H28.225c-4.49 0-8.067 3.757-7.847 8.241l.605 12.356a7.012 7.012 0 007.004 6.67L29.99 76.5h12.02l2.002-18.363a7.012 7.012 0 007.004-6.669l.606-12.356c.22-4.484-3.358-8.24-7.848-8.24z" fill="#fff" fill-rule="nonzero" stroke="#231f20" stroke-width="2"/><g opacity=".4"><path d="M68.954 30.812a3.929 3.929 0 11-7.858 0 3.929 3.929 0 017.858 0" fill="#3f7faa" fill-rule="nonzero"/><path d="M69.524 34.74h-8.999a4.547 4.547 0 00-4.54 4.77l.35 7.15a4.058 4.058 0 004.052 3.86l1.16 10.628h6.956l1.16-10.628a4.057 4.057 0 004.052-3.86l.351-7.15a4.547 4.547 0 00-4.542-4.77" fill="#3f7faa" fill-rule="nonzero"/></g><g opacity=".4"><path d="M10.904 30.812a3.929 3.929 0 11-7.858 0 3.929 3.929 0 017.858 0" fill="#3f7faa" fill-rule="nonzero"/><path d="M11.474 34.74H2.475a4.547 4.547 0 00-4.54 4.77l.35 7.15a4.058 4.058 0 004.052 3.86l1.16 10.628h6.956l1.16-10.628a4.057 4.057 0 004.052-3.86l.351-7.15a4.547 4.547 0 00-4.542-4.77" fill="#3f7faa" fill-rule="nonzero"/></g></g><g><path d="M67.177 58.5v-36L36 4.5l-31.177 18v36L36 76.5l31.177-18z" fill="none" stroke="#231f20" stroke-width="2" stroke-linecap="butt" stroke-linejoin="miter"/></g></g></g></svg>