<svg xmlns="http://www.w3.org/2000/svg" xmlns:svg="http://www.w3.org/2000/svg" fill-rule="evenodd" stroke-miterlimit="10" clip-rule="evenodd" viewBox="0 0 64.353996 74.309402" xml:space="preserve"><path fill="#3d8b8a" fill-rule="nonzero" d="m32.177 73.1546997 31.177-18v-36l-31.177-18-31.177 18v36z" opacity=".3"/><g transform="translate(-3.823 -3.3453003)"><clipPath id="a"><path d="M4.823 22.5v36L36 76.5l31.177-18v-36L36 4.5Z" clip-rule="nonzero"/></clipPath><g clip-path="url(#a)"><path fill="none" stroke="#231f20" d="M45.4332 22.2272v-6.501l-5.63-3.25v-6.501"/><path fill="#fff" fill-rule="nonzero" d="M45.4332 19.3195c1.606 0 2.908 1.302 2.908 2.908 0 1.606-1.302 2.908-2.908 2.908-1.606 0-2.908-1.302-2.908-2.908 0-1.606 1.302-2.908 2.908-2.908"/><circle cy="-2.908" r="2.908" fill="none" stroke="#231f20" transform="matrix(-1 0 0 1 45.4332 25.1355)"/><path fill="none" stroke="#231f20" d="M26.5535 22.2272v-6.501l5.63-3.25v-6.501"/><path fill="#fff" fill-rule="nonzero" d="M26.5535 19.3195c-1.606 0-2.908 1.302-2.908 2.908 0 1.606 1.302 2.908 2.908 2.908 1.606 0 2.908-1.302 2.908-2.908 0-1.606-1.302-2.908-2.908-2.908"/><circle cy="-2.908" r="2.908" fill="none" stroke="#231f20" transform="matrix(-1 0 0 1 26.5535 25.1355)"/><path fill="none" stroke="#231f20" d="M35.9934-3.9413v22.872"/><path fill="#fff" fill-rule="nonzero" d="M35.9934 21.8383c-1.606 0-2.908-1.302-2.908-2.908 0-1.606 1.302-2.908 2.908-2.908 1.606 0 2.908 1.302 2.908 2.908 0 1.606-1.302 2.908-2.908 2.908"/><path fill="none" stroke="#231f20" d="M35.9934 21.8383c-1.606 0-2.908-1.302-2.908-2.908 0-1.606 1.302-2.908 2.908-2.908 1.606 0 2.908 1.302 2.908 2.908 0 1.606-1.302 2.908-2.908 2.908Zm-9.4399 36.9345v6.501l5.63 3.25v6.501"/><path fill="#fff" fill-rule="nonzero" d="M26.5535 61.6805c-1.606 0-2.908-1.302-2.908-2.908 0-1.606 1.302-2.908 2.908-2.908 1.606 0 2.908 1.302 2.908 2.908 0 1.606-1.302 2.908-2.908 2.908"/><path fill="none" stroke="#231f20" d="M26.5535 61.6805c-1.606 0-2.908-1.302-2.908-2.908 0-1.606 1.302-2.908 2.908-2.908 1.606 0 2.908 1.302 2.908 2.908 0 1.606-1.302 2.908-2.908 2.908Zm18.8797-2.9077v6.501l-5.63 3.25v6.501"/><path fill="#fff" fill-rule="nonzero" d="M45.4332 61.6805c1.606 0 2.908-1.302 2.908-2.908 0-1.606-1.302-2.908-2.908-2.908-1.606 0-2.908 1.302-2.908 2.908 0 1.606 1.302 2.908 2.908 2.908"/><path fill="none" stroke="#231f20" d="M45.4332 61.6805c1.606 0 2.908-1.302 2.908-2.908 0-1.606-1.302-2.908-2.908-2.908-1.606 0-2.908 1.302-2.908 2.908 0 1.606 1.302 2.908 2.908 2.908zm-9.4398 23.2608v-22.872"/><path fill="#fff" fill-rule="nonzero" d="M35.9934 59.1618c1.606 0 2.908 1.302 2.908 2.908 0 1.606-1.302 2.908-2.908 2.908-1.606 0-2.908-1.302-2.908-2.908 0-1.606 1.302-2.908 2.908-2.908"/><circle cy="-2.908" r="2.908" fill="none" stroke="#231f20" transform="matrix(-1 0 0 1 35.9934 64.9778)"/><path fill="none" stroke="#231f20" d="M17.8733 35.7801h-6.501l-3.25 5.63h-6.501"/><path fill="#fff" fill-rule="nonzero" d="M12.9655 35.7801c0-1.606 1.302-2.908 2.908-2.908 1.606 0 2.908 1.302 2.908 2.908 0 1.606-1.302 2.908-2.908 2.908-1.606 0-2.908-1.302-2.908-2.908"/><circle cx="2.908" r="2.908" fill="none" stroke="#231f20" transform="matrix(0 1 1 0 15.8735 32.8721)"/><path fill="none" stroke="#231f20" d="M-10.2952 45.2199h22.872"/><path fill="#fff" fill-rule="nonzero" d="M15.4843 45.2199c0-1.606-1.302-2.908-2.908-2.908-1.606 0-2.908 1.302-2.908 2.908 0 1.606 1.302 2.908 2.908 2.908 1.606 0 2.908-1.302 2.908-2.908"/><circle cx="-2.908" r="2.908" fill="none" stroke="#231f20" transform="matrix(0 -1 -1 0 12.5763 42.3119)"/><path fill="none" stroke="#231f20" d="M54.2572 35.7801h6.501l3.25 5.63h6.501"/><path fill="#fff" fill-rule="nonzero" d="M59.165 35.7801c0-1.606-1.302-2.908-2.908-2.908-1.606 0-2.908 1.302-2.908 2.908 0 1.606 1.302 2.908 2.908 2.908 1.606 0 2.908-1.302 2.908-2.908"/><circle cx="-2.908" r="2.908" fill="none" stroke="#231f20" transform="matrix(0 -1 -1 0 56.257 32.8721)"/><path fill="none" stroke="#231f20" d="M82.4257 45.2199h-22.872"/><path fill="#fff" fill-rule="nonzero" d="M56.6462 45.2199c0-1.606 1.302-2.908 2.908-2.908 1.606 0 2.908 1.302 2.908 2.908 0 1.606-1.302 2.908-2.908 2.908-1.606 0-2.908-1.302-2.908-2.908"/><circle cx="2.908" r="2.908" fill="none" stroke="#231f20" transform="matrix(0 1 1 0 59.5542 42.3119)"/><path fill="#fff" fill-rule="nonzero" d="M37.1453 45.5814c-2.806.7-5.648-1.008-6.348-3.814-.7-2.807 1.008-5.649 3.814-6.348 2.807-.7 5.649 1.008 6.348 3.814.7 2.806-1.008 5.648-3.814 6.348m6.253 1.853c.749-1.296 1.498-2.592 2.246-3.888l2.899-.351c.047-.222.089-.45.125-.684.273-1.753.148-3.356-.125-4.71l-2.902-.351c-.747-1.296-1.495-2.592-2.243-3.888l1.146-2.683c-1.557-.898-3.115-1.796-4.672-2.694l-1.754 2.333h-4.485l-1.753-2.333c-1.556.898-3.112 1.796-4.669 2.694l1.143 2.683c-.748 1.296-1.495 2.592-2.243 3.888l-2.899.351v5.394l2.895.351c.749 1.296 1.498 2.592 2.246 3.888l-1.142 2.683c1.556.899 3.111 1.799 4.666 2.698l1.756-2.337h4.485l1.757 2.337c1.556-.899 3.113-1.799 4.669-2.698z"/><path fill="none" stroke="#231f20" stroke-width="2" d="M37.1453 45.5814c-2.806.7-5.648-1.008-6.348-3.814-.7-2.807 1.008-5.649 3.814-6.348 2.807-.7 5.649 1.008 6.348 3.814.7 2.806-1.008 5.648-3.814 6.348Zm6.253 1.853c.749-1.296 1.498-2.592 2.246-3.888l2.899-.351c.047-.222.089-.45.125-.684.273-1.753.148-3.356-.125-4.71l-2.902-.351c-.747-1.296-1.495-2.592-2.243-3.888l1.146-2.683c-1.557-.898-3.115-1.796-4.672-2.694l-1.754 2.333h-4.485l-1.753-2.333c-1.556.898-3.112 1.796-4.669 2.694l1.143 2.683c-.748 1.296-1.495 2.592-2.243 3.888l-2.899.351v5.394l2.895.351c.749 1.296 1.498 2.592 2.246 3.888l-1.142 2.683c1.556.899 3.111 1.799 4.666 2.698l1.756-2.337h4.485l1.757 2.337c1.556-.899 3.113-1.799 4.669-2.698z"/></g></g><path fill="none" stroke="#231f20" stroke-width="2" d="m32.177 73.1546997 31.177-18v-36l-31.177-18-31.177 18v36z"/></svg>