<svg viewBox="0 0 301 338" xmlns="http://www.w3.org/2000/svg" fill-rule="evenodd" clip-rule="evenodd" stroke-miterlimit="10"><g transform="translate(.5 .12) scale(4.16667)"><path fill="none" d="M0 0h72v81H0z"/><clipPath id="prefix__a"><path d="M0 0h72v81H0z"/></clipPath><g clip-path="url(#prefix__a)"><clipPath id="prefix__b"><path d="M4.823 22.5v36L36 76.5l31.177-18v-36L36 4.5l-31.177 18z" clip-rule="nonzero"/></clipPath><g clip-path="url(#prefix__b)"><path d="M67.177 58.5v-36L36 4.5l-31.177 18v36L36 76.5l31.177-18z" fill="#7f5a90" fill-rule="nonzero" opacity=".3"/><path d="M54.974 34.334l-4.41-7.643 2.252-5.277a25.297 25.297 0 00-1.042-.886c-2.716-2.186-5.567-3.55-8.14-4.415l-3.448 4.595-8.82-.004-3.44-4.586-9.177 5.305 2.248 5.276-4.407 7.632-5.693.692-.003 10.593 5.69.693 4.412 7.636-2.25 5.278 9.18 5.301 3.441-4.583 8.824-.002 3.445 4.58 9.174-5.29-2.25-5.285c1.47-2.544 2.938-5.088 4.407-7.633l5.702-.694-.003-10.596-5.692-.687z" fill="#fff" fill-rule="nonzero" stroke="#231f20"/><path d="M60.162 91.608l2.613-4.533H68l1.567.002 4.421 7.657a13.567 13.567 0 00.546-14.447 13.571 13.571 0 00-12.784-6.75L47.1 48.165c2.85-4.172 3.242-9.78.547-14.447a13.561 13.561 0 00-12.785-6.75l4.42 7.656-.78 1.35-2.613 4.532-5.224-.001-1.567-.001-4.42-7.656a13.567 13.567 0 00-.547 14.447s1.025 1.775 2.53 3.175c3.693 3.434 9.382 3.565 10.254 3.575l14.65 25.372c-.433.767-3.16 5.75-2.032 10.668.46 2.003 1.485 3.779 1.485 3.779a13.559 13.559 0 0012.784 6.75l-4.42-7.657.78-1.35z" fill="#fff" fill-rule="nonzero" stroke="#231f20" stroke-width="2"/></g><g><path d="M67.177 58.5v-36L36 4.5l-31.177 18v36L36 76.5l31.177-18z" fill="none" stroke="#231f20" stroke-width="2"/></g></g></g></svg>