<svg xmlns="http://www.w3.org/2000/svg" xmlns:svg="http://www.w3.org/2000/svg" fill-rule="evenodd" stroke-miterlimit="10" clip-rule="evenodd" viewBox="0 0 64.353996 74.309402" xml:space="preserve"><g transform="translate(-3.8229 -3.3453003)"><clipPath id="a"><path d="M4.823 22.5v36L36 76.5l31.177-18v-36L36 4.5Z" clip-rule="nonzero"/></clipPath><g clip-path="url(#a)"><path fill="#3f7faa" fill-rule="nonzero" d="M67.1769 58.5v-36l-31.177-18-31.177 18v36l31.177 18z" opacity=".3"/><path fill="#fff" fill-rule="nonzero" stroke="#231f20" stroke-width="2" d="m103.317 33.048-4.404-5.683-35.605 12.967c-6.19 2.255-13.032 1.88-18.939-1.036.259-10.316 11.058-7.603 11.058-7.603s-.191-4.3-4.299-4.3c-4.108 0-4.658-3.726-4.658-3.726H31.735l-4.853 15.615c-5.921 2.923-12.78 3.299-18.985 1.04-11.918-4.337-23.836-8.675-35.754-13.012-1.469 1.894-2.938 3.789-4.407 5.683 0 0 14.646 25.234 45.479 31.683 7.456 1.56 12.362 8.564 11.826 16.162-.004.056-.008.113-.012.17-1.287 18.958 6.203 33.763 10.474 40.816 4.273-7.002 11.833-21.793 10.561-40.761-.004-.057-.008-.113-.012-.17-.53-7.601 4.379-14.603 11.836-16.166 30.798-6.455 45.429-31.679 45.429-31.679Z"/><path fill="#231f20" fill-rule="nonzero" d="m4.5925 43.0084 21.083 8.69-21.763-6.809Zm-.0353 4.6753 17.119 8.435-17.729-7.064Zm-.2886 3.9061 13.173 8.183-13.673-7.317Zm63.2485-6.7007-21.764 6.81 21.084-8.691Zm-.0354 4.1651-17.728 7.065 17.118-8.436Zm-.0548 3.9026-13.673 7.317 13.173-8.183Z"/><path fill="#3f7faa" fill-rule="nonzero" d="M45.1707 27.4008c0 1.037-.841 1.878-1.878 1.878-1.038 0-1.879-.841-1.879-1.878Z" opacity=".3"/><path fill="none" stroke="#231f20" d="M45.1707 27.4008c0 1.037-.841 1.878-1.878 1.878-1.038 0-1.879-.841-1.879-1.878Z"/></g></g><path fill="none" stroke="#231f20" stroke-width="2" d="M63.354 55.1546997v-36l-31.177-18-31.177 18v36l31.177 18z"/></svg>