<svg viewBox="0 0 301 338" xmlns="http://www.w3.org/2000/svg" fill-rule="evenodd" clip-rule="evenodd" stroke-miterlimit="10"><g transform="translate(.5 .12) scale(4.16667)"><path fill="none" d="M0 0h72v81H0z"/><clipPath id="prefix__a"><path d="M0 0h72v81H0z"/></clipPath><g clip-path="url(#prefix__a)"><clipPath id="prefix__b"><path d="M4.823 22.5v36L36 76.5l31.177-18v-36L36 4.5l-31.177 18z" clip-rule="nonzero"/></clipPath><g clip-path="url(#prefix__b)"><path d="M67.177 58.5v-36L36 4.5l-31.177 18v36L36 76.5l31.177-18z" fill="#7f5a90" fill-rule="nonzero" opacity=".3"/></g><path d="M12.49 26.891v13.574h47.02V26.891L36 13.317 12.49 26.891z" fill="#fff" fill-rule="nonzero"/><clipPath id="prefix__c"><path d="M4.823 22.5v36L36 76.5l31.177-18v-36L36 4.5l-31.177 18z" clip-rule="nonzero"/></clipPath><g clip-path="url(#prefix__c)"><path d="M59.51 40.465V26.89L36 13.317 12.49 26.89v13.574h47.02z" fill="none" stroke="#231f20"/><path d="M19.923 39.965v-8.782L36 21.9l16.076 9.282v8.782H19.923z" fill="#7f5a90" fill-rule="nonzero" opacity=".4"/></g><path d="M19.423 30.894v9.571h33.154v-9.57L36 21.322l-16.577 9.571zm1 .577L36 22.478l15.576 8.993v7.994H20.424v-7.994z" fill="#231f20" fill-rule="nonzero"/><path d="M15.733 48.684h11.344L21.383 68.06 36 76.5l14.618-8.44-5.694-19.376h11.343L36 35.264l-20.267 13.42z" fill="#fff" fill-rule="nonzero"/><g transform="translate(56.267 88.987)"><clipPath id="prefix__d"><path d="M-51.444-66.487v36l31.177 18 31.177-18v-36l-31.177-18-31.177 18z" clip-rule="nonzero"/></clipPath><g clip-path="url(#prefix__d)"><path d="M0-40.303l-20.267-13.42-20.267 13.42h11.343L-44.978 13.42H4.443l-15.787-53.723H0z" fill="none" stroke="#231f20" stroke-width="2"/></g></g><g><path d="M67.177 58.5v-36L36 4.5l-31.177 18v36L36 76.5l31.177-18z" fill="none" stroke="#231f20" stroke-width="2"/></g></g></g></svg>