<svg xmlns="http://www.w3.org/2000/svg" xmlns:svg="http://www.w3.org/2000/svg" fill-rule="evenodd" stroke-linecap="round" stroke-linejoin="round" stroke-miterlimit="10" clip-rule="evenodd" viewBox="0 0 64.351997 74.155182" xml:space="preserve"><path fill="#495790" fill-rule="nonzero" d="M63.3505 55.191984v-35.924l-31.176-17.961-31.176 17.961v35.924l31.176 17.962z" opacity=".3"/><path fill-rule="nonzero" d="M14.786 34.624784v5.908h2.43l1.82 3.173h14.269l2.581-2.575h4.609l1.43 1.428v-7.934z"/><path fill="none" stroke="#000" d="M41.9253 34.624984v7.933l-1.43-1.427h-4.61l-2.58 2.575h-14.269l-1.82-3.174h-2.43v-5.907z"/><path fill="#fff" fill-rule="nonzero" d="m47.1554 32.898584-2.29 1.726h-2.94v7.934l1.28-.349h8.36l5.199-2.346v-4.62l-5.199-2.345Z"/><path fill="none" stroke="#000" d="M56.7649 35.243684v4.62l-5.2 2.345h-8.36l-1.28.349v-7.933h2.94l2.29-1.726h4.41zm-5.2026-2.346v9.314"/><path fill="none" stroke="#000" stroke-width=".5" d="M50.2901 32.897684v9.314"/><g transform="translate(-3.8242 -3.346216)"><clipPath id="a"><path d="M4.824 22.462v35.924L36 76.347l31.176-17.961V22.462L36 4.5Z" clip-rule="nonzero"/></clipPath><g clip-path="url(#a)"><path fill="#fff" fill-rule="nonzero" d="M36.1934 43.6846c-1.714 0-3.108-1.394-3.108-3.108 0-1.714 1.394-3.108 3.108-3.108h8.533v6.216z"/><path fill-rule="nonzero" d="M45.2267 36.9683h-9.033c-1.99 0-3.608 1.619-3.608 3.608 0 1.99 1.618 3.608 3.608 3.608h9.033Zm-1 1v5.216h-8.033c-1.441 0-2.608-1.167-2.608-2.608 0-1.44 1.167-2.608 2.608-2.608h8.033"/><path fill="#fff" fill-rule="nonzero" stroke="#000" stroke-width="2" d="m44.9417 34.1629 2.405-2.163c.172-.155.397-.241.629-.241h3.293c.575 0 1.015.507.931 1.074-.262 1.777-1.185 5.135-4.419 5.135h-12.467c-.519 0-.94-.42-.94-.938v-.546c0-.291.135-.565.366-.743l1.582-1.217c.167-.129.372-.198.584-.195l7.397.075c.236.003.464-.083.639-.241Z"/><path fill="#fff" fill-rule="nonzero" d="M35.1965 35.6224c-2.403-2.156-2.281-5.375-2.268-6.127-.308-2.675-.881-3.387-1.383-3.491-.614-.129-1.129.652-2.295 1.559-1.377 1.071-2.771 1.625-3.803 1.932h-10.082c-2.184 0-3.955 1.767-3.955 3.947v8.666c0 2.18 1.771 3.947 3.955 3.947h2.079c.078-.248.169-.487.272-.718 2.934-6.563 15.869-6.709 20.965-6.569v-1.49c-.733-.126-2.182-.485-3.485-1.656"/><path fill="none" stroke="#000" stroke-width="2" d="M35.1965 35.6224c-2.403-2.156-2.281-5.375-2.268-6.127-.308-2.675-.881-3.387-1.383-3.491-.614-.129-1.129.652-2.295 1.559-1.377 1.071-2.771 1.625-3.803 1.932h-10.082c-2.184 0-3.955 1.767-3.955 3.947v8.666c0 2.18 1.771 3.947 3.955 3.947h2.079c.078-.248.169-.487.272-.718 2.934-6.563 15.869-6.709 20.965-6.569v-1.49c-.733-.126-2.182-.485-3.485-1.656Z"/><path fill="none" stroke="#000" d="M30.066 32.0482h2.157l4.273-3.353"/><path fill="none" stroke="#000" stroke-width="2" d="m36.49698348 28.6946965 2.18433354 1.44855855"/><path fill="none" stroke="#000" stroke-width=".5" d="m60.5862 41.2468-5.2 1.415v-3.521l5.2 1.414m-17.7286-2.5865v5.216m4.1763 2.3739v-7.59m-14.2563-5.92h-15.671c-1.294 0-2.343 1.057-2.343 2.36v7.11c0 1.304 1.049 2.36 2.343 2.36h3.892"/><path fill="none" stroke="#000" d="m19.02083619 33.99834227-1.22059095 2.10929417m3.22049095-2.10929417-1.22059095 2.10929417m3.22059095-2.10929417-1.22059095 2.10929417"/><path fill="none" stroke="#000" stroke-dasharray="32 4 8 4 2" stroke-width="2" d="M11.4109 53.8645h49.175"/></g></g><path fill="none" stroke="#000" stroke-linecap="butt" stroke-linejoin="miter" stroke-width="2" d="M63.352 55.039084v-35.924l-31.176-17.961L1 19.115084v35.924l31.176 17.962z"/></svg>