<svg xmlns="http://www.w3.org/2000/svg" xmlns:svg="http://www.w3.org/2000/svg" fill-rule="evenodd" stroke-miterlimit="10" clip-rule="evenodd" viewBox="0 0 64.448097 74.309402" xml:space="preserve"><path fill="#9aa3ad" fill-rule="nonzero" d="M63.354 55.1546997v-36l-31.177-18-31.177 18v36l31.177 18z"/><path fill="none" stroke="#231f20" stroke-width="2" d="M63.4481 55.1546997v-36l-31.177-18-31.177 18v36l31.177 18z"/><path fill="none" stroke="#231f20" stroke-width="2" d="M63.354 55.1546997v-36l-31.177-18-31.177 18v36l31.177 18z"/><path fill="#231f20" fill-rule="nonzero" d="m44.0411 14.1105997-3.35 9.88.087-.457.279 5.919.017.352-.208.285-2.883 3.946-1.615-1.18 2.883-3.946-.191.637-.28-5.919-.013-.282.1-.175zm-23.4528 0 5.174 9.06.1.175-.013.282-.28 5.919-.191-.637 2.883 3.946-1.615 1.18-2.883-3.946-.208-.285.017-.352.279-5.919.087.457zm23.4528 46.0023-3.938-9.372-.045-.106v-5.911l.288.701-3.884-3.945 1.426-1.403 3.883 3.946.287.292v6.131l-.044-.295zm-23.4528 0 2.028-9.845-.045.298v-6.251l.287-.292 3.883-3.946 1.426 1.403-3.884 3.945.288-.701v6.034l-.046.107z"/><path fill="#231f20" fill-rule="nonzero" d="m37.7861 36.5994997 7.365 5.682.332.256.05.416.763 6.313-.342-.64 5.9 6.363-7.2-4.843-.289-.194-.054-.446-.764-6.313.382.672-7.365-5.682z"/><path fill="#fff" fill-rule="nonzero" stroke="#231f20" stroke-width="2" d="M37.1752 49.5269997v-20.529l-4.861-2.806-4.86 2.806v20.529l4.86 2.806z"/><path fill="#231f20" fill-rule="nonzero" d="m28.065 38.1829997-7.365 5.682.382-.672-.764 6.314-.053.445-.289.195-7.2 4.843 5.9-6.363-.343.64.763-6.314.051-.416.331-.256 7.365-5.682z"/><path fill="none" stroke="#231f20" stroke-linecap="round" stroke-linejoin="round" d="M32.3147 52.3329997v-14.916"/><path fill="none" stroke="#231f20" d="M37.1752 34.6107997v-5.612l-4.861-2.807-4.86 2.807v5.612l4.86 2.806z"/></svg>