<svg viewBox="0 0 300 339" xmlns="http://www.w3.org/2000/svg" fill-rule="evenodd" clip-rule="evenodd" stroke-miterlimit="10"><g transform="translate(0 .81) scale(4.16667)"><path fill="none" d="M0 0h72v81H0z"/><clipPath id="prefix__a"><path d="M0 0h72v81H0z"/></clipPath><g clip-path="url(#prefix__a)"><path d="M51.54 10.93H20.46c-.948 0-1.825.506-2.299 1.328L2.621 39.173a2.656 2.656 0 000 2.655l15.54 26.915a2.654 2.654 0 002.3 1.328h31.078c.95 0 1.825-.506 2.3-1.328l15.54-26.915a2.656 2.656 0 000-2.655l-15.54-26.915a2.656 2.656 0 00-2.3-1.328z" fill="#231f20" fill-rule="nonzero" stroke="#fff" stroke-width="1.5"/><path d="M26.187 20.157v4.312M38.285 20.157v4.312" fill="none" stroke="#fff" stroke-width="1.5" stroke-linecap="round" stroke-linejoin="round"/><ellipse cx="-3.45" rx="3.449" ry="3.45" fill="none" stroke="#fff" stroke-width="1.5" stroke-linecap="round" stroke-linejoin="round" transform="matrix(0 -1 -1 0 50.241 41.14)"/><path d="M49.445 52.905a8.69 8.69 0 01-17.38 0M32.065 45.948v6.956M49.445 48.04v4.865M25.897 22.313c-.733.042-2.514.25-3.866 1.601-.857.857-1.38 2.012-1.601 3.867-.077.626-1.358 12.737 6.602 16.897.99.519 2.654 1.189 5.033 1.27M38.576 22.313c.733.042 2.514.25 3.866 1.601.857.857 1.38 2.012 1.601 3.867.077.626 1.358 12.737-6.602 16.897-.99.519-2.654 1.189-5.033 1.27" fill="none" stroke="#fff" stroke-width="1.5" stroke-linecap="round" stroke-linejoin="round"/></g></g></svg>