<svg xmlns="http://www.w3.org/2000/svg" xmlns:svg="http://www.w3.org/2000/svg" fill-rule="evenodd" stroke-miterlimit="10" clip-rule="evenodd" viewBox="0 0 68.967117 60.640999" xml:space="preserve"><path fill="#231f20" fill-rule="nonzero" stroke="#fff" stroke-width="1.5" d="M50.023059.75h-31.079c-.948 0-1.825.506-2.299 1.328l-15.54 26.915c-.474.821-.474 1.833 0 2.655l15.54 26.915c.474.822 1.351 1.328 2.299 1.328h31.079c.949 0 1.825-.506 2.3-1.328l15.539-26.915c.474-.822.474-1.834 0-2.655l-15.539-26.915c-.475-.822-1.351-1.328-2.3-1.328Z"/><path fill="none" stroke="#fff" stroke-linecap="round" stroke-linejoin="round" stroke-width="1.5" d="m48.512359 15.6779-2.66 2.65c-.06-.09-.13-.17-.21-.25l-1.9-1.9c-.08-.08-.16-.15-.25-.21l2.65-2.66c.33-.32.75-.49 1.18-.49.43 0 .86.17 1.19.49.65.66.65 1.72 0 2.37z"/><path fill="none" stroke="#fff" stroke-linecap="round" stroke-linejoin="round" stroke-width="1.5" d="m45.642359 20.9079-2.87 2.87c-.56-.4-1.24-.64-1.98-.64-1.9 0-3.44 1.54-3.44 3.43 0 .74.23 1.43.64 1.99l-4.03 4.03c-.78.78-2.05.78-2.83 0l-1.9-1.9c-.78-.78-.78-2.05 0-2.83l11.68-11.68c.7-.7 1.79-.77 2.58-.21.09.06.17.13.25.21l1.9 1.9c.08.08.15.16.21.25.56.78.49 1.88-.21 2.58zm1.71 21.45h-3.51c.08-1.86-.03-4.21-.67-6.84-.54-2.22-1.32-4.07-2.08-5.53 1.17-.1 2.17-.79 2.71-1.77.87 1.42 1.77 3.21 2.46 5.37 1.08 3.42 1.22 6.49 1.09 8.77zm3.67 2v1.51c0 1.11-.9 2-2 2h-29.08c-1.1 0-2-.89-2-2v-1.51c0-1.11.9-2 2-2h29.08c1.1 0 2 .89 2 2zm-16.73-4.01v2.01h-11.97v-2.01c0-1.11.89-2 2-2h7.97c1.1 0 2 .89 2 2z"/><path fill="none" stroke="#fff" stroke-linecap="round" stroke-linejoin="round" stroke-width="1.5" d="M44.222359 26.5679c0 .59-.15 1.15-.42 1.64v.01c-.54.98-1.54 1.67-2.71 1.77-.1.02-.2.02-.3.02-1.16 0-2.18-.57-2.8-1.45-.41-.56-.64-1.25-.64-1.99 0-1.89 1.54-3.43 3.44-3.43.74 0 1.42.24 1.98.64.88.62 1.45 1.64 1.45 2.79z"/></svg>