<svg viewBox="0 0 300 339" xmlns="http://www.w3.org/2000/svg" fill-rule="evenodd" clip-rule="evenodd" stroke-miterlimit="10"><g transform="translate(0 .81) scale(4.16667)"><path fill="none" d="M0 0h72v81H0z"/><clipPath id="prefix__a"><path d="M0 0h72v81H0z"/></clipPath><g clip-path="url(#prefix__a)"><path d="M67.13 58.5v-36l-31.177-18-31.177 18v36l31.177 18 31.177-18z" fill="#9aa3ad" fill-rule="nonzero"/><path d="M67.224 58.5v-36l-31.177-18-31.177 18v36l31.177 18 31.177-18z" fill="none" stroke="#231f20" stroke-width="2"/><path d="M67.13 58.5v-36l-31.177-18-31.177 18v36l31.177 18 31.177-18z" fill="none" stroke="#231f20" stroke-width="2"/><path d="M47.817 17.456l-3.35 9.88.087-.457.279 5.919.017.352-.208.285-2.883 3.946-1.615-1.18 2.883-3.946-.191.637-.28-5.92-.013-.281.1-.175 5.174-9.06zM24.364 17.456l5.174 9.06.1.175-.013.282-.28 5.919-.19-.637 2.882 3.946-1.615 1.18-2.883-3.946-.208-.285.017-.352.28-5.92.086.458-3.35-9.88zM47.817 63.458l-3.938-9.372-.045-.106v-5.91l.288.7-3.884-3.945 1.426-1.403 3.883 3.946.287.292v6.131l-.044-.295 2.027 9.962zM24.364 63.458l2.028-9.845-.045.298v-6.25l.287-.293 3.883-3.946 1.426 1.403-3.884 3.945.288-.7v6.033l-.046.107-3.937 9.248z" fill="#231f20" fill-rule="nonzero"/><path d="M41.562 39.945l7.365 5.682.332.256.05.416.763 6.313-.342-.64 5.9 6.363-7.2-4.843-.289-.194-.054-.446-.764-6.313.382.672-7.365-5.682 1.222-1.584z" fill="#231f20" fill-rule="nonzero"/><path d="M40.951 52.872V32.343l-4.86-2.806-4.86 2.806v20.53l4.86 2.805 4.86-2.806z" fill="#fff" fill-rule="nonzero" stroke="#231f20" stroke-width="2"/><path d="M31.84 41.528l-7.364 5.682.382-.672-.764 6.314-.053.445-.29.195-7.2 4.843 5.9-6.363-.342.64.763-6.314.05-.416.332-.256 7.365-5.682 1.222 1.584z" fill="#231f20" fill-rule="nonzero"/><path d="M36.09 55.678V40.762" fill="none" stroke="#231f20" stroke-linecap="round" stroke-linejoin="round"/><path d="M40.951 37.956v-5.612l-4.86-2.807-4.86 2.807v5.612l4.86 2.806 4.86-2.806z" fill="none" stroke="#231f20"/></g></g></svg>