<svg xmlns="http://www.w3.org/2000/svg" xmlns:svg="http://www.w3.org/2000/svg" fill-rule="evenodd" stroke-miterlimit="10" clip-rule="evenodd" viewBox="0 0 68.967117 60.640999" xml:space="preserve"><path fill="#231f20" fill-rule="nonzero" stroke="#fff" stroke-width="1.5" d="M50.023059.75h-31.079c-.948 0-1.825.506-2.299 1.328l-15.54 26.915c-.474.821-.474 1.833 0 2.655l15.54 26.915c.474.822 1.351 1.328 2.299 1.328h31.079c.949 0 1.825-.506 2.3-1.328l15.539-26.915c.474-.822.474-1.834 0-2.655l-15.539-26.915c-.475-.822-1.351-1.328-2.3-1.328Z"/><path fill="none" stroke="#fff" stroke-linecap="round" stroke-linejoin="round" stroke-width="1.5" d="m34.433159 50.6776.156.072c2.359-1.014 6.044-2.97 9.456-6.63 1.211-1.298 2.188-2.597 2.973-3.807.94-1.446 1.492-3.103 1.603-4.825.365-5.649.729-11.298 1.094-16.947.106-1.64-.797-3.173-2.282-3.878-1.532-.727-3.372-1.435-5.5-1.955-2.894-.707-5.435-.848-7.345-.811-1.936-.037-4.511.104-7.445.811-2.162.521-4.032 1.232-5.587 1.961-1.496.701-2.408 2.241-2.3 3.889.368 5.638.737 11.276 1.106 16.913.11 1.681.632 3.32 1.549 4.733 1.093 1.683 2.193 2.975 3.091 3.916 0 0 3.741 3.924 9.431 6.558z"/><path fill="none" stroke="#fff" stroke-linecap="round" stroke-linejoin="round" stroke-width="1.5" d="M28.880659 34.0013c1.047.605 2.094 1.21 3.142 1.815l.283 2.342h4.359l.283-2.345c1.047-.604 2.095-1.208 3.142-1.812l2.168.926c.726-1.259 1.451-2.517 2.177-3.776l-1.885-1.416v-3.624l1.885-1.417c-.726-1.258-1.451-2.515-2.177-3.773l-2.168.923c-1.047-.604-2.095-1.208-3.142-1.812l-.283-2.342h-4.359l-.283 2.339c-1.048.605-2.095 1.21-3.142 1.815l-2.168-.923c-.727 1.257-1.453 2.514-2.18 3.77l1.888 1.42v3.624l-1.888 1.419c.727 1.258 1.453 2.515 2.18 3.773z"/></svg>