<svg viewBox="0 0 300 339" xmlns="http://www.w3.org/2000/svg" fill-rule="evenodd" clip-rule="evenodd" stroke-miterlimit="10"><g transform="translate(0 .81) scale(4.16667)"><path fill="none" d="M0 0h72v81H0z"/><clipPath id="prefix__a"><path d="M0 0h72v81H0z"/></clipPath><g clip-path="url(#prefix__a)"><path d="M67.13 58.5v-36l-31.177-18-31.177 18v36l31.177 18 31.177-18z" fill="#9aa3ad" fill-rule="nonzero"/><path d="M24.97 27.083l-6.753 6.75v19.78h-1.572v4.432h9.898v-4.433H24.97V27.083zM31.336 19.154h1.573v34.459h-1.573v4.432h9.898v-4.432H39.66v-34.46h1.573v-4.431h-9.898v4.432zM54.519 53.613v-9.846l-6.753-6.754v16.6h-1.573v4.432h9.897v-4.432h-1.571z" fill="none" stroke="#231f20" stroke-width="3"/><path d="M67.224 58.5v-36l-31.177-18-31.177 18v36l31.177 18 31.177-18z" fill="none" stroke="#231f20" stroke-width="2"/><path d="M24.97 27.083v26.531h-6.753V33.832l6.753-6.749z" fill="#fff" fill-rule="nonzero" stroke="#231f20"/><path fill="#fff" stroke="#231f20" d="M26.543 53.613h-9.898v4.432h9.898zM39.661 19.154h-6.752v34.459h6.752zM41.233 53.613h-9.898v4.432h9.898zM41.233 14.722h-9.898v4.432h9.898z"/><path d="M54.519 43.766v9.848h-6.753v-16.6l6.753 6.752z" fill="#fff" fill-rule="nonzero" stroke="#231f20"/><path fill="#fff" stroke="#231f20" d="M56.09 53.613h-9.898v4.432h9.898z"/><path d="M54.608 43.855l-.089-.089.09.09z" fill="#fff" fill-rule="nonzero"/><path d="M54.607 43.855l-.088-.088M32.908 34.957l3.68-2.172 3.072-1.814M39.66 34.65v.308l-3.375-1.993" fill="none" stroke="#231f20"/><path d="M67.13 58.5v-36l-31.177-18-31.177 18v36l31.177 18 31.177-18z" fill="none" stroke="#231f20" stroke-width="2"/></g></g></svg>