<svg xmlns="http://www.w3.org/2000/svg" xmlns:svg="http://www.w3.org/2000/svg" fill-rule="evenodd" stroke-miterlimit="10" clip-rule="evenodd" viewBox="0 0 68.967117 60.640999" xml:space="preserve"><path fill="#231f20" fill-rule="nonzero" stroke="#fff" stroke-width="1.5" d="M50.023059.75h-31.079c-.948 0-1.825.506-2.299 1.328l-15.54 26.915c-.474.821-.474 1.833 0 2.655l15.54 26.915c.474.822 1.351 1.328 2.299 1.328h31.079c.949 0 1.825-.506 2.3-1.328l15.539-26.915c.474-.822.474-1.834 0-2.655l-15.539-26.915c-.475-.822-1.351-1.328-2.3-1.328Z"/><path fill="none" stroke="#fff" stroke-width="1.5" d="M44.091359 25.3463v-11.094l-9.608-5.547-9.607 5.547v11.094l9.607 5.547zm-9.6077-5.547 9.608-5.547Z"/><path fill="none" stroke="#fff" stroke-width="1.5" d="m24.875959 14.2523 9.608 5.547v11.094m-.0003 11.101v-11.094l-9.608-5.547-9.607 5.547v11.094l9.607 5.547zm-9.6077-5.5471 9.608-5.547Z"/><path fill="none" stroke="#fff" stroke-width="1.5" d="m15.268259 30.9002 9.608 5.547v11.094m28.8228-5.5469v-11.094l-9.608-5.547-9.607 5.547v11.094l9.607 5.547zm-9.6077-5.5471 9.608-5.547Z"/><path fill="none" stroke="#fff" stroke-width="1.5" d="m34.483659 30.9002 9.608 5.547v11.094"/></svg>