<svg xmlns="http://www.w3.org/2000/svg" xmlns:svg="http://www.w3.org/2000/svg" fill-rule="evenodd" stroke-miterlimit="10" clip-rule="evenodd" viewBox="0 0 68.967117 60.640999" xml:space="preserve"><path fill="#231f20" fill-rule="nonzero" stroke="#fff" stroke-width="1.5" d="M50.023059.75h-31.079c-.948 0-1.825.506-2.299 1.328l-15.54 26.915c-.474.821-.474 1.833 0 2.655l15.54 26.915c.474.822 1.351 1.328 2.299 1.328h31.079c.949 0 1.825-.506 2.3-1.328l15.539-26.915c.474-.822.474-1.834 0-2.655l-15.539-26.915c-.475-.822-1.351-1.328-2.3-1.328Z"/><circle cx="-2.335" cy="-.005" r="2.335" fill="none" stroke="#fff" stroke-linecap="round" stroke-linejoin="round" stroke-width="1.5" transform="matrix(0 -1 -1 0 46.498659 10.0703)"/><path fill="none" stroke="#fff" stroke-linecap="round" stroke-linejoin="round" stroke-width="1.5" d="M52.748659 18.6103v5.27c0 .81-.65 1.46-1.46 1.46-.81 0-1.46-.65-1.46-1.46v-1.07h-.01c0-1.86-1.51-3.36-3.36-3.36h-9.01c.05-.22.08-.46.08-.7 0-.76-.27-1.46-.75-1.99 0-.01 0-.01-.01-.02-.55-.63-1.35-1.03-2.24-1.04h-.01l-.04-.02h5.49c0 1.48 1.2 2.68 2.68 2.68 1.48 0 2.68-1.2 2.68-2.68h4.49c1.62 0 2.93 1.32 2.93 2.93z"/><path fill="none" stroke="#fff" stroke-linecap="round" stroke-linejoin="round" stroke-width="1.5" d="M49.828659 22.8103v12.28c0 .92-.75 1.66-1.66 1.66-.92 0-1.67-.74-1.67-1.66v-5.87c.17.75.84 1.31 1.64 1.31.93 0 1.68-.75 1.68-1.68v-6.03z"/><circle cx="-2.335" cy="-.005" r="2.335" fill="none" stroke="#fff" stroke-linecap="round" stroke-linejoin="round" stroke-width="1.5" transform="matrix(0 -1 -1 0 22.458659 10.0703)"/><path fill="none" stroke="#fff" stroke-linecap="round" stroke-linejoin="round" stroke-width="1.5" d="m34.478659 15.6803-.05.02c-.9.02-1.71.42-2.26 1.05-.46.53-.74 1.24-.74 2 0 .24.03.48.08.7h-9c-1.86 0-3.37 1.5-3.37 3.36v1.07c0 .81-.65 1.46-1.46 1.46-.81 0-1.46-.65-1.46-1.46v-5.26c0-1.62 1.31-2.94 2.93-2.94h4.48c0 1.48 1.2 2.68 2.68 2.68 1.48 0 2.68-1.2 2.68-2.68zm-12.01 13.51v5.9c0 .92-.75 1.66-1.66 1.66-.92 0-1.67-.74-1.67-1.66v-6.24c0 .93.75 1.68 1.68 1.68.81 0 1.49-.57 1.65-1.34z"/><ellipse cx="-2.3299999" cy="-.005" fill="none" stroke="#fff" stroke-linecap="round" stroke-linejoin="round" stroke-width="1.5" rx="2.335" ry="2.3299999" transform="matrix(0 -1 -1 0 34.473659 10.0753)"/><path fill="none" stroke="#fff" stroke-linecap="round" stroke-linejoin="round" stroke-width="1.5" d="M38.828659 33.7503v-6.2m-8.7 6.2v-6.2m4.35 20.85v-10.46m3.05-19.19c0 .24-.03.48-.08.7-.32 1.35-1.53 2.35-2.97 2.35-1.45 0-2.65-1-2.97-2.35-.05-.22-.08-.46-.08-.7 0-.76.28-1.47.74-2 .55-.63 1.36-1.03 2.26-1.05h.1c.89.01 1.69.41 2.24 1.04.01.01.01.01.01.02.48.53.75 1.23.75 1.99Zm1.3 15v-6.2m-8.7 6.2v-6.2m4.35 20.85v-10.46"/><circle cx="-2.6800001" r="2.6800001" fill="none" stroke="#fff" stroke-linecap="round" stroke-linejoin="round" stroke-width="1.5" transform="matrix(0 -1 -1 0 42.648659 13.0003)"/><path fill="none" stroke="#fff" stroke-linecap="round" stroke-linejoin="round" stroke-width="1.5" d="M46.458659 19.4503h-9.01c-.32 1.35-1.53 2.35-2.97 2.35-1.45 0-2.65-1-2.97-2.35h-9c-1.86 0-3.37 1.5-3.37 3.36v6.04c0 .93.75 1.68 1.68 1.68.81 0 1.49-.57 1.65-1.34.02-.11.03-.22.03-.34v12.86c0 .52.21 1 .56 1.35.34.35.81.56 1.34.56 1.06 0 1.91-.86 1.91-1.91v-14.84c0-2.12 1.72-3.83 3.83-3.83h8.68c2.11 0 3.83 1.71 3.83 3.82v14.85c0 1.05.85 1.91 1.9 1.91.53 0 1.01-.21 1.35-.56.35-.35.56-.83.56-1.35v-12.86c0 .13.01.25.04.37.17.75.84 1.31 1.64 1.31.93 0 1.68-.75 1.68-1.68v-6.04c0-1.86-1.51-3.36-3.36-3.36zm0 9.4v-5.44"/><path fill="none" stroke="#fff" stroke-linecap="round" stroke-linejoin="round" stroke-width="1.5" d="M42.648659 33.7503v7.96c0 1.05-.86 1.91-1.91 1.91-.53 0-1-.21-1.35-.56-.34-.35-.56-.83-.56-1.35v-7.96c0 .52.21 1 .56 1.35.34.35.82.56 1.35.56 1.05 0 1.91-.86 1.91-1.91zm-3.82 0v-4.9"/><circle cx="-2.6800001" r="2.6800001" fill="none" stroke="#fff" stroke-linecap="round" stroke-linejoin="round" stroke-width="1.5" transform="matrix(0 -1 -1 0 26.308659 13.0003)"/><path fill="none" stroke="#fff" stroke-linecap="round" stroke-linejoin="round" stroke-width="1.5" d="M42.648659 26.8603v6.89c0 1.05-.86 1.91-1.91 1.91-.53 0-1.01-.21-1.35-.56-.35-.35-.56-.83-.56-1.35v14.65c0 .6-.24 1.14-.64 1.53-.4.4-.94.64-1.54.64-1.2 0-2.17-.97-2.17-2.17 0 1.2-.97 2.17-2.17 2.17-.6 0-1.14-.24-1.54-.64-.4-.39-.64-.93-.64-1.53v-14.65c0 .52-.21 1-.56 1.35-.34.35-.82.56-1.35.56-1.05 0-1.91-.86-1.91-1.91v-6.88c0-2.12 1.72-3.83 3.83-3.83h8.68c2.11 0 3.83 1.71 3.83 3.82z"/><path fill="none" stroke="#fff" stroke-linecap="round" stroke-linejoin="round" stroke-width="1.5" d="M30.128659 33.7503v7.96c0 .52-.22 1-.56 1.35-.35.35-.82.56-1.35.56-1.05 0-1.91-.86-1.91-1.91v-7.96c0 1.05.86 1.91 1.91 1.91.53 0 1.01-.21 1.35-.56.35-.35.56-.83.56-1.35Zm0 0v-4.9m-7.63 0v-5.44"/></svg>