<svg xmlns="http://www.w3.org/2000/svg" xmlns:svg="http://www.w3.org/2000/svg" fill-rule="evenodd" stroke-miterlimit="10" clip-rule="evenodd" viewBox="0 0 64.448097 74.309402" xml:space="preserve"><path fill="#9aa3ad" fill-rule="nonzero" d="M63.354 55.1546997v-36l-31.177-18-31.177 18v36l31.177 18z"/><path fill="none" stroke="#231f20" stroke-width="3" d="m21.194 23.7381997-6.753 6.749v19.78h-1.572v4.433h9.898v-4.433h-1.573Zm6.3659-7.9296h1.573v34.459h-1.573v4.432h9.898v-4.432h-1.573v-34.459h1.573v-4.432h-9.898Zm23.1832 34.4587v-9.846l-6.753-6.754v16.6h-1.573v4.432h9.897v-4.432z"/><path fill="none" stroke="#231f20" stroke-width="2" d="M63.4481 55.1546997v-36l-31.177-18-31.177 18v36l31.177 18z"/><path fill="#fff" fill-rule="nonzero" stroke="#231f20" d="M21.1939 23.7381997v26.531h-6.753v-19.782Z"/><path fill="#fff" stroke="#231f20" d="M22.7671 50.2676997h-9.8979998v4.4320002H22.7671zm13.118-34.459001h-6.7519999v34.459H35.8851zm1.572001 34.459001h-9.8979998v4.4320002h9.8979998z"/><path fill="#fff" stroke="#231f20" d="M37.457101 11.3767007h-9.8979998v4.4320002h9.8979998z"/><path fill="#fff" fill-rule="nonzero" stroke="#231f20" d="M50.7431 40.4207997v9.848h-6.753v-16.601Z"/><path fill="#fff" stroke="#231f20" d="M52.314099 50.2676997h-9.8979998v4.4320002h9.8979998z"/><path fill="#fff" fill-rule="nonzero" d="m50.8325 40.5098997-.089-.089Z"/><path fill="none" stroke="#231f20" d="m50.83154063 40.51007996-.08838837-.08838837M29.1326 31.6118997l3.68-2.172 3.072-1.814"/><path fill="none" stroke="#231f20" d="M35.8846 31.3052997v.307l-3.376-1.993"/><path fill="none" stroke="#231f20" stroke-width="2" d="M63.354 55.1546997v-36l-31.177-18-31.177 18v36l31.177 18z"/></svg>