<svg viewBox="0 0 301 338" xmlns="http://www.w3.org/2000/svg" fill-rule="evenodd" clip-rule="evenodd" stroke-miterlimit="10"><g transform="translate(.5 .12) scale(4.16667)"><path fill="none" d="M0 0h72v81H0z"/><clipPath id="prefix__a"><path d="M0 0h72v81H0z"/></clipPath><g clip-path="url(#prefix__a)"><path d="M51.54 10.93H20.46c-.948 0-1.825.506-2.299 1.328L2.621 39.173a2.656 2.656 0 000 2.655l15.54 26.915a2.654 2.654 0 002.3 1.328h31.078c.95 0 1.825-.506 2.3-1.328l15.54-26.915a2.656 2.656 0 000-2.655l-15.54-26.915a2.656 2.656 0 00-2.3-1.328z" fill="#231f20" fill-rule="nonzero" stroke="#fff" stroke-width="1.5"/><circle cx="-2.335" cy="-.005" r="2.335" fill="none" stroke="#fff" stroke-width="1.5" stroke-linecap="round" stroke-linejoin="round" transform="matrix(0 -1 -1 0 48.015 20.25)"/><path d="M54.265 28.79v5.27c0 .81-.65 1.46-1.46 1.46-.81 0-1.46-.65-1.46-1.46v-1.07h-.01a3.36 3.36 0 00-3.36-3.36h-9.01c.05-.22.08-.46.08-.7 0-.76-.27-1.46-.75-1.99 0-.01 0-.01-.01-.02a3.013 3.013 0 00-2.24-1.04h-.01l-.04-.02h5.49a2.68 2.68 0 005.36 0h4.49c1.62 0 2.93 1.32 2.93 2.93z" fill="none" stroke="#fff" stroke-width="1.5" stroke-linecap="round" stroke-linejoin="round"/><path d="M51.345 32.99v12.28a1.664 1.664 0 01-3.33 0V39.4c.17.75.84 1.31 1.64 1.31.93 0 1.68-.75 1.68-1.68V33l.01-.01z" fill="none" stroke="#fff" stroke-width="1.5" stroke-linecap="round" stroke-linejoin="round"/><circle cx="-2.335" cy="-.005" r="2.335" fill="none" stroke="#fff" stroke-width="1.5" stroke-linecap="round" stroke-linejoin="round" transform="matrix(0 -1 -1 0 23.975 20.25)"/><path d="M35.995 25.86l-.05.02c-.9.02-1.71.42-2.26 1.05a3.06 3.06 0 00-.66 2.7h-9c-1.86 0-3.37 1.5-3.37 3.36v1.07c0 .81-.65 1.46-1.46 1.46-.81 0-1.46-.65-1.46-1.46V28.8c0-1.62 1.31-2.94 2.93-2.94h4.48a2.68 2.68 0 005.36 0h5.49zM23.985 39.37v5.9a1.664 1.664 0 01-3.33 0v-6.24a1.684 1.684 0 003.33.34z" fill="none" stroke="#fff" stroke-width="1.5" stroke-linecap="round" stroke-linejoin="round"/><ellipse cx="-2.33" cy="-.005" rx="2.335" ry="2.33" fill="none" stroke="#fff" stroke-width="1.5" stroke-linecap="round" stroke-linejoin="round" transform="matrix(0 -1 -1 0 35.99 20.255)"/><path d="M40.345 43.93v-6.2M31.645 43.93v-6.2M35.995 58.58V48.12M39.045 28.93a3.055 3.055 0 01-3.05 3.05 3.047 3.047 0 01-3.05-3.05c0-.76.28-1.47.74-2 .55-.63 1.36-1.03 2.26-1.05h.1c.89.01 1.69.41 2.24 1.04.01.01.01.01.01.02.48.53.75 1.23.75 1.99zM40.345 43.93v-6.2M31.645 43.93v-6.2M35.995 58.58V48.12" fill="none" stroke="#fff" stroke-width="1.5" stroke-linecap="round" stroke-linejoin="round"/><circle cx="-2.68" r="2.68" fill="none" stroke="#fff" stroke-width="1.5" stroke-linecap="round" stroke-linejoin="round" transform="matrix(0 -1 -1 0 44.165 23.18)"/><path d="M47.975 29.63h-9.01a3.055 3.055 0 01-2.97 2.35c-1.45 0-2.65-1-2.97-2.35h-9c-1.86 0-3.37 1.5-3.37 3.36v6.04a1.684 1.684 0 003.33.34c.02-.11.03-.22.03-.34v12.86c0 .52.21 1 .56 1.35.34.35.81.56 1.34.56 1.06 0 1.91-.86 1.91-1.91V37.05a3.83 3.83 0 013.83-3.83h8.68c2.11 0 3.83 1.71 3.83 3.82v14.85c0 1.05.85 1.91 1.9 1.91.53 0 1.01-.21 1.35-.56.35-.35.56-.83.56-1.35V39.03a1.683 1.683 0 001.68 1.68c.93 0 1.68-.75 1.68-1.68v-6.04a3.36 3.36 0 00-3.36-3.36zM47.975 39.03v-5.44" fill="none" stroke="#fff" stroke-width="1.5" stroke-linecap="round" stroke-linejoin="round"/><path d="M44.165 43.93v7.96c0 1.05-.86 1.91-1.91 1.91-.53 0-1-.21-1.35-.56-.34-.35-.56-.83-.56-1.35v-7.96c0 .52.21 1 .56 1.35.34.35.82.56 1.35.56 1.05 0 1.91-.86 1.91-1.91zM40.345 43.93v-4.9" fill="none" stroke="#fff" stroke-width="1.5" stroke-linecap="round" stroke-linejoin="round"/><circle cx="-2.68" r="2.68" fill="none" stroke="#fff" stroke-width="1.5" stroke-linecap="round" stroke-linejoin="round" transform="matrix(0 -1 -1 0 27.825 23.18)"/><path d="M44.165 37.04v6.89c0 1.05-.86 1.91-1.91 1.91-.53 0-1.01-.21-1.35-.56-.35-.35-.56-.83-.56-1.35v14.65c0 .6-.24 1.14-.64 1.53-.4.4-.94.64-1.54.64-1.2 0-2.17-.97-2.17-2.17 0 1.2-.97 2.17-2.17 2.17-.6 0-1.14-.24-1.54-.64-.4-.39-.64-.93-.64-1.53V43.93c0 .52-.21 1-.56 1.35-.34.35-.82.56-1.35.56-1.05 0-1.91-.86-1.91-1.91v-6.88a3.83 3.83 0 013.83-3.83h8.68c2.11 0 3.83 1.71 3.83 3.82z" fill="none" stroke="#fff" stroke-width="1.5" stroke-linecap="round" stroke-linejoin="round"/><path d="M31.645 43.93v7.96c0 .52-.22 1-.56 1.35-.35.35-.82.56-1.35.56-1.05 0-1.91-.86-1.91-1.91v-7.96c0 1.05.86 1.91 1.91 1.91.53 0 1.01-.21 1.35-.56.35-.35.56-.83.56-1.35zM31.645 43.93v-4.9M24.015 39.03v-5.44" fill="none" stroke="#fff" stroke-width="1.5" stroke-linecap="round" stroke-linejoin="round"/></g></g></svg>