<svg viewBox="0 0 300 339" xmlns="http://www.w3.org/2000/svg" fill-rule="evenodd" clip-rule="evenodd" stroke-miterlimit="10"><g transform="translate(0 .81) scale(4.16667)"><path fill="none" d="M0 0h72v81H0z"/><clipPath id="prefix__a"><path d="M0 0h72v81H0z"/></clipPath><g clip-path="url(#prefix__a)"><path d="M67.13 58.5v-36l-31.177-18-31.177 18v36l31.177 18 31.177-18z" fill="#9aa3ad" fill-rule="nonzero"/><path d="M67.224 58.5v-36l-31.177-18-31.177 18v36l31.177 18 31.177-18z" fill="none" stroke="#231f20" stroke-width="2"/><path d="M67.13 58.5v-36l-31.177-18-31.177 18v36l31.177 18 31.177-18z" fill="none" stroke="#231f20" stroke-width="2"/><path d="M39.04 43.403h-5.985v-7.145l2.992-1.728 2.992 1.728v7.145zm9.557-24.41v6.4l-8.363-4.831V14.16l-4.182-2.411-4.192 2.422v6.4l-8.364 4.833v-6.401l-8.374 4.833v24.152l5.985 3.456v16.43l14.94 8.625 14.94-8.625v-16.43l5.985-3.456V23.837l-8.375-4.843z" fill="#fff" fill-rule="nonzero" stroke="#231f20" stroke-width="2"/></g></g></svg>