<svg viewBox="0 0 300 339" xmlns="http://www.w3.org/2000/svg" fill-rule="evenodd" clip-rule="evenodd" stroke-miterlimit="10"><g transform="translate(0 .81) scale(4.16667)"><path fill="none" d="M0 0h72v81H0z"/><clipPath id="prefix__a"><path d="M0 0h72v81H0z"/></clipPath><g clip-path="url(#prefix__a)"><path d="M51.54 10.93H20.46c-.948 0-1.825.506-2.299 1.328L2.621 39.173a2.656 2.656 0 000 2.655l15.54 26.915a2.654 2.654 0 002.3 1.328h31.078c.95 0 1.825-.506 2.3-1.328l15.54-26.915a2.656 2.656 0 000-2.655l-15.54-26.915a2.656 2.656 0 00-2.3-1.328z" fill="#231f20" fill-rule="nonzero" stroke="#fff" stroke-width="1.5"/><path d="M45.608 35.526V24.432L36 18.885l-9.607 5.547v11.094L36 41.073l9.608-5.547zM36 29.979l9.608-5.547L36 29.979z" fill="none" stroke="#fff" stroke-width="1.5"/><path d="M26.392 24.432L36 29.979v11.094M36 52.174V41.08l-9.608-5.547-9.607 5.547v11.094l9.607 5.547L36 52.174z" fill="none" stroke="#fff" stroke-width="1.5"/><path d="M26.392 46.627L36 41.08l-9.608 5.547z" fill="none" stroke="#fff" stroke-width="1.5"/><path d="M16.785 41.08l9.608 5.547V57.72M55.215 52.174V41.08l-9.608-5.547L36 41.08v11.094l9.607 5.547 9.608-5.547z" fill="none" stroke="#fff" stroke-width="1.5"/><path d="M45.608 46.627l9.608-5.547-9.608 5.547z" fill="none" stroke="#fff" stroke-width="1.5"/><path d="M36 41.08l9.608 5.547V57.72" fill="none" stroke="#fff" stroke-width="1.5"/></g></g></svg>