<svg xmlns="http://www.w3.org/2000/svg" xmlns:svg="http://www.w3.org/2000/svg" fill-rule="evenodd" stroke-miterlimit="10" clip-rule="evenodd" viewBox="0 0 68.967117 60.640999" xml:space="preserve"><path fill="#231f20" fill-rule="nonzero" stroke="#fff" stroke-width="1.5" d="M50.023059.75h-31.079c-.948 0-1.825.506-2.299 1.328l-15.54 26.915c-.474.821-.474 1.833 0 2.655l15.54 26.915c.474.822 1.351 1.328 2.299 1.328h31.079c.949 0 1.825-.506 2.3-1.328l15.539-26.915c.474-.822.474-1.834 0-2.655l-15.539-26.915c-.475-.822-1.351-1.328-2.3-1.328Z"/><ellipse cx="-10.878" fill="none" stroke="#fff" stroke-width="1.5" rx="10.877" ry="10.878" transform="matrix(0 -1 -1 0 35.031259 28.8817)"/><circle cx="-6.243" r="6.243" fill="none" stroke="#fff" stroke-width="1.5" transform="matrix(0 -1 -1 0 44.569059 12.0041)"/><circle cx="-4.1719999" r="4.1719999" fill="none" stroke="#fff" stroke-width="1.5" transform="matrix(0 -1 -1 0 18.327059 23.1336)"/><path fill="none" stroke="#fff" stroke-linecap="round" stroke-linejoin="round" stroke-width="1.5" d="M35.030859 34.3272v10.864m-5.431-5.432h10.863m-9.27260522-3.84040925 7.68130334 7.68130334m-7.68130334-.00038484 7.68130334-7.68130334m3.71683229-23.59020513L16.75655129 23.44156374m33.98036943-4.27551036-5.15397944 23.22293985M15.0472956 29.88215195l11.30744724 16.43119567"/></svg>