<svg viewBox="0 0 300 338" xmlns="http://www.w3.org/2000/svg" fill-rule="evenodd" clip-rule="evenodd" stroke-miterlimit="10"><g transform="translate(0 .12) scale(4.16667)"><path fill="none" d="M0 0h72v81H0z"/><clipPath id="prefix__a"><path d="M0 0h72v81H0z"/></clipPath><g clip-path="url(#prefix__a)"><path d="M51.54 10.93H20.46c-.948 0-1.825.506-2.299 1.328L2.621 39.173a2.656 2.656 0 000 2.655l15.54 26.915a2.654 2.654 0 002.3 1.328h31.078c.95 0 1.825-.506 2.3-1.328l15.54-26.915a2.656 2.656 0 000-2.655l-15.54-26.915a2.656 2.656 0 00-2.3-1.328z" fill="#231f20" fill-rule="nonzero" stroke="#fff" stroke-width="1.5"/><ellipse cx="-10.878" rx="10.877" ry="10.878" fill="none" stroke="#fff" stroke-width="1.5" transform="matrix(0 -1 -1 0 36.548 39.061)"/><circle cx="-6.243" r="6.243" fill="none" stroke="#fff" stroke-width="1.5" transform="matrix(0 -1 -1 0 46.085 22.184)"/><circle cx="-4.172" r="4.172" fill="none" stroke="#fff" stroke-width="1.5" transform="matrix(0 -1 -1 0 19.843 33.313)"/><path d="M36.547 44.507V55.37M31.116 49.939H41.98M32.707 46.098l7.68 7.682M32.707 53.78l7.68-7.682M44.105 22.508L18.273 33.62M52.253 29.346L47.1 52.569M16.564 40.062L27.87 56.493" fill="none" stroke="#fff" stroke-width="1.5" stroke-linecap="round" stroke-linejoin="round"/></g></g></svg>