<svg xmlns="http://www.w3.org/2000/svg" xmlns:svg="http://www.w3.org/2000/svg" fill-rule="evenodd" stroke-miterlimit="10" clip-rule="evenodd" viewBox="0 0 68.967117 60.640999" xml:space="preserve"><path fill="#231f20" fill-rule="nonzero" stroke="#fff" stroke-width="1.5" d="M50.023059.75h-31.079c-.948 0-1.825.506-2.299 1.328l-15.54 26.915c-.474.821-.474 1.833 0 2.655l15.54 26.915c.474.822 1.351 1.328 2.299 1.328h31.079c.949 0 1.825-.506 2.3-1.328l15.539-26.915c.474-.822.474-1.834 0-2.655l-15.539-26.915c-.475-.822-1.351-1.328-2.3-1.328Z"/><path fill="none" stroke="#fff" stroke-linecap="round" stroke-linejoin="round" stroke-width="1.5" d="m14.199459 24.1374 20.284-17.376 20.284 17.376"/><circle cx="-3.2119999" r="3.2119999" fill="none" stroke="#fff" stroke-linecap="round" stroke-linejoin="round" stroke-width="1.5" transform="matrix(0 -1 -1 0 34.483559 17.1732)"/><path fill="none" stroke="#fff" stroke-linecap="round" stroke-linejoin="round" stroke-width="1.5" d="M34.483659 24.8977h4.568c2.225 0 4.029 1.804 4.029 4.029v7.247c0 1.111-.901 2.011-2.011 2.011-1.111 0-2.012-.9-2.012-2.011v-6.521"/><path fill="none" stroke="#fff" stroke-linecap="round" stroke-linejoin="round" stroke-width="1.5" d="M34.484159 40.5894v11.003c0 1.263 1.024 2.287 2.287 2.287s2.287-1.024 2.287-2.287v-18.926m-4.5745-7.7687h-4.563c-2.228 0-4.034 1.806-4.034 4.034v7.242c0 1.111.901 2.011 2.011 2.011 1.111 0 2.012-.9 2.012-2.011v-6.521"/><path fill="none" stroke="#fff" stroke-linecap="round" stroke-linejoin="round" stroke-width="1.5" d="M34.484159 40.5894v11.003c0 1.263-1.024 2.287-2.287 2.287s-2.287-1.024-2.287-2.287v-18.927"/></svg>