<svg viewBox="0 0 301 339" xmlns="http://www.w3.org/2000/svg" fill-rule="evenodd" clip-rule="evenodd" stroke-linecap="round" stroke-linejoin="round" stroke-miterlimit="10"><g transform="translate(.5 .81) scale(4.16667)"><path fill="none" d="M0 0h72v81H0z"/><clipPath id="prefix__a"><path d="M0 0h72v81H0z"/></clipPath><g clip-path="url(#prefix__a)"><path d="M67.177 58.5v-36L36 4.5l-31.177 18v36L36 76.5l31.177-18z" fill="#9aa3ad" fill-rule="nonzero"/><clipPath id="prefix__b"><path d="M4.823 22.5v36L36 76.5l31.177-18v-36L36 4.5l-31.177 18z" clip-rule="nonzero"/></clipPath><g clip-path="url(#prefix__b)"><path d="M24.376 29.659a6.617 6.617 0 11-13.234 0 6.617 6.617 0 0113.234 0" fill="#fff" fill-rule="nonzero"/><circle cx="-6.617" r="6.617" fill="none" stroke="#231f20" stroke-width="2" transform="matrix(0 -1 -1 0 17.759 23.042)"/><path d="M25.337 36.276H10.182a7.658 7.658 0 00-7.65 8.033l.59 12.042a6.835 6.835 0 006.827 6.5l1.953 17.898h11.715l1.952-17.897a6.836 6.836 0 006.827-6.501l.59-12.042a7.658 7.658 0 00-7.65-8.033z" fill="#fff" fill-rule="nonzero" stroke="#231f20" stroke-width="2"/><path d="M60.857 29.659a6.617 6.617 0 11-13.233 0 6.617 6.617 0 0113.233 0" fill="#fff" fill-rule="nonzero"/><circle cx="-6.617" r="6.617" fill="none" stroke="#231f20" stroke-width="2" transform="matrix(0 -1 -1 0 54.24 23.042)"/><path d="M61.818 36.276H46.663a7.658 7.658 0 00-7.649 8.033l.59 12.042a6.835 6.835 0 006.826 6.5l1.953 17.898h11.715l1.952-17.897a6.836 6.836 0 006.827-6.501l.59-12.042a7.658 7.658 0 00-7.649-8.033z" fill="#fff" fill-rule="nonzero" stroke="#231f20" stroke-width="2"/><path d="M42.617 39.659a6.617 6.617 0 11-13.234 0 6.617 6.617 0 0113.234 0" fill="#fff" fill-rule="nonzero"/><circle cx="-6.617" r="6.617" fill="none" stroke="#231f20" stroke-width="2" transform="matrix(0 -1 -1 0 36 33.042)"/><path d="M43.578 46.276H28.423a7.658 7.658 0 00-7.65 8.033l.59 12.042a6.835 6.835 0 006.827 6.5l1.953 17.898h11.715l1.952-17.897a6.836 6.836 0 006.827-6.501l.59-12.042a7.658 7.658 0 00-7.65-8.033z" fill="#fff" fill-rule="nonzero" stroke="#231f20" stroke-width="2"/></g><g><path d="M67.177 58.5v-36L36 4.5l-31.177 18v36L36 76.5l31.177-18z" fill="none" stroke="#231f20" stroke-width="2" stroke-linecap="butt" stroke-linejoin="miter"/></g></g></g></svg>