<svg viewBox="0 0 301 339" xmlns="http://www.w3.org/2000/svg" fill-rule="evenodd" clip-rule="evenodd" stroke-miterlimit="10"><g transform="translate(.5 .81) scale(4.16667)"><path fill="none" d="M0 0h72v81H0z"/><clipPath id="prefix__a"><path d="M0 0h72v81H0z"/></clipPath><g clip-path="url(#prefix__a)"><path d="M51.54 10.93H20.46c-.948 0-1.825.506-2.299 1.328L2.621 39.173a2.656 2.656 0 000 2.655l15.54 26.915a2.654 2.654 0 002.3 1.328h31.078c.95 0 1.825-.506 2.3-1.328l15.54-26.915a2.656 2.656 0 000-2.655l-15.54-26.915a2.656 2.656 0 00-2.3-1.328z" fill="#231f20" fill-rule="nonzero" stroke="#fff" stroke-width="1.5"/><path d="M35.95 60.857l.155.072c2.36-1.014 6.045-2.97 9.457-6.63a27.6 27.6 0 002.972-3.807 10.026 10.026 0 001.603-4.825l1.094-16.947a4.003 4.003 0 00-2.282-3.878 28.611 28.611 0 00-12.845-2.766 29.382 29.382 0 00-13.031 2.772 4.002 4.002 0 00-2.3 3.89l1.106 16.912a9.881 9.881 0 001.549 4.733 26.81 26.81 0 003.09 3.916s3.742 3.924 9.432 6.558z" fill="none" stroke="#fff" stroke-width="1.5" stroke-linecap="round" stroke-linejoin="round"/><path d="M30.397 44.181l3.142 1.815.283 2.342h4.359l.283-2.345 3.142-1.812 2.168.926 2.177-3.776-1.885-1.416v-3.624l1.885-1.417-2.177-3.773-2.168.923-3.142-1.812-.283-2.342h-4.359l-.283 2.339-3.142 1.815-2.168-.923-2.18 3.77 1.888 1.42v3.624l-1.888 1.419 2.18 3.773 2.168-.926z" fill="none" stroke="#fff" stroke-width="1.5" stroke-linecap="round" stroke-linejoin="round"/></g></g></svg>