<svg xmlns="http://www.w3.org/2000/svg" xmlns:svg="http://www.w3.org/2000/svg" fill-rule="evenodd" stroke-miterlimit="10" clip-rule="evenodd" viewBox="0 0 68.967117 60.640999" xml:space="preserve"><path fill="#231f20" fill-rule="nonzero" stroke="#fff" stroke-width="1.5" d="M50.023059.75h-31.079c-.948 0-1.825.506-2.299 1.328l-15.54 26.915c-.474.821-.474 1.833 0 2.655l15.54 26.915c.474.822 1.351 1.328 2.299 1.328h31.079c.949 0 1.825-.506 2.3-1.328l15.539-26.915c.474-.822.474-1.834 0-2.655l-15.539-26.915c-.475-.822-1.351-1.328-2.3-1.328Z"/><path fill="none" stroke="#fff" stroke-linecap="round" stroke-linejoin="round" stroke-width="1.5" d="M24.670459 9.9777v4.312m12.0983-4.312v4.312"/><ellipse cx="-3.45" fill="none" stroke="#fff" stroke-linecap="round" stroke-linejoin="round" stroke-width="1.5" rx="3.4489999" ry="3.45" transform="matrix(0 -1 -1 0 48.724759 30.9607)"/><path fill="none" stroke="#fff" stroke-linecap="round" stroke-linejoin="round" stroke-width="1.5" d="M47.928959 42.7251c0 4.799-3.891 8.69-8.69 8.69-4.799 0-8.69-3.891-8.69-8.69m-.0001-6.9563v6.956m17.3801-4.8652v4.866M24.38067827 12.13346839c-.73326996.0417193-2.5144725.25031587-3.86646108 1.60089024-.85701368.85701369-1.37885865 2.01242653-1.60089024 3.86646108-.07636756.6264968-1.35764544 12.7378255 6.60225806 16.89773598.9906569.51830943 2.65377257 1.18864687 5.03318762 1.26996417m6.5107671-23.63505147c.73326996.0417193 2.5144725.25031587 3.86646108 1.60089024.85701368.85701369 1.37885865 2.01242653 1.60089024 3.86646108.07636756.6264968 1.35764544 12.7378255-6.60225806 16.89773598-.9906569.51830943-2.65377257 1.18864687-5.03318762 1.26996417"/></svg>