<svg viewBox="0 0 301 339" xmlns="http://www.w3.org/2000/svg" fill-rule="evenodd" clip-rule="evenodd" stroke-miterlimit="10"><g transform="translate(.5 .81) scale(4.16667)"><path fill="none" d="M0 0h72v81H0z"/><clipPath id="prefix__a"><path d="M0 0h72v81H0z"/></clipPath><g clip-path="url(#prefix__a)"><path d="M4.823 58.5v-36L36 4.5l31.177 18v36L36 76.5l-31.177-18z" fill="#9aa3ad" fill-rule="nonzero"/><clipPath id="prefix__b"><path d="M11.309 40.5C18.716 48.131 24.525 52.88 36 52.88s17.284-4.749 24.691-12.38C53.284 32.869 47.475 28.12 36 28.12S18.716 32.869 11.309 40.5z" clip-rule="nonzero"/></clipPath><g clip-path="url(#prefix__b)"><path d="M36 52.88c11.475 0 17.284-4.749 24.691-12.38C53.284 32.87 47.475 28.12 36 28.12S18.716 32.87 11.309 40.5C18.716 48.131 24.525 52.88 36 52.88" fill="#231f20" fill-rule="nonzero" opacity=".3"/><path d="M32.29 25.618c8.219-2.048 16.543 2.953 18.592 11.17 2.048 8.22-2.952 16.544-11.172 18.594-8.218 2.048-16.542-2.953-18.592-11.172-2.048-8.219 2.953-16.543 11.171-18.592" fill="#fff" fill-rule="nonzero"/><circle cx="3.711" cy="-14.882" fill="none" stroke="#231f20" r="15.337" transform="scale(-1 1) rotate(14 -241.66 -148.894)"/><path d="M41.074 44.074c-.337.372-.813.429-1.262.468-.283.027-1.211.107-1.975-.503-.23-.184-.58-.46-.605-.882-.031-.506.425-.885.617-1.046.809-.68 2.47-1.097 3.217-.207.48.57.526 1.61.008 2.17m-3.87 2.32a.593.593 0 01-.256.123c-.203.038-.303-.173-.602-.292a1.285 1.285 0 00-.338-.08c-.08.007-.2.027-.337.08-.303.119-.4.33-.606.292a.593.593 0 01-.257-.123.578.578 0 01-.126-.713c.038-.096.379-.886.694-1.308.153-.218.31-.268.372-.28a1.23 1.23 0 01.253-.02c.103 0 .188 0 .264.02.062.012.223.062.372.28.319.422.656 1.212.698 1.308a.579.579 0 01-.13.713m-3.026-2.355c-.763.61-1.695.53-1.98.503-.443-.04-.923-.096-1.26-.468-.518-.56-.472-1.6.007-2.17.752-.89 2.409-.472 3.218.207.192.16.652.54.617 1.046-.027.422-.372.698-.602.882m9.049-3.403a7.03 7.03 0 00.197-1.026c.122-.921.254-1.911-.077-3.09a6.187 6.187 0 00-.752-1.665s-.286-.45-.652-.855c-.58-.644-2.802-2.47-6.018-2.438-.718.007-3.806.129-5.858 2.438a6.346 6.346 0 00-1.403 2.52c-.364 1.293-.196 2.367-.077 3.087a8.602 8.602 0 00.993 2.807l-.245.203-.058.05c-.007 0-.015.003-.034.015l-.088.065a2.887 2.887 0 00-.372.349l-.004.004a1.807 1.807 0 00-.134.36c-.227.925.448 1.853.932 2.228l.026.016c.445.337.925.498 1.404.49.06-.007.138-.015.218-.015.265 0 .618.062.928.315.142.119.338.329.445.667.096.284.069.506.046.72-.02.177-.042.36-.007.64.015.12.019.162.03.189.039.096.142.234.599.414a4.778 4.778 0 001.61.315h2.27a4.753 4.753 0 001.599-.315c.46-.18.564-.318.602-.418.008-.023.016-.073.027-.184.035-.28.016-.464-.007-.64-.023-.215-.046-.437.046-.721.088-.272.237-.5.444-.667.407-.33.882-.334 1.147-.3.483.008.959-.153 1.407-.49l.039-.027c.464-.357 1.146-1.29.916-2.217a1.695 1.695 0 00-.146-.383 3.116 3.116 0 00-.356-.33l-.088-.065c-.02-.012-.027-.015-.035-.015l-.061-.05-.242-.203c.248-.392.572-.993.789-1.778" fill="#231f20" fill-rule="nonzero"/></g><clipPath id="prefix__c"><path d="M24.61 30.226c-3.297 3.662-4.773 8.843-3.492 13.985a15.282 15.282 0 003.489 6.562C27.819 52.139 31.468 52.88 36 52.88c4.531 0 8.178-.74 11.389-2.106 3.297-3.662 4.774-8.844 3.493-13.984a15.276 15.276 0 00-3.49-6.563C44.18 28.861 40.531 28.12 36 28.12s-8.178.74-11.39 2.106z" clip-rule="nonzero"/></clipPath><g clip-path="url(#prefix__c)"><path d="M39.353 49.513l4.133 9.675-.938.349-3.195-10.024zM32.647 31.487l-4.133-9.675.938-.349 3.195 10.024z" fill="#231f20" fill-rule="nonzero"/><path d="M39.353 49.513l4.133 9.675-.938.349-3.195-10.024zM32.647 31.487l-4.133-9.675.938-.349 3.195 10.024zM40.901 48.806l5.787 8.823-.86.51-4.927-9.333zM31.099 32.194l-5.787-8.823.86-.51 4.927 9.333zM42.3 47.847l7.266 7.704-.76.651-6.505-8.355zM29.7 33.153l-7.266-7.704.76-.651 6.505 8.355z" fill="#231f20" fill-rule="nonzero"/><path d="M42.3 47.847l7.266 7.704-.76.651-6.505-8.355zM29.7 33.153l-7.266-7.704.76-.651 6.505 8.355zM43.509 46.665l8.524 6.351-.635.773-7.889-7.124zM28.491 34.335l-8.524-6.351.635-.773 7.889 7.124zM44.489 45.296l9.523 4.806-.492.87-9.031-5.676zM27.511 35.704l-9.523-4.806.492-.87 9.031 5.676z" fill="#231f20" fill-rule="nonzero"/><path d="M44.489 45.296l9.523 4.806-.492.87-9.031-5.676zM27.511 35.704l-9.523-4.806.492-.87 9.031 5.676zM45.211 43.78l10.234 3.114-.335.942-9.899-4.056zM26.789 37.22l-10.234-3.114.335-.942 9.899 4.056zM45.653 42.165l10.635 1.327-.17.986-10.465-2.313zM26.347 38.835l-10.635-1.327.17-.986 10.465 2.313z" fill="#231f20" fill-rule="nonzero"/><path d="M45.653 42.165l10.635 1.327-.17.986-10.465-2.313zM26.347 38.835l-10.635-1.327.17-.986 10.465 2.313zM45.802 40.5l10.712-.5v1l-10.712-.5zM26.198 40.5l-10.712.5v-1l10.712.5zM45.653 38.835l10.465-2.313.17.986-10.635 1.326zM26.347 42.165l-10.465 2.313-.17-.986 10.635-1.326z" fill="#231f20" fill-rule="nonzero"/><path d="M45.653 38.835l10.465-2.313.17.986-10.635 1.326zM26.347 42.165l-10.465 2.313-.17-.986 10.635-1.326zM45.211 37.22l9.9-4.056.334.942-10.234 3.114zM26.789 43.78l-9.9 4.056-.334-.942 10.234-3.114zM44.489 35.704l9.031-5.676.492.87-9.523 4.806zM27.511 45.296l-9.031 5.676-.492-.87 9.523-4.806z" fill="#231f20" fill-rule="nonzero"/><path d="M44.489 35.704l9.031-5.676.492.87-9.523 4.806zM27.511 45.296l-9.031 5.676-.492-.87 9.523-4.806zM43.509 34.335l7.889-7.124.634.773-8.523 6.35zM28.491 46.665l-7.889 7.124-.634-.773 8.523-6.35zM42.3 33.153l6.507-8.355.759.65-7.265 7.705zM29.7 47.847l-6.507 8.355-.759-.65 7.265-7.705z" fill="#231f20" fill-rule="nonzero"/><path d="M42.3 33.153l6.507-8.355.759.65-7.265 7.705zM29.7 47.847l-6.507 8.355-.759-.65 7.265-7.705zM40.901 32.194l4.926-9.332.861.509-5.787 8.823zM31.099 48.806l-4.926 9.332-.861-.509 5.787-8.823zM39.353 31.487l3.195-10.024.937.35-4.132 9.674zM32.647 49.513l-3.195 10.024-.937-.35 4.132-9.674z" fill="#231f20" fill-rule="nonzero"/><path d="M39.353 31.487l3.195-10.024.937.35-4.132 9.674zM32.647 49.513l-3.195 10.024-.937-.35 4.132-9.674zM37.702 31.054l1.368-10.41.984.176-2.352 10.234zM34.298 49.945L32.93 60.356l-.984-.177 2.352-10.234zM36 30.909l-.5-10.482h1L36 30.909zM36 50.091l.5 10.482h-1l.5-10.482z" fill="#231f20" fill-rule="nonzero"/><path d="M36 30.909l-.5-10.482h1L36 30.909zM36 50.091l.5 10.482h-1l.5-10.482zM34.298 31.054L31.946 20.82l.984-.177 1.368 10.411zM37.702 49.945l2.352 10.234-.984.177-1.368-10.41z" fill="#231f20" fill-rule="nonzero"/></g><g transform="translate(36 28.12)"><clipPath id="prefix__d"><path d="M-31.177-5.62v36L0 48.38l31.177-18v-36L0-23.62l-31.177 18z" clip-rule="nonzero"/></clipPath><g clip-path="url(#prefix__d)"><path d="M0 24.76c11.475 0 17.284-4.749 24.691-12.38C17.284 4.749 11.475 0 0 0s-17.284 4.749-24.691 12.38C-17.284 20.011-11.475 24.76 0 24.76z" fill="none" stroke="#231f20" stroke-width="2"/></g></g><g><path d="M4.823 58.5v-36L36 4.5l31.177 18v36L36 76.5l-31.177-18z" fill="none" stroke="#231f20" stroke-width="2"/></g></g></g></svg>