<svg viewBox="0 0 301 339" xmlns="http://www.w3.org/2000/svg" fill-rule="evenodd" clip-rule="evenodd" stroke-miterlimit="10"><g transform="translate(.5 .81) scale(4.16667)"><path fill="none" d="M0 0h72v81H0z"/><clipPath id="prefix__a"><path d="M0 0h72v81H0z"/></clipPath><g clip-path="url(#prefix__a)"><path d="M67.177 58.453v-36L36 4.453l-31.177 18v36l31.177 18 31.177-18z" fill="#9aa3ad" fill-rule="nonzero"/><path d="M44.488 71.646l.219-.126-1.138-2.704.919 2.83zM21.931 12.67l6.5 15.449-5.25-16.17-1.25.72z" fill="#231f20" fill-rule="nonzero"/><path d="M44.488 71.646l.219-.126-1.138-2.704.919 2.83zM21.931 12.67l6.5 15.449-5.25-16.17-1.25.72zM48.266 69.465l.185-.107-1.385-2.137 1.2 2.244zM16.078 16.049l8.857 13.664-7.673-14.348-1.184.684zM52 67.31l.212-.124-1.987-2.13L52 67.31zM10.182 19.453l11.593 12.426-10.35-13.144-1.243.718z" fill="#231f20" fill-rule="nonzero"/><path d="M52 67.31l.212-.124-1.987-2.13L52 67.31zM10.182 19.453l11.593 12.426-10.35-13.144-1.243.718zM55.926 65.043l.312-.18-3.285-2.475 2.973 2.655zM4.823 22.547v1.284l14.224 10.717L5.302 22.27l-.479.277zM60.328 62.5l.52-.3-5.681-2.905 5.161 3.206zM4.823 31.498l12.01 6.141-12.01-7.459v1.318z" fill="#231f20" fill-rule="nonzero"/><path d="M60.328 62.5l.52-.3-5.681-2.905 5.161 3.206zM4.823 31.498l12.01 6.141-12.01-7.459v1.318zM65.632 59.439l.93-.537-9.765-3.028 8.835 3.565zM4.823 37.842l10.381 3.219-10.38-4.19v.97zM67.177 54.249v-.799l-9.382-1.222 9.382 2.021zM4.823 43.486l9.382 1.222-9.382-2.021v.799z" fill="#231f20" fill-rule="nonzero"/><path d="M67.177 54.249v-.799l-9.382-1.222 9.382 2.021zM4.823 43.486l9.382 1.222-9.382-2.021v.799zM58.132 48.468l9.045.374v-.748l-9.045.374zM4.823 48.842l9.046-.374-9.046-.374v.748zM57.795 44.708l9.382-1.222v-.8l-9.382 2.022zM4.823 53.45v.799l9.382-2.021-9.382 1.222z" fill="#231f20" fill-rule="nonzero"/><path d="M57.795 44.708l9.382-1.222v-.8l-9.382 2.022zM4.823 53.45v.799l9.382-2.021-9.382 1.222zM56.797 41.062l10.38-3.22v-.97l-10.38 4.19zM5.438 58.902l.93.537 8.834-3.565-9.764 3.028zM55.166 37.64l12.01-6.141V30.18l-12.01 7.459zM11.151 62.2l.52.3 5.162-3.206-5.682 2.906z" fill="#231f20" fill-rule="nonzero"/><path d="M55.166 37.64l12.01-6.141V30.18l-12.01 7.459zM11.151 62.2l.52.3 5.162-3.206-5.682 2.906zM52.954 34.548L67.178 23.83v-1.283l-.48-.277-13.744 12.278zM15.762 64.862l.312.18 2.973-2.655-3.285 2.475zM50.226 31.879l11.592-12.426-1.243-.718-10.349 13.144zM19.787 67.187l.213.123 1.774-2.253-1.987 2.13z" fill="#231f20" fill-rule="nonzero"/><path d="M50.226 31.879l11.592-12.426-1.243-.718-10.349 13.144zM19.787 67.187l.213.123 1.774-2.253-1.987 2.13zM47.066 29.714l8.856-13.664-1.183-.684-7.673 14.348zM23.55 69.358l.184.107 1.2-2.244-1.385 2.137zM43.569 28.119l6.5-15.45-1.249-.72-5.251 16.17zM27.294 71.52l.219.126.918-2.829-1.137 2.703z" fill="#231f20" fill-rule="nonzero"/><path d="M43.569 28.119l6.5-15.45-1.249-.72-5.251 16.17zM27.294 71.52l.219.126.918-2.829-1.137 2.703zM39.843 27.141l4.044-18.04-1.458-.843-2.586 18.883zM31.257 73.809l.324.187.576-4.202-.9 4.015zM35.082 5.077L36 26.813l.919-21.736-.92-.53-.917.53z" fill="#231f20" fill-rule="nonzero"/><path d="M35.082 5.077L36 26.813l.919-21.736-.92-.53-.917.53zM28.113 9.1l4.044 18.041-2.586-18.883-1.458.842zM40.419 73.996l.324-.187-.9-4.016.575 4.203z" fill="#231f20" fill-rule="nonzero"/><clipPath id="prefix__b"><path d="M4.823 22.547v36l31.177 18 31.177-18v-36L36 4.547l-31.177 18z" clip-rule="nonzero"/></clipPath><g clip-path="url(#prefix__b)"><path d="M21.994 40.81l-4.119 8.237-3.974-2.158 1.286-3.813 1.097 4.604 3.345-10.863c.081-.252.135-.503.153-.764l.773.396a3.254 3.254 0 011.44 4.361z" fill="#9aa3ad" fill-rule="nonzero" stroke="#231f20"/><path d="M19.782 36.053a3.187 3.187 0 01-.153.764L16.284 47.68l-1.097-4.604-1.286-5.386 3.066-5.8 1.052.647a3.744 3.744 0 011.763 3.516" fill="#9aa3ad" fill-rule="nonzero"/><path d="M19.782 36.053a3.187 3.187 0 01-.153.764L16.284 47.68l-1.097-4.604-1.286-5.386 3.066-5.8 1.052.647a3.744 3.744 0 011.763 3.516z" fill="none" stroke="#231f20"/><path d="M22.644 60.233v-5.622l-1.334-3.78a2.32 2.32 0 013.83-2.414 15.46 15.46 0 013.452 5.27l2.911 7.398V76.42h-9.37l-.17-4.77-6.304-17.86-4.6-8.208V30.758l2.076.672a3.242 3.242 0 012.174 2.413l2.11 9.977 4.27 4.508" fill="#fff" fill-rule="nonzero"/><path d="M22.644 60.233l-.5-5.622.03.166-1.082-2.873-.27-.718c-.088-.216-.206-.582-.226-.886a2.935 2.935 0 01.436-1.85c.682-1.123 2.171-1.67 3.442-1.238.631.175 1.204.71 1.521 1.057a16.132 16.132 0 012.816 3.904c.503.978.854 1.94 1.257 2.873l2.363 5.666.003.007.07.173V77.42H21.167l-.034-.965-.17-4.77.055.297-6.303-17.86.07.155-4.6-8.206-.127-.228V29.384l1.308.423 1.876.607c.138.045.342.108.547.195.198.084.39.182.573.296.366.225.7.506.98.833.28.325.512.693.685 1.087.175.385.272.861.328 1.138l.408 1.93 1.634 7.72-.253-.48 4.27 4.507-1.452 1.375-4.27-4.507-.194-.205-.058-.276-1.633-7.72-.408-1.93c-.076-.365-.112-.538-.207-.756a2.3 2.3 0 00-.363-.574 2.133 2.133 0 00-.517-.439 2.06 2.06 0 00-.302-.157 4.404 4.404 0 00-.383-.134l-1.877-.607 1.308-.952v14.823l-.128-.489 4.6 8.207.042.075.03.081 6.302 17.86.051.145.006.152.17 4.771-.999-.964h9.37l-1 1V61.084l.07.366-.003-.007-2.13-5.757c-.368-.96-.685-1.938-1.087-2.797a14.661 14.661 0 00-2.405-3.637c-.363-.408-.559-.602-.92-.74-.677-.267-1.526-.008-1.949.618a1.725 1.725 0 00-.3 1.07c.013.208.043.337.133.6l.241.73.962 2.913.033.126-.004.041-.5 5.622z" fill="#231f20" fill-rule="nonzero"/><path d="M58.1 46.89l-3.976 2.157-4.118-8.237a3.254 3.254 0 011.438-4.36l.774-.397c.018.261.072.513.153.764l3.345 10.863 1.097-4.604L58.1 46.89z" fill="#9aa3ad" fill-rule="nonzero" stroke="#231f20"/><path d="M58.1 37.69l-1.287 5.387-1.097 4.604-3.345-10.863a3.205 3.205 0 01-.153-.765 3.745 3.745 0 011.762-3.516l1.054-.647 3.065 5.8z" fill="#9aa3ad" fill-rule="nonzero" stroke="#231f20"/><path d="M49.356 60.233v-5.622l1.334-3.78a2.32 2.32 0 00-3.83-2.414 15.46 15.46 0 00-3.452 5.27l-2.911 7.398V76.42h9.37l.17-4.77 6.304-17.86 4.6-8.208V30.758l-2.076.672a3.242 3.242 0 00-2.174 2.413l-2.11 9.977-4.27 4.508" fill="#fff" fill-rule="nonzero"/><path d="M49.356 60.233l-.5-5.622-.004-.04.033-.127.962-2.914.24-.729c.09-.263.12-.392.134-.6a1.725 1.725 0 00-.3-1.07c-.423-.626-1.272-.885-1.95-.618-.36.138-.556.332-.92.74a14.67 14.67 0 00-2.404 3.637c-.402.86-.72 1.836-1.086 2.797l-2.131 5.757-.003.007.07-.366v15.333l-1-.999h9.37l-1 .964.17-4.77.007-.153.05-.145 6.304-17.86.029-.08.042-.076 4.6-8.207-.128.49V30.757l1.308.952-1.877.607a4.404 4.404 0 00-.383.134 2.06 2.06 0 00-.302.157c-.194.118-.37.266-.517.44a2.3 2.3 0 00-.363.573c-.095.218-.131.391-.207.756l-.408 1.93-1.633 7.72-.058.276-.194.205-4.27 4.507-1.452-1.375 4.27-4.507-.253.48 1.634-7.72.408-1.93c.056-.277.153-.753.328-1.138.173-.394.405-.762.686-1.087.28-.327.613-.608.979-.833a4.14 4.14 0 01.573-.296c.205-.087.409-.15.547-.195l1.877-.607 1.307-.423v16.458l-.127.228-4.6 8.206.07-.155-6.303 17.86.056-.297-.171 4.77-.034.965H39.497V60.892l.069-.173.003-.007 2.363-5.666c.403-.934.754-1.895 1.257-2.873a16.132 16.132 0 012.816-3.904c.317-.347.89-.882 1.52-1.057 1.272-.433 2.76.115 3.443 1.237.348.548.5 1.211.436 1.851-.02.304-.138.67-.226.886l-.27.718-1.081 2.873.029-.166-.5 5.622z" fill="#231f20" fill-rule="nonzero"/></g><g><path d="M67.177 58.453v-36L36 4.453l-31.177 18v36l31.177 18 31.177-18z" fill="none" stroke="#231f20" stroke-width="2"/></g></g></g></svg>