<svg viewBox="0 0 300 338" xmlns="http://www.w3.org/2000/svg" fill-rule="evenodd" clip-rule="evenodd" stroke-miterlimit="10"><g transform="translate(0 .12) scale(4.16667)"><path fill="none" d="M0 0h72v81H0z"/><clipPath id="prefix__a"><path d="M0 0h72v81H0z"/></clipPath><g clip-path="url(#prefix__a)"><path d="M51.54 10.93H20.46c-.948 0-1.825.506-2.299 1.328L2.621 39.173a2.656 2.656 0 000 2.655l15.54 26.915a2.654 2.654 0 002.3 1.328h31.078c.95 0 1.825-.506 2.3-1.328l15.54-26.915a2.656 2.656 0 000-2.655l-15.54-26.915a2.656 2.656 0 00-2.3-1.328z" fill="#231f20" fill-rule="nonzero" stroke="#fff" stroke-width="1.5"/><path fill="none" stroke="#fff" stroke-width="1.5" d="M43.503 32.997H28.497v15.006h15.006z"/><path d="M52.956 57.456H19.045V23.545h33.91v33.91z" fill="none" stroke="#fff" stroke-width="1.5" stroke-linecap="round" stroke-linejoin="round"/><path fill="none" stroke="#fff" stroke-width="1.5" d="M43.503 32.997H28.497v15.006h15.006z"/><path fill="none" stroke="#fff" stroke-width="1.5" d="M43.503 32.997H28.497v15.006h15.006z"/><path fill="none" stroke="#fff" stroke-width="1.5" d="M43.503 32.997H28.497v15.006h15.006z"/><path d="M25.346 51.154V29.846h21.308v21.308" fill="none" stroke="#fff" stroke-width="1.5"/><path d="M22.195 54.305v-27.61h27.61v27.61M19.044 57.456l9.453-9.453M43.503 48.003l9.453 9.452" fill="none" stroke="#fff" stroke-width="1.5"/></g></g></svg>