<svg xmlns="http://www.w3.org/2000/svg" xmlns:svg="http://www.w3.org/2000/svg" fill-rule="evenodd" stroke-miterlimit="10" clip-rule="evenodd" viewBox="0 0 64.448097 74.309402" xml:space="preserve"><path fill="#9aa3ad" fill-rule="nonzero" d="M63.354 55.1546997v-36l-31.177-18-31.177 18v36l31.177 18z"/><path fill="none" stroke="#231f20" stroke-width="2" d="M63.4481 55.1546997v-36l-31.177-18-31.177 18v36l31.177 18z"/><path fill="none" stroke="#231f20" stroke-width="2" d="M63.354 55.1546997v-36l-31.177-18-31.177 18v36l31.177 18z"/><path fill="#fff" fill-rule="nonzero" stroke="#231f20" stroke-width="2" d="M35.2633 40.0573997h-5.984v-7.145l2.992-1.728 2.992 1.728Zm9.558-24.409v6.4l-8.363-4.832v-6.401l-4.182-2.411-4.192 2.422v6.4l-8.364 4.833v-6.401l-8.374 4.833v24.152l5.985 3.456v16.43l14.94 8.625 14.94-8.625v-16.429l5.985-3.457v-24.152Z"/></svg>