<svg xmlns="http://www.w3.org/2000/svg" xmlns:svg="http://www.w3.org/2000/svg" fill-rule="evenodd" stroke-miterlimit="10" clip-rule="evenodd" viewBox="0 0 68.967117 60.640999" xml:space="preserve"><path fill="#231f20" fill-rule="nonzero" stroke="#fff" stroke-width="1.5" d="M50.023059.75h-31.079c-.948 0-1.825.506-2.299 1.328l-15.54 26.915c-.474.821-.474 1.833 0 2.655l15.54 26.915c.474.822 1.351 1.328 2.299 1.328h31.079c.949 0 1.825-.506 2.3-1.328l15.539-26.915c.474-.822.474-1.834 0-2.655l-15.539-26.915c-.475-.822-1.351-1.328-2.3-1.328Z"/><path fill="none" stroke="#fff" stroke-width="1.5" d="M41.986659 22.817302h-15.006v15.006h15.006z"/><path fill="none" stroke="#fff" stroke-linecap="round" stroke-linejoin="round" stroke-width="1.5" d="M51.439259 47.2759h-33.911v-33.911h33.911Z"/><path fill="none" stroke="#fff" stroke-width="1.5" d="M41.986659 22.817302h-15.006v15.006h15.006z"/><path fill="none" stroke="#fff" stroke-width="1.5" d="M41.986659 22.817302h-15.006v15.006h15.006z"/><path fill="none" stroke="#fff" stroke-width="1.5" d="M41.986659 22.817302h-15.006v15.006h15.006z"/><path fill="none" stroke="#fff" stroke-width="1.5" d="M23.829659 40.9743v-21.308h21.308v21.308"/><path fill="none" stroke="#fff" stroke-width="1.5" d="M20.678859 44.1251v-27.61h27.61v27.61m-30.76110319 3.15112782 9.45260638-9.45260637m15.00619362-.00044927 9.45260638 9.45260637"/></svg>