<svg viewBox="0 0 301 339" xmlns="http://www.w3.org/2000/svg" fill-rule="evenodd" clip-rule="evenodd" stroke-miterlimit="10"><g transform="translate(.5 .81) scale(4.16667)"><path fill="none" d="M0 0h72v81H0z"/><clipPath id="prefix__a"><path d="M0 0h72v81H0z"/></clipPath><g clip-path="url(#prefix__a)"><path d="M67.13 58.5v-36l-31.177-18-31.177 18v36l31.177 18 31.177-18z" fill="#9aa3ad" fill-rule="nonzero"/><path d="M37.953 40.5V22.283c0-2.68 2.212-4.861 4.863-4.942l-6.863-6.863-6.863 6.863c2.729 0 4.863 2.212 4.863 4.942V40.5M33.953 40.5v18.217c0 2.68-2.212 4.861-4.863 4.942l6.863 6.863 6.863-6.863c-2.729 0-4.863-2.212-4.863-4.942V40.5" fill="#fff" fill-rule="nonzero" stroke="#231f20" stroke-width="2"/><path d="M36.953 38.768l-7.888-4.554-7.888-4.555c-2.321-1.34-3.105-4.345-1.849-6.682l-9.375 2.512 2.512 9.375c1.365-2.364 4.348-3.105 6.712-1.74l15.776 9.108" fill="#fff" fill-rule="nonzero" stroke="#231f20" stroke-width="2"/><path d="M34.953 42.232l7.888 4.554 7.888 4.555c2.321 1.34 3.105 4.345 1.849 6.682l9.375-2.512-2.512-9.375c-1.365 2.364-4.348 3.105-6.712 1.74l-15.776-9.108" fill="#fff" fill-rule="nonzero" stroke="#231f20" stroke-width="2"/><path d="M34.953 38.768l-7.888 4.554-7.888 4.555c-2.321 1.339-5.316.515-6.712-1.741L9.953 55.51l9.375 2.512c-1.365-2.364-.515-5.318 1.849-6.682l7.888-4.555 7.888-4.554" fill="#fff" fill-rule="nonzero" stroke="#231f20" stroke-width="2"/><path d="M36.953 42.232l7.888-4.554 7.888-4.555c2.321-1.339 5.316-.515 6.712 1.741l2.512-9.375-9.375-2.512c1.365 2.364.515 5.318-1.849 6.682l-7.888 4.555-7.888 4.554" fill="#fff" fill-rule="nonzero" stroke="#231f20" stroke-width="2"/><path d="M67.224 58.5v-36l-31.177-18-31.177 18v36l31.177 18 31.177-18z" fill="none" stroke="#231f20" stroke-width="2"/><path d="M67.13 58.5v-36l-31.177-18-31.177 18v36l31.177 18 31.177-18z" fill="none" stroke="#231f20" stroke-width="2"/><path d="M41.213 31.389h-10.52l-5.26 9.11 5.26 9.112h10.52l5.26-9.111-5.26-9.111z" fill="#fff" fill-rule="nonzero" stroke="#231f20" stroke-width="2"/></g></g></svg>