<svg xmlns="http://www.w3.org/2000/svg" xmlns:svg="http://www.w3.org/2000/svg" fill-rule="evenodd" stroke-miterlimit="10" clip-rule="evenodd" viewBox="0 0 64.353996 74.309402" xml:space="preserve"><path fill="#9aa3ad" fill-rule="nonzero" d="M63.354 55.1546997v-36l-31.177-18-31.177 18v36l31.177 18z"/><path fill="#231f20" fill-rule="nonzero" d="m18.4531 9.0781997 4.839 11.133-3.679-11.803Z"/><path fill="#231f20" fill-rule="nonzero" d="m18.4531 9.0781997 4.839 11.133-3.679-11.803Zm-5.7096 3.2965 6.454 9.705-5.37-10.331Zm-5.7623 3.3268 8.514 8.914-7.362-9.579Z"/><path fill="#231f20" fill-rule="nonzero" d="m6.9812 15.7014997 8.514 8.914-7.362-9.579Zm-5.9805 3.4537v.278l11.299 8.31-10.129-9.264Zm-.0005 7.8832 8.708 4.326-8.708-5.55Z"/><path fill="#231f20" fill-rule="nonzero" d="m1.0002 27.0383997 8.708 4.326-8.708-5.55Zm0 6.3112 6.799 2.022-6.799-2.835Zm0 5.6259 5.629.667-5.629-1.281Z"/><path fill="#231f20" fill-rule="nonzero" d="m1.0002 38.9754997 5.629.667-5.629-1.281Zm56.6883.6668 5.665-.671v-.618Z"/><path fill="#231f20" fill-rule="nonzero" d="m57.6885 39.6422997 5.665-.671v-.618Zm-1.1691-4.2705 6.835-2.033v-.818Zm-1.9098-4.0077 8.744-4.344v-1.229Z"/><path fill="#231f20" fill-rule="nonzero" d="m54.6096 31.3640997 8.744-4.344v-1.229Zm-2.5914916-3.62133713 11.33597752-8.33598404-.00022345-.2518133-1.19314956-.68909136zM48.8226 24.6158997l8.527-8.928-1.153-.666Z"/><path fill="#231f20" fill-rule="nonzero" d="m48.8226 24.6158997 8.527-8.928-1.153-.666Zm-3.7017-2.5362 6.464-9.72-1.086-.627Zm-4.0959-1.8684 4.847-11.15-1.162-.671Z"/><path fill="#231f20" fill-rule="nonzero" d="m41.025 20.2112997 4.847-11.15-1.162-.671Zm-4.365-1.1439 3.19-13.483-1.405-.811ZM31.239743 1.69594658l.91900778 16.98514839.91957654-17.00551233-.90146765-.5210567Z"/><path fill="#231f20" fill-rule="nonzero" d="m31.239743 1.69594658.91900778 16.98514839.91957654-17.00551233-.90146765-.5210567ZM24.4717 5.6033997l3.186 13.464-1.783-14.274Z"/><path fill="none" stroke="#231f20" stroke-width="2" d="M63.354 55.1546997v-36l-31.177-18-31.177 18v36l31.177 18z"/><path fill="#9aa3ad" fill-rule="nonzero" stroke="#231f20" stroke-linecap="round" stroke-linejoin="round" stroke-width="2" d="m49.3181 29.1539997-17.171 9.927-17.171-9.927v26.98l17.171 9.927v.001-.001l17.171-9.927Z"/><path fill="#231f20" fill-rule="nonzero" stroke="#231f20" stroke-linecap="round" stroke-linejoin="round" stroke-width="2" d="m49.3181 29.1539997-17.171 9.927-17.171-9.927v26.98l17.171 9.927v.001-.001l17.171-9.927Z" opacity=".3"/><path fill="#9aa3ad" fill-rule="nonzero" d="M39.2188 32.1516997c-2.911 2.039-5.248 4.141-7.072 6.008-1.733-1.842-4.02-3.964-6.934-6.008-2.435-1.708-4.756-2.976-6.772-3.919v26.98c1.955.966 4.131 2.198 6.403 3.772 3.004 2.081 5.418 4.235 7.303 6.155 1.88-1.937 4.313-4.125 7.367-6.229 2.251-1.551 4.408-2.757 6.34-3.698v-26.98c-2.008.985-4.27 2.262-6.635 3.919"/><path fill="none" stroke="#231f20" stroke-width="1.5" d="M39.2188 32.1516997c-2.911 2.039-5.248 4.141-7.072 6.008-1.733-1.842-4.02-3.964-6.934-6.008-2.435-1.708-4.756-2.976-6.772-3.919v26.98c1.955.966 4.131 2.198 6.403 3.772 3.004 2.081 5.418 4.235 7.303 6.155 1.88-1.937 4.313-4.125 7.367-6.229 2.251-1.551 4.408-2.757 6.34-3.698v-26.98c-2.008.985-4.27 2.262-6.635 3.919z"/><path fill="#fff" fill-rule="nonzero" stroke="#231f20" d="M42.3149 26.5369997c-1.449.578-3.825 1.739-6.118 3.993-2.247 2.208-3.441 4.51-4.05 5.934v26.981c1.123-1.831 2.839-4.178 5.376-6.451 1.698-1.52 3.362-2.647 4.792-3.477z"/><path fill="#fff" fill-rule="nonzero" stroke="#231f20" d="M21.9796 26.5369997c1.584.717 4.005 2.049 6.329 4.435 1.957 2.01 3.141 4.042 3.839 5.492v26.981c-1.007-1.725-2.596-4.009-5.018-6.229-1.847-1.694-3.664-2.879-5.15-3.699Z"/></svg>