<svg viewBox="0 0 301 338" xmlns="http://www.w3.org/2000/svg" fill-rule="evenodd" clip-rule="evenodd" stroke-miterlimit="10"><g transform="translate(.5) scale(4.16667)"><path fill="none" d="M0 0h72v81H0z"/><clipPath id="prefix__a"><path d="M0 0h72v81H0z"/></clipPath><g clip-path="url(#prefix__a)"><path d="M67.177 58.5v-36L36 4.5l-31.177 18v36L36 76.5l31.177-18z" fill="#9aa3ad" fill-rule="nonzero"/><path d="M56.14 30.13c-1.04-3.702-3.077-6.059-3.874-6.96-3.83-4.328-9.876-6.876-15.602-6.69-.21.005-.424.02-.634.033-.21-.014-.425-.028-.635-.033-5.725-.186-11.77 2.362-15.6 6.69-.798.901-2.835 3.258-3.876 6.96-.982 3.502-.553 6.384-.224 8.478.23 1.446.644 4.08 1.933 6.79-1.255 1.154-1.632 2.328-1.766 2.862-.7 2.858 1.236 5.645 2.81 6.852.03.02.048.038.058.043 1.674 1.254 3.206 1.507 4.346 1.47.282-.039 1.393-.163 2.276.562.577.472.782 1.083.844 1.274.34 1.04-.152 1.608.053 3.354.043.358.067.54.138.73.253.654.84 1.15 2.133 1.656.907.357 2.43.825 4.533.887h5.954c2.104-.062 3.626-.53 4.532-.887 1.293-.506 1.88-1.002 2.133-1.656.072-.19.096-.372.14-.73.204-1.746-.288-2.314.051-3.354.062-.19.267-.802.844-1.274.883-.725 1.995-.6 2.276-.563 1.141.038 2.672-.215 4.347-1.469.01-.005.028-.024.057-.043 1.575-1.207 3.512-3.994 2.81-6.852-.129-.534-.51-1.708-1.765-2.862 1.288-2.71 1.703-5.344 1.932-6.79.33-2.094.76-4.976-.224-8.478" fill="#fff" fill-rule="nonzero"/><path d="M56.14 30.13c-1.04-3.702-3.077-6.059-3.874-6.96-3.83-4.328-9.876-6.876-15.602-6.69-.21.005-.424.02-.634.033-.21-.014-.425-.028-.635-.033-5.725-.186-11.77 2.362-15.6 6.69-.798.901-2.835 3.258-3.876 6.96-.982 3.502-.553 6.384-.224 8.478.23 1.446.644 4.08 1.933 6.79-1.255 1.154-1.632 2.328-1.766 2.862-.7 2.858 1.236 5.645 2.81 6.852.03.02.048.038.058.043 1.674 1.254 3.206 1.507 4.346 1.47.282-.039 1.393-.163 2.276.562.577.472.782 1.083.844 1.274.34 1.04-.152 1.608.053 3.354.043.358.067.54.138.73.253.654.84 1.15 2.133 1.656.907.357 2.43.825 4.533.887h5.954c2.104-.062 3.626-.53 4.532-.887 1.293-.506 1.88-1.002 2.133-1.656.072-.19.096-.372.14-.73.204-1.746-.288-2.314.051-3.354.062-.19.267-.802.844-1.274.883-.725 1.995-.6 2.276-.563 1.141.038 2.672-.215 4.347-1.469.01-.005.028-.024.057-.043 1.575-1.207 3.512-3.994 2.81-6.852-.129-.534-.51-1.708-1.765-2.862 1.288-2.71 1.703-5.344 1.932-6.79.33-2.094.76-4.976-.224-8.478z" fill="none" stroke="#231f20" stroke-width="2"/><path d="M20.596 38.638a6.93 6.93 0 00-.573 1.354c-.115.43-.089.825.055.979.074.084.151.12.272.248.132.115.274.338.363.707.085.36.124.85.071 1.29a3.127 3.127 0 01-.41 1.186 7.094 7.094 0 01-.499.729c-.198.259-.4.454-.599.636l-.638.529-.159.13a.315.315 0 00-.086.049l-.233.164c-.6.473-1.14 1.05-1.653 1.793l-1.29-.338c.697-.916 1.315-1.66 2.01-2.332.692-.66 1.483-1.237 1.983-2.067.26-.404.336-.921.185-1.38-.139-.453-.397-.886-.374-1.376.064-.99.854-1.715 1.575-2.301M51.48 38.638c.72.586 1.51 1.31 1.575 2.3.023.49-.235.924-.374 1.378-.151.458-.075.975.185 1.379.5.83 1.29 1.407 1.983 2.067.695.672 1.313 1.416 2.01 2.332l-1.29.338c-.513-.742-1.052-1.32-1.653-1.793l-.233-.164a.315.315 0 00-.086-.048l-.16-.131-.637-.53a4.753 4.753 0 01-.6-.635 7.094 7.094 0 01-.497-.73 3.127 3.127 0 01-.411-1.184 3.939 3.939 0 01.07-1.291c.09-.37.232-.592.364-.707.12-.128.198-.164.272-.248.144-.154.17-.548.055-.98a6.93 6.93 0 00-.573-1.353M31.26 50.01c-1.99 1.59-4.416 1.38-5.153 1.314-1.168-.099-2.409-.254-3.296-1.219-1.344-1.469-1.228-4.17.026-5.662 1.952-2.322 6.277-1.232 8.39.54.494.413 1.692 1.412 1.61 2.731-.069 1.094-.978 1.818-1.577 2.296M39.156 56.15a1.473 1.473 0 01-.672.317c-.533.104-.79-.442-1.574-.754a3.081 3.081 0 00-.88-.208c-.203.017-.52.065-.88.208-.784.312-1.04.858-1.573.754a1.473 1.473 0 01-.672-.316c-.543-.447-.665-1.236-.335-1.855.104-.252.988-2.32 1.812-3.412.397-.573.813-.701.975-.737.181-.04.383-.041.653-.042.273-.001.496-.002.691.042.164.036.581.165.976.737.823 1.092 1.708 3.16 1.812 3.412.33.619.208 1.408-.334 1.855M49.249 50.105c-.888.965-2.128 1.12-3.292 1.22-.741.064-3.167.275-5.157-1.315-.6-.478-1.508-1.202-1.577-2.296-.082-1.319 1.116-2.318 1.61-2.732 2.113-1.77 6.438-2.86 8.39-.538 1.254 1.49 1.37 4.192.026 5.661" fill="#231f20" fill-rule="nonzero"/><path d="M67.177 58.5v-36L36 4.5l-31.177 18v36L36 76.5l31.177-18z" fill="none" stroke="#231f20" stroke-width="2"/></g></g></svg>