<svg viewBox="0 0 301 338" xmlns="http://www.w3.org/2000/svg" fill-rule="evenodd" clip-rule="evenodd" stroke-miterlimit="10"><g transform="translate(.5) scale(4.16667)"><path fill="none" d="M0 0h72v81H0z"/><clipPath id="prefix__a"><path d="M0 0h72v81H0z"/></clipPath><g clip-path="url(#prefix__a)"><path d="M67.177 58.5v-36L36 4.5l-31.177 18v36L36 76.5l31.177-18z" fill="#9aa3ad" fill-rule="nonzero"/><clipPath id="prefix__b"><path d="M4.823 22.5v36L36 76.5l31.177-18v-36L36 4.5l-31.177 18z" clip-rule="nonzero"/></clipPath><g clip-path="url(#prefix__b)" stroke="#231f20"><path d="M59.47.697L20.127 40.04l8.33 8.33 22.515-22.448c2.715-2.866 8.505-9.844 8.883-19.62A26.37 26.37 0 0059.47.696zM30.443 50.356L18.141 38.054a1.663 1.663 0 00-2.35 0l-1.163 1.162a1.663 1.663 0 000 2.35L26.93 53.87a1.663 1.663 0 002.351 0l1.162-1.162a1.663 1.663 0 000-2.351z" fill="#fff" fill-rule="nonzero" stroke-width="2"/><path fill="#9aa3ad" stroke-width="2" d="M22.937 49.876l-4.315-4.316L5.475 58.708l4.315 4.315z"/><path d="M23.634 43.546L59.047 8.132M15.335 48.846l4.316 4.317m-7.603-1.03l4.316 4.317M8.76 55.42l4.317 4.316" fill="none"/><path d="M12.53.64l39.343 39.344-8.33 8.33-22.516-22.448C18.313 23 12.523 16.022 12.145 6.245A26.37 26.37 0 0112.53.64z" fill="#fff" fill-rule="nonzero" stroke-width="2"/><path d="M41.557 50.3l12.302-12.303a1.663 1.663 0 012.35 0l1.163 1.162a1.663 1.663 0 010 2.351L45.07 53.812a1.663 1.663 0 01-2.351 0l-1.162-1.162a1.663 1.663 0 010-2.35z" fill="#fff" fill-rule="nonzero" stroke-width="2"/><path fill="#9aa3ad" stroke-width="2" d="M62.21 62.967l4.315-4.316-13.147-13.147-4.315 4.315z"/><path d="M48.366 43.49L12.953 8.075M56.665 48.79l-4.316 4.316m7.603-1.029l-4.316 4.316m7.604-1.029l-4.317 4.316" fill="none"/></g><path d="M67.177 58.5v-36L36 4.5l-31.177 18v36L36 76.5l31.177-18z" fill="none" stroke="#231f20" stroke-width="2"/></g></g></svg>