<svg xmlns="http://www.w3.org/2000/svg" xmlns:svg="http://www.w3.org/2000/svg" fill-rule="evenodd" stroke-linecap="round" stroke-linejoin="round" stroke-miterlimit="10" clip-rule="evenodd" viewBox="0 0 64.353996 74.309402" xml:space="preserve"><path fill="#9aa3ad" fill-rule="nonzero" d="M1.0002 19.1546997v36l31.177 18 31.177-18v-36l-31.177-18Z"/><g transform="translate(-3.8229 -3.3453003)"><clipPath id="a"><path d="M4.823 22.5v36L36 76.5l31.177-18v-36L36 4.5Z" clip-rule="nonzero"/></clipPath><g clip-path="url(#a)"><path fill="#fff" fill-rule="nonzero" d="M40.4062 16.1938c0 2.433-1.973 4.406-4.406 4.406-2.434 0-4.406-1.973-4.406-4.406s1.972-4.406 4.406-4.406c2.433 0 4.406 1.973 4.406 4.406"/><circle cx="-4.4060001" r="4.4060001" fill="none" stroke="#231f20" transform="matrix(0 -1 -1 0 36.0002 11.7878)"/><path fill="#fff" fill-rule="nonzero" stroke="#231f20" d="M41.046 20.6H30.954c-2.914 0-5.236 2.438-5.094 5.349l.393 8.019c.119 2.424 2.119 4.329 4.546 4.329l1.3 11.918h7.802l1.3-11.918c2.427 0 4.427-1.905 4.546-4.329l.393-8.019c.142-2.911-2.18-5.349-5.094-5.349Z"/><path fill="#fff" fill-rule="nonzero" d="M29.405 29.49c0 3.082-2.498 5.579-5.581 5.579s-5.581-2.497-5.581-5.579 2.498-5.581 5.581-5.581 5.581 2.499 5.581 5.581"/><ellipse cx="-5.5799999" fill="none" stroke="#231f20" stroke-width="1.5" rx="5.5799999" ry="5.5809999" transform="matrix(0 -1 -1 0 23.824 23.909)"/><path fill="#fff" fill-rule="nonzero" stroke="#231f20" stroke-width="1.5" d="M30.2149 35.07h-12.782c-3.691 0-6.631 3.088-6.451 6.775l.498 10.156c.15 3.07 2.683 5.482 5.757 5.482l1.647 15.095h9.88l1.647-15.095c3.074 0 5.607-2.412 5.758-5.482l.497-10.156c.181-3.687-2.76-6.775-6.451-6.775Z"/><path fill="#fff" fill-rule="nonzero" d="M52.187 35.0244c0 3.749-3.039 6.789-6.79 6.789-3.748 0-6.788-3.04-6.788-6.789 0-3.749 3.04-6.79 6.788-6.79 3.751 0 6.79 3.041 6.79 6.79"/><circle cx="-6.789" r="6.789" fill="none" stroke="#231f20" stroke-width="2" transform="matrix(0 -1 -1 0 45.398 28.2354)"/><path fill="#fff" fill-rule="nonzero" stroke="#231f20" stroke-width="2" d="M53.1722 41.8126h-15.549c-4.49 0-8.067 3.757-7.847 8.241l.605 12.356c.183 3.735 3.264 6.669 7.004 6.669l2.003 18.363h12.019l2.003-18.363c3.74 0 6.821-2.934 7.004-6.669l.606-12.356c.219-4.484-3.358-8.241-7.848-8.241Z"/></g></g><path fill="none" stroke="#231f20" stroke-linecap="butt" stroke-linejoin="miter" stroke-width="2" d="M63.354 55.1546997v-36l-31.177-18-31.177 18v36l31.177 18z"/></svg>