<svg xmlns="http://www.w3.org/2000/svg" xmlns:svg="http://www.w3.org/2000/svg" fill-rule="evenodd" stroke-miterlimit="10" clip-rule="evenodd" viewBox="0 0 64.353996 74.309402" xml:space="preserve"><path fill="#9aa3ad" fill-rule="nonzero" stroke="#231f20" stroke-width="2" d="M63.354 55.1546997v-36l-31.177-18-31.177 18v36l31.177 18z"/><path fill="#fff" fill-rule="nonzero" stroke="#231f20" stroke-width="2" d="M23.2168 33.7432997c0 4.409-3.574 7.983-7.983 7.983s-7.983-3.574-7.983-7.983zm33.8862 0c0 4.409-3.574 7.983-7.983 7.983s-7.983-3.574-7.983-7.983z"/><path fill="none" stroke="#231f20" stroke-linecap="round" stroke-linejoin="round" d="m15.2339 24.2215997-7.983 9.522h15.966Zm33.8863 0-7.983 9.522h15.966Z"/><path fill="none" stroke="#231f20" stroke-linecap="round" stroke-linejoin="round" stroke-width="2" d="M31.96517134 22.04078976c2.08050503-1.63449834 4.05468405-2.25384943 5.19781435-2.51447623 1.089573-.2479533 3.76681772-.85907588 6.62242105.16742347 2.00821248.72272006 3.12424883 1.90194194 5.44948428 1.84396901.71016166-.01764903 1.29162565-.14432059 1.6751807-.25106584"/><path fill="none" stroke="#231f20" stroke-linecap="round" stroke-linejoin="round" stroke-width="2" d="M32.10678024 22.04069355c-2.04951059-1.6341787-3.9944465-2.25369033-5.12015524-2.51425503-1.07316853-.24793432-3.7104078-.85907239-6.52366999.16729289-1.97872245.72226578-3.07855057 1.90221467-5.36831877 1.84464674-.70010733-.0187022-1.27336115-.14547009-1.6509225-.25115565"/><path fill="#fff" fill-rule="nonzero" stroke="#231f20" stroke-width="2" d="M34.9231 37.5070997v-15.852c0-1.501-1.123-2.857-2.622-2.923-1.573-.069-2.87 1.186-2.87 2.743v16.032c0 5.774-1.203 11.582-4.137 16.555-.017.028-.033.056-.049.084-1.01 1.76.347 3.956 2.376 3.956h9.112c2.029 0 3.386-2.196 2.376-3.956-.016-.028-.032-.056-.049-.084-2.934-4.973-4.137-10.781-4.137-16.555Z"/></svg>