<svg viewBox="0 0 300 338" xmlns="http://www.w3.org/2000/svg" fill-rule="evenodd" clip-rule="evenodd" stroke-miterlimit="10"><g transform="scale(4.16667)"><path fill="none" d="M0 0h72v81H0z"/><clipPath id="prefix__a"><path d="M0 0h72v81H0z"/></clipPath><g clip-path="url(#prefix__a)"><path d="M67.224 58.5v-36l-31.177-18-31.177 18v36l31.177 18 31.177-18z" fill="#9aa3ad" fill-rule="nonzero"/><path d="M67.13 58.5v-36l-31.177-18-31.177 18v36l31.177 18 31.177-18z" fill="none" stroke="#231f20" stroke-width="2"/><path d="M57.836 42.576a67.292 67.292 0 01-10.784 14.503c-.177.177-.348.354-.522.528a67.104 67.104 0 01-10.682 8.684 66.206 66.206 0 01-9.405-7.666 67.066 67.066 0 01-12.274-16.36c-3.49-6.532-1.027-14.663 5.506-18.154 5.623-3.005 12.425-1.604 16.442 3.007 4.076-4.544 10.888-5.853 16.46-2.773 6.486 3.583 8.842 11.745 5.26 18.23" fill="#fff" fill-rule="nonzero"/><path d="M57.836 42.576a67.292 67.292 0 01-10.784 14.503c-.177.177-.348.354-.522.528a67.104 67.104 0 01-10.682 8.684 66.206 66.206 0 01-9.405-7.666 67.066 67.066 0 01-12.274-16.36c-3.49-6.532-1.027-14.663 5.506-18.154 5.623-3.005 12.425-1.604 16.442 3.007 4.076-4.544 10.888-5.853 16.46-2.773 6.486 3.583 8.842 11.745 5.26 18.23z" fill="none" stroke="#231f20" stroke-width="2"/><path d="M33.624 54.07v-7.202h-7.24v-4.846h7.24v-7.278h4.846v7.278h7.24v4.846h-7.24v7.202h-4.846z" fill="#b9bdc2" fill-rule="nonzero"/><path d="M38.97 34.244h-5.846v7.278h-7.24v5.846h7.24v7.202h5.846v-7.202h7.24v-5.846h-7.24v-7.278zm-1 1v7.278h7.24v3.846h-7.24v7.202h-3.846v-7.202h-7.24v-3.846h7.24v-7.278h3.846z" fill="#231f20" fill-rule="nonzero"/></g></g></svg>