<svg viewBox="0 0 301 338" xmlns="http://www.w3.org/2000/svg" fill-rule="evenodd" clip-rule="evenodd" stroke-linecap="round" stroke-linejoin="round" stroke-miterlimit="10"><g transform="translate(.5) scale(4.16667)"><path fill="none" d="M0 0h72v81H0z"/><clipPath id="prefix__a"><path d="M0 0h72v81H0z"/></clipPath><g clip-path="url(#prefix__a)"><path d="M4.823 22.5v36L36 76.5l31.177-18v-36L36 4.5l-31.177 18z" fill="#9aa3ad" fill-rule="nonzero"/><clipPath id="prefix__b"><path d="M4.823 22.5v36L36 76.5l31.177-18v-36L36 4.5l-31.177 18z" clip-rule="nonzero"/></clipPath><g clip-path="url(#prefix__b)"><path d="M40.406 16.194a4.406 4.406 0 11-8.813-.001 4.406 4.406 0 018.813 0" fill="#fff" fill-rule="nonzero"/><circle cx="-4.406" r="4.406" fill="none" stroke="#231f20" transform="matrix(0 -1 -1 0 36 11.788)"/><path d="M41.046 20.6H30.954a5.1 5.1 0 00-5.094 5.349l.393 8.019a4.552 4.552 0 004.546 4.329l1.3 11.918h7.802l1.3-11.918a4.552 4.552 0 004.546-4.329l.393-8.019a5.1 5.1 0 00-5.094-5.349z" fill="#fff" fill-rule="nonzero" stroke="#231f20"/><path d="M29.405 29.49a5.579 5.579 0 01-5.581 5.579 5.58 5.58 0 115.581-5.579" fill="#fff" fill-rule="nonzero"/><ellipse cx="-5.58" rx="5.58" ry="5.581" fill="none" stroke="#231f20" stroke-width="1.5" transform="matrix(0 -1 -1 0 23.824 23.909)"/><path d="M30.215 35.07H17.433a6.46 6.46 0 00-6.451 6.775l.498 10.156a5.764 5.764 0 005.757 5.482l1.647 15.095h9.88l1.647-15.095a5.765 5.765 0 005.758-5.482l.497-10.156a6.459 6.459 0 00-6.451-6.775z" fill="#fff" fill-rule="nonzero" stroke="#231f20" stroke-width="1.5"/><path d="M52.187 35.024a6.79 6.79 0 11-13.578 0 6.79 6.79 0 0113.578 0" fill="#fff" fill-rule="nonzero"/><circle cx="-6.789" fill="none" stroke="#231f20" stroke-width="2" r="6.789" transform="matrix(0 -1 -1 0 45.398 28.235)"/><path d="M53.172 41.813H37.623c-4.49 0-8.067 3.757-7.847 8.24l.605 12.357a7.012 7.012 0 007.004 6.669l2.003 18.363h12.02l2.002-18.363a7.012 7.012 0 007.004-6.67l.606-12.355c.22-4.484-3.358-8.241-7.848-8.241z" fill="#fff" fill-rule="nonzero" stroke="#231f20" stroke-width="2"/></g><g><path d="M67.177 58.5v-36L36 4.5l-31.177 18v36L36 76.5l31.177-18z" fill="none" stroke="#231f20" stroke-width="2" stroke-linecap="butt" stroke-linejoin="miter"/></g></g></g></svg>