<svg viewBox="0 0 300 338" xmlns="http://www.w3.org/2000/svg" fill-rule="evenodd" clip-rule="evenodd" stroke-miterlimit="10"><g transform="scale(4.16667)"><path fill="none" d="M0 0h72v81H0z"/><clipPath id="prefix__a"><path d="M0 0h72v81H0z"/></clipPath><g clip-path="url(#prefix__a)"><path d="M4.917 22.5v36l31.13 17.973L67.178 58.5v-36L36.047 4.527 4.918 22.5z" fill="#9aa3ad" fill-rule="nonzero"/><clipPath id="prefix__b"><path d="M4.823 22.5v36L36 76.5l31.177-18v-36L36 4.5l-31.177 18z" clip-rule="nonzero"/></clipPath><g clip-path="url(#prefix__b)"><path d="M67.22 68.74c0 17.218-13.957 31.176-31.176 31.176-17.22 0-31.177-13.958-31.177-31.177s13.958-31.177 31.177-31.177S67.22 51.52 67.22 68.74" fill="#fff" fill-rule="nonzero"/><circle cx="-31.177" r="31.177" fill="none" stroke="#231f20" stroke-width="2" transform="matrix(0 -1 -1 0 36.044 37.562)"/><path d="M25.013 97.91c-4.867-5.65-8.043-14.938-8.043-25.439 0-10.992 3.48-20.656 8.74-26.208M46.379 46.263c5.258 5.551 8.739 15.215 8.739 26.208 0 10.5-3.176 19.788-8.043 25.438" fill="none" stroke="#231f20"/><path d="M60.65 50.417c0 6.515-11.017 11.797-24.606 11.797-13.59 0-24.607-5.282-24.607-11.797M50.816 41.278c0 3.855-6.614 6.981-14.773 6.981-8.158 0-14.772-3.126-14.772-6.98M36.044 48.26v51.656" fill="none" stroke="#231f20"/><path d="M51.537 22.916c-.986-.62-4.53-2.68-8.271-1.486-.985.314-2.974.948-3.49 2.714-.395 1.355.223 2.879 1.228 3.747 1.358 1.173 3.134.9 3.942.776 4.119-.634 6.263-5.05 6.59-5.751z" fill="#fff" fill-rule="nonzero" stroke="#231f20" stroke-width="2"/><path d="M31.216 26.665c.875 1.237.775 2.523.775 2.523-.13 1.68-1.49 2.634-1.618 2.721-1.245.844-2.633.622-3.296.517-4.093-.653-6.286-5.986-6.526-6.59 4.96-1.447 9.25-1.17 10.665.83" fill="#fff" fill-rule="nonzero"/><path d="M30.4 27.243c-.35-.474-1.008-.852-1.794-1.047-.778-.206-1.642-.277-2.512-.265-1.748.023-3.531.369-5.263.864l.65-1.329c.967 2.302 2.52 4.627 4.595 5.616a5.665 5.665 0 001.657.425c.573.059 1.1.016 1.559-.157.222-.082.456-.216.62-.344.196-.156.387-.35.542-.555.317-.411.499-.868.54-1.34l-.002.077a3.116 3.116 0 00-.144-1.028c-.1-.33-.255-.638-.448-.917m1.633-1.155a5.326 5.326 0 01.909 2.286c.04.254.06.593.05.814l-.003.077a4.572 4.572 0 01-.95 2.405 5.213 5.213 0 01-.884.903 4.4 4.4 0 01-1.157.648c-.821.311-1.69.357-2.47.275a7.709 7.709 0 01-2.283-.595c-1.44-.684-2.577-1.753-3.464-2.915-.904-1.17-1.594-2.421-2.16-3.782l-.424-1.023 1.075-.306c1.867-.532 3.793-.915 5.796-.944 1-.011 2.022.061 3.057.334 1.016.264 2.129.774 2.908 1.823" fill="#231f20" fill-rule="nonzero"/><path d="M27.206 28.678c1.44.024 2.897.386 4.3.99.347.153.72.297.977.582.295.241.578.495.848.762a11.951 11.951 0 011.465 1.741 12.507 12.507 0 011.887 4.117c.378 1.468.507 2.98.372 4.503a1 1 0 01-1.992-.177v-.012c.226-2.543-.438-5.204-1.905-7.284a10 10 0 00-1.23-1.463 10.545 10.545 0 00-.713-.64c-.28-.158-.473-.43-.703-.67-.908-.972-2.038-1.779-3.306-2.449" fill="#231f20" fill-rule="nonzero"/><path d="M44.718 24.672a13.44 13.44 0 00-3.26 1.583c-.243.163-.478.337-.705.516-.231.175-.43.392-.692.497-.481.289-.94.613-1.37.97-1.726 1.428-2.99 3.399-3.61 5.563l-1.922-.553c.725-2.533 2.212-4.86 4.255-6.55a13.11 13.11 0 011.618-1.145c.26-.21.6-.282.914-.384.319-.094.638-.18.959-.247 1.28-.28 2.568-.373 3.813-.25" fill="#231f20" fill-rule="nonzero"/></g><g><path d="M67.177 58.5v-36L36 4.5l-31.177 18v36L36 76.5l31.177-18z" fill="none" stroke="#231f20" stroke-width="2"/></g></g></g></svg>