<svg viewBox="0 0 300 338" xmlns="http://www.w3.org/2000/svg" fill-rule="evenodd" clip-rule="evenodd" stroke-miterlimit="10"><g transform="scale(4.16667)"><path fill="none" d="M0 0h72v81H0z"/><clipPath id="prefix__a"><path d="M0 0h72v81H0z"/></clipPath><g clip-path="url(#prefix__a)"><path d="M67.177 58.5v-36L36 4.5l-31.177 18v36L36 76.5l31.177-18z" fill="#9aa3ad" fill-rule="nonzero" stroke="#231f20" stroke-width="2"/><path d="M52.5 29.06H26.801v2.149H12.816c0 6.99 13.985 7.176 13.985 7.176v1.165h3.58a3.312 3.312 0 110 6.624h-.022l-3.558 2.82v2.946h5.091l.612-.86h14.108l.612.86h5.091v-2.946l-3.558-2.82c-1.877-.01-3.383-1.542-3.38-3.324.001-1.658 1.308-3.117 3.041-3.3h1.812v-1.165h1.777l3.835-3.068h3.342v-3.433L52.5 29.06z" fill="#fff" fill-rule="nonzero" stroke="#231f20" stroke-width="2"/><path fill="#231f20" d="M27.804 29.061h-1V39.55h1zM30.362 46.174H48.76v1H30.362zM49.233 29.061h1v9.324h-1z"/></g></g></svg>