<svg viewBox="0 0 301 338" xmlns="http://www.w3.org/2000/svg" fill-rule="evenodd" clip-rule="evenodd" stroke-miterlimit="10"><g transform="translate(.5) scale(4.16667)"><path fill="none" d="M0 0h72v81H0z"/><clipPath id="prefix__a"><path d="M0 0h72v81H0z"/></clipPath><g clip-path="url(#prefix__a)"><path d="M5.211 22.276v35.283l31.177 18 30.789-17.776V22.5L36 4.5 5.211 22.276z" fill="#9aa3ad" fill-rule="nonzero"/><clipPath id="prefix__b"><path d="M4.823 22.5v36L36 76.5l31.177-18v-36L36 4.5l-31.177 18z" clip-rule="nonzero"/></clipPath><g clip-path="url(#prefix__b)"><path d="M67.271 58.5v-36l-31.177-18-31.177 18v36l31.177 18 31.177-18z" fill="none" stroke="#231f20" stroke-width="2"/><path d="M56.445 60.503C54.743 67.584 48.457 80.948 36 80.948c-11.29 0-20.445-9.154-20.445-20.445 0-.759.316-2.461.856-5.868a295.86 295.86 0 011.951-10.984l4.663-1.111 4.882 3.529 8.235-4.294 9.234 4.647 6.411-2.47 4.001 1.319c.977 3.127 2.217 8.745.657 15.232" fill="#9aa3ad" fill-rule="nonzero"/><path d="M56.445 60.503C54.743 67.584 48.457 80.948 36 80.948c-11.29 0-20.445-9.154-20.445-20.445 0-.759.316-2.461.856-5.868a295.86 295.86 0 011.951-10.984l4.663-1.111 4.882 3.529 8.235-4.294 9.234 4.647 6.411-2.47 4.001 1.319c.977 3.127 2.217 8.745.657 15.232" fill="#231f20" fill-rule="nonzero" opacity=".3"/><path d="M67.177 69.349c0 17.218-13.96 31.177-31.177 31.177-17.218 0-31.177-13.96-31.177-31.177 0-10.67 5.37-20.078 13.539-25.698l3.609 6.22L37.85 56.93l15.168-5.9 2.77-5.76c6.949 5.71 11.389 14.38 11.389 24.079" fill="#fff" fill-rule="nonzero"/><path d="M67.177 69.349c0 17.218-13.96 31.177-31.177 31.177-17.218 0-31.177-13.96-31.177-31.177 0-10.67 5.37-20.078 13.539-25.698l3.609 6.22L37.85 56.93l15.168-5.9 2.77-5.76c6.949 5.71 11.389 14.38 11.389 24.079z" fill="none" stroke="#231f20" stroke-width="2"/><path d="M53.806 31.582l-2.784 4.88-13.543 2.482-13.61-5.417-2.783-5.676a27.27 27.27 0 0115.805-3.708 27.283 27.283 0 0116.915 7.439z" fill="#fff" fill-rule="nonzero" stroke="#231f20" stroke-width="2"/><path d="M35.557 43.603a.5.5 0 01-.312-.109l-11.516-9.192a.5.5 0 01.487-.859L37.53 38.43l13.243-2.159a.499.499 0 01.272.956l-15.298 6.34a.508.508 0 01-.191.037" fill="#9aa3ad" fill-rule="nonzero"/><path d="M24.04 32.912a1 1 0 00-.623 1.782l11.516 9.19a1 1 0 001.007.144l15.297-6.34a1 1 0 00-.543-1.91L37.58 37.915l-13.19-4.94a.997.997 0 00-.35-.063m0 1l13.439 5.033 13.374-2.18-15.297 6.339-11.516-9.192" fill="#231f20" fill-rule="nonzero"/><path d="M35.556 43.104l-11.515-9.192 13.439 5.033 13.375-2.18-15.299 6.339z" fill="#231f20" fill-rule="nonzero" opacity=".3"/><path d="M35.556 43.104l1.924-4.16" fill="none" stroke="#231f20" stroke-width=".5" stroke-linecap="square"/><path d="M53.844 50.466l3.709 6.12.188.31-.128.267-2.762 5.764-.021-.24 2.356 4.145-2.794-3.863-.072-.099.05-.142 2.117-6.03.06.576-4.354-5.68 1.65-1.128zM22.777 50.463l-4.387 5.1.07-.44 1.524 6.24-2.452-5.937-.081-.197.152-.244 3.563-5.707 1.61 1.185z" fill="#231f20" fill-rule="nonzero"/><path d="M45.822 42.842l-4.973 4.06 2.8 2.63 3.431-.63-1.258-6.06zM41.083 14.802l-2.793 4.566 4.816.25-2.023-4.816zM24.04 44.243l5.536 4.55-.175-5.212-5.36.662zM57.87 36.821l-1.785 2.812 3.677.562 1.513-3.248-3.406-.126zM11.584 34.436l2.502 3.377 1.794-3.447-4.296.07z" fill="#fff" fill-rule="nonzero" stroke="#231f20"/></g><g><path d="M67.177 58.5v-36L36 4.5l-31.177 18v36L36 76.5l31.177-18z" fill="none" stroke="#231f20" stroke-width="2"/></g></g></g></svg>