<svg xmlns="http://www.w3.org/2000/svg" xmlns:svg="http://www.w3.org/2000/svg" fill-rule="evenodd" stroke-miterlimit="10" clip-rule="evenodd" viewBox="0 0 64.353996 74.309402" xml:space="preserve"><path fill="#9aa3ad" fill-rule="nonzero" d="M1.0002 19.1546997v36l31.177 18 31.177-18v-36l-31.177-18Z"/><g transform="translate(-3.8229 -3.3453003)"><clipPath id="a"><path d="M4.823 22.5v36L36 76.5l31.177-18v-36L36 4.5Z" clip-rule="nonzero"/></clipPath><g clip-path="url(#a)"><path fill="none" stroke="#231f20" stroke-width="2" d="M67.271 58.5v-36l-31.177-18-31.177 18v36l31.177 18z"/><path fill="#fff" fill-rule="nonzero" d="M67.1769 68.7508c0 17.219-13.958 31.177-31.177 31.177-17.218 0-31.177-13.958-31.177-31.177s13.959-31.177 31.177-31.177c17.219 0 31.177 13.958 31.177 31.177"/><circle cx="-31.177" r="31.177" fill="none" stroke="#231f20" stroke-width="2" transform="matrix(0 -1 -1 0 35.9999 37.5738)"/><path fill="none" stroke="#231f20" d="M24.9692 97.9208c-4.867-5.649-8.043-14.937-8.043-25.438 0-10.992 3.48-20.656 8.739-26.208m20.6698.0003c5.258 5.551 8.739 15.215 8.739 26.208 0 10.5-3.176 19.788-8.043 25.438"/><path fill="none" stroke="#231f20" d="M60.6063 50.4287c0 6.515-11.017 11.797-24.606 11.797-13.59 0-24.607-5.282-24.607-11.797m39.3792-9.1388c0 3.855-6.614 6.981-14.773 6.981-8.158 0-14.772-3.126-14.772-6.981m14.773 6.9813v51.656"/><path fill="#fff" fill-rule="nonzero" d="M38.3789 43.0469c.34-7.366 4.364-13.041 6.389-15.329l6.838 1.189-8.315-12.407-16.293 8.126 5.953 1.036c-1.195 2.339-3.079 7.916-.773 17.385"/><path fill="#231f20" fill-rule="nonzero" d="M38.3788 43.0469c-.016-2.822.482-5.681 1.471-8.382.987-2.704 2.356-5.277 4.168-7.61h.001l.36-.42.56.097 6.838 1.19-1.002 1.542-8.315-12.407 1.277.338-16.293 8.126-.275-1.88 5.953 1.036 1.304.227-.585 1.213c-.687 1.177-1.2 2.511-1.563 3.888-.361 1.381-.579 2.815-.684 4.265-.112 1.451-.082 2.919.021 4.385.088 1.471.318 2.931.563 4.392-.407-1.422-.803-2.858-1.059-4.328-.27-1.466-.471-2.955-.525-4.463-.061-1.506-.005-3.029.214-4.549.224-1.519.607-3.034 1.252-4.5l.719 1.44-5.953-1.035-2.999-.522 2.724-1.359 16.294-8.126.787-.392.49.73 8.314 12.407 1.302 1.943-2.304-.401-6.838-1.189.921-.323h-.001c-1.894 1.916-3.503 4.211-4.746 6.678-1.253 2.472-2.073 5.182-2.391 7.989"/></g></g><path fill="none" stroke="#231f20" stroke-width="2" d="M63.354 55.1546997v-36l-31.177-18-31.177 18v36l31.177 18z"/></svg>