<svg viewBox="0 0 300 338" xmlns="http://www.w3.org/2000/svg" fill-rule="evenodd" clip-rule="evenodd" stroke-miterlimit="10"><g transform="scale(4.16667)"><path fill="none" d="M0 0h72v81H0z"/><clipPath id="prefix__a"><path d="M0 0h72v81H0z"/></clipPath><g clip-path="url(#prefix__a)"><path d="M4.823 22.5v36L36 76.5l31.177-18v-36L36 4.5l-31.177 18z" fill="#9aa3ad" fill-rule="nonzero"/><clipPath id="prefix__b"><path d="M4.823 22.5v36L36 76.5l31.177-18v-36L36 4.5l-31.177 18z" clip-rule="nonzero"/></clipPath><g clip-path="url(#prefix__b)"><path d="M67.271 58.5v-36l-31.177-18-31.177 18v36l31.177 18 31.177-18z" fill="none" stroke="#231f20" stroke-width="2"/><path d="M35.483 19.331V61.67h-7.66a8.105 8.105 0 01-8.112-8.112v-4.152h-3.573a.96.96 0 01-.89-1.309l4.474-11.008c-.01-.118-.01-.236-.01-.365 0-9.088 6.91-16.534 15.771-17.392z" fill="#fff" fill-rule="nonzero" stroke="#231f20" stroke-width="2"/><path d="M35.483 49.572h14.133M35.483 55.62h8.97M35.483 37.476h14.133M34.605 31.273h4.678l6.048-6.048M35.483 31.428h19.201" fill="none" stroke="#231f20" stroke-width="2"/><path d="M47.47 55.62a2.14 2.14 0 11-4.279 0 2.14 2.14 0 014.279 0" fill="#fff" fill-rule="nonzero"/><circle cx="-2.139" r="2.139" fill="none" stroke="#231f20" stroke-width="2" transform="matrix(0 -1 -1 0 45.331 53.482)"/><path d="M56.82 31.428a2.14 2.14 0 11-4.28-.001 2.14 2.14 0 014.28 0" fill="#fff" fill-rule="nonzero"/><circle cx="-2.139" r="2.139" fill="none" stroke="#231f20" stroke-width="2" transform="matrix(0 -1 -1 0 54.68 29.289)"/><path d="M52.145 37.476a2.14 2.14 0 11-4.28-.001 2.14 2.14 0 014.28 0" fill="#fff" fill-rule="nonzero"/><circle cx="-2.139" r="2.139" fill="none" stroke="#231f20" stroke-width="2" transform="matrix(0 -1 -1 0 50.006 35.337)"/><path d="M52.145 49.572a2.14 2.14 0 11-4.28 0 2.14 2.14 0 014.28 0" fill="#fff" fill-rule="nonzero"/><circle cx="-2.139" r="2.139" fill="none" stroke="#231f20" stroke-width="2" transform="matrix(0 -1 -1 0 50.006 47.433)"/><path d="M39.296 49.572l6.048-6.048H55.77" fill="none" stroke="#231f20" stroke-width="2"/><path d="M47.47 25.38a2.14 2.14 0 11-4.279-.001 2.14 2.14 0 014.279 0" fill="#fff" fill-rule="nonzero"/><circle cx="-2.139" r="2.139" fill="none" stroke="#231f20" stroke-width="2" transform="matrix(0 -1 -1 0 45.331 23.24)"/><path d="M56.82 43.524a2.14 2.14 0 11-4.28 0 2.14 2.14 0 014.28 0" fill="#fff" fill-rule="nonzero"/><circle cx="-2.139" r="2.139" fill="none" stroke="#231f20" stroke-width="2" transform="matrix(0 -1 -1 0 54.68 41.385)"/></g><g><path d="M67.177 58.5v-36L36 4.5l-31.177 18v36L36 76.5l31.177-18z" fill="none" stroke="#231f20" stroke-width="2"/></g></g></g></svg>