<svg xmlns="http://www.w3.org/2000/svg" xmlns:svg="http://www.w3.org/2000/svg" fill-rule="evenodd" stroke-miterlimit="10" clip-rule="evenodd" viewBox="0 0 64.353996 74.309402" xml:space="preserve"><path fill="#9aa3ad" fill-rule="nonzero" d="M63.354 55.1544997v-36l-31.177-18-31.177 18v36l31.177 18z"/><path fill="#fff" fill-rule="nonzero" d="M52.3173 26.7846997c-1.04-3.702-3.077-6.059-3.874-6.961-3.831-4.327-9.876-6.875-15.602-6.689-.21.005-.424.019-.634.033-.21-.014-.425-.028-.635-.033-5.725-.186-11.77 2.362-15.601 6.689-.797.902-2.834 3.259-3.875 6.961-.982 3.502-.553 6.384-.224 8.478.229 1.446.644 4.08 1.933 6.79-1.255 1.154-1.632 2.328-1.766 2.862-.701 2.858 1.236 5.645 2.81 6.852.029.019.048.038.058.043 1.674 1.254 3.206 1.507 4.346 1.469.282-.038 1.393-.162 2.276.563.577.472.782 1.083.844 1.274.339 1.04-.152 1.608.053 3.354.043.358.067.539.138.73.253.654.84 1.15 2.133 1.656.907.357 2.429.825 4.533.887h5.954c2.104-.062 3.626-.53 4.532-.887 1.293-.506 1.88-1.002 2.133-1.656.072-.191.096-.372.139-.73.205-1.746-.287-2.314.052-3.354.062-.191.267-.802.844-1.274.883-.725 1.995-.601 2.276-.563 1.141.038 2.672-.215 4.347-1.469.009-.005.028-.024.057-.043 1.575-1.207 3.512-3.994 2.81-6.852-.129-.534-.51-1.708-1.765-2.862 1.288-2.71 1.703-5.344 1.932-6.79.329-2.094.759-4.976-.224-8.478"/><path fill="none" stroke="#231f20" stroke-width="2" d="M52.3173 26.7846997c-1.04-3.702-3.077-6.059-3.874-6.961-3.831-4.327-9.876-6.875-15.602-6.689-.21.005-.424.019-.634.033-.21-.014-.425-.028-.635-.033-5.725-.186-11.77 2.362-15.601 6.689-.797.902-2.834 3.259-3.875 6.961-.982 3.502-.553 6.384-.224 8.478.229 1.446.644 4.08 1.933 6.79-1.255 1.154-1.632 2.328-1.766 2.862-.701 2.858 1.236 5.645 2.81 6.852.029.019.048.038.058.043 1.674 1.254 3.206 1.507 4.346 1.469.282-.038 1.393-.162 2.276.563.577.472.782 1.083.844 1.274.339 1.04-.152 1.608.053 3.354.043.358.067.539.138.73.253.654.84 1.15 2.133 1.656.907.357 2.429.825 4.533.887h5.954c2.104-.062 3.626-.53 4.532-.887 1.293-.506 1.88-1.002 2.133-1.656.072-.191.096-.372.139-.73.205-1.746-.287-2.314.052-3.354.062-.191.267-.802.844-1.274.883-.725 1.995-.601 2.276-.563 1.141.038 2.672-.215 4.347-1.469.009-.005.028-.024.057-.043 1.575-1.207 3.512-3.994 2.81-6.852-.129-.534-.51-1.708-1.765-2.862 1.288-2.71 1.703-5.344 1.932-6.79.329-2.094.759-4.976-.224-8.478Z"/><path fill="#231f20" fill-rule="nonzero" d="M16.7736 35.2922997c-.252.453-.448.934-.573 1.354-.115.431-.089.825.055.979.074.084.151.12.272.248.132.115.274.338.363.707.085.361.124.85.071 1.291-.048.426-.221.866-.411 1.185-.197.324-.319.496-.498.729-.198.259-.4.454-.599.636l-.638.529-.159.131c-.016.005-.039.015-.086.048l-.233.164c-.601.473-1.14 1.051-1.653 1.793l-1.29-.338c.697-.916 1.315-1.66 2.01-2.332.692-.66 1.483-1.237 1.983-2.067.26-.404.336-.921.185-1.379-.139-.454-.397-.887-.374-1.377.064-.99.854-1.715 1.575-2.301m30.8831 0c.721.586 1.511 1.311 1.575 2.301.023.49-.235.923-.374 1.377-.151.458-.075.975.185 1.379.5.83 1.291 1.407 1.983 2.067.695.672 1.313 1.416 2.01 2.332l-1.29.338c-.513-.742-1.052-1.32-1.653-1.793l-.233-.164c-.047-.033-.07-.043-.086-.048l-.159-.131-.638-.529c-.199-.182-.401-.377-.599-.636-.179-.233-.301-.405-.498-.729-.19-.319-.363-.759-.411-1.185-.053-.441-.014-.93.071-1.291.089-.369.231-.592.363-.707.121-.128.198-.164.272-.248.144-.154.17-.548.055-.979-.125-.42-.321-.901-.573-1.354m-20.2193 11.3726c-1.991 1.59-4.416 1.379-5.153 1.314-1.168-.099-2.409-.254-3.296-1.219-1.344-1.469-1.228-4.171.026-5.662 1.952-2.322 6.277-1.232 8.389.539.495.414 1.693 1.413 1.611 2.732-.069 1.094-.978 1.818-1.577 2.296m7.8952 6.1403c-.204.169-.438.273-.672.316-.533.104-.789-.442-1.574-.754-.359-.143-.676-.191-.88-.208-.203.017-.52.065-.88.208-.784.312-1.04.858-1.573.754-.234-.043-.468-.147-.672-.316-.542-.447-.664-1.236-.334-1.855.104-.252.988-2.32 1.812-3.412.397-.573.813-.701.975-.737.181-.04.383-.041.653-.042.273-.001.496-.002.691.042.164.036.581.165.976.737.823 1.092 1.708 3.16 1.812 3.412.329.619.208 1.408-.334 1.855m10.0931-6.0455c-.888.965-2.128 1.12-3.292 1.219-.741.065-3.167.276-5.157-1.314-.599-.478-1.508-1.202-1.577-2.296-.082-1.319 1.116-2.318 1.611-2.732 2.112-1.771 6.437-2.861 8.389-.538 1.254 1.49 1.37 4.192.026 5.661"/><path fill="none" stroke="#231f20" stroke-width="2" d="M63.354 55.1546997v-36l-31.177-18-31.177 18v36l31.177 18z"/></svg>