<svg xmlns="http://www.w3.org/2000/svg" xmlns:svg="http://www.w3.org/2000/svg" fill-rule="evenodd" stroke-miterlimit="10" clip-rule="evenodd" viewBox="0 0 64.353996 74.309402" xml:space="preserve"><path fill="#9aa3ad" fill-rule="nonzero" d="M1.0938 19.1546997v36l31.131 17.973 31.129-17.973v-36l-31.129-17.973Z"/><g transform="translate(-3.8229 -3.3453003)"><clipPath id="a"><path d="M4.823 22.5v36L36 76.5l31.177-18v-36L36 4.5Z" clip-rule="nonzero"/></clipPath><g clip-path="url(#a)"><path fill="#fff" fill-rule="nonzero" d="M67.2208 68.7392c0 17.219-13.958 31.177-31.177 31.177s-31.177-13.958-31.177-31.177 13.958-31.177 31.177-31.177 31.177 13.958 31.177 31.177"/><circle cx="-31.177" r="31.177" fill="none" stroke="#231f20" stroke-width="2" transform="matrix(0 -1 -1 0 36.0438 37.5622)"/><path fill="none" stroke="#231f20" d="M25.0131 97.9092c-4.867-5.649-8.043-14.937-8.043-25.438 0-10.992 3.48-20.656 8.739-26.208m20.6698.0003c5.258 5.551 8.739 15.215 8.739 26.208 0 10.5-3.176 19.788-8.043 25.438"/><path fill="none" stroke="#231f20" d="M60.6502 50.4171c0 6.515-11.017 11.797-24.606 11.797-13.59 0-24.607-5.282-24.607-11.797m39.3792-9.1387c0 3.855-6.614 6.981-14.773 6.981-8.158 0-14.772-3.126-14.772-6.981m14.773 6.9812v51.656"/><path fill="#fff" fill-rule="nonzero" stroke="#231f20" stroke-width="2" d="M51.5368 22.9157c-.986-.619-4.529-2.679-8.271-1.486-.985.314-2.974.948-3.489 2.714-.396 1.355.222 2.879 1.227 3.747 1.358 1.173 3.134.9 3.942.776 4.119-.634 6.263-5.05 6.591-5.751z"/><path fill="#fff" fill-rule="nonzero" d="M31.216 26.6653c.875 1.237.775 2.523.775 2.523-.13 1.679-1.49 2.634-1.618 2.721-1.245.844-2.633.622-3.296.517-4.093-.653-6.286-5.986-6.526-6.591 4.96-1.446 9.25-1.17 10.665.83"/><path fill="#231f20" fill-rule="nonzero" d="M30.3997 27.243c-.35-.474-1.008-.852-1.794-1.047-.778-.206-1.642-.277-2.512-.265-1.748.023-3.531.369-5.263.864l.65-1.329c.967 2.302 2.521 4.627 4.595 5.616.534.217 1.023.361 1.657.425.573.059 1.101.016 1.559-.157.222-.082.456-.216.62-.344.196-.156.387-.35.542-.555.317-.411.499-.868.541-1.34l-.003.077c.009-.226-.004-.336-.029-.524-.025-.17-.062-.34-.115-.504-.1-.33-.255-.638-.448-.917m1.633-1.155c.317.454.566.957.727 1.483.082.262.141.53.182.803.04.254.061.593.05.814l-.003.077c-.071.89-.432 1.74-.949 2.405-.259.337-.548.633-.885.903-.373.289-.742.489-1.157.648-.821.311-1.69.357-2.469.275-.725-.065-1.564-.281-2.284-.595-1.44-.684-2.577-1.753-3.464-2.915-.904-1.17-1.594-2.421-2.159-3.782l-.425-1.023 1.075-.306c1.867-.532 3.793-.915 5.796-.944 1-.011 2.022.061 3.057.334 1.016.264 2.129.774 2.908 1.823"/><path fill="#231f20" fill-rule="nonzero" d="M27.2065 28.6781c1.44.024 2.897.386 4.3.989.347.154.719.298.977.583.294.241.577.495.847.762.544.532 1.033 1.116 1.466 1.741.878 1.24 1.512 2.654 1.886 4.117.378 1.468.507 2.979.372 4.503-.049.55-.534.956-1.084.908-.55-.049-.957-.535-.908-1.085l.001-.012c.226-2.543-.438-5.204-1.905-7.284-.363-.524-.774-1.017-1.231-1.463-.227-.224-.465-.437-.712-.64-.281-.158-.473-.431-.703-.67-.908-.972-2.038-1.779-3.306-2.449m17.5111-4.0062c-1.183.396-2.283.924-3.259 1.583-.244.163-.479.337-.706.516-.231.175-.429.392-.692.497-.481.289-.939.613-1.37.97-1.726 1.428-2.99 3.399-3.61 5.563l-1.922-.553c.725-2.533 2.212-4.859 4.255-6.549.51-.423 1.052-.806 1.618-1.146.261-.21.601-.282.914-.384.319-.094.638-.179.959-.247 1.28-.279 2.568-.373 3.813-.25"/></g></g><path fill="none" stroke="#231f20" stroke-width="2" d="M63.354 55.1546997v-36l-31.177-18-31.177 18v36l31.177 18z"/></svg>