<svg viewBox="0 0 300 338" xmlns="http://www.w3.org/2000/svg" fill-rule="evenodd" clip-rule="evenodd" stroke-miterlimit="10"><g transform="scale(4.16667)"><path fill="none" d="M0 0h72v81H0z"/><clipPath id="prefix__a"><path d="M0 0h72v81H0z"/></clipPath><g clip-path="url(#prefix__a)"><path d="M4.823 22.5v36L36 76.5l31.177-18v-36L36 4.5l-31.177 18z" fill="#9aa3ad" fill-rule="nonzero"/><clipPath id="prefix__b"><path d="M4.823 22.5v36L36 76.5l31.177-18v-36L36 4.5l-31.177 18z" clip-rule="nonzero"/></clipPath><g clip-path="url(#prefix__b)"><path d="M67.271 58.5v-36l-31.177-18-31.177 18v36l31.177 18 31.177-18z" fill="none" stroke="#231f20" stroke-width="2"/><path d="M67.177 68.75c0 17.22-13.958 31.178-31.177 31.178-17.218 0-31.177-13.958-31.177-31.177 0-17.22 13.959-31.177 31.177-31.177 17.219 0 31.177 13.958 31.177 31.177" fill="#fff" fill-rule="nonzero"/><circle cx="-31.177" r="31.177" fill="none" stroke="#231f20" stroke-width="2" transform="matrix(0 -1 -1 0 36 37.574)"/><path d="M24.97 97.92c-4.868-5.648-8.044-14.936-8.044-25.437 0-10.992 3.48-20.656 8.74-26.208M46.335 46.275c5.258 5.551 8.739 15.215 8.739 26.208 0 10.5-3.176 19.788-8.043 25.438" fill="none" stroke="#231f20"/><path d="M60.606 50.429c0 6.515-11.017 11.797-24.606 11.797-13.59 0-24.607-5.282-24.607-11.797M50.773 41.29c0 3.855-6.615 6.98-14.774 6.98-8.158 0-14.772-3.125-14.772-6.98M36 48.271v51.656" fill="none" stroke="#231f20"/><path d="M38.379 43.047c.34-7.366 4.364-13.041 6.389-15.33l6.838 1.19L43.29 16.5l-16.293 8.126 5.953 1.036c-1.195 2.339-3.08 7.916-.773 17.385" fill="#fff" fill-rule="nonzero"/><path d="M38.379 43.047a24.072 24.072 0 011.47-8.382c.988-2.704 2.357-5.277 4.169-7.61l.36-.42.56.097 6.839 1.19-1.002 1.542-8.315-12.407 1.277.338-16.293 8.126-.275-1.88 5.953 1.036 1.304.227-.585 1.213c-.687 1.177-1.2 2.51-1.563 3.888a23.634 23.634 0 00-.684 4.265c-.112 1.45-.082 2.919.02 4.385.089 1.47.319 2.93.564 4.392-.407-1.422-.803-2.858-1.06-4.328-.27-1.466-.47-2.955-.524-4.463a24.827 24.827 0 01.214-4.55c.224-1.518.607-3.033 1.252-4.5l.719 1.44-5.953-1.034-3-.522 2.725-1.36 16.294-8.125.787-.392.49.73 8.314 12.407 1.302 1.943-2.304-.401-6.838-1.19.92-.322c-1.894 1.916-3.503 4.21-4.746 6.678a23.558 23.558 0 00-2.391 7.989" fill="#231f20" fill-rule="nonzero"/></g><g><path d="M67.177 58.5v-36L36 4.5l-31.177 18v36L36 76.5l31.177-18z" fill="none" stroke="#231f20" stroke-width="2"/></g></g></g></svg>