<svg xmlns="http://www.w3.org/2000/svg" xmlns:svg="http://www.w3.org/2000/svg" fill-rule="evenodd" stroke-miterlimit="10" clip-rule="evenodd" viewBox="0 0 64.353996 74.309402" xml:space="preserve"><path fill="#9aa3ad" fill-rule="nonzero" d="M1.0002 19.1546997v36l31.177 18 31.177-18v-36l-31.177-18Z"/><g transform="translate(-3.8229 -3.3453003)"><clipPath id="a"><path d="M4.823 22.5v36L36 76.5l31.177-18v-36L36 4.5Z" clip-rule="nonzero"/></clipPath><g clip-path="url(#a)"><path fill="none" stroke="#231f20" stroke-width="2" d="M67.271 58.5v-36l-31.177-18-31.177 18v36l31.177 18z"/><path fill="#fff" fill-rule="nonzero" stroke="#231f20" stroke-width="2" d="M35.4832 19.3311v42.338h-7.661c-4.485 0-8.111-3.627-8.111-8.112v-4.152h-3.573c-.676 0-1.137-.687-.89-1.309l4.474-11.008c-.011-.118-.011-.236-.011-.365 0-9.088 6.91-16.534 15.772-17.392z"/><path fill="none" stroke="#231f20" stroke-width="2" d="M35.4832 49.5724h14.133m-14.133 6.0482h8.97m-8.97-18.1447h14.133m-15.0113-6.2034h4.678l6.048-6.048m-9.8477 6.2031h19.201"/><path fill="#fff" fill-rule="nonzero" d="M47.47 55.6206c0 1.181-.958 2.139-2.139 2.139-1.181 0-2.139-.958-2.139-2.139 0-1.181.958-2.139 2.139-2.139 1.181 0 2.139.958 2.139 2.139"/><circle cx="-2.1389999" r="2.1389999" fill="none" stroke="#231f20" stroke-width="2" transform="matrix(0 -1 -1 0 45.331 53.4816)"/><path fill="#fff" fill-rule="nonzero" d="M56.8196 31.4276c0 1.181-.958 2.139-2.139 2.139-1.181 0-2.139-.958-2.139-2.139 0-1.181.958-2.139 2.139-2.139 1.181 0 2.139.958 2.139 2.139"/><circle cx="-2.1389999" r="2.1389999" fill="none" stroke="#231f20" stroke-width="2" transform="matrix(0 -1 -1 0 54.6806 29.2886)"/><path fill="#fff" fill-rule="nonzero" d="M52.1448 37.4759c0 1.181-.958 2.139-2.139 2.139-1.181 0-2.139-.958-2.139-2.139 0-1.181.958-2.139 2.139-2.139 1.181 0 2.139.958 2.139 2.139"/><circle cx="-2.1389999" r="2.1389999" fill="none" stroke="#231f20" stroke-width="2" transform="matrix(0 -1 -1 0 50.0058 35.3369)"/><path fill="#fff" fill-rule="nonzero" d="M52.1448 49.5724c0 1.181-.958 2.139-2.139 2.139-1.181 0-2.139-.958-2.139-2.139 0-1.181.958-2.139 2.139-2.139 1.181 0 2.139.958 2.139 2.139"/><circle cx="-2.1389999" r="2.1389999" fill="none" stroke="#231f20" stroke-width="2" transform="matrix(0 -1 -1 0 50.0058 47.4334)"/><path fill="none" stroke="#231f20" stroke-width="2" d="m39.2959 49.5724 6.048-6.048h10.426"/><path fill="#fff" fill-rule="nonzero" d="M47.47 25.3794c0 1.181-.958 2.139-2.139 2.139-1.181 0-2.139-.958-2.139-2.139 0-1.181.958-2.139 2.139-2.139 1.181 0 2.139.958 2.139 2.139"/><circle cx="-2.1389999" r="2.1389999" fill="none" stroke="#231f20" stroke-width="2" transform="matrix(0 -1 -1 0 45.331 23.2404)"/><path fill="#fff" fill-rule="nonzero" d="M56.8196 43.5241c0 1.181-.958 2.139-2.139 2.139-1.181 0-2.139-.958-2.139-2.139 0-1.181.958-2.139 2.139-2.139 1.181 0 2.139.958 2.139 2.139"/><circle cx="-2.1389999" r="2.1389999" fill="none" stroke="#231f20" stroke-width="2" transform="matrix(0 -1 -1 0 54.6806 41.3851)"/></g></g><path fill="none" stroke="#231f20" stroke-width="2" d="M63.354 55.1546997v-36l-31.177-18-31.177 18v36l31.177 18z"/></svg>