<svg viewBox="0 0 301 338" xmlns="http://www.w3.org/2000/svg" fill-rule="evenodd" clip-rule="evenodd" stroke-miterlimit="10"><g transform="translate(.5) scale(4.16667)"><path fill="none" d="M0 0h72v81H0z"/><clipPath id="prefix__a"><path d="M0 0h72v81H0z"/></clipPath><g clip-path="url(#prefix__a)"><path d="M67.177 58.5v-36L36 4.5l-31.177 18v36L36 76.5l31.177-18z" fill="#9aa3ad" fill-rule="nonzero"/><path d="M46.443 70.47l1.149-.662-4.126-9.235 2.977 9.898zM24.408 11.193l4.125 9.235-2.976-9.898-1.149.663z" fill="#231f20" fill-rule="nonzero"/><path d="M46.443 70.47l1.149-.662-4.126-9.235 2.977 9.898zM24.408 11.193l4.125 9.235-2.976-9.898-1.149.663zM51.308 67.662l1.074-.62L46.916 59l4.392 8.663zM19.619 13.958L25.085 22l-4.392-8.663-1.074.62zM56.085 64.904l1.14-.658-7.192-7.382 6.052 8.04zM14.774 16.755l7.193 7.382-6.053-8.04-1.14.658z" fill="#231f20" fill-rule="nonzero"/><path d="M56.085 64.904l1.14-.658-7.192-7.382 6.052 8.04zM14.774 16.755l7.193 7.382-6.053-8.04-1.14.658zM61.075 62.023l1.371-.792-9.722-7 8.351 7.792zM9.554 19.769l9.722 7-8.351-7.792-1.371.792zM66.629 58.816l.547-.316v-1.376L54.908 51.18l11.722 7.636zM4.824 22.5v1.374l12.27 5.945-11.722-7.635-.548.315z" fill="#231f20" fill-rule="nonzero"/><path d="M66.629 58.816l.547-.316v-1.376L54.908 51.18l11.722 7.636zM4.824 22.5v1.374l12.27 5.945-11.722-7.635-.548.315zM67.177 52.378v-1.515l-10.662-3.057 10.662 4.572zM4.823 30.137l10.662 3.056-10.662-4.57v1.514zM67.177 46.513v-1.254l-9.677-1.05 9.677 2.304zM4.823 35.741l9.677 1.05-9.677-2.304v1.254z" fill="#231f20" fill-rule="nonzero"/><path d="M67.177 46.513v-1.254l-9.677-1.05 9.677 2.304zM4.823 35.741l9.677 1.05-9.677-2.304v1.254zM57.831 40.5l9.346.588v-1.176l-9.346.588zM4.823 41.088l9.346-.588-9.346-.587v1.175zM57.5 36.791l9.677-1.049v-1.254L57.5 36.791zM4.823 45.258v1.254L14.5 44.21l-9.677 1.05z" fill="#231f20" fill-rule="nonzero"/><path d="M57.5 36.791l9.677-1.049v-1.254L57.5 36.791zM4.823 45.258v1.254L14.5 44.21l-9.677 1.05zM56.515 33.194l10.662-3.056v-1.516l-10.662 4.572zM4.823 50.863v1.515l10.662-4.571-10.662 3.056zM54.906 29.82l12.271-5.945V22.5l-.549-.317-11.722 7.636zM4.824 57.125V58.5l.548.317 11.723-7.636-12.271 5.944z" fill="#231f20" fill-rule="nonzero"/><path d="M54.906 29.82l12.271-5.945V22.5l-.549-.317-11.722 7.636zM4.824 57.125V58.5l.548.317 11.723-7.636-12.271 5.944zM52.724 26.77l9.722-7.001-1.371-.791-8.351 7.792zM9.554 61.231l1.371.792 8.351-7.793-9.722 7.001zM50.033 24.136l7.193-7.382-1.141-.658-6.052 8.04zM14.774 64.245l1.14.658 6.053-8.04-7.193 7.382z" fill="#231f20" fill-rule="nonzero"/><path d="M50.033 24.136l7.193-7.382-1.141-.658-6.052 8.04zM14.774 64.245l1.14.658 6.053-8.04-7.193 7.382zM46.916 22l5.465-8.042-1.073-.62-4.392 8.663zM19.619 67.042l1.073.62L25.084 59l-5.465 8.043zM43.466 20.427l4.125-9.235-1.148-.663-2.977 9.898zM24.408 69.808l1.15.662 2.975-9.897-4.125 9.235z" fill="#231f20" fill-rule="nonzero"/><path d="M43.466 20.427l4.125-9.235-1.148-.663-2.977 9.898zM24.408 69.808l1.15.662 2.975-9.897-4.125 9.235zM39.79 19.463l2.765-11.179-1.39-.803-1.374 11.982zM29.445 72.715l1.39.803 1.374-11.982-2.764 11.18zM35.093 5.023L36 19.138l.907-14.114L36 4.5l-.907.523zM35.093 75.976L36 76.5l.907-.523-.908-14.116-.906 14.115z" fill="#231f20" fill-rule="nonzero"/><path d="M35.093 5.023L36 19.138l.907-14.114L36 4.5l-.907.523zM35.093 75.976L36 76.5l.907-.523-.908-14.116-.906 14.115zM29.445 8.285l2.764 11.179-1.373-11.982-1.391.803zM41.165 73.518l1.39-.803-2.764-11.179 1.374 11.982z" fill="#231f20" fill-rule="nonzero"/><path d="M67.177 58.5v-36L36 4.5l-31.177 18v36L36 76.5l31.177-18z" fill="none" stroke="#231f20" stroke-width="2"/><path d="M36.03 50.678c8.925 0 13.443-3.694 19.204-9.629-5.761-5.935-10.279-9.629-19.204-9.629s-13.443 3.694-19.204 9.629c5.761 5.935 10.279 9.629 19.204 9.629" fill="#fff" fill-rule="nonzero"/><clipPath id="prefix__b"><path d="M16.826 41.049c5.76 5.935 10.279 9.629 19.204 9.629s13.443-3.694 19.205-9.629c-5.762-5.936-10.28-9.629-19.205-9.629-8.925 0-13.444 3.693-19.204 9.629z" clip-rule="nonzero"/></clipPath><g clip-path="url(#prefix__b)"><path d="M33.144 29.475c6.392-1.595 12.867 2.295 14.46 8.689 1.594 6.392-2.296 12.865-8.688 14.459-6.393 1.594-12.867-2.295-14.46-8.689-1.594-6.392 2.296-12.865 8.688-14.46" fill="#9aa3ad" fill-rule="nonzero"/><circle cx="2.886" cy="-11.575" fill="none" stroke="#231f20" r="11.929" transform="scale(-1 1) rotate(14.001 -230.852 -143.728)"/><path d="M33.144 29.475c6.392-1.595 12.867 2.295 14.46 8.689 1.594 6.392-2.296 12.865-8.688 14.459-6.393 1.594-12.867-2.295-14.46-8.689-1.594-6.392 2.296-12.865 8.688-14.46" fill="#231f20" fill-rule="nonzero" opacity=".3"/><path d="M35.842 44.189l-2.95 1.55a.275.275 0 01-.4-.291l.564-3.283a.273.273 0 00-.08-.244l-2.385-2.325a.277.277 0 01.153-.471l3.297-.479a.278.278 0 00.208-.151l1.474-2.987a.276.276 0 01.495 0l1.474 2.987c.04.081.118.138.208.151l3.296.479a.276.276 0 01.153.471l-2.385 2.325a.273.273 0 00-.08.244l.564 3.283a.276.276 0 01-.401.291l-2.948-1.55a.278.278 0 00-.257 0" fill="#231f20" fill-rule="nonzero"/></g><g><path d="M36.03 50.678c8.925 0 13.443-3.694 19.204-9.629-5.761-5.935-10.279-9.629-19.204-9.629s-13.443 3.694-19.204 9.629c5.761 5.935 10.279 9.629 19.204 9.629z" fill="none" stroke="#231f20" stroke-width="2"/></g></g></g></svg>