<svg viewBox="0 0 300 338" xmlns="http://www.w3.org/2000/svg" fill-rule="evenodd" clip-rule="evenodd" stroke-miterlimit="10"><g transform="scale(4.16667)"><path fill="none" d="M0 0h72v81H0z"/><clipPath id="prefix__a"><path d="M0 0h72v81H0z"/></clipPath><g clip-path="url(#prefix__a)"><path d="M4.823 22.5v36L36 76.5l31.177-18v-36L36 4.5l-31.177 18z" fill="#9aa3ad" fill-rule="nonzero"/><clipPath id="prefix__b"><path d="M4.823 22.5v36L36 76.5l31.177-18v-36L36 4.5l-31.177 18z" clip-rule="nonzero"/></clipPath><g clip-path="url(#prefix__b)"><path d="M67.271 58.5v-36l-31.177-18-31.177 18v36l31.177 18 31.177-18z" fill="none" stroke="#231f20" stroke-width="2"/><path d="M55.06 23.618H16.81a5.816 5.816 0 00-5.817 5.816v16.19a5.816 5.816 0 005.816 5.817h30.365l4.18 6.574V51.44h3.705a5.816 5.816 0 005.816-5.816V29.434a5.816 5.816 0 00-5.816-5.816z" fill="#fff" fill-rule="nonzero" stroke="#231f20" stroke-width="2"/></g><clipPath id="prefix__c"><path d="M16.875 23.5a5.816 5.816 0 00-5.816 5.817v16.191a5.815 5.815 0 005.816 5.815H47.24l4.179 6.574v-6.574h3.706a5.815 5.815 0 005.816-5.815V29.317a5.816 5.816 0 00-5.816-5.817h-38.25z" clip-rule="nonzero"/></clipPath><g clip-path="url(#prefix__c)"><path d="M16.458 44.151h6.585V31.146h-6.585v13.005zm.757 1.965c-2.273 0-3.032-1.255-3.032-2.819V31.998c0-1.563.759-2.819 3.032-2.819h5.071c2.273 0 3.032 1.256 3.032 2.819v11.299c0 1.564-.759 2.819-3.032 2.819h-5.071zM28.572 32.4v-1.444l4.951-1.778h.331v16.937h-2.276V31.738c.026 0-3.006.662-3.006.662M48.957 44.151h6.585V31.146h-6.585v13.005zm.757 1.965c-2.273 0-3.032-1.255-3.032-2.819V31.998c0-1.563.759-2.819 3.032-2.819h5.071c2.273 0 3.032 1.256 3.032 2.819v11.299c0 1.564-.759 2.819-3.032 2.819h-5.071zM38.146 32.4v-1.444l4.951-1.778h.331v16.937h-2.276V31.738c.026 0-3.006.662-3.006.662" fill="#231f20" fill-rule="nonzero"/></g><g><path d="M67.177 58.5v-36L36 4.5l-31.177 18v36L36 76.5l31.177-18z" fill="none" stroke="#231f20" stroke-width="2"/></g></g></g></svg>