<svg viewBox="0 0 300 338" xmlns="http://www.w3.org/2000/svg" fill-rule="evenodd" clip-rule="evenodd" stroke-miterlimit="10"><g transform="scale(4.16667)"><path fill="none" d="M0 0h72v81H0z"/><clipPath id="prefix__a"><path d="M0 0h72v81H0z"/></clipPath><g clip-path="url(#prefix__a)"><path d="M67.177 58.5v-36L36 4.5l-31.177 18v36L36 76.5l31.177-18z" fill="#9aa3ad" fill-rule="nonzero"/><path d="M22.276 12.424l4.839 11.133-3.679-11.803-1.16.67z" fill="#231f20" fill-rule="nonzero"/><path d="M22.276 12.424l4.839 11.133-3.679-11.803-1.16.67zM16.566 15.72l6.454 9.705-5.37-10.331-1.084.626zM10.804 19.047l8.514 8.914-7.362-9.58-1.152.666z" fill="#231f20" fill-rule="nonzero"/><path d="M10.804 19.047l8.514 8.914-7.362-9.58-1.152.666zM4.824 22.5v.278l11.299 8.31-10.13-9.264-1.17.676zM4.823 30.384l8.708 4.326-8.708-5.55v1.224z" fill="#231f20" fill-rule="nonzero"/><path d="M4.823 30.384l8.708 4.326-8.708-5.55v1.224zM4.823 36.695l6.8 2.022-6.8-2.835v.813zM4.823 42.32l5.63.668-5.63-1.281v.614z" fill="#231f20" fill-rule="nonzero"/><path d="M4.823 42.32l5.63.668-5.63-1.281v.614zM61.511 42.988l5.665-.671v-.618l-5.665 1.289z" fill="#231f20" fill-rule="nonzero"/><path d="M61.511 42.988l5.665-.671v-.618l-5.665 1.289zM60.342 38.717l6.835-2.033v-.818l-6.835 2.851zM58.432 34.71l8.744-4.345v-1.229l-8.743 5.573z" fill="#231f20" fill-rule="nonzero"/><path d="M58.432 34.71l8.744-4.345v-1.229l-8.743 5.573zM55.841 31.088l11.336-8.336V22.5l-1.193-.689-10.143 9.277zM52.645 27.961l8.527-8.928-1.152-.666-7.375 9.594z" fill="#231f20" fill-rule="nonzero"/><path d="M52.645 27.961l8.527-8.928-1.152-.666-7.375 9.594zM48.944 25.425l6.464-9.72-1.086-.627-5.378 10.347zM44.848 23.557l4.847-11.15-1.162-.671-3.685 11.82z" fill="#231f20" fill-rule="nonzero"/><path d="M44.848 23.557l4.847-11.15-1.162-.671-3.685 11.82zM40.483 22.413l3.19-13.483-1.405-.811-1.785 14.294zM35.063 5.041l.919 16.985.92-17.005L36 4.5l-.937.541z" fill="#231f20" fill-rule="nonzero"/><path d="M35.063 5.041l.919 16.985.92-17.005L36 4.5l-.937.541zM28.295 8.949l3.186 13.464-1.783-14.274-1.403.81z" fill="#231f20" fill-rule="nonzero"/><path d="M67.177 58.5v-36L36 4.5l-31.177 18v36L36 76.5l31.177-18z" fill="none" stroke="#231f20" stroke-width="2"/><path d="M53.141 32.5L35.97 42.425 18.799 32.5v26.98l17.171 9.927v.001h0l17.171-9.928V32.5z" fill="#9aa3ad" fill-rule="nonzero" stroke="#231f20" stroke-width="2" stroke-linecap="round" stroke-linejoin="round"/><path d="M53.141 32.5L35.97 42.425 18.799 32.5v26.98l17.171 9.927v.001h0l17.171-9.928V32.5z" fill="#231f20" fill-rule="nonzero" stroke="#231f20" stroke-width="2" stroke-linecap="round" stroke-linejoin="round" opacity=".3"/><path d="M43.042 35.497a49.939 49.939 0 00-7.072 6.008 45.006 45.006 0 00-13.706-9.927v26.98a50.613 50.613 0 0113.706 9.927 48.932 48.932 0 0113.707-9.927v-26.98a49.729 49.729 0 00-6.635 3.919" fill="#9aa3ad" fill-rule="nonzero"/><path d="M43.042 35.497a49.939 49.939 0 00-7.072 6.008 45.006 45.006 0 00-13.706-9.927v26.98a50.613 50.613 0 0113.706 9.927 48.932 48.932 0 0113.707-9.927v-26.98a49.729 49.729 0 00-6.635 3.919z" fill="none" stroke="#231f20" stroke-width="1.5"/><path d="M46.138 29.882a18.545 18.545 0 00-6.118 3.993 18.559 18.559 0 00-4.05 5.934V66.79a29.055 29.055 0 015.376-6.45 29.027 29.027 0 014.792-3.478v-26.98zM25.802 29.882a20.829 20.829 0 016.33 4.435 20.82 20.82 0 013.838 5.492V66.79a26.717 26.717 0 00-5.018-6.229 26.696 26.696 0 00-5.15-3.699v-26.98z" fill="#fff" fill-rule="nonzero" stroke="#231f20"/></g></g></svg>