<svg viewBox="0 0 301 338" xmlns="http://www.w3.org/2000/svg" fill-rule="evenodd" clip-rule="evenodd" stroke-miterlimit="10"><g transform="translate(.5) scale(4.16667)"><path fill="none" d="M0 0h72v81H0z"/><clipPath id="prefix__a"><path d="M0 0h72v81H0z"/></clipPath><g clip-path="url(#prefix__a)"><path d="M67.177 58.5v-36L36 4.5l-31.177 18v36L36 76.5l31.177-18z" fill="#9aa3ad" fill-rule="nonzero" stroke="#231f20" stroke-width="2"/><path d="M27.04 37.089a7.983 7.983 0 11-15.966 0H27.04zM60.926 37.089a7.983 7.983 0 11-15.966 0h15.966z" fill="#fff" fill-rule="nonzero" stroke="#231f20" stroke-width="2"/><path d="M19.057 27.567l-7.983 9.522H27.04l-7.983-9.522zM52.943 27.567l-7.983 9.522h15.966l-7.983-9.522z" fill="none" stroke="#231f20" stroke-linecap="round" stroke-linejoin="round"/><path d="M35.788 25.386c2.08-1.634 4.055-2.254 5.198-2.514 1.09-.248 3.767-.86 6.622.167 2.009.723 3.125 1.902 5.45 1.844a6.9 6.9 0 001.675-.251" fill="none" stroke="#231f20" stroke-width="2" stroke-linecap="round" stroke-linejoin="round"/><path d="M35.93 25.386c-2.05-1.634-3.995-2.254-5.12-2.514-1.074-.248-3.71-.86-6.524.167-1.979.722-3.079 1.902-5.368 1.845a6.807 6.807 0 01-1.651-.251" fill="none" stroke="#231f20" stroke-width="2" stroke-linecap="round" stroke-linejoin="round"/><path d="M38.746 40.852V25c0-1.5-1.123-2.857-2.622-2.923a2.746 2.746 0 00-2.87 2.743v16.032c0 5.774-1.203 11.582-4.137 16.555a3.65 3.65 0 00-.049.084c-1.01 1.76.347 3.956 2.376 3.956h9.112c2.029 0 3.386-2.196 2.376-3.956a3.65 3.65 0 00-.049-.084c-2.934-4.973-4.137-10.78-4.137-16.555z" fill="#fff" fill-rule="nonzero" stroke="#231f20" stroke-width="2"/></g></g></svg>