<svg xmlns="http://www.w3.org/2000/svg" xmlns:svg="http://www.w3.org/2000/svg" fill-rule="evenodd" stroke-miterlimit="10" clip-rule="evenodd" viewBox="0 0 64.353996 74.309402" xml:space="preserve"><path fill="#3f7faa" fill-rule="nonzero" d="M63.354 55.1546997v-36l-31.177-18-31.177 18v36l31.177 18z" opacity=".3"/><path fill="none" stroke="#000" stroke-width="2" d="M63.354 55.1546997v-36l-31.177-18-31.177 18v36l31.177 18z"/><path fill="none" stroke="#000" stroke-width="2" d="M16.37567582 37.1548461c.00324157-4.31147038 1.76835606-8.52613224 5.006731-11.5483837"/><path fill-rule="nonzero" d="m22.3705 28.0796997 1.902-4.609-4.942.657Z"/><path fill="none" stroke="#000" stroke-width="2" d="M47.97821996 37.148913c-.00303526 4.31358125-1.77407477 8.53115447-5.01606729 11.55414705"/><path fill-rule="nonzero" d="m41.9753 46.2298997-1.902 4.609 4.942-.657Z"/><path fill="#fff" fill-rule="nonzero" stroke="#000" stroke-width="2" d="M34.7931 55.9780997v-11.489l-9.95-5.744-9.949 5.744v11.489l9.949 5.744z"/><path fill="#fff" fill-rule="nonzero" stroke="#000" d="m24.8436 50.2337997 9.95-5.744Z"/><path fill="none" stroke="#000" d="m14.894 44.4893997 9.95 5.744v11.489"/><path fill="#fff" fill-rule="nonzero" stroke="#000" stroke-width="2" d="M49.4602 29.8199997v-11.489l-9.95-5.744-9.949 5.744v11.489l9.949 5.744z"/><path fill="#fff" fill-rule="nonzero" stroke="#000" d="m39.5106 24.0755997 9.95-5.744Z"/><path fill="none" stroke="#000" d="m29.5611 18.3312997 9.95 5.744v11.489"/></svg>