<svg xmlns="http://www.w3.org/2000/svg" xmlns:svg="http://www.w3.org/2000/svg" fill-rule="evenodd" stroke-miterlimit="10" clip-rule="evenodd" viewBox="0 0 64.353996 74.309402" xml:space="preserve"><g transform="translate(-3.8229 -3.3453003)"><clipPath id="a"><path d="M4.823 22.5v36L36 76.5l31.177-18v-36L36 4.5Z" clip-rule="nonzero"/></clipPath><g clip-path="url(#a)"><path fill="#3f7faa" fill-rule="nonzero" d="M67.1769 58.4995v-36l-31.177-18-31.177 18v36l31.177 18z" opacity=".3"/><path fill="#9aa3ad" fill-rule="nonzero" d="M45.6976 49.3047c-1.661.511-3.322 1.023-4.983 1.534l-.065-.183-.59-1.6-2.4.275h-.026l3.671-1.993c.367-.197.774-.315 1.194-.341h.183c.279.003.604.042.948.161 1.377.474 1.947 1.836 2.068 2.147" opacity=".3"/><path fill-rule="nonzero" d="M45.2474 49.0872c-.071.085-.089.248-.046.339l-.03-.058-.06-.119-.13-.232c-.086-.155-.19-.297-.289-.441-.204-.283-.444-.532-.717-.733-.529-.398-1.305-.584-1.983-.434-.347.06-.681.242-1.058.415l-1.095.512-2.205.994-.001.001h.026l2.399-.276h.001l.655 1.783.001.001-.001-.001c1.62-.677 3.078-1.286 4.533-1.751m.9.435c-1.866.558-3.73.972-5.432 1.317h-.001v-.001l-.655-1.783h-.001l-2.399.276h-.026l.001-.001 2.036-1.308 1.025-.639c.331-.202.686-.459 1.124-.598.874-.295 1.823-.191 2.654.262.413.221.761.538 1.048.891.144.176.264.37.375.565.055.098.103.2.148.303l.064.157.029.08c.062.138.063.348.01.479"/><path fill="#9aa3ad" fill-rule="nonzero" d="m39.7706 53.2385 1.495-.892-.551-1.508 4.616-1.442c.118-.039.249-.066.367-.092 1.914-.406 3.868.577 4.629 2.413Z" opacity=".3"/><path fill-rule="nonzero" d="M39.7706 53.2385c1.838-.278 3.665-.611 5.407-.974l5.077-1.042-.39.686-.002-.004c-.701-1.434-2.269-2.324-3.866-2.134-.374.033-.807.154-1.257.268-.443.103-.883.214-1.33.305-.891.188-1.784.372-2.695.495l.551 1.508zm0 0 1.495-.892-.551-1.508c.819-.417 1.656-.774 2.494-1.126.418-.179.843-.338 1.264-.506.416-.15.839-.342 1.364-.44.998-.197 2.081-.047 2.983.462.907.493 1.633 1.326 1.966 2.292l.003.005.249.623-.64.064c-1.851.185-3.704.336-5.478.479-1.777.144-3.468.318-5.149.547"/><path fill="#9aa3ad" fill-rule="nonzero" d="M53.8667 54.0252c0 .354-.236.656-.577.747l-1.128.341c-.485-.183-1.009-.288-1.547-.288-.105 0-.197.013-.288.013l-3.462.21-5.507 1.245c-1.862-.222-3.711-.445-5.573-.668.026-.013.039-.026.065-.04l3.921-2.347 10.556-1.521.485-.065c.315-.027.957-.027 1.639.327.301.145.839.42 1.167 1.063.183.354.236.708.249.983" opacity=".3"/><path fill-rule="nonzero" d="M53.1452 54.0423c-.025-.454-.226-.861-.576-1.11-.088-.064-.185-.122-.293-.179-.106-.052-.275-.135-.365-.169-.224-.079-.453-.154-.697-.175-.115-.013-.256-.015-.348-.01l-.462.037-.965.086-1.929.172c-1.285.123-2.575.211-3.864.307-1.288.107-2.584.157-3.876.237l-.004.003-3.916 2.344-.066.04 5.573.668.006-.001 5.416-1.62.005-.002.057-.007 2.667-.344c.454-.049.862-.136 1.393-.144.516 0 1.032.083 1.526.237l-.482-.016.004-.002 1.063-.302.104-.03.014-.009c.007.001.012-.029.015-.011m1.443-.034c.004.383-.126.717-.357.993-.115.135-.254.249-.408.336-.143.087-.356.145-.408.161l-1.032.332-.004.001-.295.072-.188-.089c-.337-.159-.7-.272-1.073-.324-.359-.048-.838-.026-1.273-.037l-2.662-.021.061-.008-5.586.868-.006.001-5.573-.668.066-.04 3.916-2.344.004-.003c1.262-.288 2.52-.606 3.786-.867 1.264-.272 2.528-.552 3.796-.797l1.901-.379.951-.19.496-.094c.229-.029.412-.03.618-.022.4.022.806.095 1.18.258.208.09.327.156.507.25.175.097.352.212.515.351.672.552 1.059 1.424 1.068 2.26"/><path fill="#fff" fill-rule="nonzero" stroke="#000" stroke-width="2" d="m37.68285796 49.48172885 3.64849497-1.99227135c.36423513-.19889165.76992887-.31559944 1.18508074-.34404313 1.06389812-.06936545 2.0800266.45818058 2.63392063 1.37029854l.55668874.9151494"/><path fill="#fff" fill-rule="nonzero" d="M28.8747 50.3431c-.334-.3-4.479-4.148-4.063-9.75.281-3.779 2.493-6.422 3.311-7.302 2.857-3.073 5.329-2.501 7.028-5.113.848-1.305 1.622-3.583.569-7.698.503.129 7.682 2.099 9.492 8.451.667 2.341.365 4.436.037 5.745.543.081 1.505.148 2.592-.227.542-.186.974-.433 1.295-.654.531 1.17 2.147 5.125.855 9.924-.335 1.244-1.418 5.051-4.997 7.553-4.622 3.233-11.667 3.072-16.119-.929"/><path fill-rule="nonzero" d="M29.3262 49.8408c2.145 1.946 5.057 2.985 7.972 3.037 2.912.059 5.884-.842 8.11-2.707 2.241-1.861 3.64-4.622 4.226-7.509.598-2.875.231-5.95-.954-8.661l.739.206-.012.008c-1.219.85-2.777 1.184-4.232.955l-.544-.085.133-.53c.37-1.48.455-3.03.187-4.519-.273-1.488-.881-2.91-1.794-4.122-.906-1.218-2.077-2.237-3.371-3.067-1.297-.814-2.738-1.471-4.191-1.883l.609-.608.001.007c.38 1.477.644 3.016.533 4.597-.106 1.568-.646 3.199-1.793 4.416-.566.619-1.29 1.054-1.973 1.405-.69.353-1.358.646-1.974.999-1.232.695-2.28 1.65-3.146 2.786-1.74 2.252-2.694 5.113-2.361 7.911.321 2.781 1.814 5.446 3.835 7.364m-.903 1.005c-2.275-2.195-3.85-5.059-4.216-8.228-.357-3.17.753-6.365 2.669-8.806.946-1.23 2.155-2.32 3.531-3.08 1.37-.77 2.794-1.2 3.692-2.165.935-.954 1.436-2.303 1.557-3.694.128-1.402-.084-2.851-.42-4.262l-.001-.007-.187-.834.796.226c1.605.455 3.083 1.136 4.478 2.007 1.378.883 2.646 1.98 3.639 3.315 1 1.329 1.676 2.905 1.975 4.542.295 1.642.199 3.336-.202 4.937l-.411-.615c1.226.189 2.504-.087 3.518-.792l.01-.007.492-.333.248.539c1.321 2.875 1.782 6.156 1.192 9.3-.602 3.096-2.095 6.127-4.58 8.225-2.478 2.098-5.735 3.099-8.927 3.056-3.194-.037-6.426-1.154-8.853-3.324"/><path fill="#3f7faa" fill-rule="nonzero" d="M36.5238 49.9717c2.384.013 5.461-1.243 6.368-3.662.914-2.439-.806-4.916-2.293-5.972-.514-.365-.747-.38-2.41-1.417-2.001-1.247-2.342-1.648-2.56-2.032-.235-.415-.629-1.344-.245-2.901-.763.396-3.488 1.913-4.863 5.029-.356.808-1.727 4.227.186 7.38.328.542 2.155 3.555 5.817 3.575" opacity=".4"/><path fill="#fff" fill-rule="nonzero" d="M25.5814 24.3254c1.078 1.174 3.092 2.022 4.688 1.198 1.61-.83 2.039-2.97 1.88-4.251-.056-.444-.154-.565-.403-1.923-.3-1.634-.259-2.01-.17-2.319.096-.333.371-1.012 1.308-1.64-.541-.166-2.523-.705-4.673.255-.557.249-2.854 1.37-3.527 3.958-.116.445-.759 2.919.897 4.722"/><path fill="none" stroke="#000" d="M25.5814 24.3254c1.078 1.174 3.092 2.022 4.688 1.198 1.61-.83 2.039-2.97 1.88-4.251-.056-.444-.154-.565-.403-1.923-.3-1.634-.259-2.01-.17-2.319.096-.333.371-1.012 1.308-1.64-.541-.166-2.523-.705-4.673.255-.557.249-2.854 1.37-3.527 3.958-.116.445-.759 2.919.897 4.722Z"/><path fill="#fff" fill-rule="nonzero" d="m26.18 56.9174 5.837-.184c1.358-.043 2.682-.432 3.847-1.13l5.416-3.243-.621-1.689-.587-1.598-9.778 1.135-2.148-1.14c-2.672-1.42-5.722-1.961-8.72-1.546l-.177.025c-6.201.86-12.29 2.278-18.211 4.237-2.187.724-3.917 1.296-3.917 1.296l1.007 12.663 4.973-2.728c3.661-2.008 7.614-3.431 11.716-4.218l12.404 5.595 1.021-.03c6.136-.177 12.215-1.243 18.046-3.164 2.763-.911 5.527-1.821 8.291-2.731.206-.068.32-.289.256-.496-.598-1.953-2.456-3.242-4.495-3.118l-3.461.21-5.509 1.244c-1.86-.22-3.719-.44-5.579-.66"/><path fill-rule="nonzero" d="M26.18 56.9174c1.343-.249 2.687-.474 4.031-.676l1.995-.291c.605-.106 1.182-.304 1.727-.539.555-.237 1.084-.405 1.634-.759l1.738-1.041 3.475-2.081.002-.001-.411 1.165-1.236-3.273-.001-.003 1.053.649-9.778 1.132c-.209.025-.411-.018-.583-.11l-1.902-1.011c-.623-.333-1.203-.608-1.837-.845-1.251-.469-2.573-.749-3.907-.828-1.344-.097-2.639.093-4.079.315-1.406.211-2.808.455-4.203.726-2.792.544-5.561 1.203-8.298 1.976-2.734.76-5.43 1.702-8.168 2.598l.676-1.019 1.004 12.663-1.458-.787 3.481-1.908c1.15-.629 2.332-1.295 3.562-1.877 2.449-1.167 5.013-2.09 7.643-2.752.659-.162 1.319-.317 1.984-.446l.25-.05.031-.007.015-.003.008-.001c-.125-.017 1.121.131.597.07l.056.026.113.051.453.204.905.408 3.619 1.634 7.238 3.266.015.007-.431-.087c3.158-.059 6.26-.319 9.353-.83 3.087-.506 6.135-1.244 9.111-2.205l4.522-1.485 2.263-.745 1.132-.372.565-.186.127-.042c-.065.022-.13.059-.184.106-.11.094-.18.224-.197.368-.008.071-.003.145.015.213.009.03-.02-.055-.029-.076-.027-.073-.047-.148-.08-.219-.062-.142-.127-.282-.207-.415-.158-.266-.348-.512-.569-.731-.449-.425-1.006-.747-1.611-.882-.301-.07-.611-.109-.922-.091l-1.166.066-2.378.143.154-.022-5.481 1.239-.027.006-.068.015c-.087.019-.177.018-.26.002l-5.522-1.141c-.263-.055-.432-.312-.378-.575.049-.235.26-.395.492-.387l5.636.18-.327.017.027-.007 5.482-1.238c.05-.011.105-.018.155-.022l2.378-.145 1.212-.069c.483-.024.97.031 1.441.142.946.215 1.818.71 2.516 1.378.346.339.645.725.892 1.142.124.208.229.427.324.65.05.11.085.226.127.34.023.072.031.079.068.205.043.164.056.339.036.508-.04.341-.209.659-.47.882-.13.111-.283.198-.442.253l-.156.052-.565.186-1.132.373-2.262.746-4.531 1.491c-3.069.993-6.212 1.756-9.394 2.28-3.176.528-6.42.8-9.614.861h-.009c-.149.003-.295-.03-.422-.086l-.014-.007-7.24-3.263-4.525-2.04-.453-.204-.113-.051-.056-.025c-.529-.063.712.082.582.068l-.008.001-.015.003-.029.006-.238.048c-.633.123-1.262.272-1.889.426-2.504.632-4.944 1.512-7.275 2.623-2.292 1.121-4.624 2.494-6.942 3.738l-.008.004c-.48.258-1.079.078-1.337-.403-.065-.122-.103-.258-.114-.388l-1.01-12.663c-.038-.463.253-.878.676-1.018 2.72-.891 5.448-1.846 8.25-2.627 2.789-.789 5.612-1.463 8.458-2.018 1.423-.277 2.851-.526 4.285-.743 1.393-.217 2.96-.448 4.493-.336 1.533.09 3.051.412 4.489.95.713.263 1.432.606 2.074.951l1.903 1.01-.583-.11 9.778-1.137.009-.001c.466-.054.894.226 1.045.649l.001.003 1.177 3.295.003.008c.158.443-.026.924-.415 1.157l-.002.001-3.475 2.081-1.738 1.041c-.595.361-1.291.783-2.021.962-.738.183-1.499.24-2.241.217-.722-.045-1.366-.091-2.054-.156-1.355-.116-2.71-.256-4.066-.42"/></g></g><path fill="none" stroke="#000" stroke-width="2" d="M63.354 55.1546997v-36l-31.177-18-31.177 18v36l31.177 18z"/></svg>