<svg xmlns="http://www.w3.org/2000/svg" xmlns:svg="http://www.w3.org/2000/svg" fill-rule="evenodd" stroke-miterlimit="10" clip-rule="evenodd" viewBox="0 0 64.353996 74.309402" xml:space="preserve"><path fill="#495790" fill-rule="nonzero" d="M63.354 55.1546997v-36l-31.177-18-31.177 18v36l31.177 18z" opacity=".3"/><path fill="none" stroke="#000" stroke-width="2" d="M63.354 55.1546997v-36l-31.177-18-31.177 18v36l31.177 18z"/><path fill="#fff" fill-rule="nonzero" stroke="#000" stroke-width="2" d="M50.0172 37.3990997h-3.26v3.779h-3.498v-14.799l-4.077-11.263h-14.058l-4.077 11.263v14.799h-3.497v-3.779h-3.261l-3.778 3.779v13.115h8.548l1.988-1.988h22.212l1.988 1.988h8.549v-13.115Z"/><path fill="#fff" fill-rule="nonzero" d="M36.7084 21.1312997h-9.257l-1.014.635 1.159-3.223h8.975l1.27 3.252z"/><path fill-rule="nonzero" d="M36.883 18.0869997h-9.608l-1.713 4.767 2.02-1.266h9.002l2.161 1.266Zm-.624.913.679 1.736-.106-.062h-9.513l-.005.004.603-1.678z"/><path fill="none" stroke="#000" d="M14.2895 37.3990997v16.894m35.7277-16.894v16.894m-28.70645023-13.11595 2.51221272 11.127945m19.1648-11.12779-2.51221272 11.127945"/></svg>