<svg xmlns="http://www.w3.org/2000/svg" xmlns:svg="http://www.w3.org/2000/svg" fill-rule="evenodd" stroke-miterlimit="10" clip-rule="evenodd" viewBox="0 0 64.353996 74.309402" xml:space="preserve"><g transform="translate(-3.8229 -3.3453003)"><clipPath id="a"><path d="M4.823 22.5v36L36 76.5l31.177-18v-36L36 4.5Z" clip-rule="nonzero"/></clipPath><g clip-path="url(#a)"><path fill="#3f7faa" fill-rule="nonzero" d="M67.1769 58.5v-36l-31.177-18-31.177 18v36l31.177 18z" opacity=".3"/><path fill="#3f7faa" fill-rule="nonzero" d="m49.0153 49.3646-5.55 4.34-2.06.4 2.83-6.35.2-5.81c.05-1.55 1.36-2.77 2.91-2.72.36.01.65.29.69.64z" opacity=".3"/><g opacity=".3"><clipPath id="b"><path d="M48.617001 37.173h12.683v22.785h-12.683z" clip-rule="nonzero"/></clipPath><g clip-path="url(#b)"><path fill="#3f7faa" fill-rule="nonzero" stroke="#000" d="m60.7953 43.3546-.6 9.93-9.99 5.27 6.55-9.39-1.35-7.93.92-1.9c.51-1.05 1.59-1.7 2.75-1.66z"/></g></g><path fill="#fff" fill-rule="nonzero" d="m56.7553 49.1646-6.55 9.39-2.14 3.07-33.18 18.73-9.56 1.67-3.49-11.38 25.09-8.82-.8-2.34 3.62-6.88-.04-6.13 2.76-5.08c.42-.77 1.21-1.23 2.06-1.23.17 0 .34.02.51.06h.01c.12.03.23.06.35.11.09.03.19.08.28.13.02.01.04.02.06.04.09.05.17.1.25.17.05.03.09.07.13.12.14.12.25.26.35.41.16.25.27.52.34.8.03.08.04.16.05.24.01.04.02.08.02.12l.66 5.63-1.71 5.53-.55 1.77 1.79-.35h.03l4.31-.84 2.06-.4 5.55-4.34 2.42-1.89-1.12-7.46c-.03-.18-.04-.35-.04-.52 0-1.41.84-2.7 2.18-3.24l2.95 4.98z"/><path fill="none" stroke="#000" stroke-width="2" d="m56.7553 49.1646-6.55 9.39-2.14 3.07-33.18 18.73-9.56 1.67-3.49-11.38 25.09-8.82-.8-2.34 3.62-6.88-.04-6.13 2.76-5.08c.42-.77 1.21-1.23 2.06-1.23.17 0 .34.02.51.06h.01c.12.03.23.06.35.11.09.03.19.08.28.13.02.01.04.02.06.04.09.05.17.1.25.17.05.03.09.07.13.12.14.12.25.26.35.41.17.24.29.51.34.8.03.08.04.16.05.24l.68 5.75-1.71 5.53c-.25.79.42 1.56 1.24 1.42h.03l4.31-.84 2.06-.4 5.55-4.34 2.42-1.89-1.12-7.46c-.03-.18-.04-.35-.04-.52 0-1.41.84-2.7 2.18-3.24l2.95 4.98z"/><path fill="none" stroke="#000" stroke-width="1.5" d="m50.2072 58.5512 9.991-5.271.596-9.924-1.719-5.68c-1.165-.041-2.243.61-2.75 1.659l-.919 1.903"/><path fill="none" stroke="#000" d="m48.8222 49.3997-.986-9.504c-.036-.352-.327-.623-.68-.635-1.557-.055-2.864 1.164-2.918 2.721l-.203 5.802-2.826 6.355"/><path fill-rule="nonzero" d="M30.8668 43.5662c1.431-.323 2.927.074 3.909.955-1.182-.604-2.548-.548-3.587-.008Zm12.8595 3.8141c.259-.13.472-.192.712-.254.235-.057.472-.091.708-.102.472-.025.941.068 1.335.258-.44-.028-.858.058-1.225.23-.184.084-.357.186-.517.301-.154.112-.323.253-.417.37Zm12.5544-4.2252c.086.168.242.375.386.55.149.18.312.35.492.498.355.296.789.531 1.318.457-.426.321-1.073.354-1.626.226-.285-.057-.559-.148-.826-.257-.272-.115-.515-.224-.796-.405Zm1.565 6.0096c-.041-.2-.064-.17-.087-.216-.025-.027-.043-.04-.059-.048-.033-.016-.055-.012-.065-.002-.026.021-.016.065.005.109.043.091.142.183.246.27.217.173.485.323.761.459-.287.112-.583.216-.918.275-.17.025-.346.047-.558.019-.107-.017-.222-.04-.357-.108-.067-.032-.139-.078-.216-.148-.038-.036-.078-.077-.118-.136-.041-.077-.077-.079-.125-.314ZM27.7623 61.2682l2.102 4.962-2.934-4.408Z"/><path fill="#fff" fill-rule="nonzero" stroke="#000" stroke-width="2" d="m23.8911 32.1833 17.042 3.685 6.785-12.362-8.019-10.53-12.449 3.671c-1.12 5.179-2.239 10.357-3.359 15.536Z"/><path fill="none" stroke="#000" stroke-linecap="round" stroke-linejoin="round" d="m27.24999804 16.64757989 12.44875594-3.67192783M27.2499 16.6476l-3.359 15.536 17.964-7.735Zm12.4492-3.6716 2.156 11.472 5.863-.942Zm1.2336 22.8928-17.042-3.685 17.964-7.735Z"/><path fill="none" stroke="#000" d="M40.93210323 35.86878696 47.7173527 23.5053356"/></g></g><path fill="none" stroke="#000" stroke-width="2" d="M63.354 55.1546997v-36l-31.177-18-31.177 18v36l31.177 18z"/></svg>