<svg xmlns="http://www.w3.org/2000/svg" xmlns:svg="http://www.w3.org/2000/svg" fill-rule="evenodd" stroke-miterlimit="10" clip-rule="evenodd" viewBox="0 0 64.353996 74.309402" xml:space="preserve"><path fill="#3f7faa" fill-rule="nonzero" d="m32.177 73.1546997 31.177-18v-36l-31.177-18-31.177 18v36z" opacity=".3"/><path fill="none" stroke="#000" stroke-width="2" d="m32.177 73.1546997 31.177-18v-36l-31.177-18-31.177 18v36z"/><path fill="none" stroke="#000" d="M27.4675 42.6252997v5.971l-4.029 4.029v4.794"/><path fill="#fff" fill-rule="nonzero" d="M24.9675 57.4193997c0 .828-.672 1.5-1.5 1.5s-1.5-.672-1.5-1.5.672-1.5 1.5-1.5 1.5.672 1.5 1.5"/><circle cx="-1.5" r="1.5" fill="none" stroke="#000" transform="matrix(0 -1 -1 0 23.4675 55.9193997)"/><path fill="none" stroke="#000" d="M15.3936 37.1840997h8.237"/><path fill="#fff" fill-rule="nonzero" d="M16.8936 37.1840997c0 .828-.672 1.5-1.5 1.5s-1.5-.672-1.5-1.5.672-1.5 1.5-1.5 1.5.672 1.5 1.5"/><circle cx="-1.5" r="1.5" fill="none" stroke="#000" transform="matrix(0 -1 -1 0 15.3936 35.6840997)"/><path fill="none" stroke="#000" d="M50.6239 33.2715997h-4.467l-2.233 3.868h-4.467m6.7027 3.8687-2.233-3.868h-4.467"/><path fill="#fff" fill-rule="nonzero" d="M49.6219 33.7695997c0-.828.672-1.5 1.5-1.5s1.5.672 1.5 1.5-.672 1.5-1.5 1.5-1.5-.672-1.5-1.5"/><circle cx="1.5" r="1.5" fill="none" stroke="#000" transform="matrix(0 1 1 0 51.1219 32.2695997)"/><path fill="#fff" fill-rule="nonzero" d="M45.1576 41.5062997c0-.828.672-1.5 1.5-1.5s1.5.672 1.5 1.5-.672 1.5-1.5 1.5-1.5-.672-1.5-1.5"/><circle cx="1.5" r="1.5" fill="none" stroke="#000" transform="matrix(0 1 1 0 46.6576 40.0062997)"/><path fill="#fff" stroke="#000" stroke-width="2" d="M40.409 28.6846987H23.468v16.941h16.941z"/><path fill="#3f7faa" d="M36.409 32.6846987h-8.941v8.941h8.941z" opacity=".4"/><path fill="none" stroke="#000" d="M36.409 32.6846987h-8.941v8.941h8.941z"/><path fill="none" stroke="#000" stroke-linecap="round" stroke-linejoin="round" d="M38.0205 31.0370997h0"/><path fill="none" stroke="#000" stroke-width="2" d="m11.3936 26.2158997 6.253 6.253h5.821m-12.074 17.6851v-4.529c1.172-1.171 1.828-1.828 3-3h9.074m8.7094 18.5283v-5.278l4.278-4.278v-5.972m16.5054 3.5287h-5.339l-7.231-7.231m12.57-16.7676h-12.57l-3.56 3.561m-4.8924-15.5764v7.765l-4.393 4.393v3.386"/><path fill="#fff" fill-rule="nonzero" d="M13.8936 26.2158997c0 1.381-1.119 2.5-2.5 2.5s-2.5-1.119-2.5-2.5 1.119-2.5 2.5-2.5 2.5 1.119 2.5 2.5"/><circle cx="-2.5" r="2.5" fill="none" stroke="#000" stroke-linecap="round" stroke-linejoin="round" stroke-width="2" transform="matrix(0 -1 -1 0 11.3936 23.7158997)"/><path fill="#fff" fill-rule="nonzero" d="M34.438 13.1399997c0 1.381-1.119 2.5-2.5 2.5s-2.5-1.119-2.5-2.5 1.119-2.5 2.5-2.5 2.5 1.119 2.5 2.5"/><circle cx="-2.5" r="2.5" fill="none" stroke="#000" stroke-linecap="round" stroke-linejoin="round" stroke-width="2" transform="matrix(0 -1 -1 0 31.938 10.6399997)"/><path fill="#fff" fill-rule="nonzero" d="M55.4604 25.1553997c0 1.381-1.119 2.5-2.5 2.5s-2.5-1.119-2.5-2.5 1.119-2.5 2.5-2.5 2.5 1.119 2.5 2.5"/><circle cx="-2.5" r="2.5" fill="none" stroke="#000" stroke-linecap="round" stroke-linejoin="round" stroke-width="2" transform="matrix(0 -1 -1 0 52.9604 22.6553997)"/><path fill="#fff" fill-rule="nonzero" d="M55.4604 49.1539997c0 1.381-1.119 2.5-2.5 2.5s-2.5-1.119-2.5-2.5 1.119-2.5 2.5-2.5 2.5 1.119 2.5 2.5"/><circle cx="-2.5" r="2.5" fill="none" stroke="#000" stroke-linecap="round" stroke-linejoin="round" stroke-width="2" transform="matrix(0 -1 -1 0 52.9604 46.6539997)"/><path fill="#fff" fill-rule="nonzero" d="M34.677 61.1693997c0 1.381-1.119 2.5-2.5 2.5s-2.5-1.119-2.5-2.5 1.119-2.5 2.5-2.5 2.5 1.119 2.5 2.5"/><circle cx="-2.5" r="2.5" fill="none" stroke="#000" stroke-linecap="round" stroke-linejoin="round" stroke-width="2" transform="matrix(0 -1 -1 0 32.177 58.6693997)"/><path fill="none" stroke="#000" d="M31.9231 45.5383997v4.888"/><path fill="#fff" fill-rule="nonzero" d="M13.8936 50.1539997c0 1.381-1.119 2.5-2.5 2.5s-2.5-1.119-2.5-2.5 1.119-2.5 2.5-2.5 2.5 1.119 2.5 2.5"/><circle cx="-2.5" r="2.5" fill="none" stroke="#000" stroke-linecap="round" stroke-linejoin="round" stroke-width="2" transform="matrix(0 -1 -1 0 11.3936 47.6539997)"/><path fill="#fff" fill-rule="nonzero" d="M33.4231 50.4267997c0 .828-.672 1.5-1.5 1.5s-1.5-.672-1.5-1.5.672-1.5 1.5-1.5 1.5.672 1.5 1.5"/><circle cx="-1.5" r="1.5" fill="none" stroke="#000" transform="matrix(0 -1 -1 0 31.9231 48.9267997)"/><path fill="none" stroke="#000" d="m38.30099067 21.08653364-8.25618134 8.25618133"/><path fill="#fff" fill-rule="nonzero" d="M37.24072055 22.1473602c-.5861917-.5861917-.5868988-1.5358364-.0007071-2.1206139.5861917-.5861917 1.5358364-.5868988 2.121321 0 .5861917.5847775.5854846 1.5344222-.00070711 2.1206139-.58477749.5861917-1.53442219.5854846-2.11990679 0"/><circle cx="1.061" cy="1.061" r="1.5" fill="none" stroke="#000" transform="scale(1 -1) rotate(-45 -7.05344602 -54.96594878)"/></svg>