<svg xmlns="http://www.w3.org/2000/svg" xmlns:svg="http://www.w3.org/2000/svg" fill-rule="evenodd" stroke-miterlimit="10" clip-rule="evenodd" viewBox="0 0 64.353996 74.309402" xml:space="preserve"><path fill="#7f5a90" fill-rule="nonzero" d="M63.3544 55.1546997v-36l-31.177-18-31.177 18v36l31.177 18z" opacity=".3"/><path fill="none" stroke="#000" stroke-width="2" d="M63.354 55.1546997v-36l-31.177-18-31.177 18v36l31.177 18z"/><path fill="#fff" fill-rule="nonzero" stroke="#000" stroke-width="2" d="m47.9809 52.8022997-9.253-16.026c-.305-.529-.465-1.128-.465-1.738v-12.96c.997-.215 1.744-1.1 1.744-2.161 0-1.222-.99-2.212-2.212-2.212h-11.576c-1.247.059-2.208 1.073-2.212 2.212-.003.986.712 1.898 1.745 2.161v13.548c0 .61-.16 1.21-.466 1.738l-8.913 15.438c-1.337 2.317.335 5.214 3.011 5.214h25.587c2.676 0 4.348-2.897 3.01-5.214z"/><path d="M25.7494 21.1620997h12.472v1h-12.472z"/><path fill="#7f5a90" fill-rule="nonzero" d="m44.6025 53.4705997-5.34-9.25c-1.17-.01-2.21-.11-3.11-.24-.79-.12-1.47-.26-2.09-.42-2.11-.54-3.54-1.21-6.08-1.41-.57-.04-1.12-.06-1.67-.04l-1.21 2.09-5.35 9.27c-.39.66.09 1.5.86 1.5h23.13c.77 0 1.25-.84.86-1.5m-9.6563-12.5523c.633 0 1.147-.514 1.147-1.147 0-.634-.514-1.147-1.147-1.147s-1.147.513-1.147 1.147c0 .633.514 1.147 1.147 1.147" opacity=".4"/><path fill="#fff" fill-rule="nonzero" d="M26.8839 46.7121997c0-.987.8-1.787 1.787-1.787.987 0 1.787.8 1.787 1.787 0 .987-.8 1.787-1.787 1.787-.987 0-1.787-.8-1.787-1.787m.6397-33.9692c0-.633.514-1.147 1.147-1.147.634 0 1.147.514 1.147 1.147 0 .634-.513 1.147-1.147 1.147-.633 0-1.147-.513-1.147-1.147"/></svg>