<svg xmlns="http://www.w3.org/2000/svg" xmlns:svg="http://www.w3.org/2000/svg" fill-rule="evenodd" stroke-linecap="round" stroke-linejoin="round" stroke-miterlimit="10" clip-rule="evenodd" viewBox="0 0 64.353996 74.309402" xml:space="preserve"><path fill="#3f7faa" fill-rule="nonzero" d="M63.354 55.1546997v-36l-31.177-18-31.177 18v36l31.177 18z" opacity=".3"/><g transform="translate(-3.8229 -3.3453003)"><clipPath id="a"><path d="M4.823 22.5v36L36 76.5l31.177-18v-36L36 4.5Z" clip-rule="nonzero"/></clipPath><g clip-path="url(#a)"><path fill="#fff" fill-rule="nonzero" d="M46.551 25.7976c0 5.827-4.724 10.551-10.551 10.551s-10.551-4.724-10.551-10.551S30.173 15.2466 36 15.2466s10.551 4.724 10.551 10.551"/><circle cx="-10.551" r="10.551" fill="none" stroke="#000" stroke-width="2" transform="matrix(0 -1 -1 0 36 15.2466)"/><path fill="#fff" fill-rule="nonzero" stroke="#000" stroke-width="2" d="M48.0826 36.348h-24.165c-6.979 0-12.538 5.838-12.196 12.808l.94 19.202c.284 5.805 5.074 10.365 10.885 10.365l3.114 28.538h18.679l3.113-28.538h.001c5.811 0 10.6-4.56 10.885-10.365l.94-19.202c.342-6.97-5.218-12.808-12.196-12.808Z"/><path fill="#3f7faa" fill-rule="nonzero" d="M45.9496 63.5285v-11.489l-9.95-5.744-9.949 5.744v11.489l9.949 5.744z" opacity=".3"/><path fill="none" stroke="#000" stroke-linecap="butt" stroke-linejoin="miter" stroke-width="2" d="M45.9496 63.5285v-11.489l-9.95-5.744-9.949 5.744v11.489l9.949 5.744z"/><path fill="#fff" fill-rule="nonzero" stroke="#000" stroke-linecap="butt" stroke-linejoin="miter" d="m36 57.7841 9.95-5.744Z"/><path fill="none" stroke="#000" stroke-linecap="butt" stroke-linejoin="miter" d="m26.0504 52.0397 9.95 5.744v11.489"/></g></g><path fill="none" stroke="#000" stroke-linecap="butt" stroke-linejoin="miter" stroke-width="2" d="M63.354 55.1546997v-36l-31.177-18-31.177 18v36l31.177 18z"/></svg>