<svg xmlns="http://www.w3.org/2000/svg" xmlns:xlink="http://www.w3.org/1999/xlink" fill-rule="evenodd" stroke-miterlimit="10" clip-rule="evenodd" viewBox="0 0 269 310" xml:space="preserve"><path fill="#3F7FAA" fill-rule="nonzero" d="M264.89146191 230.19393415v-150.00012l-129.90427059-75.00006-129.90427059 75.00006v150.00012l129.9042706 75.00006 129.90427058-75.00006Z" opacity=".3"/><path fill="none" stroke="#231F20" stroke-width="8.33334" d="M264.89146191 230.19393415v-150.00012l-129.90427059-75.00006-129.90427059 75.00006v150.00012l129.9042706 75.00006 129.90427058-75.00006Z"/><path fill="#fff" fill-rule="nonzero" stroke="#231F20" stroke-width="8.33334" d="m134.98802466 50.25587354-90.87923937 52.46670864V207.6643328l90.87923937 52.46670864 90.87923937-52.46670864V102.72258218l-90.87923937-52.46670864Z"/><path fill="#3F7FAA" fill-rule="nonzero" d="m158.71262697 155.19387415 28.40418939-52.12920837-52.12920837 28.4041894-52.12920837-28.4041894 28.40418939 52.12920837-28.40418939 52.12920837 52.12920837-28.40418939 52.12920837 28.4041894-28.40418939-52.12920838Z" opacity=".4"/><path fill="#fff" fill-rule="nonzero" d="m151.76262141 171.97055424 56.94587889-16.77501342-56.94587889-16.77918009-16.77501342-56.94587889-16.77501342 56.9458789-56.94587889 16.77918008 56.94587889 16.77501342 16.77501342 56.9458789 16.77501342-56.9458789Z"/><path fill="#3F7FAA" fill-rule="nonzero" d="m151.76262141 171.97055424 56.94587889-16.77501342-56.94587889-16.77918009-16.77501342-56.94587889-16.77501342 56.9458789-56.94587889 16.77918008 56.94587889 16.77501342 16.77501342 56.9458789 16.77501342-56.9458789Z" opacity=".4"/><path fill="none" stroke="#fff" stroke-width="4.16667" d="m151.76262141 171.97055424 56.94587889-16.77501342-56.94587889-16.77918009-16.77501342-56.94587889-16.77501342 56.9458789-56.94587889 16.77918008 56.94587889 16.77501342 16.77501342 56.9458789 16.77501342-56.9458789Z"/></svg>