<svg xmlns="http://www.w3.org/2000/svg" xmlns:svg="http://www.w3.org/2000/svg" fill-rule="evenodd" stroke-linecap="round" stroke-linejoin="round" stroke-miterlimit="10" clip-rule="evenodd" viewBox="0 0 64.353996 74.309402" xml:space="preserve"><g transform="translate(-3.8231 -3.3453003)"><clipPath id="a"><path d="M4.823 22.5v36L36 76.5l31.177-18v-36L36 4.5Z" clip-rule="nonzero"/></clipPath><g clip-path="url(#a)"><path fill="#3f7faa" fill-rule="nonzero" d="M4.8231 58.5001v-36l31.177-18 31.177 18v36l-31.177 18Z" opacity=".3"/><path fill-rule="nonzero" d="M29.2108 24.0833c0 3.749 3.039 6.789 6.79 6.789 3.748 0 6.788-3.04 6.788-6.789 0-3.749-3.04-6.79-6.788-6.79-3.751 0-6.79 3.041-6.79 6.79"/><circle cx="6.789" r="6.789" fill="none" stroke="#000" stroke-width="2" transform="matrix(0 1 1 0 35.9998 17.2943)"/><path fill="#fff" fill-rule="nonzero" stroke="#000" stroke-width="2" d="m51.1267 49.2257-.11 2.24c-.18 3.74-3.26 6.67-7 6.67l-2.01 18.36h-12.02l-2-18.36c-1.87 0-3.57-.73-4.83-1.93-1.26-1.2-2.08-2.87-2.17-4.74l-.61-12.35c-.12-2.44.88-4.66 2.54-6.18z"/><path fill-rule="nonzero" stroke="#000" stroke-width="2" d="m51.6267 39.1157-.5 10.11-28.21-16.29c1.39-1.28 3.26-2.06 5.31-2.06h15.55c4.49 0 8.06 3.75 7.85 8.24z"/></g></g><path fill="none" stroke="#000" stroke-linecap="butt" stroke-linejoin="miter" stroke-width="2" d="M1 55.1546997v-36l31.177-18 31.177 18v36l-31.177 18Z"/></svg>