<svg xmlns="http://www.w3.org/2000/svg" xmlns:svg="http://www.w3.org/2000/svg" fill-rule="evenodd" stroke-miterlimit="10" clip-rule="evenodd" viewBox="0 0 64.353996 74.308701" xml:space="preserve"><g transform="translate(-3.8229 -3.3453003)"><clipPath id="a"><path d="M4.823 22.5v36L36 76.5l31.177-18v-36L36 4.5Z" clip-rule="nonzero"/></clipPath><g fill-rule="nonzero" clip-path="url(#a)"><path fill="#3f7faa" d="M67.1769 58.5v-36l-31.177-18-31.177 18v36l31.177 18z" opacity=".3"/><path fill="#fff" d="M-.2461 57.8628v-24.119l24.112-13.098-.084 9.671-.471.289c-6.49 3.985-10.255 9.444-9.156 13.274.083.289.879 2.855 3.225 3.776.566.222 1.182.334 1.832.334 1.414 0 2.791-.532 3.683-1.423.873-.873.896-1.733.933-3.159.031-1.197.07-2.688.699-4.526 2.235-6.532 9.186-9.45 10.557-9.969 2.103-.796 4.336-1.2 6.637-1.2.908 0 1.83.064 2.739.191l.51.071.239.457c.281.54 1.364 2.347 3.5 2.933.448.123.914.186 1.386.186.419 0 .843-.049 1.259-.146l.425-.097 9.335 6.326-2.305 10.268-2.877-5.315-3.562-1.911-5.943.725c-.898.824-1.906 1.452-3.002 1.869-1.028.391-2.123.589-3.255.589-2.145 0-4.049-.698-5.37-1.357.004 1.965-.326 4.41-1.489 6.958-.438.958-1.6 3.503-4.284 5.658-1.229.988-4.573 3.284-9.068 3.284-.863 0-1.731-.088-2.58-.26-2.196-.446-3.962-1.39-5.284-2.352-.332 3.039-.292 6.098.12 9.119.379 2.771 1.073 5.509 2.063 8.135l2.261 5.995z"/><path d="m24.8813 18.9565-2.984 1.621-11.049 6.002-11.049 6.001-1.045.568v25.063l.432.545 6.294 7.942 6.294 7.941 7.96 10.043-4.521-11.991c-.964-2.556-1.639-5.22-2.007-7.918-.328-2.4-.414-4.826-.259-7.245 1.185.673 2.597 1.261 4.232 1.593.915.186 1.849.28 2.778.28 4.814 0 8.384-2.45 9.696-3.504 2.869-2.305 4.103-5.006 4.567-6.023.952-2.084 1.378-4.102 1.521-5.872 1.252.476 2.772.856 4.428.856 1.255 0 2.47-.22 3.612-.654 1.115-.424 2.148-1.045 3.077-1.849l5.318-.648 3.019 1.618.589 1.089.875 1.615 2.541 4.695 1.169-5.209.524-2.333 1.047-4.665.298-1.329-1.128-.765-4.5-3.05-3.909-2.649-.722-.489-.849.196c-.344.079-.693.119-1.036.119-.382 0-.759-.05-1.12-.149-1.745-.48-2.645-1.983-2.879-2.433l-.477-.913-1.021-.142c-.955-.133-1.923-.201-2.877-.201-2.422 0-4.774.426-6.991 1.265-1.444.547-8.77 3.628-11.149 10.58-.678 1.983-.719 3.559-.752 4.825-.037 1.433-.076 1.913-.641 2.477-.697.697-1.838 1.13-2.975 1.13-.525 0-1.018-.089-1.466-.265-1.933-.759-2.603-3.024-2.63-3.121-.96-3.346 2.706-8.454 8.717-12.146l.944-.579.01-1.107.032-3.71.032-3.709zm-2.03 3.378-.064 7.419c-6.989 4.292-10.822 10.12-9.594 14.402.095.33 1.007 3.326 3.822 4.431.699.274 1.449.403 2.197.403 1.655 0 3.304-.631 4.389-1.715 2.059-2.057.55-4.206 1.872-8.069 2.151-6.287 9.022-9 9.965-9.357 2.322-.88 4.503-1.136 6.282-1.136 1.014 0 1.897.084 2.601.181.237.454 1.471 2.708 4.123 3.436.596.164 1.155.221 1.65.221.613 0 1.126-.088 1.485-.171l8.409 5.7c-.523 2.333-1.047 4.665-1.571 6.998-.582-1.077-1.165-2.154-1.748-3.231-1.369-.734-2.737-1.468-4.106-2.201-2.195.267-4.39.535-6.585.802-.682.67-1.638 1.405-2.908 1.887-.987.375-1.966.524-2.901.524-3.309 0-6.047-1.867-6.474-2.167.173 1.512.337 4.781-1.294 8.353-.466 1.019-1.551 3.326-4 5.294-.65.521-3.94 3.063-8.444 3.063-.761 0-1.557-.073-2.38-.24-3.09-.627-5.19-2.306-6.235-3.294-.439 2.793-.734 6.658-.118 11.177.456 3.342 1.291 6.16 2.118 8.353L.7543 57.5145v-23.176c7.366-4.001 14.732-8.002 22.097-12.004"/><path d="M50.3213 34.4564c0-.525.615-.81 1.015-.47.437.372.175 1.086-.399 1.086-.34 0-.616-.276-.616-.616"/><path fill="#3f7faa" d="M42.2759 34.7764c-.516 0-1.011-.218-1.359-.599-.686-.748-.635-1.916.114-2.602.341-.312.783-.484 1.244-.484.516 0 1.011.218 1.359.598.686.75.634 1.917-.114 2.603-.341.312-.783.484-1.244.484" opacity=".3"/><path d="M42.275 30.592c-.587 0-1.149.218-1.582.615-.461.423-.73 1-.758 1.625-.027.624.191 1.223.613 1.684.443.483 1.072.76 1.728.76.587 0 1.148-.218 1.581-.615.462-.422.731-.999.758-1.624.028-.625-.19-1.224-.613-1.685-.442-.483-1.072-.76-1.727-.76m0 1c.363 0 .725.147.99.436.501.546.463 1.395-.083 1.896-.258.236-.583.352-.906.352-.364 0-.726-.146-.99-.435-.501-.547-.464-1.396.083-1.897.257-.235.582-.352.906-.352m2.5544 5.0875 3.857.119.06.002.06.038 7.863 5.008-1.02 1.721-7.147-6.215.12.04z"/></g></g><g opacity=".9" transform="translate(63.354 19.1546997)"><clipPath id="b"><path d="M-63.354-19.155001H.999996v74.308998H-63.354z" clip-rule="nonzero"/></clipPath><g clip-path="url(#b)"><path fill="none" stroke="#000" stroke-width="2" d="M0 36V0l-31.177-18-31.177 18v36l31.177 18z"/></g></g></svg>