<svg xmlns="http://www.w3.org/2000/svg" xmlns:svg="http://www.w3.org/2000/svg" fill-rule="evenodd" stroke-miterlimit="10" clip-rule="evenodd" viewBox="0 0 64.353996 74.309402" xml:space="preserve"><g transform="translate(-3.8231 -3.3453003)"><clipPath id="a"><path d="M4.823 22.5v36L36 76.5l31.177-18v-36L36 4.5Z" clip-rule="nonzero"/></clipPath><g fill-rule="nonzero" clip-path="url(#a)"><path fill="#3f7faa" d="M4.8231 22.4998v36l31.177 18 31.177-18v-36l-31.177-18Z" opacity=".3"/><path fill="#fff" d="m55.5 44.74-2.92 4.86-1.14-.69-2.92 4.86-1.15-.69-2.92 4.85-1.14-.69-1.15-.68-2.92 4.85-3.21-1.92.89-1.74-3.95-3.28 1.12-2.25-4.97-4.01.56-1.12-5.67-1.64-.48.88-4.16-1.04-2.41 2.77c-1.74-3.83-3.47-7.65-5.21-11.47C3.63 27.27-4.49 17.96-12.61 8.65-6.99 6.18-1.37 3.72 4.25 1.26L26.63 29.4l-2.48 5.79c-.25.59.18 1.23.81 1.23H25c2.96-.15 5.72-1.56 7.58-3.86l.93-1.102 5.6 3.432 11.64 6.99.8.49z"/><path d="M54.5298 44.9822c-.861-.397-1.663-.78-2.439-1.224-.4-.229-.751-.442-1.19-.723l-1.357-.859-5.441-3.413c-3.634-2.264-7.251-4.559-10.854-6.878l.643-.104c-.481.59-.924 1.186-1.464 1.798-.538.596-1.144 1.134-1.802 1.601-1.317.934-2.847 1.586-4.457 1.872-.418.067-.768.128-1.286.145-.727-.006-1.407-.56-1.574-1.276-.089-.353-.048-.757.084-1.067l.211-.532.421-1.063 1.685-4.251.001-.002.137 1.016-22.38-28.14 1.183.294-16.858 7.389.351-1.572 24.36 27.939v.001l.116.144.04.098 4.755 11.677v.001l-.832-.121 2.41-2.77.201-.232.298.075 4.159 1.04-.56.245.48-.879v-.001l.193-.352.385.112 5.67 1.639.577.167-.269.537-.559 1.12h-.001l-.133-.612 4.97 4.009v.001l.313.252-.179.36-1.12 2.249-.128-.607 4.269 2.895.616.512-.365.713-.889 1.74-.377-1.313 3.209 1.92-1.369.342 2.919-4.85.515-.854.851.509 2.299 1.375-1.374.34 2.919-4.85.516-.855.856.513 1.15.69-1.372.343 2.92-4.86.517-.86.858.519 1.14.69-1.375.341c.843-1.423 1.766-2.71 2.807-4.103m1.94-.484c-.906 1.846-1.929 3.799-3.033 5.617l-.52.857-.855-.517-1.139-.69 1.374-.34-2.92 4.86-.514.856-.857-.514-1.15-.69 1.371-.341-2.92 4.849-.514.855-.861-.515-2.281-1.364 1.366-.345-2.92 4.849-.514.855-4.066-2.432-.803-.48.426-.834.89-1.739.251 1.224-3.63-3.664-.312-.315.184-.293 1.12-2.25.133.612-4.97-4.01-.313-.253.74-1.48.308.704-5.67-1.64.578-.241v.001l-.48.879-.185.34-.375-.094h-.001l-4.159-1.04.498-.157-2.409 2.77-.511.587-.322-.708v-.001l-5.665-11.262.156.243v-.001l-24.359-27.939-.895-1.026 1.246-.547 16.861-7.39.705-.309.479.602 22.38 28.14.372.468-.236.549v.001l-1.914 4.151-.743 1.607c.002.032.016.075.062.084.243.002.651-.028.987-.067 1.404-.17 2.777-.664 3.989-1.428.606-.382 1.172-.831 1.684-1.339.498-.503 1.002-1.103 1.514-1.667l.265-.327.379.223c3.686 2.175 7.388 4.326 11.109 6.448l5.57 3.2 1.39.805c.475.276 1.044.609 1.561.933 1.06.657 2.093 1.375 3.068 2.08"/><path fill="#adbfd6" d="m81.85 20.41-30.3 21.96-.8-.49-16.984-10.407L36.2 28.07l-2.72 3.37-.9 1.12c-1.86 2.3-4.62 3.71-7.58 3.86h-.04c-.63 0-1.06-.64-.81-1.23l2.48-5.79.09-.21.64-1.49 1.65-3.83 23.22-2.13L72.79.81z"/><path d="m81.1983 20.8067-.316-.649c-3.079-6.33-6.075-12.585-9-18.928l1.621.281-20.56 20.93-.256.261-.366.034-23.216 2.176.866-.628-2.864 6.557-1.466 3.264-.655 1.441c-.004-.014-.016-.017-.019-.013l-.011.004s-.009.002.017.006l.19-.01c2.146-.124 4.36-.907 6.047-2.403.845-.708 1.559-1.696 2.388-2.559.816-.875 1.665-1.723 2.601-2.5l.001-.001-2.434 3.402v.001c1.683.579 3.245 1.357 4.773 2.189l4.559 2.54c1.528.834 3.017 1.73 4.525 2.595 1.506.87 2.992 1.771 4.47 2.685h.001l-1.155.045 14.935-10.701c2.541-1.76 4.802-3.648 7.57-5.299 2.498-1.569 5.05-3.133 7.754-4.72m1.255-.955-.603.558c-2.099 1.943-4.395 3.899-6.745 5.863-2.281 2.01-5.071 3.782-7.58 5.681l-15.364 11.26-.556.407-.599-.363h-.001c-1.486-.902-2.963-1.817-4.422-2.763-1.455-.951-2.93-1.872-4.367-2.854l-4.333-2.908c-1.435-.984-2.837-2.023-4.118-3.26l.001-.001 2.434-3.402-.001.001c-.562 1.079-1.211 2.088-1.894 3.07l-1.053 1.449c-.341.476-.756.994-1.195 1.435-1.77 1.8-4.18 3.048-6.797 3.25l-.256.022c-.123.002-.286-.006-.428-.038-.292-.061-.572-.201-.797-.399-.454-.389-.687-1.028-.581-1.63.021-.143.077-.308.119-.414l.084-.207.168-.415.336-.829 1.352-3.315c.927-2.201 1.836-4.407 2.792-6.594l.25-.573.615-.055 23.224-2.084-.622.295 20.56-20.929 1.013-1.032.608 1.313c2.99 6.452 5.908 12.99 8.756 19.461"/><path fill="#adbfd6" d="m37.1912 57.6618-2.321 4.098-11.35-2.38s-5.99-6.38-7.92-8.44c-.37-.39-.59-.63-.59-.63l1.95-2.25 2.41-2.77 4.16 1.04.48-.88 5.67 1.64-.56 1.12 4.97 4.01-1.12 2.25z"/><path d="M36.2119 57.8644c-.39-.201-.677-.417-.962-.649-.287-.229-.571-.468-.855-.716-.572-.494-1.142-1.032-1.726-1.631l-.302-.308.156-.313c.372-.751.756-1.495 1.119-2.25l.134.612-4.97-4.01-.313-.253.74-1.48.308.704-5.664-1.659.555-.231-.487.876-.179.322-.351-.09-4.154-1.062.449-.141c-.736.829-1.44 1.685-2.157 2.53-.719.843-1.413 1.707-2.073 2.602l-.011-.828c1.535 1.378 3.121 2.749 4.534 4.261l4.325 4.471-.58-.326 5.68 1.165c1.891.398 3.779.813 5.662 1.249l-1.154.522c.703-1.133 1.471-2.216 2.276-3.367m1.959-.405c-.743 1.581-1.522 3.23-2.367 4.829l-.355.672-.799-.15c-1.9-.357-3.796-.735-5.688-1.131l-5.669-1.214-.353-.076-.228-.251-4.185-4.599c-1.424-1.511-2.676-3.161-3.976-4.809l-.372-.473.361-.355c.792-.78 1.549-1.591 2.283-2.421.738-.827 1.488-1.643 2.207-2.487l.177-.208.272.067 4.166 1.018-.53.232.473-.883.182-.338.374.106 5.675 1.621.578.165-.27.539-.56 1.12-.133-.612 4.97 4.009.317.256-.183.356c-.384.745-.746 1.501-1.12 2.25l-.146-.621c.822.466 1.659.991 2.495 1.561l1.255.88c.419.3.835.616 1.149.947"/><path fill="#fff" d="m19.0411 54.6024 1.738-3.2 3.231-5.952"/><path d="m18.16224378 54.12473501 5.40781237-8.91269738.87897935.47717939-4.52883303 9.38987676Z"/><path fill="#fff" d="m29.6808 47.0931-3.54 7.054-2.617 5.235"/><path d="m30.1277 47.3174-5.71 12.512-1.788-.894 3.281-6.044 3.323-6.023z"/><path fill="#fff" d="m29.8583 60.7108 1.852-3.715 2.383-4.776"/><path d="m28.9634 60.2645 2.316-4.146 2.366-4.122.895.447-1.869 4.369-1.918 4.345ZM56.356 45.259l-2.918 4.857-.039.065c-.264.439-.834.581-1.272.317l-.062-.04-10.305-7.359-.032-.023c-.224-.16-.276-.472-.116-.696.152-.213.443-.27.663-.138l10.82 6.502-1.372.342 2.919-4.857c.284-.473.898-.627 1.372-.342.473.284.626.899.342 1.372m-16.9989 1.8401 8.527 5.123c.473.285.626.899.342 1.373l-2.919 4.856-.049.083c-.258.43-.817.569-1.247.311l-.076-.052-7.935-5.934-.041-.03c-.22-.165-.265-.478-.1-.698.154-.207.439-.258.656-.129l8.45 5.077-1.372.342 2.918-4.856.342 1.372-8.011-5.981-.04-.03c-.221-.165-.266-.477-.102-.698.155-.206.44-.258.657-.129"/></g></g><path fill="none" stroke="#000" stroke-width="2" d="M1 19.1546997v36l31.177 18 31.177-18v-36l-31.177-18Z"/></svg>