<svg xmlns="http://www.w3.org/2000/svg" xmlns:svg="http://www.w3.org/2000/svg" fill-rule="evenodd" stroke-miterlimit="10" clip-rule="evenodd" viewBox="0 0 64.353996 74.309402" xml:space="preserve"><g transform="translate(-3.8229 -3.3453003)"><clipPath id="a"><path d="M4.823 22.5v36L36 76.5l31.177-18v-36L36 4.5Z" clip-rule="nonzero"/></clipPath><g fill-rule="nonzero" clip-path="url(#a)"><path fill="#3f7faa" d="M67.1769 58.5v-36l-31.177-18-31.177 18v36l31.177 18z" opacity=".3"/><path fill="#fff" d="M47.7223 40.4988c0 7.07-5.006 11.084-10.798 14.936-.307.204-.613.409-.92.623h-.01c-.317.194-.613.398-.93.603-.306-.205-.613-.409-.919-.613-5.69-3.831-10.89-8.142-10.89-15.549s5.2-11.718 10.88-15.549c.306-.204.623-.408.929-.613.317.205.613.409.93.603h.01c.307.215.613.419.92.623 5.792 3.862 10.798 7.877 10.798 14.936m.9828 34.9252h-24.379c.46-6.442 5.248-10.239 10.75-13.904.307-.215.623-.419.929-.623.307-.194.613-.398.919-.602.317.204.623.408.929.612 5.421 3.655 10.403 7.738 10.852 14.517"/></g></g><g transform="translate(18.4181 1.1773997)"><clipPath id="b"><path d="M2.043 35.967c0 .007-.001.014-.001.022 0 7.887 6.234 11.962 12.833 16.275 4.779 3.124 9.999 6.536 12.745 11.71l17.316-9.997v-18.01z" clip-rule="nonzero"/></clipPath><g clip-path="url(#b)"><path fill="none" stroke="#000" stroke-width="2" d="M0 71.935C0 53.952 27.517 53.952 27.517 35.97 27.517 17.985 0 17.985 0 0"/></g></g><g transform="translate(18.4181 1.1548997)"><clipPath id="c"><path d="M-17.418 35.968V54l31.065 17.935h.224l10.213-5.896c-2.201-4.315-6.728-7.275-11.442-10.356-6.883-4.499-14.683-9.597-14.683-19.694 0-.008.001-.014.001-.021z" clip-rule="nonzero"/></clipPath><g clip-path="url(#c)"><path fill="none" stroke="#000" stroke-width="2" d="M0 71.935C0 53.952 27.517 53.952 27.517 35.97 27.517 17.985 0 17.985 0 0"/></g></g><g transform="translate(-3.8229 -3.3453003)"><clipPath id="d"><path d="M35.98 4.512 25.694 10.45c2.21 4.292 6.723 7.243 11.421 10.314 6.882 4.498 14.684 9.597 14.684 19.694 0 .007-.002.014-.002.021h15.38V22.5L36.02 4.512Z" clip-rule="nonzero"/></clipPath><g clip-path="url(#d)"><path fill="#fff" fill-rule="nonzero" d="M48.7294 5.5159h-24.379c.46 6.442 5.248 10.239 10.75 13.904.307.215.623.419.929.623.307.194.613.398.919.602.317-.204.623-.408.929-.612 5.421-3.655 10.403-7.738 10.852-14.517"/><path fill="none" stroke="#000" stroke-width="2" d="M49.7568 4.5114c0 17.983-27.517 17.983-27.517 35.965 0 17.985 27.517 17.985 27.517 35.97"/><path fill="none" stroke="#000" stroke-dasharray="6 2 4 2 2" d="M4.141 4.5237h45.616"/><path fill="none" stroke="#000" stroke-dasharray="22 7 0 4 10" stroke-linecap="round" stroke-linejoin="round" stroke-width="2" d="M4.141 10.0181h44.911"/><path fill="none" stroke="#000" stroke-dasharray="24 6 2 4 5" stroke-linecap="round" stroke-linejoin="round" stroke-width="2" d="M4.141 15.5126H46.89"/></g></g><g transform="translate(-3.8229 -3.3453003)"><clipPath id="e"><path d="M51.797 40.477c0 .007.002.014.002.021 0 10.092-7.802 15.188-14.684 19.684-4.715 3.08-9.243 6.04-11.445 10.354l10.201 5.889h.258L67.177 58.5V40.477Z" clip-rule="nonzero"/></clipPath><g fill="none" stroke="#000" clip-path="url(#e)"><path stroke-width="2" d="M49.7568 76.4259c0-17.973-27.517-17.973-27.517-35.947 0-17.975 27.517-17.975 27.517-35.951"/><path stroke-dasharray="6 2 4 2 2" d="M4.141 76.4137h45.616"/><path stroke-dasharray="12 4 0 0 0" stroke-linecap="round" stroke-linejoin="round" stroke-width="2" d="M49.0997 70.9216H4.1407"/><path stroke-dasharray="6 4 0 8 0 6" stroke-linecap="round" stroke-linejoin="round" stroke-width="2" d="M45.1284 65.4295H4.1414"/></g></g><g transform="translate(-3.8229 -3.3453003)"><clipPath id="f"><path d="M4.823 22.5v17.977h42.89v-.01c0-7.882-6.227-11.955-12.833-16.273-4.774-3.124-9.985-6.533-12.732-11.696Z" clip-rule="nonzero"/></clipPath><g fill="none" stroke="#000" stroke-width="2" clip-path="url(#f)"><path d="M49.7578 4.5235c0 17.997-27.517 17.968-27.517 35.965 0 17.985 27.517 17.985 27.517 35.97"/><path stroke-dasharray="8 4 6 4 0" stroke-linecap="round" stroke-linejoin="round" d="M22.2545 40.4733h45.542"/><path stroke-dasharray="6 4 4 4 2 20" stroke-linecap="round" stroke-linejoin="round" d="M23.3173 34.9789h44.48"/><path stroke-dasharray="10 4 0 0 0 20" stroke-linecap="round" stroke-linejoin="round" d="M26.8447 29.4844h40.952"/></g></g><g transform="translate(-3.8229 -3.3453003)"><clipPath id="g"><path d="M4.823 40.5v18l17.31 9.994c2.742-5.177 7.965-8.591 12.747-11.719 6.606-4.316 12.833-8.387 12.833-16.264V40.5Z" clip-rule="nonzero"/></clipPath><g fill="none" stroke="#000" stroke-width="2" clip-path="url(#g)"><path d="M49.7578 76.4347c0-17.973-27.517-17.973-27.517-35.946 0-17.975 27.517-17.975 27.517-35.951"/><path stroke-dasharray="8 4 6 4 0 20" stroke-linecap="round" stroke-linejoin="round" d="M22.241 40.504h45.556"/><path stroke-dasharray="4 4 6 4 2 20" stroke-linecap="round" stroke-linejoin="round" d="M23.2354 45.9961h44.561"/><path stroke-dasharray="4 4 4 4 0 20" stroke-linecap="round" stroke-linejoin="round" d="M26.8487 51.4882h40.948"/></g></g><g transform="translate(-3.8229 -3.3453003)"><clipPath id="h"><path d="M4.823 22.5v36L36 76.5l31.177-18v-36L36 4.5Z" clip-rule="nonzero"/></clipPath><g clip-path="url(#h)"><path fill="none" stroke="#000" stroke-width="2" d="M22.24077875 40.48826209c.00000285 17.98562413 27.51745767 17.98498297 27.51746053 35.9706071m-.0002-35.98845701c-.00000286-17.98562412-27.51745768-17.98498296-27.51746053-35.9706071"/></g></g><path fill="none" stroke="#000" stroke-width="2" d="M63.354 55.1546997v-36l-31.177-18-31.177 18v36l31.177 18z"/></svg>