<svg xmlns="http://www.w3.org/2000/svg" xmlns:svg="http://www.w3.org/2000/svg" fill-rule="evenodd" stroke-miterlimit="10" clip-rule="evenodd" viewBox="0 0 63.011002 74.322212" xml:space="preserve"><g transform="translate(-4.4947 -3.3388937)"><clipPath id="a"><path d="M5.495 22.5v36L36 76.5l30.506-18v-36L36 4.5Z" clip-rule="nonzero"/></clipPath><g clip-path="url(#a)"><path fill="#3d8b8a" fill-rule="nonzero" d="M66.5057 58.5v-36l-30.506-18-30.505 18v36l30.505 18z" opacity=".3"/><path fill="#fff" fill-rule="nonzero" d="m55.778 38.0147-.577 12.14c-.088 1.84-.871 3.47-2.084 4.65-1.214 1.18-2.848 1.9-4.648 1.9l-1.928 18.03h-9.06l1.458-13.72c1.8 0 3.444-.72 4.647-1.9 1.214-1.18 1.996-2.82 2.084-4.65l.588-12.14c.205-4.4-3.229-8.09-7.545-8.09h-7.475c2.798 0 5.176-1.79 6.096-4.31.117-.28.196-.56.254-.85.118-.49.176-.99.176-1.51 0-2.5-1.35-4.68-3.346-5.82.665-2.95 3.258-5.16 6.35-5.16 3.601 0 6.527 2.99 6.527 6.67 0 3.68-2.926 6.67-6.527 6.67h7.466c4.315 0 7.759 3.69 7.544 8.09"/><path fill="none" stroke="#000" stroke-width="2" d="M34.41272182 21.74513269c.66516953-2.95061115 3.25820865-5.1606532 6.3502379-5.16053938 3.60145735.0004466 6.52712739 2.99053336 6.52752847 6.67062457-.00059211 3.67997475-2.92668407 6.66953273-6.52714823 6.66920259-1.15392425.00061244-2.24014004-.31000753-3.17974817-.84910774"/><path fill="none" stroke="#000" stroke-width="2" d="M37.329 29.9247h10.9c4.315 0 7.759 3.69 7.544 8.09l-.577 12.14c-.088 1.84-.871 3.47-2.084 4.65-1.214 1.18-2.848 1.9-4.648 1.9l-1.928 18.03h-9.06"/><path fill="#aec5c6" fill-rule="nonzero" d="M37.7596 27.5647c0 .52-.059 1.02-.176 1.51-.059.29-.137.57-.255.85-.919 2.52-3.297 4.31-6.095 4.31-1.468 0-2.809-.5-3.895-1.34h-.009c-1.586-1.21-2.613-3.15-2.613-5.33 0-3.68 2.916-6.67 6.517-6.67 1.164 0 2.24.31 3.18.85 1.996 1.14 3.346 3.32 3.346 5.82" opacity=".4"/><path fill="none" stroke="#000" stroke-linecap="round" stroke-linejoin="round" d="M37.7596 27.5647c0 .52-.059 1.02-.176 1.51-.059.29-.137.57-.255.85-.919 2.52-3.297 4.31-6.095 4.31-1.468 0-2.809-.5-3.895-1.34h-.009c-1.586-1.21-2.613-3.15-2.613-5.33 0-3.68 2.916-6.67 6.517-6.67 1.164 0 2.24.31 3.18.85 1.996 1.14 3.346 3.32 3.346 5.82Z"/><path fill="#aec5c6" fill-rule="nonzero" d="m46.2527 42.3247-.587 12.14c-.088 1.83-.871 3.47-2.084 4.65-1.204 1.18-2.848 1.9-4.648 1.9l-1.458 13.72-.46 4.31h-11.556l-1.927-18.03c-3.591 0-6.546-2.88-6.722-6.55l-.587-12.14c-.206-4.4 3.229-8.09 7.544-8.09h14.941c4.315 0 7.749 3.69 7.544 8.09" opacity=".4"/><path fill="none" stroke="#000" stroke-linecap="round" stroke-linejoin="round" d="m46.2527 42.3247-.587 12.14c-.088 1.83-.871 3.47-2.084 4.65-1.204 1.18-2.848 1.9-4.648 1.9l-1.458 13.72-.46 4.31h-11.556l-1.927-18.03c-3.591 0-6.546-2.88-6.722-6.55l-.587-12.14c-.206-4.4 3.229-8.09 7.544-8.09h14.941c4.315 0 7.749 3.69 7.544 8.09z"/></g></g><path fill="none" stroke="#000" stroke-width="2" d="M62.011 55.1611063v-36l-30.506-18-30.505 18v36l30.505 18z"/></svg>