<svg xmlns="http://www.w3.org/2000/svg" xmlns:svg="http://www.w3.org/2000/svg" fill-rule="evenodd" stroke-miterlimit="10" clip-rule="evenodd" viewBox="0 0 64.353996 74.309402" xml:space="preserve"><g transform="translate(-3.8229 -3.3453003)"><clipPath id="a"><path d="M4.823 22.5v36L36 76.5l31.177-18v-36L36 4.5Z" clip-rule="nonzero"/></clipPath><g fill-rule="nonzero" clip-path="url(#a)"><path fill="#7f5a90" d="M67.1769 58.5v-36l-31.177-18-31.177 18v36l31.177 18z" opacity=".3"/><path fill="#fff" d="M36 28.693c-10.944 0-16.484 4.529-23.548 11.807C19.516 47.778 25.056 52.307 36 52.307c10.944 0 16.484-4.529 23.548-11.807C52.484 33.222 46.944 28.693 36 28.693"/></g></g><g transform="translate(-3.8229 -3.3453003)"><clipPath id="b"><path d="M12.452 40.5C19.516 47.778 25.056 52.307 36 52.307c10.944 0 16.484-4.529 23.549-11.807C52.484 33.222 46.944 28.693 36 28.693c-10.944 0-16.484 4.529-23.548 11.807Z" clip-rule="nonzero"/></clipPath><g clip-path="url(#b)"><path fill="#7f5a90" fill-rule="nonzero" d="M37.1796 42.3956c-2.452.611-4.936-.881-5.547-3.333-.612-2.452.881-4.936 3.333-5.547 2.452-.612 4.936.881 5.547 3.333.611 2.452-.881 4.936-3.333 5.547m5.464 1.619c.655-1.132 1.309-2.265 1.963-3.397l2.533-.307c.041-.194.078-.393.11-.598.238-1.532.129-2.932-.11-4.116l-2.536-.306c-.653-1.132-1.306-2.265-1.96-3.397l1.002-2.345c-1.361-.785-2.722-1.57-4.083-2.354l-1.532 2.038h-3.919l-1.532-2.038c-1.36.784-2.72 1.569-4.08 2.354l.998 2.345c-.654 1.132-1.307 2.265-1.96 3.397l-2.533.306v4.714l2.53.307c.654 1.132 1.308 2.265 1.963 3.397l-.998 2.345c1.359.786 2.718 1.571 4.076 2.357l1.535-2.041c1.307-.001 2.613 0 3.92 0l1.535 2.041c1.36-.786 2.719-1.571 4.079-2.357z" opacity=".3"/><path fill="none" stroke="#000" d="M37.1796 42.3956c-2.452.611-4.936-.881-5.547-3.333-.612-2.452.881-4.936 3.333-5.547 2.452-.612 4.936.881 5.547 3.333.611 2.452-.881 4.936-3.333 5.547Zm5.464 1.619c.655-1.132 1.309-2.265 1.963-3.397l2.533-.307c.041-.194.078-.393.11-.598.238-1.532.129-2.932-.11-4.116l-2.536-.306c-.653-1.132-1.306-2.265-1.96-3.397l1.002-2.345c-1.361-.785-2.722-1.57-4.083-2.354l-1.532 2.038h-3.919l-1.532-2.038c-1.36.784-2.72 1.569-4.08 2.354l.998 2.345c-.654 1.132-1.307 2.265-1.96 3.397l-2.533.306v4.714l2.53.307c.654 1.132 1.308 2.265 1.963 3.397l-.998 2.345c1.359.786 2.718 1.571 4.076 2.357l1.535-2.041c1.307-.001 2.613 0 3.92 0l1.535 2.041c1.36-.786 2.719-1.571 4.079-2.357z"/></g></g><g transform="matrix(-1 0 0 1 32.1771 48.9616997)"><clipPath id="c"><path d="M31.177-29.807v36L0 24.193l-31.177-18v-36L0-47.807Z" clip-rule="nonzero"/></clipPath><g clip-path="url(#c)"><path fill="none" stroke="#000" stroke-width="2" d="M0-23.614c10.944 0 16.484 4.529 23.548 11.807C16.484-4.529 10.944 0 0 0c-10.944 0-16.484-4.529-23.548-11.807C-16.484-19.085-10.944-23.614 0-23.614Z"/></g></g><path fill="none" stroke="#000" stroke-width="2" d="M63.354 55.1546997v-36l-31.177-18-31.177 18v36l31.177 18z"/></svg>