<svg xmlns="http://www.w3.org/2000/svg" xmlns:svg="http://www.w3.org/2000/svg" fill-rule="evenodd" stroke-miterlimit="10" clip-rule="evenodd" viewBox="0 0 64.353996 74.309402" xml:space="preserve"><g transform="translate(-3.8229 -3.3453003)"><clipPath id="a"><path d="M4.823 22.5v36L36 76.5l31.177-18v-36L36 4.5Z" clip-rule="nonzero"/></clipPath><g clip-path="url(#a)"><path fill="#7f5a90" fill-rule="nonzero" d="M67.2241 22.5v36l-31.177 18-31.177-18v-36l31.177-18z" opacity=".3"/></g></g><path fill="#fff" d="m10.92533132 49.66176066 2.86752475 1.65530139 2.54969395-4.41690591-2.86752475-1.6553014z"/><path fill="none" stroke="#000" stroke-width="2" d="m10.92536414 49.66220983 2.86554105 1.65473494 2.55136235-4.41825054-2.86554106-1.65473494z"/><g transform="translate(-3.8229 -3.3453003)"><clipPath id="b"><path d="M4.823 22.5v36L36 76.5l31.177-18v-36L36 4.5Z" clip-rule="nonzero"/></clipPath><g clip-path="url(#b)"><path fill="none" stroke="#000" stroke-width="2" d="M9.08599833 61.7272745c1.52540815-2.04458036 1.778657-3.6620114 1.70219056-4.79188018-.11581188-1.7236348-1.00828408-2.49410412-.64425366-4.12860713.06476921-.29140004.44375934-1.99260544 2.01179601-2.70690741 1.76517515-.80572101 3.51111979.33383118 3.62958088.41333576"/><path fill="#fff" fill-rule="nonzero" stroke="#000" stroke-linecap="round" stroke-linejoin="round" stroke-width="2" d="m40.3161 46.1792-2.15 7.87c-1.097-.633-2.193-1.267-3.29-1.9l-4.29-2.48-4.3-2.48-3.29-1.9 6.08-6.13 2.19 1.79.29-.36 2.98 2.24.22-.39 3.058 2.236.152-.386z"/><path fill="none" stroke="#000" stroke-linecap="round" stroke-linejoin="round" d="m22.9961 45.2927 3.603 2.08 3.984 2.3"/><path fill="#fff" fill-rule="nonzero" stroke="#000" stroke-linecap="round" stroke-linejoin="round" d="m37.96199897 44.28781696-3.08107148 7.86718496 3.28929233 1.89821097 2.14529523-7.87174575z"/><path fill="#fff" fill-rule="nonzero" stroke="#000" stroke-linecap="round" stroke-linejoin="round" d="m30.58300477 49.67254298 4.29896299 2.48198014 2.92777052-7.47912353-3.0494009-2.2362885Zm.68132897-8.71656278-4.98019032 6.23523684-3.28769764-1.899 6.0831709-6.13240071Z"/><path fill="#fff" fill-rule="nonzero" stroke="#000" stroke-linecap="round" stroke-linejoin="round" d="m30.58274224 49.67256645-4.298963-2.48198014 5.27285804-6.60093695 2.97607336 2.2412959Z"/><path fill="#fff" fill-rule="nonzero" stroke="#000" stroke-linecap="round" stroke-linejoin="round" stroke-width="2" d="m12.5097 63.4557 5.088 8.71 10.086.05 10.486-18.163-15.174-8.76Z"/><path fill="none" stroke="#000" d="M36.78750674 56.05746155 21.6127013 47.29700473m14.25230544 10.35835682L20.6902013 48.89490473"/><path fill="#7f5a90" fill-rule="nonzero" d="M25.2303 53.9803c1.187.685 1.594 2.203.908 3.39l-11.042 19.126-4.298-2.482 11.042-19.126c.685-1.187 2.203-1.593 3.39-.908" opacity=".4"/><path fill="none" stroke="#000" d="M25.2303 53.9803c1.187.685 1.594 2.203.908 3.39l-11.042 19.126-4.298-2.482 11.042-19.126c.685-1.187 2.203-1.593 3.39-.908z"/><path fill="none" stroke="#fff" stroke-linecap="round" stroke-linejoin="round" stroke-miterlimit="4" stroke-width="1.5" d="M23.8956 56.2922h0"/><path fill="none" stroke="#fff" stroke-dasharray="0 4.12" stroke-linecap="round" stroke-linejoin="round" stroke-miterlimit="4" stroke-width="1.5" d="m21.83506694 59.86207512-3.09221644 5.35537491"/><path fill="none" stroke="#fff" stroke-linecap="round" stroke-linejoin="round" stroke-miterlimit="4" stroke-width="1.5" d="M17.7125 67.0016h0"/><path fill="#fff" fill-rule="nonzero" d="m48.5826.0842 15.912 9.187-19.044 27.989c-1.976 2.904-5.857 3.792-8.899 2.036-3.042-1.756-4.213-5.561-2.687-8.724z"/><path fill="#7f5a90" fill-rule="nonzero" d="m37.9405 32.9226 10.553-15.232c.158-.228.471-.285.698-.127.205.142.272.41.168.628l-7.957 16.735c-.476 1.001-1.673 1.427-2.674.951-1.001-.476-1.427-1.673-.951-2.674.046-.096.105-.196.163-.281" opacity=".3"/><path fill="#fff" fill-rule="nonzero" d="M35.87563312 20.23765535c.35341516-.61232846.14394075-1.39366558-.46788783-1.74794684-.61232845-.35341516-1.39503156-.14357454-1.74844672.46875392-.35341516.61232846-.14394075 1.39366559.46838771 1.74708075.61182858.35428125 1.39453168.14444063 1.74794684-.46788783m13.8214 20.1965c.35341516-.61232846.14394075-1.39366558-.46788783-1.74794684-.61232845-.35341516-1.39503156-.14357454-1.74844672.46875392-.35341516.61232846-.14394075 1.39366559.46838771 1.74708075.61182858.35428125 1.39453168.14444063 1.74794684-.46788783"/></g></g><path fill="none" stroke="#000" stroke-width="2" d="M63.354 19.1546997v36l-31.177 18-31.177-18v-36l31.177-18z"/></svg>