<svg xmlns="http://www.w3.org/2000/svg" xmlns:svg="http://www.w3.org/2000/svg" fill-rule="evenodd" stroke-miterlimit="10" clip-rule="evenodd" viewBox="0 0 64.353996 74.309402" xml:space="preserve"><path fill="#3d8b8a" fill-rule="nonzero" d="M63.354 55.1546997v-36l-31.177-18-31.177 18v36l31.177 18z" opacity=".3"/><path fill="none" stroke="#000" stroke-width="2" d="M63.354 55.1546997v-36l-31.177-18-31.177 18v36l31.177 18z"/><g transform="translate(-3.8229 -3.3453003)"><clipPath id="a"><path d="M34.521 29.665c-4.709 1.58-9.83 3.363-14.543 8.12-4.264 4.305-6.186 9.02-7.082 11.879 2.363 1.561 9.154 5.601 18.488 5.17 2.24-.103 13.21-.611 20.718-9.624 6.191-7.435 6.058-15.891 5.944-18.191-1.711-.153-3.548-.247-5.486-.247-5.39 0-11.57.722-18.039 2.893z" clip-rule="nonzero"/></clipPath><g fill-rule="nonzero" clip-path="url(#a)"><path fill="#3d8b8a" d="M58.0455 27.0187c-6.466-.579-14.729-.305-23.524 2.646-4.71 1.58-9.831 3.363-14.543 8.12-4.264 4.305-6.187 9.021-7.082 11.879 2.362 1.562 9.153 5.601 18.487 5.17 2.24-.103 13.211-.61 20.718-9.624 6.192-7.435 6.058-15.891 5.944-18.191" opacity=".3"/><path fill="#fff" d="M50.67361096 27.26990252c4.71442354 8.74362493 1.29102603 19.57077354-7.64577503 24.18346687-8.93591244 4.61223468-20.00272977 1.26302589-24.71491743-7.48062774-4.7148822-8.74451355-1.29194334-19.57255077 7.64442776-24.18389684 8.93591244-4.61223468 20.00227111-1.2639145 24.7162647 7.4810577"/></g></g><g transform="translate(-3.8229 -3.3453003)"><clipPath id="b"><path d="M34.521 29.665c-4.709 1.58-9.83 3.363-14.543 8.12-1.109 1.119-2.06 2.267-2.875 3.402.317.945.719 1.876 1.209 2.785 4.714 8.745 15.78 12.094 24.716 7.481 8.936-4.613 12.359-15.439 7.646-24.184-.084-.155-.169-.307-.256-.458-4.861.174-10.269.965-15.897 2.854z" clip-rule="nonzero"/></clipPath><g fill-rule="nonzero" clip-path="url(#b)"><path d="m38.6973 46.924 5.532 12.004-1.874.697Z"/><path d="m38.6973 46.924 5.532 12.004-1.874.697Zm1.9421-.8861 7.579 10.876-1.723 1.017Zm1.7553-1.2026 9.395 9.419-1.518 1.302Z"/><path d="m42.3947 44.8353 9.395 9.419-1.518 1.302Zm1.5153-1.4826 10.926 7.677-1.269 1.546ZM25.0756 27.8889l-10.926-7.677 1.269-1.546Zm20.0635 13.7462 12.127 5.702-.984 1.741ZM23.8465 29.6065l-12.127-5.702.984-1.741Z"/><path d="m45.1391 41.6351 12.127 5.702-.984 1.741ZM23.8465 29.6065l-12.127-5.702.984-1.741Zm22.1982 10.1283 12.96 3.554-.671 1.884Zm-23.1038-8.2281-12.96-3.554.671-1.884Zm23.6584 6.2029 13.401 1.297-.34 1.971ZM22.3862 33.532l-13.401-1.297.34-1.971Z"/><path d="m46.5993 37.7096 13.401 1.297-.34 1.971ZM22.3862 33.532l-13.401-1.297.34-1.971Zm24.3999 2.0888 13.435-1v2Zm-24.5866 0-13.435 1v-2Zm24.3998-2.0887 13.061-3.268.34 1.971zm-24.2131 4.1774-13.061 3.268-.34-1.971z"/><path d="m46.5993 33.5321 13.061-3.268.34 1.971zm-24.2131 4.1774-13.061 3.268-.34-1.971zm23.6585-6.2027 12.289-5.438.671 1.884Zm-23.1038 8.228-12.289 5.438-.671-1.884Zm22.1982-10.1283 11.143-7.443.984 1.741ZM23.8465 41.6351l-11.143 7.443-.984-1.741Z"/><path d="m45.1391 29.6065 11.143-7.443.984 1.741ZM23.8465 41.6351l-11.143 7.443-.984-1.741ZM43.91 27.8889l9.657-9.223 1.269 1.546ZM25.0755 43.3526l-9.657 9.223-1.269-1.546Zm1.5153 1.4827-7.877 10.721-1.518-1.302Z"/><path d="m26.5908 44.8353-7.877 10.721-1.518-1.302Zm1.7553 1.2026-5.856 11.893-1.723-1.017Zm1.9421.8861-3.658 12.701-1.874-.697Z"/><path d="m30.2882 46.924-3.658 12.701-1.874-.697Zm2.0698.5427-1.349 13.123-1.968-.354Zm2.1348.1827 1 13.146h-2z"/><path d="m34.4928 47.6494 1 13.146h-2zm2.1347-.1827 3.317 12.768-1.968.355Zm.33365131-12.72537936c1.43838706 3.8665288 1.91784041 7.84523549 1.55704741 11.69110912-2.81017086-2.71673547-5.05598109-6.06646591-6.49436815-9.9329947-1.43710954-3.8659222-1.91750495-7.84429344-1.5491755-11.6928507 2.80263441 2.7194191 5.04844464 6.06914955 6.48649624 9.93473628"/></g></g><g transform="scale(-1 1) rotate(-62.7 9.91921305 23.85433678)"><clipPath id="c"><path d="M-10.901-11.108c.756 4.909 1.52 10.277-.545 16.647-1.87 5.764-5.178 9.634-7.308 11.742-2.471-1.384-9.175-5.566-13.074-14.058-.935-2.037-5.515-12.018-.95-22.824 3.767-8.912 11.342-12.672 13.439-13.625.92 1.45 1.846 3.039 2.735 4.761 2.472 4.79 4.665 10.613 5.703 17.357z" clip-rule="nonzero"/></clipPath><g clip-path="url(#c)"><path fill="none" stroke="#000" stroke-width="2" d="M-16.181-26.56c-9.932-.179-17.983 7.829-17.983 17.886 0 10.056 8.052 18.354 17.983 18.531 9.933.179 17.985-7.829 17.984-17.885 0-10.056-8.051-18.354-17.984-18.532z"/></g></g><path fill="none" stroke="#000" stroke-width="2" d="M54.2226 23.6733997c-6.466-.579-14.729-.305-23.524 2.646-4.71 1.58-9.831 3.363-14.543 8.12-4.264 4.305-6.187 9.021-7.082 11.879 2.362 1.562 9.153 5.601 18.487 5.17 2.24-.103 13.211-.61 20.718-9.624 6.192-7.435 6.058-15.891 5.944-18.191Z"/><path fill="#fff" fill-rule="nonzero" d="M33.5424 31.0686997v-1.861l-1.612-.931-1.612.931v1.861l1.612.931z"/></svg>