<svg xmlns="http://www.w3.org/2000/svg" xmlns:xlink="http://www.w3.org/1999/xlink" fill-rule="evenodd" stroke-miterlimit="10" clip-rule="evenodd" viewBox="0 0 269 310" xml:space="preserve"><path fill="#3D8B8A" fill-rule="nonzero" d="m134.37219083 305.36566096 129.9042706-75.00006v-150.00012l-129.9042706-75.00006-129.90427059 75.00006v150.00012l129.9042706 75.00006Z" opacity=".3"/><g transform="scale(4.16667)"><clipPath id="a"><path d="M1.072 19.288v36l31.178 18 31.177-18v-36l-31.177-18-31.178 18Z" clip-rule="nonzero"/></clipPath><g clip-path="url(#a)"><path fill="none" stroke="#231F20" d="M41.6824 19.015v-6.501l-5.63-3.25V2.763"/><path fill="#fff" fill-rule="nonzero" d="M41.6824 16.1072c1.606 0 2.908 1.302 2.908 2.908 0 1.606-1.302 2.908-2.908 2.908-1.606 0-2.908-1.302-2.908-2.908 0-1.606 1.302-2.908 2.908-2.908"/><circle cy="-2.908" r="2.908" fill="none" stroke="#231F20" transform="matrix(-1 0 0 1 41.6824 21.9232)"/><path fill="none" stroke="#231F20" d="M22.8028 19.015v-6.501l5.63-3.25V2.763"/><path fill="#fff" fill-rule="nonzero" d="M22.8028 16.1072c-1.606 0-2.908 1.302-2.908 2.908 0 1.606 1.302 2.908 2.908 2.908 1.606 0 2.908-1.302 2.908-2.908 0-1.606-1.302-2.908-2.908-2.908"/><circle cy="-2.908" r="2.908" fill="none" stroke="#231F20" transform="matrix(-1 0 0 1 22.8028 21.9232)"/><path fill="none" stroke="#231F20" d="M32.2426-7.1535v22.872"/><path fill="#fff" fill-rule="nonzero" d="M32.2426 18.626c-1.606 0-2.908-1.302-2.908-2.908 0-1.606 1.302-2.908 2.908-2.908 1.606 0 2.908 1.302 2.908 2.908 0 1.606-1.302 2.908-2.908 2.908"/><path fill="none" stroke="#231F20" d="M32.2426 18.626c-1.606 0-2.908-1.302-2.908-2.908 0-1.606 1.302-2.908 2.908-2.908 1.606 0 2.908 1.302 2.908 2.908 0 1.606-1.302 2.908-2.908 2.908Zm-9.4398 36.9345v6.501l5.63 3.25v6.501"/><path fill="#fff" fill-rule="nonzero" d="M22.8028 58.4683c-1.606 0-2.908-1.302-2.908-2.908 0-1.606 1.302-2.908 2.908-2.908 1.606 0 2.908 1.302 2.908 2.908 0 1.606-1.302 2.908-2.908 2.908"/><path fill="none" stroke="#231F20" d="M22.8028 58.4683c-1.606 0-2.908-1.302-2.908-2.908 0-1.606 1.302-2.908 2.908-2.908 1.606 0 2.908 1.302 2.908 2.908 0 1.606-1.302 2.908-2.908 2.908Zm18.8796-2.9078v6.501l-5.63 3.25v6.501"/><path fill="#fff" fill-rule="nonzero" d="M41.6824 58.4683c1.606 0 2.908-1.302 2.908-2.908 0-1.606-1.302-2.908-2.908-2.908-1.606 0-2.908 1.302-2.908 2.908 0 1.606 1.302 2.908 2.908 2.908"/><path fill="none" stroke="#231F20" d="M41.6824 58.4683c1.606 0 2.908-1.302 2.908-2.908 0-1.606-1.302-2.908-2.908-2.908-1.606 0-2.908 1.302-2.908 2.908 0 1.606 1.302 2.908 2.908 2.908ZM32.2426 81.729V58.857"/><path fill="#fff" fill-rule="nonzero" d="M32.2426 55.9495c1.606 0 2.908 1.302 2.908 2.908 0 1.606-1.302 2.908-2.908 2.908-1.606 0-2.908-1.302-2.908-2.908 0-1.606 1.302-2.908 2.908-2.908"/><circle cy="-2.908" r="2.908" fill="none" stroke="#231F20" transform="matrix(-1 0 0 1 32.2426 61.7655)"/><path fill="none" stroke="#231F20" d="M14.1226 32.5678h-6.501l-3.25 5.63h-6.501"/><path fill="#fff" fill-rule="nonzero" d="M9.2148 32.5678c0-1.606 1.302-2.908 2.908-2.908 1.606 0 2.908 1.302 2.908 2.908 0 1.606-1.302 2.908-2.908 2.908-1.606 0-2.908-1.302-2.908-2.908"/><circle cx="2.908" r="2.908" fill="none" stroke="#231F20" transform="matrix(0 1 1 0 12.1228 29.6598)"/><path fill="none" stroke="#231F20" d="M-14.0459 42.0076h22.872"/><path fill="#fff" fill-rule="nonzero" d="M11.7336 42.0076c0-1.606-1.302-2.908-2.908-2.908-1.606 0-2.908 1.302-2.908 2.908 0 1.606 1.302 2.908 2.908 2.908 1.606 0 2.908-1.302 2.908-2.908"/><circle cx="-2.908" r="2.908" fill="none" stroke="#231F20" transform="matrix(0 -1 -1 0 8.8256 39.0996)"/><path fill="none" stroke="#231F20" d="M50.5065 32.5678h6.501l3.25 5.63h6.501"/><path fill="#fff" fill-rule="nonzero" d="M55.4143 32.5678c0-1.606-1.302-2.908-2.908-2.908-1.606 0-2.908 1.302-2.908 2.908 0 1.606 1.302 2.908 2.908 2.908 1.606 0 2.908-1.302 2.908-2.908"/><circle cx="-2.908" r="2.908" fill="none" stroke="#231F20" transform="matrix(0 -1 -1 0 52.5063 29.6598)"/><path fill="none" stroke="#231F20" d="M78.675 42.0076H55.803"/><path fill="#fff" fill-rule="nonzero" d="M52.8955 42.0076c0-1.606 1.302-2.908 2.908-2.908 1.606 0 2.908 1.302 2.908 2.908 0 1.606-1.302 2.908-2.908 2.908-1.606 0-2.908-1.302-2.908-2.908"/><circle cx="2.908" r="2.908" fill="none" stroke="#231F20" transform="matrix(0 1 1 0 55.8035 39.0996)"/></g></g><path fill="none" stroke="#231F20" stroke-width="8.33334" d="m134.37219083 305.36566096 129.9042706-75.00006v-150.00012l-129.9042706-75.00006-129.90427059 75.00006v150.00012l129.9042706 75.00006Z"/><path fill="#fff" fill-rule="nonzero" stroke="#231F20" stroke-linecap="round" stroke-linejoin="round" stroke-width="8.33334" d="m98.25549527 186.4597325-10.90417539 10.9041754c-1.45000116 1.45000115-.42500034 3.9291698 1.62916797 3.9291698h45.09170274c27.97085571 0 50.65004052-22.67501814 50.65004052-50.65004052 0-27.9708557-22.6791848-50.65004052-50.65004052-50.65004052-27.97502238 0-50.65004052 22.67918481-50.65004052 50.65004052 0 13.9875112 5.6666712 26.65002132 14.8333452 35.81669532Z"/><path fill="#fff" fill-rule="nonzero" d="M128.45635276 168.79763504c-1.72916804 0-3.35000267-.67083387-4.57500365-1.89583485l-12.14167639-12.14167638c-1.2208343-1.22083431-1.89166818-2.84583561-1.89166818-4.57500366 0-1.72500138.67083387-3.35000268 1.89166818-4.570837 1.22083431-1.2208343 2.84583561-1.89583484 4.57500366-1.89583484 1.72916806 0 3.35416935.67500054 4.57500366 1.89583485l7.56667272 7.56667272 18.79584838-18.79584837c1.2208343-1.22083431 2.8458356-1.89166818 4.57500365-1.89166818 1.72500138 0 3.35000268.67083387 4.57500366 1.89166818 1.21666765 1.2208343 1.89166819 2.8458356 1.89166819 4.57500366 0 1.72500138-.67500055 3.35416935-1.89583486 4.57083699l-23.36668536 23.37085203c-1.22500098 1.22500098-2.85000228 1.89583485-4.57500366 1.89583485"/><path fill="none" stroke="#231F20" stroke-linecap="round" stroke-linejoin="round" stroke-width="4.16667" d="M128.45635276 168.79763504c-1.72916804 0-3.35000267-.67083387-4.57500365-1.89583485l-12.14167639-12.14167638c-1.2208343-1.22083431-1.89166818-2.84583561-1.89166818-4.57500366 0-1.72500138.67083387-3.35000268 1.89166818-4.570837 1.22083431-1.2208343 2.84583561-1.89583484 4.57500366-1.89583484 1.72916806 0 3.35416935.67500054 4.57500366 1.89583485l7.56667272 7.56667272 18.79584838-18.79584837c1.2208343-1.22083431 2.8458356-1.89166818 4.57500365-1.89166818 1.72500138 0 3.35000268.67083387 4.57500366 1.89166818 1.21666765 1.2208343 1.89166819 2.8458356 1.89166819 4.57500366 0 1.72500138-.67500055 3.35416935-1.89583486 4.57083699l-23.36668536 23.37085203c-1.22500098 1.22500098-2.85000228 1.89583485-4.57500366 1.89583485Z"/></svg>