<svg xmlns="http://www.w3.org/2000/svg" xmlns:svg="http://www.w3.org/2000/svg" fill-rule="evenodd" stroke-miterlimit="10" clip-rule="evenodd" viewBox="0 0 64.353996 74.309402" xml:space="preserve"><path fill="#3f7faa" fill-rule="nonzero" d="M63.354 55.1546997v-36l-31.177-18-31.177 18v36l31.177 18z" opacity=".3"/><path fill-rule="nonzero" d="m32.1771 31.8950997-11.159-5.885 5.885 11.159-5.885 11.16 11.159-5.886 11.16 5.886-5.886-11.16 5.886-11.159Z"/><path fill="#fff" fill-rule="nonzero" d="m25.0176 30.0095997-15.517 7.16 15.517 7.16 7.16 15.516 7.16-15.516 15.516-7.16-15.516-7.16-7.16-15.517Z"/><g transform="translate(-3.8229 -3.3453003)"><clipPath id="a"><path d="M4.823 22.5v36L36 76.5l31.177-18v-36L36 4.5Z" clip-rule="nonzero"/></clipPath><g clip-path="url(#a)"><path fill="none" stroke="#000" stroke-width="2" d="m43.1603 47.6748 15.516-7.16-15.516-7.16-7.16-15.517-7.16 15.517-15.516 7.16 15.516 7.16 7.16 15.516z"/><path fill="#3f7faa" fill-rule="nonzero" d="M41.2743 40.5147c0 2.913-2.361 5.274-5.274 5.274s-5.274-2.361-5.274-5.274 2.361-5.274 5.274-5.274 5.274 2.361 5.274 5.274" opacity=".4"/><circle cx="-5.2740002" r="5.2740002" fill="none" stroke="#000" transform="matrix(0 -1 -1 0 36.0003 35.2407)"/></g></g><path fill="none" stroke="#000" stroke-width="2" d="M63.354 55.1546997v-36l-31.177-18-31.177 18v36l31.177 18z"/></svg>