<svg xmlns="http://www.w3.org/2000/svg" xmlns:svg="http://www.w3.org/2000/svg" fill-rule="evenodd" stroke-miterlimit="10" clip-rule="evenodd" viewBox="0 0 64.308 74.309822" xml:space="preserve"><g transform="translate(-3.8232 -3.3450871)"><clipPath id="a"><path d="M4.823 22.5v36l31.154 18 31.154-18v-36l-31.154-18Z" clip-rule="nonzero"/></clipPath><g clip-path="url(#a)"><path fill="#3f7faa" fill-rule="nonzero" d="M50.9362 40.4998c0 8.284-6.711 15-14.989 15s-14.989-6.716-14.989-15c0-8.284 6.711-15 14.989-15s14.989 6.716 14.989 15" opacity=".4"/><path fill="#3f7faa" fill-rule="nonzero" d="M35.9469 24.4999c-8.816 0-15.988 7.178-15.988 16s7.172 16 15.988 16c8.816 0 15.988-7.178 15.988-16s-7.172-16-15.988-16m0 34c-9.918 0-17.987-8.075-17.987-18s8.069-18 17.987-18c9.918 0 17.987 8.075 17.987 18s-8.069 18-17.987 18" opacity=".3"/><path fill="#3f7faa" fill-rule="nonzero" d="M35.9469 20.9999c-10.744 0-19.486 8.748-19.486 19.5s8.742 19.5 19.486 19.5 19.486-8.748 19.486-19.5-8.742-19.5-19.486-19.5m0 40c-11.295 0-20.485-9.196-20.485-20.5s9.19-20.5 20.485-20.5 20.485 9.196 20.485 20.5-9.19 20.5-20.485 20.5" opacity=".2"/><path fill="#3f7faa" fill-rule="nonzero" d="M35.9469 17.7499c-12.535 0-22.733 10.206-22.733 22.75s10.198 22.75 22.733 22.75 22.733-10.206 22.733-22.75-10.198-22.75-22.733-22.75m0 46c-12.811 0-23.233-10.43-23.233-23.25s10.422-23.25 23.233-23.25 23.233 10.43 23.233 23.25-10.422 23.25-23.233 23.25" opacity=".1"/><path fill="#3f7faa" fill-rule="nonzero" d="M67.1312 58.5v-36l-31.154-18-31.154 18v36l31.154 18z" opacity=".3"/><path fill="#fff" fill-rule="nonzero" d="M31.3545 42.1465c.606.888 1.138 1.831 1.583 2.812.227.497.432 1.005.613 1.519.541-.081 1.086-.139 1.628-.172.385-.024.772-.035 1.157-.035.688 0 1.38.038 2.066.114 1.018-2.745 1.848-5.574 2.47-8.421.373-1.706.676-3.444.906-5.19-1.432 1.023-2.823 2.107-4.152 3.237-2.221 1.886-4.328 3.948-6.271 6.136m-16.727 30.664 14.672-24.436c-.165-.512-.36-1.013-.579-1.496-.688-1.513-1.632-2.884-2.804-4.074l-.626-.636.561-.694c2.631-3.26 5.584-6.287 8.774-8.998 3.346-2.843 6.988-5.368 10.826-7.504l1.519-.846-.033 1.739c-.083 4.394-.601 8.797-1.539 13.088-.894 4.091-2.179 8.121-3.819 11.978l-.35.822-.857-.256c-1.315-.393-2.676-.591-4.044-.591-.281 0-.569.008-.866.026-.529.033-1.062.097-1.589.19l-14.673 24.438Z"/><path fill-rule="nonzero" d="M32.6123 42.2434c1.769-1.942 3.668-3.778 5.66-5.471.702-.596 1.42-1.179 2.153-1.747-.157.915-.334 1.824-.531 2.725-.558 2.554-1.286 5.094-2.169 7.569-.463-.033-.927-.049-1.39-.049-.404 0-.814.012-1.219.037-.303.019-.606.045-.909.077-.113-.283-.233-.563-.359-.84-.361-.793-.774-1.563-1.236-2.301m15.391-19.836-3.038 1.691c-3.895 2.168-7.592 4.731-10.988 7.616-3.238 2.752-6.234 5.824-8.905 9.132l-1.121 1.389 1.253 1.271c1.089 1.106 1.966 2.38 2.606 3.786.143.315.274.637.393.965l-13.919 23.181-1.029 1.714 1.713 1.03 2.859 1.719 1.715 1.031 1.03-1.716 13.918-23.18c.345-.049.69-.084 1.034-.106.275-.016.543-.024.803-.024 1.272 0 2.537.185 3.76.549l1.712.511.7-1.644c1.665-3.913 2.969-8.002 3.876-12.155.952-4.355 1.477-8.824 1.562-13.284zm-4.983 8.297c-2.103 1.394-4.125 2.914-6.043 4.544-2.463 2.093-4.777 4.386-6.897 6.835.764 1.021 1.416 2.121 1.948 3.289.331.728.612 1.475.841 2.238.781-.155 1.573-.258 2.37-.307.366-.022.731-.033 1.096-.033.913 0 1.821.07 2.721.21 1.165-3.023 2.102-6.144 2.792-9.303.538-2.46.93-4.96 1.172-7.473m2.917-4.858c-.068 3.582-.441 7.978-1.515 12.894-1.019 4.661-2.412 8.623-3.764 11.799-1.008-.301-2.504-.633-4.331-.633-.3 0-.609.009-.926.028-.783.049-1.504.155-2.156.291l-14.387 23.962-2.859-1.719 14.387-23.962c-.186-.64-.43-1.327-.756-2.042-.933-2.052-2.141-3.488-3.001-4.361 2.167-2.685 5.009-5.777 8.643-8.865 3.833-3.257 7.536-5.651 10.665-7.392"/><path fill="none" stroke="#000" d="m45.93810922 25.84618314-4.58200022 7.6287225"/><path fill="none" d="m33.70840283 46.22143595-4.61455333 7.80024314"/><path fill-rule="nonzero" d="m34.1394 46.4758-4.615 7.801-.254.43-.861-.509.255-.43 4.614-7.801.255-.43.861.509z"/><path fill-rule="nonzero" d="M27.2273463 52.44976007c1.0444977 1.22675267 2.4956337 2.09943987 4.0686244 2.44603155l-.43529246 1.95236942c-1.99178896-.4390474-3.83192138-1.54554398-5.15362442-3.09845189z"/></g></g><path fill="none" stroke="#000" stroke-width="2" d="M63.308 55.1549129v-36l-31.154-18-31.154 18v36l31.154 18z"/></svg>