<svg xmlns="http://www.w3.org/2000/svg" xmlns:svg="http://www.w3.org/2000/svg" fill-rule="evenodd" stroke-miterlimit="10" clip-rule="evenodd" viewBox="0 0 64.353996 74.309402" xml:space="preserve"><path fill="#3f7faa" fill-rule="nonzero" d="M63.354 55.1546997v-36l-31.177-18-31.177 18v36l31.177 18z" opacity=".3"/><path fill="none" stroke="#000" stroke-width="2" d="M63.354 55.1546997v-36l-31.177-18-31.177 18v36l31.177 18z"/><path fill="none" stroke="#000" stroke-width="2" d="M38.5921046 32.67099178c-.19301482.0897679-3.72754712 1.79277998-3.82992549 4.71750492-.04327273 1.20884752.5150798 2.22347866.89687337 2.91963856.57646167 1.04836627 1.32938135 2.50193316 2.97761584 3.12208462 2.01675919.75954129 3.91123667-.26002953 4.25877542-.45649023"/><path fill-rule="nonzero" d="M40.6239 34.8403997c.151.594.162 1.207.037 1.791-.066.3-.163.565-.27.809-.112.259-.261.526-.451.766-.376.487-.922.835-1.488.983-.573.149-1.13.123-1.663-.028-.266-.076-.42-.352-.345-.618.067-.236.292-.384.527-.362l.031.002c.361.034.75-.028 1.043-.176.298-.148.524-.374.657-.647.069-.138.118-.288.156-.459.043-.189.07-.366.07-.519.005-.321-.069-.641-.204-.916-.244-.501-.036-1.104.464-1.349.5-.244 1.104-.036 1.348.464.03.061.054.125.07.189zm2.3785 3.0272c.171.61.214 1.148.129 1.77-.079.603-.392 1.255-.884 1.675-.241.21-.509.363-.772.472-.261.105-.498.176-.784.233-.547.102-1.097.065-1.604-.075-.267-.074-.423-.35-.349-.617.065-.236.289-.386.524-.366l.017.001c.383.032.762-.02 1.093-.152.152-.06.339-.157.485-.252.142-.095.254-.199.335-.31.155-.221.213-.457.195-.758-.012-.284-.119-.661-.252-.904-.267-.489-.088-1.102.401-1.369.489-.267 1.101-.088 1.369.401.036.067.064.136.084.206z"/><path fill="#fff" fill-rule="nonzero" d="M51.2598 44.1173997s-1.03 2.117-1.545 3.175l-2.035.665s-2.539 6.321-8.219 9.576l-1.395 1.802-6.646-6.278 1.479-1.277c.4.058 1.776.207 3.19-.635 1.368-.815 1.911-2.044 2.064-2.431.13-.024 1.594-.322 2.231-1.758.595-1.339-.022-2.557-.097-2.701 1.022-.324 2.044-.648 3.067-.971l-.768-4.139-1.539-1.478-9.306-16.557c-.639-1.135-.244-2.578.88-3.223l1.715-.982-1.46-2.598 2.84-1.627c.271.479.225.394.497.873 1.234-.698 2.469-1.397 3.703-2.096l10.718 19.069.362 1.652 2.057 5.045 1.144 3.422-2.689-.247-2.398 2.162z"/><path fill-rule="nonzero" d="M50.2898 44.3603997c-.671-.309-1.228-.592-1.767-.99l-.992-.734.909-.819 2.398-2.162.325-.293.436.04 2.689.247-1.04 1.313-.711-2.128c-.233-.711-.466-1.421-.768-2.11l-1.699-4.168-.032-.08-.019-.084-.362-1.652.105.276-10.717-19.069 1.364.381-3.704 2.095-.868.492-.494-.869-.498-.873 1.368.374-2.84 1.628.375-1.358 1.459 2.597.486.865-.86.493-1.338.767-.335.192c-.096.062-.139.079-.201.134-.117.09-.219.198-.297.323-.161.248-.246.554-.221.851.026.331.106.478.41 1.006l3.023 5.378 6.044 10.754-.179-.231 1.54 1.478.232.223.058.316.768 4.138.161.869-.843.267-3.067.971.583-1.42c.302.604.437 1.173.465 1.813.026.627-.107 1.283-.384 1.854-.271.578-.699 1.093-1.204 1.469-.521.376-1.034.627-1.712.774l.747-.615c-.488 1.224-1.374 2.271-2.519 2.942-1.145.672-2.497.93-3.809.745l.797-.233-1.478 1.277.033-1.484 6.645 6.277-1.477.115 1.396-1.802.11-.142.183-.113c.85-.525 1.692-1.074 2.443-1.755.761-.662 1.478-1.385 2.125-2.173.653-.783 1.257-1.612 1.8-2.481.536-.859 1.044-1.797 1.421-2.672l.188-.437.429-.14 2.034-.666-.588.513c.415-.868.901-1.642 1.474-2.494m1.94-.486c-.457 1.265-1.001 2.607-1.616 3.855l-.188.382-.4.131-2.035.666.617-.578c-.468 1.088-.988 2.031-1.58 2.986-.589.943-1.245 1.846-1.961 2.703-.709.863-1.501 1.664-2.351 2.403-.837.756-1.788 1.386-2.757 1.978l.293-.255-1.396 1.802-.675.872-.802-.758-6.645-6.277-.805-.76.838-.724 1.478-1.277.344-.297.453.064c.854.121 1.771-.05 2.511-.491.747-.433 1.349-1.145 1.671-1.953l.2-.502.547-.113c.258-.053.631-.217.878-.408.262-.197.461-.439.597-.727.14-.289.204-.6.192-.928-.006-.315-.108-.696-.236-.947l-.543-1.063 1.126-.357 3.067-.971-.682 1.136-.767-4.138.29.538-1.539-1.478-.107-.102-.072-.129-6.045-10.755-3.022-5.377c-.214-.349-.654-1.133-.662-1.849-.055-.729.141-1.467.541-2.08.197-.309.451-.582.741-.807.132-.113.318-.219.438-.294l.334-.191 1.338-.767-.374 1.357-1.46-2.597-.486-.864.861-.493 2.839-1.628.87-.499.498.874.497.873-1.363-.377 3.704-2.096.873-.494.491.874 10.718 19.069.073.13.032.146.362 1.652-.051-.163 1.719 4.218c.304.695.542 1.419.779 2.143l.725 2.166.486 1.453-1.526-.14-2.689-.247.761-.253-2.398 2.161-.083-1.552c.895.64 1.771 1.395 2.534 2.124"/><path fill-rule="nonzero" d="m49.1094 42.5599997-1.403-.984-1.384 1.001-.165.12-.315-.208-3.894-2.573.637-.77 3.894 2.573-.48-.088 1.383-1.001.353-.255.545.382 1.403.984Z"/><path fill="none" stroke="#000" stroke-linecap="round" stroke-linejoin="round" d="m46.86083137 36.08648925-3.1510678-5.60611493m5.1227678 4.91131493-3.1510678-5.60611493m-.4223322 7.65431493-3.1510678-5.60611493"/><path fill="#fff" fill-rule="nonzero" stroke="#000" stroke-width="2" d="M27.1928 11.4576997c-1.893 3.129-3.985 6.258-5.878 9.387-.764 1.281-1.315 2.678-1.629 4.136h-.001c-.238 1.106-.34 2.236-.301 3.367l.431 12.634c2.488.053 4.977.105 7.466.158-.01-1.274-.021-2.547-.031-3.821-.299-.046-.834-.174-1.342-.578-1.036-.826-1.084-2.108-1.088-2.313-.011-.929-.021-1.858-.031-2.786l2.404-.309c-.066-6.625.066-13.25 0-19.875z"/><path fill="#fff" fill-rule="nonzero" stroke="#000" stroke-width="2" d="m19.8595 45.5247997-.476 8.477c-.032.567-.448 1.037-1.007 1.137l-.236.042c-.6.107-1.03.639-1.008 1.248l.06 1.725c.024.685.606 1.217 1.291 1.179l4.665-.26c.367-.02.705-.204.922-.501l3.069-4.213c.155-.213.237-.471.235-.734l-.1-9.355c-.006-.541.344-1.021.86-1.182l.064-.02c.434-.135.758-.499.84-.946l.155-.84c.148-.805-.519-1.525-1.333-1.439l-8.956.948c-.523.055-.952.439-1.066.952l-.224 1.006c-.162.73.363 1.434 1.109 1.486.667.047 1.173.622 1.136 1.29z"/><path fill="#9aa3ad" fill-rule="nonzero" d="M22.56920776 55.45473892c.3457428.3749171.32085317.96128762-.05615335 1.30623397-.37565356.34641927-.96128762.32085316-1.30629395-.05474042-.34641927-.37565355-.32152964-.96202407.05553685-1.30838336.37559358-.34500633.96122764-.31944023 1.30691045.05688981"/><circle cx="-.68199998" cy="-.62599999" r=".926" fill="none" stroke="#000" transform="scale(-1 1) rotate(-47.43 53.25871792 51.8640451)"/></svg>