<svg xmlns="http://www.w3.org/2000/svg" xmlns:svg="http://www.w3.org/2000/svg" fill-rule="evenodd" stroke-linecap="round" stroke-linejoin="round" stroke-miterlimit="10" clip-rule="evenodd" viewBox="0 0 64.351997 74.155182" xml:space="preserve"><path fill="#495790" fill-rule="nonzero" d="M63.352 55.039084v-35.924l-31.176-17.961L1 19.115084v35.924l31.176 17.962z" opacity=".3"/><path fill="none" stroke="#000" stroke-dasharray="32 4 8 4 2" d="M7.5867 50.518384h49.175"/><path fill="none" stroke="#000" stroke-linecap="butt" stroke-linejoin="miter" stroke-width="2" d="M63.352 55.039084v-35.924l-31.176-17.961L1 19.115084v35.924l31.176 17.962z"/><path fill-rule="nonzero" d="m20.0667 44.078484 1.261 1.261h19.127l-1.875-2.911-19.419.461Z"/><path fill="#fff" stroke="#000" stroke-linecap="butt" stroke-linejoin="miter" stroke-width=".5" d="M52.2078 34.067384h-9.3800001v3.405H52.2078zm-5.298-3.405002h-2.72v3.405h2.72z"/><path fill="#fff" stroke="#000" stroke-linecap="butt" stroke-linejoin="miter" stroke-width=".5" d="M52.297801 27.257385h-6.2519999v3.405h6.2519999z"/><path fill="#fff" stroke="#000" stroke-linecap="butt" stroke-linejoin="miter" stroke-width=".5" d="M52.664799 30.662382h-5.7550001v3.405h5.7550001z"/><path fill="#fff" fill-rule="nonzero" stroke="#000" stroke-linecap="butt" stroke-linejoin="miter" d="m51.2168 39.840384-14.271 3.755 4.378 2.284h9.893l4.598-.831v-3.974z"/><path fill="#fff" fill-rule="nonzero" stroke="#000" stroke-linecap="butt" stroke-linejoin="miter" d="M7.5867 37.694384v3.901c0 1.105.895 2 2 2h27.359l5.514-2.146h6.826l1.931-2.467-7.725-.215-5.726 1.878h-25.177l-2.36-2.951z"/><path fill="#fff" fill-rule="nonzero" stroke="#000" stroke-linecap="butt" stroke-linejoin="miter" stroke-width="2" d="m16.4517 33.509684-8.865 2.575 2.749 4.56h22.211c0-2.874-2.33-5.204-5.204-5.204h-9.174Zm32.846 4.7007 3.432-11.526h4.814v12.447h-8.246Z"/><path fill="none" stroke="#000" stroke-linecap="butt" stroke-linejoin="miter" stroke-width="2" d="m22.4234 29.048884-1.368 3.782 1.368 2.361"/><path fill="none" stroke="#000" stroke-linecap="butt" stroke-linejoin="miter" d="m15.05656518 40.64481834 2.85246964 2.85246964"/><path fill="none" stroke="#000" stroke-linecap="butt" stroke-linejoin="miter" stroke-width=".5" d="m13.32856518 40.64481834 2.85246964 2.85246964m35.0352803-1.64945357 4.59894085.46109442"/><path fill="#fff" fill-rule="nonzero" stroke="#000" stroke-linecap="butt" stroke-linejoin="miter" d="M58.0431 42.859884v-3.02h-6.81l3.02 3.02z"/><path fill="none" stroke="#000" stroke-linecap="butt" stroke-linejoin="miter" d="M51.2163 45.879884v-6.04"/><path fill="none" stroke="#000" stroke-linecap="butt" stroke-linejoin="miter" stroke-width=".5" d="m55.8150946 43.59571648-4.59898675.28806175M50.0797 45.879884v-5.774"/><path fill-rule="nonzero" d="m36.94579803 43.59594232 3.50944882 1.74422542 6.64612762-3.89059406-4.64119393.00038798Z"/><path fill="none" stroke="#000" stroke-linecap="butt" stroke-linejoin="miter" stroke-width=".5" d="m9.6564 35.990384 1.844 2.963h20.954"/></svg>