<svg xmlns="http://www.w3.org/2000/svg" xmlns:svg="http://www.w3.org/2000/svg" fill-rule="evenodd" stroke-miterlimit="10" clip-rule="evenodd" viewBox="0 0 64.353996 74.309402" xml:space="preserve"><g transform="translate(-3.8229 -3.3453003)"><clipPath id="a"><path d="M4.823 22.5v36L36 76.5l31.177-18v-36L36 4.5Z" clip-rule="nonzero"/></clipPath><g clip-path="url(#a)"><path fill="#3f7faa" fill-rule="nonzero" d="M67.1769 58.5v-36l-31.177-18-31.177 18v36l31.177 18z" opacity=".3"/><path fill="none" stroke="#000" d="M39.17213426 43.03621377c.2131.01443462 4.12868289.23866725 5.6377404-2.26949297.62257025-1.03638327.62697277-2.19513636.63048453-2.98769944.00492165-1.19703793.04981-2.83349882-1.09037792-4.17428718-1.39619386-1.64291557-3.54679386-1.66902124-3.94664685-1.66647658"/><path fill-rule="nonzero" d="M38.4806 40.4742c.156-.592.443-1.134.837-1.584.202-.231.416-.415.627-.577.224-.172.483-.334.765-.451.567-.244 1.212-.283 1.779-.138.573.147 1.048.44 1.441.83.196.195.197.512.002.708-.173.174-.442.194-.637.061l-.025-.017c-.299-.204-.67-.339-.998-.352-.332-.014-.639.074-.888.248-.127.087-.243.194-.36.326-.128.144-.238.286-.312.419-.16.279-.25.595-.266.901-.029.556-.503.983-1.059.954-.556-.029-.984-.503-.955-1.059.004-.068.014-.135.03-.199Zm-.6128-3.8007c.146-.616.369-1.108.745-1.61.362-.49.951-.908 1.585-1.037.313-.067.621-.071.904-.038.279.034.521.086.799.176.528.176.991.474 1.366.843.198.194.201.512.007.709-.172.175-.44.197-.636.066l-.014-.009c-.319-.214-.677-.352-1.03-.397-.162-.022-.373-.027-.546-.015-.17.014-.319.051-.443.109-.243.118-.408.296-.539.568-.127.254-.216.636-.217.913-.004.557-.458 1.006-1.015 1.003-.557-.003-1.006-.457-1.003-1.014.001-.076.01-.15.026-.221Z"/><path fill="#fff" fill-rule="nonzero" d="M33.6757 27.204s1.927-1.352 2.89-2.028l2.102.405s5.286-4.297 11.831-4.391l2.095-.899 2.768 8.713-1.912.399c-.322-.244-1.453-1.041-3.098-.991-1.592.049-2.662.861-2.984 1.125-.124-.041-1.55-.49-2.804.457-1.169.882-1.22 2.247-1.224 2.41-1.051-.213-2.102-.425-3.153-.638l-1.335 3.992.63 2.039.112 18.992c.008 1.303-1.036 2.374-2.332 2.392l-1.976.029.017 2.979-3.273.047c-.005-.551-.006-.454-.011-1.005-1.418.012-2.837.025-4.255.037l-.13-21.873.485-1.621.647-5.41.658-3.547 2.233 1.52 3.145-.728z"/><path fill-rule="nonzero" d="M34.1588 27.3328c.406.699.769 1.358 1.095 2.064l.26.56-.6.139-3.145.728-.213.049-.181-.123-2.232-1.52.773-.322-.411 2.216c-.142.738-.283 1.476-.354 2.227l-.536 4.482-.005.043-.012.041-.485 1.621.021-.146.13 21.873-.505-.496 4.255-.038.499-.004.006.499.011 1.005-.507-.495 3.273-.047-.493.503-.018-2.979-.002-.496.495-.007 1.542-.022c.563.003.887-.017 1.271-.222.357-.19.656-.498.824-.868.188-.383.188-.733.176-1.293l-.036-6.168-.073-12.337.022.145-.63-2.04-.047-.153.051-.153 1.335-3.991.14-.42.433.088 3.153.638-.599.479c.024-.576.167-1.094.417-1.593.249-.494.626-.936 1.081-1.257.453-.327.993-.538 1.542-.612.557-.069 1.086-.038 1.647.132l-.476.088c.933-.763 2.113-1.211 3.324-1.239 1.211-.031 2.413.366 3.378 1.093l-.405-.091 1.912-.4-.374.641-2.769-8.712.674.308-2.094.899-.083.035-.108.005c-1.031.048-2.068.124-3.082.362-1.016.216-2.019.508-2.99.893-.974.377-1.924.819-2.84 1.326-.909.506-1.811 1.08-2.61 1.698l-.189.145-.221-.042-2.102-.404.381-.082c-.873.617-1.755 1.176-2.694 1.747m-.966-.258c.988-.78 2.033-1.573 3.086-2.308l.174-.121.208.04 2.102.404-.41.103c.891-.689 1.8-1.262 2.757-1.797.953-.528 1.945-.99 2.964-1.384 1.016-.402 2.071-.71 3.144-.939 1.07-.249 2.174-.334 3.274-.383l-.19.041 2.094-.899.507-.218.167.526 2.769 8.712.167.528-.541.113-1.912.4-.223.046-.182-.137c-.781-.589-1.771-.918-2.749-.89-.979.02-1.954.39-2.713 1.012l-.209.17-.267-.082c-.355-.11-.802-.144-1.193-.091-.4.056-.774.203-1.098.436-.326.23-.59.538-.771.897-.182.353-.293.78-.308 1.16l-.022.596-.577-.116-3.153-.638.573-.331-1.335 3.991.004-.306.629 2.04.022.07.001.074.073 12.337.036 6.168c.016.459.019 1.175-.27 1.723-.26.566-.713 1.036-1.263 1.328-.523.314-1.267.35-1.723.338l-1.542.022.492-.503.018 2.979.003.496-.496.007-3.272.047-.502.007-.006-.503-.011-1.004.504.495-4.255.038-.501.004-.003-.502-.13-21.873v-.075l.021-.072.485-1.62-.018.083.54-4.509c.071-.754.214-1.498.356-2.243l.415-2.236.139-.754.634.432 2.232 1.519-.394-.073 3.145-.728-.34.699c-.424-.898-.812-1.841-1.156-2.746"/><path fill-rule="nonzero" d="m34.8015 29.6087.75 1.541 1.695-.205.204-.024.174.334 2.158 4.138-.931.365-2.158-4.138.377.31-1.695.204-.431.053-.292-.599-.75-1.541z"/><path fill="none" stroke="#000" stroke-linecap="round" stroke-linejoin="round" d="m33.62966729 36.36085399.0379993 6.42989069m-2.0993993-6.77809069.0379993 6.42989069m4.0804007-6.48899069.0379993 6.42989069"/><path fill="#fff" stroke="#000" d="m67.5474911 40.28870491-64.159938 5.61299227.82854931 9.47082587 64.15993798-5.61299227z"/><path fill="none" stroke="#000" stroke-linecap="round" stroke-linejoin="round" stroke-width="2" d="m63.45299671 44.17273588.2320769 2.65587986m-4.8288769-2.25377986.2320769 2.65587986m-4.8288769-2.25367986.2320769 2.65587986m-4.8288769-2.25367986.2320769 2.65587986m-4.8288769-2.25377986.2320769 2.65587986m-4.8288769-2.25367986.2320769 2.65587986m-4.8288769-2.25367986.2320769 2.65587986m-4.8288769-2.25367986.2320769 2.65587986m-4.8288769-2.25377986.2320769 2.65587986m-4.8288769-2.25367986.2320769 2.65587986m-4.8289769-2.25367986.2320769 2.65587986m-4.8288769-2.25377986.2320769 2.65587986m-4.8289169-2.25367986.2320769 2.65587986"/><path fill="#fff" fill-rule="nonzero" stroke="#000" stroke-width="2" d="m24.9201 36.6514 6.569-1.776 15.077 4.179v6.255l-4.36 4.884v8.104c0 4.169-3.379 7.548-7.548 7.548h-5.964c-2.084 0-3.774-1.69-3.774-3.774Z"/><path fill="#fff" fill-rule="nonzero" stroke="#000" stroke-width="2" d="m32.7981 23.9366-5.867 3.241 9.853 14.727c.664.992 1.924 1.398 3.042.979 1.468-.55 2.107-2.273 1.354-3.647Z"/><path fill="#fff" d="M38.8519 40.3447h.001v.001h-.001z"/><path fill="none" stroke="#000" stroke-linecap="round" stroke-linejoin="round" stroke-width="2" d="M38.8519 40.3457h0"/></g></g><path fill="none" stroke="#000" stroke-width="2" d="M63.354 55.1546997v-36l-31.177-18-31.177 18v36l31.177 18z"/></svg>