<svg xmlns="http://www.w3.org/2000/svg" xml:space="preserve" fill-rule="evenodd" stroke-linejoin="round" stroke-miterlimit="2" clip-rule="evenodd" viewBox="0 0 19.67 20.86">
  <path d="M19.4 9.83 10.57.33a1 1 0 0 0-1.47 0L.27 9.82a1 1 0 0 0 0 1.36l8.84 9.36a1 1 0 0 0 1.45 0l8.84-9.36a1 1 0 0 0 0-1.36zm-1.15 1c-.03-.12-.13-.23-.28-.3l-1.94-.85a2.1 2.1 0 0 0-.75-.13 2 2 0 0 0-.74.13l-3.6 1.55c-.38.17-.7.66-.7 1.08v6.85c0 .18.04.25.05.26.03 0 .1-.03.22-.15l7.6-8.04c.12-.13.17-.27.14-.4zm-9.52.4-3.6-1.55a1.96 1.96 0 0 0-.74-.13c-.28 0-.56.05-.75.13l-1.94.85c-.15.07-.26.18-.28.3-.03.13.02.27.14.4l7.6 8.04c.11.11.2.15.22.15.01 0 .05-.08.05-.26v-6.85c0-.42-.32-.9-.7-1.08zm1.85-.56 3.6-1.56a.55.55 0 0 0 .33-.34.56.56 0 0 0-.09-.47l-4.26-6.44c-.09-.14-.2-.22-.32-.22s-.24.08-.33.22L5.25 8.3a.55.55 0 0 0-.09.47c.05.15.16.27.33.34l3.6 1.56c.2.08.46.13.74.13.3 0 .56-.05.75-.13zm5.61-1.55 1.88.82-6.53-7.03 3.42 5.17c.25.38.81.85 1.23 1.04zm-12.7 0a3.5 3.5 0 0 0 1.22-1.04l3.42-5.17L1.6 9.94z"/>
</svg>
