<svg xmlns="http://www.w3.org/2000/svg" xmlns:svg="http://www.w3.org/2000/svg" fill-rule="evenodd" stroke-linecap="round" stroke-linejoin="round" stroke-miterlimit="10" clip-rule="evenodd" viewBox="0 0 64.353996 74.309402" xml:space="preserve"><path fill="#9aa3ad" fill-rule="nonzero" d="M63.354 55.1546997v-36l-31.177-18-31.177 18v36l31.177 18z"/><g transform="translate(-3.8229 -3.3453003)"><clipPath id="a"><path d="M4.823 22.5v36L36 76.5l31.177-18v-36L36 4.5Z" clip-rule="nonzero"/></clipPath><g clip-path="url(#a)"><path fill="#fff" fill-rule="nonzero" d="M24.376 29.659c0 3.654-2.962 6.617-6.617 6.617-3.654 0-6.617-2.963-6.617-6.617s2.963-6.617 6.617-6.617c3.655 0 6.617 2.963 6.617 6.617"/><circle cx="-6.6170001" r="6.6170001" fill="none" stroke="#231f20" stroke-width="2" transform="matrix(0 -1 -1 0 17.759 23.042)"/><path fill="#fff" fill-rule="nonzero" stroke="#231f20" stroke-width="2" d="M25.3369 36.2758h-15.155c-4.377 0-7.863 3.661-7.649 8.033l.59 12.042c.178 3.64 3.182 6.501 6.826 6.501l1.953 17.897h11.715l1.952-17.897c3.645 0 6.649-2.861 6.827-6.501l.59-12.042c.214-4.372-3.272-8.033-7.649-8.033Z"/><path fill="#fff" fill-rule="nonzero" d="M60.8575 29.659c0 3.654-2.962 6.617-6.617 6.617-3.654 0-6.617-2.963-6.617-6.617s2.963-6.617 6.617-6.617c3.655 0 6.617 2.963 6.617 6.617"/><circle cx="-6.6170001" r="6.6170001" fill="none" stroke="#231f20" stroke-width="2" transform="matrix(0 -1 -1 0 54.2405 23.042)"/><path fill="#fff" fill-rule="nonzero" stroke="#231f20" stroke-width="2" d="M61.8183 36.2758h-15.155c-4.377 0-7.863 3.661-7.649 8.033l.59 12.042c.178 3.64 3.182 6.501 6.826 6.501l1.953 17.897h11.715l1.952-17.897c3.645 0 6.649-2.861 6.827-6.501l.59-12.042c.214-4.372-3.272-8.033-7.649-8.033Z"/><path fill="#fff" fill-rule="nonzero" d="M42.6168 39.659c0 3.654-2.962 6.617-6.617 6.617-3.654 0-6.617-2.963-6.617-6.617s2.963-6.617 6.617-6.617c3.655 0 6.617 2.963 6.617 6.617"/><circle cx="-6.6170001" r="6.6170001" fill="none" stroke="#231f20" stroke-width="2" transform="matrix(0 -1 -1 0 35.9998 33.042)"/><path fill="#fff" fill-rule="nonzero" stroke="#231f20" stroke-width="2" d="M43.5776 46.2758h-15.155c-4.377 0-7.863 3.661-7.649 8.033l.59 12.042c.178 3.64 3.182 6.501 6.826 6.501l1.953 17.897h11.715l1.952-17.897c3.645 0 6.649-2.861 6.827-6.501l.59-12.042c.214-4.372-3.272-8.033-7.649-8.033Z"/></g></g><path fill="none" stroke="#231f20" stroke-linecap="butt" stroke-linejoin="miter" stroke-width="2" d="M63.354 55.1546997v-36l-31.177-18-31.177 18v36l31.177 18z"/></svg>