<svg xmlns="http://www.w3.org/2000/svg" xmlns:svg="http://www.w3.org/2000/svg" fill-rule="evenodd" stroke-miterlimit="10" clip-rule="evenodd" viewBox="0 0 64.448097 74.309402" xml:space="preserve"><path fill="#9aa3ad" fill-rule="nonzero" d="M63.354 55.1546997v-36l-31.177-18-31.177 18v36l31.177 18z"/><path fill="#fff" fill-rule="nonzero" stroke="#231f20" stroke-width="2" d="M34.1771 37.1546997v-18.217c0-2.68 2.212-4.861 4.863-4.942l-6.863-6.863-6.863 6.863c2.729 0 4.863 2.212 4.863 4.942v18.217m0 0v18.217c0 2.68-2.212 4.861-4.863 4.942l6.863 6.863 6.863-6.863c-2.729 0-4.863-2.212-4.863-4.942v-18.217"/><path fill="#fff" fill-rule="nonzero" stroke="#231f20" stroke-width="2" d="m33.1771 35.4225997-7.888-4.554-7.888-4.555c-2.321-1.339-3.105-4.345-1.849-6.682l-9.375 2.512 2.512 9.375c1.365-2.364 4.348-3.105 6.712-1.74l15.776 9.108m0 .0002 7.888 4.554 7.888 4.555c2.321 1.339 3.105 4.345 1.849 6.682l9.375-2.512-2.512-9.375c-1.365 2.364-4.348 3.105-6.712 1.74l-15.776-9.108"/><path fill="#fff" fill-rule="nonzero" stroke="#231f20" stroke-width="2" d="m31.1771 35.4225997-7.888 4.554-7.888 4.555c-2.321 1.339-5.316.515-6.712-1.741l-2.512 9.375 9.375 2.512c-1.365-2.364-.515-5.318 1.849-6.682l7.888-4.555 7.888-4.554"/><path fill="#fff" fill-rule="nonzero" stroke="#231f20" stroke-width="2" d="m33.1771 38.8867997 7.888-4.554 7.888-4.555c2.321-1.339 5.316-.515 6.712 1.741l2.512-9.375-9.375-2.512c1.365 2.364.515 5.318-1.849 6.682l-7.888 4.555-7.888 4.554"/><path fill="none" stroke="#231f20" stroke-width="2" d="M63.4481 55.1546997v-36l-31.177-18-31.177 18v36l31.177 18z"/><path fill="none" stroke="#231f20" stroke-width="2" d="M63.354 55.1546997v-36l-31.177-18-31.177 18v36l31.177 18z"/><path fill="#fff" fill-rule="nonzero" stroke="#231f20" stroke-width="2" d="M37.4374 28.0435997h-10.521l-5.26 9.111 5.26 9.111h10.521l5.26-9.111z"/></svg>