<svg xmlns="http://www.w3.org/2000/svg" xmlns:svg="http://www.w3.org/2000/svg" fill-rule="evenodd" stroke-miterlimit="10" clip-rule="evenodd" viewBox="0 0 64.353996 74.309402" xml:space="preserve"><path fill="#9aa3ad" fill-rule="nonzero" d="M1 55.1546997v-36l31.177-18 31.177 18v36l-31.177 18Z"/><g transform="translate(-3.8231 -3.3453003)"><clipPath id="a"><path d="M11.309 40.5C18.716 48.131 24.525 52.88 36 52.88s17.284-4.749 24.691-12.38C53.284 32.869 47.475 28.12 36 28.12S18.716 32.869 11.309 40.5Z" clip-rule="nonzero"/></clipPath><g clip-path="url(#a)"><path fill="#231f20" fill-rule="nonzero" d="M36 52.8802c11.475 0 17.284-4.749 24.691-12.38-7.407-7.631-13.216-12.38-24.691-12.38s-17.284 4.749-24.691 12.38c7.407 7.631 13.216 12.38 24.691 12.38" opacity=".3"/><path fill="#fff" fill-rule="nonzero" d="M32.2890563 25.61808784c8.2196024-2.04841873 16.5439446 2.95325686 18.59284978 11.17067674 2.04841873 8.2196024-2.95228656 16.54370268-11.17164703 18.59309171-8.21863211 2.04817681-16.5427324-2.95252848-18.59212142-11.17188896-2.0481768-8.2186321 2.95252849-16.54273239 11.17091867-18.59187949"/><circle cx="3.711" cy="-14.882" r="15.337" fill="none" stroke="#231f20" transform="matrix(-.9703 .24193 .24193 .9703 43.2007 54.0416)"/><path fill="#231f20" fill-rule="nonzero" d="M41.0736 44.0737c-.337.372-.813.429-1.262.468-.283.027-1.211.107-1.975-.503-.23-.184-.579-.46-.605-.882-.031-.506.425-.885.617-1.046.809-.679 2.47-1.097 3.217-.207.48.571.526 1.61.008 2.17m-3.869 2.32c-.077.065-.169.104-.257.123-.203.038-.303-.173-.602-.292-.138-.053-.261-.073-.338-.08-.08.007-.199.027-.337.08-.303.119-.399.33-.606.292-.088-.019-.18-.058-.257-.123-.207-.173-.253-.476-.126-.713.038-.096.379-.886.694-1.308.153-.218.31-.268.372-.28.072-.015.149-.019.253-.019.103 0 .188 0 .264.019.062.012.223.062.372.28.319.422.656 1.212.698 1.308.127.237.077.54-.13.713m-3.026-2.355c-.763.61-1.695.53-1.979.503-.444-.039-.924-.096-1.261-.468-.518-.56-.472-1.599.007-2.17.752-.89 2.409-.472 3.218.207.192.161.652.54.617 1.046-.027.422-.372.698-.602.882m9.049-3.403c.115-.418.159-.737.197-1.026.122-.921.254-1.911-.077-3.09-.192-.683-.479-1.239-.752-1.665 0 0-.286-.449-.652-.855-.58-.644-2.802-2.469-6.018-2.438-.718.007-3.806.129-5.858 2.438-.285.322-1.026 1.176-1.403 2.52-.364 1.293-.196 2.367-.077 3.087.195 1.173.606 2.119.993 2.807-.081.067-.163.135-.245.203l-.058.05c-.007 0-.015.003-.034.015l-.088.065c-.131.104-.253.215-.372.349l-.004.004c-.058.119-.104.238-.134.36-.227.925.448 1.853.932 2.228l.026.016c.445.337.925.498 1.404.491.061-.008.138-.016.218-.016.265 0 .618.062.928.315.142.119.338.329.445.667.096.284.069.506.046.721-.019.176-.042.36-.007.64.015.119.019.161.03.188.039.096.142.234.599.414.483.192 1.027.296 1.61.315h2.27c.575-.019 1.116-.123 1.599-.315.46-.18.564-.318.602-.418.008-.023.016-.073.027-.184.035-.28.016-.464-.007-.64-.023-.215-.046-.437.046-.721.088-.272.237-.499.444-.667.407-.33.882-.334 1.147-.299.483.007.959-.154 1.407-.491l.039-.027c.464-.357 1.146-1.289.916-2.217-.027-.107-.069-.237-.146-.383-.115-.123-.233-.234-.356-.33l-.088-.065c-.02-.012-.027-.015-.035-.015l-.061-.05-.242-.203c.248-.392.572-.993.789-1.778"/></g></g><g transform="translate(-3.8231 -3.3453003)"><clipPath id="b"><path d="M24.61 30.226c-3.297 3.662-4.773 8.843-3.492 13.985.631 2.529 1.856 4.753 3.489 6.562C27.819 52.139 31.468 52.88 36 52.88c4.531 0 8.178-.74 11.389-2.106 3.297-3.662 4.774-8.844 3.493-13.984-.631-2.53-1.857-4.755-3.49-6.563C44.18 28.861 40.531 28.12 36 28.12s-8.178.74-11.39 2.106z" clip-rule="nonzero"/></clipPath><g fill="#231f20" fill-rule="nonzero" clip-path="url(#b)"><path d="m39.3526 49.5128 4.133 9.675-.938.349Zm-6.7052-18.0256-4.133-9.675.938-.349Z"/><path d="m39.3526 49.5128 4.133 9.675-.938.349Zm-6.7052-18.0256-4.133-9.675.938-.349Zm8.2537 17.319 5.787 8.823-.861.509Zm-9.8022-16.6125-5.787-8.823.861-.509Zm11.2019 15.6536 7.265 7.704-.759.651ZM29.6992 33.1526l-7.265-7.704.759-.651Z"/><path d="m42.3008 47.8473 7.265 7.704-.759.651ZM29.6992 33.1526l-7.265-7.704.759-.651ZM43.509 46.6651l8.524 6.351-.635.773ZM28.491 34.3348l-8.524-6.351.635-.773Zm15.998 10.9608 9.523 4.806-.492.87Zm-16.978-9.5913-9.523-4.806.492-.87Z"/><path d="m44.489 45.2956 9.523 4.806-.492.87Zm-16.978-9.5913-9.523-4.806.492-.87Zm17.7001 8.0761 10.234 3.114-.335.942Zm-18.4222-6.5608-10.234-3.114.335-.942Zm18.8645 4.9459 10.635 1.327-.17.986Zm-19.3068-3.331-10.635-1.327.17-.986Z"/><path d="m45.6534 42.1655 10.635 1.327-.17.986Zm-19.3068-3.331-10.635-1.327.17-.986ZM45.8023 40.5l10.712-.5v1zm-19.6046 0-10.712.5v-1zm19.4557-1.6655 10.465-2.313.17.986zm-19.3068 3.331-10.465 2.313-.17-.986z"/><path d="m45.6534 38.8345 10.465-2.313.17.986zm-19.3068 3.331-10.465 2.313-.17-.986zm18.8645-4.9459 9.899-4.056.335.942Zm-18.4222 6.5608-9.899 4.056-.335-.942Zm17.7001-8.076 9.031-5.676.492.87Zm-16.978 9.5912-9.031 5.676-.492-.87Z"/><path d="m44.489 35.7044 9.031-5.676.492.87Zm-16.978 9.5912-9.031 5.676-.492-.87Zm15.998-10.9607 7.889-7.124.634.773ZM28.491 46.6651l-7.889 7.124-.634-.773Zm13.8098-13.5124 6.506-8.355.759.651ZM29.6992 47.8473l-6.506 8.355-.759-.651Z"/><path d="m42.3008 33.1527 6.506-8.355.759.651ZM29.6992 47.8473l-6.506 8.355-.759-.651Zm11.202-15.6536 4.926-9.332.861.509Zm-9.8024 16.6125-4.926 9.332-.861-.509Zm8.2538-17.319 3.195-10.024.937.349Zm-6.7052 18.0256-3.195 10.024-.937-.349Z"/><path d="m39.3526 31.4872 3.195-10.024.937.349Zm-6.7052 18.0256-3.195 10.024-.937-.349Zm5.0548-18.4584 1.368-10.411.984.177Zm-3.4044 18.8911-1.368 10.411-.984-.177ZM36 30.9087l-.5-10.482h1zm0 19.1825.5 10.482h-1z"/><path d="m36 30.9087-.5-10.482h1zm0 19.1825.5 10.482h-1zm-1.7021-19.0368-2.352-10.234.984-.177Zm3.4042 18.8911 2.352 10.234-.984.177Z"/></g></g><g transform="translate(32.1769 24.7748997)"><clipPath id="c"><path d="M-31.177-5.62v36L0 48.38l31.177-18v-36L0-23.62Z" clip-rule="nonzero"/></clipPath><g clip-path="url(#c)"><path fill="none" stroke="#231f20" stroke-width="2" d="M0 24.76c11.475 0 17.284-4.749 24.691-12.38C17.284 4.749 11.475 0 0 0s-17.284 4.749-24.691 12.38C-17.284 20.011-11.475 24.76 0 24.76Z"/></g></g><path fill="none" stroke="#231f20" stroke-width="2" d="M1 55.1546997v-36l31.177-18 31.177 18v36l-31.177 18Z"/></svg>