<svg xmlns="http://www.w3.org/2000/svg" xmlns:svg="http://www.w3.org/2000/svg" fill-rule="evenodd" stroke-miterlimit="10" clip-rule="evenodd" viewBox="0 0 64.353996 74.309402" xml:space="preserve"><path fill="#9aa3ad" fill-rule="nonzero" d="M63.354 55.1549997v-36l-31.177-18-31.177 18v36l31.177 18z"/><path fill="#231f20" fill-rule="nonzero" d="m40.665 68.3479997.219-.126-1.138-2.704Zm-22.5568-58.9768 6.5 15.449-5.251-16.17Z"/><path fill="#231f20" fill-rule="nonzero" d="m40.665 68.3479997.219-.126-1.138-2.704Zm-22.5568-58.9768 6.5 15.449-5.251-16.17Zm26.3346 56.7957.185-.107-1.385-2.137Zm-32.1882-53.4162 8.857 13.664-7.673-14.348Zm35.922 51.2605.213-.123-1.987-2.13Zm-41.8177-47.8565 11.593 12.426-10.35-13.144Z"/><path fill="#231f20" fill-rule="nonzero" d="m48.1766 64.0111997.213-.123-1.987-2.13Zm-41.8177-47.8565 11.593 12.426-10.35-13.144Zm45.7441 45.5896.312-.18-3.285-2.475Zm-51.1028-42.4958v1.284l14.224 10.717-13.745-12.278Zm55.5054 39.9539.52-.3-5.682-2.906Zm-55.5054-31.0023 12.01 6.141-12.01-7.459Z"/><path fill="#231f20" fill-rule="nonzero" d="m56.5056 59.2023997.52-.3-5.682-2.906Zm-55.5054-31.0023 12.01 6.141-12.01-7.459Zm60.8087 27.9405.93-.537-9.765-3.028Zm-60.8087-21.597 10.381 3.219-10.381-4.189Zm62.3538 16.4071v-.799l-9.382-1.222Zm-62.3538-10.7632 9.382 1.222-9.382-2.021Z"/><path fill="#231f20" fill-rule="nonzero" d="M63.354 50.9506997v-.799l-9.382-1.222Zm-62.3538-10.7632 9.382 1.222-9.382-2.021Zm53.3088 4.9819 9.045.374v-.748Zm-53.3088.374 9.046-.374-9.046-.374Zm52.9722-4.1342 9.382-1.222v-.799Zm-52.9722 8.7421v.799l9.382-2.021Z"/><path fill="#231f20" fill-rule="nonzero" d="m53.9724 41.4091997 9.382-1.222v-.799Zm-52.9722 8.7421v.799l9.382-2.021Zm51.9741-12.388 10.38-3.219v-.97Zm-51.3588 17.8404.93.537 8.834-3.565Zm49.728-21.2622 12.01-6.141v-1.318Zm-44.015 24.5606.52.3 5.162-3.206Z"/><path fill="#231f20" fill-rule="nonzero" d="m51.3435 34.3414997 12.01-6.141v-1.318Zm-44.015 24.5606.52.3 5.162-3.206Zm41.80225248-27.65229311 14.2239565-10.71796895-.00028207-1.28320199-.4802225-.27672199zM11.939 61.5639997l.312.18 2.973-2.655Zm34.4644-32.9834 11.592-12.426-1.243-.718Zm-30.4389 35.3076.213.123 1.774-2.253Z"/><path fill="#231f20" fill-rule="nonzero" d="m46.4034 28.5805997 11.592-12.426-1.243-.718Zm-30.4389 35.3076.213.123 1.774-2.253Zm27.2781-37.473 8.857-13.664-1.184-.684Zm-23.5163 39.6448.185.107 1.2-2.244zm20.0198-41.2396 6.5-15.449-1.249-.721Zm-16.2754 43.4014.219.126.918-2.829Z"/><path fill="#231f20" fill-rule="nonzero" d="m39.7461 24.8203997 6.5-15.449-1.249-.721Zm-16.2754 43.4014.219.126.918-2.829Zm12.5494-44.3788 4.044-18.041-1.458-.842Zm-8.586 46.6672.324.187.576-4.202Zm3.82496924-68.73170298.91802706 21.7366154.91862928-21.73611548-.91921147-.53068495z"/><path fill="#231f20" fill-rule="nonzero" d="m31.25906924 1.77849672.91802706 21.7366154.91862928-21.73611548-.91921147-.53068495zM24.2903 5.8018997l4.044 18.041-2.586-18.883Zm12.3053 64.8956.324-.187-.899-4.016Z"/><g transform="translate(-3.8229 -3.2983003)"><clipPath id="a"><path d="M4.823 22.547v36l31.177 18 31.177-18v-36L36 4.547Z" clip-rule="nonzero"/></clipPath><g clip-path="url(#a)"><path fill="#9aa3ad" fill-rule="nonzero" stroke="#231f20" d="m21.9942 40.8104-4.119 8.237-3.974-2.158 1.286-3.813 1.097 4.604 3.345-10.863c.081-.252.135-.503.153-.764l.773.396c1.601.809 2.239 2.76 1.439 4.361Z"/><path fill="#9aa3ad" fill-rule="nonzero" d="M19.7821 36.0533c-.018.261-.072.513-.153.764l-3.345 10.863-1.097-4.604-1.286-5.386 3.066-5.801 1.052.648c1.223.755 1.889 2.131 1.763 3.516"/><path fill="none" stroke="#231f20" d="M19.7821 36.0533c-.018.261-.072.513-.153.764l-3.345 10.863-1.097-4.604-1.286-5.386 3.066-5.801 1.052.648c1.223.755 1.889 2.131 1.763 3.516z"/><path fill="#fff" fill-rule="nonzero" d="M22.6443 60.2332v-5.622l-1.334-3.78c-.402-1.138.136-2.394 1.236-2.889.879-.396 1.912-.207 2.594.475 1.5 1.501 2.675 3.294 3.452 5.269l2.911 7.399v15.334h-9.37l-.171-4.771-6.303-17.86-4.6-8.207v-14.823l2.076.672c1.105.357 1.933 1.278 2.174 2.413l2.11 9.977 4.27 4.508"/><path fill="#231f20" fill-rule="nonzero" d="m22.6443 60.2332-.5-5.622.029.166-1.081-2.873-.27-.718c-.088-.216-.206-.582-.226-.886-.064-.64.088-1.303.436-1.851.682-1.122 2.171-1.67 3.442-1.237.631.175 1.204.71 1.521 1.057.375.382.73.784 1.065 1.203.671.837 1.258 1.744 1.751 2.701.503.978.854 1.939 1.257 2.873l2.363 5.666.003.007.069.173v16.527h-11.335l-.034-.965-.171-4.77.056.297-6.303-17.86.07.155-4.6-8.206-.127-.228v-16.458l1.308.423 1.876.607c.138.045.342.108.547.195.198.084.39.182.573.296.366.225.699.506.979.833.281.325.513.693.686 1.087.175.385.272.861.328 1.138l.408 1.93 1.634 7.72-.253-.48 4.27 4.507-1.452 1.375-4.27-4.507-.194-.205-.058-.276-1.633-7.72-.408-1.93c-.076-.365-.112-.538-.207-.756-.091-.207-.214-.401-.363-.574-.147-.173-.323-.321-.517-.439-.096-.062-.198-.112-.302-.157-.098-.042-.208-.078-.383-.134l-1.877-.607 1.308-.952v14.823l-.128-.489 4.6 8.207.042.075.029.081 6.303 17.86.051.145.006.152.17 4.771-.999-.964h9.37l-1 .999v-15.333l.07.366-.003-.007-2.131-5.757c-.367-.961-.684-1.938-1.086-2.797-.409-.879-.905-1.72-1.482-2.504-.288-.392-.596-.77-.923-1.133-.363-.408-.559-.602-.92-.74-.677-.267-1.526-.008-1.949.618-.214.308-.321.692-.3 1.07.013.208.043.337.133.6l.241.729.962 2.914.033.126-.004.041Z"/><path fill="#9aa3ad" fill-rule="nonzero" stroke="#231f20" d="m58.0995 46.8894-3.975 2.158-4.118-8.237c-.801-1.601-.162-3.552 1.438-4.361l.774-.396c.018.261.072.513.153.764l3.345 10.863 1.097-4.604z"/><path fill="#9aa3ad" fill-rule="nonzero" stroke="#231f20" d="m58.0995 37.69-1.286 5.387-1.097 4.604-3.345-10.863c-.081-.252-.135-.504-.153-.765-.126-1.384.539-2.76 1.762-3.516l1.053-.647z"/><path fill="#fff" fill-rule="nonzero" d="M49.3558 60.2332v-5.622l1.334-3.78c.402-1.138-.136-2.394-1.236-2.889-.879-.396-1.912-.207-2.594.475-1.5 1.501-2.675 3.294-3.452 5.269l-2.911 7.399v15.334h9.37l.171-4.771 6.303-17.86 4.6-8.207v-14.823l-2.076.672c-1.105.357-1.933 1.278-2.174 2.413l-2.11 9.977-4.27 4.508"/><path fill="#231f20" fill-rule="nonzero" d="m49.3558 60.2332-.5-5.622-.004-.041.033-.126.962-2.914.241-.729c.09-.263.12-.392.133-.6.021-.378-.086-.762-.3-1.07-.423-.626-1.272-.885-1.949-.618-.361.138-.557.332-.92.74-.327.363-.635.741-.923 1.133-.577.784-1.073 1.625-1.482 2.504-.402.859-.719 1.836-1.086 2.797l-2.131 5.757-.003.007.07-.366v15.333l-1-.999h9.37l-.999.964.17-4.771.006-.152.051-.145 6.303-17.86.029-.081.042-.075 4.6-8.207-.128.489v-14.823l1.308.952-1.877.607c-.175.056-.285.092-.383.134-.104.045-.206.095-.302.157-.194.118-.37.266-.517.439-.149.173-.272.367-.363.574-.095.218-.131.391-.207.756l-.408 1.93-1.633 7.72-.058.276-.194.205-4.27 4.507-1.452-1.375 4.27-4.507-.253.48 1.634-7.72.408-1.93c.056-.277.153-.753.328-1.138.173-.394.405-.762.686-1.087.28-.327.613-.608.979-.833.183-.114.375-.212.573-.296.205-.087.409-.15.547-.195l1.877-.607 1.307-.423v16.458l-.127.228-4.6 8.206.07-.155-6.303 17.86.056-.297-.171 4.77-.034.965h-11.335v-16.527l.069-.173.003-.007 2.363-5.666c.403-.934.754-1.895 1.257-2.873.493-.957 1.08-1.864 1.751-2.701.335-.419.69-.821 1.065-1.203.317-.347.89-.882 1.521-1.057 1.271-.433 2.76.115 3.442 1.237.348.548.5 1.211.436 1.851-.02.304-.138.67-.226.886l-.27.718-1.081 2.873.029-.166Z"/></g></g><path fill="none" stroke="#231f20" stroke-width="2" d="M63.354 55.1546997v-36l-31.177-18-31.177 18v36l31.177 18z"/></svg>