<svg xmlns="http://www.w3.org/2000/svg" xmlns:svg="http://www.w3.org/2000/svg" fill-rule="evenodd" stroke-miterlimit="10" clip-rule="evenodd" viewBox="0 0 64.353996 74.309402" xml:space="preserve"><path fill="#9aa3ad" fill-rule="nonzero" d="M63.4481 55.1546997v-36l-31.177-18-31.177 18v36l31.177 18z"/><path fill="none" stroke="#231f20" stroke-width="2" d="M63.354 55.1546997v-36l-31.177-18-31.177 18v36l31.177 18z"/><path fill="#fff" fill-rule="nonzero" d="M54.0602 39.2303997c-.794 1.439-1.641 2.849-2.539 4.222-2.407 3.69-5.168 7.134-8.245 10.281-.177.177-.348.354-.522.528-3.257 3.257-6.834 6.163-10.682 8.684-3.362-2.261-6.512-4.829-9.405-7.666-3.726-3.643-7.005-7.694-9.788-12.09-.879-1.391-1.708-2.814-2.486-4.269-3.491-6.533-1.027-14.664 5.506-18.155 5.623-3.005 12.425-1.604 16.442 3.007 4.076-4.544 10.888-5.853 16.46-2.773 6.486 3.583 8.842 11.745 5.259 18.231"/><path fill="none" stroke="#231f20" stroke-width="2" d="M54.0602 39.2303997c-.794 1.439-1.641 2.849-2.539 4.222-2.407 3.69-5.168 7.134-8.245 10.281-.177.177-.348.354-.522.528-3.257 3.257-6.834 6.163-10.682 8.684-3.362-2.261-6.512-4.829-9.405-7.666-3.726-3.643-7.005-7.694-9.788-12.09-.879-1.391-1.708-2.814-2.486-4.269-3.491-6.533-1.027-14.664 5.506-18.155 5.623-3.005 12.425-1.604 16.442 3.007 4.076-4.544 10.888-5.853 16.46-2.773 6.486 3.583 8.842 11.745 5.259 18.231z"/><path fill="#b9bdc2" fill-rule="nonzero" d="M29.8481 50.7244997v-7.202h-7.24v-4.846h7.24v-7.278h4.846v7.278h7.24v4.846h-7.24v7.202z"/><path fill="#231f20" fill-rule="nonzero" d="M35.1942 30.8982997h-5.846v7.278h-7.24v5.846h7.24v7.202h5.846v-7.202h7.24v-5.846h-7.24Zm-1 1v7.278h7.24v3.846h-7.24v7.202h-3.846v-7.202h-7.24v-3.846h7.24v-7.278z"/></svg>