<svg xmlns="http://www.w3.org/2000/svg" xmlns:svg="http://www.w3.org/2000/svg" fill-rule="evenodd" stroke-miterlimit="10" clip-rule="evenodd" viewBox="0 0 64.353996 74.309402" xml:space="preserve"><path fill="#9aa3ad" fill-rule="nonzero" d="M1.0002 19.1546997v36l31.177 18 31.177-18v-36l-31.177-18Z"/><g transform="translate(-3.8229 -3.3453003)"><clipPath id="a"><path d="M4.823 22.5v36L36 76.5l31.177-18v-36L36 4.5Z" clip-rule="nonzero"/></clipPath><g stroke="#231f20" stroke-width="2" clip-path="url(#a)"><path fill="none" d="M67.271 58.5v-36l-31.177-18-31.177 18v36l31.177 18z"/><path fill="#fff" fill-rule="nonzero" d="M55.0593 23.6177h-38.25c-3.212 0-5.816 2.604-5.816 5.816v16.191c0 3.212 2.604 5.816 5.816 5.816h30.365l4.179 6.574v-6.574h3.706c3.212 0 5.816-2.604 5.816-5.816v-16.191c0-3.212-2.604-5.816-5.816-5.816z"/></g></g><g transform="translate(-3.8229 -3.3453003)"><clipPath id="b"><path d="M16.875 23.5c-3.212 0-5.816 2.604-5.816 5.817v16.191c0 3.212 2.604 5.815 5.816 5.815H47.24l4.179 6.574v-6.574h3.706c3.212 0 5.816-2.603 5.816-5.815V29.317c0-3.213-2.604-5.817-5.816-5.817z" clip-rule="nonzero"/></clipPath><g clip-path="url(#b)"><path fill="#231f20" fill-rule="nonzero" d="M16.458 44.151h6.585V31.146h-6.585zm.757 1.965c-2.273 0-3.032-1.255-3.032-2.819V31.998c0-1.563.759-2.819 3.032-2.819h5.071c2.273 0 3.032 1.256 3.032 2.819v11.299c0 1.564-.759 2.819-3.032 2.819zm11.357-13.7158v-1.444l4.951-1.778h.331v16.937h-2.276v-14.377c.026 0-3.006.662-3.006.662M48.957 44.151h6.585V31.146h-6.585zm.757 1.965c-2.273 0-3.032-1.255-3.032-2.819V31.998c0-1.563.759-2.819 3.032-2.819h5.071c2.273 0 3.032 1.256 3.032 2.819v11.299c0 1.564-.759 2.819-3.032 2.819zM38.1464 32.4002v-1.444l4.951-1.778h.331v16.937h-2.276v-14.377c.026 0-3.006.662-3.006.662"/></g></g><path fill="none" stroke="#231f20" stroke-width="2" d="M63.354 55.1546997v-36l-31.177-18-31.177 18v36l31.177 18z"/></svg>