<svg xmlns="http://www.w3.org/2000/svg" xmlns:svg="http://www.w3.org/2000/svg" fill-rule="evenodd" stroke-miterlimit="10" clip-rule="evenodd" viewBox="0 0 64.353996 74.309402" xml:space="preserve"><path fill="#9aa3ad" fill-rule="nonzero" d="M1.3881 18.9306997v35.283l31.177 18 30.789-17.776v-35.283l-31.177-18z"/><g transform="translate(-3.8229 -3.3453003)"><clipPath id="a"><path d="M4.823 22.5v36L36 76.5l31.177-18v-36L36 4.5Z" clip-rule="nonzero"/></clipPath><g clip-path="url(#a)"><path fill="none" stroke="#231f20" stroke-width="2" d="M67.271 58.5v-36l-31.177-18-31.177 18v36l31.177 18z"/><path fill="#9aa3ad" fill-rule="nonzero" d="M56.4451 60.503c-1.702 7.081-7.988 20.445-20.445 20.445-11.291 0-20.445-9.154-20.445-20.445 0-.759.316-2.461.856-5.868.745-4.702 1.462-8.507 1.951-10.984 1.554-.37 3.109-.741 4.663-1.111 1.628 1.177 3.255 2.353 4.882 3.529 2.745-1.431 5.49-2.862 8.235-4.294l9.234 4.647c2.137-.823 4.274-1.647 6.411-2.47 1.334.44 2.667.879 4.001 1.319.977 3.127 2.217 8.745.657 15.232"/><path fill="#231f20" fill-rule="nonzero" d="M56.4451 60.503c-1.702 7.081-7.988 20.445-20.445 20.445-11.291 0-20.445-9.154-20.445-20.445 0-.759.316-2.461.856-5.868.745-4.702 1.462-8.507 1.951-10.984 1.554-.37 3.109-.741 4.663-1.111 1.628 1.177 3.255 2.353 4.882 3.529 2.745-1.431 5.49-2.862 8.235-4.294l9.234 4.647c2.137-.823 4.274-1.647 6.411-2.47 1.334.44 2.667.879 4.001 1.319.977 3.127 2.217 8.745.657 15.232" opacity=".3"/><path fill="#fff" fill-rule="nonzero" d="M67.1769 69.3486c0 17.218-13.959 31.177-31.177 31.177s-31.177-13.959-31.177-31.177c0-10.669 5.37-20.078 13.539-25.698l3.609 6.22 15.879 7.059 15.168-5.899 2.77-5.76c6.949 5.71 11.389 14.379 11.389 24.078"/><path fill="none" stroke="#231f20" stroke-width="2" d="M67.1769 69.3486c0 17.218-13.959 31.177-31.177 31.177s-31.177-13.959-31.177-31.177c0-10.669 5.37-20.078 13.539-25.698l3.609 6.22 15.879 7.059 15.168-5.899 2.77-5.76c6.949 5.71 11.389 14.379 11.389 24.078Z"/><path fill="#fff" fill-rule="nonzero" stroke="#231f20" stroke-width="2" d="m53.8063 31.5819-2.784 4.88-13.543 2.482-13.611-5.417-2.782-5.676c4.615-2.716 10.062-4.112 15.805-3.708 6.585.464 12.471 3.222 16.915 7.439z"/><path fill="#9aa3ad" fill-rule="nonzero" d="M35.5566 43.6035c-.111 0-.222-.037-.312-.109l-11.516-9.192c-.192-.154-.244-.424-.123-.637.091-.161.26-.254.435-.254.058 0 .118.01.175.032l13.315 4.986 13.243-2.159c.027-.004.054-.006.081-.006.22 0 .418.145.48.363.07.244-.055.501-.289.599l-15.298 6.339c-.061.025-.127.038-.191.038"/><path fill="#231f20" fill-rule="nonzero" d="M24.0408 32.9116c-.351 0-.688.186-.87.507-.243.427-.138.968.246 1.275l11.516 9.191c.18.144.401.219.624.219.129 0 .259-.025.383-.076l15.297-6.339c.469-.195.718-.71.579-1.198-.124-.435-.521-.726-.961-.726-.053 0-.107.004-.161.013l-13.113 2.137-13.19-4.939c-.115-.043-.233-.064-.35-.064m0 1 13.439 5.033 13.374-2.18-15.297 6.339-11.516-9.192"/><path fill="#231f20" fill-rule="nonzero" d="m35.55628147 43.1035613-11.51546083-9.19157015 13.43884345 5.03303861 13.37498183-2.18056217Z" opacity=".3"/><path fill="none" stroke="#231f20" stroke-linecap="square" stroke-width=".5" d="m35.55596651 43.10376728 1.9243057-4.1594411"/><path fill="#231f20" fill-rule="nonzero" d="m53.8439 50.4663 3.709 6.12.188.31-.128.267-2.762 5.764-.021-.24 2.356 4.145-2.794-3.863-.072-.099.05-.142 2.117-6.031.06.577-4.354-5.68zm-31.067-.0031-4.387 5.1.071-.44 1.523 6.239-2.452-5.936-.081-.197.152-.244 3.563-5.707z"/><path fill="#fff" fill-rule="nonzero" stroke="#231f20" d="m45.82193733 42.84188196-4.9731246 4.0601043 2.79942447 2.63042146 3.43176594-.63036499zM41.083 14.8017l-2.793 4.566 4.816.25ZM24.0405 44.2431l5.535 4.549-.175-5.211Zm33.8289558-7.42197162-1.7846236 2.81140911 3.67731421.5623303 1.5132388-3.247813ZM11.584 34.4361l2.502 3.377 1.794-3.447Z"/></g></g><path fill="none" stroke="#231f20" stroke-width="2" d="M63.354 55.1546997v-36l-31.177-18-31.177 18v36l31.177 18z"/></svg>