<svg xmlns="http://www.w3.org/2000/svg" xmlns:svg="http://www.w3.org/2000/svg" fill-rule="evenodd" stroke-miterlimit="10" clip-rule="evenodd" viewBox="0 0 64.353996 74.309402" xml:space="preserve"><path fill="#9aa3ad" fill-rule="nonzero" d="M63.354 55.1546997v-36l-31.177-18-31.177 18v36l31.177 18z"/><g transform="translate(-3.8229 -3.3453003)"><clipPath id="a"><path d="M4.823 22.5v36L36 76.5l31.177-18v-36L36 4.5Z" clip-rule="nonzero"/></clipPath><g stroke="#231f20" clip-path="url(#a)"><path fill="#fff" fill-rule="nonzero" stroke-width="2" d="m59.4697.6972-39.343 39.343 8.331 8.33c7.505-7.483 15.01-14.966 22.514-22.448 2.715-2.866 8.505-9.844 8.883-19.621.079-2.038-.088-3.918-.385-5.604Z"/><path fill="#fff" fill-rule="nonzero" stroke-width="2" d="m30.4433 50.3559-12.302-12.302c-.649-.649-1.702-.649-2.351 0l-1.162 1.162c-.649.649-.649 1.701 0 2.351l12.302 12.302c.649.649 1.702.649 2.351 0l1.162-1.162c.649-.649.649-1.702 0-2.351Z"/><path fill="#9aa3ad" stroke-width="2" d="m22.9373215 49.8758906-4.31547416-4.31547417L5.4746069 58.7076569l4.31547417 4.31547416z"/><path fill="none" d="M23.63363361 43.54557909 59.0469664 8.13224632M15.33460944 48.84648325l4.31618112 4.31618113m-7.60308112-1.02928113 4.31618112 4.31618113m-7.60308112-1.02928113 4.31618112 4.31618113"/><path fill="#fff" fill-rule="nonzero" stroke-width="2" d="m12.5304.6406 39.343 39.343-8.331 8.33c-7.505-7.483-15.01-14.966-22.515-22.448-2.714-2.866-8.504-9.844-8.882-19.621-.079-2.038.088-3.918.385-5.604Z"/><path fill="#fff" fill-rule="nonzero" stroke-width="2" d="m41.5568 50.2994 12.302-12.302c.649-.649 1.702-.649 2.351 0l1.162 1.162c.649.649.649 1.701 0 2.351l-12.302 12.302c-.649.649-1.702.649-2.351 0l-1.162-1.162c-.649-.649-.649-1.702 0-2.351Z"/><path fill="#9aa3ad" stroke-width="2" d="m62.20994045 62.96669046 4.31547416-4.31547416-13.14724045-13.14724045L49.0627 49.81945z"/><path fill="none" d="M48.36636639 43.48907369 12.9530336 8.0757409m43.71235696 40.71429472-4.31618112 4.31618113m7.60308112-1.02928113-4.31618112 4.31618113m7.60308112-1.02928113-4.31618112 4.31618113"/></g></g><path fill="none" stroke="#231f20" stroke-width="2" d="M63.354 55.1546997v-36l-31.177-18-31.177 18v36l31.177 18z"/></svg>