<svg xmlns="http://www.w3.org/2000/svg" xmlns:svg="http://www.w3.org/2000/svg" fill-rule="evenodd" stroke-miterlimit="10" clip-rule="evenodd" viewBox="0 0 64.353996 74.309402" xml:space="preserve"><path fill="#9aa3ad" fill-rule="nonzero" stroke="#231f20" stroke-width="2" d="M63.354 55.1546997v-36l-31.177-18-31.177 18v36l31.177 18z"/><path fill="#fff" fill-rule="nonzero" stroke="#231f20" stroke-width="2" d="M48.6773 25.7153997h-25.699v2.148H8.9933c0 6.991 13.985 7.176 13.985 7.176v1.165h3.579c1.83 0 3.313 1.483 3.313 3.311 0 1.83-1.483 3.313-3.313 3.313h-.021l-3.558 2.82v2.946h5.091l.612-.86h14.108l.612.86h5.091v-2.946l-3.558-2.82c-1.877-.01-3.383-1.542-3.381-3.324.002-1.658 1.309-3.117 3.042-3.3h1.812v-1.165h1.777l3.835-3.068h3.342v-3.433z"/><path fill="#231f20" d="M23.981099 25.7157007h-1v10.489h1zm2.558001 17.112999h18.398001v1H26.5391zm18.871002-17.112998h1v9.3240004h-1z"/></svg>