<svg xmlns="http://www.w3.org/2000/svg" xmlns:xlink="http://www.w3.org/1999/xlink" xml:space="preserve" fill-rule="evenodd" clip-rule="evenodd" viewBox="0 0 128 128">
  <defs>
    <symbol id="a">
      <path fill-rule="nonzero" d="M62.5 120.3a4 4 0 0 1-1.4-1.5l-.2-1.3v-.7c.4-9.4.4-19.2.5-28.6v-7.5l.2-15.6V54c0-13.3 0-27.1-.7-40.8l.7-.4-.7-1.4-.1-1.3.3-1.1.8-1 1.1-.5 1-.1c.3 0 .5 0 1.4.3l1 .8c.2.6.7 1.7.8 2.6l.1 8v2.1a8231 8231 0 0 1-.7 96.4l-.3 1.3-.6.8-1 .6-1 .2z"/>
    </symbol>
  </defs>
  <g transform="scale(1.13195)">
    <use xlink:href="#a" width="100%" height="100%" transform="rotate(-45 51.3 69)"/>
  </g>
</svg>
