<svg xmlns="http://www.w3.org/2000/svg" viewBox="0 0 32.172588 29.659111">
  <defs/>
  <path fill-color="#485690" fill-opacity=".9" d="M27.79043 19.410125l-.82866.483236-.11024.0643-1.27515.74231-.18373.1084v2.79466l1.27331.74231.60817.35461.0239.0147.0386.0239.45383.26274.64676-.3785.23886-.13964.91134-.531.45016-.26275.14883-.0864v-2.79466l-1.96233-1.144687zm0 0M30.45096 14.750519l-.82866.483236-.11024.0643-1.27515.74231-.18373.1084v2.79466l1.27331.74231.60817.354606.0239.0147.0386.0239.45383.26274.64676-.3785.23886-.139636.91134-.531.45016-.26275.14883-.0864v-2.79466l-1.96233-1.144687zm0 0M10.38303 3.138259l-.82866.483236-.11024.0643-1.27515.74231-.18373.1084v2.79466l1.27331.74231.60817.35461.0239.0147.0386.0239.45383.26274.64676-.3785.23886-.13964.91134-.531.45016-.26275.14883-.0864v-2.79466l-1.96233-1.144687zm0 0M7.72253 7.788673l-.82867.483237-.11024.0643-1.27515.74231-.18373.1084v2.79466l1.27332.74231.60817.35461.0239.0147.0386.0239.45383.262739.64676-.3785.23886-.13964.91133-.531.45016-.26275.14883-.0864V9.18689L8.15618 8.042202zm0 0"/>
  <path fill-color="#485690" fill-opacity=".6" d="M2.39778 7.779488l-.82866.483236-.11024.0643-1.27515.74231L0 9.177734v2.79466l1.27331.74231.60817.35461.0239.0147.0386.0239.45383.26274.64676-.3785.23886-.13964.91134-.531.45016-.26275.14883-.0864v-2.79466L2.83143 8.033017zm0 0M5.05831 3.121718l-.82866.483236-.11024.0643-1.27515.74231-.18373.1084v2.79466l1.27331.74231.60817.35461.0239.0147.0386.0239.45383.26274.64676-.3785.23886-.13964.91134-.531.45016-.26275.14883-.0864v-2.79466L5.49196 3.375247zm0 0M33.117 19.410121l-.82866.48324-.11024.0643-1.27514.74231-.18373.1084v2.79466l1.2733.74231.60817.35461.0239.0147.0386.0239.45383.26274.64676-.3785.23886-.13964.91134-.531.45016-.26275.14883-.0864v-2.79466l-1.96233-1.14469zm0 0"/>
  <path fill-color="#485690" fill-opacity=".3" d="M2.39778-1.528699l-.82866.483236-.11024.0643-1.27515.74231L0-.130453v2.79466l1.27331.74231.60817.35461.0239.0147.0386.0239.45383.26274.64676-.3785.23886-.13964.91134-.531.45016-.26275.14883-.0864v-2.79466L2.83143-1.27517zm0 0M7.72252-1.528699l-.82866.483236-.11024.0643-1.27515.74231-.18373.1084v2.79466l1.27331.74231.60817.35461.0239.0147.0386.0239.45383.26274.64676-.3785.23886-.13964.91134-.531.45016-.26275.14883-.0864v-2.79466L8.15617-1.27517zm0 0M30.45097 24.067941l-.82866.48324-.11024.0643-1.27515.74231-.18373.1084v2.79466l1.27331.74231.60817.35461.0239.0147.0386.0239.45383.26274.64676-.3785.23886-.13964.91134-.531.45016-.26275.14883-.0864v-2.79466l-1.96233-1.14469zm0 0"/>
</svg>
