<svg id="Layer_1" data-name="Layer 1" xmlns="http://www.w3.org/2000/svg" xmlns:xlink="http://www.w3.org/1999/xlink" viewBox="0 0 36 41.56"><defs><style>.cls-1,.cls-4,.cls-6,.cls-7,.cls-9{fill:none;}.cls-2{fill:#e4e4e8;}.cls-3{clip-path:url(#clip-path);}.cls-4,.cls-6,.cls-7,.cls-9{stroke:#1d1d1b;}.cls-4,.cls-9{stroke-miterlimit:10;}.cls-4,.cls-6{stroke-width:1.12px;}.cls-5{fill:#fff;}.cls-6,.cls-7{stroke-linecap:round;stroke-linejoin:round;}.cls-7,.cls-9{stroke-width:0.56px;}.cls-8{fill:#1d1d1b;}</style><clipPath id="clip-path" transform="translate(-22.63 -8)"><rect class="cls-1" x="22.63" y="8" width="36" height="41.57"/></clipPath></defs><polygon class="cls-2" points="18 0.64 0.56 10.71 0.56 30.85 18 40.92 35.44 30.85 35.44 10.71 18 0.64"/><g class="cls-3"><polygon class="cls-4" points="35.44 30.85 35.44 10.71 18 0.65 0.56 10.71 0.56 30.85 18 40.92 35.44 30.85"/><path class="cls-5" d="M47.48,27.36H33.78l-2,1.95v9.85a2,2,0,0,0,2,2h.81l2-2V34.09l.86,1.33.85,1.34H43l.86-1.34.86-1.33v5.07l2,2h.82a2,2,0,0,0,2-2V29.31Z" transform="translate(-22.63 -8)"/><path class="cls-6" d="M47.48,27.36H33.78l-2,1.95v9.85a2,2,0,0,0,2,2h.81l2-2V34.09l.86,1.33.85,1.34H43l.86-1.34.86-1.33v5.07l2,2h.82a2,2,0,0,0,2-2V29.31Z" transform="translate(-22.63 -8)"/><polyline class="cls-7" points="11.2 19.36 11.2 29.58 13.97 31.16"/><polyline class="cls-7" points="24.8 19.36 24.8 29.84 22.03 31.16"/><path class="cls-5" d="M38.79,36.76v1H38C33.84,32.29,33.51,24,33.51,24l3-7.5,3.15.59v.73h2v-.73l3.14-.59,3,7.5s-.34,8.33-4.52,13.78h-.77V32.35a1.84,1.84,0,0,0-3.67,0Z" transform="translate(-22.63 -8)"/><path class="cls-8" d="M39.34,36.76v1.55h-1.6l-.16-.21a21.55,21.55,0,0,1-2-3.24,25.64,25.64,0,0,1-1.34-3.51,32,32,0,0,1-.88-3.63A28.92,28.92,0,0,1,33,24v-.11l0-.11,3-7.51.17-.43.46.09,3.15.59.45.09V17.8l-.56-.56h2l-.56.56V16.59l.45-.09,3.15-.59.45-.09.17.43,3,7.5.05.12V24a29.21,29.21,0,0,1-.45,3.73A32.58,32.58,0,0,1,47,31.35a24.37,24.37,0,0,1-1.36,3.5,19.53,19.53,0,0,1-2,3.23l-.17.23H41.89V35.75c0-.7.08-1.29.13-1.94l.07-1v-.49a1.41,1.41,0,0,0,0-.41A1.45,1.45,0,0,0,41,30.84a1.63,1.63,0,0,0-1.53.42,1.4,1.4,0,0,0-.4.71,1.48,1.48,0,0,0,0,.42v.48c0,1.3.19,2.59.26,3.89m-1.09,0c.07-1.3.2-2.59.25-3.89v-.48a2.52,2.52,0,0,1,.08-.55,2.11,2.11,0,0,1,.53-1,2,2,0,0,1,2-.55,2.2,2.2,0,0,1,1.51,1.51,2.53,2.53,0,0,1,.09.55v.49l.07,1c0,.65.1,1.29.12,1.94s0,1.3,0,2l-.57-.57h.77l-.46.22a19.5,19.5,0,0,0,1.82-3A28.47,28.47,0,0,0,45.87,31a34.94,34.94,0,0,0,.84-3.5,28.65,28.65,0,0,0,.46-3.56v.23l-2.94-7.51.63.35-3.15.59.46-.55v1.29H39.05V17.05l.46.55h0L36.36,17l.62-.35-3,7.52v-.23a33,33,0,0,0,.44,3.56,32.76,32.76,0,0,0,.92,3.5,23.7,23.7,0,0,0,1.28,3.34,18.42,18.42,0,0,0,1.84,3L38,37.18h.76l-.56.56v-1" transform="translate(-22.63 -8)"/><path class="cls-7" d="M42.46,29.08a5.16,5.16,0,0,0,2.78-4.86l-1.33-7.59" transform="translate(-22.63 -8)"/><path class="cls-7" d="M37.34,16.62,36,24.22a5.22,5.22,0,0,0,2.79,4.86" transform="translate(-22.63 -8)"/><path class="cls-5" d="M37.82,24.14a3.18,3.18,0,0,1,1.21-1,3.67,3.67,0,0,1,3.17,0,3.18,3.18,0,0,1,1.24,1l-.56.64a7.28,7.28,0,0,0-1.13-.42,4.25,4.25,0,0,0-1.12-.14,4.73,4.73,0,0,0-1.12.16,6.35,6.35,0,0,0-1.12.44Z" transform="translate(-22.63 -8)"/><path class="cls-9" d="M37.82,24.14a3.18,3.18,0,0,1,1.21-1,3.67,3.67,0,0,1,3.17,0,3.18,3.18,0,0,1,1.24,1l-.56.64a7.28,7.28,0,0,0-1.13-.42,4.25,4.25,0,0,0-1.12-.14,4.73,4.73,0,0,0-1.12.16,6.35,6.35,0,0,0-1.12.44Z" transform="translate(-22.63 -8)"/><line class="cls-7" x1="16.16" y1="27.15" x2="19.83" y2="27.15"/><path class="cls-5" d="M42.46,29.08a2.76,2.76,0,0,0-1.84-.7,2.82,2.82,0,0,0-1.83.7" transform="translate(-22.63 -8)"/><path class="cls-9" d="M42.46,29.08a2.76,2.76,0,0,0-1.84-.7,2.82,2.82,0,0,0-1.83.7" transform="translate(-22.63 -8)"/><path class="cls-8" d="M41.65,17.78V20a1,1,0,0,1-2,0V17.78h2m.56-.56H39.05V20a1.58,1.58,0,0,0,3.16,0Z" transform="translate(-22.63 -8)"/></g></svg>